<svg xmlns="http://www.w3.org/2000/svg" viewBox="0 0 427.09 447.69"><defs><style>.cls-1{fill:#ffc528;}.cls-2{fill:#c2ddff;}.cls-15,.cls-18,.cls-3{fill:none;stroke-linecap:round;stroke-linejoin:round;}.cls-3{stroke:#fff;stroke-width:6.28px;}.cls-4{fill:#ed516e;}.cls-5{fill:#ff5776;}.cls-6{fill:#cfae88;}.cls-7{fill:#bd9a75;}.cls-8{fill:#a17b51;}.cls-9{fill:#d6b48d;}.cls-10{fill:#1257b3;}.cls-11{fill:#246fd1;}.cls-12{fill:#3d89ed;}.cls-13{fill:#e8c399;}.cls-14{fill:#d6a985;}.cls-15{stroke:#122c73;stroke-width:2.81px;}.cls-16{fill:#fff;}.cls-17{fill:#529cff;}.cls-18{stroke:#1257b3;stroke-width:2.16px;}.cls-19{fill:#ba8c66;}.cls-20{fill:#cca17f;}</style></defs><g id="Layer_2" data-name="Layer 2"><g id="Layer_1-2" data-name="Layer 1"><path class="cls-1" d="M57,311V245.43l153.93,89.26,153.92-89.26V384.87A213.58,213.58,0,0,0,385.1,107c-38.91-52.4-101.27-73.4-171.55-73.4S80.91,54.55,42,107A213.56,213.56,0,0,0,57,379.32V311Z"/><rect class="cls-2" x="185.11" width="105.63" height="95.11" rx="41.11"/><line class="cls-3" x1="216.67" y1="35.87" x2="264.52" y2="35.87"/><line class="cls-3" x1="216.67" y1="59.24" x2="264.52" y2="59.24"/><path class="cls-4" d="M170.45,93.06c0,.74,4.6,10.82,7.91,18a3.24,3.24,0,0,0,6-.25l6.49-17.71Z"/><rect class="cls-4" x="142.76" y="18.51" width="87.97" height="79.21" rx="34.23"/><rect class="cls-5" x="136.35" y="18.51" width="87.97" height="79.21" rx="34.23"/><polyline class="cls-3" points="166.77 51.61 178.45 71.77 193.9 42.38"/><polygon class="cls-6" points="210.88 334.69 365.25 245.57 210.89 156.45 56.53 245.57 210.88 334.69"/><polygon class="cls-7" points="210.9 334.62 365.26 245.5 210.91 156.38 210.9 334.62"/><polygon class="cls-8" points="312.52 323.85 353.79 299.48 353.79 271.58 312.52 295.95 312.52 323.85"/><polygon class="cls-9" points="364.48 245.5 414.92 213.69 259.92 121.69 210.12 156.38 364.48 245.5"/><polygon class="cls-9" points="210.89 156.45 169.2 128.73 16 217.49 56.53 245.57 210.89 156.45"/><polygon class="cls-10" points="329.9 253.02 329.9 292.34 329.9 304.66 329.9 343.98 237.66 397.23 237.66 357.91 237.66 290.73 237.66 251.41 329.9 253.02"/><polygon class="cls-11" points="195.14 227.12 195.14 252.15 237.66 251.41 237.66 290.73 237.66 357.91 237.66 397.23 195.14 372.68 195.14 372.95 102.9 319.69 102.9 280.37 102.9 268.06 102.9 228.74 195.14 227.12"/><polygon class="cls-12" points="102.64 228.82 195.14 175.41 330.17 253.1 237.66 306.51 102.64 228.82"/><path class="cls-7" d="M364.81,311V245.43L210.89,334.69v113c.88,0,1.77,0,2.66,0a212.88,212.88,0,0,0,151.26-62.82V311Z"/><path class="cls-9" d="M210.89,447.65v-113L57,245.43V379.32A212.93,212.93,0,0,0,210.89,447.65Z"/><polygon class="cls-13" points="210.88 334.69 173.23 360.78 16 271.63 56.53 245.57 210.88 334.69"/><polygon class="cls-14" points="365.25 245.57 407.39 275.07 245.79 370.13 210.88 334.69 365.25 245.57"/><polygon class="cls-15" points="114.77 413.78 141.53 429.42 141.53 395.82 114.77 380.19 114.77 413.78"/><polygon class="cls-15" points="88 398.14 114.77 413.78 114.77 380.19 88 364.55 88 398.14"/><polygon class="cls-15" points="61.24 382.5 88 398.14 88 364.55 61.24 348.91 61.24 382.5"/><line class="cls-15" x1="74.27" y1="367.45" x2="74.27" y2="384.47"/><polyline class="cls-15" points="77.66 373.86 74.27 365.83 71.06 370"/><path class="cls-15" d="M109.06,394.66s-.18-9.29-6.25-12.84-6.6,5.33-6.6,5.33Z"/><path class="cls-15" d="M121.73,392.88s.18,9.28,6.24,12.83,6.6-5.33,6.6-5.33Z"/><path class="cls-15" d="M103,393.69v6.91c0,1.25-.81,1.8-1.8,1.21h0a4.2,4.2,0,0,1-1.81-3.32v-1"/><line class="cls-15" x1="127.97" y1="405.71" x2="127.97" y2="415.85"/><line class="cls-15" x1="132.25" y1="418.93" x2="123.69" y2="413.93"/><polygon class="cls-16" points="127.83 252.51 127.83 261.68 113.08 253.47 113.08 244.02 127.83 252.51"/><polygon class="cls-17" points="141.53 206.36 275.46 284.69 298.16 271.58 162.04 194.52 141.53 206.36"/><line class="cls-18" x1="152.23" y1="200.19" x2="287.07" y2="278.26"/><polygon class="cls-19" points="210.88 334.69 210.89 362.63 238.13 390.9 365.25 319.63 366.2 299.3 245.79 370.13 210.88 334.69"/><polygon class="cls-20" points="56.53 294.61 173.23 360.78 210.88 334.69 210.89 362.63 179.49 383.9 56.96 319.5 56.53 294.61"/></g></g></svg>