<svg xmlns="http://www.w3.org/2000/svg" viewBox="0 0 427.09 420.58"><defs><style>.cls-1{fill:none;}.cls-2{fill:#f6faf3;}.cls-3{fill:#d7e8e5;}.cls-4,.cls-8{fill:#beb2d9;}.cls-4{opacity:0.43;}.cls-5{fill:#d50057;}.cls-6{fill:#d44c4c;}.cls-7{fill:#fff;}.cls-9{fill:#6b5a9e;}.cls-10{fill:#ffc528;}</style></defs><g id="Layer_2" data-name="Layer 2"><g id="Layer_1-2" data-name="Layer 1"><path class="cls-1" d="M53.82,267.94a14.69,14.69,0,0,0-12.57-.46L60.06,284.8Z"/><path class="cls-1" d="M61.39,285.15l6.44-17.38a14.71,14.71,0,0,0-12.88,0l6.43,17.38Z"/><path class="cls-2" d="M25.5,249.3a27.56,27.56,0,0,1,1.14-3.16L3.93,247.93a213,213,0,0,0,7.4,27.92l20.1-1.59A26.15,26.15,0,0,1,25.5,249.3Z"/><path class="cls-2" d="M57.86,231.37a26.54,26.54,0,0,1,4.55,1.78L51,88.54l84.66-6.69,12.21,154.72L72.73,242.5a26.24,26.24,0,0,1,3.81,10.31l82.36-7.07L145,69.81a2.82,2.82,0,0,1,2.54-3L222,59.89a42.19,42.19,0,0,1,1.56-9.19,41,41,0,0,1,1.54-4.41L160.2,51.41l-3.14-39.85a231.68,231.68,0,0,0-26.43,6.7l2.78,35.26-73.35,5.8A166.33,166.33,0,0,0,42,79.85a213.92,213.92,0,0,0-16.58,26.09l10.2,129.18A26.07,26.07,0,0,1,57.86,231.37Z"/><path class="cls-2" d="M269.9,20.44l-.71-9q-13.31-2.52-27.25-3.73l1.41,17.9A42.1,42.1,0,0,1,269.9,20.44Z"/><line class="cls-2" x1="342.22" y1="221.22" x2="339.5" y2="221.44"/><path class="cls-2" d="M427,214.53l-25.11,2-10-127.1c-2.15-3.25-4.38-6.45-6.7-9.57a164.91,164.91,0,0,0-46.52-42.52l-38.23,3a42.28,42.28,0,0,1,5.74,28.06l52.46-4.15,9.68,122.6,1.56,19.76,1,12.36L355,220.21l-3.79.3-2.63.21-3.9.31-2.48.19-2.72.22-53.4,4.21-9.69-122.78a42.12,42.12,0,0,1-23.85.17c-1.08-.31-2.14-.68-3.18-1.07l9.93,125.8-84.65,6.68L162.44,79.74l61.37-4.85A42.08,42.08,0,0,1,222,65.52L150.8,72.13l13.92,176a2.82,2.82,0,0,1-2.56,3l-85.42,7.32a25.91,25.91,0,0,1-.95,5.3,23.64,23.64,0,0,1-.9,2.61,26,26,0,0,1-2.48,4.7l5.75-.46,71.94-5.68,11.8,149.39a214.33,214.33,0,0,0,138.15-12l-5.28-66.95a43.81,43.81,0,0,1-3.64-46.11L288.34,254,373,247.3l7.35,93.07a213.7,213.7,0,0,0,27.71-45.09l-4-50.44L424,243.27A215.71,215.71,0,0,0,427,214.53Zm-237.84,203L176.89,262.78l84.66-6.68,12.22,154.71Z"/><path class="cls-2" d="M66.23,281.55l-.3-3.82-.81.57a26.17,26.17,0,0,1-21.68,3.36A26.66,26.66,0,0,1,39.15,280l4.45,56.34A215.24,215.24,0,0,0,73,367.84Z"/><path class="cls-3" d="M31.43,274.26l-20.1,1.59A213.29,213.29,0,0,0,43.6,336.34L39.15,280A25.94,25.94,0,0,1,31.43,274.26Z"/><path class="cls-3" d="M150.1,264.89l-71.94,5.68-5.75.46a26,26,0,0,1-6.48,6.7l.3,3.82L73,367.84a212.88,212.88,0,0,0,88.86,46.44Z"/><rect class="cls-3" x="182.87" y="259.2" width="84.92" height="155.2" transform="translate(-25.81 18.78) rotate(-4.51)"/><path class="cls-3" d="M288.34,254l2.79,35.28a43.88,43.88,0,1,1,3.64,46.11l5.28,66.95a214.28,214.28,0,0,0,80.3-61.95L373,247.3Z"/><path class="cls-3" d="M35.61,235.12,25.41,105.94a214.07,214.07,0,0,0-21.48,142l22.71-1.79A26,26,0,0,1,35.61,235.12Z"/><path class="cls-3" d="M135.65,81.85,51,88.54,62.41,233.15a26,26,0,0,1,10.32,9.35l75.13-5.93Z"/><path class="cls-3" d="M223.81,74.89l-61.37,4.85,12.22,154.71,84.65-6.68L249.38,102A42.24,42.24,0,0,1,223.81,74.89Z"/><path class="cls-3" d="M369.79,206.61l-1.56-19.76-9.68-122.6L306.09,68.4A43.29,43.29,0,0,1,304.9,74a42.26,42.26,0,0,1-28.49,28.85l9.69,122.78,56.12-4.43,2.48-.19,3.9-.31,2.63-.21,3.79-.3L370.76,219Z"/><path class="cls-3" d="M130.63,18.26c-26.74,8.51-50.69,21.9-70.57,41.06l73.35-5.8Z"/><path class="cls-3" d="M225.09,46.29a42.08,42.08,0,0,1,18.26-20.72l-1.41-17.9c-9.29-.81-18.77-1.22-28.39-1.22a297.89,297.89,0,0,0-56.49,5.11l3.14,39.85Z"/><path class="cls-3" d="M269.9,20.44a42.24,42.24,0,0,1,30.45,19.9l38.23-3c-20.66-12.7-44.09-21.13-69.39-25.93Z"/><path class="cls-3" d="M408.06,295.28a212.34,212.34,0,0,0,16-52l-19.94,1.57Z"/><path class="cls-3" d="M427,214.53c.08-2.49.14-5,.14-7.49A212.54,212.54,0,0,0,391.8,89.42l10,127.1Z"/><path class="cls-2" d="M289.83,69.68l16.26-1.28a42.28,42.28,0,0,0-5.74-28.06l-19.56,1.55A26.16,26.16,0,0,1,289.83,69.68Z"/><path class="cls-2" d="M257.47,87.64a26.08,26.08,0,0,1-9.62-5.13L249.38,102c1,.39,2.1.76,3.18,1.07a42.12,42.12,0,0,0,23.85-.17l-1.29-16.39A26.09,26.09,0,0,1,257.47,87.64Z"/><path class="cls-2" d="M238.56,64,222,65.52a42.08,42.08,0,0,0,1.79,9.37L241,73.54A26.27,26.27,0,0,1,238.56,64Z"/><path class="cls-2" d="M243.35,25.57l1.51,19.16-19.77,1.56a41,41,0,0,0-1.54,4.41A42.19,42.19,0,0,0,222,59.89l16.87-1.57a27.42,27.42,0,0,1,.67-3,26.15,26.15,0,0,1,31.69-18.11L269.9,20.44A42.1,42.1,0,0,0,243.35,25.57Z"/><path class="cls-3" d="M241,73.54l-17.16,1.35A42.24,42.24,0,0,0,249.38,102l-1.53-19.46A26.16,26.16,0,0,1,241,73.54Z"/><path class="cls-3" d="M289.82,69.7a26.12,26.12,0,0,1-14.7,16.78l1.29,16.39A42.26,42.26,0,0,0,304.9,74a43.29,43.29,0,0,0,1.19-5.62l-16.26,1.28Z"/><path class="cls-3" d="M243.35,25.57a42.08,42.08,0,0,0-18.26,20.72l19.77-1.56Z"/><path class="cls-3" d="M271.89,37.35a25.86,25.86,0,0,1,8.9,4.54l19.56-1.55a42.24,42.24,0,0,0-30.45-19.9l1.32,16.74Z"/><path class="cls-4" d="M317.44,29.91A62.13,62.13,0,0,0,281.39,2.42,62.94,62.94,0,0,0,272.57.57a62.37,62.37,0,0,0-66,38.1,63.29,63.29,0,0,0-2.27,6.51c-1.29,4.51-2,12.07-2.3,16.56l24.5-2.27c.24-1.49.93-6,1.36-7.54a38.54,38.54,0,0,1,46.7-26.69c.33.09.65.16,1,.26a38.53,38.53,0,0,1,26.44,47.65v0a38.55,38.55,0,0,1-75.54-8.42L202,67a62.45,62.45,0,0,0,40.32,53.72c1.54.57,3.09,1.11,4.69,1.56a62.35,62.35,0,0,0,70.42-92.39Z"/><path class="cls-5" d="M222,59.89l-74.47,6.9a2.82,2.82,0,0,0-2.54,3L158.9,245.74l-82.36,7.07a26.21,26.21,0,0,1,.2,5.61l85.42-7.32a2.82,2.82,0,0,0,2.56-3l-13.92-176L222,65.52A40.66,40.66,0,0,1,222,59.89Z"/><path class="cls-6" d="M238.86,58.32,222,59.89a40.66,40.66,0,0,0,0,5.63L238.56,64A26.42,26.42,0,0,1,238.86,58.32Z"/><path class="cls-6" d="M65.12,278.3l.81-.57Z"/><path class="cls-5" d="M76.54,252.81a26.18,26.18,0,0,0-14.13-19.66,26.54,26.54,0,0,0-4.55-1.78,26.17,26.17,0,0,0-31.22,14.77,27.56,27.56,0,0,0-1.14,3.16A26.13,26.13,0,0,0,39.15,280a26.66,26.66,0,0,0,4.29,1.66,26.17,26.17,0,0,0,21.68-3.36l.81-.57a25.95,25.95,0,0,0,9-11.4,23.64,23.64,0,0,0,.9-2.61,25.91,25.91,0,0,0,.95-5.3A26.21,26.21,0,0,0,76.54,252.81Zm-15.63,6.64a10.68,10.68,0,1,1-7.32-13.2A10.68,10.68,0,0,1,60.91,259.45Z"/><path class="cls-7" d="M53.59,246.25a10.68,10.68,0,1,0,7.32,13.2A10.68,10.68,0,0,0,53.59,246.25Z"/><path class="cls-8" d="M288.63,32.19A38.48,38.48,0,0,0,275.5,25.5c-.33-.1-.65-.17-1-.26a38.54,38.54,0,0,0-46.7,26.69,37.42,37.42,0,0,0-1,4.48,37.92,37.92,0,0,0-.44,8.35,38.55,38.55,0,0,0,75.54,8.42v0A38.55,38.55,0,0,0,288.63,32.19Zm-28.76,45.3A15.73,15.73,0,1,1,279.33,66.7,15.73,15.73,0,0,1,259.87,77.49Z"/><path class="cls-9" d="M259.87,77.49A15.73,15.73,0,1,0,249.08,58,15.74,15.74,0,0,0,259.87,77.49Z"/><path class="cls-10" d="M342.17,267.24a43.85,43.85,0,1,0,30.07,54.24A43.85,43.85,0,0,0,342.17,267.24Zm7.6,34.1L323,327a.43.43,0,0,1-.72-.39l3-16.59a.41.41,0,0,0-.15-.41l-13-10.77a.44.44,0,0,1,.31-.77l37.06,2.48A.44.44,0,0,1,349.77,301.34Z"/><path class="cls-7" d="M325.1,309.65a.41.41,0,0,1,.15.41l-3,16.59a.43.43,0,0,0,.72.39l26.82-25.7a.44.44,0,0,0-.27-.75l-37.06-2.48a.44.44,0,0,0-.31.77Z"/></g></g></svg>