<svg xmlns="http://www.w3.org/2000/svg" viewBox="0 0 427.09 463.21"><defs><style>.cls-1{fill:#0293d2;}.cls-2{fill:#0f1a5c;}.cls-3{fill:#316ce6;}.cls-4{fill:#ffc528;}.cls-5{fill:#fff;}.cls-6{fill:#2958bd;}.cls-7,.cls-9{fill:none;stroke:#fff;stroke-linecap:round;stroke-linejoin:round;}.cls-7{stroke-width:4.24px;}.cls-8{fill:#ff5776;}.cls-9{stroke-width:4.72px;}</style></defs><g id="Layer_2" data-name="Layer 2"><g id="Layer_1-2" data-name="Layer 1"><path class="cls-1" d="M42,122.47A213.57,213.57,0,0,0,79.93,416.23V85.56A164.75,164.75,0,0,0,42,122.47Z"/><path class="cls-1" d="M427.09,249.66a212.63,212.63,0,0,0-42-127.19,164.4,164.4,0,0,0-40.38-38.56V418.17A213.18,213.18,0,0,0,427.09,249.66Z"/><path class="cls-2" d="M88.13,41.72a22.27,22.27,0,0,1,22.2-22.2h203a22.27,22.27,0,0,1,22.2,22.2V78.09c3.15,1.84,6.23,3.79,9.24,5.82V24a24.08,24.08,0,0,0-24-24H104a24.09,24.09,0,0,0-24,24V85.56c2.68-1.88,5.42-3.65,8.2-5.37Z"/><path class="cls-2" d="M213.55,463.21a212.88,212.88,0,0,0,87.62-18.75H125.93A212.81,212.81,0,0,0,213.55,463.21Z"/><path class="cls-2" d="M335.48,78.09V422.26a22.49,22.49,0,0,1-.19,2.85q4.81-3.35,9.43-6.94V83.91C341.71,81.88,338.63,79.93,335.48,78.09Z"/><path class="cls-2" d="M88.13,422.26V80.19c-2.78,1.72-5.52,3.49-8.2,5.37V416.23c2.68,2.15,5.42,4.25,8.21,6.27A1.93,1.93,0,0,1,88.13,422.26Z"/><path class="cls-3" d="M125.93,444.46a213.85,213.85,0,0,1-37.79-22"/><path class="cls-3" d="M335.48,78.09V41.72a22.27,22.27,0,0,0-22.2-22.2H110.33a22.27,22.27,0,0,0-22.2,22.2V422.26a1.93,1.93,0,0,0,0,.24,213.85,213.85,0,0,0,37.79,22H301.17a213.08,213.08,0,0,0,34.12-19.35,22.49,22.49,0,0,0,.19-2.85Z"/><rect class="cls-4" x="162.15" y="39" width="231.87" height="143.35" rx="25.46"/><rect class="cls-5" x="333.86" y="50.98" width="38.85" height="11.5" rx="4.37"/><rect class="cls-5" x="177.68" y="121.67" width="38.85" height="11.5" rx="4.37"/><rect class="cls-5" x="232.15" y="121.67" width="38.85" height="11.5" rx="4.37"/><rect class="cls-5" x="286.62" y="121.67" width="38.85" height="11.5" rx="4.37"/><rect class="cls-5" x="341.1" y="121.67" width="38.85" height="11.5" rx="4.37"/><rect class="cls-5" x="177.68" y="69.34" width="43.69" height="38.85" rx="7.36"/><rect class="cls-5" x="176.77" y="153.93" width="89.19" height="7.64" rx="2.91"/><rect class="cls-6" x="107.33" y="203.73" width="203.4" height="171.57" rx="17.97"/><polyline class="cls-7" points="233.07 267.33 228.33 267.33 213.9 267.33 163.58 267.33 183.08 319.29 213.12 319.29 227.55 319.29 257.58 319.29 262.39 307.43"/><circle class="cls-7" cx="198.17" cy="346.63" r="9.75" transform="matrix(0.16, -0.99, 0.99, 0.16, -175.73, 486.71)"/><circle class="cls-7" cx="242.83" cy="346.63" r="9.75"/><line class="cls-7" x1="148.88" y1="228" x2="128.05" y2="228"/><line class="cls-7" x1="163.58" y1="267.33" x2="151.83" y2="235.91"/><circle class="cls-8" cx="264.71" cy="272.13" r="25.29" transform="translate(-114.89 266.88) rotate(-45)"/><polyline class="cls-9" points="253.64 269.64 263.85 283.44 275.78 260.82"/><line class="cls-7" x1="172.52" y1="284.06" x2="224.66" y2="284.06"/><line class="cls-7" x1="187.13" y1="275.44" x2="199.72" y2="311.18"/><line class="cls-7" x1="208.56" y1="275.44" x2="221.15" y2="311.18"/><line class="cls-7" x1="176.48" y1="299.92" x2="228.62" y2="299.92"/></g></g></svg>