<svg xmlns="http://www.w3.org/2000/svg" viewBox="0 0 85.09 85.28"><g id="Layer_2" data-name="Layer 2"><g id="Layer_1-2" data-name="Layer 1"><g id="U4qgoL.tif"><path d="M85,67.65a4.27,4.27,0,0,1-1.4,2.28,4.12,4.12,0,0,1-2.63.82c-3.57,0-7.14,0-10.71,0-.76,0-1.39-.21-1.6-1s.41-1.62,1.55-1.62H80.41c1.73,0,2-.3,2-2V14.57H2.66V66.18c0,1.6.33,1.92,2,1.92H23.9c.25,0,.5,0,.75,0A1.31,1.31,0,0,1,26,69.39a1.34,1.34,0,0,1-1.3,1.35,4.26,4.26,0,0,1-.5,0H4.27A4,4,0,0,1,.08,67.6,5.55,5.55,0,0,1,0,66.52V4.27A3.92,3.92,0,0,1,4.25,0q38,0,75.94,0A7.66,7.66,0,0,1,82,.2a4.05,4.05,0,0,1,2.22,1.39A4.86,4.86,0,0,1,85,2.89a2.67,2.67,0,0,1,.1,1c0,.36,0,.72,0,1.07V58.1c0,1.67,0,3.35,0,5v3.41A6,6,0,0,1,85,67.65ZM2.66,11.79H82.43V4.68c0-1.68-.31-2-2-2H4.63c-.25,0-.5,0-.75,0A1.21,1.21,0,0,0,2.67,3.93C2.65,6.53,2.66,9.13,2.66,11.79Z"/><path d="M64.33,29.86c0,2.11,0,4.21,0,6.32A2.63,2.63,0,0,1,61.56,39c-4.29,0-8.59,0-12.88,0a2.63,2.63,0,0,1-2.74-2.73c0-4.32,0-8.64,0-13a2.61,2.61,0,0,1,2.82-2.72H61.55a2.6,2.6,0,0,1,2.78,2.74C64.34,25.54,64.33,27.7,64.33,29.86ZM48.65,23.32v13h13v-13Z"/><path d="M26.14,29.85c0,2.08,0,4.16,0,6.23a2.65,2.65,0,0,1-2.91,3q-6.27,0-12.55,0a2.67,2.67,0,0,1-2.91-2.88c0-4.21,0-8.42,0-12.63a2.64,2.64,0,0,1,2.88-2.9H23.27a2.61,2.61,0,0,1,2.86,2.82C26.15,25.59,26.14,27.72,26.14,29.85ZM10.47,36.33h13v-13h-13Z"/><path d="M26.14,54.7c0,2.1,0,4.21,0,6.31a2.64,2.64,0,0,1-2.87,2.91q-6.32,0-12.62,0A2.64,2.64,0,0,1,7.76,61q0-6.32,0-12.62a2.62,2.62,0,0,1,2.84-2.86H23.3a2.61,2.61,0,0,1,2.83,2.86C26.15,50.49,26.14,52.6,26.14,54.7Zm-2.72,6.49V48.26H10.49V61.19Z"/><path d="M48.62,48.25c0,.44,0,.83-.08,1.21a1.19,1.19,0,0,1-1.15,1.1,1.17,1.17,0,0,1-1.37-1c-.5-2.38.62-4.13,2.94-4.1,4.12.06,8.24,0,12.36,0,2,0,3,1,3,3,0,1.41,0,2.82,0,4.23,0,1-.52,1.59-1.31,1.59a1.42,1.42,0,0,1-1.34-1.59c0-1.46,0-2.93,0-4.39,0,0,0-.05-.07-.13Z"/><path d="M72.3,20.63h3.49c.95,0,1.49.48,1.51,1.28s-.54,1.37-1.52,1.38q-3.52,0-7,0a1.39,1.39,0,0,1-1.54-1.38c0-.77.62-1.27,1.54-1.28Z"/><path d="M72.31,45.53h3.48c1,0,1.5.48,1.51,1.28a1.31,1.31,0,0,1-1.44,1.37c-2.41,0-4.81,0-7.22,0a1.36,1.36,0,0,1-1.45-1.39,1.33,1.33,0,0,1,1.47-1.25C69.87,45.52,71.09,45.53,72.31,45.53Z"/><path d="M34.07,23.29c-1.16,0-2.32,0-3.49,0-1,0-1.54-.52-1.54-1.35s.55-1.3,1.57-1.31h7c1,0,1.57.53,1.56,1.33s-.62,1.32-1.58,1.33C36.39,23.3,35.23,23.29,34.07,23.29Z"/><path d="M70.77,29.45c-.75,0-1.49,0-2.24,0a1.31,1.31,0,0,1-1.34-1.29,1.32,1.32,0,0,1,1.31-1.33c1.49,0,3,0,4.46,0a1.32,1.32,0,1,1,0,2.64H70.77Z"/><path d="M70.78,51.71c.71,0,1.43,0,2.15,0A1.28,1.28,0,0,1,74.29,53,1.3,1.3,0,0,1,73,54.35q-2.19.06-4.38,0a1.32,1.32,0,1,1,.06-2.64C69.34,51.69,70.06,51.71,70.78,51.71Z"/><path d="M32.56,29.45c-.71,0-1.43,0-2.15,0A1.27,1.27,0,0,1,29,28.2a1.29,1.29,0,0,1,1.33-1.39c1.46,0,2.93,0,4.39,0a1.3,1.3,0,0,1,1.33,1.39,1.28,1.28,0,0,1-1.37,1.25C34,29.47,33.28,29.45,32.56,29.45Z"/><path d="M52.94,6H74.7a6.91,6.91,0,0,1,.91,0,1.18,1.18,0,0,1,1.17,1.17,1.22,1.22,0,0,1-1,1.4,3.78,3.78,0,0,1-.82.06H30.83a3.39,3.39,0,0,1-.9-.08,1.22,1.22,0,0,1-1-1.35A1.22,1.22,0,0,1,30.1,6c.3,0,.61,0,.91,0Z"/><path d="M20.42,7.26a1.29,1.29,0,1,1-2.57,0A1.29,1.29,0,0,1,19.15,6,1.28,1.28,0,0,1,20.42,7.26Z"/><path d="M13.52,8.54A1.27,1.27,0,1,1,13.57,6a1.27,1.27,0,0,1-.05,2.54Z"/><path d="M9.17,7.29A1.24,1.24,0,0,1,7.92,8.54,1.26,1.26,0,0,1,6.65,7.21a1.26,1.26,0,0,1,2.52.08Z"/></g><path d="M66.17,72.18q-3.54-7.49-7.11-15a6.71,6.71,0,0,0-7-3.75c-2.59.41-5.18.88-7.76,1.38a.9.9,0,0,1-1.19-.61c-1.65-3.53-3.35-7.05-5-10.57a6.32,6.32,0,0,0-2.37-2.82A4.44,4.44,0,0,0,29,43.66a6.33,6.33,0,0,0,.67,4Q34.85,58.57,40,69.48c.12.25.22.51.36.85-2-.54-3.84-1.14-5.73-1.51a7,7,0,0,0-3,.08,4.24,4.24,0,0,0-2.3,6.55,8.45,8.45,0,0,0,4,3c5,2.17,9.76,5.06,15,6.73a4,4,0,0,0,2.16,0,22.93,22.93,0,0,0,2.33-.82c3.63-1.69,7.25-3.42,10.86-5.15C66.65,77.75,67.57,75.13,66.17,72.18Zm-3.78,4.67c-3.57,1.7-7.13,3.41-10.72,5.08a15.51,15.51,0,0,1-2.18.68,26.43,26.43,0,0,1-3.23-1c-4.22-1.94-8.41-3.94-12.59-6a8.41,8.41,0,0,1-1.89-1.31,1.68,1.68,0,0,1-.44-2,1.66,1.66,0,0,1,1.74-1,8.41,8.41,0,0,1,1.8.26c2.32.63,4.63,1.29,6.94,2,.73.21,1.46.5,2.07-.21s.24-1.39-.09-2.08Q38,59,32.14,46.74a7.82,7.82,0,0,1-.58-2.13A1.5,1.5,0,0,1,32.44,43a1.54,1.54,0,0,1,1.87.09,5.78,5.78,0,0,1,1.36,1.72c1.78,3.63,3.49,7.29,5.22,10.93.79,1.65,1.67,2.06,3.47,1.72,2.53-.48,5.06-1,7.59-1.37a4.09,4.09,0,0,1,4.89,2.6Q60.29,66,63.72,73.19C64.57,75,64.2,76,62.39,76.85Z"/></g></g></svg>