<svg xmlns="http://www.w3.org/2000/svg" xmlns:xlink="http://www.w3.org/1999/xlink" viewBox="0 0 457.33 531.64"><defs><style>.cls-1{fill:none;}.cls-2{fill:#0293d2;}.cls-3{fill:#f2b92a;}.cls-10,.cls-3,.cls-4,.cls-5,.cls-6,.cls-8,.cls-9{fill-rule:evenodd;}.cls-4{fill:#6c451e;}.cls-5{fill:#ffc528;}.cls-6{fill:#966e01;}.cls-7{clip-path:url(#clip-path);}.cls-8{fill:#fff;}.cls-9{fill:#d6d5d1;}.cls-10{opacity:0.18;}</style><clipPath id="clip-path"><path class="cls-1" d="M427.09,279.18c0,117.94-95.61,213.55-213.54,213.55S0,397.12,0,279.18A212.63,212.63,0,0,1,42,152c38.92-52.4,101.27-73.4,171.56-73.4s132.64,21,171.55,73.4A212.63,212.63,0,0,1,427.09,279.18Z"/></clipPath></defs><g id="Layer_2" data-name="Layer 2"><g id="Layer_1-2" data-name="Layer 1"><path class="cls-2" d="M427.09,279.18c0,117.94-95.61,213.55-213.54,213.55S0,397.12,0,279.18A212.63,212.63,0,0,1,42,152c38.92-52.4,101.27-73.4,171.56-73.4s132.64,21,171.55,73.4A212.63,212.63,0,0,1,427.09,279.18Z"/><polygon class="cls-3" points="246.28 17.39 322.23 17.39 301.84 42.83 322.23 69.06 246.28 69.06 246.28 17.39 246.28 17.39"/><polygon class="cls-4" points="208.44 0 216.71 0 216.71 132.86 208.44 132.86 208.44 0 208.44 0"/><polygon class="cls-5" points="208.44 0 293.37 0 293.37 59.04 208.44 59.04 208.44 0 208.44 0"/><polygon class="cls-6" points="246.28 69.06 293.37 59.04 246.28 59.04 246.28 69.06 246.28 69.06"/><g class="cls-7"><path class="cls-8" d="M51,531.64H374.09A118.66,118.66,0,0,1,255.39,413V242.28h53.13l-91.8-112h-8.35L116.58,242.28H169.7V413A118.66,118.66,0,0,1,51,531.64Z"/><path class="cls-9" d="M51,531.64H212.54V130.23h-4.17L116.58,242.28H169.7V413A118.66,118.66,0,0,1,51,531.64Z"/></g><path class="cls-10" d="M27.4,197.14a19.75,19.75,0,0,1-4.93-38.88,25.17,25.17,0,0,1,48.4-9.6,25.17,25.17,0,1,1,9.48,48.48Z"/><path class="cls-8" d="M27.4,194.19a19.75,19.75,0,0,1-4.93-38.88,25.17,25.17,0,0,1,48.4-9.6,25.17,25.17,0,1,1,9.48,48.48Z"/><path class="cls-10" d="M73.41,348.12a16.22,16.22,0,0,1-4-31.93,20.66,20.66,0,0,1,39.74-7.88,20.67,20.67,0,1,1,7.79,39.81Z"/><path class="cls-8" d="M73.41,345.7a16.22,16.22,0,0,1-4-31.93,20.67,20.67,0,0,1,39.74-7.88,20.67,20.67,0,1,1,7.79,39.81Z"/><path class="cls-10" d="M372.43,404a11.92,11.92,0,0,1-3-23.46,15.18,15.18,0,0,1,29.19-5.79A15.18,15.18,0,1,1,404.37,404Z"/><path class="cls-8" d="M372.43,402.25a11.92,11.92,0,0,1-3-23.46A15.18,15.18,0,0,1,398.65,373a15.18,15.18,0,1,1,5.72,29.25Z"/><path class="cls-10" d="M369.42,260.21a22.23,22.23,0,0,1-5.55-43.75,28.32,28.32,0,0,1,54.46-10.8A28.32,28.32,0,1,1,429,260.21Z"/><path class="cls-8" d="M369.42,256.89a22.23,22.23,0,0,1-5.55-43.75,28.32,28.32,0,0,1,54.46-10.8A28.32,28.32,0,1,1,429,256.89Z"/></g></g></svg>