<svg xmlns="http://www.w3.org/2000/svg" xmlns:xlink="http://www.w3.org/1999/xlink" viewBox="0 0 427.09 423.96"><defs><style>.cls-1{fill:none;}.cls-2{fill:#d50057;}.cls-3{opacity:0.15;}.cls-4{clip-path:url(#clip-path);}.cls-5{fill:#e5bc6d;}.cls-6{fill:#f0d28c;}.cls-7{fill:#e5c07a;}.cls-8{fill:#d6a75b;}.cls-9{fill:#fad68c;}.cls-10{fill:#e1c281;}.cls-11{fill:#eac57f;}</style><clipPath id="clip-path"><path class="cls-1" d="M427.09,210.41C427.09,328.35,331.48,424,213.55,424S0,328.35,0,210.41A212.63,212.63,0,0,1,42,83.22C80.91,30.82,143.26,9.83,213.55,9.83s132.64,21,171.55,73.39A212.63,212.63,0,0,1,427.09,210.41Z"/></clipPath></defs><g id="Layer_2" data-name="Layer 2"><g id="Layer_1-2" data-name="Layer 1"><path class="cls-2" d="M427.09,210.41C427.09,328.35,331.48,424,213.55,424S0,328.35,0,210.41A212.63,212.63,0,0,1,42,83.22C80.91,30.82,143.26,9.83,213.55,9.83s132.64,21,171.55,73.39A212.63,212.63,0,0,1,427.09,210.41Z"/><path class="cls-1" d="M81.23,96.05a26.3,26.3,0,0,0-22.49-.84l33.66,31Z"/><path class="cls-1" d="M94.77,126.84l11.52-31.1a26.34,26.34,0,0,0-23.05,0l11.52,31.1Z"/><path class="cls-1" d="M108.3,96.05,97.13,126.2l33.66-31A26.3,26.3,0,0,0,108.3,96.05Z"/><path class="cls-3" d="M133.25,96.42a38.49,38.49,0,0,0-77,0h0l.53-.28,33.35,30.7H59.79V141h1.83v37.47h66.29V141h1.83v-14.2H99.37l33.35-30.7Zm-27-.68-11.52,31.1h0L83.24,95.74A26.34,26.34,0,0,1,106.29,95.74Zm-47.55-.53a26.3,26.3,0,0,1,22.49.84L92.4,126.2Zm41.59,46.58a8.93,8.93,0,0,1,2.94,1.39,1.86,1.86,0,0,1,.85,1.27,1.89,1.89,0,0,1-.27,1.28,1.67,1.67,0,0,1-1,.73,1.92,1.92,0,0,1-1.48-.37,7,7,0,0,0-2.15-1,9.3,9.3,0,0,0-2.21-.28,4,4,0,0,0-3,1,3.86,3.86,0,0,0-1,2.83v3.6h4.4a1.67,1.67,0,0,1,1.16.42,1.4,1.4,0,0,1,.47,1.11,1.44,1.44,0,0,1-.47,1.09,1.63,1.63,0,0,1-1.16.43H93v7.11h9a1.77,1.77,0,0,1,1.31.5,1.71,1.71,0,0,1,.52,1.3,1.79,1.79,0,0,1-.52,1.3,1.72,1.72,0,0,1-1.31.53H87.23a1.83,1.83,0,0,1-1.84-1.83,1.69,1.69,0,0,1,.54-1.3,1.81,1.81,0,0,1,1.3-.5h1.35v-7.11H87a1.6,1.6,0,0,1-1.13-.43,1.44,1.44,0,0,1-.47-1.09,1.4,1.4,0,0,1,.47-1.11,1.63,1.63,0,0,1,1.13-.42h1.59v-3.43a7.44,7.44,0,0,1,2-5.49q2-2.07,6.15-2.07A13.07,13.07,0,0,1,100.33,141.79Zm-3.2-15.59L108.3,96.05a26.3,26.3,0,0,1,22.49-.84Z"/><path class="cls-1" d="M330.3,192.4a31.68,31.68,0,0,0-27.09-1l40.53,37.32Z"/><path class="cls-1" d="M362.89,192.4l-13.44,36.31L390,191.4A31.68,31.68,0,0,0,362.89,192.4Z"/><path class="cls-1" d="M346.61,229.49,360.47,192a31.69,31.69,0,0,0-27.75,0l13.86,37.45Z"/><path class="cls-3" d="M393,192.85a46.36,46.36,0,0,0-92.71,0h0l.64-.34,40.16,37H304.47v17.1h2.21v45.13h79.83V246.59h2.21v-17.1H352.15l40.16-37ZM360.47,192l-13.86,37.46h0L332.72,192A31.69,31.69,0,0,1,360.47,192Zm-57.26-.63a31.68,31.68,0,0,1,27.09,1l13.44,36.32ZM353.91,247a11.81,11.81,0,0,1,3.87,1.83,2.45,2.45,0,0,1,1.12,1.66,2.5,2.5,0,0,1-.37,1.68,2.1,2.1,0,0,1-1.36,1,2.47,2.47,0,0,1-1.94-.48,9.1,9.1,0,0,0-2.82-1.27,11.75,11.75,0,0,0-2.92-.37,5.31,5.31,0,0,0-3.92,1.3,5.1,5.1,0,0,0-1.28,3.71v4.74h5.79a2.24,2.24,0,0,1,1.53.55,2,2,0,0,1,0,2.89,2.16,2.16,0,0,1-1.53.57h-5.79v9.34h11.85a2.38,2.38,0,0,1,1.73.66,2.26,2.26,0,0,1,.69,1.71,2.35,2.35,0,0,1-.69,1.71,2.3,2.3,0,0,1-1.73.71H336.69a2.42,2.42,0,0,1-2.42-2.42,2.24,2.24,0,0,1,.71-1.71,2.41,2.41,0,0,1,1.71-.66h1.77v-9.34h-2.09a2.09,2.09,0,0,1-1.48-.57,2,2,0,0,1,0-2.89,2.17,2.17,0,0,1,1.48-.55h2.09v-4.51a9.86,9.86,0,0,1,2.67-7.22q2.65-2.72,8.09-2.71A17.11,17.11,0,0,1,353.91,247Zm-4.46-18.31,13.44-36.31a31.68,31.68,0,0,1,27.09-1Z"/><g class="cls-4"><rect class="cls-5" x="98.22" y="248.69" width="233.47" height="151"/><rect class="cls-6" x="285.93" y="248.69" width="45.76" height="151"/><rect class="cls-7" x="308.8" y="310.29" width="22.88" height="27.35"/><rect class="cls-8" x="182.76" y="248.69" width="33.95" height="28.3"/><rect class="cls-9" x="125.71" y="130.98" width="182" height="117.71"/><rect class="cls-6" x="240.94" y="130.98" width="66.76" height="117.71"/><rect class="cls-10" x="289.87" y="176.21" width="17.83" height="27.78"/><rect class="cls-11" x="165.15" y="130.98" width="26.46" height="22.06"/><rect class="cls-5" x="160.46" y="57.92" width="112.49" height="72.76"/><rect class="cls-6" x="250.9" y="57.92" width="22.05" height="72.76"/><rect class="cls-7" x="261.92" y="87.61" width="11.03" height="13.17"/><rect class="cls-8" x="201.19" y="57.92" width="16.35" height="13.64"/><rect x="84.35" y="389.01" width="250.13" height="34.95"/></g><rect class="cls-9" x="177.47" width="78.48" height="57.94"/><rect class="cls-6" x="240.56" width="15.38" height="57.94"/><rect class="cls-10" x="248.25" y="23.64" width="7.7" height="10.49"/><rect class="cls-11" x="205.88" width="11.41" height="10.86"/><path class="cls-1" d="M53.82,271.32a14.73,14.73,0,0,0-12.57-.47l18.81,17.32Z"/><path class="cls-1" d="M61.39,288.53l6.44-17.38a14.71,14.71,0,0,0-12.88,0l6.43,17.38Z"/><path class="cls-1" d="M69,271.32l-6.24,16.85,18.81-17.32A14.73,14.73,0,0,0,69,271.32Z"/><path class="cls-3" d="M82.9,271.53a21.51,21.51,0,0,0-43,0h0l.29-.16,18.64,17.16h-17v7.94h1v20.94H79.91V296.47h1v-7.94H64L82.6,271.37Zm-15.07-.38-6.44,17.38h0L55,271.15A14.71,14.71,0,0,1,67.83,271.15Zm-26.58-.3a14.73,14.73,0,0,1,12.57.47l6.24,16.85Zm23.44,25.27a5.37,5.37,0,0,1,1.75.83,1.09,1.09,0,0,1,.5.75,1.17,1.17,0,0,1-.16.76,1,1,0,0,1-.62.43,1.14,1.14,0,0,1-.88-.22A4.11,4.11,0,0,0,64,298.1a5.43,5.43,0,0,0-1.32-.17,2.41,2.41,0,0,0-1.77.59,2.31,2.31,0,0,0-.57,1.68v2.14H63a1,1,0,0,1,.69.24.91.91,0,0,1,0,1.31,1,1,0,0,1-.69.25H60.35v4.22H65.7a1.09,1.09,0,0,1,.78.3,1,1,0,0,1,.31.77,1.09,1.09,0,0,1-.31.77,1.06,1.06,0,0,1-.78.32H56.91a1.07,1.07,0,0,1-.77-.32,1.06,1.06,0,0,1-.32-.77,1,1,0,0,1,.32-.77,1.1,1.1,0,0,1,.77-.3h.81v-4.22h-.95a1,1,0,0,1-.67-.25.91.91,0,0,1,0-1.31,1,1,0,0,1,.67-.24h.95v-2a4.46,4.46,0,0,1,1.2-3.26,4.89,4.89,0,0,1,3.65-1.22A7.86,7.86,0,0,1,64.69,296.12Zm-2-7.95L69,271.32a14.73,14.73,0,0,1,12.57-.47Z"/></g></g></svg>