<svg xmlns="http://www.w3.org/2000/svg" viewBox="0 0 427.09 434.92"><defs><style>.cls-1{fill:#c2d500;}.cls-2{fill:#3d3d3d;}.cls-3{fill:#4c4c4c;}.cls-4{fill:#333;}.cls-5{fill:#fbecdb;}.cls-6{fill:#fce6d2;}.cls-7{fill:#0293d2;}.cls-8{fill:#e5bc6d;}.cls-9{fill:#fad68c;}.cls-10{fill:#d6a75b;}.cls-11{opacity:0.5;}.cls-12{fill:#d50057;}</style></defs><g id="Layer_2" data-name="Layer 2"><g id="Layer_1-2" data-name="Layer 1"><path class="cls-1" d="M427.09,221.38c0,117.93-95.61,213.54-213.54,213.54S0,339.31,0,221.38A212.59,212.59,0,0,1,42,94.19c38.92-52.41,101.27-73.4,171.56-73.4s132.64,21,171.55,73.4A212.59,212.59,0,0,1,427.09,221.38Z"/><path class="cls-2" d="M311.6,384.59l-181,18.7A10.4,10.4,0,0,1,119.26,394L81.86,32.16a10.4,10.4,0,0,1,9.25-11.38l181-18.71a10.4,10.4,0,0,1,11.38,9.25l37.4,361.89A10.4,10.4,0,0,1,311.6,384.59Z"/><path class="cls-3" d="M331.15,382.57l-181,18.7A10.4,10.4,0,0,1,138.8,392L101.4,30.14a10.4,10.4,0,0,1,9.25-11.38l181-18.7A10.39,10.39,0,0,1,303,9.31L340.4,371.19A10.41,10.41,0,0,1,331.15,382.57Z"/><path class="cls-4" d="M234.42,22.66a2.06,2.06,0,0,0-2.25-1.83l-52.4,5.42a2.05,2.05,0,1,0,.42,4.08l52.4-5.42A2.06,2.06,0,0,0,234.42,22.66Z"/><path class="cls-4" d="M170.46,27.21A2.05,2.05,0,1,0,172.71,29,2.07,2.07,0,0,0,170.46,27.21Z"/><path class="cls-4" d="M254.13,369.17a13.22,13.22,0,1,0-11.8,14.51A13.22,13.22,0,0,0,254.13,369.17Z"/><rect class="cls-5" x="135.79" y="38.94" width="168.5" height="311.04" transform="translate(-18.82 23.65) rotate(-5.9)"/><rect class="cls-6" x="149.93" y="313.17" width="168.5" height="36.11" transform="translate(-32.81 25.83) rotate(-5.9)"/><path class="cls-3" d="M202.49,329.15l86.5-8.94a1.83,1.83,0,0,0-.38-3.64l-86.5,8.94a1.84,1.84,0,0,0-1.63,2h0A1.84,1.84,0,0,0,202.49,329.15Z"/><path class="cls-3" d="M291.44,326.17a1.82,1.82,0,0,0-2-1.63l-86.51,8.94a1.82,1.82,0,1,0,.38,3.63l86.5-8.94A1.83,1.83,0,0,0,291.44,326.17Z"/><path class="cls-7" d="M188.89,321.29a10.6,10.6,0,0,0-.91-3.43,12.18,12.18,0,0,0-12.63-7.59,12.33,12.33,0,0,0-10.86,10,13.43,13.43,0,0,0-.16,3.59c.69,6.74,14.55,20.54,14.55,20.54S189.59,328.08,188.89,321.29Zm-11.72,6.9a5.76,5.76,0,0,1-6.31-5.14,6,6,0,0,1,.75-3.53,5.81,5.81,0,0,1,4.38-2.83,5.57,5.57,0,0,1,4.87,1.87,5.74,5.74,0,0,1-3.69,9.63Z"/><rect class="cls-8" x="147.81" y="87" width="97.16" height="80.11" transform="translate(404.79 233.24) rotate(174.1)"/><rect class="cls-9" x="196.17" y="82.79" width="81.78" height="80.11" transform="translate(-11.37 25.02) rotate(-5.9)"/><polygon class="cls-10" points="279.76 138.28 281.85 158.49 200.5 166.9 192.27 87.21 279.76 138.28"/><polygon class="cls-10" points="150.15 151.67 165.46 150.09 163.67 145.92 164.7 142.7 149.39 144.28 150.15 151.67"/><polygon class="cls-10" points="146.83 119.58 162.15 118 160.35 113.83 161.38 110.61 146.07 112.19 146.83 119.58"/><polygon class="cls-10" points="276.44 106.18 261.13 107.77 262.04 103.32 260.37 100.38 275.68 98.8 276.44 106.18"/><g class="cls-11"><path class="cls-12" d="M166.74,194.58a11.58,11.58,0,0,0-1.61-.86,10.92,10.92,0,0,0-5-.69,10.28,10.28,0,0,0-8.73,7.17,9.73,9.73,0,0,0-.42,4.12,10.3,10.3,0,0,0,11.29,9.15,9.49,9.49,0,0,0,5.88-2.73,10,10,0,0,0,3.27-8.56A10.19,10.19,0,0,0,166.74,194.58Zm.42,15.57a8.86,8.86,0,0,1-5,2.14,9.07,9.07,0,0,1-9.95-8.08,8.65,8.65,0,0,1,.32-3.32,8.9,8.9,0,0,1,7.76-6.68,7.9,7.9,0,0,1,4.22.64,6.59,6.59,0,0,1,1.77.91,9.05,9.05,0,0,1,.85,14.39Z"/></g><polygon class="cls-12" points="155.29 198.59 161.8 208.71 170.52 183.65 161.04 201.34 155.29 198.59"/><g class="cls-11"><path class="cls-12" d="M175.35,239.9a10.28,10.28,0,0,0-4.71-7.65,16.25,16.25,0,0,0-1.6-.86,11.18,11.18,0,0,0-5-.69,10.28,10.28,0,1,0,11.29,9.2ZM166,250a9.06,9.06,0,1,1-1.82-18,8.55,8.55,0,0,1,4.23.59,6.53,6.53,0,0,1,1.76.91,8.94,8.94,0,0,1,4,6.58A9.13,9.13,0,0,1,166,250Z"/></g><polygon class="cls-12" points="159.19 236.27 165.7 246.39 174.42 221.33 164.94 239.02 159.19 236.27"/><g class="cls-11"><path class="cls-12" d="M179.26,277.57a10.27,10.27,0,1,0-9.15,11.29A10.31,10.31,0,0,0,179.26,277.57ZM170,287.63a9.06,9.06,0,1,1,8.08-9.95A9.05,9.05,0,0,1,170,287.63Z"/></g><path class="cls-12" d="M283.21,189l-96.77,10a1.79,1.79,0,0,1-2-1.6l0-.39a1.8,1.8,0,0,1,1.6-2l96.77-10a1.79,1.79,0,0,1,2,1.6l0,.39A1.79,1.79,0,0,1,283.21,189Z"/><path class="cls-12" d="M283.93,196.07l-96.76,10a1.79,1.79,0,0,1-2-1.59l0-.4a1.79,1.79,0,0,1,1.6-2l96.76-10a1.8,1.8,0,0,1,2,1.6l0,.4A1.79,1.79,0,0,1,283.93,196.07Z"/><path class="cls-12" d="M287.11,226.77l-96.77,10a1.79,1.79,0,0,1-2-1.6l0-.39a1.8,1.8,0,0,1,1.6-2l96.77-10a1.79,1.79,0,0,1,2,1.6l0,.39A1.79,1.79,0,0,1,287.11,226.77Z"/><path class="cls-12" d="M287.83,233.81l-96.76,10a1.79,1.79,0,0,1-2-1.59l0-.4a1.79,1.79,0,0,1,1.6-2l96.77-10a1.79,1.79,0,0,1,2,1.59l0,.4A1.79,1.79,0,0,1,287.83,233.81Z"/><path class="cls-12" d="M291,264.51l-96.77,10a1.79,1.79,0,0,1-2-1.6l0-.39a1.79,1.79,0,0,1,1.59-2l96.77-10a1.79,1.79,0,0,1,2,1.6l0,.39A1.79,1.79,0,0,1,291,264.51Z"/><path class="cls-12" d="M291.74,271.56l-96.77,10a1.81,1.81,0,0,1-2-1.6l0-.4a1.79,1.79,0,0,1,1.6-2l96.77-10a1.79,1.79,0,0,1,2,1.59l0,.4A1.8,1.8,0,0,1,291.74,271.56Z"/></g></g></svg>