<svg xmlns="http://www.w3.org/2000/svg" viewBox="0 0 89.54 85.19"><g id="Layer_2" data-name="Layer 2"><g id="Layer_1-2" data-name="Layer 1"><g id="_04_E.Commerce" data-name="04 E.Commerce"><path d="M86.68,73.89H85.15V29.43a4.68,4.68,0,0,0-4.66-4.68H70.77V19a6.7,6.7,0,0,0,3.58-5.91V11a1.65,1.65,0,0,0-.23-.64L67.51,2.16A5.78,5.78,0,0,0,63,0H26.54A5.77,5.77,0,0,0,22,2.16l-6.61,8.18a1.6,1.6,0,0,0-.23.64v2.14A6.72,6.72,0,0,0,18.76,19v5.72H9.07a4.69,4.69,0,0,0-4.69,4.68V73.89H2.86A2.85,2.85,0,0,0,.09,77.44a10.26,10.26,0,0,0,10,7.75H79.48a10.28,10.28,0,0,0,10-7.75,2.85,2.85,0,0,0-2.77-3.55ZM80.49,26.77a2.66,2.66,0,0,1,2.64,2.66V73.89H79.65V33.28a3,3,0,0,0-3-3H70.77V26.77Zm-57,38.12H66.11a4.67,4.67,0,0,0,4.66-4.67V32.27h5.84a1,1,0,0,1,1,1V73.89H11.91V33.28a1,1,0,0,1,1-1h5.84V60.22a4.69,4.69,0,0,0,4.69,4.67ZM72.32,13.12a4.7,4.7,0,1,1-9.4,0V12h9.4Zm-11.43,0a4.7,4.7,0,0,1-9.4,0V12h9.4Zm-11.42,0a4.7,4.7,0,1,1-9.4,0V12h9.4v1.13ZM38,13.12a4.7,4.7,0,1,1-9.4,0V12H38ZM49.29,10h-9L41.53,2H48ZM65.93,3.43,71.21,10H62.54L58.7,2H63a3.76,3.76,0,0,1,2.93,1.4ZM56.44,2,60.29,10H51.34L50.06,2ZM38.19,10H29.25L33.09,2h6.39ZM23.6,3.43A3.79,3.79,0,0,1,26.54,2h4.3L27,10H18.33Zm-6.38,9.69V12h9.39v1.13a4.7,4.7,0,1,1-9.39,0Zm4.7,6.73a6.7,6.7,0,0,0,5.71-3.22,6.67,6.67,0,0,0,11.42,0,6.68,6.68,0,0,0,11.43,0,6.68,6.68,0,0,0,11.43,0,6.68,6.68,0,0,0,5.71,3.22,6.86,6.86,0,0,0,1.12-.11V60.22a2.64,2.64,0,0,1-2.63,2.64H23.45a2.65,2.65,0,0,1-2.66-2.64V19.74a7,7,0,0,0,1.13.11ZM6.41,29.43a2.67,2.67,0,0,1,2.66-2.66h9.69v3.47H12.92a3,3,0,0,0-3,3V73.89H6.41ZM87.48,76.94a8.24,8.24,0,0,1-8,6.22H10.06a8.25,8.25,0,0,1-8-6.22.83.83,0,0,1,.81-1c14,0,86.69,0,83.82,0A.82.82,0,0,1,87.48,76.94Z"/><path d="M81.17,78.52H80.08a1,1,0,0,0,0,2h1.09a1,1,0,0,0,0-2Z"/><path d="M76.68,78.52H75.6a1,1,0,1,0,0,2h1.08a1,1,0,0,0,0-2Z"/><path d="M72.19,78.52H71.11a1,1,0,1,0,0,2h1.08a1,1,0,1,0,0-2Z"/><path d="M29.24,37.45h3.54v15a3,3,0,0,0,3,3h17.9a3,3,0,0,0,3-3v-15H60.3a3,3,0,0,0,3-3V29.63a3,3,0,0,0-3-3H50.75a1,1,0,0,0-1,1,5,5,0,1,1-9.93,0,1,1,0,0,0-1-1H29.24a3,3,0,0,0-3,3v4.78a3,3,0,0,0,3,3Zm-1-7.82a1,1,0,0,1,1-1h8.61a7,7,0,0,0,13.84,0H60.3a1,1,0,0,1,1,1v4.78a1,1,0,0,1-1,1H55.75a1,1,0,0,0-1,1v16a1,1,0,0,1-1,1H35.82a1,1,0,0,1-1-1v-16a1,1,0,0,0-1-1H29.24a1,1,0,0,1-1-1V29.63Z"/></g></g></g></svg>