<svg id="Layer_1" data-name="Layer 1" xmlns="http://www.w3.org/2000/svg" viewBox="0 0 100 100"><defs><style>.cls-1{fill:#fff;}</style></defs><path class="cls-1" d="M86.67,3.33H80V1.67A1.67,1.67,0,0,0,78.33,0h-40a1.66,1.66,0,0,0-1.66,1.67V3.33H30a8.35,8.35,0,0,0-8.33,8.34V36.75a8.32,8.32,0,0,0-5.87,3.57L8.19,51.49A18.28,18.28,0,0,0,5,61.81V98.33A1.67,1.67,0,0,0,6.67,100h20a1.66,1.66,0,0,0,1.66-1.67V93.14a7.85,7.85,0,0,0,1.67.19H86.67A8.34,8.34,0,0,0,95,85V11.67A8.35,8.35,0,0,0,86.67,3.33ZM40,3.33H76.67v8.34A1.66,1.66,0,0,1,75,13.33H41.67A1.66,1.66,0,0,1,40,11.67Zm1.67,13.34H75a5,5,0,0,0,4.69-3.34h3.64A1.67,1.67,0,0,1,85,15V81.67a1.66,1.66,0,0,1-1.67,1.66h-50a1.43,1.43,0,0,1-.64-.15,14.88,14.88,0,0,0,.64-4.3V77.81a14.86,14.86,0,0,0-1.28-6.09l-.84-1.85,7.73-15.69a6.76,6.76,0,0,0,.89-3.34,6.66,6.66,0,0,0-6.64-6.65,6.51,6.51,0,0,0-1.52.18V15a1.66,1.66,0,0,1,1.66-1.67H37a5,5,0,0,0,4.7,3.34ZM30,6.67h6.67V10H33.33a5,5,0,0,0-5,5V46.29a7.39,7.39,0,0,0-1,1.31L25,52.28V11.67a5,5,0,0,1,5-5ZM25,90v6.67H8.33V61.81a15,15,0,0,1,2.61-8.45l7.62-11.17a5,5,0,0,1,3.11-2v18.8l-2.76,5.49a1.67,1.67,0,0,0,.75,2.24h0a1.68,1.68,0,0,0,2.24-.74l8.37-16.74a3.33,3.33,0,0,1,6.22,1.67,3.52,3.52,0,0,1-.5,1.76L27.87,69.1a1.66,1.66,0,0,0-.16.69v.06a1.69,1.69,0,0,0,.2.8L29,73.07a11.66,11.66,0,0,1,1,4.72v1.09a11.75,11.75,0,0,1-2.34,7L25.33,89A1.71,1.71,0,0,0,25,90Zm66.67-5a5,5,0,0,1-5,5H30a5.48,5.48,0,0,1-1.14-.15l1.48-2a15.36,15.36,0,0,0,1-1.62,5.06,5.06,0,0,0,1.95.42h50a5,5,0,0,0,5-5V15a5,5,0,0,0-5-5H80V6.67h6.67a5,5,0,0,1,5,5Z"/><path class="cls-1" d="M58.33,21.67h0A1.66,1.66,0,0,1,60,23.33h0A1.67,1.67,0,0,1,58.33,25h0a1.66,1.66,0,0,1-1.66-1.67h0A1.66,1.66,0,0,1,58.33,21.67Z"/><path class="cls-1" d="M65,21.67h0a1.66,1.66,0,0,1,1.67,1.66h0A1.67,1.67,0,0,1,65,25h0a1.67,1.67,0,0,1-1.67-1.67h0A1.66,1.66,0,0,1,65,21.67Z"/><path class="cls-1" d="M51.67,21.67h0a1.66,1.66,0,0,1,1.66,1.66h0A1.66,1.66,0,0,1,51.67,25h0A1.67,1.67,0,0,1,50,23.33h0A1.66,1.66,0,0,1,51.67,21.67Z"/><path class="cls-1" d="M55,45.69l3.82,3.82a1.67,1.67,0,0,0,2.36,0l7.15-7.15v1A1.67,1.67,0,0,0,70,45h0a1.67,1.67,0,0,0,1.67-1.67v-5A1.66,1.66,0,0,0,70,36.67H65a1.66,1.66,0,0,0-1.67,1.66h0A1.67,1.67,0,0,0,65,40h1l-6,6-3.82-3.83a1.67,1.67,0,0,0-2.36,0l-5.49,5.49a1.67,1.67,0,0,0,0,2.36h0a1.67,1.67,0,0,0,2.36,0Z"/><path class="cls-1" d="M43.33,60H71.67a1.66,1.66,0,0,0,1.66-1.67h0a1.66,1.66,0,0,0-1.66-1.66H45V33.33a1.66,1.66,0,0,0-1.67-1.66h0a1.66,1.66,0,0,0-1.66,1.66v25A1.66,1.66,0,0,0,43.33,60Z"/><path class="cls-1" d="M45,66.67h6.67a1.66,1.66,0,0,1,1.66,1.66h0A1.66,1.66,0,0,1,51.67,70H45a1.67,1.67,0,0,1-1.67-1.67h0A1.66,1.66,0,0,1,45,66.67Z"/><path class="cls-1" d="M58.33,66.67H71.67a1.66,1.66,0,0,1,1.66,1.66h0A1.66,1.66,0,0,1,71.67,70H58.33a1.66,1.66,0,0,1-1.66-1.67h0A1.66,1.66,0,0,1,58.33,66.67Z"/><path class="cls-1" d="M45,73.33H71.67A1.66,1.66,0,0,1,73.33,75h0a1.66,1.66,0,0,1-1.66,1.67H45A1.67,1.67,0,0,1,43.33,75h0A1.67,1.67,0,0,1,45,73.33Z"/></svg>