<svg id="Layer_1" data-name="Layer 1" xmlns="http://www.w3.org/2000/svg" viewBox="0 0 142.73 40.73"><defs><style>.cls-1{fill:#4e9ef8;}</style></defs><path d="M2.55,31.22A1.89,1.89,0,0,1,2,29.79V11.2a1.92,1.92,0,0,1,.53-1.44A2,2,0,0,1,4,9.25h6.32c3.67,0,6.53,1,8.56,2.95s3,4.73,3,8.28-1,6.34-3,8.3S14,31.73,10.32,31.73H4A2,2,0,0,1,2.55,31.22Zm7.51-2.84q7.76,0,7.75-7.9T10.06,12.6H6.14V28.38Z"/><path d="M25.18,12.39a2,2,0,0,1-.64-1.54,1.94,1.94,0,0,1,.64-1.53,2.81,2.81,0,0,1,3.42,0,1.92,1.92,0,0,1,.66,1.53,2,2,0,0,1-.64,1.54A2.41,2.41,0,0,1,26.9,13,2.38,2.38,0,0,1,25.18,12.39Zm.3,19A1.8,1.8,0,0,1,24.92,30V17.7a1.76,1.76,0,0,1,.56-1.4,2.09,2.09,0,0,1,1.42-.48,2.15,2.15,0,0,1,1.43.48,1.71,1.71,0,0,1,.58,1.4V30a1.75,1.75,0,0,1-.58,1.42,2.11,2.11,0,0,1-1.43.49A2,2,0,0,1,25.48,31.43Z"/><path d="M42.24,16.17a1.59,1.59,0,0,1,.47,1.25,1.7,1.7,0,0,1-.41,1.27,2.51,2.51,0,0,1-1.5.54l-1,.1a3.87,3.87,0,0,0-2.75,1.27,4.16,4.16,0,0,0-.88,2.71V30a1.77,1.77,0,0,1-.57,1.42,2.15,2.15,0,0,1-1.44.49,2.06,2.06,0,0,1-1.42-.49A1.8,1.8,0,0,1,32.22,30V17.67a1.72,1.72,0,0,1,.56-1.37,2,2,0,0,1,1.39-.48,2,2,0,0,1,1.34.46A1.7,1.7,0,0,1,36,17.61v1.27a4.71,4.71,0,0,1,1.8-2.17,5.58,5.58,0,0,1,2.66-.86l.45,0A1.77,1.77,0,0,1,42.24,16.17Z"/><path d="M56.54,27.88A1.71,1.71,0,0,1,56.87,29a1.93,1.93,0,0,1-1.18,1.66,10.61,10.61,0,0,1-2.45,1,10,10,0,0,1-2.62.37,8.1,8.1,0,0,1-6-2.17,7.92,7.92,0,0,1-2.2-5.93,9,9,0,0,1,1-4.24,6.9,6.9,0,0,1,2.69-2.87,7.64,7.64,0,0,1,3.94-1,7.17,7.17,0,0,1,3.67.92,6.26,6.26,0,0,1,2.42,2.62,8.68,8.68,0,0,1,.86,4c0,.92-.4,1.37-1.21,1.37H46.38a5,5,0,0,0,1.24,3.24,4.22,4.22,0,0,0,3.07,1,5.79,5.79,0,0,0,1.8-.26,17.33,17.33,0,0,0,1.77-.7,3.51,3.51,0,0,1,1.4-.51A1.08,1.08,0,0,1,56.54,27.88Zm-9-8.3a4.83,4.83,0,0,0-1.17,2.94h7.21a4.5,4.5,0,0,0-1-2.95,3.15,3.15,0,0,0-2.49-1A3.4,3.4,0,0,0,47.55,19.58Z"/><path d="M62.28,31a6.73,6.73,0,0,1-2.73-2.81,8.93,8.93,0,0,1-1-4.24,8.94,8.94,0,0,1,1-4.29,7.11,7.11,0,0,1,2.82-2.88,8.38,8.38,0,0,1,4.18-1,9,9,0,0,1,2.5.35,8.3,8.3,0,0,1,2.22.95,2,2,0,0,1,1,1.69A1.78,1.78,0,0,1,72,19.89a1.06,1.06,0,0,1-.87.43,2.06,2.06,0,0,1-.74-.16c-.25-.11-.51-.24-.76-.38a8.69,8.69,0,0,0-1.34-.66,4.2,4.2,0,0,0-1.47-.24,3.71,3.71,0,0,0-3,1.29,5.67,5.67,0,0,0-1.07,3.72,5.59,5.59,0,0,0,1.07,3.68,3.71,3.71,0,0,0,3,1.29,3.91,3.91,0,0,0,1.42-.24A11.09,11.09,0,0,0,69.63,28a6.71,6.71,0,0,1,.83-.43,1.72,1.72,0,0,1,.7-.14,1.08,1.08,0,0,1,.86.44A1.78,1.78,0,0,1,72.37,29a1.8,1.8,0,0,1-.24.94,2.11,2.11,0,0,1-.78.72,8.33,8.33,0,0,1-2.3,1,9.62,9.62,0,0,1-2.67.37A8.24,8.24,0,0,1,62.28,31Z"/><path d="M84,30.39a1.32,1.32,0,0,1-.62,1.17,3,3,0,0,1-1.77.33l-.86-.06c-3.58-.26-5.36-2.17-5.36-5.74V19.14H73.8a2,2,0,0,1-1.32-.39A1.34,1.34,0,0,1,72,17.64a1.37,1.37,0,0,1,.46-1.12,2.05,2.05,0,0,1,1.32-.38h1.6V13.21a1.82,1.82,0,0,1,.54-1.38,2.1,2.1,0,0,1,1.47-.51,2,2,0,0,1,1.43.51,1.83,1.83,0,0,1,.55,1.38v2.93H82.1a2.05,2.05,0,0,1,1.32.38,1.37,1.37,0,0,1,.46,1.12,1.34,1.34,0,0,1-.46,1.11,2,2,0,0,1-1.32.39H79.39v7.24q0,2.36,2.16,2.52l.87.06C83.48,29,84,29.5,84,30.39Z"/><path class="cls-1" d="M114.05,30.11a1.59,1.59,0,0,1-.59,1.24,2,2,0,0,1-1.36.51,1.78,1.78,0,0,1-.95-.27,1.8,1.8,0,0,1-.71-.84l-1.91-4.28H97.31l-1.92,4.28a1.79,1.79,0,0,1-.7.84,1.89,1.89,0,0,1-1,.27,2,2,0,0,1-1.34-.51,1.57,1.57,0,0,1-.6-1.24,1.9,1.9,0,0,1,.19-.83l8.8-18.91a2,2,0,0,1,.88-1,2.43,2.43,0,0,1,1.26-.34,2.49,2.49,0,0,1,1.26.34,2,2,0,0,1,.87,1l8.84,18.91A2,2,0,0,1,114.05,30.11ZM98.71,23.28h8.42l-4.21-9.47Z"/><path class="cls-1" d="M116.9,31.37a2.06,2.06,0,0,1-.56-1.52V11.2a1.92,1.92,0,0,1,.53-1.44,2,2,0,0,1,1.45-.51h7.84a8.13,8.13,0,0,1,5.62,1.8,6.45,6.45,0,0,1,2,5.06,6.48,6.48,0,0,1-2,5.07A8.08,8.08,0,0,1,126.16,23h-5.7v6.85a1.92,1.92,0,0,1-2.08,2.07A2,2,0,0,1,116.9,31.37Zm8.75-11.53q4.24,0,4.24-3.7t-4.24-3.7h-5.19v7.4Z"/><path class="cls-1" d="M137.15,31.35a2.06,2.06,0,0,1-.56-1.5V11.13a1.92,1.92,0,0,1,2-2,2.08,2.08,0,0,1,1.52.56,2,2,0,0,1,.56,1.48V29.85a1.94,1.94,0,0,1-2.08,2.07A2,2,0,0,1,137.15,31.35Z"/></svg>