<svg id="Layer_1" data-name="Layer 1" xmlns="http://www.w3.org/2000/svg" viewBox="0 0 100 100"><defs><style>.cls-1{fill:#fff;}</style></defs><path class="cls-1" d="M58.26,59.93H41.54a1.86,1.86,0,0,0,0,3.71H58.26a1.86,1.86,0,0,0,0-3.71Z"/><path class="cls-1" d="M52.65,66.34H41.54a1.85,1.85,0,1,0,0,3.7H52.65a1.85,1.85,0,1,0,0-3.7Z"/><path class="cls-1" d="M58.26,66.34h0a1.85,1.85,0,1,0,0,3.7h0a1.85,1.85,0,1,0,0-3.7Z"/><path class="cls-1" d="M72.24,0H27.76a5.55,5.55,0,0,0-5.54,5.54V94.46A5.55,5.55,0,0,0,27.76,100H72.24a5.55,5.55,0,0,0,5.54-5.54V5.54A5.55,5.55,0,0,0,72.24,0Zm1.83,94.46a1.84,1.84,0,0,1-1.83,1.84H27.76a1.85,1.85,0,0,1-1.84-1.84V5.54A1.85,1.85,0,0,1,27.76,3.7H72.24a1.84,1.84,0,0,1,1.83,1.84Z"/><path class="cls-1" d="M70.37,5.55H29.63a1.85,1.85,0,0,0-1.85,1.86V79.63a1.85,1.85,0,0,0,1.85,1.85H70.37a1.85,1.85,0,0,0,1.85-1.85V7.41A1.85,1.85,0,0,0,70.37,5.55ZM68.52,77.78h-37V9.26h37Z"/><path class="cls-1" d="M50,83.33a5.56,5.56,0,1,0,5.56,5.56A5.57,5.57,0,0,0,50,83.33Zm0,7.41a1.85,1.85,0,1,1,1.85-1.85A1.85,1.85,0,0,1,50,90.74Z"/><path class="cls-1" d="M50,17A12.9,12.9,0,0,0,37.11,29.88c0,8.67,11.21,21.25,11.69,21.78a1.61,1.61,0,0,0,1.2.54h0a1.61,1.61,0,0,0,1.2-.54c.48-.53,11.69-13.11,11.69-21.78A12.9,12.9,0,0,0,50,17Zm0,3.23a9.68,9.68,0,0,1,9.66,9.66c0,5.95-6.95,14.94-9.66,18.21-2.71-3.27-9.66-12.26-9.66-18.21A9.68,9.68,0,0,1,50,20.22Z"/><path class="cls-1" d="M50,36.61a6.73,6.73,0,1,0-6.73-6.73A6.74,6.74,0,0,0,50,36.61Zm0-10.23a3.5,3.5,0,1,1-3.5,3.5A3.5,3.5,0,0,1,50,26.38Z"/></svg>