<svg id="Layer_1" data-name="Layer 1" xmlns="http://www.w3.org/2000/svg" viewBox="0 0 100 100"><defs><style>.cls-1{fill:#fff;}</style></defs><path class="cls-1" d="M4.8,64.79H26.14L16,74.61a3.29,3.29,0,0,0,2.53,5.65l13.42-1v14.3A4.11,4.11,0,0,0,36,97.67H95.2a4.11,4.11,0,0,0,4.11-4.11V34.38a4.11,4.11,0,0,0-4.11-4.1H66.44V6.44a4.11,4.11,0,0,0-4.11-4.11H4.8A4.11,4.11,0,0,0,.69,6.44V60.68A4.11,4.11,0,0,0,4.8,64.79ZM18.25,77,31.34,64.34l.05-.06,17-16.38V89.45L37.63,76.86a3.38,3.38,0,0,0-2.52-1.14H34.9ZM49.64,44.89a3.26,3.26,0,0,0-3.56.66L35.21,56V34.38a.82.82,0,0,1,.82-.82h26.3a.82.82,0,0,1,.82.82v26.3a.83.83,0,0,1-.82.83H51.64V47.91A3.28,3.28,0,0,0,49.64,44.89ZM96,34.38V93.56a.83.83,0,0,1-.82.82H36a.83.83,0,0,1-.82-.82V79.09l10.65,12.5a3.29,3.29,0,0,0,5.78-2.14V64.79H62.33a4.11,4.11,0,0,0,4.11-4.11V34.38a3.81,3.81,0,0,0-.09-.82H95.2A.83.83,0,0,1,96,34.38ZM4,6.44a.83.83,0,0,1,.82-.82H62.33a.84.84,0,0,1,.82.82V30.36a3.8,3.8,0,0,0-.82-.08H36a4.11,4.11,0,0,0-4.11,4.1V58.22a7,7,0,0,0,.07.92l-2.45,2.37H4.8A.83.83,0,0,1,4,60.68Z"/><path class="cls-1" d="M10.55,28.59A1.64,1.64,0,0,0,12.19,27V17.08a1.64,1.64,0,0,0-3.28,0V27A1.64,1.64,0,0,0,10.55,28.59Z"/><path class="cls-1" d="M10.55,12.15a1.63,1.63,0,0,0,1.64-1.64v0a1.64,1.64,0,1,0-3.28,0v0A1.63,1.63,0,0,0,10.55,12.15Z"/></svg>