<?xml version="1.0" encoding="utf-8"?>
<!-- Generator: Adobe Illustrator 26.5.0, SVG Export Plug-In . SVG Version: 6.00 Build 0)  -->
<svg version="1.1" id="Layer_1" xmlns="http://www.w3.org/2000/svg" xmlns:xlink="http://www.w3.org/1999/xlink" x="0px" y="0px"
	 viewBox="0 0 83.2 37.5" style="enable-background:new 0 0 83.2 37.5;" xml:space="preserve">
<style type="text/css">
	.st0{fill:#FFFFFF;}
</style>
<path class="st0" d="M9.1,24.5v0.6c0,3.1,1.5,4.8,4.4,4.8s4.7-1.6,4.7-4.5c0-3.4-1.7-4.9-5.4-4.9c-0.4,0-0.7,0-1.1,0v-5.8h0.5
	c3.3,0,5.2-1.5,5.2-4.2c0-2.1-1.7-3.7-3.7-3.7c-0.1,0-0.2,0-0.3,0c-2.5,0-4,1.4-4,3.9H0.7C0.9,4,5.6,0,13.9,0
	c7.6,0,11.9,3.7,11.9,9.3c0,3.6-2,6.3-5.7,7.4c4.6,0.8,7.1,4.1,7.1,8.9c0,7-5.5,11.8-13.5,11.8C5.3,37.5,0,32.6,0,25v-0.5L9.1,24.5z
	"/>
<path class="st0" d="M30.6,36.5V0.3h11c4.5,0,8.1,0.1,11,1.9c3.2,2,5,5.8,5,10.4c0,4.8-1.8,8.4-5,10.3c-2.5,1.5-5.3,1.6-8.6,1.6
	h-4.2v11.9H30.6z M41.8,16.6c4.2,0,6.4-0.8,6.4-4.3s-2.3-4.2-6.3-4.2h-2v8.5H41.8z"/>
<path class="st0" d="M61.1,0.3H71v27.7h12.2v8.4H61.1V0.3z"/>
</svg>
