<svg xmlns="http://www.w3.org/2000/svg" xmlns:xlink="http://www.w3.org/1999/xlink" viewBox="0 0 400 400"><defs><style>.cls-1,.cls-20{fill:none;}.cls-2{isolation:isolate;}.cls-3{clip-path:url(#clip-path);}.cls-14,.cls-4{fill:#0093d2;}.cls-5{fill:#f14ba7;mix-blend-mode:darken;}.cls-6{clip-path:url(#clip-path-2);}.cls-7{fill:#f2f2f2;}.cls-8{fill:#b7b7b7;}.cls-9{fill:#939393;}.cls-10{fill:#fff;}.cls-11,.cls-21{fill:#ffc629;}.cls-12{fill:#d50057;}.cls-13{fill:#af003a;}.cls-14{opacity:0.25;}.cls-14,.cls-15,.cls-16,.cls-21{mix-blend-mode:multiply;}.cls-15,.cls-16,.cls-17{fill:#c2d500;}.cls-16{opacity:0.65;}.cls-18{fill:#f6ccaf;}.cls-19{fill:#ffdec7;}.cls-20{stroke:#fff;stroke-miterlimit:10;}.cls-21{opacity:0.33;}</style><clipPath id="clip-path"><circle class="cls-1" cx="200" cy="200" r="200"/></clipPath><clipPath id="clip-path-2"><path class="cls-1" d="M0,200C0,310.46,89.54,400,200,400s200-89.54,200-200S310.46,0,200,0A199.2,199.2,0,0,0,72.78,45.67c-15.08,12.45-49.15-4.6-60,11.71C3.09,71.82,16.11,119.25,10.46,136A199.77,199.77,0,0,0,0,200Z"/></clipPath></defs><title>Product2</title><g class="cls-2"><g id="Layer_1" data-name="Layer 1"><g class="cls-3"><circle class="cls-4" cx="234.97" cy="188.23" r="276.69"/></g><path class="cls-5" d="M187.82,255.21h35.7v4.3h-35.7Z"/><g class="cls-6"><path class="cls-7" d="M40.27,117.76v186H399.5v-186a12.83,12.83,0,1,1-25.66,0,12.83,12.83,0,1,1-25.66,0,12.83,12.83,0,1,1-25.66,0,12.83,12.83,0,0,1-25.66,0,12.83,12.83,0,0,1-25.66,0,12.83,12.83,0,1,1-25.66,0,12.83,12.83,0,1,1-25.66,0,12.83,12.83,0,1,1-25.66,0,12.83,12.83,0,0,1-25.66,0,12.83,12.83,0,0,1-25.66,0,12.83,12.83,0,1,1-25.65,0,12.83,12.83,0,0,1-25.66,0,12.83,12.83,0,0,1-25.66,0,12.83,12.83,0,0,1-25.66,0Z"/><path class="cls-8" d="M290.45,393.59a12.79,12.79,0,0,0-12.83-12.83H162.15a12.82,12.82,0,0,0-12.83,12.83V400H290.45Z"/><path class="cls-9" d="M181.39,329.44l-12.83,51.32H271.2l-12.83-51.32Z"/><path class="cls-8" d="M399.24,303.78h-359v12.83A12.86,12.86,0,0,0,53.1,329.44H386.67a12.88,12.88,0,0,0,12.83-12.83V303.78Z"/><path class="cls-8" d="M40.27,85.69H399.5V72.87A12.87,12.87,0,0,0,386.67,60H53.1A12.86,12.86,0,0,0,40.27,72.87Z"/><path class="cls-10" d="M72.35,149.83V284.55H213.47V149.83Z"/><path class="cls-10" d="M104.42,226.81a32.07,32.07,0,1,0,32.07-32.07A32.07,32.07,0,0,0,104.42,226.81Z"/><path class="cls-10" d="M271.2,226.81a32.08,32.08,0,1,0,32.07-32.07A32.07,32.07,0,0,0,271.2,226.81Z"/><path class="cls-10" d="M226.29,149.83V284.55H367.41V149.83Z"/><path class="cls-9" d="M219.71,323a6.42,6.42,0,0,0,.07-12.83h-.07a6.42,6.42,0,1,0,0,12.83Z"/><path class="cls-8" d="M393.09,323a6.41,6.41,0,0,0,6.42-6.41V117.76a6.42,6.42,0,0,0-12.83,0V316.61A6.4,6.4,0,0,0,393.09,323Z"/><path class="cls-8" d="M46.71,323a6.4,6.4,0,0,0,6.41-6.41V117.76a6.42,6.42,0,0,0-12.83,0V316.61A6.41,6.41,0,0,0,46.71,323Z"/><path class="cls-11" d="M399.5,117.76a12.86,12.86,0,0,0,19.3,11.1V104.93L399.5,85.69H40.27L21,104.93v23.93a13,13,0,0,0,6.42,1.73,12.83,12.83,0,0,0,12.83-12.83,12.83,12.83,0,0,0,25.66,0,12.83,12.83,0,0,0,25.66,0,12.83,12.83,0,0,0,25.66,0,12.83,12.83,0,1,0,25.65,0,12.83,12.83,0,0,0,25.66,0,12.83,12.83,0,0,0,25.66,0,12.83,12.83,0,1,0,25.66,0,12.83,12.83,0,1,0,25.66,0,12.83,12.83,0,1,0,25.66,0,12.83,12.83,0,0,0,25.66,0,12.83,12.83,0,0,0,25.66,0,12.83,12.83,0,1,0,25.66,0,12.83,12.83,0,1,0,25.66,0,12.83,12.83,0,1,0,25.66,0Z"/><path class="cls-12" d="M399.5,117.76a12.83,12.83,0,1,1-25.66,0,12.83,12.83,0,1,1-25.66,0,12.83,12.83,0,1,1-25.66,0,12.83,12.83,0,0,1-25.66,0,12.83,12.83,0,0,1-25.66,0,12.83,12.83,0,1,1-25.66,0,12.83,12.83,0,1,1-25.66,0,12.83,12.83,0,1,1-25.66,0,12.83,12.83,0,0,1-25.66,0,12.83,12.83,0,0,1-25.66,0,12.83,12.83,0,1,1-25.65,0,12.83,12.83,0,0,1-25.66,0,12.83,12.83,0,0,1-25.66,0,12.83,12.83,0,0,1-25.66,0,12.83,12.83,0,0,1-12.83,12.83A13,13,0,0,1,21,128.86V104.93H418.8v23.93a12.86,12.86,0,0,1-19.3-11.1Z"/><path class="cls-11" d="M399.5,117.76a12.83,12.83,0,1,1-25.66,0,12.83,12.83,0,1,1-25.66,0,12.83,12.83,0,1,1-25.66,0,12.83,12.83,0,0,1-25.66,0,12.83,12.83,0,0,1-25.66,0,12.83,12.83,0,1,1-25.66,0,12.83,12.83,0,1,1-25.66,0,12.83,12.83,0,1,1-25.66,0,12.83,12.83,0,0,1-25.66,0,12.83,12.83,0,0,1-25.66,0,12.83,12.83,0,1,1-25.65,0,12.83,12.83,0,0,1-25.66,0,12.83,12.83,0,0,1-25.66,0,12.83,12.83,0,0,1-25.66,0,12.83,12.83,0,0,1-12.83,12.83A13,13,0,0,1,21,128.86V104.93H418.8v23.93a12.86,12.86,0,0,1-19.3-11.1Z"/><path class="cls-12" d="M151.93,170.62c-2.21,8.18-12.92,14.22-17.07,10.07-3.18-3.18-.28-9.37,3.22-12.86C145.46,160.49,154.2,162.51,151.93,170.62Z"/><path class="cls-12" d="M152.28,168.23v32.55H133.53V177.09C139.43,174.32,135.43,176.22,152.28,168.23Z"/><path class="cls-13" d="M152.28,168.23v32.55H133.53V177.09C139.43,174.32,135.43,176.22,152.28,168.23Z"/><path class="cls-4" d="M131.19,200.78h23.43v23.44H131.19Z"/><path class="cls-12" d="M152.28,168.23v27.86H142.9a4.68,4.68,0,0,1-4.68-4.68V175Z"/><path class="cls-4" d="M159.31,233.59c0,33.12.12,31-.31,32.51a7,7,0,0,1-6.72,5H133.53a7,7,0,0,1-7-7V233.59Z"/><path class="cls-4" d="M126.5,224.22h32.81v9.37H126.5Z"/><path class="cls-14" d="M126.5,224.22h32.81v9.37H126.5Z"/><path class="cls-14" d="M159.31,233.59c0,33.12.12,31-.31,32.51a7,7,0,0,1-6.72,5H133.53a7,7,0,0,1-7-7V233.59Z"/><path class="cls-14" d="M131.19,200.78h23.43v23.44H131.19Z"/><path class="cls-4" d="M159.31,224.22v4.68H135.87a4.68,4.68,0,0,1-4.68-4.68Z"/><path class="cls-4" d="M159.31,233.59c0,33.12.12,31-.31,32.51a7.73,7.73,0,0,1-2,.3,25.78,25.78,0,0,1-25.78-25.78v-7Z"/><path class="cls-4" d="M154.62,200.78c0,20-.23,18.75,0,18.75a18.76,18.76,0,0,1-18.75-18.75Z"/><path class="cls-13" d="M138.08,167.83c-3.5,3.49-6.4,9.68-3.22,12.86,4.15,4.15,14.86-1.89,17.07-10.07S145.46,160.49,138.08,167.83Z"/><path class="cls-12" d="M151.93,170.62c-6.68,9.44-18.4,8.65-15.71-.61C142.9,160.68,154.62,161.29,151.93,170.62Z"/><path class="cls-15" d="M329.65,207.85a32.63,32.63,0,0,1-9.87,23.43H273.9a32.81,32.81,0,1,1,55.75-23.43Z"/><path class="cls-16" d="M329.65,207.85a32.63,32.63,0,0,1-9.87,23.43H273.9a32.81,32.81,0,1,1,55.75-23.43Z"/><path class="cls-17" d="M329.65,207.85a32.63,32.63,0,0,1-9.87,23.43H287a32.8,32.8,0,0,1-4.68-52.89,32.8,32.8,0,0,1,47.36,29.46Z"/><path class="cls-18" d="M325,236v4.69H268.72V236a4.69,4.69,0,0,1,4.68-4.69h46.88A4.68,4.68,0,0,1,325,236Z"/><path class="cls-19" d="M325,236H278.09a4.69,4.69,0,0,1-4.69-4.69c0-.23-2.08,0,46.88,0A4.68,4.68,0,0,1,325,236Z"/><path class="cls-10" d="M320.28,207.85a23.44,23.44,0,1,1-1.91-9.25A23.44,23.44,0,0,1,320.28,207.85Z"/><path class="cls-16" d="M329.65,240.66c0,12.25.17,12.56-.42,14.06a7,7,0,0,1-6.61,4.69H271.06a7,7,0,0,1-7-7V240.66Z"/><path class="cls-17" d="M329.65,240.66c0,12.25.17,12.56-.42,14.06H278.09a7,7,0,0,1-7-7v-7Z"/><path class="cls-16" d="M308.56,240.66l-1.45,5.83a4.7,4.7,0,0,1-4.55,3.54H291.12a4.68,4.68,0,0,1-4.54-3.54l-1.46-5.83Z"/><path class="cls-17" d="M308.56,240.66c-1.24,4.94-1.08,4.68-1.31,4.68H295.81a4.68,4.68,0,0,1-4.55-3.53l-.28-1.15Z"/><rect class="cls-20" x="226.29" y="149.83" width="141.13" height="134.71"/><path class="cls-21" d="M399.5,117.76a12.83,12.83,0,1,1-25.66,0,12.83,12.83,0,1,1-25.66,0,12.83,12.83,0,1,1-25.66,0,12.83,12.83,0,0,1-25.66,0,12.83,12.83,0,0,1-25.66,0,12.83,12.83,0,1,1-25.66,0,12.83,12.83,0,1,1-25.66,0,12.83,12.83,0,1,1-25.66,0,12.83,12.83,0,0,1-25.66,0,12.83,12.83,0,0,1-25.66,0,12.83,12.83,0,1,1-25.65,0,12.83,12.83,0,0,1-25.66,0,12.83,12.83,0,0,1-25.66,0,12.83,12.83,0,0,1-25.66,0,12.83,12.83,0,0,1-12.83,12.83A13,13,0,0,1,21,128.86V104.93H418.8v23.93a12.86,12.86,0,0,1-19.3-11.1Z"/></g></g></g></svg>