<svg id="Layer_1" data-name="Layer 1" xmlns="http://www.w3.org/2000/svg" viewBox="0 0 132.45 132.45"><title>Beauty</title><path d="M60.56,76.53l-.17.18a2.66,2.66,0,0,0,0,3.76,2.64,2.64,0,0,0,3.75,0l.18-.18a2.66,2.66,0,1,0-3.76-3.76Z"/><path d="M76.69,42.65a2.66,2.66,0,0,0-3.76,0L42.46,73.12a2.66,2.66,0,1,0,3.76,3.76L76.69,46.41A2.66,2.66,0,0,0,76.69,42.65Z"/><path d="M52.71,18.3A41.95,41.95,0,0,0,35.4,93.85a41.59,41.59,0,0,0,24.21,7.77,42.59,42.59,0,0,0,7.09-.6,41.59,41.59,0,0,0,16.66-6.71,2.65,2.65,0,0,0,.7-3.69,2.68,2.68,0,0,0-3.7-.7A36.63,36.63,0,0,1,29.85,38.44,36.63,36.63,0,0,1,84.51,32.7a2.65,2.65,0,0,0,3.59-3.91A41.71,41.71,0,0,0,52.71,18.3Z"/><path d="M51.54,50.06a2.66,2.66,0,0,0-3.76-3.76l-8.9,8.9A2.66,2.66,0,1,0,42.64,59Z"/><path d="M94.43,14.27a57.16,57.16,0,0,0-92,45.31,57.16,57.16,0,0,0,54.5,57.09v8H37A2.66,2.66,0,1,0,37,130H82.17a2.66,2.66,0,0,0,0-5.32H62.24v-8a57.34,57.34,0,0,0,23.83-6.43,2.66,2.66,0,1,0-2.47-4.71,51.84,51.84,0,1,1-24-97.79,51.31,51.31,0,0,1,31.6,10.74,2.66,2.66,0,1,0,3.25-4.21Z"/><path d="M127.37,59v-6a5.32,5.32,0,0,0-2.66-4.6V20.24a8,8,0,0,0-1.75-5l-7.85-9.81a8,8,0,0,0-14.33,5V48.33a5.34,5.34,0,0,0-2.66,4.6v6a5.33,5.33,0,0,0-2.65,4.6v58.49a8,8,0,0,0,8,8h18.61a8,8,0,0,0,8-8V63.56A5.32,5.32,0,0,0,127.37,59ZM106.1,10.46A2.73,2.73,0,0,1,111,8.76l7.85,9.81a2.65,2.65,0,0,1,.58,1.67V47.61H106.1Zm-2.66,42.47h18.61v5.32H103.44Zm21.27,69.12a2.66,2.66,0,0,1-2.66,2.66H103.44a2.67,2.67,0,0,1-2.66-2.66V63.56h23.93Z"/><path d="M58.21,43.38l.56-.55A2.66,2.66,0,0,0,55,39.07l-.56.55a2.66,2.66,0,1,0,3.76,3.76Z"/><path d="M69.91,73.6a2.65,2.65,0,0,0,1.88-.78l8.49-8.48a2.66,2.66,0,1,0-3.76-3.76L68,69.06a2.66,2.66,0,0,0,1.88,4.54Z"/></svg>