<svg xmlns="http://www.w3.org/2000/svg" xmlns:xlink="http://www.w3.org/1999/xlink" viewBox="0 0 400 400"><defs><style>.cls-1{fill:none;}.cls-2{isolation:isolate;}.cls-3{clip-path:url(#clip-path);}.cls-11,.cls-4{fill:#d50057;}.cls-5{fill:#d6d6d6;}.cls-6{fill:#fff;}.cls-7{fill:#a5a5a5;stroke:#d6d6d6;stroke-miterlimit:10;stroke-width:4px;}.cls-8{fill:#0093d2;}.cls-9{fill:#fff7f2;}.cls-10{fill:#ffefe4;}.cls-11{opacity:0.5;mix-blend-mode:multiply;}.cls-12{fill:#ffcc80;}.cls-13{fill:#f0ba7d;}</style><clipPath id="clip-path"><circle class="cls-1" cx="200" cy="200" r="200"/></clipPath></defs><title>Product1</title><g class="cls-2"><g id="Layer_1" data-name="Layer 1"><g class="cls-3"><circle class="cls-4" cx="234.97" cy="188.23" r="276.69"/></g><path class="cls-5" d="M265.52,336.77h-131a22.7,22.7,0,0,1-22.7-22.7V79.88a22.7,22.7,0,0,1,22.7-22.7h131a22.7,22.7,0,0,1,22.7,22.7V314.07A22.7,22.7,0,0,1,265.52,336.77Z"/><path class="cls-6" d="M134.48,325.85a11.8,11.8,0,0,1-11.78-11.78v-220A11.79,11.79,0,0,1,134.48,82.3h131A11.79,11.79,0,0,1,277.3,94.08v220a11.8,11.8,0,0,1-11.78,11.78Z"/><path class="cls-7" d="M222.54,74.56H161.08a4.92,4.92,0,1,1,0-9.83h61.46a4.92,4.92,0,0,1,0,9.83Z"/><path class="cls-7" d="M243.84,69.64a4.92,4.92,0,1,1-4.92-4.91A4.92,4.92,0,0,1,243.84,69.64Z"/><path class="cls-4" d="M259.8,198l-26.47-26.38a3.53,3.53,0,0,0-2.49-1H218a19.89,19.89,0,1,1-39.78,0H165.34a3.5,3.5,0,0,0-2.5,1L136.51,198a1.46,1.46,0,0,0,0,2.05l13.81,13.81a1.44,1.44,0,0,0,2.05,0l11.51-11.5v55.08a1.44,1.44,0,0,0,1.45,1.45h65.52a1.45,1.45,0,0,0,1.45-1.45V202.18l11.64,11.65a1.45,1.45,0,0,0,2.06,0L259.8,200A1.44,1.44,0,0,0,259.8,198Z"/><path class="cls-8" d="M218,170.56a19.89,19.89,0,1,1-39.78,0h4.27a15.62,15.62,0,0,0,31.23,0Z"/><path class="cls-4" d="M213.7,170.56a15.62,15.62,0,0,1-31.23,0Z"/><path class="cls-8" d="M232.3,257.41v-2.82H163.88v2.82a1.44,1.44,0,0,0,1.45,1.45h65.52A1.45,1.45,0,0,0,232.3,257.41Z"/><path class="cls-8" d="M259.81,198l-2-2L242,211.83l2,2a1.46,1.46,0,0,0,2,0l13.8-13.8A1.44,1.44,0,0,0,259.81,198Z"/><path class="cls-8" d="M136.51,198l2-2,15.85,15.85-2,2a1.46,1.46,0,0,1-2.05,0L136.51,200A1.46,1.46,0,0,1,136.51,198Z"/><path class="cls-4" d="M130.56,82.3h24.9l-6.57,32h-33l8.45-27.43A6.48,6.48,0,0,1,130.56,82.3Z"/><path class="cls-9" d="M155.46,82.3h29.7l-3.29,32h-33Z"/><path class="cls-4" d="M185.16,82.3h29.69l3.29,32H181.87Z"/><path class="cls-9" d="M214.85,82.3h29.7l6.57,32h-33Z"/><path class="cls-4" d="M244.55,82.3h24.89a6.5,6.5,0,0,1,6.21,4.58l8.44,27.43h-33Z"/><path class="cls-4" d="M132.41,135.24h0a16.48,16.48,0,0,1-16.48-16.49v-4.44h33v4.44A16.48,16.48,0,0,1,132.41,135.24Z"/><path class="cls-10" d="M165.4,135.24h0a16.49,16.49,0,0,1-16.49-16.49v-4.44h33v4.44A16.48,16.48,0,0,1,165.4,135.24Z"/><path class="cls-10" d="M234.64,135.24h0a16.48,16.48,0,0,1-16.48-16.49v-4.44h33v4.44A16.48,16.48,0,0,1,234.64,135.24Z"/><path class="cls-4" d="M267.61,135.24a16.49,16.49,0,0,1-16.49-16.49v-4.44h33v4.44A16.49,16.49,0,0,1,267.61,135.24Z"/><path class="cls-4" d="M201.65,135.24h-3.28a16.49,16.49,0,0,1-16.49-16.49v-4.44h36.26v4.44A16.49,16.49,0,0,1,201.65,135.24Z"/><path class="cls-8" d="M61.13,216.61,81.92,233a2.42,2.42,0,0,0,3.92-1.9v-9.81h9.74a6.53,6.53,0,1,0,0-13.06H85.84v-9.81a2.42,2.42,0,0,0-3.92-1.9L61.13,212.81A2.41,2.41,0,0,0,61.13,216.61Z"/><path class="cls-8" d="M338.87,216.61,318.08,233a2.42,2.42,0,0,1-3.92-1.9v-9.81h-9.74a6.53,6.53,0,0,1,0-13.06h9.74v-9.81a2.42,2.42,0,0,1,3.92-1.9l20.79,16.33A2.42,2.42,0,0,1,338.87,216.61Z"/><path class="cls-11" d="M213.7,170.56a15.62,15.62,0,0,1-31.23,0Z"/><path class="cls-11" d="M132.41,135.24h0a16.48,16.48,0,0,1-16.48-16.49v-4.44h33v4.44A16.48,16.48,0,0,1,132.41,135.24Z"/><path class="cls-11" d="M267.61,135.24a16.49,16.49,0,0,1-16.49-16.49v-4.44h33v4.44A16.49,16.49,0,0,1,267.61,135.24Z"/><path class="cls-11" d="M201.65,135.24h-3.28a16.49,16.49,0,0,1-16.49-16.49v-4.44h36.26v4.44A16.49,16.49,0,0,1,201.65,135.24Z"/><path class="cls-12" d="M315.6,246.73a8.44,8.44,0,0,0-8.44,8.44v-5.63a8.45,8.45,0,0,0-16.89,0v-5.62a8.44,8.44,0,0,0-16.88,0V215.78a8.44,8.44,0,1,0-16.88,0v70.34L237,276.35a14.15,14.15,0,0,0-6.29-1.48,7.94,7.94,0,0,0-7.94,7.93v0a8,8,0,0,0,2.33,5.62l36.39,36.39a40.7,40.7,0,0,0,28.81,11.92h0A33.77,33.77,0,0,0,324,303V255.17A8.44,8.44,0,0,0,315.6,246.73Z"/><path class="cls-13" d="M276.21,237.67v31.57a2.81,2.81,0,0,1-2.82,2.81V243.92A8.27,8.27,0,0,1,276.21,237.67Z"/><path class="cls-13" d="M293.09,243.3v25.94a2.81,2.81,0,0,1-2.82,2.81V249.54A8.24,8.24,0,0,1,293.09,243.3Z"/><path class="cls-13" d="M310,248.93v20.31a2.81,2.81,0,0,1-2.81,2.81V255.17A8.19,8.19,0,0,1,310,248.93Z"/></g></g></svg>