<svg id="Layer_1" data-name="Layer 1" xmlns="http://www.w3.org/2000/svg" viewBox="0 0 132.45 132.45"><title>Fashion</title><path d="M111.93,61.93c-8.16,0-12.51,5.88-16.53,14.7C90.14,88.17,84.79,94.78,80.71,94.78c-.73,0-2.94,0-4.91-4.39a3.61,3.61,0,0,0-4-2c-7.6,1.67-13.19,5.14-16.59,10.3a21.24,21.24,0,0,0-3.43,10.92,3.6,3.6,0,0,0,3.6,3.72H80c.33,2.66.61,5.27.83,7.75-7,5-14.89,5.14-20.28,4.37-6.32-.91-12.71-3.35-18.93-5.73-2.46-.94-5-1.91-7.54-2.79-7.44-2.57-13.45-3.72-18.85-3.59C18.19,89.87,25.1,65.14,29.8,56.47h8c-.64,3.43-1.34,8.37-2,14.33a2.13,2.13,0,1,0,4.24.5c.74-6.32,1.5-11.57,2.15-14.83H53.5c.65,3.32,1.39,8.43,2.15,14.83a2.13,2.13,0,0,0,4.24-.5c-.7-6-1.41-10.9-2-14.33h7.62c3,5.53,6.72,17.16,9.81,30.44a2.12,2.12,0,0,0,2.07,1.66,2,2,0,0,0,.49-.06,2.18,2.18,0,0,0,1.33-1A2.12,2.12,0,0,0,79.43,86C76.18,72,72.18,59.72,69,54c.49-2.31,1-4.84,1.6-7.29l.05-.24c1.47-6.59,3-13.4,3.4-17.24.59-5.59.19-19.42,0-23.52A3.36,3.36,0,0,0,70.7,2.42H66.33A3.38,3.38,0,0,0,63,5.79v4.48A15.64,15.64,0,0,1,47.5,26,15.47,15.47,0,0,1,32,10.53V5.79a3.37,3.37,0,0,0-3.37-3.37H24.29a3.36,3.36,0,0,0-3.37,3.26v.47c-.09,2.58-.25,7.36-.25,12.63a2.14,2.14,0,1,0,4.27,0c0-4.92.14-9.36.23-12V6.69h2.6v3.84A19.73,19.73,0,0,0,47.53,30.27h0a19.92,19.92,0,0,0,19.68-20V6.69h2.59c.16,5.2.46,17.15-.06,22.06-.39,3.62-1.88,10.31-3.32,16.78-.5,2.23-1,4.52-1.47,6.67H30c-.4-1.84-.83-3.79-1.26-5.71l-.14-.62c-1.47-6.62-3-13.45-3.39-17.12,0-.44-.09-1-.13-1.66a2.13,2.13,0,0,0-3.73-1.28,2.09,2.09,0,0,0-.53,1.54c0,.74.09,1.35.14,1.85.42,3.91,2,10.86,3.47,17.59l0,.14C25,49.43,25.6,52,26.1,54.34,23.58,59,20.55,67.62,17.78,78.1a266.87,266.87,0,0,0-7.07,37.24,2.08,2.08,0,0,0,.6,1.74,2.17,2.17,0,0,0,1.74.63c5.52-.57,11.59.42,19.66,3.21,2.46.85,5,1.81,7.42,2.74,6.41,2.45,13,5,19.83,6a39.63,39.63,0,0,0,5.48.4,30.31,30.31,0,0,0,19-6.32,2.12,2.12,0,0,0,.81-1.85c-.22-2.78-.52-5.66-.88-8.58h.83a4.08,4.08,0,0,0,3.89-2.8,41.93,41.93,0,0,1,9.21-14.64,26.74,26.74,0,0,1,7.68-6.08A47.33,47.33,0,0,1,106.3,97v12.65a3.63,3.63,0,0,0,3.62,3.63H113a3.63,3.63,0,0,0,3.62-3.63V97c0-2.7,1.12-5,2.3-7.49,1.39-2.88,2.82-5.86,2.82-9.81C121.75,69.41,117.62,61.93,111.93,61.93ZM112.36,97v12h-1.79V97c0-6-.29-9.58-1.81-11.19a2.14,2.14,0,0,0-1.55-.66c-4.42,0-10.35,5.94-12.07,7.76A46.52,46.52,0,0,0,85,109H56c.78-11.45,11.33-15.24,16.1-16.37,2,4.26,4.93,6.42,8.57,6.42,6.08,0,12.33-7,18.57-20.65,4.11-9,7.42-12.21,12.65-12.21,2.27,0,5.55,4.81,5.55,13.5,0,3-1.16,5.4-2.4,8C113.74,90.45,112.36,93.32,112.36,97Z"/></svg>