<svg id="Layer_1" data-name="Layer 1" xmlns="http://www.w3.org/2000/svg" xmlns:xlink="http://www.w3.org/1999/xlink" viewBox="0 0 400 400"><defs><style>.cls-1,.cls-4{fill:#0093d2;}.cls-2{fill:none;}.cls-3{clip-path:url(#clip-path);}.cls-4{opacity:0.1;}.cls-5{clip-path:url(#clip-path-2);}.cls-6{fill:#efbe4e;}.cls-7{fill:#ed9537;}.cls-8{fill:#f6d761;}.cls-9{fill:#d50057;}.cls-10{fill:#fff;}.cls-11{fill:#ffc629;}.cls-12{fill:#4d4d4d;}.cls-13{fill:#666;}.cls-14{fill:#b7b7b7;}</style><clipPath id="clip-path"><circle class="cls-1" cx="200" cy="200" r="200"/></clipPath><clipPath id="clip-path-2"><circle class="cls-2" cx="200" cy="200" r="200"/></clipPath></defs><title>2</title><circle class="cls-1" cx="200" cy="200" r="200"/><g class="cls-3"><circle class="cls-4" cx="234.97" cy="188.23" r="276.69"/></g><g class="cls-5"><path class="cls-6" d="M281.21,60.35a67.1,67.1,0,1,0,67.1,67.1A67,67,0,0,0,281.21,60.35Z"/><path class="cls-7" d="M348.31,127.45a67,67,0,0,1-67.1,67.09V60.35A67,67,0,0,1,348.31,127.45Z"/><path class="cls-8" d="M281.21,76.07a51.38,51.38,0,1,0,51.37,51.38A51.43,51.43,0,0,0,281.21,76.07Z"/><path class="cls-6" d="M332.58,127.45a51.44,51.44,0,0,1-51.37,51.37V76.07A51.44,51.44,0,0,1,332.58,127.45Z"/><path class="cls-6" d="M300.87,151a3.94,3.94,0,0,1-3.93,3.94H257.62a3.94,3.94,0,0,1-2.78-6.72,22.74,22.74,0,0,0,6.71-16.2v-.67h-3.93a3.94,3.94,0,0,1,0-7.87h3.93V111.72a19.66,19.66,0,0,1,39.32,0,3.94,3.94,0,0,1-7.87,0,11.79,11.79,0,1,0-23.58,0v11.79h11.79a3.94,3.94,0,0,1,0,7.87H269.42v.67a30.65,30.65,0,0,1-3.92,15h31.44a3.93,3.93,0,0,1,3.93,3.93Z"/><path class="cls-7" d="M281.21,131.38v-7.87a3.94,3.94,0,0,1,0,7.87Z"/><path class="cls-7" d="M300.87,151a3.94,3.94,0,0,1-3.93,3.94H281.21V147.1h15.73A3.93,3.93,0,0,1,300.87,151Z"/><path class="cls-7" d="M281.21,99.92V92.06a19.68,19.68,0,0,1,19.66,19.66,3.94,3.94,0,0,1-7.87,0A11.81,11.81,0,0,0,281.21,99.92Z"/><path class="cls-9" d="M263.4,171.49H199.59V287.14H304.13V235.08l-12.19-42.14a29.71,29.71,0,0,0-28.54-21.45"/><path class="cls-10" d="M288.88,234.53l0,0L278,197a15.29,15.29,0,0,0-14.6-11H214.12l0,0v48.54h0v0h74.76v0Z"/><path class="cls-11" d="M19.31,113.43h161a19.31,19.31,0,0,1,19.31,19.31V287.13H0V132.74a19.31,19.31,0,0,1,19.31-19.31"/><polygon class="cls-10" points="130.81 113.46 130.81 164.49 123.34 157.02 115.52 164.85 107.69 157.02 99.87 164.85 92.04 157.02 84.11 164.85 76.3 157.02 68.74 164.58 68.74 113.46 130.81 113.46"/><path class="cls-12" d="M309,287.12V309H0V287.12H32.28a44.25,44.25,0,0,1,77.25,0H213.3a44.19,44.19,0,0,1,77.18,0Z"/><path class="cls-13" d="M282.7,308.81A30.84,30.84,0,1,1,251.85,278a30.85,30.85,0,0,1,30.85,30.84"/><path class="cls-14" d="M264.25,308.81a12.39,12.39,0,1,1-12.38-12.39,12.39,12.39,0,0,1,12.38,12.39"/><path class="cls-13" d="M101.72,308.81A30.85,30.85,0,1,1,70.88,278a30.85,30.85,0,0,1,30.84,30.84"/><path class="cls-14" d="M83.26,308.81a12.39,12.39,0,1,1-12.38-12.39,12.39,12.39,0,0,1,12.38,12.39"/></g></svg>