<svg xmlns="http://www.w3.org/2000/svg" xmlns:xlink="http://www.w3.org/1999/xlink" viewBox="0 0 400 400"><defs><style>.cls-1{fill:#c2d500;}.cls-2{fill:none;}.cls-3{isolation:isolate;}.cls-4{clip-path:url(#clip-path);}.cls-5{clip-path:url(#clip-path-2);}.cls-6{fill:#f2f2f2;}.cls-7{fill:#fed298;}.cls-8{fill:#0093d2;}.cls-9{fill:#fff;}.cls-10{fill:#f0ba7d;}.cls-11,.cls-12{fill:#d50057;}.cls-12{opacity:0.5;mix-blend-mode:multiply;}.cls-13{fill:#d6d6d6;}.cls-14{fill:#b7b7b7;}</style><clipPath id="clip-path"><circle class="cls-1" cx="200" cy="200" r="200"/></clipPath><clipPath id="clip-path-2"><circle class="cls-2" cx="200" cy="200" r="200"/></clipPath></defs><title>4</title><g class="cls-3"><g id="Layer_1" data-name="Layer 1"><circle class="cls-1" cx="200" cy="200" r="200"/><g class="cls-4"><circle class="cls-1" cx="234.97" cy="188.23" r="276.69"/></g><g class="cls-5"><path class="cls-6" d="M225.08,354.75H174.56l12.93-248h24.66Z"/><path class="cls-6" d="M393.09,283.37V400H6.54V283.37a60,60,0,0,1,60,60c0,1.53-.07,3.07-.2,4.6a46.58,46.58,0,0,1,66.11,34.19,29.94,29.94,0,0,1,41.12-6.8l1-20.59,11.93-54.22L199.82,340l10.47-35.79,14.79,50.52,1,20.59a29.94,29.94,0,0,1,41.12,6.8A46.58,46.58,0,0,1,333.31,348c-.13-1.53-.2-3.07-.2-4.6A60,60,0,0,1,393.09,283.37Z"/></g><g class="cls-5"><path class="cls-7" d="M59.18,141.21l70.43,35s52-16.82,60.06-14.19c.79.26,2.11.78,3.86,1.51h0c16.15,6.8,68.42,31.76,68.42,31.76l-14.9-.95c6.06,7.79,14.5,18,19.3,20.95,8.07,5-11.16,19.23-27.31,8.84s-20.38-23.07-20.38-23.07l-8,.82,56,51.44,8.9,10.66c7.69,9.23-1.86,22.56-14.44,18.5.2.15-.51-.06-.32.45.72,1.94,2.17,6.59.86,8.85-4.6,8-11.53,14.12-26.22,2.94,3.56,2.71,5.74,9.09,3.27,12.79-3.36,5.05-7.06,7.33-11.11,8.56-4.27,1.3-10.7-2.78-14.26-5.48,3.56,2.7,5.25,9.12,2.88,12.91-2.91,4.65-12.18,11.49-18.05,7l-18.46-14.06s-44.93-43.5-58.82-55.08-32.75-35.15-32.75-35.15l-83-46.05,54-39Z"/><path class="cls-8" d="M-10.57,197.08l60.75,40.61,64.21-84.3L37.11,80.44A210.33,210.33,0,0,0-10.57,197.08Z"/><path class="cls-9" d="M112.68,155.63l-54.11,71,10.37,7.91,54.12-71.05Z"/><path class="cls-10" d="M340.82,141.21l-70.43,35c-5.63,2.8-25.86-10.46-42.51-12.48-12-1.46-26.61,3.21-25.74,3.66l37.73,17.45s18.39,25.46,26.47,30.46-11.15,19.23-27.3,8.84-20.38-23.07-20.38-23.07l-33.39,3.44-64.35,56.87c-8.91,7.88-6.19,12-.2,19.66,2.74,3.52,12.81,2.34,17,.72-9.75,7.42,4.31,26.51,18.08,16-8.33,6.35,3.62,28.73,20.31,16-8.32,11.22,8.64,19.38,15.78,17.35l5.16-1.46-1.32-1c-.42,0-13.94-13.86-14.76-15.54-4.62-9.49,7.56-22.34,18.49-13.15l9.4,7.22-5.45-6.91c-6.95-9.1-1.6-18.5,5.05-21.35,4.88-2.09,9.93.23,14,4.29l10.39,8.32-8.85-10.34s-8.48-9.58-.7-18.14,18.34,1.7,18.34,1.7l12.43,10.27-10.69-12.38s-9.26-9.74-3-16.25c8.65-9,19.37-.14,27.82,8.77,2.43,2.57,4.93,6.5,6.83,8.32a136.82,136.82,0,0,0,15.62-21.89l104.14-61.43-54-39Z"/><path class="cls-11" d="M410.57,197.08l-60.76,40.61-64.2-84.3,77.28-72.95a210.33,210.33,0,0,1,47.68,116.64Z"/><path class="cls-9" d="M287.31,155.63l54.12,71-10.37,7.91-54.12-71.05Z"/><path class="cls-9" d="M44.27,215.25a3.85,3.85,0,1,1-3.84,3.85A3.85,3.85,0,0,1,44.27,215.25Zm-11.44-7.17A3.85,3.85,0,1,1,29,211.93,3.85,3.85,0,0,1,32.83,208.08Z"/><path class="cls-9" d="M358.05,217.34a3.85,3.85,0,1,0,3.85,3.85A3.85,3.85,0,0,0,358.05,217.34Zm11.45-7.17a3.85,3.85,0,1,0,3.85,3.85A3.85,3.85,0,0,0,369.5,210.17Z"/></g><path class="cls-8" d="M200,76.32c20.35,0,36.83,12.43,36.83,31.71v9.16c0,19.28-16.48-10.53-36.83-10.53s-36.83,29.93-36.83,10.53V108c0-19.28,16.48-31.71,36.83-31.71Z"/><path class="cls-11" d="M200,9c6.19,0,24.46,21,24.51,59,0,24.69-3.51,36.83-3.51,36.83-2.67,13.86-10.47,14-20.94,14s-18.33-.12-20.94-14c0,0-3.45-12.26-3.51-36.95,0-38,18.14-59,24.39-58.91Z"/><path class="cls-12" d="M221.6,98.87c-2.86,14.39-10.95,14.63-21.78,14.63s-19-.12-21.77-14.63l-.54-2.32a77.85,77.85,0,0,0,1.61,8.27c2.61,13.92,10.47,14,20.94,14s18.21-.24,20.94-14c0,0,1.61-5.78,2.68-17.44A91.58,91.58,0,0,1,221.6,98.87Z"/><path class="cls-13" d="M200,48.83a10.53,10.53,0,1,1-10.53,10.53A10.51,10.51,0,0,1,200,48.83Z"/><path class="cls-8" d="M201.25,84.47c3,0,5.41,8.15,5.41,22.67S204.23,128,201.19,128s-5.47-6.31-5.47-20.82S198.16,84.47,201.25,84.47Z"/><path class="cls-14" d="M194.35,53.65A8,8,0,1,1,192,59.3a8,8,0,0,1,2.32-5.65m-1.79-1.79a10.2,10.2,0,0,0-3,7.44,10.56,10.56,0,0,0,18,7.5,10.22,10.22,0,0,0,3-7.44A10.51,10.51,0,0,0,200,48.83,10.22,10.22,0,0,0,192.56,51.86Z"/><path class="cls-8" d="M183.28,28.66c4.52,3.45,10.89,5.53,17.91,5.53a31.43,31.43,0,0,0,16.07-4.28C211.42,16.22,203.63,9,200,9S189.05,15.75,183.28,28.66Z"/></g></g></svg>