<svg id="Layer_1" data-name="Layer 1" xmlns="http://www.w3.org/2000/svg" viewBox="0 0 132.45 132.45"><title>Supplements</title><path d="M79,91.74a2.13,2.13,0,0,0-2.12,2.13h0A2.12,2.12,0,0,0,79,96h38.29a2.12,2.12,0,0,0,2.12-2.13V74.73a2.13,2.13,0,0,0-2.12-2.13H79a2.12,2.12,0,0,0-2.12,2.13h0A2.12,2.12,0,0,0,79,76.86h36.16V91.74Z"/><path d="M119.92,42.83h-.53V36.45H121a4.79,4.79,0,0,0,4.78-4.79V9.86a7.44,7.44,0,0,0-7.44-7.44H69.41A7.44,7.44,0,0,0,62,9.86v21.8a4.79,4.79,0,0,0,4.78,4.79h1.6v6.38h-.53a10.09,10.09,0,0,0-9.73,7.38,2.13,2.13,0,1,0,4.1,1.12,5.86,5.86,0,0,1,5.63-4.25h52.1a5.86,5.86,0,0,1,5.85,5.85v9h-51a2.12,2.12,0,0,0-2.13,2.12h0a2.12,2.12,0,0,0,2.13,2.12h51V113H79a2.12,2.12,0,0,0-2.12,2.13h0A2.13,2.13,0,0,0,79,117.27h46.79a8.51,8.51,0,0,1-8.5,8.5H72.6a2.13,2.13,0,0,0,0,4.26h44.67A12.78,12.78,0,0,0,130,117.27V52.93A10.11,10.11,0,0,0,119.92,42.83ZM66.75,32.19a.53.53,0,0,1-.53-.53V9.86a3.19,3.19,0,0,1,3.19-3.19h48.92a3.19,3.19,0,0,1,3.19,3.19v21.8a.53.53,0,0,1-.53.53Zm48.39,10.64H72.6V36.45h42.54Z"/><rect x="70.48" y="10.93" width="4.25" height="17.01" rx="2.13"/><rect x="78.98" y="10.93" width="4.25" height="17.01" rx="2.13"/><rect x="87.49" y="10.93" width="4.25" height="17.01" rx="2.13"/><rect x="96" y="10.93" width="4.25" height="17.01" rx="2.13"/><rect x="104.51" y="10.93" width="4.25" height="17.01" rx="2.13"/><rect x="113.01" y="10.93" width="4.25" height="17.01" rx="2.13"/><path d="M79,102.38h8.51a2.13,2.13,0,0,1,2.13,2.13v0a2.13,2.13,0,0,1-2.13,2.13H79a2.12,2.12,0,0,1-2.12-2.12v0A2.12,2.12,0,0,1,79,102.38Z"/><rect x="93.87" y="102.38" width="25.52" height="4.25" rx="2.13"/><path d="M72.6,78.45A20.75,20.75,0,0,0,51.87,57.72H50.8a20.77,20.77,0,0,0-19.74,14.4,2.05,2.05,0,0,0,1.57,2.62h0a2.14,2.14,0,0,0,2.47-1.47A16.52,16.52,0,0,1,50.8,62h1.07A16.49,16.49,0,0,1,68.35,78.45V89.62H57.71a2.12,2.12,0,0,0-2.12,2.12h0a2.12,2.12,0,0,0,2.12,2.12H68.35v4.25H59.84a2.13,2.13,0,0,0-2.12,2.13h0a2.12,2.12,0,0,0,2.12,2.13h8.51v6.91a16.49,16.49,0,0,1-16.48,16.48H50.8a16.84,16.84,0,0,1-3.32-.33,2.12,2.12,0,1,0-.86,4.16,20.31,20.31,0,0,0,4.18.43h1.07A20.76,20.76,0,0,0,72.6,109.29Z"/><path d="M53.46,104.51A25.52,25.52,0,1,0,27.94,130,25.52,25.52,0,0,0,53.46,104.51ZM46.8,94.66a21.29,21.29,0,0,1,0,19.68L18.11,85.65A21.27,21.27,0,0,1,46.8,94.66ZM41.39,121h0L24.57,104.14a2.13,2.13,0,0,0-3,3l16.21,16.21A21.26,21.26,0,0,1,9.08,94.67l5.58,5.58a2.13,2.13,0,1,0,3-3l-6.19-6.19a21.41,21.41,0,0,1,3-3L44.4,118A21.41,21.41,0,0,1,41.39,121Z"/></svg>