<svg xmlns="http://www.w3.org/2000/svg" xmlns:xlink="http://www.w3.org/1999/xlink" viewBox="0 0 400 400"><defs><style>.cls-1{fill:none;}.cls-2{isolation:isolate;}.cls-3{clip-path:url(#clip-path);}.cls-4{fill:#d50057;}.cls-5{fill:#f14ba7;mix-blend-mode:darken;}.cls-6{clip-path:url(#clip-path-2);}.cls-7{fill:#f2f2f2;}.cls-8{fill:#b7b7b7;}.cls-9{fill:#939393;}.cls-10{fill:#fff;}.cls-11,.cls-20{fill:#ffc629;}.cls-12{fill:#af003a;}.cls-13,.cls-14{fill:#0093d2;}.cls-14{opacity:0.25;}.cls-14,.cls-15,.cls-16,.cls-20{mix-blend-mode:multiply;}.cls-15,.cls-16,.cls-17{fill:#c2d500;}.cls-16{opacity:0.65;}.cls-18{fill:#f6ccaf;}.cls-19{fill:#ffdec7;}.cls-20{opacity:0.33;}</style><clipPath id="clip-path"><circle class="cls-1" cx="200" cy="200" r="200"/></clipPath><clipPath id="clip-path-2"><path class="cls-1" d="M400,200c0,110.46-89.54,200-200,200S0,310.46,0,200,89.54,0,200,0A199.2,199.2,0,0,1,327.22,45.67c15.08,12.45,49.15-4.6,60,11.71,9.65,14.44-3.37,61.87,2.28,78.63A199.77,199.77,0,0,1,400,200Z"/></clipPath></defs><title>1b</title><g class="cls-2"><g id="Layer_1" data-name="Layer 1"><g class="cls-3"><circle class="cls-4" cx="234.97" cy="188.23" r="276.69"/></g><path class="cls-5" d="M187.82,255.21h35.7v4.3h-35.7Z"/><g class="cls-6"><path class="cls-7" d="M359.73,117.76v186H.5v-186a12.83,12.83,0,0,0,25.66,0,12.83,12.83,0,1,0,25.66,0,12.83,12.83,0,1,0,25.66,0,12.83,12.83,0,1,0,25.66,0,12.83,12.83,0,0,0,25.66,0,12.83,12.83,0,0,0,25.66,0,12.83,12.83,0,0,0,25.66,0,12.83,12.83,0,0,0,25.66,0,12.83,12.83,0,1,0,25.66,0,12.83,12.83,0,1,0,25.66,0,12.83,12.83,0,1,0,25.65,0,12.83,12.83,0,0,0,25.66,0,12.83,12.83,0,1,0,25.66,0,12.83,12.83,0,0,0,25.66,0Z"/><path class="cls-8" d="M109.55,393.59a12.79,12.79,0,0,1,12.83-12.83H237.85a12.82,12.82,0,0,1,12.83,12.83V400H109.55Z"/><path class="cls-9" d="M218.61,329.44l12.83,51.32H128.8l12.83-51.32Z"/><path class="cls-8" d="M.76,303.78h359v12.83a12.86,12.86,0,0,1-12.83,12.83H13.33A12.88,12.88,0,0,1,.5,316.61V303.78Z"/><path class="cls-8" d="M359.73,85.69H.5V72.87A12.87,12.87,0,0,1,13.33,60H346.9a12.86,12.86,0,0,1,12.83,12.83Z"/><path class="cls-10" d="M327.65,149.83V284.55H186.53V149.83Z"/><path class="cls-10" d="M295.58,226.81a32.07,32.07,0,1,1-32.07-32.07A32.07,32.07,0,0,1,295.58,226.81Z"/><path class="cls-10" d="M128.8,226.81a32.08,32.08,0,1,1-32.07-32.07A32.07,32.07,0,0,1,128.8,226.81Z"/><path class="cls-10" d="M173.71,149.83V284.55H32.59V149.83Z"/><path class="cls-9" d="M180.29,323a6.42,6.42,0,0,1-.07-12.83h.07a6.42,6.42,0,1,1,0,12.83Z"/><path class="cls-8" d="M6.91,323a6.41,6.41,0,0,1-6.42-6.41V117.76a6.42,6.42,0,0,1,12.83,0V316.61A6.4,6.4,0,0,1,6.91,323Z"/><path class="cls-8" d="M353.29,323a6.4,6.4,0,0,1-6.41-6.41V117.76a6.42,6.42,0,0,1,12.83,0V316.61A6.41,6.41,0,0,1,353.29,323Z"/><path class="cls-11" d="M.5,117.76a12.86,12.86,0,0,1-12.83,12.83,12.84,12.84,0,0,1-6.47-1.73V104.93L.5,85.69H359.73L379,104.93v23.93a13,13,0,0,1-6.42,1.73,12.83,12.83,0,0,1-12.83-12.83,12.83,12.83,0,0,1-25.66,0,12.83,12.83,0,1,1-25.66,0,12.83,12.83,0,0,1-25.66,0,12.83,12.83,0,1,1-25.65,0,12.83,12.83,0,1,1-25.66,0,12.83,12.83,0,1,1-25.66,0,12.83,12.83,0,0,1-25.66,0,12.83,12.83,0,0,1-25.66,0,12.83,12.83,0,0,1-25.66,0,12.83,12.83,0,0,1-25.66,0,12.83,12.83,0,1,1-25.66,0,12.83,12.83,0,1,1-25.66,0,12.83,12.83,0,1,1-25.66,0,12.83,12.83,0,0,1-25.66,0Z"/><path class="cls-4" d="M.5,117.76a12.83,12.83,0,0,0,25.66,0,12.83,12.83,0,1,0,25.66,0,12.83,12.83,0,1,0,25.66,0,12.83,12.83,0,1,0,25.66,0,12.83,12.83,0,0,0,25.66,0,12.83,12.83,0,0,0,25.66,0,12.83,12.83,0,0,0,25.66,0,12.83,12.83,0,0,0,25.66,0,12.83,12.83,0,1,0,25.66,0,12.83,12.83,0,1,0,25.66,0,12.83,12.83,0,1,0,25.65,0,12.83,12.83,0,0,0,25.66,0,12.83,12.83,0,1,0,25.66,0,12.83,12.83,0,0,0,25.66,0,12.83,12.83,0,0,0,12.83,12.83,13,13,0,0,0,6.42-1.73V104.93H-18.8v23.93a12.84,12.84,0,0,0,6.47,1.73A12.86,12.86,0,0,0,.5,117.76Z"/><path class="cls-11" d="M.5,117.76a12.83,12.83,0,0,0,25.66,0,12.83,12.83,0,1,0,25.66,0,12.83,12.83,0,1,0,25.66,0,12.83,12.83,0,1,0,25.66,0,12.83,12.83,0,0,0,25.66,0,12.83,12.83,0,0,0,25.66,0,12.83,12.83,0,0,0,25.66,0,12.83,12.83,0,0,0,25.66,0,12.83,12.83,0,1,0,25.66,0,12.83,12.83,0,1,0,25.66,0,12.83,12.83,0,1,0,25.65,0,12.83,12.83,0,0,0,25.66,0,12.83,12.83,0,1,0,25.66,0,12.83,12.83,0,0,0,25.66,0,12.83,12.83,0,0,0,12.83,12.83,13,13,0,0,0,6.42-1.73V104.93H-18.8v23.93a12.84,12.84,0,0,0,6.47,1.73A12.86,12.86,0,0,0,.5,117.76Z"/><path class="cls-4" d="M112.16,170.62c-2.2,8.18-12.91,14.22-17.06,10.07-3.18-3.18-.28-9.37,3.21-12.86C105.7,160.49,114.44,162.51,112.16,170.62Z"/><path class="cls-4" d="M112.52,168.23v32.55H93.77V177.09C99.67,174.32,95.67,176.22,112.52,168.23Z"/><path class="cls-12" d="M112.52,168.23v32.55H93.77V177.09C99.67,174.32,95.67,176.22,112.52,168.23Z"/><path class="cls-13" d="M91.42,200.78h23.44v23.44H91.42Z"/><path class="cls-4" d="M112.52,168.23v27.86h-9.38a4.69,4.69,0,0,1-4.69-4.68V175Z"/><path class="cls-13" d="M119.55,233.59c0,33.12.11,31-.31,32.51a7,7,0,0,1-6.72,5H93.77a7,7,0,0,1-7-7V233.59Z"/><path class="cls-13" d="M86.74,224.22h32.81v9.37H86.74Z"/><path class="cls-14" d="M86.74,224.22h32.81v9.37H86.74Z"/><path class="cls-14" d="M119.55,233.59c0,33.12.11,31-.31,32.51a7,7,0,0,1-6.72,5H93.77a7,7,0,0,1-7-7V233.59Z"/><path class="cls-14" d="M91.42,200.78h23.44v23.44H91.42Z"/><path class="cls-13" d="M119.55,224.22v4.68H96.11a4.69,4.69,0,0,1-4.69-4.68Z"/><path class="cls-13" d="M119.55,233.59c0,33.12.11,31-.31,32.51a7.8,7.8,0,0,1-2,.3,25.78,25.78,0,0,1-25.78-25.78v-7Z"/><path class="cls-13" d="M114.86,200.78c0,20-.23,18.75,0,18.75a18.76,18.76,0,0,1-18.75-18.75Z"/><path class="cls-12" d="M98.31,167.83c-3.49,3.49-6.39,9.68-3.21,12.86,4.15,4.15,14.86-1.89,17.06-10.07S105.7,160.49,98.31,167.83Z"/><path class="cls-4" d="M112.16,170.62c-6.67,9.44-18.39,8.65-15.7-.61C103.14,160.68,114.86,161.29,112.16,170.62Z"/><path class="cls-15" d="M289.89,207.85A32.67,32.67,0,0,1,280,231.28H234.13a32.81,32.81,0,1,1,55.76-23.43Z"/><path class="cls-16" d="M289.89,207.85A32.67,32.67,0,0,1,280,231.28H234.13a32.81,32.81,0,1,1,55.76-23.43Z"/><path class="cls-17" d="M289.89,207.85A32.67,32.67,0,0,1,280,231.28H247.21a32.82,32.82,0,0,1-4.69-52.89,32.82,32.82,0,0,1,47.37,29.46Z"/><path class="cls-18" d="M285.2,236v4.69H229V236a4.69,4.69,0,0,1,4.69-4.69h46.87A4.69,4.69,0,0,1,285.2,236Z"/><path class="cls-19" d="M285.2,236H238.33a4.69,4.69,0,0,1-4.69-4.69c0-.23-2.08,0,46.87,0A4.69,4.69,0,0,1,285.2,236Z"/><path class="cls-10" d="M280.51,207.85a23.42,23.42,0,1,1-1.9-9.25A23.43,23.43,0,0,1,280.51,207.85Z"/><path class="cls-16" d="M289.89,240.66c0,12.25.16,12.56-.42,14.06a7,7,0,0,1-6.61,4.69H231.3a7,7,0,0,1-7-7V240.66Z"/><path class="cls-17" d="M289.89,240.66c0,12.25.16,12.56-.42,14.06H238.33a7,7,0,0,1-7-7v-7Z"/><path class="cls-16" d="M268.8,240.66l-1.46,5.83A4.68,4.68,0,0,1,262.8,250H251.36a4.7,4.7,0,0,1-4.55-3.54l-1.45-5.83Z"/><path class="cls-17" d="M268.8,240.66c-1.25,4.94-1.08,4.68-1.32,4.68H256.05a4.68,4.68,0,0,1-4.55-3.53l-.28-1.15Z"/><path class="cls-20" d="M.5,117.76a12.83,12.83,0,0,0,25.66,0,12.83,12.83,0,1,0,25.66,0,12.83,12.83,0,1,0,25.66,0,12.83,12.83,0,1,0,25.66,0,12.83,12.83,0,0,0,25.66,0,12.83,12.83,0,0,0,25.66,0,12.83,12.83,0,0,0,25.66,0,12.83,12.83,0,0,0,25.66,0,12.83,12.83,0,1,0,25.66,0,12.83,12.83,0,1,0,25.66,0,12.83,12.83,0,1,0,25.65,0,12.83,12.83,0,0,0,25.66,0,12.83,12.83,0,1,0,25.66,0,12.83,12.83,0,0,0,25.66,0,12.83,12.83,0,0,0,12.83,12.83,13,13,0,0,0,6.42-1.73V104.93H-18.8v23.93a12.84,12.84,0,0,0,6.47,1.73A12.86,12.86,0,0,0,.5,117.76Z"/></g></g></g></svg>