<svg xmlns="http://www.w3.org/2000/svg" xmlns:xlink="http://www.w3.org/1999/xlink" viewBox="0 0 400 400"><defs><style>.cls-1{fill:none;}.cls-2{isolation:isolate;}.cls-3{clip-path:url(#clip-path);}.cls-4{fill:#c2d500;}.cls-5{fill:#d6d6d6;}.cls-6{fill:#fff;}.cls-7{fill:#a5a5a5;stroke:#d6d6d6;stroke-miterlimit:10;stroke-width:4px;}.cls-12,.cls-8{fill:#d50057;}.cls-9{fill:#fff7f2;}.cls-10{fill:#ffefe4;}.cls-11,.cls-16{fill:#0093d2;}.cls-12,.cls-14,.cls-16{opacity:0.5;mix-blend-mode:multiply;}.cls-13,.cls-14{fill:#ffc629;}.cls-15{fill:#e44343;}.cls-17{fill:#ffcc80;}.cls-18{fill:#f0ba7d;}</style><clipPath id="clip-path"><circle class="cls-1" cx="200" cy="200" r="200"/></clipPath></defs><title>Product3</title><g class="cls-2"><g id="Layer_1" data-name="Layer 1"><g class="cls-3"><circle class="cls-4" cx="234.97" cy="188.23" r="276.69"/></g><path class="cls-5" d="M265.52,336.77h-131a22.7,22.7,0,0,1-22.7-22.7V79.88a22.7,22.7,0,0,1,22.7-22.7h131a22.7,22.7,0,0,1,22.7,22.7V314.07A22.7,22.7,0,0,1,265.52,336.77Z"/><path class="cls-6" d="M134.48,325.85a11.8,11.8,0,0,1-11.78-11.78v-220A11.79,11.79,0,0,1,134.48,82.3h131A11.79,11.79,0,0,1,277.3,94.08v220a11.8,11.8,0,0,1-11.78,11.78Z"/><path class="cls-7" d="M222.54,74.56H161.08a4.92,4.92,0,1,1,0-9.83h61.46a4.92,4.92,0,0,1,0,9.83Z"/><path class="cls-7" d="M243.84,69.64a4.92,4.92,0,1,1-4.92-4.91A4.92,4.92,0,0,1,243.84,69.64Z"/><path class="cls-8" d="M130.56,82.3h24.9l-6.57,32h-33l8.45-27.43A6.48,6.48,0,0,1,130.56,82.3Z"/><path class="cls-9" d="M155.46,82.3h29.7l-3.29,32h-33Z"/><path class="cls-8" d="M185.16,82.3h29.69l3.29,32H181.87Z"/><path class="cls-9" d="M214.85,82.3h29.7l6.57,32h-33Z"/><path class="cls-8" d="M244.55,82.3h24.89a6.5,6.5,0,0,1,6.21,4.58l8.44,27.43h-33Z"/><path class="cls-8" d="M132.41,135.24h0a16.48,16.48,0,0,1-16.48-16.49v-4.44h33v4.44A16.48,16.48,0,0,1,132.41,135.24Z"/><path class="cls-10" d="M165.4,135.24h0a16.49,16.49,0,0,1-16.49-16.49v-4.44h33v4.44A16.48,16.48,0,0,1,165.4,135.24Z"/><path class="cls-10" d="M234.64,135.24h0a16.48,16.48,0,0,1-16.48-16.49v-4.44h33v4.44A16.48,16.48,0,0,1,234.64,135.24Z"/><path class="cls-8" d="M267.61,135.24a16.49,16.49,0,0,1-16.49-16.49v-4.44h33v4.44A16.49,16.49,0,0,1,267.61,135.24Z"/><path class="cls-8" d="M201.65,135.24h-3.28a16.49,16.49,0,0,1-16.49-16.49v-4.44h36.26v4.44A16.49,16.49,0,0,1,201.65,135.24Z"/><path class="cls-11" d="M61.13,216.61,81.92,233a2.42,2.42,0,0,0,3.92-1.9v-9.81h9.74a6.53,6.53,0,1,0,0-13.06H85.84v-9.81a2.42,2.42,0,0,0-3.92-1.9L61.13,212.81A2.41,2.41,0,0,0,61.13,216.61Z"/><path class="cls-11" d="M338.87,216.61,318.08,233a2.42,2.42,0,0,1-3.92-1.9v-9.81h-9.74a6.53,6.53,0,0,1,0-13.06h9.74v-9.81a2.42,2.42,0,0,1,3.92-1.9l20.79,16.33A2.42,2.42,0,0,1,338.87,216.61Z"/><path class="cls-12" d="M132.41,135.24h0a16.48,16.48,0,0,1-16.48-16.49v-4.44h33v4.44A16.48,16.48,0,0,1,132.41,135.24Z"/><path class="cls-12" d="M267.61,135.24a16.49,16.49,0,0,1-16.49-16.49v-4.44h33v4.44A16.49,16.49,0,0,1,267.61,135.24Z"/><path class="cls-12" d="M201.65,135.24h-3.28a16.49,16.49,0,0,1-16.49-16.49v-4.44h36.26v4.44A16.49,16.49,0,0,1,201.65,135.24Z"/><path class="cls-13" d="M163.77,286.12H139.58a2.46,2.46,0,0,1-2.46-2.46v-7.38a2.46,2.46,0,0,1,2.46-2.46h24.19a2.46,2.46,0,0,1,2.46,2.46v7.38A2.46,2.46,0,0,1,163.77,286.12Z"/><path class="cls-14" d="M163.77,273.82h-4.56a2.46,2.46,0,0,1,2.46,2.46v7.38a2.46,2.46,0,0,1-2.46,2.46h4.56a2.46,2.46,0,0,0,2.46-2.46v-7.38a2.46,2.46,0,0,0-2.46-2.46Z"/><path class="cls-13" d="M171.46,273.82H147.27a2.46,2.46,0,0,1-2.46-2.46V264a2.46,2.46,0,0,1,2.46-2.46h24.19a2.46,2.46,0,0,1,2.46,2.46v7.38A2.46,2.46,0,0,1,171.46,273.82Z"/><path class="cls-14" d="M171.46,261.52H166.9a2.46,2.46,0,0,1,2.46,2.46v7.38a2.46,2.46,0,0,1-2.46,2.46h4.56a2.46,2.46,0,0,0,2.46-2.46V264a2.46,2.46,0,0,0-2.46-2.46Z"/><circle class="cls-13" cx="156.1" cy="248.38" r="13.12"/><path class="cls-14" d="M156.1,235.26a13.15,13.15,0,0,0-2.28.2,13.13,13.13,0,0,1,0,25.85,13.12,13.12,0,1,0,2.28-26.05Z"/><path class="cls-13" d="M192.4,173.64h52v9.89h-52Z"/><path class="cls-13" d="M250.36,286.12H186.45a12.53,12.53,0,0,1-12.53-12.52V202a18.49,18.49,0,0,1,18.48-18.48h52A18.48,18.48,0,0,1,262.88,202V273.6A12.52,12.52,0,0,1,250.36,286.12Z"/><path class="cls-14" d="M244.41,183.53h-4.57A18.48,18.48,0,0,1,258.32,202V273.6a12.53,12.53,0,0,1-12.53,12.52h4.57a12.52,12.52,0,0,0,12.52-12.52V202A18.48,18.48,0,0,0,244.41,183.53Z"/><path class="cls-11" d="M173.92,212.14h89v46.23h-89Z"/><path class="cls-15" d="M258.32,212.14h4.56v46.23h-4.56Z"/><path class="cls-11" d="M191.26,160.35h54.29a5.23,5.23,0,0,1,5.13,5.32v6.71a1.26,1.26,0,0,1-1.27,1.26h-62a1.26,1.26,0,0,1-1.27-1.26v-6.71a5.23,5.23,0,0,1,5.13-5.32Z"/><path class="cls-16" d="M245.55,160.35H241a5.22,5.22,0,0,1,5.13,5.32v8h3.3a1.26,1.26,0,0,0,1.27-1.26v-6.71a5.23,5.23,0,0,0-5.13-5.32Z"/><path class="cls-14" d="M239.84,173.64h4.57v9.89h-4.57Z"/><path class="cls-17" d="M315.6,246.73a8.44,8.44,0,0,0-8.44,8.44v-5.63a8.45,8.45,0,0,0-16.89,0v-5.62a8.44,8.44,0,0,0-16.88,0V215.78a8.44,8.44,0,1,0-16.88,0v70.34L237,276.35a14.15,14.15,0,0,0-6.29-1.48,7.94,7.94,0,0,0-7.94,7.93v0a8,8,0,0,0,2.33,5.62l36.39,36.39a40.7,40.7,0,0,0,28.81,11.92h0A33.77,33.77,0,0,0,324,303V255.17A8.44,8.44,0,0,0,315.6,246.73Z"/><path class="cls-18" d="M276.21,237.67v31.57a2.81,2.81,0,0,1-2.82,2.81V243.92A8.27,8.27,0,0,1,276.21,237.67Z"/><path class="cls-18" d="M293.09,243.3v25.94a2.81,2.81,0,0,1-2.82,2.81V249.54A8.24,8.24,0,0,1,293.09,243.3Z"/><path class="cls-18" d="M310,248.93v20.31a2.81,2.81,0,0,1-2.81,2.81V255.17A8.19,8.19,0,0,1,310,248.93Z"/><path class="cls-14" d="M192.4,173.64h52v9.89h-52Z"/><path class="cls-14" d="M171.46,273.82H147.27a2.46,2.46,0,0,1-2.46-2.46V264a2.46,2.46,0,0,1,2.46-2.46h24.19a2.46,2.46,0,0,1,2.46,2.46v7.38A2.46,2.46,0,0,1,171.46,273.82Z"/></g></g></svg>