<svg xmlns="http://www.w3.org/2000/svg" viewBox="0 0 225.79 42.58"><g id="Layer_2" data-name="Layer 2"><g id="Layer_1-2" data-name="Layer 1"><path d="M60.16,6.76c-23.71-7.28-45,6.72-56.29,28.52L3.36,28.6c-.18-2.15-3.52-1.84-3.35.33C.8,30.37-.7,44.06,3.2,42.45c0,0,10.05-3.91,10.05-3.93,2-.78.84-3.94-1.17-3.15l-5.63,2.2C17.13,16.46,36.34,3.59,58.8,9.84,60.83,10.46,62.23,7.39,60.16,6.76Z"/><path d="M90.24.21a1.37,1.37,0,0,0-.72.2,1.16,1.16,0,0,0-.46.63L85.47,11.29,82,1.12a1.3,1.3,0,0,0-.49-.67,1.26,1.26,0,0,0-.74-.24A1.2,1.2,0,0,0,80,.45a1.33,1.33,0,0,0-.48.65L75.9,11.17,72.37,1A1.18,1.18,0,0,0,71.9.41a1.5,1.5,0,0,0-.75-.2,1.35,1.35,0,0,0-.9.31,1,1,0,0,0-.38.83,1.73,1.73,0,0,0,.1.54l4.45,12.33a1.23,1.23,0,0,0,.53.64,1.66,1.66,0,0,0,.84.23,1.6,1.6,0,0,0,.84-.23,1.27,1.27,0,0,0,.55-.64l3.5-9.76,3.44,9.76a1.21,1.21,0,0,0,.54.64,1.69,1.69,0,0,0,.85.23,1.66,1.66,0,0,0,.84-.23,1.27,1.27,0,0,0,.55-.64L91.36,1.89a2.63,2.63,0,0,0,.1-.54A1,1,0,0,0,91.1.52,1.28,1.28,0,0,0,90.24.21Z"/><path d="M96.49,4.56a9.2,9.2,0,0,0-2,.23,7,7,0,0,0-1.73.62,1.66,1.66,0,0,0-.59.49,1.09,1.09,0,0,0-.17.61,1,1,0,0,0,.24.7.78.78,0,0,0,.61.27,2,2,0,0,0,.78-.27c.57-.22,1.06-.39,1.48-.51a4.72,4.72,0,0,1,1.22-.17A1.85,1.85,0,0,1,97.76,7a2.16,2.16,0,0,1,.43,1.49V9h-.51a17.19,17.19,0,0,0-3.55.29,3.47,3.47,0,0,0-1.85.94,2.55,2.55,0,0,0-.57,1.76,2.92,2.92,0,0,0,.47,1.61,3.23,3.23,0,0,0,1.31,1.14,4,4,0,0,0,1.84.42,3.3,3.3,0,0,0,1.76-.46,2.65,2.65,0,0,0,1.1-1.26v.45a1.17,1.17,0,0,0,1.23,1.21,1.28,1.28,0,0,0,.91-.32,1.19,1.19,0,0,0,.33-.89V8.79a4.35,4.35,0,0,0-1-3.18A4.21,4.21,0,0,0,96.49,4.56Zm1.7,6.2a2.48,2.48,0,0,1-.65,1.79,2.22,2.22,0,0,1-1.69.69,1.66,1.66,0,0,1-1.15-.42,1.43,1.43,0,0,1-.47-1.09,1.12,1.12,0,0,1,.34-.85,2.1,2.1,0,0,1,1.1-.44,14.67,14.67,0,0,1,2.15-.12h.37Z"/><path d="M108.35,13.14l-.56,0a1.42,1.42,0,0,1-1.41-1.64V6.76h1.76a1.35,1.35,0,0,0,.86-.25.9.9,0,0,0,.3-.73.87.87,0,0,0-.3-.72,1.3,1.3,0,0,0-.86-.25h-1.76V2.9A1.18,1.18,0,0,0,106,2a1.32,1.32,0,0,0-.93-.33,1.35,1.35,0,0,0-1,.33,1.18,1.18,0,0,0-.35.89V4.81h-1a1.3,1.3,0,0,0-.86.25.87.87,0,0,0-.3.72.9.9,0,0,0,.3.73,1.35,1.35,0,0,0,.86.25h1v4.51A3.34,3.34,0,0,0,107.27,15l.56,0a2,2,0,0,0,1.15-.22.85.85,0,0,0,.41-.76C109.39,13.49,109,13.18,108.35,13.14Z"/><path d="M118.13,12.12a1.13,1.13,0,0,0-.46.1,3.09,3.09,0,0,0-.53.28,7.7,7.7,0,0,1-.91.42,2.4,2.4,0,0,1-.92.16,2.44,2.44,0,0,1-2-.84,3.69,3.69,0,0,1-.69-2.4,3.7,3.7,0,0,1,.69-2.41,2.44,2.44,0,0,1,2-.84,2.52,2.52,0,0,1,1,.16,5.35,5.35,0,0,1,.88.42,3.78,3.78,0,0,0,.49.25,1.25,1.25,0,0,0,.48.1.69.69,0,0,0,.57-.28,1.17,1.17,0,0,0,.22-.73,1.27,1.27,0,0,0-.67-1.1,5.26,5.26,0,0,0-1.44-.62,6,6,0,0,0-1.62-.23,5.48,5.48,0,0,0-2.72.66,4.67,4.67,0,0,0-1.83,1.88A5.74,5.74,0,0,0,110,9.88a5.76,5.76,0,0,0,.62,2.76,4.34,4.34,0,0,0,1.77,1.83,5.45,5.45,0,0,0,2.66.64,6.3,6.3,0,0,0,1.74-.24,5.5,5.5,0,0,0,1.49-.65,1.38,1.38,0,0,0,.51-.47,1.11,1.11,0,0,0,.16-.61,1.18,1.18,0,0,0-.23-.73A.7.7,0,0,0,118.13,12.12Z"/><path d="M126.36,4.56a4.41,4.41,0,0,0-2,.42A3.51,3.51,0,0,0,123,6.22V1.39a1.09,1.09,0,0,0-.35-.85,1.36,1.36,0,0,0-.93-.31,1.37,1.37,0,0,0-.95.33,1.12,1.12,0,0,0-.36.87V13.82a1.27,1.27,0,0,0,.34.92,1.32,1.32,0,0,0,1,.33,1.34,1.34,0,0,0,1-.33,1.24,1.24,0,0,0,.35-.92V9.2a2.6,2.6,0,0,1,.68-1.88,2.34,2.34,0,0,1,1.79-.71,1.78,1.78,0,0,1,1.4.51,2.43,2.43,0,0,1,.44,1.6v5.1a1.21,1.21,0,0,0,.36.92,1.32,1.32,0,0,0,.95.33,1.3,1.3,0,0,0,.94-.33,1.23,1.23,0,0,0,.34-.92V8.72C129.92,6,128.74,4.56,126.36,4.56Z"/><path d="M143,13.14l-.56,0a1.42,1.42,0,0,1-1.41-1.64V6.76h1.76a1.34,1.34,0,0,0,.86-.25.9.9,0,0,0,.3-.73.87.87,0,0,0-.3-.72,1.28,1.28,0,0,0-.86-.25h-1.76V2.9A1.18,1.18,0,0,0,140.7,2a1.32,1.32,0,0,0-.93-.33,1.37,1.37,0,0,0-1,.33,1.18,1.18,0,0,0-.35.89V4.81h-1a1.3,1.3,0,0,0-.86.25.9.9,0,0,0-.3.72.93.93,0,0,0,.3.73,1.35,1.35,0,0,0,.86.25h1v4.51A3.34,3.34,0,0,0,141.94,15l.56,0a2,2,0,0,0,1.15-.22.85.85,0,0,0,.41-.76C144.06,13.49,143.71,13.18,143,13.14Z"/><path d="M151.12,4.56a4.37,4.37,0,0,0-2,.42,3.38,3.38,0,0,0-1.38,1.24V1.39a1.09,1.09,0,0,0-.35-.85,1.37,1.37,0,0,0-.94-.31,1.35,1.35,0,0,0-.94.33,1.12,1.12,0,0,0-.36.87V13.82a1.23,1.23,0,0,0,.34.92,1.3,1.3,0,0,0,.94.33,1.37,1.37,0,0,0,1-.33,1.24,1.24,0,0,0,.35-.92V9.2a2.59,2.59,0,0,1,.67-1.88,2.37,2.37,0,0,1,1.79-.71,1.75,1.75,0,0,1,1.4.51,2.37,2.37,0,0,1,.45,1.6v5.1a1.24,1.24,0,0,0,.35.92,1.34,1.34,0,0,0,1,.33,1.32,1.32,0,0,0,.95-.33,1.27,1.27,0,0,0,.34-.92V8.72Q154.69,4.56,151.12,4.56Z"/><path d="M166,9.45a5.56,5.56,0,0,0-.56-2.59,4,4,0,0,0-1.57-1.7,4.61,4.61,0,0,0-2.39-.6,4.94,4.94,0,0,0-2.55.66,4.51,4.51,0,0,0-1.75,1.87,5.84,5.84,0,0,0-.63,2.75A5.18,5.18,0,0,0,158,13.7a5.3,5.3,0,0,0,3.88,1.41,6.57,6.57,0,0,0,1.7-.24,7.13,7.13,0,0,0,1.59-.63,1.26,1.26,0,0,0,.77-1.08,1.12,1.12,0,0,0-.22-.73.7.7,0,0,0-.57-.26,2.34,2.34,0,0,0-.91.33,12.14,12.14,0,0,1-1.15.45,3.79,3.79,0,0,1-1.17.17,2.77,2.77,0,0,1-2-.67,3.31,3.31,0,0,1-.81-2.11h6.12C165.74,10.34,166,10.05,166,9.45ZM159.1,9a3.16,3.16,0,0,1,.76-1.9,2.19,2.19,0,0,1,1.69-.67,2,2,0,0,1,1.61.66A2.93,2.93,0,0,1,163.79,9Z"/><path d="M185.28.21a1.13,1.13,0,0,0-1.1.7L179.41,11.5,174.64.91a1.2,1.2,0,0,0-.46-.53,1.34,1.34,0,0,0-.65-.17,1.56,1.56,0,0,0-1,.33,1,1,0,0,0-.42.85,1.38,1.38,0,0,0,.12.5L178,14.24a1.46,1.46,0,0,0,.57.61,1.64,1.64,0,0,0,1.64,0,1.46,1.46,0,0,0,.57-.61L186.5,1.89a1.42,1.42,0,0,0,.12-.52,1,1,0,0,0-.41-.83A1.47,1.47,0,0,0,185.28.21Z"/><path d="M189.19,4.6a1.35,1.35,0,0,0-.92.31,1.14,1.14,0,0,0-.36.91v8a1.2,1.2,0,0,0,.36.93,1.36,1.36,0,0,0,.92.32,1.41,1.41,0,0,0,.94-.32,1.17,1.17,0,0,0,.37-.93v-8a1.11,1.11,0,0,0-.37-.91A1.4,1.4,0,0,0,189.19,4.6Z"/><path d="M189.19,0a1.61,1.61,0,0,0-1.12.37,1.3,1.3,0,0,0-.41,1,1.31,1.31,0,0,0,.41,1,1.57,1.57,0,0,0,1.12.39,1.56,1.56,0,0,0,1.12-.39,1.28,1.28,0,0,0,.42-1,1.25,1.25,0,0,0-.43-1A1.6,1.6,0,0,0,189.19,0Z"/><path d="M201.42.23a1.3,1.3,0,0,0-.92.32,1.08,1.08,0,0,0-.34.84V6.3A3.17,3.17,0,0,0,198.85,5a4,4,0,0,0-1.95-.46A4.15,4.15,0,0,0,193,7a6.09,6.09,0,0,0-.57,2.75,6.35,6.35,0,0,0,.57,2.79,4.46,4.46,0,0,0,1.59,1.88,4.23,4.23,0,0,0,2.33.66,3.93,3.93,0,0,0,2-.48,3.35,3.35,0,0,0,1.32-1.32v.51a1.17,1.17,0,0,0,.35.9,1.29,1.29,0,0,0,.93.33,1.33,1.33,0,0,0,.94-.33,1.21,1.21,0,0,0,.35-.9V1.43a1.11,1.11,0,0,0-.38-.87A1.36,1.36,0,0,0,201.42.23Zm-1.92,12a2.55,2.55,0,0,1-3.82,0A3.86,3.86,0,0,1,195,9.78a3.63,3.63,0,0,1,.68-2.38,2.38,2.38,0,0,1,1.93-.83,2.29,2.29,0,0,1,1.89.84,3.76,3.76,0,0,1,.68,2.41A3.84,3.84,0,0,1,199.5,12.25Z"/><path d="M214.1,9.45a5.56,5.56,0,0,0-.56-2.59A4,4,0,0,0,212,5.16a4.6,4.6,0,0,0-2.38-.6,5,5,0,0,0-2.56.66,4.51,4.51,0,0,0-1.75,1.87,5.84,5.84,0,0,0-.63,2.75,5.18,5.18,0,0,0,1.43,3.86A5.3,5.3,0,0,0,210,15.11a6.57,6.57,0,0,0,1.7-.24,7.13,7.13,0,0,0,1.59-.63,1.26,1.26,0,0,0,.77-1.08,1.12,1.12,0,0,0-.22-.73.7.7,0,0,0-.57-.26,2.34,2.34,0,0,0-.91.33,12.14,12.14,0,0,1-1.15.45,3.79,3.79,0,0,1-1.17.17,2.77,2.77,0,0,1-2-.67,3.31,3.31,0,0,1-.81-2.11h6.12C213.84,10.34,214.1,10.05,214.1,9.45ZM207.2,9a3.16,3.16,0,0,1,.76-1.9,2.19,2.19,0,0,1,1.69-.67,2.05,2.05,0,0,1,1.62.66A3,3,0,0,1,211.89,9Z"/><path d="M225.16,7a4.38,4.38,0,0,0-1.8-1.84,6.12,6.12,0,0,0-5.45,0A4.48,4.48,0,0,0,216.09,7a5.85,5.85,0,0,0-.64,2.78,5.93,5.93,0,0,0,.64,2.8,4.51,4.51,0,0,0,1.82,1.85,6.12,6.12,0,0,0,5.45,0,4.4,4.4,0,0,0,1.8-1.85,5.93,5.93,0,0,0,.63-2.8A5.85,5.85,0,0,0,225.16,7Zm-2.62,5.23a2.64,2.64,0,0,1-3.84,0A3.87,3.87,0,0,1,218,9.82a3.86,3.86,0,0,1,.67-2.43,2.32,2.32,0,0,1,1.92-.84,2.29,2.29,0,0,1,1.91.84,3.86,3.86,0,0,1,.66,2.43A3.87,3.87,0,0,1,222.54,12.27Z"/></g></g></svg>