<svg xmlns="http://www.w3.org/2000/svg" viewBox="0 0 110.43 82.99"><defs><style>.cls-1{fill:none;}</style></defs><g id="Layer_2" data-name="Layer 2"><g id="Layer_1-2" data-name="Layer 1"><path class="cls-1" d="M15.83,62.64v9.23h3.76V62.64a2,2,0,0,1,2-2H23.8l-6.09-6.08-6.08,6.08h2.21A2,2,0,0,1,15.83,62.64Z"/><rect class="cls-1" x="36.92" y="20.95" width="14.12" height="14.12"/><polygon class="cls-1" points="3.67 18.26 34.38 18.26 36.16 2.69 12.7 2.69 3.67 18.26"/><polygon class="cls-1" points="49.18 2.69 38.87 2.69 37.09 18.26 50.89 18.26 49.18 2.69"/><path d="M87.8,19h0L77.63.69A1.32,1.32,0,0,0,76.46,0H70a1.34,1.34,0,0,0,0,2.68h5.64l8.68,15.58H53.59L51.88,2.68h12a1.34,1.34,0,0,0,0-2.68h-52a1.34,1.34,0,0,0-1.17.67L.18,18.93A1.15,1.15,0,0,0,0,19.6H0V32a1.35,1.35,0,1,0,2.69,0V21H34.24V36.41a1.34,1.34,0,0,0,1.34,1.34H52.39a1.34,1.34,0,0,0,1.34-1.34V21H85.29V26.7H88V19.6A1.16,1.16,0,0,0,87.8,19ZM38.87,2.68H49.18l1.71,15.58H37.09ZM34.38,18.26H3.67l9-15.58H36.16ZM51.05,35.07H36.92V21H51.05Z"/><path d="M28.32,27.58A1.35,1.35,0,0,0,27,26.24H9.46a1.35,1.35,0,1,0,0,2.69H27A1.35,1.35,0,0,0,28.32,27.58Z"/><path d="M9.46,34.7H21.12a1.35,1.35,0,1,0,0-2.69H9.46a1.35,1.35,0,1,0,0,2.69Z"/><path d="M15.38,74.55H20a2.24,2.24,0,0,0,2.24-2.23v-9h2.93a2.1,2.1,0,0,0,1.48-3.59l-7.22-7.22a2.48,2.48,0,0,0-3.51,0L8.73,59.75a2.11,2.11,0,0,0,1.49,3.59h2.93v9A2.23,2.23,0,0,0,15.38,74.55Zm-3.75-13.9,6.08-6.08,6.09,6.08H21.58a2,2,0,0,0-2,2v9.23H15.83V62.64a2,2,0,0,0-2-2Z"/><path d="M109,42H96.56a1.38,1.38,0,0,1-1.38-1.38V28.17a1.47,1.47,0,0,0-1.47-1.47H79.3a1.47,1.47,0,0,0-1.47,1.47V42H64a1.47,1.47,0,0,0-1.47,1.47V57.83A1.47,1.47,0,0,0,64,59.3h12.4a1.39,1.39,0,0,1,1.39,1.39v12.4a1.46,1.46,0,0,0,1.47,1.46h6v3.84a1.92,1.92,0,0,1-1.91,1.92H4.6a1.91,1.91,0,0,1-1.91-1.92V38.13a1.35,1.35,0,0,0-2.69,0V78.39A4.6,4.6,0,0,0,4.6,83H83.38A4.6,4.6,0,0,0,88,78.39V74.55h5.74a1.46,1.46,0,0,0,1.47-1.46V59.3H109a1.47,1.47,0,0,0,1.47-1.47V43.42A1.47,1.47,0,0,0,109,42Zm-1.47,14.41H93.71a1.47,1.47,0,0,0-1.47,1.47V71.62H80.77V60.69a4.33,4.33,0,0,0-4.33-4.33H65.51V44.89H79.3a1.47,1.47,0,0,0,1.47-1.47V29.64H92.24V40.57a4.33,4.33,0,0,0,4.32,4.32h10.93Z"/></g></g></svg>