<svg xmlns="http://www.w3.org/2000/svg" xmlns:xlink="http://www.w3.org/1999/xlink" viewBox="0 0 183.13 73.89"><defs><style>.cls-1{fill:#f8f8f8;}.cls-2{fill:url(#linear-gradient);}</style><linearGradient id="linear-gradient" x1="154.28" y1="15.12" x2="183.13" y2="15.12" gradientUnits="userSpaceOnUse"><stop offset="0.75" stop-color="#c1d400"/><stop offset="1" stop-color="#c1d400"/><stop offset="1" stop-color="#c1d400"/></linearGradient></defs><g id="Layer_2" data-name="Layer 2"><g id="Layer_1-2" data-name="Layer 1"><path class="cls-1" d="M39.59,33c7.27-2.19,11.26-7.47,11.26-14.65C50.85,7.38,42.38,0,27.42,0,11,0,1.69,7.88,1.4,21H18.65c0-4.89,3-7.68,7.87-7.68,4.49,0,7.88,3,7.88,7.38,0,5.38-3.59,8.38-10.17,8.38h-1V40.58a17,17,0,0,1,2.2-.1c7.28,0,10.57,2.89,10.57,9.58,0,5.78-3.29,9-9.28,9-5.68,0-8.67-3.29-8.67-9.47v-1.2H0v1c0,15,10.47,24.53,27,24.53,15.76,0,26.62-9.48,26.62-23.34C53.64,41.08,48.56,34.5,39.59,33Z"/><path class="cls-1" d="M103.76,4.39C98.18.8,91.1.7,82.12.7H60.39V72H78.63V48.46h8.18c6.68,0,12.16-.3,17-3.19,6.38-3.79,9.87-10.87,9.87-20.34C113.73,15.75,110,8.38,103.76,4.39ZM82.32,32.8H78.63V16.05h3.89c7.88,0,12.37,1.4,12.37,8.28S90.6,32.8,82.32,32.8Z"/><polygon class="cls-1" points="139.92 0.7 120.47 0.7 120.47 71.99 164.05 71.99 164.05 55.34 139.92 55.34 139.92 0.7"/><path class="cls-2" d="M175.16,10.5a1.83,1.83,0,0,1-1.83-1.84V.7h-9.26v9.8h-9.79v9.25h8a1.83,1.83,0,0,1,1.83,1.84v8h9.26v-9.8h9.8V10.5Z"/></g></g></svg>