<?xml version="1.0" encoding="UTF-8"?>
<svg xmlns="http://www.w3.org/2000/svg" id="Layer_2" viewBox="0 0 181.8 57.9">
  <g id="Layer_1-2">
    <g>
      <path d="M124.7,57.9h-3c-.1-.3-.1-.7,0-1,.2-2.4,1.4-4.7,3.3-6.2,1-.9,2.1-1.3,3.4-1.4,.9-.1,1.7,.2,2.5,.7,.4,.3,.7,.6,1.1,.9,.3,.3,.6,.5,.9,.6,.9,.6,2,.3,2.6-.5,.1-.2,.2-.5,.3-.6,.1-.4,.1-.6,.2-1h2.9c0,.7,0,1.2-.1,1.9-.1,1.1-.4,2.1-.9,3.1l-.3,.4c-1,1.7-2.8,2.7-4.7,2.4-.5-.1-1.1-.2-1.5-.4-.5-.1-1-.4-1.4-.6-1.1-.6-2.6-.6-3.7,0-.2,.1-.4,.2-.6,.4-.7,.1-1,.7-1,1.3Z"></path>
      <path d="M98.2,49c.2,.8,.4,1.4,.5,2.1,.4,1.6,.9,3.3,1.2,5,.1,.3,.1,.4-.3,.5-.5,.1-1,.2-1.4,.3-1.1,.1-2.1,.1-3.2,.1s-2.3,0-3.4-.1h-.5c-.1-2.1-.2-4.2-.4-6.4l7.5-1.5Z"></path>
      <path d="M0,49.6c2.6-9.9,4.7-20,6.2-30.2l10.7-1.6c0,.3,.1,.5,.1,.9,.3,4,1,7.9,2,11.8,.5,1.9,1.1,3.8,1.7,5.7,1,2.8,2.1,5.4,3.5,8l.4,.7c-.3,.1-6.8,.2-7.6,.1l-2.7-7.5-4.5,.4-1.8,10.6-8,1.1Zm13.1-16.1c-.1-.8-2-7.6-2.1-7.9l-1,7.9h3.1Z"></path>
      <path d="M89.5,22.9c-4.2,.4-8.3,1-12.5,1.2l-1.9-5.5,32.4-3.7-.5,.8c-1.4,2-2.8,4-4.3,5.9-.2,.2-.4,.4-.7,.4-1.9,.1-3.8,.3-5.7,.4h-.3c-.2,.6-.1,2.6,.3,8.5,.2,2.8,.4,5.7,.6,8.5,.3,2.8,.5,5.6,1.1,8.5l-7.5,1.3c-.4-8.8-.7-17.5-1-26.3Z"></path>
      <path d="M37.8,20.7l-3.2,4.2c-.2-.1-.3-.2-.5-.2-.6-.3-1.2-.5-1.9-.7-1.8-.6-3.7,.5-4.3,2.3h0c-.1,.2-.1,.5-.2,.6-.2,1.1-.2,2,0,3.1,.2,1.7,.7,3.4,1.3,5.1,.2,.6,.4,1.1,.8,1.6,.5,.8,1.3,1.1,2.2,1.1,1,0,1.9-.3,2.8-.8,.3-.1,.5-.3,.7-.5l3.5,3.7c-.8,1-1.6,1.8-2.6,2.5l.5,1.9,.4-.4c.6-.9,1.5-1.3,2.6-1.2,.8,0,1.4,.1,2.1,.4,.6,.3,1.1,.8,1.2,1.3,.7,1.4,1.3,2.9,2,4.3,.4,.9,.5,1.8,.3,2.8-.8,2.5-2.9,4.2-5.4,4.5-.7,.1-1.3,.1-2-.1-1.1-.3-1.9-1-2.3-1.9-.2-.5-.3-.8-.4-1.1-.1-.2,0-.3,.1-.4l3.1-2.6h.1c.2,.3,.3,.7,.4,1.1,.1,.3,.4,.6,.7,.5,.4,.1,.8-.2,.9-.7v-.1c0-.1,0-.2-.1-.4-.3-.8-.5-1.4-.8-2.1-.1-.3-.2-.6-.4-.9-.1-.2-.2-.3-.4-.4-.3-.3-.9-.3-1.1,.1h0c-.1,.2-.2,.3-.2,.4v.3l-3.5,1.1-1.4-4.9h-.7c-1.2,0-2.5-.3-3.5-.9-2.8-1.3-4.9-3.6-5.8-6.6-.7-2-1.1-4-1.4-6-.2-1.1-.3-2.4-.2-3.5,.1-2.7,1.1-5.2,2.9-7.2,1.5-1.8,3.8-2.8,6.2-2.7,1.5,.1,3,.5,4.3,1.1,1,.5,1.9,1.1,2.8,1.8,.3,.4,.3,.5,.4,.5Z"></path>
      <path d="M101,25.8c.5-.1,5.9,.3,7.2,.5v.5c-.5,3.2-1.1,6.5-1.5,9.7-.2,1.2-.3,2.6-.4,4,0,.3,0,.7,.1,1,.2,1,1,1.7,1.9,1.8,.7,.1,1.3,.1,2-.1,1.2-.3,2.2-1.4,2.3-2.8,0-.7,0-1.3-.2-2-.7-4.1-1.4-8.2-2.1-12.3,0-.2-.1-.4-.1-.5l7,.4c0,.1,0,.2,.1,.3l1.4,10.6c.2,1.4,.4,3,.7,4.4,.4,2.1-.6,4.2-2.5,5.3-.5,.3-1,.5-1.4,.7-1,.4-2,.7-3.1,.9-1.6,.4-3.3,.5-5,.7-1.6,.1-3.2-.2-4.7-.9-.8-.5-1.3-1.1-1.9-1.7-.6-1-1-2-1.1-3.1-.2-1.3-.2-2.8,0-4.1,.3-1.9,.4-3.8,.7-5.8,.3-1.9,.4-4,.7-5.9-.1-.7-.1-1.2-.1-1.6Z"></path>
      <path d="M140.3,48.5l-7.6-.4-1.1-3.8-4.5,.4c-.3,1.2-.5,2.6-.7,3.8h-.5c-1.4-.3-2.9-.6-4.3-.9-.7-.2-1.3-.3-2-.4l-.4-.1c2-6.8,3.4-13.9,4.3-20.9l8.7-2.4c2.1,8.5,4.8,16.8,8.1,24.7Zm-13-8.3h3.2l-2-7.9h-.1c-.5,2.6-.9,5.2-1.1,7.9Z"></path>
      <path d="M73.4,41.4l-6.2,1.3c-.5-7.6-1-15.2-1.3-22.8l7-1.1c0,.1,.1,.1,.1,.2,1,3.3,2.1,6.7,3.4,9.8,.4,.8,.8,1.5,1.1,2.4,.1,.1,.2,.3,.3,.4h.1l-.4-5.4c2.3-.4,4.7-.6,7-1v.4c-.1,1.3-.2,2.7-.2,4-.2,2.6-.1,5.2,.3,7.6,.1,.8,.3,1.5,.4,2.4v.4l-1.9,.7c-1.3,.4-2.8,.6-4.1,1-.3,.1-.6,0-.7-.3-1-1.2-1.9-2.5-2.9-3.6l-2.4-3c0,1.1,.1,2.3,.3,3.4-.2,.9,0,2.1,.1,3.2Z"></path>
      <path d="M175.4,41.5c.4,1.9,.7,3.7,1.1,5.6-3,.3-5.9,.5-8.8,.9-2.9,.4-5.8,1-8.7,1.4q0-.1-.1-.2c-.2-2-.4-4-.5-6-.2-2.8-.4-5.5-.5-8.3-.2-2.3-.3-4.7-.4-7v-.2l16.1-1.6,1.1,5.7c-1.7,.1-3.3,.2-5,.4s-3.2,.4-4.9,.5c-.2,1.1-.2,2-.2,3.1l5.8-.9c.3,1.3,.5,2.8,.8,4.2l-6.3,1,.1,2.9,5.1-.6,5.3-.9Z"></path>
      <path d="M62.9,31.8l-6.2,1,.1,2.9,7.7-1.1,1.1,5.6c-2.5,.2-5,.5-7.5,.9l-7.5,1.2c-.8-7.3-1.1-14.5-1.6-21.8l13.8-1.5c.4,1.9,.8,3.7,1.1,5.6l-7.5,.7c-.2,1.1-.3,2-.2,3.1l5.8-.9,.9,4.3Z"></path>
      <path d="M113.2,12.3l-7.3,.8,1.9-13.1,1.7,.3,8.4,1.2c.7,.1,1.4,.3,2.1,.4,.2,0,.4,.2,.4,.4l1.5,7.5c.2,.7,.3,1.3,.4,2,.1,.2,0,.5-.2,.6l-5.1,4.3c-2,1.8-4.1,3.5-6.2,5.4-.2,.2-.5,.3-.7,.2l-4.3-.5c-.2,0-.4,0-.5-.1,2.8-3.1,5.4-6.3,7.9-9.4Zm0-6.2c0-1-.7-1.7-1.6-1.8h-.2c-1,0-1.7,.8-1.8,1.7v.1c0,1,.8,1.7,1.7,1.8h.1c1-.1,1.8-.9,1.8-1.8Z"></path>
      <path d="M143.9,31.9l-7.4,.9-1.4-5.8,20.3-1.7c.1,1.9,.1,3.7,.1,5.7l-5.1,.4v.5c0,1.6,.1,3.2,.4,4.8,.2,1.5,.4,3.2,.6,4.7,.3,2,.6,3.9,1,5.9v.3l-7.4,1.3-1.1-17Z"></path>
      <path d="M48.4,23.7l-2.7,3.3-.4-.2c-.6-.3-1.1-.5-1.8-.6-1.3-.3-2.8,.6-3.2,1.9-.2,.5-.3,1.1-.3,1.6,0,.9,.1,1.8,.5,2.7,.3,.7,.7,1.2,1.1,1.8,.8,.7,1.8,1,2.8,.6,.4-.2,.9-.4,1.3-.6,.1-.1,.3-.2,.4-.3l2.9,3c-2,2.7-5.1,4-8.3,2.5-2.3-1.1-4.1-3.1-5.1-5.4-1.1-2.6-1.1-5.4-.1-8.1,.4-1.1,1.1-2.2,2-3.1,1.5-1.5,3.7-2.2,5.8-1.7,2,.4,3.7,1.3,5.1,2.6Z"></path>
      <path d="M18.5,15l-1.7,.4c-.8,.2-1.5,.4-2.2,.5-.3,.1-.5,0-.7-.2-1.1-1-2.2-1.9-3.2-2.9l-.3-.2c-.1,.1-.2,.2-.3,.4-.6,1.1-1.1,2-1.9,3.1-.1,.2-.3,.4-.5,.4-1.1,.3-2.4,.5-3.5,.7-.2,0-.3,0-.5,.1,.3-.7,.6-1.3,.9-1.9,.7-1.7,1.4-3.4,2.2-5.1,.1-.3,.3-.5,.6-.5,1.4-.5,2.9-1.1,4.3-1.5l.4-.2,6.4,6.9Z"></path>
      <path d="M9.8,4.5c-.1-.7,.3-1.2,1-1.4,.3-.1,.6-.1,.8,.1,1,.4,1.4,1.4,1.1,2.4-.2,.7-.9,1.1-1.5,1h0c-.2,0-.3-.1-.4-.2-.7-.4-1.1-1.1-1-1.9Z"></path>
      <path d="M4.7,5.7c.1-.2,.1-.4,.2-.5,.2-.5,.7-.7,1.1-.6h.2c.9,.3,1.3,1.2,1.1,2.1-.2,.6-.8,1-1.3,.8h0c-.1,0-.3-.1-.4-.2-.6-.4-.9-.9-.9-1.6Z"></path>
      <path d="M181.8,22c0,1.3-1.1,2.4-2.4,2.4h0c-1.3,0-2.4-1.1-2.4-2.4v-.1c0-1.3,1.1-2.4,2.4-2.4h0c1.3,.1,2.4,1.2,2.4,2.5Zm-2.5-2.1c-1.1,.1-1.9,1.1-1.9,2.1h0c.1,1.1,1.1,1.9,2.2,1.8,1.1-.1,1.9-1.1,1.8-2.1-.1-1.1-.9-1.8-1.9-1.9l-.2,.1h0Z"></path>
      <path d="M179.8,22.2l.8,1.1c-.4,.1-.5,.1-.6-.2l-.3-.5c-.1-.3-.4-.5-.7-.4h-.2v1.1h-.4v-2.6h1.4c.3,0,.5,.2,.5,.5,.1,.3-.1,.5-.3,.7l-.2,.3Zm-1.1-.4h.8c.2,0,.3-.2,.3-.4s-.1-.3-.3-.3h-.8v.7Z"></path>
    </g>
  </g>
</svg>
