<?xml version="1.0" encoding="UTF-8"?>
<svg xmlns="http://www.w3.org/2000/svg" id="Layer_2" viewBox="0 0 151.3 64.4">
  <g id="Layer_1-2">
    <g>
      <g id="ysPerb">
        <path d="M123.2,64.2c-.5-.1-1-.3-1.3-.6-.4-.5-1-1.1-.9-1.6,.2-.6,.7-1.1,1.2-1.4,.9-.3,1.7-.3,2.6,0,1.6,.6,3.5,0,4.5-1.4,1.1-1.4,2.2-3.1,3.2-4.7,1-1.9,1.8-3.7,2.7-5.7,.5-1.1,.5-2.2,0-3.2-2.6-6.7-5-13.2-7.5-19.9-.2-.4-.4-.9-.6-1.2-.6-1.2-1.8-2-3.2-2q-2.2,0-2.8,2.1c-1.4,5-3,9.8-4.3,14.8-.3,1-.5,1.9-.5,3-.1,2.1,1,3.2,3.2,3.1,.9-.1,1.6-.3,2.5-.5,.3-.1,.6-.1,.9-.2,0,.1,.1,.2,.1,.3-.1,.2-.3,.3-.5,.4-1.4,.7-3,1.3-4.4,1.9-1.1,.3-2.1,.4-3.2,.3-1.4,0-2.7-1.2-2.7-2.8v-.3c0-1.1,.2-2,.5-3.1,1.7-5.8,3.5-11.8,5.3-17.6,.1-.5,.3-.9,.4-1.3h-3c0-.9,.3-1.3,1.1-1.3,2.2-.1,2.4-.1,2.8-2.2,.6-2,1-4,1.1-6.1,.2-2.6-1.4-3.9-3.9-3.9-1.3,0-2.7,.3-3.9,.8-4.4,1.8-7.8,6.8-7.7,11.4,0,1.5,.5,3.1,1.4,4.2,.7,.9,1.5,1.2,2.1,.9,.6-.4,.4-1.4-.4-2.3-.4-.4-.7-.9-.9-1.3,1.4,.5,2.5,1.5,3.1,3,.3,.8,.1,1.5-.5,2.1s-1.4,.7-2.1,.3c-.9-.5-1.5-1.1-2.1-1.8-.6-1-1-1.9-1.3-3-.2-.9-.6-1.2-1.3-1.2-1.3,0-2.8,.1-4,.5-2.1,.8-3.2,3-2.4,5.1,.3,.8,.8,1.4,1.4,1.9,1,.7,1.9,1.1,2.9,1.6,2.4,1,4.7,2.2,6.8,3.8,2,1.6,3,4.2,2.7,6.7-.2,2.8-2.3,5.2-5,5.7-2.9,1-6,.8-8.8-.7-1.4-.7-2.5-1.8-3.2-3.2-.4-.8,0-1.7,.8-2.2h.1c.9-.4,1.5,0,2.1,1,.7,1.1,1.5,2.3,2.4,3.3,1.9,1.9,5,1.9,6.9,0s1.9-5,0-6.9c-.1-.1-.2-.1-.2-.2-1.5-1.4-3.3-2.5-5.3-3.2-1.1-.5-2.2-1-3.3-1.4-4.3-2-4.3-7.6-1.7-10.4,2.1-2.2,4.7-2.8,7.6-2.4,.3,.1,.6,.1,.9,.2,.2-1,.2-2,.4-2.8,1.4-6.6,7.1-11.4,13.8-11.8,3.9-.2,6.2,2,6.3,5.9,0,2.7-.5,5.3-1.3,7.7-.1,.4-.2,.8-.3,1.2h12c0,.1,.1,.2,.1,.3-.3,.1-.5,.3-.8,.3-1.9,.7-2.3,1.4-1.7,3.2,.9,2.7,2,5.4,3,8.1,1.1,2.8,2.1,5.6,3.2,8.5,.1,.2,.2,.5,.3,.8,.3-.9,.7-1.4,.9-2.1,1.7-4.7,3.5-9.5,5.2-14l.3-.9c.5-2,0-2.8-2-3.4-.5-.1-.9-.2-1.3-.4,0-.1,.1-.2,.1-.3h9.4c0,.1,.1,.2,.1,.3-.2,.2-.3,.4-.6,.4-1.6,.4-3,1.5-3.6,3.1-1.2,2.8-2.5,5.4-3.6,8.2-3.8,7.2-6.8,14.7-10,22.2-.4,.9-.9,1.7-1.3,2.6-1.5,2.7-3.5,5-6.6,5.9-.7-.1-1.5-.3-2.4-.2Z"></path>
        <path d="M42.9,0l.3,1.4V25.3c.2,.1,.3,.3,.5,.3,.1-.4,.3-.7,.6-1,1.8-1.9,4.1-3.2,6.6-3.7,4.9-1,8.6,1.5,9.4,6.4,.2,1.2,.3,2.6,.3,3.9,.1,3.9,0,7.9,.2,12,.1,2.8,2.8,4.1,5.3,2.7,.8-.5,1.2-1.2,1.2-2.2,.1-.8,.2-1.5,.2-2.4,0-4.9,0-9.7-.1-14.5-.1-2.4-.6-2.8-3-3.4l-.9-.3c.2-.1,.5-.3,.7-.4,2-.6,3.9-1.1,5.7-1.6,1-.3,1.1-.2,1.1,.9,0,1.2,0,2.5,.2,3.8,.2-.2,.3-.5,.4-.8,.7-1.2,1.4-2.3,2.3-3.3,1.1-1.1,2.7-1.6,4.1-1.1,1.1,.2,1.8,1.1,2,2.1,.1,1.1-.5,2.1-1.4,2.7-.5,.4-1.1,.3-1.5-.2,0,0,0-.1-.1-.1-1.4-1.5-2.8-1.4-4.1,.3-1.3,1.5-2,3.5-1.9,5.6,.2,3.5,.1,7,.1,10.5,0,.7,0,1.3,.1,2,.3,2.2,.9,2.8,3.2,3.2,.6,.1,1.2,.2,1.9,.3,0,.1,0,.2-.1,.3h-23.4c.2-.2,.4-.4,.7-.5l1.2-.3c1.2-.3,2.1-1.3,2.2-2.6,.1-.4,.1-.7,.1-1.1,0-4.5,.1-9.1-.2-13.7-.2-3.8-2.7-5.9-6.4-5.9-1.5,.1-3.1,.7-4.3,1.6-1.9,1.2-3,2.7-2.8,5.2,.3,4.4,.1,9,.3,13.4,.1,2.1,.8,2.7,2.8,3.2,.4,.1,.7,.2,1.1,.3,0,.1-.1,.2-.1,.3h-11.9c.2-.2,.4-.4,.7-.5,.4-.1,.7-.2,1.1-.2,1.5-.1,2.7-1.3,2.7-2.8,.1-.8,.2-1.5,.2-2.3V7.5c0-.8-.1-1.6-.2-2.4,0-1.3-1-2.4-2.3-2.6-.7-.1-1.2-.3-1.8-.6,2.4-.7,4.7-1.2,7.1-1.9-.6,.1-.4,0-.1,0Z"></path>
        <path d="M.1,26.3l.5-2.7c1.9-8,7.1-12.9,14.8-15.3,5.6-1.6,11.2-1.2,16.7,.2,.8,.2,1.4,.9,1.5,1.6,.3,2.4,.7,4.7,1,7-.7,.3-.9,.2-1.1-.4-.3-.8-.6-1.5-.9-2.3-1.8-3.8-5-5.6-9-5.9-2.2-.3-4.5-.1-6.7,.5-5.6,1.6-9.1,5.6-10.8,11.2-2.1,7.3-1.4,14.1,3,20.4,3.8,5.4,10.7,7.7,17.1,5.7,2.9-1.1,5.3-3.1,6.7-5.6l1.4-2.5c.2-.2,.5-.3,.8-.4,.1,.3,.3,.6,.2,.8-.9,2.3-1.5,4.5-2.5,6.7-.3,.7-.9,1.1-1.5,1.4-6.3,1.5-12.7,2.3-19-.2C5.1,43.7,1.2,38.4,.2,30.9c0-.3-.2-.6-.2-.9,.1-1.2,.1-2.5,.1-3.7Z"></path>
        <path d="M91.8,46.9h-12.1c0-.1-.1-.1-.1-.2,.2-.1,.4-.3,.6-.3,2.8-.4,3.7-1.1,3.7-4.5v-14.5c0-.6-.1-1.1-.2-1.6,0-1-.7-1.8-1.5-2.1-.2-.1-.4-.3-.4-.6,0-.2,.3-.4,.5-.5,1.4-.5,2.8-.9,4.3-1.4,.8-.3,1.1,0,1.1,.8v19.3c0,.8,0,1.4,.1,2.2,.2,1.9,1,2.7,2.8,3.1,.5,.1,1,.2,1.4,.3h-.2Z"></path>
        <path d="M87.8,11.5c0,1.3-1.1,2.5-2.4,2.6h-.2c-1.4,.1-2.7-1.1-2.7-2.5-.1-1.4,1.1-2.7,2.5-2.7h.3c1.4,0,2.6,1.2,2.5,2.6h0Z"></path>
      </g>
      <path d="M43.9,55.5c.1,0,.2-.1,.3-.2,.2-.2,.2-.5,0-.7h0c-.1-.1-.2-.1-.3-.1h-5.1c-.3,0-.5,.2-.5,.4v7.8c0,.3,.2,.5,.4,.5h5.2c.1,0,.2-.1,.3-.2,.1-.1,.2-.2,.2-.3s-.1-.2-.2-.3c-.1-.1-.2-.2-.3-.2h-4.7v-2.8h3.4c.3,.1,.5-.1,.6-.4s-.1-.5-.4-.6h-3.6v-3l4.7,.1Z"></path>
      <path d="M56,54.8c-.1,.1-.2,.2-.2,.3v6.4l-5.3-6.7c-.2-.2-.5-.2-.7,0h0c-.1,.1-.2,.2-.2,.3v7.7c0,.1,.1,.3,.2,.3,.2,.2,.5,.2,.7,0h0c.1-.1,.2-.2,.2-.3v-6.4l5.2,6.7q.1,.1,.2,.1h.2c.1,0,.2-.1,.3-.2,.1-.1,.2-.2,.2-.3v-7.7c0-.1-.1-.3-.2-.3-.3-.1-.6-.1-.6,.1Z"></path>
      <path d="M64.2,56.5c.3-.3,.7-.6,1.1-.9,.8-.3,1.6-.4,2.5-.1,.4,.1,.7,.3,.9,.6l.1,.1,.1,.1c.2,.1,.3,0,.5-.2s.1-.2,.1-.3-.1-.3-.2-.3c-.4-.3-.9-.6-1.3-.8-.5-.2-1-.3-1.4-.3-.6,0-1.1,.1-1.7,.3-.5,.3-1,.6-1.4,1s-.7,.9-.9,1.4c-.8,1.6-.4,3.5,1,4.8,.4,.4,.9,.8,1.4,1s1.1,.3,1.6,.3,1-.1,1.4-.2c.5-.2,1-.4,1.3-.8q.1-.1,.1-.2h0v-3.2c0-.3-.2-.5-.4-.5h-.1c-.3,0-.5,.2-.5,.4v.1h0v3c-.3,.2-.6,.3-.9,.4-.8,.3-1.6,.2-2.5-.1-.4-.2-.8-.4-1.1-.8-.3-.4-.6-.8-.8-1.1-.2-.5-.3-1-.3-1.4s.1-.9,.3-1.3c.4-.4,.8-.7,1.1-1Z"></path>
      <path d="M80.1,62.4h-4.3v-7.3c0-.1-.1-.3-.2-.3-.2-.2-.5-.2-.7,0h0c-.1,.1-.2,.2-.2,.3v7.8c0,.3,.2,.5,.4,.5h4.8c.2,0,.3,0,.3-.1s.2-.2,.2-.3-.1-.2-.2-.3q0-.3-.1-.3Z"></path>
      <path d="M89,54.9c-.1-.2-.2-.3-.4-.3s-.3,.1-.4,.3l-3.2,7.6c-.1,.1-.1,.3,0,.4,.1,.2,.3,.2,.4,.3,.1,0,.2,0,.3-.1,.1-.1,.2-.1,.2-.3l.8-1.8h4.2l.8,1.8c.1,.1,.1,.2,.2,.3,.1,.1,.2,.1,.3,.1,.2,0,.3-.1,.4-.3,.1-.1,.1-.3,0-.4l-3.6-7.6Zm-2.2,5.3l1.7-4.1,1.7,4.1h-3.4Z"></path>
      <path d="M103.4,54.8c-.1,.1-.2,.2-.2,.3v6.4l-5.3-6.7c-.2-.2-.5-.2-.7,0h0c-.1,.1-.2,.2-.2,.3v7.7c0,.1,.1,.3,.2,.3,.2,.2,.5,.2,.7,0h0c.1-.1,.2-.2,.2-.3v-6.4l5.2,6.7q.1,.1,.2,.1h.2c.1,0,.2-.1,.3-.2,.1-.1,.2-.2,.2-.3v-7.7c0-.1-.1-.3-.2-.3-.1-.1-.4-.1-.6,.1Z"></path>
      <path d="M116.5,57.2c-.3-.5-.6-1-.9-1.4-.4-.4-.9-.7-1.4-.9-.6-.2-1.1-.3-1.7-.3h-2c-.1,0-.2,0-.3,.1-.1,.1-.2,.2-.2,.3v7.7c0,.3,.2,.5,.4,.5h2.1c.6,0,1.1-.1,1.7-.3,.5-.3,1-.6,1.4-.9,.8-.9,1.1-2,1.1-3.2,.2-.5,.1-1.1-.2-1.6Zm-.5,1.8c.1,1.2-.5,2.4-1.6,3.1-.6,.4-1.1,.5-1.8,.5h-1.4v-7h1.4c.7,0,1.2,.2,1.8,.5,.5,.3,1,.8,1.2,1.2,.3,.4,.4,1,.4,1.7h0Z"></path>
      <path d="M143.6,43.4h0l-.1-.2h3v.2h-2.9Zm1.4,3.6h0l-.2-.2v-3.8h.3v3.9s0,0-.1,.1h0Z"></path>
      <path d="M147.3,47h0l-.2-.2v-3.6q0-.1,.1-.1l.1-.1q.1,0,.2,.1l1.7,3.4h-.2l1.7-3.3c0-.1,.1-.1,.2-.1s.1,0,.1,.1v3.7l-.1,.1q-.1,0-.1-.1h-.1v-3.2h.1l-1.5,3.2c0,.1-.1,.1-.2,.1s-.1,0-.2-.1l-1.6-3.2h.1l-.1,3.3q.1-.1,0,0Z"></path>
    </g>
  </g>
</svg>
