<?xml version="1.0" encoding="UTF-8"?>
<svg xmlns="http://www.w3.org/2000/svg" id="Layer_2" viewBox="0 0 144.5 66.6">
  <g id="Layer_1-2">
    <path d="M121.9,51.6c0-.2-.1-.3-.2-.4s-.3-.2-.4-.2h-.6v1.1h.6c.2,0,.3-.1,.4-.2,.2,.1,.3-.1,.2-.3m.1,2.3l-.7-1.2h-.5v1.2h-.4v-3.2h1.1c.2,0,.3,0,.4,.1s.3,.1,.4,.2,.2,.3,.3,.4c.1,.1,.1,.2,.1,.4s-.1,.4-.2,.6c-.2,.1-.3,.3-.5,.4l.8,1.3-.8-.2Zm1.6-1.6c0-.3-.1-.7-.2-1-.3-.6-.7-1.1-1.2-1.2-.6-.3-1.2-.3-1.9,0l-.8,.5c-.3,.2-.4,.5-.5,.8-.3,.6-.3,1.2,0,1.9,.6,1.2,1.9,1.8,3.2,1.2l.8-.5c.3-.2,.4-.5,.5-.8,.1-.2,.1-.6,.1-.9m.5,0c0,.4-.1,.8-.3,1.1-.3,.7-.9,1.2-1.5,1.5-.8,.4-1.5,.4-2.3,0-.7-.3-1.2-.9-1.5-1.5-.4-.8-.4-1.5,0-2.3,.3-.7,.9-1.2,1.5-1.5,.8-.3,1.5-.3,2.3,0,.7,.3,1.2,.9,1.5,1.5,.3,.4,.4,.8,.3,1.2m-11.2,.3c-.8-1-2-1.4-3.2-1.3-2.4,0-3.7,1.6-3.7,3.2,0,1.2,1,1.7,2.1,2l1.4,.4c2.8,.7,3.8,1.9,3.8,4.3,0,3.7-3.2,5.4-6.6,5.4-2.6,0-4.2-.7-5.4-2.4l1.8-1.5c1,1.2,2.5,1.9,4,1.7,2.3,0,4-1.2,4-3.1,0-1.4-.9-2-2.1-2.3l-1.4-.4c-2.3-.5-3.8-1.8-3.8-4,0-2.9,2.1-5.5,6.3-5.5,1.7-.1,3.4,.7,4.6,2l-1.8,1.5Zm-11.5-1.1h-7.9l-1.1,5.2h6.8l-.4,2.1h-6.8l-1.1,5.4h8l-.4,2.1h-10.4l3.4-17.1h10.3l-.4,2.3Zm-19.5,4.7l4,10.2h-2.8l-3.2-8.6-3.6,3.4-1.1,5h-2.5l3.5-17.1h2.5l-1.7,8.6,8.3-8.6h3.2l-6.6,7.1Zm-15.4-3.3l-4.2,7.8h5.2l-1-7.8Zm1.7,13.5l-.4-3.6h-6.3l-1.8,3.6h-2.8l9.4-17.1h2l2.6,17.1h-2.7Zm-13.6,0h-2.6l1.5-7.5h-6.5l-1.5,7.5h-2.6l3.5-17.1h2.6l-1.4,7.4h6.5l1.4-7.4h2.6l-3.5,17.1Zm-14.1-13.8c-.8-1.1-2.1-1.5-3.3-1.3-1.8-.2-3.4,1.1-3.7,3v.2c0,1.2,1,1.7,2.1,2l1.4,.4c2.8,.7,3.8,1.9,3.8,4.3,0,3.7-3.2,5.4-6.6,5.4-2.6,0-4.2-.7-5.4-2.4l1.8-1.5c1,1.2,2.5,1.8,4,1.7,2.3,0,4-1.2,4-3.1,0-1.4-.9-2-2-2.3l-1.5-.4c-2.3-.5-3.8-1.8-3.8-4,0-2.9,2.1-5.5,6.3-5.5,1.7-.1,3.4,.6,4.6,2l-1.7,1.5ZM88.1,2.5h-3.6l-1.1,5.4h3.6c1.8,.1,3.3-1.2,3.5-3.1h0v-.3c.1-1.1-.7-2.1-1.8-2.3h-.6m.5,7.4l2.5,7.5h-2.8l-2.1-7.3h-3.3l-1.4,7.3h-2.4L82.5,0h5.9c3.4,0,4.5,2,4.5,4.2,.1,2.7-1.7,4.9-4.3,5.4m-16.1-7.3c-1.1,0-2.1,.4-2.9,1.2-.8,.8-1.2,1.9-1.8,5.3-.3,1.2-.4,2.6-.5,3.8-.1,1.4,1,2.7,2.4,2.9h.2c1.1,0,2.1-.4,3-1.2,.8-.8,1.1-1.9,1.8-5.3,.3-1.2,.4-2.6,.5-3.8,.1-1.4-1-2.7-2.4-2.9h-.3m4.6,6.5c-.7,3.6-1.1,5.3-2.7,6.8-1.2,1.1-2.9,1.8-4.6,1.9-2.5,.2-4.7-1.7-4.9-4.2v-.5c.1-1.3,.3-2.7,.5-4,.7-3.6,1.1-5.3,2.7-6.8,1.2-1.1,2.9-1.9,4.6-1.9,2.5-.2,4.7,1.7,4.9,4.3h0v.4c-.1,1.3-.3,2.6-.5,4m-12.8-6.3h-7.9l-1.1,5.4h6.8l-.4,2.1h-6.9l-1.4,7.4h-2.6L54.3,.3h10.3l-.3,2.2Zm76.6,25.2c-.9-1.1-2.3-1.6-3.7-1.4-2.1,0-3.4,1.2-3.4,2.5,0,1.2,1.1,1.4,1.9,1.7l1.7,.4c4,1.1,5.3,3,5.3,6,0,5.4-4.5,7.6-9.4,7.6-3.7,0-5.9-.9-7.9-3.2l3.8-3.3c1.1,1.2,2.9,1.8,4.6,1.7,2.1,0,3.6-1.1,3.6-2.5s-.7-1.6-1.9-1.9l-1.7-.4c-4.5-1.2-5.3-3.8-5.3-5.4,0-4.9,3.8-7.8,9.2-7.8,2.6-.2,5.2,.9,6.8,2.8l-3.6,3.2Zm-16.8,0c-.9-1.1-2.3-1.6-3.7-1.4-2.1,0-3.4,1.2-3.4,2.5,0,1.2,1.1,1.4,1.9,1.7l1.7,.4c4,1.1,5.3,3,5.3,6,0,5.4-4.5,7.6-9.4,7.6-3.8,0-5.9-.9-7.9-3.2l3.8-3.3c1.1,1.2,2.8,1.7,4.6,1.7s3.6-1.1,3.6-2.5-.7-1.6-1.9-1.9l-1.7-.4c-4.5-1.2-5.2-3.8-5.2-5.4,0-4.9,3.8-7.8,9.2-7.8,2.6-.2,5.1,.9,6.8,2.9l-3.7,3.1Zm-13.8-1.3h-9.3l-.9,4.2h7.9l-1,4.6h-7.9l-.9,4.4h9.5l-1,4.6h-14.6l4.7-22.4h14.4l-.9,4.6Zm-20.9,17.8h-4.3l-4.7-11.8-2.4,11.8h-5.2l4.5-22.5h4.3l4.7,11.8,2.4-11.8h5.2l-4.5,22.5Zm-24-17.7h-2.4l-2.8,13.2h2.4c1,.1,2-.3,2.7-1.1,.7-.7,1.1-1.4,1.8-5.5,.4-1.4,.6-2.9,.7-4.3,.1-1.2-.9-2.2-2.1-2.3h-.3m6.9,6.6c-1.1,5.5-1.5,7.1-3.5,8.9-1.7,1.6-4,2.5-6.3,2.4h-8.2l4.5-22.5h7.5c4.2,0,6.9,2.3,6.9,6.3-.2,1.7-.4,3.3-.9,4.9h0Zm-25.3-6.8c-.9,0-1.7,.5-2.3,1.1-.7,.8-1.1,1.9-1.9,5.6-.3,1.4-.5,2.9-.6,4.4-.2,1.2,.7,2.3,1.9,2.5h.4c.9,0,1.7-.4,2.3-1.1,.7-.8,1.1-1.9,1.9-5.6,.3-1.4,.5-2.9,.6-4.4,.2-1.2-.8-2.4-2-2.6h-.3m6.8,6.9c-.8,3.9-1.3,6.8-3.5,8.8-1.7,1.7-3.9,2.7-6.3,2.7-4.6,0-7.1-3.2-7.1-6.5,.1-1.6,.3-3.2,.7-4.8,.8-3.9,1.3-6.8,3.5-8.8,1.7-1.6,4-2.6,6.3-2.7,4.6,0,7.1,3.2,7.1,6.5-.1,1.6-.4,3.2-.7,4.8m-25.2-6.8c-.9,0-1.7,.4-2.3,1.1-.7,.8-1.1,1.9-1.9,5.6-.3,1.4-.5,2.9-.6,4.4-.2,1.1,.7,2.2,1.8,2.4h.5c.9,0,1.7-.4,2.3-1.1,.7-.8,1.1-1.9,1.9-5.6,.3-1.4,.5-2.9,.6-4.4-.2-1.6-.9-2.4-2.3-2.4m6.8,6.8c-.8,3.9-1.3,6.8-3.5,8.8-1.6,1.7-3.9,2.7-6.3,2.7-4.6,0-7.1-3.2-7.1-6.5,.1-1.6,.3-3.2,.7-4.8,.8-3.9,1.3-6.8,3.5-8.8,1.7-1.6,4-2.6,6.3-2.7,4.6,0,7.1,3.2,7.1,6.5,0,1.6-.2,3.2-.7,4.8m-22.7-4.2c-.1-1.5-.8-2.8-2.3-2.8-1,0-1.8,.4-2.4,1.1-1.1,1.1-1.3,2.6-2,5.7-.3,1.4-.6,2.9-.6,4.4-.2,1.1,.6,2.1,1.7,2.3h.5c1.8,0,3.3-1.3,3.7-3.7l.1-.4h-3.2l.8-4.3h8.4l-.6,3.1c-.7,3.5-1.3,5.4-3.3,7.5-1.6,1.7-3.9,2.7-6.3,2.7-5.1,0-7.2-3.5-7.2-6.5,.1-1.6,.3-3.2,.6-4.8,1.1-5.4,1.6-7,3.5-8.7,1.7-1.7,4-2.7,6.4-2.8,5.1,0,7.2,3.7,7.2,7.3l-5-.1Z"></path>
  </g>
</svg>
