<?xml version="1.0" encoding="UTF-8"?>
<svg xmlns="http://www.w3.org/2000/svg" id="Layer_2" viewBox="0 0 232.32 19.97">
  <g id="Layer_1-2">
    <g id="_86CUBy.tif">
      <path d="M174.8,0c1.4,0,2.9,.2,4.2,.7,1.3,.5,2.5,1.1,3.4,2.1,1,.9,1.7,1.9,2.3,3.1,.4,.9,.7,1.8,.9,2.8,.1,.5,.1,1.1,.1,1.5,0,1.2-.3,2.4-.9,3.4-.5,1.2-1.2,2.4-2.2,3.2-.7,.7-1.4,1.1-2.2,1.6-.7,.5-1.4,.8-2.2,1-.6,.2-1.1,.3-1.7,.4-.9,.2-1.7,.2-2.6,.1-1.2-.1-2.6-.4-3.7-.9-1.2-.5-2.3-1.1-3.2-2-.8-.7-1.3-1.4-1.9-2.3-.5-.9-.8-1.7-1.1-2.7-.1-.4-.2-.7-.2-1.1-.1-1,0-1.9,.2-2.9,.3-1.1,.7-2.2,1.3-3.2,1.7-2.6,4.5-4.3,7.6-4.7,1,0,1.5,0,1.9-.1Zm.2,3.1c-.6,.1-1.2,.1-1.8,.3-1,.2-1.9,.7-2.7,1.2-.7,.5-1.2,1.1-1.6,1.9s-.8,1.7-.9,2.6c-.1,.8-.1,1.5,.1,2.3,0,.2,.1,.5,.2,.7,.4,1.2,1.1,2.3,2.1,3.2,.9,.7,1.8,1.1,2.9,1.4,.4,.1,.9,.1,1.1,.2,.3,.1,.7-.1,.9-.1s.8-.1,1.1-.2c1.6-.4,3.2-1.3,4.1-2.7,.4-.6,.8-1.2,1-2,.3-.7,.1-1.3,.4-2-.2-.6-.1-1.1-.3-1.7-.4-1.6-1.4-3.1-2.9-3.9-1-.7-2.3-1.1-3.7-1.2h0Z"></path>
      <path d="M213.8,.4h7.7c.7,0,1.3,.1,2,.3,.7,.1,1.3,.2,2,.5,2.8,.9,5.1,2.9,6.1,5.6,.6,1.2,.8,2.7,.7,4-.1,1.7-.7,3.2-1.7,4.7-.9,1.2-2,2.2-3.3,3-.9,.5-1.8,.8-2.8,1-.7,.1-1.3,.3-2,.4h-8.8l.1-19.5h0Zm3.5,15.9h4.5c.5,0,.9,0,1.3-.1,1.4-.2,2.8-1,3.8-2s1.5-2.3,1.6-3.6c0-.2,.1-.3,.1-.5v-.4c0-.2-.1-.4-.1-.6,0-.8-.3-1.6-.7-2.3-.7-1.5-2-2.7-3.6-3.2-.8-.3-1.6-.4-2.4-.5h-4.6l.1,13.2h0Z"></path>
      <path d="M90.6,19.4h-4.3c-1.7-2.1-3.3-4.5-5-6.7h-4.6v6.7h-3.4V.3h8.9c1.3,0,2.6,.2,3.8,.7,1.8,.6,3.2,2.1,3.6,4,.2,.9,.3,1.7,.1,2.6-.1,.7-.3,1.3-.6,2-.3,.6-.7,1.1-1.1,1.4-.4,.2-.6,.5-.9,.6-.7,.4-1.3,.7-2,.9,.6,.8,1.1,1.6,1.8,2.3,.7,.9,1.2,1.5,1.9,2.3,.5,.6,1,1.4,1.8,2.3Zm-13.9-9.5h4.8c.8,0,1.5-.1,2.2-.3,.6-.2,1.1-.5,1.6-1,.7-.8,1-1.7,.8-2.7-.1-.7-.4-1.3-1-1.7-.8-.6-1.8-.9-2.8-.8h-5.4c-.2,2.2-.2,4.3-.2,6.5Z"></path>
      <path d="M28.5,3.3v4.9h10.1l.1,.1v3.1h-10.2v5.1h11.8v3h-15.3V.4h14.4c.7,0,.9-.1,.7,.8v1.8c0,.5,0,.6-.6,.6h-5.7c-1.6-.3-3.4-.3-5.3-.3Z"></path>
      <path d="M0,.4H3.5s.1,0,.1,.1v7.9c.6,.1,5.4,.2,9.8,.1V.4h3.5V19.6h-3.5V11.6H3.6v8H0V.4Z"></path>
      <path d="M200.4,19.5h-3.2c-.3,0-.4-.1-.4-.4v-6.5c0-.5-.2-1-.5-1.4l-1.9-2.7c-1.1-1.4-2.1-3-3.2-4.4-.8-1.1-1.5-2.1-2.2-3.2-.2-.2-.3-.4-.5-.6l.1-.1h4c.3,.4,.7,.9,.9,1.2,1.6,2.3,3.2,4.7,4.7,7.1,0,.1,.1,.1,.2,.2,.3-.4,.6-.9,.9-1.2,1.2-1.9,2.6-3.7,3.8-5.7,.4-.6,.7-1,1.1-1.5h4.1c-.3,.5-.7,.9-.9,1.3-.8,1-1.4,2-2,2.9-1,1.4-2,2.8-3.1,4.2-.8,1-1.3,1.9-2,2.9-.2,.2-.3,.5-.3,.8v6.6c.4,0,.4,.2,.4,.5Z"></path>
      <path d="M142,16.3v3.1c-.6,.1-9.9,.2-14.4,.1V.3h3.5V16.4h10.9v-.1Z"></path>
      <path d="M146.6,.4h3.2c.4,0,.4,.1,.5,.4v15.7h10.2c.5,0,.6,.1,.6,.6v2c0,.4-.1,.5-.5,.5h-14c0-.8,0-16.6,0-19.2Z"></path>
      <path d="M100.5,.4V19.6h-3.2c-.4,0-.5-.1-.5-.5V.8c0-.4,.1-.5,.5-.5,1.1,0,2,.1,3.2,.1Z"></path>
      <path d="M121.5,9.5c-.6,1.1-.9,2.1-1.3,3.2h-13.7l1.1-3.2h13.9Z"></path>
      <path d="M65.3,.4h-3.6V13.7c-3.7-4.5-7.4-8.9-11.1-13.4h-3.3c-.1,2.7-.1,18.5,.1,19.2h3.6V6c3.8,4.6,7.6,9,11.4,13.5h3.2V.4h-.3Z"></path>
    </g>
  </g>
</svg>
