<?xml version="1.0" encoding="UTF-8"?>
<svg xmlns="http://www.w3.org/2000/svg" id="Layer_2" viewBox="0 0 195.73 26.27">
  <g id="Layer_1-2">
    <g>
      <g id="RzGkn3">
        <path d="M0,.34H6.1c4.4,5.3,8.5,10.7,12.9,15.9,.2-.1,.3-.1,.5-.2V4.14c.2-1.4-.3-2.9-1.3-3.8h5.5c-.4,.7-.7,1.4-.9,2.2-.1,.9-.2,1.7-.1,2.5V25.64c-.6,0-1.1,.1-1.8,.1C15.5,19.24,10.2,12.64,4.5,5.74v15.9c0,1.3-.2,2.7,1.1,3.8H.5c.3-1.2,.5-2.6,.5-3.8,.1-5.9,0-11.8,0-17.8,.5-1.2,.1-2.6-1-3.5Z"></path>
        <path d="M132.2,25.54h-6.9c1.2-1.4,1.1-3.1,1.1-4.9V4.24c0-1.5,0-3-1.7-4.2,4,0,7.5-.1,11,0,2.3,0,4.5,.9,6.2,2.3,3,2.6,2.5,8-.7,10.3-1.4,1.1-3.2,1.7-5.1,1.7h-5c0,.7-.1,1.2-.1,1.9v5.1c0,1.5-.3,2.9,1.2,4.2Zm-1.2-13.8c1.4,0,2.7,.1,4,0,2,0,3.7-1.6,3.7-3.7v-1.4c-.1-1.6-1.2-3-2.9-3.2s-3.2-.2-4.8,.1V11.74Z"></path>
        <path d="M26.8,11.54c0-.4-.1-.6,0-.8,.3-1.1,.5-2.3,.8-3.6,3.2-.9,6.4-1.3,9.7-.5,3,.8,4.5,2.7,4.6,5.9v8.3c0,1.8,.5,2.2,2.5,2.6-.6,.9-1.1,1.6-1.6,2.4-1.9,.5-3.9-.4-5-2-1.9,1.9-4.4,2.3-6.9,2.2-1.4-.1-2.7-.6-3.8-1.4-2.3-1.6-2.9-4.9-1.2-7.2h0c.4-.6,1-1.1,1.6-1.4,1.4-.7,3-1.1,4.6-1.4,.9-.2,1.7-.3,2.6-.5,1.9-.5,2.7-1.3,2.6-2.8-.2-1.2-1.2-2-3-2.1-3.3-.5-5,.1-7.5,2.3Zm10.2,4.2c-1.1,.3-2.2,.6-3.2,.9-1,.3-1.8,.6-2.7,1-1.1,.6-1.7,1.8-1.4,3.1,.2,1.2,1.1,2.3,2.2,2.7,2,.6,5-1.2,5.2-3.3,0-1.6,0-3-.1-4.4h0Z"></path>
        <path d="M55.3,6.74h5.4c.2,0,.4,.1,.7,.1,0,.5,.1,1,.1,1.4v10.9c-.1,2,1.4,3.7,3.5,3.9h.2c2.1,.3,4.1-1.2,4.4-3.4v-.3c.1-3.3,.1-6.8,0-10.2-.2-.8-.5-1.5-.9-2.2h5.5v15.2c-.2,1.3,.3,2.6,1.2,3.4h-5.7c-.1-.5-.1-1-.2-1.5-1.8,1.4-4,2.2-6.3,2-3.7,0-5.9-2.2-6.3-5.9-.1-1.7-.2-3.3-.1-5.1v-5.1c-.1-1.1-.6-2.4-1.5-3.2Z"></path>
        <path d="M152.5,6.74h5.6c0,.6,.1,1.1,.1,1.5v10.5c0,1,.3,1.9,.8,2.7,.6,.9,1.5,1.4,2.5,1.4h1.8c2.4-1,3.1-2.6,3-4.9-.1-3.2,0-6.6,0-9.7-.4-.6-.8-1.1-1.1-1.5h5.6c0,.5,.1,1,.1,1.4v13.7c-.1,1.3,.3,2.7,1.1,3.7h-5.5c-.1-.4-.2-.9-.4-1.4-1.9,1.5-4.3,2.2-6.7,1.9-2.5,0-4.8-1.6-5.4-4.1-.3-1.1-.5-2.1-.5-3.2-.1-2.8,0-5.6,0-8.5q.2-1.8-1-3.5Z"></path>
        <path d="M107,16.44h-13.3c-.4,3.3,2,6.4,5.4,6.8h.1c.7,.1,1.4,0,2.1-.1,1.4-.4,2.8-1.1,4.4-1.5,1.1,1-.4,2,0,3.2-4.6,1.7-8.9,2.3-13-.6-4.5-3.3-5.4-9.7-2.1-14.1,.5-.7,1-1.2,1.6-1.7,2.7-2.2,6.3-2.7,9.4-1.3,3,1.1,5,3.9,5.2,7.1,.1,.6,.1,1.4,.2,2.2Zm-5-2.6c0-3.2-1.5-5.3-4-5.2-2.5,.2-4.3,2.3-4.2,4.8v.4h8.2Z"></path>
        <path d="M108.4,24.84c-.2-1.3-.4-2.5-.6-3.7,1.7,.7,3.2,1.3,5,1.9,1.3,.5,2.9,.5,4.2,0,1.4-.3,2.4-1.6,2.1-3.1-.6-.5-1.1-1-1.8-1.3-1.2-.6-2.6-1-3.8-1.5-.8-.3-1.5-.6-2.2-1.1-2.3-1.2-3.2-4.1-1.9-6.4,.3-.5,.7-1,1.1-1.2,1.2-1.1,2.8-1.9,4.5-2,2.5-.3,5-.1,7.4,.8v3.4c-.8-.4-1.4-.7-2.1-1-1.2-.6-2.6-.8-4-.6-1.1,0-2,.7-2.2,1.7-.1,1,.5,1.9,1.4,2.2,1.3,.6,2.8,1.1,4.3,1.7,.6,.2,1.1,.5,1.7,.8,2.5,1.3,3.4,4.4,2.1,6.9h0c-.3,.5-.6,.9-1,1.2-1.1,1.1-2.7,1.9-4.4,2.2-3.4,.7-6.8,.4-9.8-.9Z"></path>
        <path d="M173.7,24.84c-.2-1.3-.4-2.5-.6-3.7,1.7,.7,3.3,1.3,5,1.9,1.3,.5,2.9,.5,4.2,0,1.4-.3,2.4-1.6,2.1-3.1-.6-.5-1.1-1-1.8-1.3-1.2-.6-2.6-1-3.8-1.5-.8-.3-1.5-.6-2.2-1.1-2.2-1.2-3.1-4.1-1.8-6.4,.3-.5,.7-1,1.1-1.2,1.2-1.1,2.8-1.8,4.4-2,2.5-.3,5-.1,7.4,.8v3.4c-.8-.4-1.4-.7-2.1-1-1.2-.6-2.6-.8-4-.6-1.1,0-2,.7-2.2,1.7-.1,1,.5,1.9,1.4,2.2,1.3,.6,2.8,1.1,4.3,1.7,.6,.2,1.1,.5,1.7,.8,2.5,1.3,3.4,4.4,2.1,6.9h0c-.3,.5-.6,.9-1,1.2-1.1,1.1-2.7,1.9-4.4,2.2-3.3,.7-6.7,.4-9.8-.9Z"></path>
        <path d="M50.2,9.24v11.1c0,.5,.1,1,.3,1.3,.3,1.2,1.5,1.9,2.7,1.7,.4-.1,.8-.2,1.6-.5-.7,1.3-1.2,2.2-1.7,3.2-.7,.1-1.3,.1-1.9,.2-3.6,.1-5.5-1.7-5.5-5.4V9.54c-.8-.1-1.3-.2-1.9-.3-.1-.2-.1-.3-.1-.5,.1-.2,.2-.3,.3-.5,2-1.9,4.1-3.8,6.3-5.9V6.74h4.4c-.3,1.1-.5,1.8-.7,2.6-1.2-.1-2.5-.1-3.8-.1Z"></path>
        <path d="M151.4,25.54h-6.8c1.1-1.4,1-3,1-4.5V3.94c.2-1.3-.3-2.7-1.2-3.6h5.8c0,.6,.1,1.1,.1,1.6V21.44c-.3,1.5,.2,3,1.1,4.1Z"></path>
        <path d="M76.8,6.84h5.8c.1,.8,.1,1.4,.2,2.3,1.5-1.6,3.2-2.8,5.5-2.6v4.3c-.2,0-.4-.1-.6-.1-2.6-.6-4.7,.7-4.8,3.2-.2,3.1-.1,6.3-.1,9.4,0,.8,.6,1.4,.9,2.3h-6.6c1.2-1.3,1.1-2.9,1.1-4.5V10.34c.2-1.4-.4-2.6-1.4-3.5Z"></path>
      </g>
      <path d="M193.4,26.24c-.3,0-.6-.1-.9-.2s-.6-.3-.8-.5-.4-.5-.5-.8c-.3-.6-.3-1.2,0-1.7,.1-.3,.3-.6,.5-.8,.2-.2,.5-.4,.8-.5,.6-.3,1.2-.3,1.7,0,.3,.1,.6,.3,.8,.5s.4,.5,.5,.8c.3,.6,.3,1.2,0,1.7-.1,.3-.3,.6-.5,.8-.2,.2-.5,.4-.8,.5-.2,.1-.5,.1-.8,.2Zm0-.5c.3,0,.6-.1,.8-.2s.5-.3,.7-.4c.2-.2,.3-.4,.4-.6,.1-.3,.2-.5,.2-.8s-.1-.6-.2-.8c-.1-.2-.2-.4-.4-.6s-.4-.3-.6-.4c-.3-.1-.5-.2-.8-.2s-.6,.1-.8,.2-.4,.2-.6,.4c-.2,.2-.3,.4-.4,.6-.1,.3-.2,.5-.2,.8s.1,.6,.2,.8c.1,.2,.2,.4,.4,.6s.4,.3,.6,.4c.2,.3,.4,.3,.7,.2h0Zm-.6-.4h0l-.1-2.9h.8c.2,0,.4,0,.5,.1,.2,.1,.3,.2,.4,.3,.1,.2,.1,.3,.1,.5s0,.4-.1,.5-.3,.2-.4,.3c-.2,.1-.3,.1-.5,.1h-.6l-.1,1.1h0Zm.1-1.5h.6c.4,0,.7-.3,.7-.7h0c0-.2-.1-.3-.2-.5s-.3-.2-.5-.2h-.6v1.4Zm1.4,1.5q-.1,0-.2-.1l-.8-1.2,.3-.1,.8,1.1c0,.1,.1,.1-.1,.3,.1-.1,.1,0,0,0h0Z"></path>
    </g>
  </g>
</svg>
