<?xml version="1.0" encoding="utf-8"?><svg id="Layer_1" data-name="Layer 1" xmlns="http://www.w3.org/2000/svg" viewBox="0 0 213.35 70.7"><title>Artboard 3</title><path d="M0,58.38A347.58,347.58,0,0,0,7.35,23l12.48-1.89c0,.34.06.65.07,1a70.74,70.74,0,0,0,2.29,13.86c.58,2.25,1.24,4.49,2,6.7A47.35,47.35,0,0,0,28.37,52l.5.81c-.33.12-8,.19-9,.09l-3.13-8.74-5.26.51L9.35,57.22Zm15.4-19c-.12-.92-2.26-9-2.5-9.34l-1.13,9.34Z"/><path d="M104.92,26.84c-4.94.44-9.78,1.11-14.69,1.53L88,21.9l38-4.42-.61.87c-1.66,2.35-3.34,4.69-5,7a.94.94,0,0,1-.82.43c-2.24.12-4.49.27-6.73.4h-.28c-.17.66-.12,3,.28,10,.19,3.34.44,6.67.7,10s.64,6.62,1.17,10l-8.65,1.62C105.71,47.49,105.35,37.2,104.92,26.84Z"/><path d="M44.35,24.3l-3.73,4.89c-.16-.07-.31-.17-.47-.23A16.91,16.91,0,0,0,38,28.15a4.1,4.1,0,0,0-5.11,2.72h0a4.38,4.38,0,0,0-.15.72,10,10,0,0,0,0,3.62,28.33,28.33,0,0,0,1.56,6,9.28,9.28,0,0,0,.94,1.86,3.33,3.33,0,0,0,2.64,1.41,5.51,5.51,0,0,0,3.19-.85c.26-.14.51-.3.79-.47L46,47.57a13.94,13.94,0,0,1-3,2.89l.61,2.3L44,52.3a3.84,3.84,0,0,1,3.12-1.53,5,5,0,0,1,2.46.52,3.18,3.18,0,0,1,1.49,1.56c.79,1.69,1.6,3.37,2.45,5a4.33,4.33,0,0,1,.26,3.2,7.51,7.51,0,0,1-6.26,5.3,6.63,6.63,0,0,1-2.43-.12,3.81,3.81,0,0,1-2.7-2.32c-.19-.46-.33-.94-.51-1.4a.36.36,0,0,1,.1-.45l3.63-3.13h.12c.15.4.28.81.43,1.21a.88.88,0,0,0,.8.64A.91.91,0,0,0,48,60a1,1,0,0,0-.06-.41c-.28-.85-.59-1.7-.89-2.54-.12-.33-.22-.67-.36-1a1.57,1.57,0,0,0-.36-.52.89.89,0,0,0-1.25.1h0a.82.82,0,0,0-.2.54v.28l-4.2,1.34L38.92,52h-.75a8.94,8.94,0,0,1-4.24-1,13.06,13.06,0,0,1-6.84-7.71,42.1,42.1,0,0,1-1.67-7.08A16.67,16.67,0,0,1,25.21,32a13.74,13.74,0,0,1,3.4-8.4,8.78,8.78,0,0,1,7.33-3.08,12.16,12.16,0,0,1,5,1.43,18.41,18.41,0,0,1,3.24,2.15A1.63,1.63,0,0,0,44.35,24.3Z"/><path d="M118.57,30.26c.6-.08,7,.31,8.38.51v.56c-.62,3.8-1.28,7.59-1.85,11.39-.23,1.54-.3,3.11-.42,4.66a4,4,0,0,0,.1,1.14,2.42,2.42,0,0,0,2.2,2.07,5.67,5.67,0,0,0,2.32-.15A3.67,3.67,0,0,0,132,47.19a9,9,0,0,0-.23-2.37c-.82-4.83-1.66-9.65-2.49-14.47a4.5,4.5,0,0,0-.11-.64l8.25.46a.48.48,0,0,0,.07.3l1.71,12.41c.24,1.73.52,3.46.75,5.19a5.82,5.82,0,0,1-2.87,6.21,17.88,17.88,0,0,1-1.7.84,16.74,16.74,0,0,1-3.6,1,44.23,44.23,0,0,1-5.84.76,10.81,10.81,0,0,1-5.49-1,5.91,5.91,0,0,1-2.21-2,8.47,8.47,0,0,1-1.34-3.57,18.21,18.21,0,0,1,0-4.78c.26-2.25.5-4.5.75-6.75s.51-4.66.76-7A12.85,12.85,0,0,1,118.57,30.26Z"/><path d="M164.67,57l-9-.5L154.25,52l-5.25.5c-.26,1.5-.53,3-.79,4.48h-.42c-1.69-.34-3.39-.69-5.09-1-.81-.16-1.63-.29-2.45-.44l-.53-.13a156.81,156.81,0,0,0,5.1-24.54L155,28.08A235.5,235.5,0,0,0,164.67,57Zm-15.32-9.79H153l-2.45-9.29h-.11Q149.88,42.57,149.35,47.22Z"/><path d="M86.2,48.7l-7.34,1.57c-.55-9-1.08-17.84-1.63-26.81l8.15-1.23a1.28,1.28,0,0,1,.11.2,90.07,90.07,0,0,0,4,11.55c.39.94.87,1.83,1.32,2.75a2,2,0,0,0,.26.39h.11l-.45-6.27c2.74-.46,5.46-.69,8.2-1.12v.44c-.08,1.56-.18,3.12-.25,4.68a43,43,0,0,0,.32,9c.14.92.27,1.84.4,2.76V47l-2.2.5c-1.59.35-3.18.69-4.77,1.07a.66.66,0,0,1-.76-.27c-1.14-1.46-2.3-2.9-3.45-4.34l-2.84-3.51a38.25,38.25,0,0,0,.31,4.14C85.85,45.94,86,47.29,86.2,48.7Z"/><path d="M205.77,48.78c.43,2.24.85,4.42,1.28,6.61-3.46.33-6.88.56-10.28,1s-6.75,1.12-10.17,1.7a.73.73,0,0,1-.07-.24c-.22-2.35-.45-4.7-.63-7.06-.23-3.25-.42-6.51-.63-9.76-.18-2.74-.35-5.48-.53-8.22v-.32l18.83-1.86,1.37,6.67c-2,.12-3.88.2-5.79.35s-3.77.35-5.69.53a17.83,17.83,0,0,0-.17,3.65l6.79-1c.29,1.63.57,3.22.87,4.89l-7.39,1.14.09,3.38,6-.74Z"/><path d="M73.91,37.39l-7.34,1.14.09,3.4,9.1-1.2,1.29,6.59a80.44,80.44,0,0,0-8.75,1c-2.88.54-5.77,1-8.66,1.52-.89-8.51-1.27-17-1.88-25.58l16.12-1.75c.5,2.18.94,4.38,1.35,6.58l-8.75.78a16.88,16.88,0,0,0-.18,3.62l6.79-1Z"/><path d="M132.91,14.5l-8.52.91L126.57,0l2,.28,9.87,1.48c.84.12,1.68.27,2.52.37a.49.49,0,0,1,.48.45c.58,2.91,1.17,5.82,1.77,8.71.16.81.32,1.63.5,2.44a.67.67,0,0,1-.25.73c-2,1.66-3.94,3.34-5.9,5-2.42,2.08-4.85,4.17-7.26,6.26a1,1,0,0,1-.81.25l-5-.46a1.68,1.68,0,0,1-.59-.08c3-3.67,6-7.27,9-10.84Zm-.08-7.36A2,2,0,0,0,131,5h-.18a2.07,2.07,0,0,0-2.13,2V7.1a2.11,2.11,0,0,0,2.1,2.1,2.08,2.08,0,0,0,2.09-2.07h0Z"/><path d="M168.83,37.44l-8.59,1-1.73-6.79,23.79-2c.1,2.24.07,4.44.13,6.69l-6,.54v.54a45.88,45.88,0,0,0,.4,5.62c.22,1.84.45,3.67.72,5.5.33,2.3.71,4.6,1.06,6.9v.34L170,57.37C169.63,50.7,169.23,44.11,168.83,37.44Z"/><path d="M56.75,27.78l-3.08,3.89-.48-.22a7.23,7.23,0,0,0-2.07-.7,3.24,3.24,0,0,0-3.7,2.19,4.91,4.91,0,0,0-.34,1.86,8.58,8.58,0,0,0,.46,3.14A4.87,4.87,0,0,0,49,40.07a3.23,3.23,0,0,0,3.21.72,12.49,12.49,0,0,0,1.55-.67q.23-.12.45-.27l3.38,3.54c-2.27,3.09-6,4.66-9.71,2.91A11.58,11.58,0,0,1,42,39.89a12.73,12.73,0,0,1-.11-9.46,9.57,9.57,0,0,1,2.35-3.62,7.28,7.28,0,0,1,6.89-2A12.72,12.72,0,0,1,56.75,27.78Z"/><path d="M146.35,70.7h-3.48a3.63,3.63,0,0,1,0-1.14,10.65,10.65,0,0,1,3.91-7.28,7.15,7.15,0,0,1,4-1.67,4.1,4.1,0,0,1,2.87.8c.43.31.83.67,1.25,1a8.63,8.63,0,0,0,1,.71,2.18,2.18,0,0,0,3-.64,2.34,2.34,0,0,0,.3-.71c.1-.36.13-.74.2-1.14h3.45a11.16,11.16,0,0,1-.09,2.16,11.53,11.53,0,0,1-1,3.64l-.26.49A5.48,5.48,0,0,1,156,69.67a9,9,0,0,1-1.84-.43,10.91,10.91,0,0,1-1.66-.68,4.83,4.83,0,0,0-4.38,0,3.16,3.16,0,0,0-.71.36A2.24,2.24,0,0,0,146.35,70.7Z"/><path d="M21.65,17.58l-2,.4c-.88.18-1.77.35-2.64.54a.81.81,0,0,1-.81-.22c-1.26-1.13-2.55-2.24-3.82-3.36l-.3-.23c-.1.14-.18.25-.26.38-.72,1.21-1.44,2.43-2.15,3.65a.84.84,0,0,1-.57.42c-1.4.26-2.8.56-4.21.84a1.35,1.35,0,0,0-.49.06c.35-.81.66-1.56,1-2.31.85-2,1.71-4,2.55-6a1,1,0,0,1,.67-.65c1.69-.59,3.36-1.2,5-1.8l.48-.16Z"/><path d="M115.17,60.25c.22.86.42,1.67.62,2.47.48,1.92,1,3.86,1.48,5.8.09.34.06.47-.28.56a11.07,11.07,0,0,1-1.72.31q-1.89.12-3.78.12c-1.34,0-2.67,0-4-.08H107c-.12-2.47-.24-4.94-.36-7.46Z"/><path d="M11.44,5.38A1.58,1.58,0,0,1,12.57,3.7a1.48,1.48,0,0,1,.93.06,2.37,2.37,0,0,1,1.41,2.81,1.52,1.52,0,0,1-1.82,1.12,2.06,2.06,0,0,1-.48-.21A2.42,2.42,0,0,1,11.44,5.38Z"/><path d="M5.57,6.7a4.88,4.88,0,0,1,.2-.65,1.21,1.21,0,0,1,1.54-.64A2.05,2.05,0,0,1,8.56,7.88,1.29,1.29,0,0,1,7,8.82a1.24,1.24,0,0,1-.45-.21A2.18,2.18,0,0,1,5.57,6.7Z"/><path d="M213.35,25.89A2.84,2.84,0,1,1,210.52,23h0A2.84,2.84,0,0,1,213.35,25.89Zm-2.84-2.4a2.39,2.39,0,1,0,.31,0h-.31Z"/><path d="M210.93,26.07l.88,1.3c-.36.13-.57.06-.71-.24a6.32,6.32,0,0,0-.33-.56.77.77,0,0,0-1-.39v1.23h-.42v-3H211a.69.69,0,0,1,.64.61.77.77,0,0,1-.35.82Zm-1.13-.35h.9a.48.48,0,0,0,.45-.45.44.44,0,0,0-.44-.44h-.91Z"/></svg>