<svg xmlns="http://www.w3.org/2000/svg" viewBox="0 0 269.22 48.48"><defs><style>.cls-1{fill:#bed10f;}</style></defs><g id="Layer_2" data-name="Layer 2"><g id="Layer_1-2" data-name="Layer 1"><g id="Layer_2-2" data-name="Layer 2"><g id="Layer_1-2-2" data-name="Layer 1-2"><path class="cls-1" d="M140.91,4.31H117.27V.45h31L120.72,43.23h24.64v3.92h-32.2Z"/><path class="cls-1" d="M154.76.45h23.12v4h-19V19.07h19v4h-19V43.11h19v4H154.76Z"/><path class="cls-1" d="M211.44,47.15,195,24.88h-2.53V47.15h-4.26V.45h8.62C207,.45,212,4.64,212,13.19c0,7.31-4.64,11.69-12.07,11.69l16.78,22.27Zm-19-25.73h4.25c7.24,0,10.64-1.73,10.64-8.37s-3.19-8.88-10.64-8.88h-4.25Z"/><path class="cls-1" d="M262,41.39a24.88,24.88,0,0,1-17.49,7.09,24.5,24.5,0,0,1-17.43-7.09,24,24,0,0,1-.39-33.95l.39-.39a25.38,25.38,0,0,1,34.92,0,24,24,0,0,1,.39,34Zm2.76-17.11A20.23,20.23,0,1,0,244.5,44.53a20.23,20.23,0,0,0,20.25-20.25v0Z"/><path d="M11.81,31.68v.78c0,4,2,6.2,5.69,6.2s6.07-2.08,6.07-5.88c0-4.38-2.15-6.26-6.89-6.26-.49,0-1,0-1.45,0V19.07h.64c4.31,0,6.67-2,6.67-5.48a4.83,4.83,0,0,0-4.82-4.84h-.35a4.67,4.67,0,0,0-5.15,4.15,4.4,4.4,0,0,0,0,.89H.91C1.1,5.17,7.19,0,18,0,27.76,0,33.3,4.83,33.3,12.07a9.57,9.57,0,0,1-7.43,9.56c5.86,1,9.21,5.27,9.21,11.48,0,9.09-7.13,15.28-17.46,15.28C6.9,48.39,0,42.13,0,32.33v-.65Z"/><path d="M53.93,21.49c5.41,0,8.22-1,8.22-5.56s-2.93-5.41-8.1-5.41H51.51v11ZM39.56,47.15V.47H53.79C59.67.47,64.31.47,68,2.88c4.12,2.6,6.54,7.47,6.54,13.45S72.21,27.18,68,29.64c-3.21,1.9-6.79,2.11-11.17,2.11H51.51v15.4Z"/><polygon points="78.91 0.47 78.91 47.15 107.45 47.15 107.45 36.25 91.64 36.25 91.64 0.47 78.91 0.47"/></g></g></g></g></svg>