<svg xmlns="http://www.w3.org/2000/svg" xmlns:xlink="http://www.w3.org/1999/xlink" viewBox="0 0 415.01 415.01"><defs><style>.cls-1{fill:none;}.cls-2{isolation:isolate;}.cls-3,.cls-6,.cls-7{fill:#c2d500;}.cls-4{clip-path:url(#clip-path);}.cls-5{fill:#fff;}.cls-6,.cls-7{mix-blend-mode:multiply;}.cls-6{opacity:0.5;}.cls-7{opacity:0.75;}.cls-8{fill:#d50057;}.cls-9{fill:#ffc629;}.cls-10{fill:#4d4d4d;}.cls-11{fill:#666;}.cls-12{fill:#b7b7b7;}</style><clipPath id="clip-path"><circle class="cls-1" cx="207.51" cy="207.51" r="207.51"/></clipPath></defs><g class="cls-2"><g id="Layer_2" data-name="Layer 2"><g id="Layer_1-2" data-name="Layer 1"><circle class="cls-3" cx="207.51" cy="207.51" r="207.51"/><g class="cls-4"><path class="cls-5" d="M291.76,62.61a69.62,69.62,0,1,0,69.62,69.62A69.54,69.54,0,0,0,291.76,62.61Z"/><path class="cls-3" d="M245.66,141.29s4.41-6.63,14.45-10C269.62,128,282,130.18,285,140.3a13.74,13.74,0,0,1-14.64,17.57c-13.17-1.58-13.21-15-24.73-16.58"/><path class="cls-3" d="M334.27,96.42c-8.72-3.3-20.34-5.1-30.82-2-17,5-24.18,22.76-18,32.8A18.19,18.19,0,0,0,315,129.52c8.75-10.25,3.63-21.93,19.26-33.1"/><path class="cls-6" d="M309.43,93.17a57,57,0,0,1,13.35,3.25c-15.63,11.17-10.51,22.85-19.26,33.1a18.43,18.43,0,0,1-8.12,5.6,18,18,0,0,0,19.61-5.6c8.75-10.25,3.63-21.93,19.26-33.1A53.21,53.21,0,0,0,309.43,93.17Z"/><path class="cls-3" d="M290.51,165.23v13.1a2.21,2.21,0,0,0,2.09,2.24,2.15,2.15,0,0,0,2.22-2.15V137.56c0-18.27,9.07-23.19,9.49-23.41a2.15,2.15,0,0,0-1.92-3.85c-.48.23-11.88,6.09-11.88,27.26v17.5c-5.15-8-13.86-14.44-22.29-15.8a2.15,2.15,0,0,0-.69,4.25C276.9,145,287,154.3,290,163.93a7.14,7.14,0,0,0,.46,1.19Z"/><path class="cls-7" d="M290.51,165.23v13.1a2.21,2.21,0,0,0,2.09,2.24,2.15,2.15,0,0,0,2.22-2.15V137.56c0-18.27,9.07-23.19,9.49-23.41a2.15,2.15,0,0,0-1.92-3.85c-.48.23-11.88,6.09-11.88,27.26v17.5c-5.15-8-13.86-14.44-22.29-15.8a2.15,2.15,0,0,0-.69,4.25C276.9,145,287,154.3,290,163.93a7.14,7.14,0,0,0,.46,1.19Z"/><path class="cls-8" d="M273.28,177.92h-66.2v120H315.55v-54L302.9,200.18a30.84,30.84,0,0,0-29.62-22.26"/><path class="cls-5" d="M299.72,243.33l0,0-11.26-38.93A15.88,15.88,0,0,0,273.28,193H222.15l0,0v50.36h0v0h77.56v0Z"/><path class="cls-9" d="M20,117.68H187a20,20,0,0,1,20,20V297.9H0V137.72a20,20,0,0,1,20-20"/><polygon class="cls-5" points="135.72 117.72 135.72 170.66 127.97 162.91 119.85 171.03 111.73 162.91 103.62 171.03 95.49 162.91 87.27 171.03 79.16 162.91 71.32 170.75 71.32 117.72 135.72 117.72"/><path class="cls-10" d="M320.62,297.9v22.64H0V297.9H33.49a45.91,45.91,0,0,1,80.15,0H221.31a45.84,45.84,0,0,1,80.07,0Z"/><path class="cls-11" d="M293.31,320.4a32,32,0,1,1-32-32,32,32,0,0,1,32,32"/><path class="cls-12" d="M274.17,320.4a12.86,12.86,0,1,1-12.85-12.85,12.85,12.85,0,0,1,12.85,12.85"/><path class="cls-11" d="M105.54,320.4a32,32,0,1,1-32-32,32,32,0,0,1,32,32"/><path class="cls-12" d="M86.39,320.4a12.86,12.86,0,1,1-12.85-12.85A12.85,12.85,0,0,1,86.39,320.4"/></g></g></g></g></svg>