<svg xmlns="http://www.w3.org/2000/svg" viewBox="0 0 112.5 75"><g id="Layer_2" data-name="Layer 2"><g id="Layer_1-2" data-name="Layer 1"><g id="layer1"><path id="path12853" d="M5.63,0A5.65,5.65,0,0,0,0,5.63v52.5a5.65,5.65,0,0,0,5.63,5.62H31.91A7.85,7.85,0,0,1,31.67,65a12.34,12.34,0,0,1-4.24,6.26H24.37a1.88,1.88,0,0,0,0,3.75H46.88a1.88,1.88,0,0,0,0-3.75H32.62a14.88,14.88,0,0,0,2.68-5.31,11.51,11.51,0,0,0,.34-2.19H46.88a1.88,1.88,0,1,0,0-3.75H5.63a1.83,1.83,0,0,1-1.88-1.87V48.75H46.88a1.88,1.88,0,1,0,0-3.75H3.75V5.63A1.83,1.83,0,0,1,5.63,3.75H76.88a1.83,1.83,0,0,1,1.87,1.88,1.88,1.88,0,1,0,3.75,0A5.65,5.65,0,0,0,76.88,0Zm52.5,11.24a5.67,5.67,0,0,0-5.63,5.64v52.5A5.65,5.65,0,0,0,58.13,75H80.62a1.88,1.88,0,0,0,0-3.75H58.13a1.83,1.83,0,0,1-1.88-1.87V60H80.62a1.88,1.88,0,0,0,0-3.75H56.25V22.5H93.76v5.63a1.88,1.88,0,0,0,3.75,0V16.88a5.68,5.68,0,0,0-5.63-5.64ZM9.35,15A1.87,1.87,0,0,0,7.5,16.88v3.75a1.88,1.88,0,0,0,3.75,0V16.88A1.88,1.88,0,0,0,9.35,15Zm48.78,0H91.88a1.84,1.84,0,0,1,1.88,1.88v1.87H56.25V16.88A1.84,1.84,0,0,1,58.13,15ZM9.35,26.22A1.88,1.88,0,0,0,7.5,28.13V39.37a1.88,1.88,0,0,0,3.75,0V28.13A1.88,1.88,0,0,0,9.35,26.22Zm52.5,0A1.88,1.88,0,0,0,60,28.13v3.75a1.87,1.87,0,0,0,3.75,0V28.13A1.88,1.88,0,0,0,61.85,26.22Zm30,7.53a5.65,5.65,0,0,0-5.63,5.62v30A5.65,5.65,0,0,0,91.88,75h15a5.65,5.65,0,0,0,5.62-5.62v-30a5.64,5.64,0,0,0-5.62-5.62Zm-30,3.73A1.87,1.87,0,0,0,60,39.37V50.62a1.88,1.88,0,1,0,3.75,0V39.37A1.87,1.87,0,0,0,61.85,37.48Zm30,0h15a1.82,1.82,0,0,1,1.87,1.87v1.89H90V39.37a1.82,1.82,0,0,1,1.87-1.87ZM90,45h18.74V63.75H90ZM39.37,56.26h3.76a1.88,1.88,0,0,0,0-3.75H39.28a1.88,1.88,0,1,0,.09,3.75Zm33.77,7.49a1.88,1.88,0,1,0,0,3.75h3.75a1.88,1.88,0,0,0,0-3.75ZM90,67.5h18.74v1.88a1.82,1.82,0,0,1-1.87,1.87h-15A1.82,1.82,0,0,1,90,69.38Z"/></g></g></g></svg>