<svg xmlns="http://www.w3.org/2000/svg" viewBox="0 0 427.09 427.09"><defs><style>.cls-1{isolation:isolate;}.cls-2{fill:#d50057;}.cls-3{opacity:0.25;}.cls-4{fill:#4d4d4d;}.cls-5,.cls-6{fill:#c2d500;}.cls-6,.cls-8{mix-blend-mode:multiply;}.cls-6{opacity:0.5;}.cls-7,.cls-8{fill:#ffc629;}.cls-8{opacity:0.33;}</style></defs><g class="cls-1"><g id="Layer_2" data-name="Layer 2"><g id="Layer_1-2" data-name="Layer 1"><path class="cls-2" d="M427.09,213.55c0,117.93-95.61,213.54-213.54,213.54S0,331.48,0,213.55A212.59,212.59,0,0,1,42,86.36C80.91,34,143.26,13,213.55,13S346.19,34,385.1,86.36A212.59,212.59,0,0,1,427.09,213.55Z"/><path class="cls-3" d="M397.1,162.63a54.82,54.82,0,0,0-109.63,0h0l.75-.41,47.49,43.72H292.48v20.23h2.61v53.36h94.4V226.17h2.6V205.94H348.85l47.5-43.72.75.41ZM291,160.91a37.48,37.48,0,0,1,32,1.18L338.91,205Zm51.29,45-16.39-44.28a37.51,37.51,0,0,1,32.82,0l-16.4,44.28Zm3.39-.91,15.9-42.94a37.49,37.49,0,0,1,32-1.19Z"/><path class="cls-3" d="M165.18,233.62a54.81,54.81,0,0,0-109.62,0h0l.75-.4,47.5,43.72H60.57v20.22h2.6v53.36h94.4V297.16h2.61V276.94H116.93l47.5-43.72ZM59.07,231.9a37.46,37.46,0,0,1,32,1.19L107,276Zm51.29,45L94,232.66a37.48,37.48,0,0,1,32.82,0l-16.4,44.29Zm3.38-.92,15.9-42.93a37.48,37.48,0,0,1,32-1.19Z"/><path class="cls-4" d="M213.55,257.89,42,100l6-6.55L213.55,245.78,379.09,93.4l6,6.55Z"/><path class="cls-4" d="M213.55,264.67,151.93,98.22l8.36-3.09L213.55,239,266.81,95.13l8.36,3.09Z"/><path class="cls-5" d="M385.87,102.73a117.82,117.82,0,0,0-114.87,0,117.82,117.82,0,0,0-114.88,0h0a117.82,117.82,0,0,0-114.87,0h0q0-8.3.78-16.39a213.56,213.56,0,0,1,343.08,0C385.61,91.74,385.87,97.21,385.87,102.73Z"/><path class="cls-6" d="M165.1,5.52c-6.41,27.5-10.18,60.72-10.22,96.53a117.79,117.79,0,0,0-113.65.68h0c0-5.52.26-11,.78-16.37,0,0,0,0,0,0A213.66,213.66,0,0,1,165.1,5.52Z"/><path class="cls-7" d="M319,270.57V415H114.72q-3.57-4.89-6.66-10.14V270.57Z"/><path class="cls-4" d="M235.33,341.58H191.76a13.64,13.64,0,0,1,0-27.28h43.57a13.64,13.64,0,0,1,0,27.28Z"/><path class="cls-8" d="M108.06,282h12.48V415H108.06Z"/><path class="cls-8" d="M108.06,270.57H319V307h-211Z"/><path class="cls-7" d="M102.24,250.55H324.85v45.2H102.24Z"/><path class="cls-8" d="M102.24,250.55h11.44v45.2H102.24Z"/></g></g></g></svg>