<svg xmlns="http://www.w3.org/2000/svg" viewBox="0 0 82.1 81.77"><g id="Layer_2" data-name="Layer 2"><g id="Layer_1-2" data-name="Layer 1"><path d="M75.69,44.21a6.45,6.45,0,0,0-4.69,2l-2.35,2.47a20.94,20.94,0,0,0-10-8.67A20.84,20.84,0,0,0,71.52,20.82a1.6,1.6,0,0,0-1.6-1.6,20.81,20.81,0,0,0-17.64,9.71V17.54A16.05,16.05,0,0,0,66.71,1.6,1.6,1.6,0,0,0,65.11,0,16,16,0,0,0,50.67,9,16,16,0,0,0,36.24,0a1.6,1.6,0,0,0-1.6,1.6A16.05,16.05,0,0,0,49.07,17.54V28.93a20.81,20.81,0,0,0-17.64-9.71,1.6,1.6,0,0,0-1.6,1.6A20.86,20.86,0,0,0,42.65,40a20.86,20.86,0,0,0-11,10.63c-5.45-3.28-9.67-1.52-14.48.49-4.06,1.7-8.66,3.62-15.6,3.62A1.6,1.6,0,0,0,0,56.38V75.6a1.6,1.6,0,0,0,1.6,1.6c6.82,0,13.13.28,19.29.87a1.6,1.6,0,0,0,.31-3.19c-5.79-.55-11.69-.84-18-.88V58a41.47,41.47,0,0,0,15.23-3.83c5.1-2.13,8.18-3.42,13,.27,1.36,1,3.64,3.59,8.09,3.59H50.67a3.21,3.21,0,1,1,0,6.41h-17a1.6,1.6,0,1,0,0,3.2H52.29a6.43,6.43,0,0,0,4.68-2L73.34,48.43a3.21,3.21,0,0,1,4.92,4.1C68,66.16,61.86,73.63,56.56,76.66c-5,2.83-9.67,2-18.22.59-.87-.15-1.78-.31-2.73-.46A1.6,1.6,0,1,0,35.08,80l2.72.45c8.58,1.46,14.28,2.51,20.36-1,5.81-3.33,11.94-10.71,22.66-25a6.31,6.31,0,0,0,1.28-3.84,6.41,6.41,0,0,0-6.41-6.4ZM68.23,22.5A17.65,17.65,0,0,1,52.36,38.36,17.62,17.62,0,0,1,68.23,22.5ZM63.39,3.32a12.86,12.86,0,0,1-11,11A12.83,12.83,0,0,1,63.39,3.32ZM38,3.32a12.81,12.81,0,0,1,11,11A12.85,12.85,0,0,1,38,3.32ZM33.11,22.5A17.63,17.63,0,0,1,49,38.36,17.67,17.67,0,0,1,33.11,22.5ZM50.67,54.78H39.56a7.48,7.48,0,0,1-5.21-2.19A17.61,17.61,0,0,1,50.3,41.65a1.58,1.58,0,0,0,.75,0,17.7,17.7,0,0,1,15.28,9.48l-9.25,9.68a6.43,6.43,0,0,0-6.41-6Z"/><path d="M29.83,77.2a1.61,1.61,0,1,0-1.61,1.6A1.61,1.61,0,0,0,29.83,77.2Z"/></g></g></svg>