<?xml version="1.0" encoding="UTF-8"?>
<!-- Generator: Adobe Illustrator 27.1.1, SVG Export Plug-In . SVG Version: 6.00 Build 0)  -->
<svg xmlns="http://www.w3.org/2000/svg" xmlns:xlink="http://www.w3.org/1999/xlink" version="1.1" id="Layer_2_00000168098885620107577950000013659223832329899449_" x="0px" y="0px" viewBox="0 0 181.8 57.9" style="enable-background:new 0 0 181.8 57.9;" xml:space="preserve">
<style type="text/css">
	.st0{fill:#FFFFFF;}
</style>
<g id="Layer_1-2">
	<g>
		<path class="st0" d="M124.7,57.9h-3c-0.1-0.3-0.1-0.7,0-1c0.2-2.4,1.4-4.7,3.3-6.2c1-0.9,2.1-1.3,3.4-1.4c0.9-0.1,1.7,0.2,2.5,0.7    c0.4,0.3,0.7,0.6,1.1,0.9c0.3,0.3,0.6,0.5,0.9,0.6c0.9,0.6,2,0.3,2.6-0.5c0.1-0.2,0.2-0.5,0.3-0.6c0.1-0.4,0.1-0.6,0.2-1h2.9    c0,0.7,0,1.2-0.1,1.9c-0.1,1.1-0.4,2.1-0.9,3.1l-0.3,0.4c-1,1.7-2.8,2.7-4.7,2.4c-0.5-0.1-1.1-0.2-1.5-0.4c-0.5-0.1-1-0.4-1.4-0.6    c-1.1-0.6-2.6-0.6-3.7,0c-0.2,0.1-0.4,0.2-0.6,0.4C125,56.7,124.7,57.3,124.7,57.9z"></path>
		<path class="st0" d="M98.2,49c0.2,0.8,0.4,1.4,0.5,2.1c0.4,1.6,0.9,3.3,1.2,5c0.1,0.3,0.1,0.4-0.3,0.5c-0.5,0.1-1,0.2-1.4,0.3    C97.1,57,96.1,57,95,57s-2.3,0-3.4-0.1h-0.5c-0.1-2.1-0.2-4.2-0.4-6.4C90.7,50.5,98.2,49,98.2,49z"></path>
		<path class="st0" d="M0,49.6c2.6-9.9,4.7-20,6.2-30.2l10.7-1.6c0,0.3,0.1,0.5,0.1,0.9c0.3,4,1,7.9,2,11.8c0.5,1.9,1.1,3.8,1.7,5.7    c1,2.8,2.1,5.4,3.5,8l0.4,0.7C24.3,45,17.8,45.1,17,45l-2.7-7.5l-4.5,0.4L8,48.5L0,49.6z M13.1,33.5c-0.1-0.8-2-7.6-2.1-7.9    l-1,7.9H13.1z"></path>
		<path class="st0" d="M89.5,22.9c-4.2,0.4-8.3,1-12.5,1.2l-1.9-5.5l32.4-3.7l-0.5,0.8c-1.4,2-2.8,4-4.3,5.9    c-0.2,0.2-0.4,0.4-0.7,0.4c-1.9,0.1-3.8,0.3-5.7,0.4H96c-0.2,0.6-0.1,2.6,0.3,8.5c0.2,2.8,0.4,5.7,0.6,8.5    c0.3,2.8,0.5,5.6,1.1,8.5l-7.5,1.3C90.1,40.4,89.8,31.7,89.5,22.9z"></path>
		<path class="st0" d="M37.8,20.7l-3.2,4.2c-0.2-0.1-0.3-0.2-0.5-0.2c-0.6-0.3-1.2-0.5-1.9-0.7c-1.8-0.6-3.7,0.5-4.3,2.3l0,0    c-0.1,0.2-0.1,0.5-0.2,0.6c-0.2,1.1-0.2,2,0,3.1c0.2,1.7,0.7,3.4,1.3,5.1c0.2,0.6,0.4,1.1,0.8,1.6c0.5,0.8,1.3,1.1,2.2,1.1    c1,0,1.9-0.3,2.8-0.8c0.3-0.1,0.5-0.3,0.7-0.5l3.5,3.7c-0.8,1-1.6,1.8-2.6,2.5l0.5,1.9l0.4-0.4c0.6-0.9,1.5-1.3,2.6-1.2    c0.8,0,1.4,0.1,2.1,0.4c0.6,0.3,1.1,0.8,1.2,1.3c0.7,1.4,1.3,2.9,2,4.3c0.4,0.9,0.5,1.8,0.3,2.8c-0.8,2.5-2.9,4.2-5.4,4.5    c-0.7,0.1-1.3,0.1-2-0.1c-1.1-0.3-1.9-1-2.3-1.9c-0.2-0.5-0.3-0.8-0.4-1.1c-0.1-0.2,0-0.3,0.1-0.4l3.1-2.6h0.1    c0.2,0.3,0.3,0.7,0.4,1.1c0.1,0.3,0.4,0.6,0.7,0.5c0.4,0.1,0.8-0.2,0.9-0.7V51c0-0.1,0-0.2-0.1-0.4c-0.3-0.8-0.5-1.4-0.8-2.1    c-0.1-0.3-0.2-0.6-0.4-0.9c-0.1-0.2-0.2-0.3-0.4-0.4c-0.3-0.3-0.9-0.3-1.1,0.1l0,0c-0.1,0.2-0.2,0.3-0.2,0.4V48l-3.5,1.1l-1.4-4.9    h-0.7c-1.2,0-2.5-0.3-3.5-0.9c-2.8-1.3-4.9-3.6-5.8-6.6c-0.7-2-1.1-4-1.4-6c-0.2-1.1-0.3-2.4-0.2-3.5c0.1-2.7,1.1-5.2,2.9-7.2    c1.5-1.8,3.8-2.8,6.2-2.7c1.5,0.1,3,0.5,4.3,1.1c1,0.5,1.9,1.1,2.8,1.8C37.7,20.6,37.7,20.7,37.8,20.7L37.8,20.7z"></path>
		<path class="st0" d="M101,25.8c0.5-0.1,5.9,0.3,7.2,0.5v0.5c-0.5,3.2-1.1,6.5-1.5,9.7c-0.2,1.2-0.3,2.6-0.4,4c0,0.3,0,0.7,0.1,1    c0.2,1,1,1.7,1.9,1.8c0.7,0.1,1.3,0.1,2-0.1c1.2-0.3,2.2-1.4,2.3-2.8c0-0.7,0-1.3-0.2-2c-0.7-4.1-1.4-8.2-2.1-12.3    c0-0.2-0.1-0.4-0.1-0.5l7,0.4c0,0.1,0,0.2,0.1,0.3l1.4,10.6c0.2,1.4,0.4,3,0.7,4.4c0.4,2.1-0.6,4.2-2.5,5.3    c-0.5,0.3-1,0.5-1.4,0.7c-1,0.4-2,0.7-3.1,0.9c-1.6,0.4-3.3,0.5-5,0.7c-1.6,0.1-3.2-0.2-4.7-0.9c-0.8-0.5-1.3-1.1-1.9-1.7    c-0.6-1-1-2-1.1-3.1c-0.2-1.3-0.2-2.8,0-4.1c0.3-1.9,0.4-3.8,0.7-5.8c0.3-1.9,0.4-4,0.7-5.9C101,26.7,101,26.2,101,25.8z"></path>
		<path class="st0" d="M140.3,48.5l-7.6-0.4l-1.1-3.8l-4.5,0.4c-0.3,1.2-0.5,2.6-0.7,3.8h-0.5c-1.4-0.3-2.9-0.6-4.3-0.9    c-0.7-0.2-1.3-0.3-2-0.4l-0.4-0.1c2-6.8,3.4-13.9,4.3-20.9l8.7-2.4C134.3,32.3,137,40.6,140.3,48.5z M127.3,40.2h3.2l-2-7.9h-0.1    C127.9,34.9,127.5,37.5,127.3,40.2z"></path>
		<path class="st0" d="M73.4,41.4l-6.2,1.3c-0.5-7.6-1-15.2-1.3-22.8l7-1.1c0,0.1,0.1,0.1,0.1,0.2c1,3.3,2.1,6.7,3.4,9.8    c0.4,0.8,0.8,1.5,1.1,2.4c0.1,0.1,0.2,0.3,0.3,0.4h0.1l-0.4-5.4c2.3-0.4,4.7-0.6,7-1v0.4c-0.1,1.3-0.2,2.7-0.2,4    c-0.2,2.6-0.1,5.2,0.3,7.6c0.1,0.8,0.3,1.5,0.4,2.4V40l-1.9,0.7c-1.3,0.4-2.8,0.6-4.1,1c-0.3,0.1-0.6,0-0.7-0.3    c-1-1.2-1.9-2.5-2.9-3.6l-2.4-3c0,1.1,0.1,2.3,0.3,3.4C73.1,39.1,73.3,40.3,73.4,41.4z"></path>
		<path class="st0" d="M175.4,41.5c0.4,1.9,0.7,3.7,1.1,5.6c-3,0.3-5.9,0.5-8.8,0.9c-2.9,0.4-5.8,1-8.7,1.4c0-0.1,0-0.1-0.1-0.2    c-0.2-2-0.4-4-0.5-6c-0.2-2.8-0.4-5.5-0.5-8.3c-0.2-2.3-0.3-4.7-0.4-7v-0.2l16.1-1.6l1.1,5.7c-1.7,0.1-3.3,0.2-5,0.4    s-3.2,0.4-4.9,0.5c-0.2,1.1-0.2,2-0.2,3.1l5.8-0.9c0.3,1.3,0.5,2.8,0.8,4.2l-6.3,1L165,43l5.1-0.6L175.4,41.5L175.4,41.5z"></path>
		<path class="st0" d="M62.9,31.8l-6.2,1l0.1,2.9l7.7-1.1l1.1,5.6c-2.5,0.2-5,0.5-7.5,0.9l-7.5,1.2C49.8,35,49.5,27.8,49,20.5    L62.8,19c0.4,1.9,0.8,3.7,1.1,5.6l-7.5,0.7c-0.2,1.1-0.3,2-0.2,3.1l5.8-0.9C62,27.5,62.9,31.8,62.9,31.8z"></path>
		<path class="st0" d="M113.2,12.3l-7.3,0.8L107.8,0l1.7,0.3l8.4,1.2c0.7,0.1,1.4,0.3,2.1,0.4c0.2,0,0.4,0.2,0.4,0.4l1.5,7.5    c0.2,0.7,0.3,1.3,0.4,2c0.1,0.2,0,0.5-0.2,0.6l-5.1,4.3c-2,1.8-4.1,3.5-6.2,5.4c-0.2,0.2-0.5,0.3-0.7,0.2l-4.3-0.5    c-0.2,0-0.4,0-0.5-0.1C108.1,18.6,110.7,15.4,113.2,12.3z M113.2,6.1c0-1-0.7-1.7-1.6-1.8h-0.2c-1,0-1.7,0.8-1.8,1.7v0.1    c0,1,0.8,1.7,1.7,1.8h0.1C112.4,7.8,113.2,7,113.2,6.1z"></path>
		<path class="st0" d="M143.9,31.9l-7.4,0.9l-1.4-5.8l20.3-1.7c0.1,1.9,0.1,3.7,0.1,5.7l-5.1,0.4v0.5c0,1.6,0.1,3.2,0.4,4.8    c0.2,1.5,0.4,3.2,0.6,4.7c0.3,2,0.6,3.9,1,5.9v0.3l-7.4,1.3L143.9,31.9L143.9,31.9z"></path>
		<path class="st0" d="M48.4,23.7L45.7,27l-0.4-0.2c-0.6-0.3-1.1-0.5-1.8-0.6c-1.3-0.3-2.8,0.6-3.2,1.9c-0.2,0.5-0.3,1.1-0.3,1.6    c0,0.9,0.1,1.8,0.5,2.7c0.3,0.7,0.7,1.2,1.1,1.8c0.8,0.7,1.8,1,2.8,0.6c0.4-0.2,0.9-0.4,1.3-0.6c0.1-0.1,0.3-0.2,0.4-0.3l2.9,3    c-2,2.7-5.1,4-8.3,2.5c-2.3-1.1-4.1-3.1-5.1-5.4c-1.1-2.6-1.1-5.4-0.1-8.1c0.4-1.1,1.1-2.2,2-3.1c1.5-1.5,3.7-2.2,5.8-1.7    C45.3,21.5,47,22.4,48.4,23.7z"></path>
		<path class="st0" d="M18.5,15l-1.7,0.4c-0.8,0.2-1.5,0.4-2.2,0.5c-0.3,0.1-0.5,0-0.7-0.2c-1.1-1-2.2-1.9-3.2-2.9l-0.3-0.2    c-0.1,0.1-0.2,0.2-0.3,0.4c-0.6,1.1-1.1,2-1.9,3.1c-0.1,0.2-0.3,0.4-0.5,0.4c-1.1,0.3-2.4,0.5-3.5,0.7c-0.2,0-0.3,0-0.5,0.1    C4,16.6,4.3,16,4.6,15.4C5.3,13.7,6,12,6.8,10.3C6.9,10,7.1,9.8,7.4,9.8c1.4-0.5,2.9-1.1,4.3-1.5l0.4-0.2L18.5,15z"></path>
		<path class="st0" d="M9.8,4.5c-0.1-0.7,0.3-1.2,1-1.4C11.1,3,11.4,3,11.6,3.2c1,0.4,1.4,1.4,1.1,2.4c-0.2,0.7-0.9,1.1-1.5,1l0,0    c-0.2,0-0.3-0.1-0.4-0.2C10.1,6,9.7,5.3,9.8,4.5z"></path>
		<path class="st0" d="M4.7,5.7c0.1-0.2,0.1-0.4,0.2-0.5C5.1,4.7,5.6,4.5,6,4.6h0.2c0.9,0.3,1.3,1.2,1.1,2.1C7.1,7.3,6.5,7.7,6,7.5    l0,0c-0.1,0-0.3-0.1-0.4-0.2C5,6.9,4.7,6.4,4.7,5.7z"></path>
		<path class="st0" d="M181.8,22c0,1.3-1.1,2.4-2.4,2.4l0,0c-1.3,0-2.4-1.1-2.4-2.4v-0.1c0-1.3,1.1-2.4,2.4-2.4l0,0    C180.7,19.6,181.8,20.7,181.8,22z M179.3,19.9c-1.1,0.1-1.9,1.1-1.9,2.1l0,0c0.1,1.1,1.1,1.9,2.2,1.8c1.1-0.1,1.9-1.1,1.8-2.1    c-0.1-1.1-0.9-1.8-1.9-1.9L179.3,19.9L179.3,19.9L179.3,19.9z"></path>
		<path class="st0" d="M179.8,22.2l0.8,1.1c-0.4,0.1-0.5,0.1-0.6-0.2l-0.3-0.5c-0.1-0.3-0.4-0.5-0.7-0.4h-0.2v1.1h-0.4v-2.6h1.4    c0.3,0,0.5,0.2,0.5,0.5c0.1,0.3-0.1,0.5-0.3,0.7L179.8,22.2z M178.7,21.8h0.8c0.2,0,0.3-0.2,0.3-0.4s-0.1-0.3-0.3-0.3h-0.8    C178.7,21.1,178.7,21.8,178.7,21.8z"></path>
	</g>
</g>
</svg>
