<?xml version="1.0" encoding="UTF-8"?>
<!-- Generator: Adobe Illustrator 27.1.1, SVG Export Plug-In . SVG Version: 6.00 Build 0)  -->
<svg xmlns="http://www.w3.org/2000/svg" xmlns:xlink="http://www.w3.org/1999/xlink" version="1.1" id="Layer_2_00000152976605726153178790000008490296901307423136_" x="0px" y="0px" viewBox="0 0 151.3 64.4" style="enable-background:new 0 0 151.3 64.4;" xml:space="preserve">
<style type="text/css">
	.st0{fill:#FFFFFF;}
</style>
<g id="Layer_1-2">
	<g>
		<g id="ysPerb">
			<path class="st0" d="M123.2,64.2c-0.5-0.1-1-0.3-1.3-0.6c-0.4-0.5-1-1.1-0.9-1.6c0.2-0.6,0.7-1.1,1.2-1.4c0.9-0.3,1.7-0.3,2.6,0     c1.6,0.6,3.5,0,4.5-1.4c1.1-1.4,2.2-3.1,3.2-4.7c1-1.9,1.8-3.7,2.7-5.7c0.5-1.1,0.5-2.2,0-3.2c-2.6-6.7-5-13.2-7.5-19.9     c-0.2-0.4-0.4-0.9-0.6-1.2c-0.6-1.2-1.8-2-3.2-2c-1.5,0-2.4,0.7-2.8,2.1c-1.4,5-3,9.8-4.3,14.8c-0.3,1-0.5,1.9-0.5,3     c-0.1,2.1,1,3.2,3.2,3.1c0.9-0.1,1.6-0.3,2.5-0.5c0.3-0.1,0.6-0.1,0.9-0.2c0,0.1,0.1,0.2,0.1,0.3c-0.1,0.2-0.3,0.3-0.5,0.4     c-1.4,0.7-3,1.3-4.4,1.9c-1.1,0.3-2.1,0.4-3.2,0.3c-1.4,0-2.7-1.2-2.7-2.8v-0.3c0-1.1,0.2-2,0.5-3.1c1.7-5.8,3.5-11.8,5.3-17.6     c0.1-0.5,0.3-0.9,0.4-1.3h-3c0-0.9,0.3-1.3,1.1-1.3c2.2-0.1,2.4-0.1,2.8-2.2c0.6-2,1-4,1.1-6.1c0.2-2.6-1.4-3.9-3.9-3.9     c-1.3,0-2.7,0.3-3.9,0.8c-4.4,1.8-7.8,6.8-7.7,11.4c0,1.5,0.5,3.1,1.4,4.2c0.7,0.9,1.5,1.2,2.1,0.9c0.6-0.4,0.4-1.4-0.4-2.3     c-0.4-0.4-0.7-0.9-0.9-1.3c1.4,0.5,2.5,1.5,3.1,3c0.3,0.8,0.1,1.5-0.5,2.1s-1.4,0.7-2.1,0.3c-0.9-0.5-1.5-1.1-2.1-1.8     c-0.6-1-1-1.9-1.3-3c-0.2-0.9-0.6-1.2-1.3-1.2c-1.3,0-2.8,0.1-4,0.5c-2.1,0.8-3.2,3-2.4,5.1c0.3,0.8,0.8,1.4,1.4,1.9     c1,0.7,1.9,1.1,2.9,1.6c2.4,1,4.7,2.2,6.8,3.8c2,1.6,3,4.2,2.7,6.7c-0.2,2.8-2.3,5.2-5,5.7c-2.9,1-6,0.8-8.8-0.7     c-1.4-0.7-2.5-1.8-3.2-3.2c-0.4-0.8,0-1.7,0.8-2.2h0.1c0.9-0.4,1.5,0,2.1,1c0.7,1.1,1.5,2.3,2.4,3.3c1.9,1.9,5,1.9,6.9,0     s1.9-5,0-6.9c-0.1-0.1-0.2-0.1-0.2-0.2c-1.5-1.4-3.3-2.5-5.3-3.2c-1.1-0.5-2.2-1-3.3-1.4c-4.3-2-4.3-7.6-1.7-10.4     c2.1-2.2,4.7-2.8,7.6-2.4c0.3,0.1,0.6,0.1,0.9,0.2c0.2-1,0.2-2,0.4-2.8c1.4-6.6,7.1-11.4,13.8-11.8c3.9-0.2,6.2,2,6.3,5.9     c0,2.7-0.5,5.3-1.3,7.7c-0.1,0.4-0.2,0.8-0.3,1.2h12c0,0.1,0.1,0.2,0.1,0.3c-0.3,0.1-0.5,0.3-0.8,0.3c-1.9,0.7-2.3,1.4-1.7,3.2     c0.9,2.7,2,5.4,3,8.1c1.1,2.8,2.1,5.6,3.2,8.5c0.1,0.2,0.2,0.5,0.3,0.8c0.3-0.9,0.7-1.4,0.9-2.1c1.7-4.7,3.5-9.5,5.2-14l0.3-0.9     c0.5-2,0-2.8-2-3.4c-0.5-0.1-0.9-0.2-1.3-0.4c0-0.1,0.1-0.2,0.1-0.3h9.4c0,0.1,0.1,0.2,0.1,0.3c-0.2,0.2-0.3,0.4-0.6,0.4     c-1.6,0.4-3,1.5-3.6,3.1c-1.2,2.8-2.5,5.4-3.6,8.2c-3.8,7.2-6.8,14.7-10,22.2c-0.4,0.9-0.9,1.7-1.3,2.6c-1.5,2.7-3.5,5-6.6,5.9     C124.9,64.3,124.1,64.1,123.2,64.2L123.2,64.2z"></path>
			<path class="st0" d="M42.9,0l0.3,1.4v23.9c0.2,0.1,0.3,0.3,0.5,0.3c0.1-0.4,0.3-0.7,0.6-1c1.8-1.9,4.1-3.2,6.6-3.7     c4.9-1,8.6,1.5,9.4,6.4c0.2,1.2,0.3,2.6,0.3,3.9c0.1,3.9,0,7.9,0.2,12c0.1,2.8,2.8,4.1,5.3,2.7c0.8-0.5,1.2-1.2,1.2-2.2     c0.1-0.8,0.2-1.5,0.2-2.4c0-4.9,0-9.7-0.1-14.5c-0.1-2.4-0.6-2.8-3-3.4l-0.9-0.3c0.2-0.1,0.5-0.3,0.7-0.4c2-0.6,3.9-1.1,5.7-1.6     c1-0.3,1.1-0.2,1.1,0.9c0,1.2,0,2.5,0.2,3.8c0.2-0.2,0.3-0.5,0.4-0.8c0.7-1.2,1.4-2.3,2.3-3.3c1.1-1.1,2.7-1.6,4.1-1.1     c1.1,0.2,1.8,1.1,2,2.1c0.1,1.1-0.5,2.1-1.4,2.7c-0.5,0.4-1.1,0.3-1.5-0.2c0,0,0-0.1-0.1-0.1c-1.4-1.5-2.8-1.4-4.1,0.3     c-1.3,1.5-2,3.5-1.9,5.6c0.2,3.5,0.1,7,0.1,10.5c0,0.7,0,1.3,0.1,2c0.3,2.2,0.9,2.8,3.2,3.2c0.6,0.1,1.2,0.2,1.9,0.3     c0,0.1,0,0.2-0.1,0.3H52.8c0.2-0.2,0.4-0.4,0.7-0.5l1.2-0.3c1.2-0.3,2.1-1.3,2.2-2.6c0.1-0.4,0.1-0.7,0.1-1.1     c0-4.5,0.1-9.1-0.2-13.7c-0.2-3.8-2.7-5.9-6.4-5.9c-1.5,0.1-3.1,0.7-4.3,1.6c-1.9,1.2-3,2.7-2.8,5.2c0.3,4.4,0.1,9,0.3,13.4     c0.1,2.1,0.8,2.7,2.8,3.2c0.4,0.1,0.7,0.2,1.1,0.3c0,0.1-0.1,0.2-0.1,0.3H35.5c0.2-0.2,0.4-0.4,0.7-0.5c0.4-0.1,0.7-0.2,1.1-0.2     c1.5-0.1,2.7-1.3,2.7-2.8c0.1-0.8,0.2-1.5,0.2-2.3V7.5c0-0.8-0.1-1.6-0.2-2.4c0-1.3-1-2.4-2.3-2.6c-0.7-0.1-1.2-0.3-1.8-0.6     C38.3,1.2,40.6,0.7,42.9,0C42.4,0.1,42.6,0,42.9,0L42.9,0z"></path>
			<path class="st0" d="M0.1,26.3l0.5-2.7c1.9-8,7.1-12.9,14.8-15.3C21,6.7,26.6,7.1,32.1,8.5c0.8,0.2,1.4,0.9,1.5,1.6     c0.3,2.4,0.7,4.7,1,7c-0.7,0.3-0.9,0.2-1.1-0.4c-0.3-0.8-0.6-1.5-0.9-2.3c-1.8-3.8-5-5.6-9-5.9c-2.2-0.3-4.5-0.1-6.7,0.5     c-5.6,1.6-9.1,5.6-10.8,11.2c-2.1,7.3-1.4,14.1,3,20.4c3.8,5.4,10.7,7.7,17.1,5.7c2.9-1.1,5.3-3.1,6.7-5.6l1.4-2.5     c0.2-0.2,0.5-0.3,0.8-0.4c0.1,0.3,0.3,0.6,0.2,0.8c-0.9,2.3-1.5,4.5-2.5,6.7c-0.3,0.7-0.9,1.1-1.5,1.4c-6.3,1.5-12.7,2.3-19-0.2     C5.1,43.7,1.2,38.4,0.2,30.9C0.2,30.6,0,30.3,0,30C0.1,28.8,0.1,27.5,0.1,26.3z"></path>
			<path class="st0" d="M91.8,46.9H79.7c0-0.1-0.1-0.1-0.1-0.2c0.2-0.1,0.4-0.3,0.6-0.3c2.8-0.4,3.7-1.1,3.7-4.5V27.4     c0-0.6-0.1-1.1-0.2-1.6c0-1-0.7-1.8-1.5-2.1c-0.2-0.1-0.4-0.3-0.4-0.6c0-0.2,0.3-0.4,0.5-0.5c1.4-0.5,2.8-0.9,4.3-1.4     c0.8-0.3,1.1,0,1.1,0.8v19.3c0,0.8,0,1.4,0.1,2.2c0.2,1.9,1,2.7,2.8,3.1c0.5,0.1,1,0.2,1.4,0.3C92,46.9,91.8,46.9,91.8,46.9z"></path>
			<path class="st0" d="M87.8,11.5c0,1.3-1.1,2.5-2.4,2.6h-0.2c-1.4,0.1-2.7-1.1-2.7-2.5c-0.1-1.4,1.1-2.7,2.5-2.7h0.3     C86.7,8.9,87.9,10.1,87.8,11.5C87.8,11.5,87.8,11.5,87.8,11.5z"></path>
		</g>
		<path class="st0" d="M43.9,55.5c0.1,0,0.2-0.1,0.3-0.2c0.2-0.2,0.2-0.5,0-0.7l0,0c-0.1-0.1-0.2-0.1-0.3-0.1h-5.1    c-0.3,0-0.5,0.2-0.5,0.4v7.8c0,0.3,0.2,0.5,0.4,0.5h5.2c0.1,0,0.2-0.1,0.3-0.2c0.1-0.1,0.2-0.2,0.2-0.3s-0.1-0.2-0.2-0.3    c-0.1-0.1-0.2-0.2-0.3-0.2h-4.7v-2.8h3.4c0.3,0.1,0.5-0.1,0.6-0.4s-0.1-0.5-0.4-0.6h-3.6v-3C39.2,55.4,43.9,55.5,43.9,55.5z"></path>
		<path class="st0" d="M56,54.8c-0.1,0.1-0.2,0.2-0.2,0.3v6.4l-5.3-6.7c-0.2-0.2-0.5-0.2-0.7,0l0,0c-0.1,0.1-0.2,0.2-0.2,0.3v7.7    c0,0.1,0.1,0.3,0.2,0.3c0.2,0.2,0.5,0.2,0.7,0l0,0c0.1-0.1,0.2-0.2,0.2-0.3v-6.4l5.2,6.7c0.1,0.1,0.1,0.1,0.2,0.1h0.2    c0.1,0,0.2-0.1,0.3-0.2c0.1-0.1,0.2-0.2,0.2-0.3V55c0-0.1-0.1-0.3-0.2-0.3C56.3,54.6,56,54.6,56,54.8z"></path>
		<path class="st0" d="M64.2,56.5c0.3-0.3,0.7-0.6,1.1-0.9c0.8-0.3,1.6-0.4,2.5-0.1c0.4,0.1,0.7,0.3,0.9,0.6l0.1,0.1l0.1,0.1    c0.2,0.1,0.3,0,0.5-0.2s0.1-0.2,0.1-0.3s-0.1-0.3-0.2-0.3c-0.4-0.3-0.9-0.6-1.3-0.8c-0.5-0.2-1-0.3-1.4-0.3    c-0.6,0-1.1,0.1-1.7,0.3c-0.5,0.3-1,0.6-1.4,1s-0.7,0.9-0.9,1.4c-0.8,1.6-0.4,3.5,1,4.8c0.4,0.4,0.9,0.8,1.4,1s1.1,0.3,1.6,0.3    s1-0.1,1.4-0.2c0.5-0.2,1-0.4,1.3-0.8c0.1-0.1,0.1-0.1,0.1-0.2l0,0v-3.2c0-0.3-0.2-0.5-0.4-0.5h-0.1c-0.3,0-0.5,0.2-0.5,0.4v0.1    l0,0v3c-0.3,0.2-0.6,0.3-0.9,0.4c-0.8,0.3-1.6,0.2-2.5-0.1c-0.4-0.2-0.8-0.4-1.1-0.8c-0.3-0.4-0.6-0.8-0.8-1.1    c-0.2-0.5-0.3-1-0.3-1.4s0.1-0.9,0.3-1.3C63.5,57.1,63.9,56.8,64.2,56.5z"></path>
		<path class="st0" d="M80.1,62.4h-4.3v-7.3c0-0.1-0.1-0.3-0.2-0.3c-0.2-0.2-0.5-0.2-0.7,0l0,0c-0.1,0.1-0.2,0.2-0.2,0.3v7.8    c0,0.3,0.2,0.5,0.4,0.5h4.8c0.2,0,0.3,0,0.3-0.1s0.2-0.2,0.2-0.3s-0.1-0.2-0.2-0.3C80.2,62.5,80.2,62.4,80.1,62.4L80.1,62.4z"></path>
		<path class="st0" d="M89,54.9c-0.1-0.2-0.2-0.3-0.4-0.3s-0.3,0.1-0.4,0.3L85,62.5c-0.1,0.1-0.1,0.3,0,0.4c0.1,0.2,0.3,0.2,0.4,0.3    c0.1,0,0.2,0,0.3-0.1c0.1-0.1,0.2-0.1,0.2-0.3l0.8-1.8h4.2l0.8,1.8c0.1,0.1,0.1,0.2,0.2,0.3s0.2,0.1,0.3,0.1    c0.2,0,0.3-0.1,0.4-0.3c0.1-0.1,0.1-0.3,0-0.4C92.6,62.5,89,54.9,89,54.9z M86.8,60.2l1.7-4.1l1.7,4.1    C90.2,60.2,86.8,60.2,86.8,60.2z"></path>
		<path class="st0" d="M103.4,54.8c-0.1,0.1-0.2,0.2-0.2,0.3v6.4l-5.3-6.7c-0.2-0.2-0.5-0.2-0.7,0l0,0C97.1,54.9,97,55,97,55.1v7.7    c0,0.1,0.1,0.3,0.2,0.3c0.2,0.2,0.5,0.2,0.7,0l0,0c0.1-0.1,0.2-0.2,0.2-0.3v-6.4l5.2,6.7c0.1,0.1,0.1,0.1,0.2,0.1h0.2    c0.1,0,0.2-0.1,0.3-0.2c0.1-0.1,0.2-0.2,0.2-0.3V55c0-0.1-0.1-0.3-0.2-0.3C103.9,54.6,103.6,54.6,103.4,54.8z"></path>
		<path class="st0" d="M116.5,57.2c-0.3-0.5-0.6-1-0.9-1.4c-0.4-0.4-0.9-0.7-1.4-0.9c-0.6-0.2-1.1-0.3-1.7-0.3h-2    c-0.1,0-0.2,0-0.3,0.1c-0.1,0.1-0.2,0.2-0.2,0.3v7.7c0,0.3,0.2,0.5,0.4,0.5h2.1c0.6,0,1.1-0.1,1.7-0.3c0.5-0.3,1-0.6,1.4-0.9    c0.8-0.9,1.1-2,1.1-3.2C116.9,58.3,116.8,57.7,116.5,57.2z M116,59c0.1,1.2-0.5,2.4-1.6,3.1c-0.6,0.4-1.1,0.5-1.8,0.5h-1.4v-7h1.4    c0.7,0,1.2,0.2,1.8,0.5c0.5,0.3,1,0.8,1.2,1.2C115.9,57.7,116,58.3,116,59L116,59z"></path>
		<path class="st0" d="M143.6,43.4L143.6,43.4l-0.1-0.2h3v0.2H143.6z M145,47L145,47l-0.2-0.2V43h0.3v3.9    C145.1,46.9,145.1,46.9,145,47L145,47z"></path>
		<path class="st0" d="M147.3,47L147.3,47l-0.2-0.2v-3.6c0-0.1,0-0.1,0.1-0.1l0.1-0.1c0.1,0,0.1,0,0.2,0.1l1.7,3.4H149l1.7-3.3    c0-0.1,0.1-0.1,0.2-0.1s0.1,0,0.1,0.1v3.7l-0.1,0.1c-0.1,0-0.1,0-0.1-0.1h-0.1v-3.2h0.1l-1.5,3.2c0,0.1-0.1,0.1-0.2,0.1    s-0.1,0-0.2-0.1l-1.6-3.2h0.1L147.3,47C147.4,46.9,147.4,46.9,147.3,47z"></path>
	</g>
</g>
</svg>
