<?xml version="1.0" encoding="UTF-8"?>
<!-- Generator: Adobe Illustrator 27.1.1, SVG Export Plug-In . SVG Version: 6.00 Build 0)  -->
<svg xmlns="http://www.w3.org/2000/svg" xmlns:xlink="http://www.w3.org/1999/xlink" version="1.1" id="Layer_2_00000013192707406165532830000013326433557578697369_" x="0px" y="0px" viewBox="0 0 181.6 34.3" style="enable-background:new 0 0 181.6 34.3;" xml:space="preserve">
<style type="text/css">
	.st0{fill:#FFFFFF;}
</style>
<g id="Layer_1-2">
	<g>
		<path class="st0" d="M61.5,7.1l-3-1.9C58.3,5,58,5.1,57.8,5.3v0.1c-0.1,0.1-0.1,0.2-0.1,0.3v20.6c0,0.3,0.3,0.5,0.5,0.5h3    c0.3,0,0.5-0.3,0.5-0.5l0,0V7.4C61.7,7.3,61.6,7.2,61.5,7.1z"></path>
		<path class="st0" d="M78.3,16.4C78,15.5,77.5,14.7,77,14c-0.7-0.7-1.4-1.2-2.4-1.6s-2-0.6-3.2-0.6c-1.1,0-2.1,0.2-3.1,0.6    c-1.8,0.8-3.2,2.3-4,4.1c-0.4,1-0.6,2-0.6,3.1s0.2,2.1,0.6,3.2c0.8,1.8,2.2,3.3,4.1,4.1c2.1,0.8,4.4,0.8,6.5-0.1    c0.3-0.1,0.6-0.3,0.9-0.5c0.7-0.4,1.2-1,1.7-1.5c0.2-0.2,0.2-0.5,0-0.7l-1.8-1.8c-0.2-0.2-0.5-0.2-0.7,0v0.1    c-0.3,0.4-0.6,0.8-1.1,1.1c-0.7,0.5-1.4,0.7-2.3,0.6c-0.5,0-1-0.1-1.3-0.2c-0.4-0.2-0.9-0.4-1.2-0.6c-0.4-0.3-0.7-0.7-1-1.1    c-0.3-0.5-0.5-1.1-0.5-1.5h10.5c0.3,0,0.5-0.3,0.5-0.5l0,0C78.7,18.7,78.6,17.5,78.3,16.4z M67.9,17.6c0.3-0.8,0.8-1.5,1.3-2    c0.7-0.5,1.4-0.8,2.3-0.7c0.6,0,1.1,0.1,1.5,0.3s0.8,0.4,1.1,0.7c0.3,0.3,0.5,0.6,0.7,0.9c0.2,0.3,0.3,0.6,0.3,0.9    C75.1,17.7,67.9,17.6,67.9,17.6z"></path>
		<path class="st0" d="M164.3,7.1l-3-1.9c-0.2-0.2-0.5-0.1-0.7,0.1v0.1c-0.1,0.1-0.1,0.2-0.1,0.3v20.6c0,0.3,0.3,0.5,0.5,0.5h3    c0.3,0,0.5-0.3,0.5-0.5V7.4C164.6,7.3,164.5,7.2,164.3,7.1z"></path>
		<path class="st0" d="M92.3,13.3c-1.5-1.1-3.3-1.7-5.2-1.5c-2.3-0.1-4.5,0.9-6,2.5c-0.2,0.2-0.2,0.5,0,0.7l0.1,0.1h0.1l2,1.3    c0.2,0.2,0.5,0.1,0.7-0.1c0.8-0.9,1.9-1.4,3.2-1.3c0.9,0,1.6,0.3,2.3,0.8c0.6,0.5,1,1.1,1,1.9v0.5C90,18,89.4,17.9,89,17.7    c-0.8-0.2-1.5-0.3-2.3-0.3s-1.6,0.1-2.4,0.4c-0.7,0.2-1.3,0.6-1.8,1.1s-1,1-1.3,1.5c-0.3,0.7-0.5,1.3-0.4,2.1    c0,0.7,0.2,1.4,0.4,2.1c0.3,0.6,0.7,1.1,1.1,1.5s1.1,0.8,1.7,1.1c0.7,0.3,1.4,0.4,2.2,0.4c0.9,0,1.7-0.2,2.5-0.6    c0.7-0.4,1.2-0.9,1.6-1.4h0.3l2.5,1.4c0.1,0.1,0.2,0.1,0.3,0.1H94c0.3,0,0.5-0.3,0.5-0.5v-8.3C94.2,16.3,93.5,14.6,92.3,13.3    L92.3,13.3z M89.9,22.2c-0.2,0.4-0.4,0.8-0.7,1.1c-0.7,0.7-1.6,1.1-2.6,1.1c-0.6,0-1.2-0.2-1.7-0.5s-0.8-0.9-0.7-1.4    c0-0.6,0.3-1.1,0.8-1.4c0.7-0.5,1.4-0.7,2.2-0.6c0.5,0,1.1,0.1,1.5,0.2c0.5,0.2,1,0.4,1.3,0.5C90.2,21.3,90.1,21.8,89.9,22.2    L89.9,22.2L89.9,22.2z"></path>
		<path class="st0" d="M106.2,12.1c-0.2-0.1-0.4-0.2-0.5-0.2c-0.9-0.2-1.7-0.2-2.6,0c-0.4,0.2-0.8,0.4-1.2,0.5l-1.1,0.8    c-0.3,0.3-0.5,0.6-0.7,1h-0.3v-1.5c0-0.3-0.3-0.5-0.5-0.5h-2.7c-0.3,0-0.5,0.3-0.5,0.5v13.7c0,0.3,0.3,0.5,0.5,0.5h3    c0.3,0,0.5-0.3,0.5-0.5v-6.7c0-0.6,0.1-1.1,0.3-1.6c0.2-0.5,0.4-1,0.7-1.3c0.3-0.4,0.7-0.7,1.1-0.9s1-0.3,1.4-0.4    c0.4,0,0.7,0,1.1,0.1c0.2,0,0.3,0.1,0.5,0.2c0.2,0.1,0.4,0.1,0.4-0.1l0.9-2.9C106.6,12.5,106.5,12.3,106.2,12.1z"></path>
		<path class="st0" d="M158.5,15.5c-0.5-1.1-1.3-1.9-2.3-2.5c-1.2-0.8-2.8-1.1-4.2-1.1c-1.1,0-2.1,0.2-3.2,0.6    c-1.8,0.8-3.3,2.2-4.1,4.1c-0.4,1-0.6,2-0.6,3.2c0,1.1,0.2,2.1,0.6,3.2c0.4,1,1,1.8,1.6,2.5c0.7,0.7,1.5,1.2,2.4,1.6    c2,0.8,4.2,0.8,6.2,0c0.4-0.2,0.9-0.4,1.2-0.6c0.6-0.4,1.1-0.9,1.5-1.4c0.2-0.2,0.2-0.5,0-0.7l-2-2c-0.2-0.2-0.5-0.2-0.7,0    c0,0,0,0.1-0.1,0.1c-0.3,0.4-0.6,0.8-1.1,1.1c-0.7,0.4-1.3,0.6-2.1,0.5c-0.5,0-1.1-0.1-1.4-0.4c-0.5-0.2-0.9-0.5-1.2-0.9    c-0.4-0.4-0.7-0.9-0.9-1.3c-0.5-1.1-0.5-2.4,0-3.4c0.5-1.5,1.9-2.5,3.4-2.4c0.7,0,1.4,0.2,2,0.5c0.5,0.3,0.9,0.7,1.1,1.1    c0.1,0.2,0.5,0.4,0.6,0.3l2.7-1.1C158.5,16,158.6,15.8,158.5,15.5C158.5,15.5,158.5,15.5,158.5,15.5z"></path>
		<path class="st0" d="M181.6,19.9c0-1.2-0.1-2.4-0.5-3.5c-0.3-0.9-0.8-1.7-1.3-2.4c-0.7-0.7-1.4-1.2-2.3-1.6c-1-0.4-2-0.6-3.2-0.6    c-1.1,0-2.1,0.2-3.1,0.6c-1.8,0.8-3.2,2.3-4,4.1c-0.4,1-0.6,2-0.6,3.1s0.2,2.1,0.6,3.2c0.8,1.8,2.2,3.3,4.1,4.1    c2.1,0.8,4.4,0.8,6.5-0.1c0.3-0.1,0.6-0.3,0.9-0.5c0.7-0.4,1.2-1,1.7-1.5c0.2-0.2,0.2-0.5,0-0.7l-1.8-1.8c-0.2-0.2-0.5-0.2-0.7,0    v0.1c-0.3,0.4-0.6,0.8-1.1,1.1c-0.7,0.5-1.4,0.7-2.3,0.6c-0.5,0-1-0.1-1.4-0.2c-0.4-0.2-0.9-0.4-1.2-0.6c-0.4-0.3-0.7-0.7-1-1.1    c-0.3-0.5-0.5-1.1-0.5-1.5h10.5C181.5,20.4,181.7,20.2,181.6,19.9L181.6,19.9L181.6,19.9z M170.7,17.6c0.3-0.8,0.8-1.5,1.3-2    c0.7-0.5,1.4-0.8,2.3-0.7c0.6,0,1.1,0.1,1.5,0.3s0.8,0.4,1.1,0.7s0.5,0.6,0.7,0.9c0.2,0.3,0.3,0.6,0.3,0.9L170.7,17.6L170.7,17.6z    "></path>
		<path class="st0" d="M55.5,23.2l-2.6-1.5c-0.2-0.1-0.5-0.1-0.6,0.1c-0.5,0.4-1.1,0.8-1.5,1.1c0,0-0.1,0-0.1,0.1l0,0    c-1,0.5-2,0.7-3.2,0.7c-1,0-1.9-0.2-2.8-0.5s-1.6-0.9-2.3-1.4c-0.7-0.7-1.2-1.4-1.5-2.3c-0.4-1-0.6-2-0.6-3.1s0.2-2.1,0.5-3.1    c0.4-0.9,0.9-1.7,1.5-2.4c0.7-0.6,1.4-1.1,2.3-1.4c1-0.4,1.9-0.6,2.9-0.5c1.1,0,2,0.2,3,0.7c0.7,0.4,1.3,0.9,1.8,1.3    c0.2,0.2,0.6,0.2,0.8,0l0,0l2.1-2c0.2-0.2,0.2-0.5,0-0.7c-0.9-1-1.9-1.7-3.2-2.3c-1.4-0.6-3-0.9-4.5-0.9C41.4,5,36.4,10,36.3,16    v0.2c0,1.5,0.3,3.1,0.9,4.4c1.1,2.7,3.2,4.8,5.9,5.9c2.9,1.1,6,1.1,8.8,0c0.2-0.1,0.3-0.1,0.5-0.2c1.2-0.6,2.4-1.4,3.2-2.4    C55.8,23.7,55.8,23.3,55.5,23.2C55.5,23.2,55.5,23.2,55.5,23.2z"></path>
		<path class="st0" d="M127.3,23.2l-2.6-1.5c-0.2-0.1-0.5-0.1-0.6,0.1c-0.5,0.4-1.1,0.8-1.5,1.1c0,0-0.1,0-0.1,0.1l0,0    c-1,0.5-2,0.7-3.2,0.7c-1,0-1.9-0.2-2.8-0.5s-1.6-0.9-2.3-1.4c-0.7-0.7-1.2-1.4-1.5-2.3c-0.4-1-0.6-2-0.6-3.1s0.2-2.1,0.6-3.1    c0.4-0.9,0.9-1.7,1.5-2.4c0.7-0.6,1.4-1.1,2.3-1.4c0.9-0.4,1.8-0.6,2.8-0.5c1.1,0,2,0.2,3,0.7c0.7,0.4,1.3,0.9,1.8,1.3    c0.2,0.2,0.5,0.2,0.7,0.1l0.1-0.1l0,0l2.1-2c0.2-0.2,0.2-0.5,0-0.7c-0.9-1-2-1.7-3.2-2.3c-1.4-0.6-3-0.9-4.5-0.9    c-4.5-0.1-8.6,2.6-10.3,6.8c-0.6,1.4-0.9,2.9-0.9,4.4s0.3,3.1,0.9,4.4c1.1,2.7,3.2,4.8,5.9,5.9c2.9,1.1,6,1.1,8.8,0    c0.2-0.1,0.3-0.1,0.5-0.2c1.2-0.6,2.4-1.4,3.2-2.4C127.7,23.7,127.7,23.3,127.3,23.2C127.3,23.2,127.3,23.2,127.3,23.2z"></path>
		<path class="st0" d="M143.5,12.3c-0.1,0-0.1,0-0.2-0.1h-3.2c-0.2,0-0.4,0.1-0.4,0.4l-3.4,8.6h-0.2l-3.5-8.6    c-0.1-0.2-0.3-0.3-0.5-0.4h-3.3c-0.3,0-0.5,0.3-0.5,0.5v0.1l5.9,13.3l-2.8,6c-0.1,0.3,0,0.5,0.2,0.7l2.4,1.4    c0.2,0.2,0.5,0.1,0.7-0.1c0,0,0-0.1,0.1-0.1v-0.1l9.3-21.1C143.9,12.7,143.8,12.4,143.5,12.3z"></path>
		<path class="st0" d="M14.7,0C6.6,0,0,6.6,0,14.7s6,14.2,13.9,14.7l1.2-3.2v5.1c0,0.3,0.3,0.6,0.6,0.6l0,0c0.2,0,0.3-0.1,0.4-0.2    l2.6-2.6l2.3-2.4c0.2-0.2,0.3-0.5,0.1-0.7L21,25.9l0,0l-3.3-3.3L16.1,21c-0.2-0.2-0.5-0.3-0.7-0.1L15.3,21    c-0.1,0.1-0.2,0.3-0.2,0.5v1.7h-0.5c-4.6,0-8.3-3.7-8.3-8.3s3.7-8.3,8.3-8.3c4.3,0,7.9,3.3,8.2,7.6c0,0.4,0.3,0.7,0.7,0.6h5.1    c0.4,0,0.7-0.3,0.7-0.7l0,0C28.8,6.1,22.4,0,14.7,0z"></path>
	</g>
</g>
</svg>
