<?xml version="1.0" encoding="UTF-8"?>
<!-- Generator: Adobe Illustrator 27.1.1, SVG Export Plug-In . SVG Version: 6.00 Build 0)  -->
<svg xmlns="http://www.w3.org/2000/svg" xmlns:xlink="http://www.w3.org/1999/xlink" version="1.1" id="Layer_1" x="0px" y="0px" viewBox="0 0 1032.3 226.7" style="enable-background:new 0 0 1032.3 226.7;" xml:space="preserve">
<style type="text/css">
	.st0{fill:#DC0032;}
	.st1{fill:#3C3C3B;}
	.st2{fill-rule:evenodd;clip-rule:evenodd;fill:#301506;}
	.st3{fill:#FAB80A;}
	.st4{fill:#EE2722;}
	.st5{fill:#FFFFFF;}
	.st6{fill:#F00020;}
	.st7{fill:#EE2722;stroke:#EE2722;stroke-width:1.000000e-02;}
	.st8{fill:#FDDD1C;}
	.st9{fill:#009ADE;}
	.st10{fill:#1A98D5;}
	.st11{fill:#FECC00;}
	.st12{fill:#D50029;}
	.st13{fill:#E20613;}
	.st14{fill:#004A92;}
	.st15{clip-path:url(#SVGID_00000020386073391662094170000005765593747446304162_);}
	.st16{clip-path:url(#SVGID_00000132086705970903042810000000207462555138671535_);}
	.st17{clip-path:url(#SVGID_00000017477552837131665420000010179535678878108068_);}
	.st18{clip-path:url(#SVGID_00000126282299949581000240000010204765906931220134_);}
	.st19{clip-path:url(#SVGID_00000064326526131099155400000014193079061893037469_);}
	.st20{clip-path:url(#SVGID_00000027583307946319842800000011436659179745036451_);}
	.st21{clip-path:url(#SVGID_00000109021363346156125960000016222722177396461187_);}
	.st22{clip-path:url(#SVGID_00000123412911874715475360000003165533171722882182_);}
	.st23{clip-path:url(#SVGID_00000098933920126565141550000004993184482273092780_);}
	.st24{clip-path:url(#SVGID_00000000183819915455811140000005804297684358450343_);}
	.st25{clip-path:url(#SVGID_00000127044058353113253150000003137739485651112861_);}
	.st26{clip-path:url(#SVGID_00000124122624675909435220000015038128225536885680_);}
	.st27{clip-path:url(#SVGID_00000012446057006081912140000007522883886640226978_);}
	.st28{clip-path:url(#SVGID_00000027582980014614976420000018053078682242078378_);}
	.st29{clip-path:url(#SVGID_00000034784656440775036880000004997620404048805814_);}
	.st30{clip-path:url(#SVGID_00000104665614488337455140000018006346520557005721_);}
	.st31{clip-path:url(#SVGID_00000072987125902338006820000015194677485306063792_);}
	.st32{clip-path:url(#SVGID_00000070112426537631273310000003576293186547792560_);}
	.st33{clip-path:url(#SVGID_00000085233653823570755130000000438276424760460725_);}
	.st34{clip-path:url(#SVGID_00000144332711864982609990000007044283613922622863_);}
	.st35{clip-path:url(#SVGID_00000018951032001471801110000010227135338279056300_);}
	.st36{clip-path:url(#SVGID_00000047027260529707677990000014335004475873415306_);}
	.st37{clip-path:url(#SVGID_00000139277674364083256510000002606994513998804356_);}
	.st38{clip-path:url(#SVGID_00000024722354804151755940000005164057505129853599_);}
	.st39{clip-path:url(#SVGID_00000112614333993056491400000015226070440255847344_);}
	.st40{clip-path:url(#SVGID_00000176015763958554183290000011069786876088399763_);}
	.st41{clip-path:url(#SVGID_00000149358673967084635110000005805168456092805265_);}
	.st42{fill:#9FABD3;}
	.st43{clip-path:url(#SVGID_00000181061208577661688990000016226925719692049087_);}
	.st44{clip-path:url(#SVGID_00000062176415704728504110000012830543780811577007_);}
	.st45{fill-rule:evenodd;clip-rule:evenodd;fill:#6FB744;}
	.st46{fill-rule:evenodd;clip-rule:evenodd;fill:#08305D;}
	.st47{fill:#007BC4;}
</style>
<g>
	<g id="Layer_1_00000003100592159445438150000012570165296249833896_">
		<path class="st0" d="M580.8,161.4c-0.3,0.2-0.7,0.2-1,0l-1.6-1c-0.1-0.1-0.3-0.2-0.3-0.4l0,0c-0.1-0.2-0.2-0.3-0.2-0.5v-1.9    c0-0.4,0.2-0.7,0.5-0.9l19.7-11.5l-27.6-15.1c-0.7-0.3-1.5-0.3-2.2,0l-27.6,15.1l30.9,18c0.3,0.2,0.5,0.5,0.5,0.9v26.3    c0,0.4-0.2,0.7-0.5,0.9l-1.7,0.9c-0.2,0.1-0.3,0.1-0.5,0.1l0,0c-0.2,0-0.4,0-0.5-0.1l-1.7-0.9c-0.3-0.2-0.5-0.5-0.5-0.9V167    c0-0.2-0.1-0.4-0.3-0.5l-27.2-15.9v31.1c0,0.8,0.4,1.5,1.1,1.9l28.1,16.6c0.3,0.2,0.7,0.3,1.1,0.3c0.4,0,0.8-0.1,1.1-0.3    l28.1-16.6c0.6-0.4,1-1.1,1.1-1.9v-31.1L580.8,161.4z"></path>
		<path class="st1" d="M642.3,182.2c-3.4,0.8-6.9,1.2-10.4,1.2c-8.8,0-14.7-4.7-14.7-13.3c0-8.1,5.4-13.4,13.4-13.4    c1.6-0.1,3.3,0.2,4.8,0.8v-11.8h6.9V182.2z M635.4,163.5c-1.3-0.6-2.8-0.8-4.2-0.8c-4.2,0-7,2.6-7,7.1c0,4.9,3,7.6,7.9,7.6    c1.1,0,2.2-0.1,3.3-0.3V163.5z M698.8,182.2c-3.4,0.8-6.9,1.2-10.5,1.2c-8.8,0-14.7-4.7-14.7-13.3c0-8.1,5.5-13.4,13.4-13.4    c1.6-0.1,3.3,0.2,4.8,0.8v-11.8h6.9V182.2z M691.9,163.5c-1.3-0.6-2.8-0.8-4.2-0.8c-4.2,0-7,2.6-7,7.1c0,4.9,3,7.6,7.9,7.6    c1.1,0,2.2-0.1,3.3-0.3L691.9,163.5z M653.1,163.5c1.3-0.4,2.7-0.7,4.1-0.6c4.2,0,7.2,2.5,7.2,6.9c0,5.2-3.2,7.6-7.6,7.6v6h0.3    c8.9,0,14.2-5,14.2-13.9c0-8.1-5.7-12.9-14.1-12.9c-3.8,0-7.6,0.7-11.2,2.1v34.4h6.9V163.5z"></path>
		<path class="st2" d="M366.5,146.2l0.3,35.8l8.1,10l24.2,12.8l29.7-14.5l6.2-14.7l-0.6-47.6l-22.4-0.6l-23.4,3.8l-21.3,12.4    L366.5,146.2z"></path>
		<path class="st3" d="M399.6,119.8c-14.1,0-26.4,2.7-36.5,8.1v43c0,9,3.4,16.6,9.8,21.9c6,4.9,24.4,12.9,26.7,13.9    c2.1-0.9,20.8-9.1,26.7-13.9c6.4-5.3,9.8-12.9,9.8-21.9v-43C426,122.5,413.7,119.8,399.6,119.8L399.6,119.8z M420.4,128.1    c4.2,0,8.3,0.3,12.3,0.7v42c0,8.1-2.9,14.6-8.6,19.3c-5,4.2-20.3,11-24.5,12.9c-4.3-1.9-19.6-8.8-24.5-12.9    c-5.6-4.6-8.6-11.3-8.6-19.3v-24.5C382.6,131.5,402.3,127.9,420.4,128.1L420.4,128.1z M400.5,147.7c-3-0.1-6,0.7-8.6,2.3v41.4h6.4    V178c0.9,0.3,1.9,0.4,2.9,0.4c7,0,11.1-6.4,11.1-15.6S408.1,147.7,400.5,147.7L400.5,147.7z M422.2,147.7    c-4.2,0.1-8.5,3.1-8.5,8.3c0,3.4,1,5.9,6.2,9c2.8,1.6,3.9,2.7,4,4.7c0.1,2.2-1.5,3.6-3.8,3.5c-2.3-0.1-4.4-1.1-6.1-2.6v5.9    c2.1,1.3,4.5,2,7,2c6.3,0,9.1-4.4,9.2-8.5c0.1-3.7-0.9-6.5-6.2-9.6c-2.4-1.4-4.2-2.3-4.2-4.6s1.9-3,3.7-3c2.2,0.1,4.2,1.1,5.7,2.6    v-5.5c-2-1.5-4.5-2.2-7-2.1L422.2,147.7z M369.7,148.4v20c0,6.7,3.2,10.1,9.5,10.1c3.4,0.1,6.7-0.8,9.6-2.6v-27.6h-6.3v23.9    c-0.9,0.5-1.9,0.8-3,0.8c-2.9,0-3.3-2.7-3.3-4.5v-20.2H369.7z M400.6,152.8c3.7,0,5.2,2.9,5.2,10s-1.8,10.3-5.4,10.3    c-0.7,0-1.4-0.1-2.1-0.4v-19.5C399,152.9,399.8,152.8,400.6,152.8L400.6,152.8z"></path>
		<g id="g2826">
			<g id="g3830">
				<path id="path3504" class="st4" d="M149,217.8h56.8v-109H149V217.8z"></path>
				<g id="g3522">
					<path id="path3524" class="st5" d="M150.4,110.2v106.2h54V110.2H150.4"></path>
				</g>
				<path id="path3538" class="st6" d="M96,199.1h162.9v-40H96V199.1z"></path>
				<path id="path3540" class="st7" d="M96,159.1h162.9v40H96V159.1z"></path>
				<g id="g3542">
					<path id="path3544" class="st8" d="M240,168.2c-0.3,0-0.5-0.2-0.6-0.4c0,0,0-0.1,0-0.1c0-0.3,0.2-0.6,0.5-0.6c0,0,0,0,0,0l0,0       c0.3,0,0.6,0.3,0.6,0.6C240.6,167.9,240.4,168.2,240,168.2C240.1,168.2,240.1,168.2,240,168.2L240,168.2z M240,165.8       c-1,0-1.9,0.8-1.9,1.9c0,0,0,0,0,0l0,0c0,1,0.7,1.8,1.7,1.9h0.2c1,0,1.9-0.8,1.9-1.8l0,0C241.9,166.6,241,165.8,240,165.8"></path>
				</g>
				<g id="g3546">
					<path id="path3548" class="st8" d="M135.8,184.6c-1.3,1.3-3.2,2.1-5.1,2.1c-1.9,0-3.7-0.8-5-2.1c-1.4-1.3-2.1-3.1-2.1-5       c0-3.9,3.1-7.1,7.1-7.1c0,0,0,0,0,0l0,0c1.9,0,3.7,0.8,5.1,2.1c1.3,1.3,2,3.1,2.1,5C137.9,181.4,137.1,183.2,135.8,184.6z        M136.8,173.4c-3.6-3.1-9.1-2.7-12.2,0.9c-2.8,3.2-2.8,7.9-0.1,11.2c1.7,1.6,3.9,2.5,6.2,2.6c2.3-0.1,4.5-1,6.1-2.6       C140.1,182.2,140.1,176.8,136.8,173.4"></path>
				</g>
				<g id="g3550">
					<path id="path3552" class="st8" d="M130.8,184.6c-2.8,0.1-5.1-2.1-5.1-4.8c0-1.4,0.5-2.7,1.4-3.6c0-0.1,0.1-0.1,0.1-0.1       c1-0.9,2.3-1.5,3.6-1.4c1.3,0,2.6,0.5,3.5,1.4c2,1.9,2.1,5.1,0.2,7.1C133.5,184,132.2,184.6,130.8,184.6z M135.3,174.9       c-1.2-1.2-2.8-1.9-4.6-1.9c-1.7,0-3.4,0.7-4.7,1.9c-1.3,1.2-2,2.9-1.9,4.7c0,1.7,0.6,3.4,1.9,4.7c1.2,1.2,2.9,1.9,4.7,1.9       c3.6-0.1,6.5-3,6.6-6.6C137.3,177.8,136.6,176.1,135.3,174.9"></path>
				</g>
				<g id="g3554">
					<path id="path3556" class="st8" d="M153.9,171.4v15c0,1.5-0.6,2.9-1.6,4c-1.1,1-2.5,1.6-4,1.6c-1.5,0-2.9-0.6-4-1.6       c-0.7-0.8-1.2-1.7-1.4-2.8h-1.5c0.5,3.4,3.5,5.9,6.9,5.8c1.9,0,3.7-0.7,5-2c1.3-1.3,2-3.1,2.1-5v-15L153.9,171.4"></path>
				</g>
				<g id="g3558">
					<path id="path3560" class="st8" d="M148.2,186.8c1.2,0,2.5-0.3,3.5-0.9v0.7c0,1.9-1.5,3.5-3.5,3.5h-0.1c-0.9,0-1.8-0.3-2.5-1       c-0.4-0.4-0.7-0.8-0.9-1.3h-1.5c0.2,0.9,0.7,1.7,1.3,2.3c0.9,1,2.2,1.5,3.5,1.5c2.8,0,5-2.2,5.1-4.9c0,0,0,0,0,0v-4.5       c-0.3,0.6-0.7,1.1-1.1,1.6c-2,2.2-5.5,2.3-7.6,0.2l-0.2-0.2c-1-1-1.6-2.4-1.6-3.9v-8.3h-1.4v8.3c0,1.8,0.7,3.6,2,4.9       C144.6,186,146.4,186.8,148.2,186.8"></path>
				</g>
				<g id="g3562">
					<path id="path3564" class="st8" d="M144.7,183.2c0.9,0.9,2.2,1.5,3.5,1.5c2.8-0.2,5-2.5,5-5.3v-8h-1.5v8c0,2-1.5,3.7-3.5,3.8       c-1.9,0-3.5-1.6-3.5-3.5v-8.3h-1.5v8.2C143.2,181,143.7,182.3,144.7,183.2"></path>
				</g>
				<path id="path3566" class="st8" d="M179.4,187.7h1.5v-21.6h-1.5V187.7z"></path>
				<path id="path3568" class="st8" d="M177.4,187.7h1.4v-21.6h-1.4V187.7z"></path>
				<path id="path3570" class="st8" d="M240.3,187.7h1.4v-16.4h-1.4V187.7z"></path>
				<path id="path3572" class="st8" d="M238.2,187.7h1.5v-16.4h-1.5V187.7z"></path>
				<path id="path3574" class="st8" d="M247.1,187.7h1.4v-21.6h-1.4V187.7z"></path>
				<path id="path3576" class="st8" d="M245,187.7h1.5v-21.6H245V187.7z"></path>
				<g id="g3578">
					<path id="path3580" class="st8" d="M170.9,179.7c0,2.6-2.1,4.8-4.7,4.8H166c-1.3,0-2.5-0.5-3.4-1.4c-1.9-1.8-1.9-4.9-0.1-6.7       c0,0,0,0,0,0l0.1-0.1c0.9-0.9,2.1-1.4,3.4-1.4h4.9L170.9,179.7z M161.6,175.2c-1.2,1.2-1.9,2.8-1.9,4.5c0,1.7,0.7,3.3,1.9,4.5       c1.2,1.2,2.8,1.9,4.5,1.9c3.5,0,6.3-2.8,6.4-6.3c0,0,0,0,0,0v-6.4H166C164.3,173.4,162.7,174.1,161.6,175.2"></path>
				</g>
				<g id="g3582">
					<path id="path3584" class="st8" d="M166,171.4c-4.6,0-8.4,3.7-8.4,8.3c0,0,0,0,0,0v0.1c0,2.3,0.9,4.4,2.5,6       c2.9,2.9,7.5,3.3,10.8,0.8v1.1h1.6v-5.2c-0.3,0.8-0.8,1.6-1.4,2.2c-1.3,1.3-3.1,2-5,2c-1.8,0-3.6-0.7-4.9-2       c-1.3-1.3-2.1-3.1-2.1-4.9c0-3.8,3.1-6.9,6.9-6.9h7v14.9h1.5v-16.3L166,171.4"></path>
				</g>
				<g id="g3586">
					<path id="path3588" class="st8" d="M231.7,179.7c0,2.7-2.2,4.9-4.9,4.9h-0.1c-1.3,0-2.5-0.5-3.4-1.4c-0.9-0.9-1.4-2.1-1.4-3.4       c0-2.7,2.2-4.8,4.9-4.9h4.9L231.7,179.7L231.7,179.7z M222.3,175.2c-1.2,1.2-1.8,2.8-1.8,4.5c0,1.7,0.6,3.3,1.8,4.5       c1.2,1.2,2.8,1.9,4.5,1.9c3.5,0,6.4-2.8,6.4-6.3v-6.4h-6.4C225.1,173.4,223.5,174.1,222.3,175.2"></path>
				</g>
				<g id="g3590">
					<path id="path3592" class="st8" d="M226.8,171.4c-4.6,0-8.4,3.8-8.4,8.4c0,2.2,0.9,4.4,2.5,5.9c1.6,1.5,3.7,2.4,5.9,2.5       c1.8,0,3.5-0.6,5-1.6v1.1h1.4v-5.2c-0.3,0.8-0.8,1.6-1.4,2.2c-2.7,2.7-7.1,2.7-9.8,0c-1.3-1.3-2-3.1-2-4.9       c0-3.8,3.1-6.9,6.9-6.9h7v14.9h1.5v-16.3L226.8,171.4"></path>
				</g>
				<g id="g3594">
					<path id="path3596" class="st8" d="M116.7,180c0.8-0.4,1.6-0.9,2.2-1.5c1.4-1.4,2.2-3.3,2.2-5.3c0-1.9-0.7-3.7-2.1-5       c-1.3-1.3-3-2-4.8-2h-7.6v21.6h1.5v-20.2h6.1c1.4,0,2.8,0.6,3.8,1.6c1,1.1,1.7,2.5,1.7,4c-0.1,1.6-0.7,3.1-1.8,4.2       c-1,1-2.3,1.6-3.7,1.6l6.1,8.6h1.9L116.7,180"></path>
				</g>
				<g id="g3598">
					<path id="path3600" class="st8" d="M113,178.5h1.1c3.2,0,4.9-3.1,5-5.3c0-1.4-0.6-2.6-1.5-3.6c-0.9-0.9-2.2-1.4-3.4-1.4h-5.5       v19.6h1.4v-18.1h4.1c0.9,0,1.8,0.4,2.4,1c0.7,0.7,1.1,1.6,1.1,2.6c0,1.6-1.2,3.8-3.4,3.8h-4l7.6,10.7h1.8L113,178.5"></path>
				</g>
				<g id="g3602">
					<path id="path3604" class="st8" d="M213.7,166.1h-1.5l3.8,21.6h1.5L213.7,166.1"></path>
				</g>
				<g id="g3606">
					<path id="path3608" class="st8" d="M203.8,179.1l-5.9-12.9h-1.7l7.6,16.4l7.6-16.4h-1.6L203.8,179.1"></path>
				</g>
				<g id="g3610">
					<path id="path3612" class="st8" d="M190.1,187.7h1.5l3.9-21.6H194L190.1,187.7"></path>
				</g>
				<g id="g3614">
					<path id="path3616" class="st8" d="M203.8,183.9l-7.9-17l-3.7,20.8h1.5l2.8-15.9l7.2,15.6l7.2-15.6l2.9,15.9h1.6l-3.7-20.9       L203.8,183.9"></path>
				</g>
			</g>
			
				<image style="overflow:visible;enable-background:new    ;" width="955" height="860" id="image3052" transform="matrix(3.995349e-02 0 0 3.995349e-02 157.0022 114.72)">
			</image>
		</g>
		<path class="st9" d="M816.4,161.3c-0.3,0.2-0.7,0.2-1,0l-1.6-1c-0.1-0.1-0.3-0.2-0.3-0.4l0,0c-0.1-0.2-0.2-0.3-0.2-0.5v-1.9    c0-0.4,0.2-0.7,0.5-0.9l19.7-11.5l-27.6-15c-0.3-0.2-0.7-0.3-1.1-0.2c-0.4,0-0.8,0.1-1.1,0.2l-27.6,15l30.9,18    c0.3,0.2,0.5,0.5,0.5,0.9v26.3c0,0.4-0.2,0.7-0.5,0.9l-1.7,0.9c-0.2,0.1-0.3,0.1-0.5,0.1l0,0c-0.2,0-0.4,0-0.5-0.1l-1.7-0.9    c-0.3-0.2-0.5-0.5-0.5-0.9v-23.4c0-0.2-0.1-0.4-0.3-0.5l-27.2-15.9v31.1c0,0.8,0.4,1.5,1.1,1.9l28.1,16.6c0.7,0.3,1.5,0.3,2.2,0    l28.1-16.6c0.6-0.4,1-1.1,1.1-1.9v-31.1L816.4,161.3z"></path>
		<path class="st1" d="M877.9,182.1c-3.4,0.8-6.9,1.2-10.4,1.2c-8.8,0-14.7-4.7-14.7-13.3c0-8.1,5.5-13.4,13.4-13.4    c1.6-0.1,3.3,0.2,4.8,0.8v-11.8h6.9V182.1z M871,163.4c-1.3-0.6-2.8-0.8-4.2-0.8c-4.2,0-7,2.6-7,7.1c0,4.9,3,7.6,7.9,7.6    c1.1,0,2.2-0.1,3.3-0.3V163.4z M934.4,182.1c-3.4,0.8-6.9,1.2-10.4,1.2c-8.8,0-14.7-4.7-14.7-13.3c0-8.1,5.5-13.4,13.4-13.4    c1.6-0.1,3.3,0.2,4.8,0.8v-11.8h6.9L934.4,182.1z M927.5,163.4c-1.3-0.6-2.8-0.8-4.2-0.8c-4.2,0-7,2.6-7,7.1c0,4.9,3,7.6,7.9,7.6    c1.1,0,2.2-0.1,3.3-0.3V163.4z M888.7,163.4c1.3-0.5,2.7-0.7,4.1-0.6c4.2,0,7.2,2.5,7.2,6.9c0,5.2-3.2,7.6-7.6,7.6v6h0.3    c8.9,0,14.2-5,14.2-13.9c0-8.1-5.7-12.9-14.1-12.9c-3.8,0-7.6,0.7-11.2,2.1v34.4h7L888.7,163.4z"></path>
		<path class="st10" d="M909.6,185.6v7.9c0,0.6,0.3,0.9,0.7,0.9c0.3,0,0.6-0.1,0.9-0.2l0.1,1.2c-0.5,0.2-1,0.3-1.5,0.3    c-1,0-1.7-0.5-1.7-1.8v-8.3H909.6z"></path>
		<path class="st10" d="M915.9,188c2.1,0,3.8,1.8,3.8,3.9s-1.8,3.8-3.9,3.8c-2.1,0-3.8-1.7-3.8-3.8c-0.1-2.1,1.6-3.8,3.7-3.9    C915.7,188,915.8,188,915.9,188z M915.9,194.4c1.4,0,2.5-1.1,2.5-2.5s-1.1-2.5-2.5-2.5s-2.5,1.1-2.5,2.5c0,0,0,0,0,0    c-0.1,1.3,1,2.5,2.3,2.5C915.8,194.4,915.9,194.4,915.9,194.4L915.9,194.4z"></path>
		<path class="st10" d="M925,188c1,0,2,0.3,2.8,1l-0.7,1.1c-0.5-0.5-1.3-0.8-2-0.7c-1.4,0.2-2.4,1.4-2.2,2.8c0.1,1.1,1,2,2.2,2.2    c0.7,0,1.5-0.2,2-0.7l0.7,1.1c-0.8,0.7-1.8,1-2.8,1c-2.1,0-3.9-1.7-3.9-3.9C921.1,189.7,922.9,187.9,925,188L925,188z"></path>
		<path class="st10" d="M929.5,188.6c0.9-0.3,1.8-0.5,2.7-0.5c1.4-0.2,2.8,0.8,3,2.2c0,0.2,0,0.4,0,0.6v4.7h-1.5v-0.8    c-0.6,0.6-1.5,0.9-2.3,0.9c-1.6,0-2.5-0.9-2.5-2.2c0-1.8,1.4-2.6,3.5-2.6c0.5,0,0.9,0,1.4,0.1v0c0.1-0.8-0.4-1.5-1.2-1.6    c-0.1,0-0.3,0-0.4,0c-0.8,0-1.6,0.2-2.3,0.5L929.5,188.6z M931.7,194.5c0.7,0,1.4-0.3,1.9-0.8v-1.7c-0.4-0.1-0.7-0.1-1.1-0.1    c-1.3,0-2.3,0.4-2.3,1.4C930.2,194.1,930.8,194.5,931.7,194.5L931.7,194.5z"></path>
		<path class="st10" d="M938.7,185.6v7.9c0,0.6,0.3,0.9,0.7,0.9c0.3,0,0.6-0.1,0.9-0.2l0.1,1.2c-0.5,0.2-1,0.3-1.5,0.3    c-1,0-1.7-0.5-1.7-1.8v-8.3H938.7z"></path>
		<polygon class="st11" points="207,23.3 207,67.1 8.4,67.1 8.4,23.3 207,23.3   "></polygon>
		<path class="st12" d="M72.4,41.6c-0.9,1.2-2.3,3.2-3.2,4.4c-0.4,0.6-1.3,1.7,1.4,1.7h14.1L89,42c2.6-3.5,0.2-10.9-9.1-10.9H43.3    L37,39.8h34.6C73.3,39.8,73.3,40.5,72.4,41.6z M62,49.8c-2.7,0-1.9-1.1-1.4-1.7l3.2-4.4c0.9-1.2,0.9-1.8-0.9-1.8H47.2L34.4,59.2    h31.1c10.3,0,16-7,17.7-9.4L62,49.8z M82.3,59.2h18.2l6.9-9.4H89.2L82.3,59.2z M129.3,31.2l-7,9.5h-8.1l7-9.5h-18.2L90.7,47.7    h44.6l12.2-16.6H129.3z M108.6,59.2h18.2l6.9-9.4h-18.2L108.6,59.2z M8.4,53.6v2h25.4l1.5-2H8.4z M38,49.8H8.4v2h28.1L38,49.8z     M8.4,59.2h22.7l1.5-2H8.4V59.2z M180.2,55.5H207v-2h-25.3L180.2,55.5z M177.5,59.2H207v-2h-28L177.5,59.2z M184.4,49.8l-1.5,2h24    v-2H184.4z M160.5,47.7l12.2-16.6h-19.2l-12.2,16.6H160.5z M139.6,49.8l-2,2.7c-2.3,3.1-0.3,6.7,7.2,6.7h29.3l6.9-9.4L139.6,49.8    L139.6,49.8z"></path>
		<rect x="584" y="11" class="st13" width="178.8" height="61.9"></rect>
		<rect x="584" y="72.9" class="st14" width="178.8" height="6.9"></rect>
		<g>
			<defs>
				<rect id="SVGID_1_" x="584" y="11" width="178.8" height="68.8"></rect>
			</defs>
			<clipPath id="SVGID_00000081633992775653480860000008765502898677753265_">
				<use xlink:href="#SVGID_1_" style="overflow:visible;"></use>
			</clipPath>
			<g style="clip-path:url(#SVGID_00000081633992775653480860000008765502898677753265_);">
				<path class="st5" d="M717.5,65.2c-7.7-3.1-15.6-5.5-23.6-7.4c8.5,0.6,16.8,2.2,24.9,4.8c0.2,0.3,0.2,0.6,0.2,0.9      C718.7,64.3,718.2,64.8,717.5,65.2 M710.6,67.1c-5.6-3.3-11.5-6.2-17.5-8.6c8,1.8,15.9,4.2,23.5,7.2      C714.7,66.4,712.7,66.9,710.6,67.1 M701.5,67.4c-3.2-3.3-6.7-6.3-10.4-9c6.3,2.4,12.4,5.4,18.2,8.8      C706.7,67.4,704.1,67.5,701.5,67.4 M691.9,66.5c-0.7-2.9-1.7-5.7-2.7-8.4c4,2.8,7.7,5.9,11.1,9.3      C697.5,67.2,694.7,66.9,691.9,66.5 M686.8,65.5c-1.6-0.3-3.1-0.7-4.6-1.1c1.9-2.4,3.9-4.6,6.1-6.8c1.1,2.8,2,5.7,2.7,8.6      C689.6,66.1,688.2,65.8,686.8,65.5 M681.3,64.2c-2.7-0.7-5.3-1.6-7.9-2.6c4.5-1.7,9.2-3.1,13.9-4      C685.1,59.7,683.1,61.9,681.3,64.2 M665.3,57.9c6.6-0.7,13.3-0.9,20-0.7c-4.4,1-8.8,2.3-13,4C669.9,60.3,667.5,59.2,665.3,57.9       M659.5,53.7c8,0.3,16,1.2,23.9,2.7c-6.4-0.2-12.8,0.2-19.2,0.9C662.5,56.3,660.9,55.1,659.5,53.7 M638.2,62.6      c-1.4-2-2-4.5-1.6-7c0.1-0.3,0.2-0.7,0.4-1c7.2-0.8,14.4-1.1,21.6-0.9c1.3,1.5,2.8,2.7,4.5,3.8      C654.6,58.5,646.3,60.2,638.2,62.6 M614.9,58.3c1.4-1.1,3-1.9,4.7-2.5c6.4-2.1,12.9-3.7,19.5-4.8c-1.1,0.8-2,1.8-2.6,2.9      C629.2,54.8,621.9,56.3,614.9,58.3 M612.9,58.8c-2.7,0.8-5.4,1.7-8.1,2.7c3.2-1.4,6.4-2.8,9.6-4      C613.9,57.9,613.4,58.3,612.9,58.8 M652.8,49.4c1.6,0,3.4,0.2,5.3,0.5c-0.2,0.2-0.4,0.6-0.5,0.9c-0.1,0.8,0.1,1.6,0.5,2.2      c-6.9-0.2-13.7,0.1-20.6,0.9c0.9-1.5,2.3-2.6,3.9-3.2C645.2,50.1,649,49.7,652.8,49.4 M658.4,50.9c0.1-0.4,0.4-0.7,0.8-0.9      c7.9,1.2,15.7,3.1,23.4,5.5c-7.7-1.4-15.6-2.2-23.5-2.5l-0.2-0.2C658.5,52.3,658.3,51.6,658.4,50.9 M661.5,49.2      c3.2,0,6.4,0.1,9.6,0.3c5.1,1.4,9.9,3.5,14.4,6.2c-8.3-2.7-16.7-4.8-25.3-6.2C660.6,49.3,661,49.2,661.5,49.2 M685.1,51.2      c1,1.6,1.8,3.2,2.6,4.9c-4.1-2.6-8.5-4.7-13.1-6.3C678.1,50.1,681.6,50.6,685.1,51.2 M689.6,52.1c1.2,0.2,2.3,0.5,3.5,0.8      c-1.5,1.1-3,2.3-4.4,3.6c-0.8-1.7-1.6-3.4-2.6-5.1C687.2,51.6,688.4,51.8,689.6,52.1 M704,56c-4.8-0.4-9.6-0.1-14.3,0.6      c1.4-1.3,2.8-2.4,4.3-3.5C697.4,53.9,700.7,54.9,704,56 M716,60.5c0.6,0.3,1.2,0.7,1.8,1.2c-8.4-2.6-17.1-4.2-25.9-4.6      c5-0.7,10.1-0.7,15.1,0C710,58.1,713,59.2,716,60.5 M731.8,68.6c2.3,1.4,4.6,2.8,6.8,4.4h1.3c-15.1-10.5-32.2-17.9-50.2-21.6      c-22.9-4.8-46.7-3.7-69.1,3.3l0,0l-0.8,0.3c-8.1,2.6-15.9,5.9-23.4,10l0,0c-4.2,2.3-8.4,4.8-12.3,7.6V73h0.6      c3.9-2.7,7.9-5.1,12.1-7.4c5-2.2,10.1-4,15.3-5.6c-0.9,1.2-1.5,2.6-1.8,4.1c-0.6,3-0.3,6.1,0.8,9h1.1c-1.1-2.8-1.5-5.8-0.9-8.7      c0.3-1.8,1.2-3.5,2.4-4.8c7.3-2.2,14.8-3.7,22.4-4.7c-0.1,0.2-0.2,0.5-0.2,0.7c-0.4,2.6,0.2,5.2,1.6,7.3      c-8.7,2.6-17.1,6-25.3,10h1.8c7.7-3.8,15.7-6.9,23.9-9.4c2,3.1,5.4,6.3,10,9.4h1.7c-4.9-3.2-8.6-6.4-10.8-9.6      c8.2-2.5,16.7-4.3,25.2-5.3c2.3,1.4,4.7,2.6,7.2,3.6c-7.6,3.1-14.9,6.8-21.8,11.3h1.5c6.8-4.3,13.9-7.9,21.3-10.8      c2.8,1.1,5.6,2,8.5,2.8c-1.9,2.4-3.9,5.1-5.9,8h1.2c2-2.8,3.7-5.4,5.6-7.8c1.6,0.4,3.3,0.8,5,1.2c1.5,0.3,3,0.6,4.5,0.8      c0.5,1.8,0.9,3.7,1.3,5.7h1.1c-0.4-2-1-3.8-1.4-5.6c3,0.4,6,0.8,9.1,0.9c1.5,1.5,3,3.1,4.5,4.7h1c-1.4-1.6-2.9-3.2-4.4-4.7      c2.7,0.1,5.5,0,8.2-0.3c2.7,1.6,5.3,3.3,7.9,5h1.3c-2.6-1.8-5.3-3.6-8.1-5.2c2.1-0.2,4-0.8,5.9-1.7c5,2,9.9,4.3,14.7,6.9h1.6      c-5-2.8-10.2-5.2-15.5-7.4c0.6-0.4,1.1-1.1,1.3-1.8c0-0.2,0-0.5,0-0.7c3,1.1,6,2.4,8.9,3.8c0,0,2.5,1.3,3.2,1.8"></path>
			</g>
		</g>
		<g>
			<defs>
				<rect id="SVGID_00000091717262592249955000000001823425398192573871_" x="584" y="11" width="178.8" height="68.8"></rect>
			</defs>
			<clipPath id="SVGID_00000084522194579573950960000015206807265213412227_">
				<use xlink:href="#SVGID_00000091717262592249955000000001823425398192573871_" style="overflow:visible;"></use>
			</clipPath>
			<g style="clip-path:url(#SVGID_00000084522194579573950960000015206807265213412227_);">
				<path class="st5" d="M620.9,30.2l2-3.4h1.1c0.4,0,0.8,0.4,0.8,0.8c0,0,0,0,0,0c0,0.1,0,0.1,0,0.2l0,0c-0.1,0.3-0.2,0.5-0.3,0.7      c-0.4,0.7-1.1,1.3-1.9,1.5h-0.1C622,30.2,621.4,30.2,620.9,30.2 M620.2,31.5c0.9,0,1.8,0,2.7-0.2c1.3-0.4,2.3-1.3,3-2.4      c0.4-0.7,0.6-1.5,0.4-2.3l0,0c-0.2-0.7-0.8-1.1-1.6-1.1l-2.7,0.1l-5.3,9.1l1.5,0.1h0.2L620.2,31.5"></path>
			</g>
		</g>
		<g>
			<defs>
				<rect id="SVGID_00000036960645044286499900000015651114495162320531_" x="584" y="11" width="178.8" height="68.8"></rect>
			</defs>
			<clipPath id="SVGID_00000088839567779484925280000002269074133620584091_">
				<use xlink:href="#SVGID_00000036960645044286499900000015651114495162320531_" style="overflow:visible;"></use>
			</clipPath>
			<g style="clip-path:url(#SVGID_00000088839567779484925280000002269074133620584091_);">
				<polygon class="st5" points="717.5,50.1 717.6,49.6 716.2,49.5 715.2,49.4 715.8,44.1 715.8,43.6 714.7,43.5 713.9,50.4       714.9,50.5 717.5,50.8     "></polygon>
			</g>
		</g>
		<g>
			<defs>
				<rect id="SVGID_00000135663986046196241780000014703296209667314091_" x="584" y="11" width="178.8" height="68.8"></rect>
			</defs>
			<clipPath id="SVGID_00000072251370876905806270000005728527006547986571_">
				<use xlink:href="#SVGID_00000135663986046196241780000014703296209667314091_" style="overflow:visible;"></use>
			</clipPath>
			<g style="clip-path:url(#SVGID_00000072251370876905806270000005728527006547986571_);">
				<path class="st5" d="M693.1,29.7c0.8-3,3.5-5.2,6.7-5.1c1.7-0.2,3.4,0.8,4,2.4c1.3,3.3-0.3,7-3.6,8.3c-0.8,0.3-1.7,0.5-2.7,0.4      c-1.1,0.1-2.3-0.2-3.2-0.8C693,33.9,692.3,32.3,693.1,29.7 M697.5,38.5c7.2-0.5,9.2-4.4,10-8.4c0.3-1.5,0.1-3.1-0.7-4.5      c-1.1-2-3.3-3.6-6.8-3.5c-2.6,0.1-5.1,1.1-7,3c-0.5,0.4-0.9,0.9-1.2,1.4c-0.6,0.8-1.1,1.6-1.4,2.5c-0.1,0.4-0.2,0.7-0.3,1      c-0.2,0.8-0.3,1.6-0.2,2.4c0,1.6,0.8,3.1,2,4.2C693.5,38,695.5,38.6,697.5,38.5"></path>
			</g>
		</g>
		<g>
			<defs>
				<rect id="SVGID_00000176016684205537713070000017174292815459252385_" x="584" y="11" width="178.8" height="68.8"></rect>
			</defs>
			<clipPath id="SVGID_00000088848807202751533930000002719149217714029212_">
				<use xlink:href="#SVGID_00000176016684205537713070000017174292815459252385_" style="overflow:visible;"></use>
			</clipPath>
			<g style="clip-path:url(#SVGID_00000088848807202751533930000002719149217714029212_);">
				<polygon class="st5" points="684.8,31.1 689.2,31.1 689.4,30.2 689.8,28.7 687.3,28.7 685.4,28.7 686.3,25.3 691.2,25.1       691.4,24.5 691.8,22.9 684.1,23.2 681.8,31.5 681.7,32 680.1,37.5 682,37.6 682.9,37.6     "></polygon>
			</g>
		</g>
		<g>
			<defs>
				<rect id="SVGID_00000109031095305633339440000003831152982567836330_" x="584" y="11" width="178.8" height="68.8"></rect>
			</defs>
			<clipPath id="SVGID_00000178173454453376084370000009800142747945653378_">
				<use xlink:href="#SVGID_00000109031095305633339440000003831152982567836330_" style="overflow:visible;"></use>
			</clipPath>
			<g style="clip-path:url(#SVGID_00000178173454453376084370000009800142747945653378_);">
				<polygon class="st5" points="658.2,25.5 658.7,24.2 656.5,24.2 656,25.6 655.2,27.3 654,30.2 653.3,32 651.9,35.4 651.5,36.2       652.4,36.3 653.3,36.3 658.1,36.5 658.3,35.6 658.8,34.4 656.6,34.3 654.8,34.2     "></polygon>
			</g>
		</g>
		<g>
			<defs>
				<rect id="SVGID_00000077315601488829424210000012026409148978184876_" x="584" y="11" width="178.8" height="68.8"></rect>
			</defs>
			<clipPath id="SVGID_00000183220583764554119550000010127093055397758612_">
				<use xlink:href="#SVGID_00000077315601488829424210000012026409148978184876_" style="overflow:visible;"></use>
			</clipPath>
			<g style="clip-path:url(#SVGID_00000183220583764554119550000010127093055397758612_);">
				<polygon class="st5" points="651.1,35.4 651.6,34.1 649.5,34.1 647.8,34 649.3,30.7 652.5,30.7 652.7,30.2 653.2,28.9       651.7,28.9 650,28.9 651.2,26.1 654.8,26 655,25.6 655.5,24.3 649.8,24.5 644.7,35.9 645.7,35.9 646.3,36 650.8,36.2     "></polygon>
			</g>
		</g>
		<g>
			<defs>
				<rect id="SVGID_00000175296678077983210910000004852264638783476650_" x="584" y="11" width="178.8" height="68.8"></rect>
			</defs>
			<clipPath id="SVGID_00000105409300922898450530000014530022146332687277_">
				<use xlink:href="#SVGID_00000175296678077983210910000004852264638783476650_" style="overflow:visible;"></use>
			</clipPath>
			<g style="clip-path:url(#SVGID_00000105409300922898450530000014530022146332687277_);">
				<path class="st5" d="M644.3,35.4l0.1-0.2l0.8-2c-1.8,0.9-2.9,0.9-3.6,0.7c-0.6-0.2-1-0.7-1.2-1.3c0-1.3,0.4-2.5,1.3-3.5      c0.4-0.5,0.7-0.9,1.2-1.3l0.1-0.1l0.4-0.4c0.2-0.2,0.4-0.3,0.7-0.4c1.2-0.9,3-0.8,4,0.4l0.7-1.4l0.3-0.6c-0.5-0.8-4-1.7-7.2,1.2      c-0.3,0.3-0.6,0.6-0.9,1c-1.2,1.3-2,2.9-2.4,4.6c-0.1,0.4-0.1,0.9,0,1.3c0.1,1,0.7,1.9,1.5,2.4      C641.7,36.6,644.3,35.4,644.3,35.4"></path>
			</g>
		</g>
		<g>
			<defs>
				<rect id="SVGID_00000023994652518409488990000007953484722312776124_" x="584" y="11" width="178.8" height="68.8"></rect>
			</defs>
			<clipPath id="SVGID_00000126320202017490682010000001235141888440654213_">
				<use xlink:href="#SVGID_00000023994652518409488990000007953484722312776124_" style="overflow:visible;"></use>
			</clipPath>
			<g style="clip-path:url(#SVGID_00000126320202017490682010000001235141888440654213_);">
				<polygon class="st5" points="663.5,30.5 663.4,30.3 666,28.1 658.2,30 657.1,30.3 658,30.6 660,31.3 664.5,32.9     "></polygon>
			</g>
		</g>
		<g>
			<defs>
				<rect id="SVGID_00000109713347557217993390000003742684756241996947_" x="584" y="11" width="178.8" height="68.8"></rect>
			</defs>
			<clipPath id="SVGID_00000011751650206722650290000017611779810245637544_">
				<use xlink:href="#SVGID_00000109713347557217993390000003742684756241996947_" style="overflow:visible;"></use>
			</clipPath>
			<g style="clip-path:url(#SVGID_00000011751650206722650290000017611779810245637544_);">
				<polygon class="st5" points="671.8,27.2 671.9,26.6 673.1,17.1 667.3,27 670.3,24.7 670.6,25.2 671.3,26.4     "></polygon>
			</g>
		</g>
		<g>
			<defs>
				<rect id="SVGID_00000147916169470179665520000007910576573871446461_" x="584" y="11" width="178.8" height="68.8"></rect>
			</defs>
			<clipPath id="SVGID_00000093871954627391386180000006372471569294240183_">
				<use xlink:href="#SVGID_00000147916169470179665520000007910576573871446461_" style="overflow:visible;"></use>
			</clipPath>
			<g style="clip-path:url(#SVGID_00000093871954627391386180000006372471569294240183_);">
				<polygon class="st5" points="668.2,34.7 666.7,35.8 666.2,36.2 666.1,36 665.1,34.1 664.8,33.5 664.8,33.9 663.1,44.4       665.3,40.8 669.5,33.7     "></polygon>
			</g>
		</g>
		<g>
			<defs>
				<rect id="SVGID_00000121281275175210202050000004506902025912037531_" x="584" y="11" width="178.8" height="68.8"></rect>
			</defs>
			<clipPath id="SVGID_00000170988769101551340530000001891244539941287852_">
				<use xlink:href="#SVGID_00000121281275175210202050000004506902025912037531_" style="overflow:visible;"></use>
			</clipPath>
			<g style="clip-path:url(#SVGID_00000170988769101551340530000001891244539941287852_);">
				<polygon class="st5" points="681.3,30.3 673.2,28.1 672.8,28 672.2,27.8 673.7,30.4 672.3,31.4 670.4,33 671.6,32.7 674.9,31.9       679.2,30.8     "></polygon>
			</g>
		</g>
		<g>
			<defs>
				<rect id="SVGID_00000142158521392783810770000001101420356304197792_" x="584" y="11" width="178.8" height="68.8"></rect>
			</defs>
			<clipPath id="SVGID_00000000919938788797865750000017135431950294482360_">
				<use xlink:href="#SVGID_00000142158521392783810770000001101420356304197792_" style="overflow:visible;"></use>
			</clipPath>
			<g style="clip-path:url(#SVGID_00000000919938788797865750000017135431950294482360_);">
				<polygon class="st5" points="738.7,37.6 738.7,40.1 739.1,40.1 740.4,40.2 751.2,40.7 751.1,39.3 751,37.3 744.3,37 742.8,37       742.6,31.6 749.7,31.6 749.5,28.4 742.5,28.4 742.4,24 749.6,23.8 749.5,22.8 749.4,20.7 738.5,21.1 738.5,24 738.6,27.3           "></polygon>
			</g>
		</g>
		<g>
			<defs>
				<rect id="SVGID_00000013876681708246579830000001214906541874003861_" x="584" y="11" width="178.8" height="68.8"></rect>
			</defs>
			<clipPath id="SVGID_00000037664908844577071080000016392061289151724726_">
				<use xlink:href="#SVGID_00000013876681708246579830000001214906541874003861_" style="overflow:visible;"></use>
			</clipPath>
			<g style="clip-path:url(#SVGID_00000037664908844577071080000016392061289151724726_);">
				<polygon class="st5" points="667.7,29.9 669.3,27.1 665.7,29.9 665.3,30.3     "></polygon>
			</g>
		</g>
		<g>
			<defs>
				<rect id="SVGID_00000073717451155184298810000016982327600022307762_" x="584" y="11" width="178.8" height="68.8"></rect>
			</defs>
			<clipPath id="SVGID_00000108991892096984637920000008715266650601298064_">
				<use xlink:href="#SVGID_00000073717451155184298810000016982327600022307762_" style="overflow:visible;"></use>
			</clipPath>
			<g style="clip-path:url(#SVGID_00000108991892096984637920000008715266650601298064_);">
				<path class="st5" d="M628.5,30.9h-2l2.9-3.6L628.5,30.9z M631.1,26.3l0.2-1.1l-1.9,0.1l-2.2,2.7l0,0l-3.6,4.4l-0.1,0.1l-2,2.4      h1.7h0.2l2-2.6l2.7,0.1l-0.2,1l-0.4,1.7h1.7l1.9-8.9"></path>
			</g>
		</g>
		<g>
			<defs>
				<rect id="SVGID_00000176027323604782773020000013754608123517115034_" x="584" y="11" width="178.8" height="68.8"></rect>
			</defs>
			<clipPath id="SVGID_00000080205555424798663010000003556512247900340911_">
				<use xlink:href="#SVGID_00000176027323604782773020000013754608123517115034_" style="overflow:visible;"></use>
			</clipPath>
			<g style="clip-path:url(#SVGID_00000080205555424798663010000003556512247900340911_);">
				<path class="st5" d="M635.2,30.1c-0.5,0.1-1.1,0.1-1.6,0.1l1.9-3.6l1.5-0.1c0.9,0.1,1,0.6,0.9,1.1      C637.6,29,636.6,29.9,635.2,30.1 M635.5,31.6c2-0.3,3.6-1.7,4.2-3.6c0.2-0.5,0.3-1.1,0.2-1.6c-0.3-1.4-2.2-1.3-2.2-1.3l-3.1,0.1      l-5.3,10.1h1.7l2.6-5l1.1,5.2h0.8h1.2l-1.2-4"></path>
			</g>
		</g>
		<g>
			<defs>
				<rect id="SVGID_00000020358633695020347060000010621614830916775092_" x="584" y="11" width="178.8" height="68.8"></rect>
			</defs>
			<clipPath id="SVGID_00000134211999711284525570000004065984872128929946_">
				<use xlink:href="#SVGID_00000020358633695020347060000010621614830916775092_" style="overflow:visible;"></use>
			</clipPath>
			<g style="clip-path:url(#SVGID_00000134211999711284525570000004065984872128929946_);">
				<path class="st5" d="M721.5,32.8c0.4,1.6,1.3,3.1,2.5,4.2c3.6,3.5,9.1,4.2,13.5,1.9v-3.7c-1.5,0.9-3.3,1.4-5.1,1.5      c-1.9,0.1-3.8-0.6-5.3-1.8c-1.3-1.1-2.2-2.8-2.3-4.5c-0.4-3.2,3.2-5.8,4.8-6.2c2.6-0.8,5.5-0.4,7.8,1.1v-3.3      c-2-0.7-4.1-1.1-6.2-1c-1.3,0.1-6,0.9-8.4,4.8c-1,1.7-1.5,3.7-1.4,5.7C721.4,32,721.4,32.4,721.5,32.8"></path>
			</g>
		</g>
		<g>
			<defs>
				<rect id="SVGID_00000024704423964425616110000014692615952440809360_" x="584" y="11" width="178.8" height="68.8"></rect>
			</defs>
			<clipPath id="SVGID_00000142859034615330532700000009092189251546420400_">
				<use xlink:href="#SVGID_00000024704423964425616110000014692615952440809360_" style="overflow:visible;"></use>
			</clipPath>
			<g style="clip-path:url(#SVGID_00000142859034615330532700000009092189251546420400_);">
				<path class="st5" d="M706.9,38.7l2.5,0.1h0.9l1.9-14.1c0,0,2.3-0.1,3.4-0.1c1,0.1,1.9,0.8,2.1,1.8c0.1,0.4,0.1,0.7,0,1.1      c-0.4,2-2.3,2.8-3.9,3c-0.8,0.1-1.6,0.2-2.4,0.1l2,3l3.7,5.5h1.1l3.1,0.1l-4.9-6.7c2.6-1,4.4-2.4,4.7-4.7c0.3-1.3,0-2.7-0.6-3.9      c-1.4-2.3-4.6-2.1-4.6-2.1l-6.7,0.2L707.2,36L706.9,38.7"></path>
			</g>
		</g>
		<g>
			<defs>
				<rect id="SVGID_00000178168595775196668240000013691300752264898997_" x="584" y="11" width="178.8" height="68.8"></rect>
			</defs>
			<clipPath id="SVGID_00000035506104629440490150000009332818839001425049_">
				<use xlink:href="#SVGID_00000178168595775196668240000013691300752264898997_" style="overflow:visible;"></use>
			</clipPath>
			<g style="clip-path:url(#SVGID_00000035506104629440490150000009332818839001425049_);">
				<polygon class="st5" points="752,53.8 752,53 749.1,52.7 748,52.6 747.9,50.2 751.6,50.5 751.6,50.1 751.5,49.3 749,49.1       747.8,49 747.8,46.8 751.7,47.1 751.7,46.8 751.6,45.9 746.4,45.6 746.8,53.8 747.9,53.9 752,54.3     "></polygon>
			</g>
		</g>
		<g>
			<defs>
				<rect id="SVGID_00000042013378182382340320000017024232809224409490_" x="584" y="11" width="178.8" height="68.8"></rect>
			</defs>
			<clipPath id="SVGID_00000041293603037026808540000005869616835947632308_">
				<use xlink:href="#SVGID_00000042013378182382340320000017024232809224409490_" style="overflow:visible;"></use>
			</clipPath>
			<g style="clip-path:url(#SVGID_00000041293603037026808540000005869616835947632308_);">
				<path class="st5" d="M740.3,51.9l-0.1-5.5h0.2c1,0,1.9,0.3,2.7,0.8c0.1,0.1,0.3,0.2,0.4,0.4c0.4,0.5,0.6,1.1,0.5,1.7      c0.1,0.8-0.2,1.6-0.9,2.1c-0.5,0.4-1.2,0.6-1.8,0.5C741,51.9,740.7,51.9,740.3,51.9l-0.1,0 M745.2,49.5c0.1-1.1-0.3-2.1-1-2.9      c-0.9-0.9-2.1-1.3-3.4-1.4l-1.8-0.1l0,7.9l1.1,0.1h0.5C742.2,53.3,745.1,52.7,745.2,49.5"></path>
			</g>
		</g>
		<g>
			<defs>
				<rect id="SVGID_00000029018866892994386000000008829193192100860301_" x="584" y="11" width="178.8" height="68.8"></rect>
			</defs>
			<clipPath id="SVGID_00000036247534440893789490000015441710684537297057_">
				<use xlink:href="#SVGID_00000029018866892994386000000008829193192100860301_" style="overflow:visible;"></use>
			</clipPath>
			<g style="clip-path:url(#SVGID_00000036247534440893789490000015441710684537297057_);">
				<polygon class="st5" points="737.4,45.7 737.4,45 736.2,44.9 736.2,52.7 737.2,52.8 737.4,52.8     "></polygon>
			</g>
		</g>
		<g>
			<defs>
				<rect id="SVGID_00000049922955708409125370000018023681485441188515_" x="584" y="11" width="178.8" height="68.8"></rect>
			</defs>
			<clipPath id="SVGID_00000021831173743371197050000004170853504746093247_">
				<use xlink:href="#SVGID_00000049922955708409125370000018023681485441188515_" style="overflow:visible;"></use>
			</clipPath>
			<g style="clip-path:url(#SVGID_00000021831173743371197050000004170853504746093247_);">
				<polygon class="st5" points="700.2,42.5 698.9,42.5 697.8,44.8 697.3,45.8 696.6,43.4 696.3,42.1 694.7,44.8 694,45.8       693.4,42.5 693.3,42.1 692.2,42 693.5,48.3 695.8,44.7 696.9,48.7 700,43     "></polygon>
			</g>
		</g>
		<g>
			<defs>
				<rect id="SVGID_00000085956377135851295590000016720180808672585368_" x="584" y="11" width="178.8" height="68.8"></rect>
			</defs>
			<clipPath id="SVGID_00000157309068956781193020000015205388253155786626_">
				<use xlink:href="#SVGID_00000085956377135851295590000016720180808672585368_" style="overflow:visible;"></use>
			</clipPath>
			<g style="clip-path:url(#SVGID_00000157309068956781193020000015205388253155786626_);">
				<path class="st5" d="M701.5,47.6c-0.4-0.4-0.5-1-0.4-1.5c0.1-0.6,0.4-1.1,0.9-1.5c0.5-0.4,1.1-0.6,1.7-0.6c0.5,0,1,0.2,1.3,0.5      l0.2,0.1c0.4,0.4,0.5,1,0.4,1.6c-0.1,0.6-0.4,1.2-0.9,1.5c-0.5,0.4-1.1,0.6-1.7,0.6c-0.2,0-0.4,0-0.5-0.1      C702.1,48.1,701.7,47.9,701.5,47.6 M705.5,48.5c0.7-0.6,1.2-1.4,1.3-2.3c0.1-0.9-0.1-1.7-0.7-2.4c-0.1-0.1-0.3-0.3-0.4-0.4      c-0.5-0.4-1.1-0.6-1.8-0.7c-1.9,0-3.5,1.4-3.9,3.2c-0.2,0.8,0,1.7,0.6,2.3c0.3,0.4,0.7,0.6,1.2,0.8c0.4,0.1,0.7,0.2,1.1,0.2      C703.8,49.4,704.7,49.1,705.5,48.5"></path>
			</g>
		</g>
		<g>
			<defs>
				<rect id="SVGID_00000167372475960481964110000011399788932252637570_" x="584" y="11" width="178.8" height="68.8"></rect>
			</defs>
			<clipPath id="SVGID_00000007392236027685101110000003274936403285167508_">
				<use xlink:href="#SVGID_00000167372475960481964110000011399788932252637570_" style="overflow:visible;"></use>
			</clipPath>
			<g style="clip-path:url(#SVGID_00000007392236027685101110000003274936403285167508_);">
				<path class="st5" d="M711,47.6L711,47.6c1.2-0.4,1.9-1.7,1.6-2.9c-0.1-0.2-0.2-0.4-0.3-0.6c-0.5-0.5-1.1-0.7-1.7-0.7l-2.1-0.2      l-0.9,6.7l0.9,0.1h0.3l0.7-5.6l1.2,0.1c0.4,0,0.8,0.2,0.9,0.5c0.1,0.2,0.1,0.4,0.1,0.7c-0.1,0.8-0.9,0.9-1.5,1h-0.8l0.7,1.2      l1.3,2.4l0.5,0l0.9,0.1l-1.6-2.7"></path>
			</g>
		</g>
		<g>
			<defs>
				<rect id="SVGID_00000117645241196204925800000015399803264738376079_" x="584" y="11" width="178.8" height="68.8"></rect>
			</defs>
			<clipPath id="SVGID_00000113343841040841536940000008233681201311241634_">
				<use xlink:href="#SVGID_00000117645241196204925800000015399803264738376079_" style="overflow:visible;"></use>
			</clipPath>
			<g style="clip-path:url(#SVGID_00000113343841040841536940000008233681201311241634_);">
				<path class="st5" d="M720.4,45h0.4c0.9,0,1.8,0.3,2.4,0.9c0.4,0.5,0.6,1.1,0.5,1.7c-0.2,1.9-1.4,2.3-2.7,2.2h-0.6H720L720.4,45z       M724.8,47.8c0.1-1-0.2-2.1-1-2.8c-0.8-0.7-1.8-1-2.8-1.1l-1.6-0.1l-0.7,7.1l1,0.1h0.5C721.9,51.2,724.5,51,724.8,47.8"></path>
			</g>
		</g>
		<g>
			<defs>
				<rect id="SVGID_00000139976979139104060990000000412449030747218582_" x="584" y="11" width="178.8" height="68.8"></rect>
			</defs>
			<clipPath id="SVGID_00000021099940333662059110000014453194393064605594_">
				<use xlink:href="#SVGID_00000139976979139104060990000000412449030747218582_" style="overflow:visible;"></use>
			</clipPath>
			<g style="clip-path:url(#SVGID_00000021099940333662059110000014453194393064605594_);">
				<polygon class="st5" points="734.8,44.8 733.6,44.7 732.2,48.2 731.8,49.2 730.5,45.7 730,44.3 728,48.8 726.8,44.9 726.6,44.3       725.3,44.2 727.9,51.9 728.3,50.9 729.9,47.2 730.5,48.8 731.7,52.3 732.1,51.3 734.5,45.5     "></polygon>
			</g>
		</g>
		<g>
			<defs>
				<rect id="SVGID_00000137112102019134553310000004107229036296840085_" x="584" y="11" width="178.8" height="68.8"></rect>
			</defs>
			<clipPath id="SVGID_00000173878516624950983180000007078090816942864048_">
				<use xlink:href="#SVGID_00000137112102019134553310000004107229036296840085_" style="overflow:visible;"></use>
			</clipPath>
			<g style="clip-path:url(#SVGID_00000173878516624950983180000007078090816942864048_);">
				<polygon class="st42" points="667.2,32.9 667.7,29.9 665.3,30.3 665.6,31 667,33.7     "></polygon>
			</g>
		</g>
		<g>
			<defs>
				<rect id="SVGID_00000005246085228364860210000011086447753339327104_" x="584" y="11" width="178.8" height="68.8"></rect>
			</defs>
			<clipPath id="SVGID_00000134237458206332262710000008727519368210663324_">
				<use xlink:href="#SVGID_00000005246085228364860210000011086447753339327104_" style="overflow:visible;"></use>
			</clipPath>
			<g style="clip-path:url(#SVGID_00000134237458206332262710000008727519368210663324_);">
				<polygon class="st42" points="668.7,30 671.3,30.5 670.3,28.8 669.7,27.7 669.4,27.2 669.3,27.1 667.7,29.9     "></polygon>
			</g>
		</g>
		<g>
			<defs>
				<rect id="SVGID_00000161600220665161979070000013559772286900525745_" x="584" y="11" width="178.8" height="68.8"></rect>
			</defs>
			<clipPath id="SVGID_00000163753116542914913050000003701701819543546013_">
				<use xlink:href="#SVGID_00000161600220665161979070000013559772286900525745_" style="overflow:visible;"></use>
			</clipPath>
			<g style="clip-path:url(#SVGID_00000163753116542914913050000003701701819543546013_);">
				<polygon class="st14" points="667.7,29.9 667.2,32.9 667,33.7 667.5,33.3 671.3,30.5 668.7,30     "></polygon>
			</g>
		</g>
		<g id="Page-1">
			<g id="pw_we-deliver-4-col-copy">
				<g id="Group-7">
					<g>
						<path id="Fill-5" class="st45" d="M863.3,33.6c0.7,2.9-3.4,6.5-9.3,7.9s-11.2,0.2-11.9-2.7s3.4-6.5,9.3-7.9        S862.5,30.7,863.3,33.6"></path>
					</g>
					<g>
						<path id="Fill-6" class="st46" d="M834.8,36.6l-15.7,10.3l20.2-1.1c-2.6-1.1-4.5-2.8-5-5C833.9,39.3,834.1,37.8,834.8,36.6"></path>
					</g>
				</g>
				<path id="Fill-8" class="st46" d="M869.8,30l4.9-12.5l-19.4,8.2C861.9,25.1,867.6,26.8,869.8,30"></path>
				<path id="Fill-9" class="st46" d="M850,26.5c0.7-0.2,1.4-0.3,2.1-0.5L834,23l2.3,11.2C839,31,843.9,28,850,26.5"></path>
				<path id="Fill-10" class="st46" d="M861,44c-2,0.9-4,1.6-6.1,2.1c-4,1.1-8.2,1.2-12.3,0.6l8,9.3L861,44"></path>
				<path id="Fill-11" class="st46" d="M863.9,42.4l21-4.6l-14.4-6.4c0.1,0.2,0.1,0.3,0.2,0.5C871.5,35.4,868.8,39.4,863.9,42.4"></path>
				<path id="Fill-12" class="st46" d="M873,56.9c-1.2,0.8-2.6,1.2-4,1.1h-2l1.5-6.9h2.2c0.9-0.1,1.9,0.2,2.7,0.7      c0.6,0.5,1,1.2,0.9,2C874.5,55,874,56.2,873,56.9 M879.8,50.2c-0.4-0.8-1-1.5-1.7-2c-0.8-0.5-1.8-0.9-2.7-1.1      c-1.2-0.2-2.5-0.3-3.7-0.3h-7.8l-5,23h5.6l1.5-7.5h2.1c3.8,0,6.8-0.8,9-2.5c2.1-1.6,3.3-4,3.2-6.6      C880.4,52.2,880.2,51.2,879.8,50.2"></path>
				<path id="Fill-13" class="st46" d="M889,65.3c-0.5,0.4-1.1,0.7-1.6,1c-0.5,0.2-1.1,0.4-1.6,0.4c-0.6,0-1.2-0.1-1.8-0.4      c-0.4-0.3-0.7-0.8-0.6-1.3c0-0.6,0.1-1.2,0.5-1.6c0.3-0.5,0.8-0.8,1.3-1c0.7-0.2,1.4-0.4,2.1-0.5c0.8-0.1,1.7-0.2,2.6-0.3      L889,65.3z M888,69.9h5.2l2.6-11.8c0.1-0.3,0.1-0.6,0.1-0.9c0-0.3,0-0.6,0-0.8c0.1-1.3-0.6-2.6-1.8-3.3      c-1.8-0.8-3.7-1.2-5.6-1.1c-1.3,0-2.6,0.1-3.8,0.3c-1.3,0.2-2.2,0.4-2.8,0.6l-0.8,4.1h0.5c0.5-0.2,1.3-0.5,2.3-0.8      c0.9-0.3,1.9-0.4,2.8-0.5c1-0.1,1.9,0.1,2.8,0.4c0.6,0.2,1,0.8,1,1.5c0,0.2,0,0.3,0,0.5c0,0.1,0,0.2-0.1,0.3      c-1.8,0.1-3.5,0.3-5,0.5c-1.4,0.2-2.7,0.6-4,1.2c-2.3,0.9-3.8,3.3-3.7,5.8c0,1.2,0.4,2.3,1.3,3.2c0.9,0.8,2.1,1.3,3.3,1.2      c0.7,0,1.3,0,2-0.2c0.5-0.1,1-0.3,1.5-0.5c0.4-0.2,0.9-0.5,1.3-0.8l1.2-0.8L888,69.9z"></path>
				<polyline id="Fill-14" class="st46" points="906.2,45.9 900.9,69.9 895.6,69.9 900.9,45.9 906.2,45.9     "></polyline>
				<polyline id="Fill-15" class="st46" points="914,45.9 908.7,69.9 903.4,69.9 908.7,45.9 914,45.9     "></polyline>
				<path id="Fill-16" class="st46" d="M918.5,59c0.3-1,0.9-1.9,1.7-2.6c0.8-0.6,1.8-1,2.8-0.9c0.7-0.1,1.5,0.2,2.1,0.6      c0.5,0.5,0.8,1.2,0.7,1.9c0,0.2,0,0.3,0,0.5c0,0.2,0,0.3-0.1,0.5H918.5z M925.2,70c1.1-0.2,2.2-0.6,3.2-1.1l1-4.4h-0.6      c-0.9,0.5-1.7,1-2.7,1.3c-1,0.4-2.2,0.6-3.3,0.6c-1.3,0.1-2.6-0.2-3.7-1c-0.8-0.7-1.3-1.7-1.2-2.8v-0.3h12.2      c0.2-0.7,0.4-1.3,0.5-2c0.1-0.7,0.2-1.3,0.2-2c0.1-1.8-0.6-3.5-1.9-4.7c-1.6-1.2-3.5-1.7-5.5-1.6c-1.5,0-3,0.3-4.4,0.8      c-1.3,0.5-2.4,1.3-3.3,2.3c-0.9,1-1.7,2.2-2.1,3.5c-0.5,1.4-0.8,2.9-0.7,4.3c-0.1,2.1,0.7,4.1,2.3,5.4c1.8,1.4,4.1,2.1,6.5,2      C922.8,70.4,924,70.2,925.2,70z"></path>
				<path id="Fill-17" class="st46" d="M937.6,70.2c-1.4,0.1-2.7-0.2-3.9-1c-0.8-0.7-1.2-1.7-1.2-2.8c0-0.3,0-0.6,0.1-0.9      c0-0.3,0.1-0.7,0.2-1.1l1.8-8.2h-2.2l0.8-3.7h2.2l1.1-4.9h5.3l-1.1,4.9h4.9l-0.8,3.7h-4.9l-1.4,6.2c-0.1,0.4-0.2,0.9-0.3,1.3      c-0.1,0.4-0.1,0.7-0.1,1.1c-0.1,0.5,0.1,1,0.5,1.3c0.4,0.3,1,0.4,1.5,0.3c0.4,0,0.7-0.1,1.1-0.2c0.3-0.1,0.7-0.2,1-0.4h0.4      l-0.8,3.7c-0.6,0.2-1.2,0.3-1.8,0.4C939.2,70.1,938.4,70.2,937.6,70.2"></path>
				<polyline id="Fill-18" class="st46" points="974.5,52.5 966,69.8 960.4,69.8 959.3,58.2 953.8,69.8 948.1,69.8 946.6,52.5       952,52.5 952.5,64.3 958.2,52.5 962.9,52.5 964,64.4 969,52.5 974.5,52.5     "></polyline>
				<path id="Fill-19" class="st46" d="M983,65.3c-0.5,0.4-1.1,0.7-1.6,1c-0.5,0.2-1.1,0.4-1.6,0.4c-0.6,0-1.2-0.1-1.8-0.4      c-0.4-0.3-0.7-0.8-0.6-1.3c0-0.6,0.1-1.2,0.5-1.6c0.3-0.5,0.8-0.8,1.3-1c0.7-0.2,1.4-0.4,2.1-0.5c0.8-0.1,1.7-0.2,2.6-0.3      L983,65.3z M982,69.9h5.2l2.6-11.8c0.1-0.3,0.1-0.6,0.1-0.9c0-0.3,0-0.6,0-0.8c0.1-1.3-0.6-2.6-1.8-3.3      c-1.8-0.8-3.7-1.2-5.6-1.1c-1.3,0-2.6,0.1-3.8,0.3c-1.3,0.2-2.2,0.4-2.8,0.6l-0.8,4.1h0.5c0.5-0.2,1.3-0.5,2.3-0.8      c0.9-0.3,1.9-0.4,2.8-0.5c1-0.1,1.9,0.1,2.8,0.4c0.6,0.2,1,0.8,1,1.5c0,0.2,0,0.3,0,0.5c0,0.1-0.1,0.2-0.1,0.3      c-1.8,0.1-3.5,0.3-5,0.5c-1.4,0.2-2.7,0.6-4,1.2c-1.1,0.5-2,1.3-2.7,2.3c-0.6,1-1,2.2-0.9,3.5c0,1.2,0.4,2.3,1.3,3.2      c0.9,0.8,2.1,1.3,3.3,1.2c0.7,0,1.3,0,2-0.2c0.5-0.1,1-0.3,1.5-0.5c0.5-0.2,0.9-0.5,1.3-0.8l1.2-0.8L982,69.9z"></path>
				<polyline id="Fill-20" class="st46" points="995.7,76.2 989.9,76.2 994,69.5 991.3,52.6 996.8,52.6 998.2,63.8 1004.3,52.6       1009.9,52.6 995.7,76.2     "></polyline>
				<path id="Fill-21" class="st46" d="M1014.5,70.3c-1.4,0-2.7-0.1-4.1-0.4c-1-0.2-2-0.5-3-1l1-4.6h0.5c0.2,0.2,0.5,0.4,0.8,0.7      c0.4,0.3,0.9,0.6,1.4,0.8c0.6,0.3,1.2,0.5,1.8,0.6c0.7,0.2,1.5,0.3,2.2,0.3c0.9,0,1.8-0.1,2.7-0.4c0.5-0.2,0.9-0.7,0.9-1.3      c0-0.4-0.2-0.8-0.6-0.9c-0.8-0.4-1.7-0.6-2.6-0.8c-1.7-0.3-3.2-1-4.6-2c-0.8-0.7-1.3-1.8-1.2-2.9c0-1.9,0.9-3.6,2.5-4.6      c2-1.2,4.3-1.8,6.7-1.7c1.2,0,2.5,0.1,3.7,0.4c0.9,0.2,1.8,0.4,2.7,0.8l-1,4.4h-0.4c-0.7-0.6-1.6-1.1-2.5-1.4      c-1-0.4-2-0.6-3-0.5c-0.9,0-1.8,0.1-2.6,0.4c-0.5,0.2-0.9,0.7-0.9,1.3c0,0.5,0.3,0.9,0.8,1c0.8,0.3,1.6,0.6,2.4,0.8      c1.6,0.3,3.1,0.9,4.5,1.8c0.9,0.7,1.4,1.8,1.4,3c0,1.9-0.9,3.6-2.5,4.6c-2,1.2-4.4,1.8-6.8,1.7"></path>
			</g>
		</g>
	</g>
</g>
<g>
	<g>
		<path class="st47" d="M466.5,25.1c3,0,5.4,2.3,5.4,5.3c0,3-2.4,5.3-5.4,5.3c-3,0-5.4-2.3-5.4-5.3    C461.1,27.4,463.5,25.1,466.5,25.1 M361.6,25.4v11.4h-7.3v-4.6h-17.6v11.5h16v6.5h-16v11.6h17.6V57h7.3v11.5h-36.9v-6.8h4.1V32.2    h-4.1v-6.8H361.6z M387.4,55.8l11.8-30.4h4.5l-17.1,43.3h-4.7l-17.2-43.3h11.1L387.4,55.8z M413.1,46.1V30.6h23.1    c3.9,0,6.1,0.7,7.6,2c1.3,1.2,2.1,3,2.1,5.4c0,2.4-0.7,4.4-2,5.9c-1.4,1.5-3.5,2.3-7.5,2.3L413.1,46.1L413.1,46.1z M456.1,68.5    l-15.2-17.6c6.5-0.7,11.4-5.4,11.4-13c0-3.8-1.2-6.8-3.3-8.8c-2.7-2.5-6.6-3.7-12.8-3.7h-29.3v43.1h6.3V51.4h20.8l14.5,17.1H456.1    L456.1,68.5z M471.2,62.7c0,2.5,1,3.6,3.4,4.7v1.1h-15.7v-1.1c2.3-1.2,3.4-2.2,3.4-4.7V46.2c0-2.2-0.4-3.5-3.4-5.4v-1.1h12.4V62.7    z"></path>
	</g>
</g>
</svg>
