<?xml version="1.0" encoding="UTF-8"?>
<!-- Generator: Adobe Illustrator 27.1.1, SVG Export Plug-In . SVG Version: 6.00 Build 0)  -->
<svg xmlns="http://www.w3.org/2000/svg" xmlns:xlink="http://www.w3.org/1999/xlink" version="1.1" id="Layer_2_00000095324835480496424940000004634644843493391026_" x="0px" y="0px" viewBox="0 0 144.5 66.6" style="enable-background:new 0 0 144.5 66.6;" xml:space="preserve">
<style type="text/css">
	.st0{fill:#FFFFFF;}
</style>
<g id="Layer_1-2">
	<path class="st0" d="M121.9,51.6c0-0.2-0.1-0.3-0.2-0.4s-0.3-0.2-0.4-0.2h-0.6v1.1h0.6c0.2,0,0.3-0.1,0.4-0.2   C121.9,52,122,51.8,121.9,51.6 M122,53.9l-0.7-1.2h-0.5v1.2h-0.4v-3.2h1.1c0.2,0,0.3,0,0.4,0.1s0.3,0.1,0.4,0.2s0.2,0.3,0.3,0.4   c0.1,0.1,0.1,0.2,0.1,0.4s-0.1,0.4-0.2,0.6c-0.2,0.1-0.3,0.3-0.5,0.4l0.8,1.3C122.8,54.1,122,53.9,122,53.9z M123.6,52.3   c0-0.3-0.1-0.7-0.2-1c-0.3-0.6-0.7-1.1-1.2-1.2c-0.6-0.3-1.2-0.3-1.9,0l-0.8,0.5c-0.3,0.2-0.4,0.5-0.5,0.8c-0.3,0.6-0.3,1.2,0,1.9   c0.6,1.2,1.9,1.8,3.2,1.2L123,54c0.3-0.2,0.4-0.5,0.5-0.8C123.6,53,123.6,52.6,123.6,52.3 M124.1,52.3c0,0.4-0.1,0.8-0.3,1.1   c-0.3,0.7-0.9,1.2-1.5,1.5c-0.8,0.4-1.5,0.4-2.3,0c-0.7-0.3-1.2-0.9-1.5-1.5c-0.4-0.8-0.4-1.5,0-2.3c0.3-0.7,0.9-1.2,1.5-1.5   c0.8-0.3,1.5-0.3,2.3,0c0.7,0.3,1.2,0.9,1.5,1.5C124.1,51.5,124.2,51.9,124.1,52.3 M112.9,52.6c-0.8-1-2-1.4-3.2-1.3   c-2.4,0-3.7,1.6-3.7,3.2c0,1.2,1,1.7,2.1,2l1.4,0.4c2.8,0.7,3.8,1.9,3.8,4.3c0,3.7-3.2,5.4-6.6,5.4c-2.6,0-4.2-0.7-5.4-2.4l1.8-1.5   c1,1.2,2.5,1.9,4,1.7c2.3,0,4-1.2,4-3.1c0-1.4-0.9-2-2.1-2.3l-1.4-0.4c-2.3-0.5-3.8-1.8-3.8-4c0-2.9,2.1-5.5,6.3-5.5   c1.7-0.1,3.4,0.7,4.6,2C114.7,51.1,112.9,52.6,112.9,52.6z M101.4,51.5h-7.9l-1.1,5.2h6.8l-0.4,2.1H92l-1.1,5.4h8l-0.4,2.1H88.1   l3.4-17.1h10.3L101.4,51.5z M81.9,56.2l4,10.2h-2.8l-3.2-8.6l-3.6,3.4l-1.1,5h-2.5l3.5-17.1h2.5L77,57.7l8.3-8.6h3.2   C88.5,49.1,81.9,56.2,81.9,56.2z M66.5,52.9l-4.2,7.8h5.2L66.5,52.9z M68.2,66.4l-0.4-3.6h-6.3l-1.8,3.6h-2.8l9.4-17.1h2l2.6,17.1   H68.2z M54.6,66.4H52l1.5-7.5H47l-1.5,7.5h-2.6l3.5-17.1H49l-1.4,7.4h6.5l1.4-7.4h2.6L54.6,66.4z M40.5,52.6   c-0.8-1.1-2.1-1.5-3.3-1.3c-1.8-0.2-3.4,1.1-3.7,3v0.2c0,1.2,1,1.7,2.1,2l1.4,0.4c2.8,0.7,3.8,1.9,3.8,4.3c0,3.7-3.2,5.4-6.6,5.4   c-2.6,0-4.2-0.7-5.4-2.4l1.8-1.5c1,1.2,2.5,1.8,4,1.7c2.3,0,4-1.2,4-3.1c0-1.4-0.9-2-2-2.3l-1.5-0.4c-2.3-0.5-3.8-1.8-3.8-4   c0-2.9,2.1-5.5,6.3-5.5c1.7-0.1,3.4,0.6,4.6,2C42.2,51.1,40.5,52.6,40.5,52.6z M88.1,2.5h-3.6l-1.1,5.4H87c1.8,0.1,3.3-1.2,3.5-3.1   l0,0V4.5c0.1-1.1-0.7-2.1-1.8-2.3h-0.6 M88.6,9.6l2.5,7.5h-2.8l-2.1-7.3h-3.3l-1.4,7.3h-2.4L82.5,0h5.9c3.4,0,4.5,2,4.5,4.2   C93,6.9,91.2,9.1,88.6,9.6 M72.5,2.3c-1.1,0-2.1,0.4-2.9,1.2s-1.2,1.9-1.8,5.3c-0.3,1.2-0.4,2.6-0.5,3.8c-0.1,1.4,1,2.7,2.4,2.9   h0.2c1.1,0,2.1-0.4,3-1.2c0.8-0.8,1.1-1.9,1.8-5.3c0.3-1.2,0.4-2.6,0.5-3.8c0.1-1.4-1-2.7-2.4-2.9L72.5,2.3 M77.1,8.8   c-0.7,3.6-1.1,5.3-2.7,6.8c-1.2,1.1-2.9,1.8-4.6,1.9c-2.5,0.2-4.7-1.7-4.9-4.2v-0.5c0.1-1.3,0.3-2.7,0.5-4c0.7-3.6,1.1-5.3,2.7-6.8   c1.2-1.1,2.9-1.9,4.6-1.9c2.5-0.2,4.7,1.7,4.9,4.3l0,0v0.4C77.5,6.1,77.3,7.4,77.1,8.8 M64.3,2.5h-7.9l-1.1,5.4h6.8L61.7,10h-6.9   l-1.4,7.4h-2.6l3.5-17.1h10.3C64.6,0.3,64.3,2.5,64.3,2.5z M140.9,27.7c-0.9-1.1-2.3-1.6-3.7-1.4c-2.1,0-3.4,1.2-3.4,2.5   c0,1.2,1.1,1.4,1.9,1.7l1.7,0.4c4,1.1,5.3,3,5.3,6c0,5.4-4.5,7.6-9.4,7.6c-3.7,0-5.9-0.9-7.9-3.2l3.8-3.3c1.1,1.2,2.9,1.8,4.6,1.7   c2.1,0,3.6-1.1,3.6-2.5s-0.7-1.6-1.9-1.9l-1.7-0.4c-4.5-1.2-5.3-3.8-5.3-5.4c0-4.9,3.8-7.8,9.2-7.8c2.6-0.2,5.2,0.9,6.8,2.8   L140.9,27.7L140.9,27.7z M124.1,27.7c-0.9-1.1-2.3-1.6-3.7-1.4c-2.1,0-3.4,1.2-3.4,2.5c0,1.2,1.1,1.4,1.9,1.7l1.7,0.4   c4,1.1,5.3,3,5.3,6c0,5.4-4.5,7.6-9.4,7.6c-3.8,0-5.9-0.9-7.9-3.2l3.8-3.3c1.1,1.2,2.8,1.7,4.6,1.7s3.6-1.1,3.6-2.5   s-0.7-1.6-1.9-1.9l-1.7-0.4c-4.5-1.2-5.2-3.8-5.2-5.4c0-4.9,3.8-7.8,9.2-7.8c2.6-0.2,5.1,0.9,6.8,2.9   C127.8,24.6,124.1,27.7,124.1,27.7z M110.3,26.4H101l-0.9,4.2h7.9l-1,4.6h-7.9l-0.9,4.4h9.5l-1,4.6H92.1l4.7-22.4h14.4   C111.2,21.8,110.3,26.4,110.3,26.4z M89.4,44.2h-4.3l-4.7-11.8L78,44.2h-5.2l4.5-22.5h4.3l4.7,11.8l2.4-11.8h5.2L89.4,44.2z    M65.4,26.5H63l-2.8,13.2h2.4c1,0.1,2-0.3,2.7-1.1c0.7-0.7,1.1-1.4,1.8-5.5c0.4-1.4,0.6-2.9,0.7-4.3c0.1-1.2-0.9-2.2-2.1-2.3   L65.4,26.5 M72.3,33.1c-1.1,5.5-1.5,7.1-3.5,8.9c-1.7,1.6-4,2.5-6.3,2.4h-8.2l4.5-22.5h7.5c4.2,0,6.9,2.3,6.9,6.3   C73,29.9,72.8,31.5,72.3,33.1L72.3,33.1z M47,26.3c-0.9,0-1.7,0.5-2.3,1.1c-0.7,0.8-1.1,1.9-1.9,5.6c-0.3,1.4-0.5,2.9-0.6,4.4   c-0.2,1.2,0.7,2.3,1.9,2.5h0.4c0.9,0,1.7-0.4,2.3-1.1c0.7-0.8,1.1-1.9,1.9-5.6c0.3-1.4,0.5-2.9,0.6-4.4c0.2-1.2-0.8-2.4-2-2.6   L47,26.3 M53.8,33.1c-0.8,3.9-1.3,6.8-3.5,8.8c-1.7,1.7-3.9,2.7-6.3,2.7c-4.6,0-7.1-3.2-7.1-6.5c0.1-1.6,0.3-3.2,0.7-4.8   c0.8-3.9,1.3-6.8,3.5-8.8c1.7-1.6,4-2.6,6.3-2.7c4.6,0,7.1,3.2,7.1,6.5C54.4,29.9,54.1,31.5,53.8,33.1 M28.6,26.3   c-0.9,0-1.7,0.4-2.3,1.1c-0.7,0.8-1.1,1.9-1.9,5.6c-0.3,1.4-0.5,2.9-0.6,4.4c-0.2,1.1,0.7,2.2,1.8,2.4h0.5c0.9,0,1.7-0.4,2.3-1.1   c0.7-0.8,1.1-1.9,1.9-5.6c0.3-1.4,0.5-2.9,0.6-4.4C30.7,27.1,30,26.3,28.6,26.3 M35.4,33.1c-0.8,3.9-1.3,6.8-3.5,8.8   c-1.6,1.7-3.9,2.7-6.3,2.7c-4.6,0-7.1-3.2-7.1-6.5c0.1-1.6,0.3-3.2,0.7-4.8c0.8-3.9,1.3-6.8,3.5-8.8c1.7-1.6,4-2.6,6.3-2.7   c4.6,0,7.1,3.2,7.1,6.5C36.1,29.9,35.9,31.5,35.4,33.1 M12.7,28.9c-0.1-1.5-0.8-2.8-2.3-2.8c-1,0-1.8,0.4-2.4,1.1   c-1.1,1.1-1.3,2.6-2,5.7c-0.3,1.4-0.6,2.9-0.6,4.4c-0.2,1.1,0.6,2.1,1.7,2.3h0.5c1.8,0,3.3-1.3,3.7-3.7l0.1-0.4H8.2L9,31.2h8.4   l-0.6,3.1c-0.7,3.5-1.3,5.4-3.3,7.5c-1.6,1.7-3.9,2.7-6.3,2.7C2.1,44.5,0,41,0,38c0.1-1.6,0.3-3.2,0.6-4.8c1.1-5.4,1.6-7,3.5-8.7   c1.7-1.7,4-2.7,6.4-2.8c5.1,0,7.2,3.7,7.2,7.3C17.7,29,12.7,28.9,12.7,28.9z"></path>
</g>
</svg>
