<?xml version="1.0" encoding="UTF-8"?>
<!-- Generator: Adobe Illustrator 27.1.1, SVG Export Plug-In . SVG Version: 6.00 Build 0)  -->
<svg xmlns="http://www.w3.org/2000/svg" xmlns:xlink="http://www.w3.org/1999/xlink" version="1.1" id="Layer_2_00000121957970961251344970000013390328533829255063_" x="0px" y="0px" viewBox="0 0 232.3 20" style="enable-background:new 0 0 232.3 20;" xml:space="preserve">
<style type="text/css">
	.st0{fill:#FFFFFF;}
</style>
<g id="Layer_1-2">
	<g id="_86CUBy.tif">
		<path class="st0" d="M174.8,0c1.4,0,2.9,0.2,4.2,0.7s2.5,1.1,3.4,2.1c1,0.9,1.7,1.9,2.3,3.1c0.4,0.9,0.7,1.8,0.9,2.8    c0.1,0.5,0.1,1.1,0.1,1.5c0,1.2-0.3,2.4-0.9,3.4c-0.5,1.2-1.2,2.4-2.2,3.2c-0.7,0.7-1.4,1.1-2.2,1.6c-0.7,0.5-1.4,0.8-2.2,1    c-0.6,0.2-1.1,0.3-1.7,0.4c-0.9,0.2-1.7,0.2-2.6,0.1c-1.2-0.1-2.6-0.4-3.7-0.9c-1.2-0.5-2.3-1.1-3.2-2c-0.8-0.7-1.3-1.4-1.9-2.3    c-0.5-0.9-0.8-1.7-1.1-2.7c-0.1-0.4-0.2-0.7-0.2-1.1c-0.1-1,0-1.9,0.2-2.9c0.3-1.1,0.7-2.2,1.3-3.2c1.7-2.6,4.5-4.3,7.6-4.7    C173.9,0.1,174.4,0.1,174.8,0L174.8,0z M175,3.1c-0.6,0.1-1.2,0.1-1.8,0.3c-1,0.2-1.9,0.7-2.7,1.2c-0.7,0.5-1.2,1.1-1.6,1.9    s-0.8,1.7-0.9,2.6c-0.1,0.8-0.1,1.5,0.1,2.3c0,0.2,0.1,0.5,0.2,0.7c0.4,1.2,1.1,2.3,2.1,3.2c0.9,0.7,1.8,1.1,2.9,1.4    c0.4,0.1,0.9,0.1,1.1,0.2c0.3,0.1,0.7-0.1,0.9-0.1s0.8-0.1,1.1-0.2c1.6-0.4,3.2-1.3,4.1-2.7c0.4-0.6,0.8-1.2,1-2    c0.3-0.7,0.1-1.3,0.4-2c-0.2-0.6-0.1-1.1-0.3-1.7c-0.4-1.6-1.4-3.1-2.9-3.9C177.7,3.6,176.4,3.2,175,3.1L175,3.1L175,3.1z"></path>
		<path class="st0" d="M213.8,0.4h7.7c0.7,0,1.3,0.1,2,0.3c0.7,0.1,1.3,0.2,2,0.5c2.8,0.9,5.1,2.9,6.1,5.6c0.6,1.2,0.8,2.7,0.7,4    c-0.1,1.7-0.7,3.2-1.7,4.7c-0.9,1.2-2,2.2-3.3,3c-0.9,0.5-1.8,0.8-2.8,1c-0.7,0.1-1.3,0.3-2,0.4h-8.8L213.8,0.4    C213.8,0.4,213.8,0.4,213.8,0.4z M217.3,16.3h4.5c0.5,0,0.9,0,1.3-0.1c1.4-0.2,2.8-1,3.8-2s1.5-2.3,1.6-3.6c0-0.2,0.1-0.3,0.1-0.5    V9.7c0-0.2-0.1-0.4-0.1-0.6c0-0.8-0.3-1.6-0.7-2.3c-0.7-1.5-2-2.7-3.6-3.2c-0.8-0.3-1.6-0.4-2.4-0.5h-4.6L217.3,16.3L217.3,16.3    L217.3,16.3z"></path>
		<path class="st0" d="M90.6,19.4h-4.3c-1.7-2.1-3.3-4.5-5-6.7h-4.6v6.7h-3.4V0.3h8.9c1.3,0,2.6,0.2,3.8,0.7c1.8,0.6,3.2,2.1,3.6,4    c0.2,0.9,0.3,1.7,0.1,2.6c-0.1,0.7-0.3,1.3-0.6,2c-0.3,0.6-0.7,1.1-1.1,1.4c-0.4,0.2-0.6,0.5-0.9,0.6c-0.7,0.4-1.3,0.7-2,0.9    c0.6,0.8,1.1,1.6,1.8,2.3c0.7,0.9,1.2,1.5,1.9,2.3C89.3,17.7,89.8,18.5,90.6,19.4z M76.7,9.9h4.8c0.8,0,1.5-0.1,2.2-0.3    c0.6-0.2,1.1-0.5,1.6-1c0.7-0.8,1-1.7,0.8-2.7c-0.1-0.7-0.4-1.3-1-1.7c-0.8-0.6-1.8-0.9-2.8-0.8h-5.4C76.7,5.6,76.7,7.7,76.7,9.9z    "></path>
		<path class="st0" d="M28.5,3.3v4.9h10.1l0.1,0.1v3.1H28.5v5.1h11.8v3H25V0.4h14.4c0.7,0,0.9-0.1,0.7,0.8V3c0,0.5,0,0.6-0.6,0.6    h-5.7C32.2,3.3,30.4,3.3,28.5,3.3z"></path>
		<path class="st0" d="M0,0.4h3.5c0,0,0.1,0,0.1,0.1v7.9C4.2,8.5,9,8.6,13.4,8.5V0.4h3.5v19.2h-3.5v-8H3.6v8H0V0.4z"></path>
		<path class="st0" d="M200.4,19.5h-3.2c-0.3,0-0.4-0.1-0.4-0.4v-6.5c0-0.5-0.2-1-0.5-1.4l-1.9-2.7c-1.1-1.4-2.1-3-3.2-4.4    C190.4,3,189.7,2,189,0.9c-0.2-0.2-0.3-0.4-0.5-0.6l0.1-0.1h4c0.3,0.4,0.7,0.9,0.9,1.2c1.6,2.3,3.2,4.7,4.7,7.1    c0,0.1,0.1,0.1,0.2,0.2c0.3-0.4,0.6-0.9,0.9-1.2c1.2-1.9,2.6-3.7,3.8-5.7c0.4-0.6,0.7-1,1.1-1.5h4.1c-0.3,0.5-0.7,0.9-0.9,1.3    c-0.8,1-1.4,2-2,2.9c-1,1.4-2,2.8-3.1,4.2c-0.8,1-1.3,1.9-2,2.9c-0.2,0.2-0.3,0.5-0.3,0.8V19C200.4,19,200.4,19.2,200.4,19.5    L200.4,19.5z"></path>
		<path class="st0" d="M142,16.3v3.1c-0.6,0.1-9.9,0.2-14.4,0.1V0.3h3.5v16.1H142V16.3z"></path>
		<path class="st0" d="M146.6,0.4h3.2c0.4,0,0.4,0.1,0.5,0.4v15.7h10.2c0.5,0,0.6,0.1,0.6,0.6v2c0,0.4-0.1,0.5-0.5,0.5h-14    C146.6,18.8,146.6,3,146.6,0.4z"></path>
		<path class="st0" d="M100.5,0.4v19.2h-3.2c-0.4,0-0.5-0.1-0.5-0.5V0.8c0-0.4,0.1-0.5,0.5-0.5C98.4,0.3,99.3,0.4,100.5,0.4z"></path>
		<path class="st0" d="M121.5,9.5c-0.6,1.1-0.9,2.1-1.3,3.2h-13.7l1.1-3.2H121.5z"></path>
		<path class="st0" d="M65.3,0.4h-3.6v13.3C58,9.2,54.3,4.8,50.6,0.3h-3.3c-0.1,2.7-0.1,18.5,0.1,19.2H51V6c3.8,4.6,7.6,9,11.4,13.5    h3.2V0.4C65.6,0.4,65.3,0.4,65.3,0.4z"></path>
	</g>
</g>
</svg>
