<?xml version="1.0" encoding="UTF-8"?>
<!-- Generator: Adobe Illustrator 27.1.1, SVG Export Plug-In . SVG Version: 6.00 Build 0)  -->
<svg xmlns="http://www.w3.org/2000/svg" xmlns:xlink="http://www.w3.org/1999/xlink" version="1.1" id="Layer_2_00000161625053655590037080000005110994544328964793_" x="0px" y="0px" viewBox="0 0 195.7 26.3" style="enable-background:new 0 0 195.7 26.3;" xml:space="preserve">
<style type="text/css">
	.st0{fill:#FFFFFF;}
</style>
<g id="Layer_1-2">
	<g>
		<g id="RzGkn3">
			<path class="st0" d="M0,0.3h6.1C10.5,5.6,14.6,11,19,16.2c0.2-0.1,0.3-0.1,0.5-0.2V4.1c0.2-1.4-0.3-2.9-1.3-3.8h5.5     C23.3,1,23,1.7,22.8,2.5c-0.1,0.9-0.2,1.7-0.1,2.5v20.6c-0.6,0-1.1,0.1-1.8,0.1c-5.4-6.5-10.7-13.1-16.4-20v15.9     c0,1.3-0.2,2.7,1.1,3.8H0.5C0.8,24.2,1,22.8,1,21.6C1.1,15.7,1,9.8,1,3.8C1.5,2.6,1.1,1.2,0,0.3z"></path>
			<path class="st0" d="M132.2,25.5h-6.9c1.2-1.4,1.1-3.1,1.1-4.9V4.2c0-1.5,0-3-1.7-4.2c4,0,7.5-0.1,11,0c2.3,0,4.5,0.9,6.2,2.3     c3,2.6,2.5,8-0.7,10.3c-1.4,1.1-3.2,1.7-5.1,1.7h-5c0,0.7-0.1,1.2-0.1,1.9v5.1C131,22.8,130.7,24.2,132.2,25.5L132.2,25.5z      M131,11.7c1.4,0,2.7,0.1,4,0c2,0,3.7-1.6,3.7-3.7V6.6c-0.1-1.6-1.2-3-2.9-3.2s-3.2-0.2-4.8,0.1C131,3.5,131,11.7,131,11.7z"></path>
			<path class="st0" d="M26.8,11.5c0-0.4-0.1-0.6,0-0.8c0.3-1.1,0.5-2.3,0.8-3.6c3.2-0.9,6.4-1.3,9.7-0.5c3,0.8,4.5,2.7,4.6,5.9v8.3     c0,1.8,0.5,2.2,2.5,2.6c-0.6,0.9-1.1,1.6-1.6,2.4c-1.9,0.5-3.9-0.4-5-2c-1.9,1.9-4.4,2.3-6.9,2.2c-1.4-0.1-2.7-0.6-3.8-1.4     c-2.3-1.6-2.9-4.9-1.2-7.2l0,0c0.4-0.6,1-1.1,1.6-1.4c1.4-0.7,3-1.1,4.6-1.4c0.9-0.2,1.7-0.3,2.6-0.5c1.9-0.5,2.7-1.3,2.6-2.8     c-0.2-1.2-1.2-2-3-2.1C31,8.7,29.3,9.3,26.8,11.5z M37,15.7c-1.1,0.3-2.2,0.6-3.2,0.9s-1.8,0.6-2.7,1c-1.1,0.6-1.7,1.8-1.4,3.1     c0.2,1.2,1.1,2.3,2.2,2.7c2,0.6,5-1.2,5.2-3.3C37.1,18.5,37.1,17.1,37,15.7C37,15.7,37,15.7,37,15.7z"></path>
			<path class="st0" d="M55.3,6.7h5.4c0.2,0,0.4,0.1,0.7,0.1c0,0.5,0.1,1,0.1,1.4v10.9c-0.1,2,1.4,3.7,3.5,3.9h0.2     c2.1,0.3,4.1-1.2,4.4-3.4v-0.3c0.1-3.3,0.1-6.8,0-10.2c-0.2-0.8-0.5-1.5-0.9-2.2h5.5v15.2c-0.2,1.3,0.3,2.6,1.2,3.4h-5.7     c-0.1-0.5-0.1-1-0.2-1.5c-1.8,1.4-4,2.2-6.3,2c-3.7,0-5.9-2.2-6.3-5.9c-0.1-1.7-0.2-3.3-0.1-5.1V9.9C56.7,8.8,56.2,7.5,55.3,6.7z     "></path>
			<path class="st0" d="M152.5,6.7h5.6c0,0.6,0.1,1.1,0.1,1.5v10.5c0,1,0.3,1.9,0.8,2.7c0.6,0.9,1.5,1.4,2.5,1.4h1.8     c2.4-1,3.1-2.6,3-4.9c-0.1-3.2,0-6.6,0-9.7c-0.4-0.6-0.8-1.1-1.1-1.5h5.6c0,0.5,0.1,1,0.1,1.4v13.7c-0.1,1.3,0.3,2.7,1.1,3.7     h-5.5c-0.1-0.4-0.2-0.9-0.4-1.4c-1.9,1.5-4.3,2.2-6.7,1.9c-2.5,0-4.8-1.6-5.4-4.1c-0.3-1.1-0.5-2.1-0.5-3.2c-0.1-2.8,0-5.6,0-8.5     C153.6,9,153.3,7.9,152.5,6.7L152.5,6.7z"></path>
			<path class="st0" d="M107,16.4H93.7c-0.4,3.3,2,6.4,5.4,6.8h0.1c0.7,0.1,1.4,0,2.1-0.1c1.4-0.4,2.8-1.1,4.4-1.5     c1.1,1-0.4,2,0,3.2c-4.6,1.7-8.9,2.3-13-0.6c-4.5-3.3-5.4-9.7-2.1-14.1c0.5-0.7,1-1.2,1.6-1.7c2.7-2.2,6.3-2.7,9.4-1.3     c3,1.1,5,3.9,5.2,7.1C106.9,14.8,106.9,15.6,107,16.4z M102,13.8c0-3.2-1.5-5.3-4-5.2c-2.5,0.2-4.3,2.3-4.2,4.8v0.4H102z"></path>
			<path class="st0" d="M108.4,24.8c-0.2-1.3-0.4-2.5-0.6-3.7c1.7,0.7,3.2,1.3,5,1.9c1.3,0.5,2.9,0.5,4.2,0c1.4-0.3,2.4-1.6,2.1-3.1     c-0.6-0.5-1.1-1-1.8-1.3c-1.2-0.6-2.6-1-3.8-1.5c-0.8-0.3-1.5-0.6-2.2-1.1c-2.3-1.2-3.2-4.1-1.9-6.4c0.3-0.5,0.7-1,1.1-1.2     c1.2-1.1,2.8-1.9,4.5-2c2.5-0.3,5-0.1,7.4,0.8v3.4c-0.8-0.4-1.4-0.7-2.1-1c-1.2-0.6-2.6-0.8-4-0.6c-1.1,0-2,0.7-2.2,1.7     c-0.1,1,0.5,1.9,1.4,2.2c1.3,0.6,2.8,1.1,4.3,1.7c0.6,0.2,1.1,0.5,1.7,0.8c2.5,1.3,3.4,4.4,2.1,6.9l0,0c-0.3,0.5-0.6,0.9-1,1.2     c-1.1,1.1-2.7,1.9-4.4,2.2C114.8,26.4,111.4,26.1,108.4,24.8z"></path>
			<path class="st0" d="M173.7,24.8c-0.2-1.3-0.4-2.5-0.6-3.7c1.7,0.7,3.3,1.3,5,1.9c1.3,0.5,2.9,0.5,4.2,0c1.4-0.3,2.4-1.6,2.1-3.1     c-0.6-0.5-1.1-1-1.8-1.3c-1.2-0.6-2.6-1-3.8-1.5c-0.8-0.3-1.5-0.6-2.2-1.1c-2.2-1.2-3.1-4.1-1.8-6.4c0.3-0.5,0.7-1,1.1-1.2     c1.2-1.1,2.8-1.8,4.4-2c2.5-0.3,5-0.1,7.4,0.8v3.4c-0.8-0.4-1.4-0.7-2.1-1c-1.2-0.6-2.6-0.8-4-0.6c-1.1,0-2,0.7-2.2,1.7     c-0.1,1,0.5,1.9,1.4,2.2c1.3,0.6,2.8,1.1,4.3,1.7c0.6,0.2,1.1,0.5,1.7,0.8c2.5,1.3,3.4,4.4,2.1,6.9l0,0c-0.3,0.5-0.6,0.9-1,1.2     c-1.1,1.1-2.7,1.9-4.4,2.2C180.2,26.4,176.8,26.1,173.7,24.8L173.7,24.8z"></path>
			<path class="st0" d="M50.2,9.2v11.1c0,0.5,0.1,1,0.3,1.3c0.3,1.2,1.5,1.9,2.7,1.7c0.4-0.1,0.8-0.2,1.6-0.5     c-0.7,1.3-1.2,2.2-1.7,3.2c-0.7,0.1-1.3,0.1-1.9,0.2c-3.6,0.1-5.5-1.7-5.5-5.4V9.5c-0.8-0.1-1.3-0.2-1.9-0.3     c-0.1-0.2-0.1-0.3-0.1-0.5c0.1-0.2,0.2-0.3,0.3-0.5c2-1.9,4.1-3.8,6.3-5.9v4.4h4.4c-0.3,1.1-0.5,1.8-0.7,2.6     C52.8,9.2,51.5,9.2,50.2,9.2z"></path>
			<path class="st0" d="M151.4,25.5h-6.8c1.1-1.4,1-3,1-4.5V3.9c0.2-1.3-0.3-2.7-1.2-3.6h5.8c0,0.6,0.1,1.1,0.1,1.6v19.5     C150,22.9,150.5,24.4,151.4,25.5L151.4,25.5z"></path>
			<path class="st0" d="M76.8,6.8h5.8c0.1,0.8,0.1,1.4,0.2,2.3c1.5-1.6,3.2-2.8,5.5-2.6v4.3c-0.2,0-0.4-0.1-0.6-0.1     c-2.6-0.6-4.7,0.7-4.8,3.2c-0.2,3.1-0.1,6.3-0.1,9.4c0,0.8,0.6,1.4,0.9,2.3h-6.6c1.2-1.3,1.1-2.9,1.1-4.5V10.3     C78.4,8.9,77.8,7.7,76.8,6.8z"></path>
		</g>
		<path class="st0" d="M193.4,26.2c-0.3,0-0.6-0.1-0.9-0.2s-0.6-0.3-0.8-0.5s-0.4-0.5-0.5-0.8c-0.3-0.6-0.3-1.2,0-1.7    c0.1-0.3,0.3-0.6,0.5-0.8c0.2-0.2,0.5-0.4,0.8-0.5c0.6-0.3,1.2-0.3,1.7,0c0.3,0.1,0.6,0.3,0.8,0.5s0.4,0.5,0.5,0.8    c0.3,0.6,0.3,1.2,0,1.7c-0.1,0.3-0.3,0.6-0.5,0.8c-0.2,0.2-0.5,0.4-0.8,0.5C194,26.1,193.7,26.1,193.4,26.2z M193.4,25.7    c0.3,0,0.6-0.1,0.8-0.2s0.5-0.3,0.7-0.4c0.2-0.2,0.3-0.4,0.4-0.6c0.1-0.3,0.2-0.5,0.2-0.8s-0.1-0.6-0.2-0.8    c-0.1-0.2-0.2-0.4-0.4-0.6s-0.4-0.3-0.6-0.4c-0.3-0.1-0.5-0.2-0.8-0.2s-0.6,0.1-0.8,0.2s-0.4,0.2-0.6,0.4    c-0.2,0.2-0.3,0.4-0.4,0.6c-0.1,0.3-0.2,0.5-0.2,0.8s0.1,0.6,0.2,0.8c0.1,0.2,0.2,0.4,0.4,0.6s0.4,0.3,0.6,0.4    C192.9,25.8,193.1,25.8,193.4,25.7L193.4,25.7L193.4,25.7z M192.8,25.3L192.8,25.3l-0.1-2.9h0.8c0.2,0,0.4,0,0.5,0.1    c0.2,0.1,0.3,0.2,0.4,0.3c0.1,0.2,0.1,0.3,0.1,0.5s0,0.4-0.1,0.5s-0.3,0.2-0.4,0.3c-0.2,0.1-0.3,0.1-0.5,0.1h-0.6L192.8,25.3    L192.8,25.3L192.8,25.3z M192.9,23.8h0.6c0.4,0,0.7-0.3,0.7-0.7l0,0c0-0.2-0.1-0.3-0.2-0.5s-0.3-0.2-0.5-0.2h-0.6    C192.9,22.4,192.9,23.8,192.9,23.8z M194.3,25.3c-0.1,0-0.1,0-0.2-0.1l-0.8-1.2l0.3-0.1l0.8,1.1C194.4,25.1,194.5,25.1,194.3,25.3    C194.4,25.2,194.4,25.3,194.3,25.3C194.3,25.3,194.3,25.3,194.3,25.3z"></path>
	</g>
</g>
</svg>
