<?xml version="1.0" encoding="utf-8"?><svg id="Layer_1" data-name="Layer 1" xmlns="http://www.w3.org/2000/svg" viewBox="0 0 100 100"><title>1</title><path d="M88.74,31.33l-5.08-8.47A1.69,1.69,0,0,0,82.2,22H17.8a1.69,1.69,0,0,0-1.46.83l-5.08,8.47a1.7,1.7,0,0,0,1.45,2.57H87.29A1.69,1.69,0,0,0,88.76,33,1.71,1.71,0,0,0,88.74,31.33Zm-73-.82,3.06-5.09H81.24l3.05,5.09Z"/><path d="M89,32.12a1.7,1.7,0,0,0-1.69-1.61H12.71A1.7,1.7,0,0,0,11,32.12L7.63,98.22a1.65,1.65,0,0,0,.46,1.25,1.7,1.7,0,0,0,1.23.53H90.68a1.69,1.69,0,0,0,1.69-1.78ZM11.11,96.61,14.32,33.9H85.68l3.21,62.71Z"/><path d="M62.71,37.29a5.09,5.09,0,1,0,5.09,5.08A5.09,5.09,0,0,0,62.71,37.29Zm0,6.78a1.7,1.7,0,1,1,1.7-1.7A1.7,1.7,0,0,1,62.71,44.07Z"/><path d="M37.29,37.29a5.09,5.09,0,1,0,5.08,5.08A5.09,5.09,0,0,0,37.29,37.29Zm0,6.78A1.7,1.7,0,1,1,39,42.37,1.7,1.7,0,0,1,37.29,44.07Z"/><path d="M50,0A14.42,14.42,0,0,0,35.59,14.41v9.32a1.7,1.7,0,0,0,1.7,1.69H62.71a1.7,1.7,0,0,0,1.7-1.69V14.41A14.43,14.43,0,0,0,50,0ZM61,22H39V14.41a11,11,0,0,1,22,0V22Z"/><path d="M62.71,42.37h-.13a1.7,1.7,0,0,0-1.69,1.7,1.57,1.57,0,0,0,.13.65v8.67a11,11,0,1,1-22,0V44.07a1.7,1.7,0,1,0-3.39,0v9.32a14.41,14.41,0,0,0,28.82,0V44.07A1.7,1.7,0,0,0,62.71,42.37Z"/></svg>