<?xml version="1.0" encoding="utf-8"?><svg id="Layer_1" data-name="Layer 1" xmlns="http://www.w3.org/2000/svg" viewBox="0 0 100 100"><title>10</title><path d="M50,96.09a45.27,45.27,0,0,1-43.88-34,1.56,1.56,0,1,1,3-.77A42.2,42.2,0,0,0,92.19,50.78a1.56,1.56,0,0,1,3.12,0A45.36,45.36,0,0,1,50,96.09Z"/><path d="M6.25,50.78a1.56,1.56,0,0,1-1.56-1.56A45.32,45.32,0,0,1,93.88,37.89a1.56,1.56,0,1,1-3,.77,42.2,42.2,0,0,0-83,10.56A1.56,1.56,0,0,1,6.25,50.78Z"/><path d="M6.25,50.78a1.52,1.52,0,0,1-1.1-.46L.46,45.64a1.56,1.56,0,1,1,2.21-2.21l4.68,4.68a1.55,1.55,0,0,1,0,2.21A1.52,1.52,0,0,1,6.25,50.78Z"/><path d="M6.25,50.78a1.52,1.52,0,0,1-1.1-.46,1.55,1.55,0,0,1,0-2.21l4.68-4.68A1.56,1.56,0,1,1,12,45.64L7.35,50.32A1.52,1.52,0,0,1,6.25,50.78Z"/><path d="M98.44,55.47A1.56,1.56,0,0,1,97.33,55l-4.68-4.69a1.56,1.56,0,0,1,2.2-2.21l4.69,4.69a1.56,1.56,0,0,1,0,2.21A1.52,1.52,0,0,1,98.44,55.47Z"/><path d="M89.06,55.47A1.52,1.52,0,0,1,88,55a1.56,1.56,0,0,1,0-2.21l4.69-4.69a1.56,1.56,0,0,1,2.2,2.21L90.17,55A1.56,1.56,0,0,1,89.06,55.47Z"/><path d="M21.87,85.85a1.56,1.56,0,0,1-1.56-1.56V44.52a1.56,1.56,0,1,1,3.12,0V84.29A1.56,1.56,0,0,1,21.87,85.85Z"/><path d="M78.13,85.85a1.55,1.55,0,0,1-1.56-1.56V44.52a1.56,1.56,0,1,1,3.12,0V84.29A1.56,1.56,0,0,1,78.13,85.85Z"/><path d="M78.13,46.08H21.87a1.57,1.57,0,0,1,0-3.13H78.13a1.57,1.57,0,0,1,0,3.13Z"/><path d="M21.87,46.08a1.48,1.48,0,0,1-.8-.23,1.56,1.56,0,0,1-.54-2.14l4.69-7.82A1.56,1.56,0,0,1,27.9,37.5l-4.69,7.82A1.55,1.55,0,0,1,21.87,46.08Z"/><path d="M78.13,46.08a1.55,1.55,0,0,1-1.34-.76L72.1,37.5a1.56,1.56,0,1,1,2.68-1.6l4.69,7.81a1.58,1.58,0,0,1-.54,2.15A1.56,1.56,0,0,1,78.13,46.08Z"/><path d="M73.44,38.26H26.56a1.56,1.56,0,0,1,0-3.12H73.44a1.56,1.56,0,0,1,0,3.12Z"/><path d="M43.75,46.08a1.63,1.63,0,0,1-.31,0,1.57,1.57,0,0,1-1.22-1.84l1.56-7.82a1.56,1.56,0,0,1,3.06.62l-1.56,7.81A1.56,1.56,0,0,1,43.75,46.08Z"/><path d="M56.25,46.08a1.56,1.56,0,0,1-1.53-1.26L53.16,37a1.56,1.56,0,1,1,3.06-.62l1.56,7.82a1.57,1.57,0,0,1-1.22,1.84Z"/><path d="M43.75,55.45a1.56,1.56,0,0,1-1.57-1.56V44.52a1.57,1.57,0,1,1,3.13,0v9.37A1.56,1.56,0,0,1,43.75,55.45Z"/><path d="M56.25,55.45a1.56,1.56,0,0,1-1.56-1.56V44.52a1.56,1.56,0,1,1,3.12,0v9.37A1.56,1.56,0,0,1,56.25,55.45Z"/><path d="M56.25,55.45a1.69,1.69,0,0,1-.38,0l-6.25-1.57a1.56,1.56,0,1,1,.76-3l6.25,1.56a1.56,1.56,0,0,1-.38,3.08Z"/><path d="M43.75,55.45a1.56,1.56,0,0,1-.38-3.08l6.25-1.56a1.56,1.56,0,1,1,.76,3l-6.25,1.57A1.69,1.69,0,0,1,43.75,55.45Z"/></svg>