<?xml version="1.0" encoding="utf-8"?><svg id="Layer_1" data-name="Layer 1" xmlns="http://www.w3.org/2000/svg" viewBox="0 0 100 100"><title>11</title><path d="M85.45,3.33H78.79V1.67A1.67,1.67,0,0,0,77.12,0h-40a1.67,1.67,0,0,0-1.67,1.67V3.33H28.79a8.36,8.36,0,0,0-8.34,8.34V36.75a8.32,8.32,0,0,0-5.86,3.57L7,51.49A18.2,18.2,0,0,0,3.79,61.81V98.33A1.66,1.66,0,0,0,5.45,100h20a1.67,1.67,0,0,0,1.67-1.67V93.14a7.85,7.85,0,0,0,1.67.19H85.45A8.35,8.35,0,0,0,93.79,85V11.67A8.36,8.36,0,0,0,85.45,3.33Zm-46.66,0H75.45v8.34a1.66,1.66,0,0,1-1.66,1.66H40.45a1.66,1.66,0,0,1-1.66-1.66Zm1.66,13.34H73.79a5,5,0,0,0,4.69-3.34h3.64A1.67,1.67,0,0,1,83.79,15V81.67a1.66,1.66,0,0,1-1.67,1.66h-50a1.51,1.51,0,0,1-.65-.15,14.55,14.55,0,0,0,.65-4.3V77.81a15,15,0,0,0-1.29-6.09L30,69.87l7.72-15.69a6.64,6.64,0,0,0-7.27-9.81V15a1.67,1.67,0,0,1,1.67-1.67h3.64a5,5,0,0,0,4.69,3.34Zm-11.66-10h6.66V10H32.12a5,5,0,0,0-5,5V46.29a7.39,7.39,0,0,0-1,1.31l-2.34,4.68V11.67a5,5,0,0,1,5-5ZM23.79,90v6.67H7.12V61.81a15,15,0,0,1,2.61-8.45l7.61-11.17a5,5,0,0,1,3.11-2v18.8L17.7,64.43a1.67,1.67,0,0,0,.74,2.24h0a1.67,1.67,0,0,0,2.24-.74l8.38-16.74a3.33,3.33,0,0,1,6.22,1.67,3.52,3.52,0,0,1-.5,1.76L26.66,69.1a1.84,1.84,0,0,0-.17.69v.06a1.59,1.59,0,0,0,.21.8l1.08,2.42a11.83,11.83,0,0,1,1,4.72v1.09a11.75,11.75,0,0,1-2.34,7L24.12,89a1.64,1.64,0,0,0-.33,1Zm66.66-5a5,5,0,0,1-5,5H28.79a5.39,5.39,0,0,1-1.14-.15l1.48-2a15.36,15.36,0,0,0,1-1.62,5.06,5.06,0,0,0,1.95.42h50a5,5,0,0,0,5-5V15a5,5,0,0,0-5-5H78.79V6.67h6.66a5,5,0,0,1,5,5Z"/><path d="M57.12,21.67h0a1.66,1.66,0,0,1,1.67,1.66h0A1.67,1.67,0,0,1,57.12,25h0a1.67,1.67,0,0,1-1.67-1.67h0A1.66,1.66,0,0,1,57.12,21.67Z"/><path d="M63.79,21.67h0a1.66,1.66,0,0,1,1.66,1.66h0A1.66,1.66,0,0,1,63.79,25h0a1.67,1.67,0,0,1-1.67-1.67h0A1.66,1.66,0,0,1,63.79,21.67Z"/><path d="M50.45,21.67h0a1.66,1.66,0,0,1,1.67,1.66h0A1.67,1.67,0,0,1,50.45,25h0a1.66,1.66,0,0,1-1.66-1.67h0A1.66,1.66,0,0,1,50.45,21.67Z"/><path d="M53.79,45.69l3.82,3.82a1.67,1.67,0,0,0,2.36,0l7.15-7.15v1A1.67,1.67,0,0,0,68.79,45h0a1.66,1.66,0,0,0,1.66-1.67v-5a1.66,1.66,0,0,0-1.66-1.66h-5a1.66,1.66,0,0,0-1.67,1.66h0A1.67,1.67,0,0,0,63.79,40h1l-6,6L55,42.15a1.67,1.67,0,0,0-2.36,0l-5.49,5.49a1.67,1.67,0,0,0,0,2.36h0a1.67,1.67,0,0,0,2.36,0Z"/><path d="M42.12,60H70.45a1.67,1.67,0,0,0,1.67-1.67h0a1.66,1.66,0,0,0-1.67-1.66H43.79V33.33a1.66,1.66,0,0,0-1.67-1.66h0a1.66,1.66,0,0,0-1.67,1.66v25A1.67,1.67,0,0,0,42.12,60Z"/><path d="M43.79,66.67h6.66a1.66,1.66,0,0,1,1.67,1.66h0A1.67,1.67,0,0,1,50.45,70H43.79a1.67,1.67,0,0,1-1.67-1.67h0A1.66,1.66,0,0,1,43.79,66.67Z"/><path d="M57.12,66.67H70.45a1.66,1.66,0,0,1,1.67,1.66h0A1.67,1.67,0,0,1,70.45,70H57.12a1.67,1.67,0,0,1-1.67-1.67h0A1.66,1.66,0,0,1,57.12,66.67Z"/><path d="M43.79,73.33H70.45A1.67,1.67,0,0,1,72.12,75h0a1.67,1.67,0,0,1-1.67,1.67H43.79A1.67,1.67,0,0,1,42.12,75h0A1.67,1.67,0,0,1,43.79,73.33Z"/></svg>