<?xml version="1.0" encoding="utf-8"?><svg id="Layer_1" data-name="Layer 1" xmlns="http://www.w3.org/2000/svg" viewBox="0 0 100 100"><title>2</title><path d="M28.57,22.22H7.94a1.59,1.59,0,0,0,0,3.18H28.57a1.59,1.59,0,1,0,0-3.18Z"/><path d="M28.57,30.16H23.81a1.59,1.59,0,1,0,0,3.17h4.76a1.59,1.59,0,1,0,0-3.17Z"/><path d="M19.05,30.16H3.17a1.59,1.59,0,0,0,0,3.17H19.05a1.59,1.59,0,0,0,0-3.17Z"/><path d="M28.57,38.1H22.22a1.59,1.59,0,0,0,0,3.17h6.35a1.59,1.59,0,1,0,0-3.17Z"/><path d="M98.41,57.14H23.81a1.59,1.59,0,0,0-1.59,1.59V69.84a1.59,1.59,0,0,0,1.59,1.59h5.78a1.59,1.59,0,0,0,0-3.18H25.4V60.32H96.83v3.84a4.1,4.1,0,0,1-4.1,4.09,1.59,1.59,0,0,0,0,3.18A7.28,7.28,0,0,0,100,64.16V58.73A1.59,1.59,0,0,0,98.41,57.14Z"/><path d="M78.67,68.25H43.22a1.59,1.59,0,1,0,0,3.18H78.67a1.59,1.59,0,0,0,0-3.18Z"/><path d="M82.7,31.75H71.43a1.59,1.59,0,0,0-1.59,1.58v25.4a1.59,1.59,0,0,0,1.59,1.59h27A1.59,1.59,0,0,0,100,58.73V49.05A17.32,17.32,0,0,0,82.7,31.75ZM96.83,57.14H73V34.92H82.7A14.15,14.15,0,0,1,96.83,49.05Z"/><path d="M84.13,38.1H76.19a1.59,1.59,0,0,0-1.59,1.58v9.53a1.59,1.59,0,0,0,1.59,1.58H93.65a1.59,1.59,0,0,0,1.59-1.58A11.12,11.12,0,0,0,84.13,38.1Zm-6.35,9.52V41.27h6.35a7.94,7.94,0,0,1,7.77,6.35Z"/><path d="M36.51,61.9a7.94,7.94,0,1,0,7.93,7.94A7.95,7.95,0,0,0,36.51,61.9Zm0,12.7a4.76,4.76,0,1,1,4.76-4.76A4.76,4.76,0,0,1,36.51,74.6Z"/><path d="M85.71,61.9a7.94,7.94,0,1,0,7.94,7.94A7.94,7.94,0,0,0,85.71,61.9Zm0,12.7a4.76,4.76,0,1,1,4.77-4.76A4.76,4.76,0,0,1,85.71,74.6Z"/><path d="M98.41,74.6H1.59a1.59,1.59,0,0,0,0,3.18H98.41a1.59,1.59,0,0,0,0-3.18Z"/><path d="M65.08,25.4H52.38A1.59,1.59,0,0,0,50.79,27V32.6a1.59,1.59,0,0,0,3.18,0v-4h9.52V58.73a1.59,1.59,0,0,0,3.18,0V27A1.59,1.59,0,0,0,65.08,25.4Z"/><path d="M44.44,39.68H33.33a1.59,1.59,0,0,0-1.58,1.59V58.73a1.59,1.59,0,0,0,1.58,1.59H44.44A1.59,1.59,0,0,0,46,58.73V41.27A1.59,1.59,0,0,0,44.44,39.68ZM42.86,57.14H34.92V42.86h7.94Z"/><path d="M57.14,31.75H44.44a1.58,1.58,0,0,0-1.58,1.58v25.4a1.59,1.59,0,0,0,1.58,1.59h12.7a1.59,1.59,0,0,0,1.59-1.59V33.33A1.59,1.59,0,0,0,57.14,31.75ZM55.56,57.14H46V34.92h9.53Z"/></svg>