<?xml version="1.0" encoding="utf-8"?><svg id="Layer_1" data-name="Layer 1" xmlns="http://www.w3.org/2000/svg" viewBox="0 0 100 100"><title>3</title><path d="M72.24,0H27.76a5.55,5.55,0,0,0-5.54,5.54V94.46A5.55,5.55,0,0,0,27.76,100H72.24a5.55,5.55,0,0,0,5.54-5.54V5.54A5.55,5.55,0,0,0,72.24,0Zm1.83,94.46a1.84,1.84,0,0,1-1.83,1.84H27.76a1.85,1.85,0,0,1-1.84-1.84V5.54A1.85,1.85,0,0,1,27.76,3.7H72.24a1.84,1.84,0,0,1,1.83,1.84Z"/><path d="M70.37,5.55H29.63a1.85,1.85,0,0,0-1.85,1.86V79.63a1.85,1.85,0,0,0,1.85,1.85H70.37a1.85,1.85,0,0,0,1.85-1.85V7.41A1.85,1.85,0,0,0,70.37,5.55ZM68.52,77.78h-37V9.26h37Z"/><path d="M50,83.33a5.56,5.56,0,1,0,5.56,5.56A5.57,5.57,0,0,0,50,83.33Zm0,7.41a1.85,1.85,0,1,1,1.85-1.85A1.85,1.85,0,0,1,50,90.74Z"/><path d="M63,20.37H51.85a1.85,1.85,0,1,0,0,3.7H63a1.85,1.85,0,1,0,0-3.7Z"/><path d="M47,13.11a1.86,1.86,0,0,0-2.44,1L39.91,25l-3.7-2.47a1.85,1.85,0,1,0-2.05,3.08l5.55,3.71a1.91,1.91,0,0,0,1,.31,2,2,0,0,0,.53-.08,1.81,1.81,0,0,0,1.17-1l5.56-13A1.85,1.85,0,0,0,47,13.11Z"/><path d="M63,42.59H51.85a1.86,1.86,0,0,0,0,3.71H63a1.86,1.86,0,0,0,0-3.71Z"/><path d="M47,35.33a1.87,1.87,0,0,0-2.44,1L39.91,47.22l-3.7-2.46a1.85,1.85,0,1,0-2.05,3.08l5.55,3.7a1.83,1.83,0,0,0,1,.31,1.63,1.63,0,0,0,.53-.08,1.81,1.81,0,0,0,1.17-1l5.56-13A1.87,1.87,0,0,0,47,35.33Z"/><path d="M63,64.81H51.85a1.86,1.86,0,0,0,0,3.71H63a1.86,1.86,0,0,0,0-3.71Z"/><path d="M47,57.56a1.85,1.85,0,0,0-2.44,1L39.91,69.45,36.21,67a1.85,1.85,0,1,0-2.05,3.08l5.55,3.7a1.83,1.83,0,0,0,1,.31,1.93,1.93,0,0,0,.53-.07,1.83,1.83,0,0,0,1.17-1L48,60A1.85,1.85,0,0,0,47,57.56Z"/></svg>