<?xml version="1.0" encoding="utf-8"?><svg id="Layer_1" data-name="Layer 1" xmlns="http://www.w3.org/2000/svg" viewBox="0 0 83.19 37.47"><title>4Artboard 2</title><path d="M9.15,24.52v.61c0,3.13,1.52,4.8,4.4,4.8s4.7-1.61,4.7-4.55c0-3.39-1.67-4.85-5.36-4.85a8.7,8.7,0,0,0-1.11,0V14.76h.51c3.33,0,5.15-1.51,5.15-4.24a3.73,3.73,0,0,0-4-3.74c-2.48,0-4,1.41-4,3.89H.71C.86,4,5.56,0,13.9,0c7.59,0,11.89,3.74,11.89,9.3,0,3.64-2,6.32-5.72,7.44,4.55.75,7.13,4.09,7.13,8.9,0,7-5.51,11.83-13.5,11.83C5.31,37.47,0,32.61,0,25v-.51Z"/><path d="M30.62,36.51V.35h11c4.55,0,8.14.05,11,1.87,3.18,2,5.05,5.77,5.05,10.42,0,4.8-1.77,8.39-5,10.32-2.48,1.46-5.26,1.61-8.65,1.61H39.87V36.51ZM41.75,16.64c4.19,0,6.37-.81,6.37-4.3s-2.28-4.2-6.27-4.2h-2v8.5Z"/><path d="M61.09.35H71V28.06H83.19v8.45H61.09Z"/></svg>