<?xml version="1.0" encoding="utf-8"?><svg id="Layer_1" data-name="Layer 1" xmlns="http://www.w3.org/2000/svg" viewBox="0 0 100 100"><title>4</title><path d="M93.91,43.56h-5a5,5,0,0,0-4.74-3.64H78.74V26.75a1.35,1.35,0,0,0-.67-1.22L40.1,3.59a1.42,1.42,0,0,0-1.41,0L.7,25.53A1.42,1.42,0,0,0,0,26.75V70.62a1.41,1.41,0,0,0,.71,1.22l38,21.93a1.38,1.38,0,0,0,.71.19,1.42,1.42,0,0,0,.73-.19l20-11.52v8.33a6,6,0,0,0,6,6h27.8a6,6,0,0,0,6.09-6V49.67A6.11,6.11,0,0,0,93.91,43.56Zm-9.73-.81a2.05,2.05,0,0,1,2,2.06h0v.13a2.05,2.05,0,0,1-2,2.06H75.94a2.05,2.05,0,0,1-2-2.06h0v-.13a2.05,2.05,0,0,1,2-2.06h8.24ZM39.4,6.46l15.79,9.11L20,35.86,4.25,26.75ZM38.06,90.09,2.83,69.8V29.2L38.06,49.5Zm1.34-43L22.87,37.5,58,17.21l16.53,9.54Zm20.72,2.62V79L40.89,90.09V49.5l35-20.3V39.92h0a5,5,0,0,0-4.74,3.64h-5A6.08,6.08,0,0,0,60.12,49.67Zm37,40.91A3.18,3.18,0,0,1,94,93.76H66.17A3.16,3.16,0,0,1,63,90.65v-41a3.25,3.25,0,0,1,3.21-3.28h5.11A4.83,4.83,0,0,0,76,49.83h8.18a4.83,4.83,0,0,0,4.68-3.44h5.1a3.28,3.28,0,0,1,3.25,3.28Z"/><path d="M67.81,77h6.68a1.41,1.41,0,0,0,1.42-1.42V68.86a1.41,1.41,0,0,0-1.42-1.41H67.81a1.41,1.41,0,0,0-1.41,1.41v6.68A1.41,1.41,0,0,0,67.81,77Zm1.42-6.68h3.85v3.85H69.23Z"/><path d="M74.23,56.23l-4.15,4.15-1.27-1.26a1.4,1.4,0,0,0-2,0,1.42,1.42,0,0,0,0,2l2.27,2.27a1.42,1.42,0,0,0,2,0h0l5.15-5.16a1.41,1.41,0,0,0-2-2Z"/><path d="M74.23,82.39l-4.15,4.15-1.27-1.26a1.41,1.41,0,0,0-2,2l2.27,2.27a1.42,1.42,0,0,0,2,0h0l5.15-5.15a1.42,1.42,0,0,0-2-2Z"/><path d="M92.28,57.93h-8.9a1.42,1.42,0,0,0,0,2.84h8.9a1.42,1.42,0,0,0,0-2.84Z"/><path d="M92.28,70.89h-8.9a1.42,1.42,0,1,0,0,2.83h8.9a1.42,1.42,0,0,0,0-2.83Z"/><path d="M92.28,83.84h-8.9a1.42,1.42,0,1,0,0,2.84h8.9a1.42,1.42,0,0,0,0-2.84Z"/></svg>