<?xml version="1.0" encoding="utf-8"?><svg xmlns="http://www.w3.org/2000/svg" viewBox="0 0 1000 700"><defs><style>.cls-1{fill:#fff;}</style></defs><title>4Artboard 5</title><g id="Layer_1" data-name="Layer 1"><rect width="1000" height="700"/></g><g id="Layer_2" data-name="Layer 2"><path class="cls-1" d="M614.37,389.93a116.94,116.94,0,0,0-52.89-126.45,4.51,4.51,0,1,0-4.73,7.69A108,108,0,0,1,605.83,386.8a31.69,31.69,0,1,0,8.54,3.13Zm-15,50.41A22.59,22.59,0,1,1,622,417.76,22.61,22.61,0,0,1,599.38,440.34Z"/><path class="cls-1" d="M541.43,463.75a108.32,108.32,0,0,1-118.3-23.82,31.61,31.61,0,1,0-7.24,5.5,117.35,117.35,0,0,0,129,26.67,4.52,4.52,0,1,0-3.45-8.35Zm-163.4-46a22.59,22.59,0,1,1,22.59,22.58A22.62,22.62,0,0,1,378,417.76Z"/><path class="cls-1" d="M387.07,360h.32a4.52,4.52,0,0,0,4.5-4.2,107.86,107.86,0,0,1,77.79-96.28,31.56,31.56,0,1,0-1.3-9,116.88,116.88,0,0,0-85.5,104.67A4.53,4.53,0,0,0,387.07,360ZM500,228a22.59,22.59,0,1,1-22.59,22.59A22.62,22.62,0,0,1,500,228Z"/></g></svg>