<?xml version="1.0" encoding="utf-8"?><svg id="Layer_1" data-name="Layer 1" xmlns="http://www.w3.org/2000/svg" viewBox="0 0 100 100"><title>5</title><path d="M85.71,53.35a1.65,1.65,0,0,0-1.65,1.7c-.15,1.81-.94,2-1.53,2-.86,0-1.6-.41-3.33-1.41a6.4,6.4,0,0,0,.24-1.79,7.22,7.22,0,0,0-.32-2.17h2.47a1.44,1.44,0,0,0,0-2.88H78.26a8.26,8.26,0,0,1-.64-2.92c0-2,1.15-3.23,2.92-3.23a2.22,2.22,0,0,1,2.27,1.61A4.72,4.72,0,0,1,83,45.34c.08.63.2,1.57,1.58,1.57.49,0,1.64-.18,1.64-1.87,0-2.54-1.51-5.51-5.76-5.51-3.13,0-6.29,1.88-6.29,6.08a11.47,11.47,0,0,0,.53,3.21H72.5a1.34,1.34,0,0,0-1.36,1.44,1.37,1.37,0,0,0,1.41,1.44h3A6.32,6.32,0,0,1,76,53.93a4.65,4.65,0,0,0-1.88-.41,3.34,3.34,0,0,0-3.61,3.35,3.64,3.64,0,0,0,3.81,3.6,4.9,4.9,0,0,0,3.72-1.8,9.42,9.42,0,0,0,4.64,1.62c3.89,0,4.73-4.13,4.73-5.16A1.69,1.69,0,0,0,85.71,53.35Zm-11.6,3.19a2.31,2.31,0,0,1,1.23.44,1.44,1.44,0,0,1-1.15.58c-.51,0-.75-.27-.75-.52S73.51,56.54,74.11,56.54Z"/><path d="M26.82,18H37a1.83,1.83,0,0,0,1.77-1.92,1.8,1.8,0,0,0-.52-1.21l-3.64-3.65A25.94,25.94,0,0,1,70.7,15.75c.32.4.62.8.91,1.21h0a1.79,1.79,0,0,0,2.93-2.05A29.57,29.57,0,0,0,33.41,7.63c-.46.32-.92.67-1.37,1l-3.95-4A1.74,1.74,0,0,0,25.1,6V16.1A1.81,1.81,0,0,0,26.82,18Zm3.79-5.72a.88.88,0,0,0,.12.17l1.93,2h-4V10.28l1.82,1.83h0Z"/><path d="M73.05,82H62.89a1.84,1.84,0,0,0-1.77,1.91,1.81,1.81,0,0,0,.52,1.22l3.64,3.65a26,26,0,0,1-36.11-4.54c-.32-.39-.62-.8-.9-1.21h0a1.8,1.8,0,0,0-2.5-.44,1.8,1.8,0,0,0-.44,2.49,29.56,29.56,0,0,0,41.13,7.28c.46-.32.92-.66,1.37-1l4,4a1.79,1.79,0,0,0,1.94.38,1.76,1.76,0,0,0,1.09-1.65V83.9A1.86,1.86,0,0,0,73.05,82Zm-1.81,3.58v4.14L69.32,87.8l-.06-.08a.61.61,0,0,0-.12-.16l-1.93-2Z"/><path d="M79,29a21,21,0,1,0,21,21A21,21,0,0,0,79,29ZM96.42,50A17.44,17.44,0,1,1,79,32.56,17.49,17.49,0,0,1,96.42,50Z"/><path d="M43.28,62.2V37.74a1.55,1.55,0,0,0-.87-1.34L22.35,26.68a1.56,1.56,0,0,0-1.35,0L1.22,36.28a1.53,1.53,0,0,0-1,.84,1.81,1.81,0,0,0-.14.45l0,24.6a1.56,1.56,0,0,0,.87,1.39l20.07,9.73.08.07h.07l.05,0,.22.07h.09a1,1,0,0,0,.22,0h.2l.27-.07h.05l20.22-9.81A1.52,1.52,0,0,0,43.28,62.2ZM38.23,37.8l-16.55,8-7.46-3.61,16.55-8ZM9.69,43.43,12,44.57h0l8.11,3.94V69.46l-17-8.27V40.24l6.59,3.19ZM5.14,37.8l16.54-8,5.55,2.7-16.54,8ZM40.2,40.28V61.23l-17,8.23V48.51Z"/></svg>