<?xml version="1.0" encoding="utf-8"?><svg id="Layer_1" data-name="Layer 1" xmlns="http://www.w3.org/2000/svg" viewBox="0 0 100 100"><title>7</title><path d="M84.65,31.37,80,25.67a5,5,0,0,1-1.13-2.73l-.71-7.35a8,8,0,0,0-7.22-7.22l-7.35-.71A5.13,5.13,0,0,1,60.8,6.53l-5.69-4.7a8,8,0,0,0-10.22,0L39.2,6.53a5.13,5.13,0,0,1-2.74,1.13l-7.35.71a8,8,0,0,0-7.22,7.22l-.71,7.35a5.1,5.1,0,0,1-1.13,2.73l-4.7,5.7a8,8,0,0,0,0,10.21l4.7,5.7A5.1,5.1,0,0,1,21.18,50l.71,7.34a8,8,0,0,0,7.22,7.23L33.6,65,22.93,90.52a1.94,1.94,0,0,0,2.32,2.62l9.26-2.62a.1.1,0,0,1,.1,0L39.25,99a1.92,1.92,0,0,0,1.7,1h.1a1.92,1.92,0,0,0,1.69-1.19L54,71.88a8,8,0,0,0,1.1-.76l5.69-4.69a5,5,0,0,1,2.51-1.1l10.2,24.38-7.22-2a3,3,0,0,0-3.5,1.46l-3.61,6.58L54.39,84.26a1.48,1.48,0,1,0-2.74,1.14l5.61,13.41A1.92,1.92,0,0,0,59,100h.1a1.92,1.92,0,0,0,1.7-1l4.64-8.43a.1.1,0,0,1,.1,0l9.25,2.62a1.95,1.95,0,0,0,2.33-2.62L66.4,65l4.49-.43a8.06,8.06,0,0,0,7.22-7.23L78.82,50A5,5,0,0,1,80,47.28l4.7-5.7A8,8,0,0,0,84.65,31.37ZM40.82,95.71l-3.61-6.58a3,3,0,0,0-3.5-1.46l-7.22,2,10.2-24.38a5,5,0,0,1,2.51,1.1l5.69,4.69A8,8,0,0,0,50,73h.35Zm41.54-56-4.7,5.69a8,8,0,0,0-1.79,4.34l-.71,7.35a5.06,5.06,0,0,1-4.56,4.55l-6.45.63h-.08l-.81.08a8.07,8.07,0,0,0-4.34,1.8l-5.7,4.69a5.07,5.07,0,0,1-6.44,0l-5.7-4.69a8.07,8.07,0,0,0-4.34-1.8l-.82-.08h-.06l-6.46-.63a5.06,5.06,0,0,1-4.56-4.55l-.71-7.35a8,8,0,0,0-1.79-4.34l-4.7-5.69a5.08,5.08,0,0,1,0-6.45l4.7-5.69a8,8,0,0,0,1.79-4.34l.71-7.35a5.06,5.06,0,0,1,4.56-4.55l7.34-.71a8,8,0,0,0,4.34-1.8l5.7-4.69a5,5,0,0,1,6.44,0l5.7,4.69a8,8,0,0,0,4.34,1.8l7.34.71a5.06,5.06,0,0,1,4.56,4.55l.71,7.35a8,8,0,0,0,1.79,4.34l4.7,5.69A5.08,5.08,0,0,1,82.36,39.7Z"/><path d="M50,13.31a22.41,22.41,0,0,0-3,.19,1.48,1.48,0,1,0,.37,2.94A20.18,20.18,0,1,1,41.73,18a1.48,1.48,0,1,0-1.21-2.71,23.18,23.18,0,1,0,9.48-2Z"/><path d="M35.27,34.76a4.55,4.55,0,0,0,0,6.41l6.48,6.48a4.53,4.53,0,0,0,6.41,0L62.3,33.51a4.53,4.53,0,0,0-6.41-6.41L45,38l-3.27-3.27A4.54,4.54,0,0,0,35.27,34.76ZM45,41.61a1.45,1.45,0,0,0,1-.44l12-12a1.58,1.58,0,0,1,2.22,0,1.56,1.56,0,0,1,0,2.22L46.07,45.55A1.55,1.55,0,0,1,45,46a1.53,1.53,0,0,1-1.11-.46l-6.48-6.48a1.57,1.57,0,0,1,1.11-2.67,1.59,1.59,0,0,1,1.11.45l4.32,4.32A1.48,1.48,0,0,0,45,41.61Z"/></svg>