<?xml version="1.0" encoding="utf-8"?><svg id="Layer_1" data-name="Layer 1" xmlns="http://www.w3.org/2000/svg" viewBox="0 0 100 100"><title>8</title><path d="M50,89.45a38.82,38.82,0,0,1-3.89-.19,39.44,39.44,0,1,1,37-17.76,2,2,0,0,1-3.28-2.13A35.55,35.55,0,1,0,69.33,79.84a2,2,0,0,1,2.13,3.28A39.57,39.57,0,0,1,50,89.45Z"/><path d="M76.46,78.53a2,2,0,0,1-1.38-3.34l.06-.06a2,2,0,1,1,2.75,2.77l0,.06A2,2,0,0,1,76.46,78.53Z"/><path d="M41,44.75a2,2,0,0,1-1.95-2,1.23,1.23,0,0,0-2.45,0,2,2,0,1,1-3.9,0,5.13,5.13,0,1,1,10.26,0A2,2,0,0,1,41,44.75Z"/><path d="M66.44,44.75a2,2,0,0,1-2-2,1.23,1.23,0,0,0-2.45,0,2,2,0,1,1-3.91,0,5.13,5.13,0,0,1,10.26,0A2,2,0,0,1,66.44,44.75Z"/><path d="M50.53,69.8A11.16,11.16,0,0,1,39.38,58.65a2,2,0,1,1,3.91,0,7.24,7.24,0,0,0,14.48,0,2,2,0,1,1,3.91,0A11.16,11.16,0,0,1,50.53,69.8Z"/><path d="M90.23,6.6a2,2,0,0,1-2-1.95V2a2,2,0,0,1,3.91,0v2.7A2,2,0,0,1,90.23,6.6Z"/><path d="M90.23,19.53a2,2,0,0,1-2-2v-2.7a2,2,0,0,1,3.91,0v2.7A2,2,0,0,1,90.23,19.53Z"/><path d="M98.05,11.72h-2.7a2,2,0,0,1,0-3.91h2.7a2,2,0,0,1,0,3.91Z"/><path d="M85.12,11.72h-2.7a2,2,0,0,1,0-3.91h2.7a2,2,0,0,1,0,3.91Z"/><path d="M9.77,87.07a2,2,0,0,1-2-1.95v-2.7a2,2,0,0,1,3.91,0v2.7A2,2,0,0,1,9.77,87.07Z"/><path d="M9.77,100a2,2,0,0,1-2-2v-2.7a2,2,0,0,1,3.91,0v2.7A2,2,0,0,1,9.77,100Z"/><path d="M17.58,92.19h-2.7a2,2,0,0,1,0-3.91h2.7a2,2,0,0,1,0,3.91Z"/><path d="M4.65,92.19H2a2,2,0,0,1,0-3.91h2.7a2,2,0,0,1,0,3.91Z"/></svg>