<?xml version="1.0" encoding="utf-8"?><svg id="Layer_1" data-name="Layer 1" xmlns="http://www.w3.org/2000/svg" xmlns:xlink="http://www.w3.org/1999/xlink" viewBox="0 0 100 100"><defs><style>.cls-1{clip-path:url(#clip-path);}.cls-2{clip-path:url(#clip-path-2);}.cls-3{clip-path:url(#clip-path-3);}.cls-4{clip-path:url(#clip-path-4);}</style><clipPath id="clip-path"><path d="M48.06,48.06a2,2,0,1,0,1.95-2,1.95,1.95,0,0,0-1.95,2"/></clipPath><clipPath id="clip-path-2"><path d="M3.91,42.2a3.91,3.91,0,0,1,3.9-3.91H92.2a3.91,3.91,0,1,1,0,7.81H57.82a2,2,0,0,0-2,2,1.93,1.93,0,0,0,2,1.93H88a6.61,6.61,0,0,0-.24.9L81.1,87.48a2,2,0,0,1-1.92,1.6H20.84a2,2,0,0,1-1.92-1.6L12.27,50.91A4.59,4.59,0,0,0,12,50H42.19a2,2,0,1,0,0-3.91H7.81a3.9,3.9,0,0,1-3.9-3.9M40.36,12.14a1.37,1.37,0,0,0,.13-.2A2,2,0,0,1,44,13.74L28.33,34.38H24.2Zm15.7,1.6a2,2,0,0,1,3.47-1.8,1.37,1.37,0,0,0,.13.2L75.82,34.38H71.69ZM57.72,7A5.79,5.79,0,0,0,55,7.77a5.85,5.85,0,0,0-2.28,8,1.14,1.14,0,0,0,.15.23L66.79,34.38H33.23L47.17,16l.15-.23a5.86,5.86,0,0,0-2.28-8A5.73,5.73,0,0,0,42.25,7h-.09a5.84,5.84,0,0,0-5,2.89L19.37,34.38H7.81A7.82,7.82,0,0,0,5.31,49.6a1.93,1.93,0,0,0,1.2.41l.26,0a1.94,1.94,0,0,1,1.66,1.58l6.64,36.56a5.86,5.86,0,0,0,4.66,4.71H80.29a5.85,5.85,0,0,0,4.65-4.71l6.65-36.56A1.94,1.94,0,0,1,93.25,50l.26,0a1.94,1.94,0,0,0,1.2-.42,7.83,7.83,0,0,0,5.16-5.87v-3a7.84,7.84,0,0,0-7.67-6.29H80.65L62.88,9.93a5.85,5.85,0,0,0-5-2.89Z"/></clipPath><clipPath id="clip-path-3"><path d="M67.94,64.78c-.54.38-.45.9.15.83,2-.23,6.4-.76,7.18.24s-.87,5.17-1.62,7c-.23.56.26.79.77.37,3.31-2.76,4.16-8.55,3.48-9.39-.32-.4-1.84-.77-3.72-.77a11.09,11.09,0,0,0-6.24,1.7"/></clipPath><clipPath id="clip-path-4"><path d="M22.15,65.12A41.17,41.17,0,0,0,50,75.74c7.69,0,16.61-2.42,22.77-7,1-.75.15-1.88-.89-1.44A55.3,55.3,0,0,1,50.6,71.68,55.92,55.92,0,0,1,22.78,64.3a.83.83,0,0,0-.4-.12c-.46,0-.69.53-.23.94"/></clipPath></defs><title>Amazon Fulfilment</title><path d="M48.06,48.06a2,2,0,1,0,1.95-2,1.95,1.95,0,0,0-1.95,2"/><path d="M48.06,48.06a2,2,0,1,0,1.95-2,1.95,1.95,0,0,0-1.95,2"/><g class="cls-1"><polygon points="48.06 49.63 48.43 50.01 48.06 50.01 48.06 49.63"/><polygon points="48.06 49 49.07 50.01 48.43 50.01 48.06 49.63 48.06 49"/><polygon points="48.06 48.36 49.7 50.01 49.07 50.01 48.06 49 48.06 48.36"/><polygon points="48.06 47.73 50.34 50.01 49.7 50.01 48.06 48.36 48.06 47.73"/><polygon points="48.06 47.09 50.97 50.01 50.34 50.01 48.06 47.73 48.06 47.09"/><polygon points="48.06 46.46 51.61 50.01 50.97 50.01 48.06 47.09 48.06 46.46"/><polygon points="48.06 46.28 48.24 46.1 48.34 46.1 51.96 49.73 51.96 49.83 51.78 50.01 51.61 50.01 48.06 46.46 48.06 46.28"/><polygon points="48.97 46.1 51.96 49.09 51.96 49.73 48.34 46.1 48.97 46.1"/><polygon points="49.61 46.1 51.96 48.46 51.96 49.09 48.97 46.1 49.61 46.1"/><polygon points="50.24 46.1 51.96 47.82 51.96 48.46 49.61 46.1 50.24 46.1"/><polygon points="50.88 46.1 51.96 47.19 51.96 47.82 50.24 46.1 50.88 46.1"/><polygon points="51.51 46.1 51.96 46.55 51.96 47.19 50.88 46.1 51.51 46.1"/><polygon points="51.96 46.55 51.51 46.1 51.96 46.1 51.96 46.55"/></g><path d="M57.72,7A5.79,5.79,0,0,0,55,7.77a5.85,5.85,0,0,0-2.28,8,1.14,1.14,0,0,0,.15.23L66.79,34.38H33.23L47.17,16l.15-.23a5.86,5.86,0,0,0-2.28-8A5.73,5.73,0,0,0,42.25,7h-.09a5.84,5.84,0,0,0-5,2.89L19.37,34.38H7.81A7.82,7.82,0,0,0,5.31,49.6a1.93,1.93,0,0,0,1.2.41l.26,0a1.94,1.94,0,0,1,1.66,1.58l6.64,36.56A5.86,5.86,0,0,0,20.33,93H79.69a5.84,5.84,0,0,0,5.25-4.79l6.65-36.56A1.94,1.94,0,0,1,93.25,50l.26,0a2,2,0,0,0,1.2-.41A7.84,7.84,0,0,0,100,42.72v-1a7.83,7.83,0,0,0-7.8-7.29H80.65L62.88,9.93a5.85,5.85,0,0,0-5-2.89Zm-1.66,6.7a2,2,0,0,1,3.47-1.8,1.37,1.37,0,0,0,.13.2L75.82,34.38H71.69Zm-15.7-1.6a1.37,1.37,0,0,0,.13-.2A2,2,0,0,1,44,13.74L28.33,34.38H24.2ZM3.91,42.2a3.91,3.91,0,0,1,3.9-3.91H92.2a3.91,3.91,0,1,1,0,7.81H57.82a2,2,0,0,0-2,2,1.93,1.93,0,0,0,2,1.93H88a6.61,6.61,0,0,0-.24.9L81.1,87.48a2,2,0,0,1-1.92,1.6H20.84a2,2,0,0,1-1.92-1.6L12.27,50.91A4.59,4.59,0,0,0,12,50H42.19a2,2,0,1,0,0-3.91H7.81a3.9,3.9,0,0,1-3.9-3.9"/><path d="M3.91,42.2a3.91,3.91,0,0,1,3.9-3.91H92.2a3.91,3.91,0,1,1,0,7.81H57.82a2,2,0,0,0-2,2,1.93,1.93,0,0,0,2,1.93H88a6.61,6.61,0,0,0-.24.9L81.1,87.48a2,2,0,0,1-1.92,1.6H20.84a2,2,0,0,1-1.92-1.6L12.27,50.91A4.59,4.59,0,0,0,12,50H42.19a2,2,0,1,0,0-3.91H7.81a3.9,3.9,0,0,1-3.9-3.9M40.36,12.14a1.37,1.37,0,0,0,.13-.2A2,2,0,0,1,44,13.74L28.33,34.38H24.2Zm15.7,1.6a2,2,0,0,1,3.47-1.8,1.37,1.37,0,0,0,.13.2L75.82,34.38H71.69ZM57.72,7A5.79,5.79,0,0,0,55,7.77a5.85,5.85,0,0,0-2.28,8,1.14,1.14,0,0,0,.15.23L66.79,34.38H33.23L47.17,16l.15-.23a5.86,5.86,0,0,0-2.28-8A5.73,5.73,0,0,0,42.25,7h-.09a5.84,5.84,0,0,0-5,2.89L19.37,34.38H7.81A7.82,7.82,0,0,0,5.31,49.6a1.93,1.93,0,0,0,1.2.41l.26,0a1.94,1.94,0,0,1,1.66,1.58l6.64,36.56a5.86,5.86,0,0,0,4.66,4.71H80.29a5.85,5.85,0,0,0,4.65-4.71l6.65-36.56A1.94,1.94,0,0,1,93.25,50l.26,0a1.94,1.94,0,0,0,1.2-.42,7.83,7.83,0,0,0,5.16-5.87v-3a7.84,7.84,0,0,0-7.67-6.29H80.65L62.88,9.93a5.85,5.85,0,0,0-5-2.89Z"/><g class="cls-2"><polygon points="3.91 88.98 4.01 89.08 3.91 89.08 3.91 88.98"/><polygon points="3.91 88.35 4.64 89.08 4.01 89.08 3.91 88.98 3.91 88.35"/><polygon points="3.91 87.72 5.27 89.08 4.64 89.08 3.91 88.35 3.91 87.72"/><polygon points="3.91 87.08 5.9 89.08 5.27 89.08 3.91 87.72 3.91 87.08"/><polygon points="3.91 86.45 6.53 89.08 5.9 89.08 3.91 87.08 3.91 86.45"/><polygon points="3.91 85.82 7.17 89.08 6.53 89.08 3.91 86.45 3.91 85.82"/><polygon points="3.91 85.19 7.8 89.08 7.17 89.08 3.91 85.82 3.91 85.19"/><polygon points="3.91 84.56 8.43 89.08 7.8 89.08 3.91 85.19 3.91 84.56"/><polygon points="3.91 83.93 9.06 89.08 8.43 89.08 3.91 84.56 3.91 83.93"/><polygon points="3.91 83.3 9.69 89.08 9.06 89.08 3.91 83.93 3.91 83.3"/><polygon points="3.91 82.66 10.32 89.08 9.69 89.08 3.91 83.3 3.91 82.66"/><polygon points="3.91 82.03 10.95 89.08 10.32 89.08 3.91 82.66 3.91 82.03"/><polygon points="3.91 81.4 11.59 89.08 10.95 89.08 3.91 82.03 3.91 81.4"/><polygon points="3.91 80.77 12.22 89.08 11.59 89.08 3.91 81.4 3.91 80.77"/><polygon points="3.91 80.14 12.85 89.08 12.22 89.08 3.91 80.77 3.91 80.14"/><polygon points="3.91 79.5 13.48 89.08 12.85 89.08 3.91 80.14 3.91 79.5"/><polygon points="3.91 78.87 14.11 89.08 13.48 89.08 3.91 79.51 3.91 78.87"/><polygon points="3.91 78.24 14.74 89.08 14.11 89.08 3.91 78.87 3.91 78.24"/><polygon points="3.91 77.61 15.38 89.08 14.74 89.08 3.91 78.24 3.91 77.61"/><polygon points="3.91 76.98 16.01 89.08 15.38 89.08 3.91 77.61 3.91 76.98"/><polygon points="3.91 76.35 16.64 89.08 16.01 89.08 3.91 76.98 3.91 76.35"/><polygon points="3.91 75.72 17.27 89.08 16.64 89.08 3.91 76.35 3.91 75.72"/><polygon points="3.91 75.08 17.9 89.08 17.27 89.08 3.91 75.72 3.91 75.08"/><polygon points="3.91 74.45 18.53 89.08 17.9 89.08 3.91 75.08 3.91 74.45"/><polygon points="3.91 73.82 19.16 89.08 18.53 89.08 3.91 74.45 3.91 73.82"/><polygon points="3.91 73.19 19.8 89.08 19.16 89.08 3.91 73.82 3.91 73.19"/><polygon points="3.91 72.56 20.43 89.08 19.8 89.08 3.91 73.19 3.91 72.56"/><polygon points="3.91 71.93 21.06 89.08 20.43 89.08 3.91 72.56 3.91 71.93"/><polygon points="3.91 71.3 21.69 89.08 21.06 89.08 3.91 71.93 3.91 71.3"/><polygon points="3.91 70.66 22.32 89.08 21.69 89.08 3.91 71.3 3.91 70.66"/><polygon points="3.91 70.03 22.95 89.08 22.32 89.08 3.91 70.67 3.91 70.03"/><polygon points="3.91 69.4 23.59 89.08 22.95 89.08 3.91 70.03 3.91 69.4"/><polygon points="3.91 68.77 24.22 89.08 23.59 89.08 3.91 69.4 3.91 68.77"/><polygon points="3.91 68.14 24.85 89.08 24.22 89.08 3.91 68.77 3.91 68.14"/><polygon points="3.91 67.51 25.48 89.08 24.85 89.08 3.91 68.14 3.91 67.51"/><polygon points="3.91 66.88 26.11 89.08 25.48 89.08 3.91 67.51 3.91 66.88"/><polygon points="3.91 66.24 26.74 89.08 26.11 89.08 3.91 66.88 3.91 66.24"/><polygon points="3.91 65.61 27.37 89.08 26.74 89.08 3.91 66.24 3.91 65.61"/><polygon points="3.91 64.98 28 89.08 27.37 89.08 3.91 65.61 3.91 64.98"/><polygon points="3.91 64.35 28.64 89.08 28 89.08 3.91 64.98 3.91 64.35"/><polygon points="3.91 63.72 29.27 89.08 28.64 89.08 3.91 64.35 3.91 63.72"/><polygon points="3.91 63.09 29.9 89.08 29.27 89.08 3.91 63.72 3.91 63.09"/><polygon points="3.91 62.45 30.53 89.08 29.9 89.08 3.91 63.09 3.91 62.45"/><polygon points="3.91 61.82 31.16 89.08 30.53 89.08 3.91 62.45 3.91 61.82"/><polygon points="3.91 61.19 31.79 89.08 31.16 89.08 3.91 61.82 3.91 61.19"/><polygon points="3.91 60.56 32.43 89.08 31.79 89.08 3.91 61.19 3.91 60.56"/><polygon points="3.91 59.93 33.06 89.08 32.43 89.08 3.91 60.56 3.91 59.93"/><polygon points="3.91 59.3 33.69 89.08 33.06 89.08 3.91 59.93 3.91 59.3"/><polygon points="3.91 58.67 34.32 89.08 33.69 89.08 3.91 59.3 3.91 58.67"/><polygon points="3.91 58.03 34.95 89.08 34.32 89.08 3.91 58.67 3.91 58.03"/><polygon points="3.91 57.4 35.58 89.08 34.95 89.08 3.91 58.03 3.91 57.4"/><polygon points="3.91 56.77 36.22 89.08 35.58 89.08 3.91 57.4 3.91 56.77"/><polygon points="3.91 56.14 36.85 89.08 36.22 89.08 3.91 56.77 3.91 56.14"/><polygon points="3.91 55.51 37.48 89.08 36.85 89.08 3.91 56.14 3.91 55.51"/><polygon points="3.91 54.88 38.11 89.08 37.48 89.08 3.91 55.51 3.91 54.88"/><polygon points="3.91 54.24 38.74 89.08 38.11 89.08 3.91 54.88 3.91 54.24"/><polygon points="3.91 53.61 39.37 89.08 38.74 89.08 3.91 54.24 3.91 53.61"/><polygon points="3.91 52.98 40 89.08 39.37 89.08 3.91 53.61 3.91 52.98"/><polygon points="3.91 52.35 40.64 89.08 40 89.08 3.91 52.98 3.91 52.35"/><polygon points="3.91 51.72 41.27 89.08 40.64 89.08 3.91 52.35 3.91 51.72"/><polygon points="3.91 51.09 41.9 89.08 41.27 89.08 3.91 51.72 3.91 51.09"/><polygon points="3.91 50.46 42.53 89.08 41.9 89.08 3.91 51.09 3.91 50.46"/><polygon points="3.91 49.82 43.16 89.08 42.53 89.08 3.91 50.46 3.91 49.82"/><polygon points="3.91 49.19 43.79 89.08 43.16 89.08 3.91 49.83 3.91 49.19"/><polygon points="3.91 48.56 44.42 89.08 43.79 89.08 3.91 49.19 3.91 48.56"/><polygon points="3.91 47.93 45.06 89.08 44.42 89.08 3.91 48.56 3.91 47.93"/><polygon points="3.91 47.3 45.69 89.08 45.06 89.08 3.91 47.93 3.91 47.3"/><polygon points="3.91 46.67 46.32 89.08 45.69 89.08 3.91 47.3 3.91 46.67"/><polygon points="3.91 46.03 46.95 89.08 46.32 89.08 3.91 46.67 3.91 46.03"/><polygon points="3.91 45.4 47.58 89.08 46.95 89.08 3.91 46.04 3.91 45.4"/><polygon points="3.91 44.77 48.22 89.08 47.58 89.08 3.91 45.4 3.91 44.77"/><polygon points="3.91 44.14 48.84 89.08 48.22 89.08 3.91 44.77 3.91 44.14"/><polygon points="3.91 43.51 49.48 89.08 48.84 89.08 3.91 44.14 3.91 43.51"/><polygon points="3.91 42.88 50.11 89.08 49.48 89.08 3.91 43.51 3.91 42.88"/><polygon points="3.91 42.25 50.74 89.08 50.11 89.08 3.91 42.88 3.91 42.25"/><polygon points="3.91 41.62 51.37 89.08 50.74 89.08 3.91 42.25 3.91 41.62"/><polygon points="3.91 40.98 52 89.08 51.37 89.08 3.91 41.62 3.91 40.98"/><polygon points="3.91 40.35 52.63 89.08 52 89.08 3.91 40.98 3.91 40.35"/><polygon points="3.91 39.72 53.27 89.08 52.63 89.08 3.91 40.35 3.91 39.72"/><polygon points="3.91 39.35 4.04 39.22 53.9 89.08 53.27 89.08 3.91 39.72 3.91 39.35"/><polygon points="4.04 39.22 4.35 38.9 54.53 89.08 53.9 89.08 4.04 39.22"/><polygon points="4.35 38.9 4.67 38.59 55.16 89.08 54.53 89.08 4.35 38.9"/><polygon points="4.67 38.59 4.97 38.29 5 38.29 55.79 89.08 55.16 89.08 4.67 38.59"/><polygon points="5.63 38.29 56.42 89.08 55.79 89.08 5 38.29 5.63 38.29"/><polygon points="6.26 38.29 57.06 89.08 56.42 89.08 5.63 38.29 6.26 38.29"/><polygon points="6.9 38.29 57.69 89.08 57.05 89.08 6.26 38.29 6.9 38.29"/><polygon points="7.53 38.29 58.32 89.08 57.69 89.08 6.9 38.29 7.53 38.29"/><polygon points="8.16 38.29 58.95 89.08 58.32 89.08 7.53 38.29 8.16 38.29"/><polygon points="8.79 38.29 59.58 89.08 58.95 89.08 8.16 38.29 8.79 38.29"/><polygon points="9.42 38.29 60.21 89.08 59.58 89.08 8.79 38.29 9.42 38.29"/><polygon points="10.05 38.29 60.84 89.08 60.21 89.08 9.42 38.29 10.05 38.29"/><polygon points="10.69 38.29 61.48 89.08 60.84 89.08 10.05 38.29 10.69 38.29"/><polygon points="11.32 38.29 62.11 89.08 61.48 89.08 10.69 38.29 11.32 38.29"/><polygon points="11.95 38.29 62.74 89.08 62.11 89.08 11.32 38.29 11.95 38.29"/><polygon points="12.58 38.29 63.37 89.08 62.74 89.08 11.95 38.29 12.58 38.29"/><polygon points="13.21 38.29 64 89.08 63.37 89.08 12.58 38.29 13.21 38.29"/><polygon points="13.84 38.29 64.63 89.08 64 89.08 13.21 38.29 13.84 38.29"/><polygon points="14.47 38.29 65.27 89.08 64.63 89.08 13.84 38.29 14.47 38.29"/><polygon points="15.11 38.29 65.9 89.08 65.27 89.08 14.47 38.29 15.11 38.29"/><polygon points="15.74 38.29 66.53 89.08 65.9 89.08 15.11 38.29 15.74 38.29"/><polygon points="16.37 38.29 67.16 89.08 66.53 89.08 15.74 38.29 16.37 38.29"/><polygon points="17 38.29 67.79 89.08 67.16 89.08 16.37 38.29 17 38.29"/><polygon points="17.63 38.29 68.42 89.08 67.79 89.08 17 38.29 17.63 38.29"/><polygon points="18.26 38.29 69.05 89.08 68.42 89.08 17.63 38.29 18.26 38.29"/><polygon points="18.89 38.29 69.69 89.08 69.05 89.08 18.26 38.29 18.89 38.29"/><polygon points="19.53 38.29 70.32 89.08 69.69 89.08 18.89 38.29 19.53 38.29"/><polygon points="20.16 38.29 70.95 89.08 70.32 89.08 19.53 38.29 20.16 38.29"/><polygon points="20.79 38.29 71.58 89.08 70.95 89.08 20.16 38.29 20.79 38.29"/><polygon points="21.42 38.29 72.21 89.08 71.58 89.08 20.79 38.29 21.42 38.29"/><polygon points="22.05 38.29 72.84 89.08 72.21 89.08 21.42 38.29 22.05 38.29"/><polygon points="22.68 38.29 73.47 89.08 72.84 89.08 22.05 38.29 22.68 38.29"/><polygon points="23.32 38.29 74.11 89.08 73.47 89.08 22.68 38.29 23.32 38.29"/><polygon points="23.95 38.29 74.74 89.08 74.11 89.08 23.32 38.29 23.95 38.29"/><polygon points="24.58 38.29 75.37 89.08 74.74 89.08 23.95 38.29 24.58 38.29"/><polygon points="25.21 38.29 76 89.08 75.37 89.08 24.58 38.29 25.21 38.29"/><polygon points="25.84 38.29 76.63 89.08 76 89.08 25.21 38.29 25.84 38.29"/><polygon points="26.47 38.29 77.26 89.08 76.63 89.08 25.84 38.29 26.47 38.29"/><polygon points="27.11 38.29 77.89 89.08 77.26 89.08 26.47 38.29 27.11 38.29"/><polygon points="27.74 38.29 78.53 89.08 77.89 89.08 27.1 38.29 27.74 38.29"/><polygon points="28.37 38.29 79.16 89.08 78.53 89.08 27.74 38.29 28.37 38.29"/><polygon points="29 38.29 79.79 89.08 79.16 89.08 28.37 38.29 29 38.29"/><polygon points="29.63 38.29 80.42 89.08 79.79 89.08 29 38.29 29.63 38.29"/><polygon points="30.26 38.29 81 89.03 80.95 89.08 80.42 89.08 29.63 38.29 30.26 38.29"/><polygon points="30.89 38.29 81.32 88.71 81 89.03 30.26 38.29 30.89 38.29"/><polygon points="31.52 38.29 81.63 88.4 81.32 88.71 30.89 38.29 31.52 38.29"/><polygon points="32.16 38.29 81.95 88.08 81.63 88.4 31.52 38.29 32.16 38.29"/><polygon points="32.79 38.29 82.26 87.77 81.95 88.08 32.16 38.29 32.79 38.29"/><polygon points="33.42 38.29 82.58 87.45 82.26 87.77 32.79 38.29 33.42 38.29"/><polygon points="34.05 38.29 82.89 87.13 82.58 87.45 33.42 38.29 34.05 38.29"/><polygon points="34.68 38.29 83.21 86.82 82.9 87.13 34.05 38.29 34.68 38.29"/><polygon points="35.31 38.29 83.53 86.5 83.21 86.82 34.68 38.29 35.31 38.29"/><polygon points="35.95 38.29 83.84 86.19 83.53 86.5 35.31 38.29 35.95 38.29"/><polygon points="36.58 38.29 84.16 85.87 83.84 86.19 35.95 38.29 36.58 38.29"/><polygon points="37.21 38.29 84.47 85.55 84.16 85.87 36.58 38.29 37.21 38.29"/><polygon points="37.84 38.29 84.79 85.24 84.47 85.55 37.21 38.29 37.84 38.29"/><polygon points="38.47 38.29 85.11 84.92 84.79 85.24 37.84 38.29 38.47 38.29"/><polygon points="39.1 38.29 85.42 84.61 85.11 84.92 38.47 38.29 39.1 38.29"/><polygon points="39.73 38.29 85.74 84.29 85.42 84.61 39.1 38.29 39.73 38.29"/><polygon points="40.37 38.29 86.05 83.97 85.74 84.29 39.73 38.29 40.37 38.29"/><polygon points="41 38.29 86.37 83.66 86.05 83.97 40.37 38.29 41 38.29"/><polygon points="41.63 38.29 86.69 83.34 86.37 83.66 41 38.29 41.63 38.29"/><polygon points="42.26 38.29 87 83.03 86.69 83.34 41.63 38.29 42.26 38.29"/><polygon points="42.89 38.29 87.32 82.71 87 83.03 42.26 38.29 42.89 38.29"/><polygon points="43.52 38.29 87.63 82.4 87.32 82.71 42.89 38.29 43.52 38.29"/><polygon points="44.16 38.29 87.95 82.08 87.63 82.4 43.52 38.29 44.16 38.29"/><polygon points="44.79 38.29 88.26 81.77 87.95 82.08 44.16 38.29 44.79 38.29"/><polygon points="45.42 38.29 88.58 81.45 88.26 81.77 44.79 38.29 45.42 38.29"/><polygon points="46.05 38.29 88.89 81.13 88.58 81.45 45.42 38.29 46.05 38.29"/><polygon points="46.68 38.29 89.21 80.82 88.89 81.13 46.05 38.29 46.68 38.29"/><polygon points="47.31 38.29 89.53 80.5 89.21 80.82 46.68 38.29 47.31 38.29"/><polygon points="47.95 38.29 89.84 80.19 89.53 80.5 47.31 38.29 47.95 38.29"/><polygon points="48.58 38.29 90.16 79.87 89.84 80.19 47.94 38.29 48.58 38.29"/><polygon points="49.21 38.29 90.47 79.56 90.16 79.87 48.58 38.29 49.21 38.29"/><polygon points="49.84 38.29 90.79 79.24 90.47 79.56 49.21 38.29 49.84 38.29"/><polygon points="50.47 38.29 91.11 78.92 90.79 79.24 49.84 38.29 50.47 38.29"/><polygon points="51.1 38.29 91.42 78.61 91.11 78.92 50.47 38.29 51.1 38.29"/><polygon points="51.73 38.29 91.74 78.29 91.42 78.61 51.1 38.29 51.73 38.29"/><polygon points="52.37 38.29 92.05 77.98 91.74 78.29 51.73 38.29 52.37 38.29"/><polygon points="53 38.29 92.37 77.66 92.05 77.98 52.37 38.29 53 38.29"/><polygon points="53.63 38.29 92.68 77.34 92.37 77.66 53 38.29 53.63 38.29"/><polygon points="54.26 38.29 93 77.03 92.69 77.34 53.63 38.29 54.26 38.29"/><polygon points="54.89 38.29 93.32 76.71 93 77.03 54.26 38.29 54.89 38.29"/><polygon points="55.52 38.29 93.63 76.4 93.32 76.71 54.89 38.29 55.52 38.29"/><polygon points="56.15 38.29 93.95 76.08 93.63 76.4 55.52 38.29 56.15 38.29"/><polygon points="56.79 38.29 94.26 75.77 93.95 76.08 56.15 38.29 56.79 38.29"/><polygon points="57.42 38.29 94.58 75.45 94.26 75.77 56.78 38.29 57.42 38.29"/><polygon points="58.05 38.29 94.89 75.13 94.58 75.45 57.42 38.29 58.05 38.29"/><polygon points="58.68 38.29 95.21 74.82 94.89 75.13 58.05 38.29 58.68 38.29"/><polygon points="59.31 38.29 95.53 74.5 95.21 74.82 58.68 38.29 59.31 38.29"/><polygon points="59.94 38.29 95.84 74.19 95.53 74.5 59.31 38.29 59.94 38.29"/><polygon points="60.58 38.29 96.11 73.83 96.11 73.92 95.84 74.19 59.94 38.29 60.58 38.29"/><polygon points="61.21 38.29 96.11 73.19 96.11 73.83 60.57 38.29 61.21 38.29"/><polygon points="61.84 38.29 96.11 72.56 96.11 73.19 61.21 38.29 61.84 38.29"/><polygon points="62.47 38.29 96.11 71.93 96.11 72.56 61.84 38.29 62.47 38.29"/><polygon points="63.1 38.29 96.11 71.3 96.11 71.93 62.47 38.29 63.1 38.29"/><polygon points="63.73 38.29 96.11 70.67 96.11 71.3 63.1 38.29 63.73 38.29"/><polygon points="64.36 38.29 96.11 70.04 96.11 70.67 63.73 38.29 64.36 38.29"/><polygon points="65 38.29 96.11 69.4 96.11 70.04 64.36 38.29 65 38.29"/><polygon points="65.63 38.29 96.11 68.77 96.11 69.4 65 38.29 65.63 38.29"/><polygon points="66.26 38.29 96.11 68.14 96.11 68.77 65.63 38.29 66.26 38.29"/><polygon points="66.89 38.29 96.11 67.51 96.11 68.14 66.26 38.29 66.89 38.29"/><polygon points="67.52 38.29 96.11 66.88 96.11 67.51 66.89 38.29 67.52 38.29"/><polygon points="68.15 38.29 96.11 66.25 96.11 66.88 67.52 38.29 68.15 38.29"/><polygon points="68.78 38.29 96.11 65.62 96.11 66.25 68.15 38.29 68.78 38.29"/><polygon points="69.42 38.29 96.11 64.98 96.11 65.62 68.78 38.29 69.42 38.29"/><polygon points="70.05 38.29 96.11 64.35 96.11 64.98 69.42 38.29 70.05 38.29"/><polygon points="70.68 38.29 96.11 63.72 96.11 64.35 70.05 38.29 70.68 38.29"/><polygon points="71.31 38.29 96.11 63.09 96.11 63.72 70.68 38.29 71.31 38.29"/><polygon points="71.94 38.29 96.11 62.46 96.11 63.09 71.31 38.29 71.94 38.29"/><polygon points="79.89 38.29 96.11 54.52 96.11 62.46 71.94 38.29 79.89 38.29"/><polygon points="87.83 38.29 96.11 46.57 96.11 54.52 79.89 38.29 87.83 38.29"/><polygon points="95.77 38.29 96.11 38.63 96.11 46.57 87.83 38.29 95.77 38.29"/><polygon points="96.11 38.63 95.77 38.29 96.11 38.29 96.11 38.63"/><polygon points="24.2 34.12 24.46 34.38 24.2 34.38 24.2 34.12"/><polygon points="24.2 33.49 25.09 34.38 24.46 34.38 24.2 34.12 24.2 33.49"/><polygon points="24.2 32.85 25.72 34.38 25.09 34.38 24.2 33.49 24.2 32.85"/><polygon points="24.2 32.22 26.36 34.38 25.72 34.38 24.2 32.85 24.2 32.22"/><polygon points="24.2 31.59 26.99 34.38 26.36 34.38 24.2 32.22 24.2 31.59"/><polygon points="24.2 30.96 27.62 34.38 26.99 34.38 24.2 31.59 24.2 30.96"/><polygon points="24.2 30.33 28.25 34.38 27.62 34.38 24.2 30.96 24.2 30.33"/><polygon points="24.2 29.7 28.88 34.38 28.25 34.38 24.2 30.33 24.2 29.7"/><polygon points="24.2 29.07 29.27 34.14 29.02 34.38 28.88 34.38 24.2 29.7 24.2 29.07"/><polygon points="24.2 28.43 29.58 33.82 29.27 34.14 24.2 29.07 24.2 28.43"/><polygon points="24.2 27.8 29.9 33.51 29.58 33.82 24.2 28.43 24.2 27.8"/><polygon points="24.2 27.17 30.22 33.19 29.9 33.51 24.2 27.8 24.2 27.17"/><polygon points="24.2 27.13 24.49 26.83 30.53 32.88 30.22 33.19 24.2 27.17 24.2 27.13"/><rect x="27.44" y="25.42" width="0.45" height="8.55" transform="translate(-12.89 28.26) rotate(-45)"/><rect x="27.76" y="25.11" width="0.45" height="8.54" transform="translate(-12.58 28.39) rotate(-45)"/><rect x="28.08" y="24.79" width="0.45" height="8.54" transform="translate(-12.26 28.52) rotate(-45)"/><rect x="28.39" y="24.48" width="0.45" height="8.54" transform="translate(-11.95 28.65) rotate(-45)"/><rect x="28.71" y="24.16" width="0.45" height="8.55" transform="translate(-11.63 28.78) rotate(-45)"/><rect x="29.02" y="23.84" width="0.45" height="8.54" transform="translate(-11.32 28.92) rotate(-45)"/><rect x="29.34" y="23.53" width="0.45" height="8.54" transform="translate(-11 29.05) rotate(-45)"/><rect x="29.66" y="23.21" width="0.45" height="8.54" transform="translate(-10.68 29.18) rotate(-45)"/><rect x="29.97" y="22.9" width="0.45" height="8.55" transform="translate(-10.37 29.31) rotate(-45)"/><rect x="30.29" y="22.58" width="0.45" height="8.54" transform="translate(-10.05 29.44) rotate(-45)"/><rect x="30.6" y="22.27" width="0.45" height="8.55" transform="translate(-9.74 29.57) rotate(-45)"/><rect x="30.92" y="21.95" width="0.45" height="8.54" transform="translate(-9.42 29.7) rotate(-45)"/><rect x="31.23" y="21.63" width="0.45" height="8.55" transform="translate(-9.11 29.83) rotate(-45)"/><rect x="31.55" y="21.32" width="0.45" height="8.54" transform="translate(-8.79 29.96) rotate(-45)"/><rect x="31.87" y="21" width="0.45" height="8.54" transform="translate(-8.47 30.09) rotate(-45)"/><rect x="32.18" y="20.69" width="0.45" height="8.54" transform="translate(-8.16 30.22) rotate(-45)"/><rect x="32.5" y="20.37" width="0.45" height="8.54" transform="translate(-7.84 30.35) rotate(-45)"/><rect x="32.81" y="20.05" width="0.45" height="8.55" transform="translate(-7.53 30.49) rotate(-45)"/><rect x="33.13" y="19.74" width="0.45" height="8.54" transform="translate(-7.21 30.62) rotate(-45)"/><rect x="33.44" y="19.42" width="0.45" height="8.55" transform="translate(-6.89 30.75) rotate(-45)"/><rect x="33.76" y="19.11" width="0.45" height="8.54" transform="translate(-6.58 30.88) rotate(-45)"/><rect x="34.08" y="18.79" width="0.45" height="8.55" transform="translate(-6.26 31.01) rotate(-45)"/><rect x="34.39" y="18.48" width="0.45" height="8.54" transform="translate(-5.95 31.14) rotate(-45)"/><rect x="34.71" y="18.16" width="0.45" height="8.55" transform="translate(-5.63 31.27) rotate(-45)"/><rect x="35.02" y="17.84" width="0.45" height="8.54" transform="translate(-5.32 31.4) rotate(-45)"/><rect x="35.34" y="17.53" width="0.45" height="8.55" transform="translate(-5 31.53) rotate(-45)"/><rect x="35.65" y="17.21" width="0.45" height="8.54" transform="translate(-4.68 31.66) rotate(-45)"/><rect x="35.97" y="16.9" width="0.45" height="8.55" transform="translate(-4.37 31.79) rotate(-45)"/><rect x="36.29" y="16.58" width="0.45" height="8.54" transform="translate(-4.05 31.92) rotate(-45)"/><rect x="36.6" y="16.27" width="0.45" height="8.54" transform="translate(-3.74 32.05) rotate(-45)"/><rect x="36.92" y="15.95" width="0.45" height="8.54" transform="translate(-3.42 32.19) rotate(-45)"/><rect x="37.23" y="15.63" width="0.45" height="8.54" transform="translate(-3.11 32.32) rotate(-45)"/><rect x="37.55" y="15.32" width="0.45" height="8.54" transform="translate(-2.79 32.45) rotate(-45)"/><rect x="37.86" y="15" width="0.45" height="8.55" transform="translate(-2.47 32.58) rotate(-45)"/><rect x="38.18" y="14.69" width="0.45" height="8.54" transform="translate(-2.16 32.71) rotate(-45)"/><rect x="38.5" y="14.37" width="0.45" height="8.54" transform="translate(-1.84 32.84) rotate(-45)"/><rect x="38.81" y="14.06" width="0.45" height="8.55" transform="translate(-1.53 32.97) rotate(-45)"/><rect x="39.13" y="13.74" width="0.45" height="8.54" transform="translate(-1.21 33.1) rotate(-45)"/><rect x="39.44" y="13.42" width="0.45" height="8.55" transform="translate(-0.9 33.23) rotate(-45)"/><rect x="39.76" y="13.11" width="0.45" height="8.54" transform="translate(-0.58 33.36) rotate(-45)"/><rect x="40.07" y="12.79" width="0.45" height="8.54" transform="translate(-0.26 33.49) rotate(-45)"/><rect x="40.39" y="12.48" width="0.45" height="8.54" transform="translate(0.05 33.62) rotate(-45)"/><rect x="40.71" y="12.16" width="0.45" height="8.55" transform="translate(0.37 33.75) rotate(-45)"/><polygon points="38.07 13.26 38.38 12.94 44.4 18.96 44.4 19 44.11 19.3 38.07 13.26"/><polygon points="38.38 12.94 38.7 12.62 44.4 18.33 44.4 18.96 38.38 12.94"/><polygon points="38.7 12.62 39.01 12.31 44.4 17.7 44.4 18.33 38.7 12.62"/><polygon points="39.01 12.31 39.33 11.99 44.4 17.07 44.4 17.7 39.01 12.31"/><polygon points="39.33 11.99 39.65 11.68 44.4 16.43 44.4 17.06 39.33 11.99"/><polygon points="39.65 11.68 39.96 11.36 44.4 15.8 44.4 16.43 39.65 11.68"/><polygon points="39.96 11.36 40.28 11.04 44.4 15.17 44.4 15.8 39.96 11.36"/><polygon points="40.28 11.04 40.59 10.73 44.4 14.54 44.4 15.17 40.28 11.04"/><polygon points="40.59 10.73 40.66 10.66 41.16 10.66 44.4 13.91 44.4 14.54 40.59 10.73"/><polygon points="41.79 10.67 44.4 13.28 44.4 13.91 41.16 10.67 41.79 10.67"/><polygon points="42.42 10.67 44.4 12.64 44.4 13.28 41.79 10.67 42.42 10.67"/><polygon points="43.06 10.67 44.4 12.01 44.4 12.64 42.42 10.67 43.06 10.67"/><polygon points="43.69 10.67 44.4 11.38 44.4 12.01 43.05 10.67 43.69 10.67"/><polygon points="44.32 10.67 44.4 10.75 44.4 11.38 43.69 10.67 44.32 10.67"/><polygon points="44.4 10.75 44.32 10.67 44.4 10.67 44.4 10.75"/><polygon points="55.62 33.96 56.04 34.38 55.62 34.38 55.62 33.96"/><polygon points="55.62 33.33 56.67 34.38 56.04 34.38 55.62 33.96 55.62 33.33"/><polygon points="55.62 32.7 57.3 34.38 56.67 34.38 55.62 33.33 55.62 32.7"/><polygon points="55.62 32.07 57.93 34.38 57.3 34.38 55.62 32.7 55.62 32.07"/><polygon points="55.62 31.44 58.56 34.38 57.93 34.38 55.62 32.07 55.62 31.44"/><polygon points="55.62 30.8 59.19 34.38 58.56 34.38 55.62 31.44 55.62 30.8"/><polygon points="55.62 30.17 59.83 34.38 59.19 34.38 55.62 30.8 55.62 30.17"/><polygon points="55.62 29.54 60.46 34.38 59.83 34.38 55.62 30.17 55.62 29.54"/><polygon points="55.62 28.91 61.09 34.38 60.46 34.38 55.62 29.54 55.62 28.91"/><polygon points="55.62 28.28 61.72 34.38 61.09 34.38 55.62 28.91 55.62 28.28"/><polygon points="55.62 27.65 62.35 34.38 61.72 34.38 55.62 28.28 55.62 27.65"/><polygon points="55.62 27.02 62.98 34.38 62.35 34.38 55.62 27.65 55.62 27.02"/><polygon points="55.62 26.38 63.61 34.38 62.98 34.38 55.62 27.02 55.62 26.38"/><polygon points="55.62 25.75 64.25 34.38 63.61 34.38 55.62 26.38 55.62 25.75"/><polygon points="55.62 25.12 64.88 34.38 64.25 34.38 55.62 25.75 55.62 25.12"/><polygon points="55.62 24.49 65.51 34.38 64.88 34.38 55.62 25.12 55.62 24.49"/><polygon points="55.62 23.86 66.14 34.38 65.51 34.38 55.62 24.49 55.62 23.86"/><polygon points="55.62 23.23 66.77 34.38 66.14 34.38 55.62 23.86 55.62 23.23"/><polygon points="55.62 22.59 67.4 34.38 66.77 34.38 55.62 23.23 55.62 22.59"/><polygon points="55.62 21.96 68.03 34.38 67.4 34.38 55.62 22.59 55.62 21.96"/><polygon points="55.62 14.02 75.82 34.23 75.82 34.38 68.03 34.38 55.62 21.96 55.62 14.02"/><polygon points="55.62 11.34 56.3 10.66 60.2 10.66 75.82 26.28 75.82 34.23 55.62 14.02 55.62 11.34"/><polygon points="68.15 10.66 75.82 18.34 75.82 26.28 60.2 10.66 68.15 10.66"/><polygon points="75.82 18.34 68.14 10.66 75.82 10.66 75.82 18.34"/><polygon points="0 92.65 0.34 92.99 0 92.99 0 92.65"/><polygon points="0 92.02 0.97 92.99 0.34 92.99 0 92.65 0 92.02"/><polygon points="0 91.39 1.6 92.99 0.97 92.99 0 92.02 0 91.39"/><polygon points="0 90.75 2.23 92.99 1.6 92.99 0 91.39 0 90.75"/><polygon points="0 90.12 2.86 92.99 2.23 92.99 0 90.75 0 90.12"/><polygon points="0 89.49 3.5 92.99 2.86 92.99 0 90.12 0 89.49"/><polygon points="0 88.86 4.13 92.99 3.5 92.99 0 89.49 0 88.86"/><polygon points="0 88.23 4.76 92.99 4.13 92.99 0 88.86 0 88.23"/><polygon points="0 87.6 5.39 92.99 4.76 92.99 0 88.23 0 87.6"/><polygon points="0 86.97 6.02 92.99 5.39 92.99 0 87.6 0 86.97"/><polygon points="0 86.33 6.65 92.99 6.02 92.99 0 86.97 0 86.33"/><polygon points="0 85.7 7.28 92.99 6.65 92.99 0 86.33 0 85.7"/><polygon points="0 85.07 7.92 92.99 7.28 92.99 0 85.7 0 85.07"/><polygon points="0 84.44 8.55 92.99 7.92 92.99 0 85.07 0 84.44"/><polygon points="0 83.81 9.18 92.99 8.55 92.99 0 84.44 0 83.81"/><polygon points="0 83.18 9.81 92.99 9.18 92.99 0 83.81 0 83.18"/><polygon points="0 82.55 10.44 92.99 9.81 92.99 0 83.18 0 82.55"/><polygon points="0 81.91 11.07 92.99 10.44 92.99 0 82.55 0 81.91"/><polygon points="0 81.28 11.71 92.99 11.07 92.99 0 81.91 0 81.28"/><polygon points="0 80.65 12.34 92.99 11.71 92.99 0 81.28 0 80.65"/><polygon points="0 80.02 12.97 92.99 12.34 92.99 0 80.65 0 80.02"/><polygon points="0 79.39 13.6 92.99 12.97 92.99 0 80.02 0 79.39"/><polygon points="0 78.76 14.23 92.99 13.6 92.99 0 79.39 0 78.76"/><polygon points="0 78.12 14.86 92.99 14.23 92.99 0 78.76 0 78.12"/><polygon points="0 77.49 15.49 92.99 14.86 92.99 0 78.13 0 77.49"/><polygon points="0 76.86 16.13 92.99 15.49 92.99 0 77.49 0 76.86"/><polygon points="0 76.23 16.76 92.99 16.13 92.99 0 76.86 0 76.23"/><polygon points="0 75.6 17.39 92.99 16.76 92.99 0 76.23 0 75.6"/><polygon points="0 74.97 18.02 92.99 17.39 92.99 0 75.6 0 74.97"/><polygon points="0 74.33 18.65 92.99 18.02 92.99 0 74.97 0 74.33"/><polygon points="0 73.7 19.28 92.99 18.65 92.99 0 74.34 0 73.7"/><polygon points="0 73.07 19.91 92.99 19.28 92.99 0 73.7 0 73.07"/><polygon points="0 72.44 20.55 92.99 19.91 92.99 0 73.07 0 72.44"/><polygon points="0 71.81 21.18 92.99 20.55 92.99 0 72.44 0 71.81"/><polygon points="0 71.18 21.81 92.99 21.18 92.99 0 71.81 0 71.18"/><polygon points="0 70.55 22.44 92.99 21.81 92.99 0 71.18 0 70.55"/><polygon points="0 69.92 23.07 92.99 22.44 92.99 0 70.55 0 69.92"/><polygon points="0 69.28 23.7 92.99 23.07 92.99 0 69.91 0 69.28"/><polygon points="0 68.65 24.33 92.99 23.7 92.99 0 69.28 0 68.65"/><polygon points="0 68.02 24.97 92.99 24.33 92.99 0 68.65 0 68.02"/><polygon points="0 67.39 25.6 92.99 24.97 92.99 0 68.02 0 67.39"/><polygon points="0 66.76 26.23 92.99 25.6 92.99 0 67.39 0 66.76"/><polygon points="0 66.13 26.86 92.99 26.23 92.99 0 66.76 0 66.13"/><polygon points="0 65.49 27.49 92.99 26.86 92.99 0 66.13 0 65.49"/><polygon points="0 64.86 28.12 92.99 27.49 92.99 0 65.5 0 64.86"/><polygon points="0 64.23 28.76 92.99 28.12 92.99 0 64.86 0 64.23"/><polygon points="0 63.6 29.39 92.99 28.76 92.99 0 64.23 0 63.6"/><polygon points="0 62.97 30.02 92.99 29.39 92.99 0 63.6 0 62.97"/><polygon points="0 62.34 30.65 92.99 30.02 92.99 0 62.97 0 62.34"/><polygon points="0 61.7 31.28 92.99 30.65 92.99 0 62.34 0 61.7"/><polygon points="0 61.07 31.91 92.99 31.28 92.99 0 61.71 0 61.07"/><polygon points="0 60.44 32.55 92.99 31.91 92.99 0 61.07 0 60.44"/><polygon points="0 59.81 33.18 92.99 32.55 92.99 0 60.44 0 59.81"/><polygon points="0 59.18 33.81 92.99 33.18 92.99 0 59.81 0 59.18"/><polygon points="0 58.55 34.44 92.99 33.81 92.99 0 59.18 0 58.55"/><polygon points="0 57.92 35.07 92.99 34.44 92.99 0 58.55 0 57.92"/><polygon points="0 57.28 35.7 92.99 35.07 92.99 0 57.92 0 57.28"/><polygon points="0 56.65 36.33 92.99 35.7 92.99 0 57.28 0 56.65"/><polygon points="0 56.02 36.97 92.99 36.33 92.99 0 56.65 0 56.02"/><polygon points="0 55.39 37.6 92.99 36.97 92.99 0 56.02 0 55.39"/><polygon points="0 54.76 38.23 92.99 37.6 92.99 0 55.39 0 54.76"/><polygon points="0 54.13 38.86 92.99 38.23 92.99 0 54.76 0 54.13"/><polygon points="0 53.49 39.49 92.99 38.86 92.99 0 54.13 0 53.49"/><polygon points="0 52.86 40.12 92.99 39.49 92.99 0 53.5 0 52.86"/><polygon points="0 52.23 40.75 92.99 40.12 92.99 0 52.86 0 52.23"/><polygon points="0 51.6 41.38 92.99 40.75 92.99 0 52.23 0 51.6"/><polygon points="0 50.97 42.02 92.99 41.38 92.99 0 51.6 0 50.97"/><polygon points="0 50.34 42.65 92.99 42.02 92.99 0 50.97 0 50.34"/><polygon points="0 49.71 43.28 92.99 42.65 92.99 0 50.34 0 49.71"/><polygon points="0 49.08 43.91 92.99 43.28 92.99 0 49.71 0 49.08"/><polygon points="0 48.44 44.54 92.99 43.91 92.99 0 49.08 0 48.44"/><polygon points="0 47.81 45.17 92.99 44.54 92.99 0 48.44 0 47.81"/><polygon points="0 47.18 45.81 92.99 45.17 92.99 0 47.81 0 47.18"/><polygon points="0 46.55 46.44 92.99 45.81 92.99 0 47.18 0 46.55"/><polygon points="0 45.92 47.07 92.99 46.44 92.99 0 46.55 0 45.92"/><polygon points="0 45.29 47.7 92.99 47.07 92.99 0 45.92 0 45.29"/><polygon points="0 44.65 48.33 92.99 47.7 92.99 0 45.29 0 44.65"/><polygon points="0 44.02 48.96 92.99 48.33 92.99 0 44.66 0 44.02"/><polygon points="0 43.39 49.6 92.99 48.96 92.99 0 44.02 0 43.39"/><polygon points="0 42.76 50.23 92.99 49.6 92.99 0 43.39 0 42.76"/><polygon points="0 42.13 50.86 92.99 50.23 92.99 0 42.76 0 42.13"/><polygon points="0 41.5 51.49 92.99 50.86 92.99 0 42.13 0 41.5"/><polygon points="0 40.87 52.12 92.99 51.49 92.99 0 41.5 0 40.87"/><polygon points="0 40.23 52.75 92.99 52.12 92.99 0 40.87 0 40.23"/><polygon points="0 39.6 53.38 92.99 52.75 92.99 0 40.23 0 39.6"/><polygon points="0 38.97 54.02 92.99 53.38 92.99 0 39.6 0 38.97"/><polygon points="0 38.34 54.65 92.99 54.02 92.99 0 38.97 0 38.34"/><polygon points="0 37.71 55.28 92.99 54.65 92.99 0 38.34 0 37.71"/><polygon points="0 37.19 0.06 37.13 55.91 92.99 55.28 92.99 0 37.71 0 37.19"/><polygon points="0.06 37.13 0.38 36.82 56.54 92.99 55.91 92.99 0.06 37.13"/><polygon points="0.37 36.82 0.69 36.5 57.17 92.99 56.54 92.99 0.37 36.82"/><polygon points="0.69 36.5 1.01 36.19 57.8 92.99 57.17 92.99 0.69 36.5"/><polygon points="1.01 36.19 1.32 35.87 58.44 92.99 57.8 92.99 1.01 36.19"/><polygon points="1.32 35.87 1.64 35.56 59.07 92.99 58.44 92.99 1.32 35.87"/><polygon points="1.64 35.56 1.95 35.24 59.7 92.99 59.07 92.99 1.64 35.56"/><polygon points="1.95 35.24 2.27 34.92 60.33 92.99 59.7 92.99 1.95 35.24"/><polygon points="2.27 34.92 2.58 34.61 60.96 92.99 60.33 92.99 2.27 34.92"/><polygon points="2.58 34.61 2.9 34.29 61.59 92.99 60.96 92.99 2.58 34.61"/><polygon points="2.9 34.29 3.22 33.98 62.23 92.99 61.59 92.99 2.9 34.29"/><polygon points="3.22 33.98 3.53 33.66 62.86 92.99 62.23 92.99 3.22 33.98"/><polygon points="3.53 33.66 3.85 33.35 63.49 92.99 62.86 92.99 3.53 33.66"/><polygon points="3.85 33.35 4.16 33.03 64.12 92.99 63.49 92.99 3.85 33.35"/><polygon points="4.16 33.03 4.48 32.71 64.75 92.99 64.12 92.99 4.16 33.03"/><polygon points="4.48 32.71 4.79 32.4 65.38 92.99 64.75 92.99 4.48 32.71"/><polygon points="4.79 32.4 5.11 32.08 66.01 92.99 65.38 92.99 4.79 32.4"/><polygon points="5.11 32.08 5.43 31.77 66.65 92.99 66.01 92.99 5.11 32.08"/><polygon points="5.43 31.77 5.74 31.45 67.28 92.99 66.64 92.99 5.43 31.77"/><polygon points="5.74 31.45 6.06 31.14 67.91 92.99 67.28 92.99 5.74 31.45"/><polygon points="6.06 31.14 6.37 30.82 68.54 92.99 67.91 92.99 6.06 31.14"/><polygon points="6.37 30.82 6.69 30.5 69.17 92.99 68.54 92.99 6.37 30.82"/><polygon points="6.69 30.5 7 30.19 69.8 92.99 69.17 92.99 6.69 30.5"/><polygon points="7 30.19 7.32 29.87 70.44 92.99 69.8 92.99 7 30.19"/><polygon points="7.32 29.87 7.64 29.56 71.07 92.99 70.44 92.99 7.32 29.87"/><polygon points="7.64 29.56 7.95 29.24 71.7 92.99 71.07 92.99 7.64 29.56"/><polygon points="7.95 29.24 8.27 28.93 72.33 92.99 71.7 92.99 7.95 29.24"/><polygon points="8.27 28.93 8.58 28.61 72.96 92.98 72.33 92.98 8.27 28.93"/><polygon points="8.58 28.61 8.9 28.29 73.59 92.99 72.96 92.99 8.58 28.61"/><polygon points="8.9 28.29 9.22 27.98 74.22 92.99 73.59 92.99 8.9 28.29"/><polygon points="9.21 27.98 9.53 27.66 74.86 92.99 74.22 92.99 9.21 27.98"/><polygon points="9.53 27.66 9.85 27.35 75.49 92.99 74.86 92.99 9.53 27.66"/><polygon points="9.85 27.35 10.16 27.03 76.12 92.99 75.49 92.99 9.85 27.35"/><polygon points="10.16 27.03 10.48 26.71 76.75 92.99 76.12 92.99 10.16 27.03"/><polygon points="10.48 26.71 10.79 26.4 77.38 92.99 76.75 92.99 10.48 26.71"/><polygon points="10.79 26.4 11.11 26.08 78.01 92.99 77.38 92.99 10.79 26.4"/><polygon points="11.11 26.08 11.43 25.77 78.64 92.99 78.01 92.99 11.11 26.08"/><polygon points="11.43 25.77 11.74 25.45 79.28 92.99 78.64 92.99 11.43 25.77"/><polygon points="11.74 25.45 12.06 25.14 79.91 92.99 79.28 92.99 11.74 25.45"/><polygon points="12.06 25.14 12.37 24.82 80.54 92.99 79.91 92.99 12.06 25.14"/><polygon points="12.37 24.82 12.69 24.5 81.17 92.99 80.54 92.99 12.37 24.82"/><polygon points="12.69 24.5 13.01 24.19 81.8 92.99 81.17 92.99 12.69 24.5"/><polygon points="13.01 24.19 13.32 23.87 82.43 92.99 81.8 92.99 13.01 24.19"/><polygon points="13.32 23.87 13.64 23.56 83.06 92.99 82.43 92.99 13.32 23.87"/><polygon points="13.64 23.56 13.95 23.24 83.4 92.69 83.11 92.99 83.06 92.99 13.64 23.56"/><rect x="48.61" y="8.7" width="0.45" height="98.22" transform="translate(-26.57 51.46) rotate(-45)"/><rect x="48.93" y="8.38" width="0.45" height="98.22" transform="translate(-26.26 51.59) rotate(-45)"/><rect x="49.24" y="8.07" width="0.45" height="98.22" transform="translate(-25.94 51.72) rotate(-45)"/><rect x="49.56" y="7.75" width="0.45" height="98.22" transform="translate(-25.63 51.85) rotate(-45)"/><rect x="49.87" y="7.44" width="0.45" height="98.22" transform="translate(-25.31 51.99) rotate(-45)"/><rect x="50.19" y="7.12" width="0.45" height="98.22" transform="translate(-24.99 52.12) rotate(-45)"/><rect x="50.51" y="6.81" width="0.45" height="98.22" transform="translate(-24.68 52.25) rotate(-45)"/><rect x="50.82" y="6.49" width="0.45" height="98.22" transform="translate(-24.36 52.38) rotate(-45)"/><rect x="51.14" y="6.17" width="0.45" height="98.22" transform="translate(-24.05 52.51) rotate(-45)"/><rect x="51.45" y="5.86" width="0.45" height="98.22" transform="translate(-23.73 52.64) rotate(-45)"/><rect x="51.77" y="5.54" width="0.45" height="98.22" transform="translate(-23.42 52.77) rotate(-45)"/><rect x="52.08" y="5.23" width="0.45" height="98.22" transform="translate(-23.1 52.9) rotate(-45)"/><rect x="52.4" y="4.91" width="0.45" height="98.22" transform="translate(-22.78 53.03) rotate(-45)"/><rect x="52.72" y="4.6" width="0.45" height="98.22" transform="translate(-22.47 53.16) rotate(-45)"/><rect x="53.03" y="4.28" width="0.45" height="98.22" transform="translate(-22.15 53.29) rotate(-45)"/><rect x="53.35" y="3.96" width="0.45" height="98.22" transform="translate(-21.84 53.42) rotate(-45)"/><rect x="53.66" y="3.65" width="0.45" height="98.22" transform="translate(-21.52 53.56) rotate(-45)"/><rect x="53.98" y="3.33" width="0.45" height="98.22" transform="translate(-21.21 53.69) rotate(-45)"/><rect x="54.29" y="3.02" width="0.45" height="98.22" transform="translate(-20.89 53.82) rotate(-45)"/><rect x="54.61" y="2.7" width="0.45" height="98.22" transform="translate(-20.57 53.95) rotate(-45)"/><rect x="54.93" y="2.39" width="0.45" height="98.22" transform="translate(-20.26 54.08) rotate(-45)"/><rect x="55.24" y="2.07" width="0.45" height="98.22" transform="translate(-19.94 54.21) rotate(-45)"/><rect x="55.56" y="1.75" width="0.45" height="98.22" transform="translate(-19.63 54.34) rotate(-45)"/><rect x="55.87" y="1.44" width="0.45" height="98.22" transform="translate(-19.31 54.47) rotate(-45)"/><rect x="56.19" y="1.12" width="0.45" height="98.22" transform="translate(-19 54.6) rotate(-45)"/><rect x="56.5" y="0.81" width="0.45" height="98.22" transform="translate(-18.68 54.73) rotate(-45)"/><rect x="56.82" y="0.49" width="0.45" height="98.22" transform="translate(-18.36 54.86) rotate(-45)"/><rect x="57.14" y="0.17" width="0.45" height="98.22" transform="translate(-18.05 54.99) rotate(-45)"/><rect x="57.45" y="-0.14" width="0.45" height="98.22" transform="translate(-17.73 55.12) rotate(-45)"/><rect x="57.77" y="-0.46" width="0.45" height="98.22" transform="translate(-17.42 55.26) rotate(-45)"/><rect x="58.08" y="-0.77" width="0.45" height="98.22" transform="translate(-17.1 55.39) rotate(-45)"/><rect x="58.4" y="-1.09" width="0.45" height="98.22" transform="translate(-16.79 55.52) rotate(-45)"/><rect x="58.72" y="-1.4" width="0.45" height="98.22" transform="translate(-16.47 55.65) rotate(-45)"/><rect x="59.03" y="-1.72" width="0.45" height="98.22" transform="translate(-16.15 55.78) rotate(-45)"/><rect x="59.35" y="-2.04" width="0.45" height="98.22" transform="translate(-15.84 55.91) rotate(-45)"/><rect x="59.66" y="-2.35" width="0.45" height="98.22" transform="translate(-15.52 56.04) rotate(-45)"/><rect x="59.98" y="-2.67" width="0.45" height="98.22" transform="translate(-15.21 56.17) rotate(-45)"/><rect x="60.29" y="-2.98" width="0.45" height="98.22" transform="translate(-14.89 56.3) rotate(-45)"/><rect x="60.61" y="-3.3" width="0.45" height="98.22" transform="translate(-14.57 56.43) rotate(-45)"/><rect x="60.93" y="-3.61" width="0.45" height="98.22" transform="translate(-14.26 56.56) rotate(-45)"/><rect x="61.24" y="-3.93" width="0.45" height="98.22" transform="translate(-13.94 56.69) rotate(-45)"/><rect x="61.56" y="-4.25" width="0.45" height="98.22" transform="translate(-13.63 56.82) rotate(-45)"/><rect x="61.87" y="-4.56" width="0.45" height="98.22" transform="translate(-13.31 56.96) rotate(-45)"/><rect x="62.19" y="-4.88" width="0.45" height="98.22" transform="translate(-13 57.09) rotate(-45)"/><rect x="62.5" y="-5.19" width="0.45" height="98.22" transform="translate(-12.68 57.22) rotate(-45)"/><rect x="62.82" y="-5.51" width="0.45" height="98.22" transform="translate(-12.36 57.35) rotate(-45)"/><rect x="63.14" y="-5.82" width="0.45" height="98.22" transform="translate(-12.05 57.48) rotate(-45)"/><rect x="63.45" y="-6.14" width="0.45" height="98.22" transform="translate(-11.73 57.61) rotate(-45)"/><rect x="63.77" y="-6.46" width="0.45" height="98.22" transform="translate(-11.42 57.74) rotate(-45)"/><rect x="64.08" y="-6.77" width="0.45" height="98.22" transform="translate(-11.1 57.87) rotate(-45)"/><rect x="64.4" y="-7.09" width="0.45" height="98.22" transform="translate(-10.79 58) rotate(-45)"/><rect x="64.71" y="-7.4" width="0.45" height="98.22" transform="translate(-10.47 58.13) rotate(-45)"/><polygon points="30.37 6.82 30.69 6.51 100.02 75.84 100.02 76.07 99.82 76.27 30.37 6.82"/><polygon points="30.69 6.51 30.97 6.22 31.04 6.22 100.02 75.21 100.02 75.84 30.69 6.51"/><polygon points="31.67 6.22 100.02 74.58 100.02 75.21 31.04 6.22 31.67 6.22"/><polygon points="32.3 6.22 100.02 73.94 100.02 74.58 31.67 6.22 32.3 6.22"/><polygon points="32.93 6.22 100.02 73.31 100.02 73.94 32.3 6.22 32.93 6.22"/><polygon points="33.56 6.22 100.02 72.68 100.02 73.31 32.93 6.22 33.56 6.22"/><polygon points="34.19 6.22 100.02 72.05 100.02 72.68 33.56 6.22 34.19 6.22"/><polygon points="34.83 6.22 100.02 71.42 100.02 72.05 34.19 6.22 34.83 6.22"/><polygon points="35.46 6.22 100.02 70.79 100.02 71.42 34.83 6.22 35.46 6.22"/><polygon points="36.09 6.22 100.02 70.15 100.02 70.79 35.46 6.22 36.09 6.22"/><polygon points="36.72 6.22 100.02 69.52 100.02 70.15 36.09 6.22 36.72 6.22"/><polygon points="37.35 6.22 100.02 68.89 100.02 69.52 36.72 6.22 37.35 6.22"/><polygon points="37.98 6.22 100.02 68.26 100.02 68.89 37.35 6.22 37.98 6.22"/><polygon points="38.61 6.22 100.02 67.63 100.02 68.26 37.98 6.22 38.61 6.22"/><polygon points="39.25 6.22 100.02 67 100.02 67.63 38.61 6.22 39.25 6.22"/><polygon points="39.88 6.22 100.02 66.37 100.02 67 39.24 6.22 39.88 6.22"/><polygon points="47.82 6.22 100.02 58.42 100.02 66.37 39.88 6.22 47.82 6.22"/><polygon points="55.76 6.22 100.02 50.48 100.02 58.42 47.82 6.22 55.76 6.22"/><polygon points="63.71 6.22 100.02 42.54 100.02 50.48 55.76 6.22 63.71 6.22"/><polygon points="71.65 6.22 100.02 34.59 100.02 42.54 63.71 6.22 71.65 6.22"/><polygon points="79.59 6.22 100.02 26.65 100.02 34.59 71.65 6.22 79.59 6.22"/><polygon points="87.53 6.22 100.02 18.71 100.02 26.65 79.59 6.22 87.53 6.22"/><polygon points="95.48 6.22 100.02 10.77 100.02 18.71 87.53 6.22 95.48 6.22"/><polygon points="100.02 10.77 95.48 6.22 100.02 6.22 100.02 10.77"/></g><path d="M67.94,64.78c-.54.38-.45.9.15.83,2-.23,6.4-.76,7.18.24s-.87,5.17-1.62,7c-.23.56.26.79.77.37,3.31-2.76,4.16-8.55,3.48-9.39-.32-.4-1.84-.77-3.72-.77a11.09,11.09,0,0,0-6.24,1.7"/><path d="M67.94,64.78c-.54.38-.45.9.15.83,2-.23,6.4-.76,7.18.24s-.87,5.17-1.62,7c-.23.56.26.79.77.37,3.31-2.76,4.16-8.55,3.48-9.39-.32-.4-1.84-.77-3.72-.77a11.09,11.09,0,0,0-6.24,1.7"/><g class="cls-3"><polygon points="67.4 73.15 67.91 73.66 67.4 73.66 67.4 73.15"/><polygon points="67.4 72.51 68.55 73.66 67.91 73.66 67.4 73.15 67.4 72.51"/><polygon points="67.4 71.87 69.19 73.66 68.55 73.66 67.4 72.51 67.4 71.87"/><polygon points="67.4 71.22 69.83 73.66 69.19 73.66 67.4 71.87 67.4 71.22"/><polygon points="67.4 70.58 70.48 73.66 69.83 73.66 67.4 71.22 67.4 70.58"/><polygon points="67.4 69.94 71.12 73.66 70.48 73.66 67.4 70.58 67.4 69.94"/><polygon points="67.4 69.29 71.76 73.66 71.12 73.66 67.4 69.94 67.4 69.29"/><polygon points="67.4 68.65 72.41 73.66 71.76 73.66 67.4 69.29 67.4 68.65"/><polygon points="67.4 68.01 73.05 73.66 72.41 73.66 67.4 68.65 67.4 68.01"/><polygon points="67.4 67.36 73.69 73.66 73.05 73.66 67.4 68.01 67.4 67.36"/><polygon points="67.4 66.72 74.34 73.66 73.69 73.66 67.4 67.36 67.4 66.72"/><polygon points="67.4 66.08 74.98 73.66 74.34 73.66 67.4 66.72 67.4 66.08"/><polygon points="67.4 65.43 75.44 73.47 75.25 73.66 74.98 73.66 67.4 66.08 67.4 65.43"/><polygon points="67.4 64.79 75.76 73.15 75.44 73.47 67.4 65.43 67.4 64.79"/><polygon points="67.4 64.47 67.56 64.31 76.08 72.82 75.76 73.15 67.4 64.79 67.4 64.47"/><rect x="71.75" y="62.38" width="0.45" height="12.05" transform="translate(-27.29 70.93) rotate(-45)"/><rect x="72.07" y="62.06" width="0.45" height="12.05" transform="translate(-26.97 71.07) rotate(-45)"/><rect x="72.4" y="61.74" width="0.45" height="12.05" transform="translate(-26.64 71.2) rotate(-45)"/><rect x="72.72" y="61.41" width="0.45" height="12.05" transform="translate(-26.32 71.33) rotate(-45)"/><rect x="73.04" y="61.09" width="0.45" height="12.05" transform="translate(-26 71.47) rotate(-45)"/><rect x="73.36" y="60.77" width="0.45" height="12.05" transform="translate(-25.68 71.6) rotate(-45)"/><polygon points="69.49 62.38 69.56 62.31 70.06 62.31 78.33 70.57 78.01 70.89 69.49 62.38"/><polygon points="70.71 62.31 78.58 70.18 78.58 70.33 78.33 70.57 70.07 62.31 70.71 62.31"/><polygon points="71.35 62.31 78.58 69.53 78.58 70.18 70.71 62.31 71.35 62.31"/><polygon points="72 62.31 78.58 68.89 78.58 69.53 71.35 62.31 72 62.31"/><polygon points="72.64 62.31 78.58 68.25 78.58 68.89 72 62.31 72.64 62.31"/><polygon points="73.28 62.31 78.58 67.6 78.58 68.25 72.64 62.31 73.28 62.31"/><polygon points="73.93 62.31 78.58 66.96 78.58 67.6 73.28 62.31 73.93 62.31"/><polygon points="74.57 62.31 78.58 66.32 78.58 66.96 73.93 62.31 74.57 62.31"/><polygon points="75.21 62.31 78.58 65.67 78.58 66.32 74.57 62.31 75.21 62.31"/><polygon points="75.86 62.31 78.58 65.03 78.58 65.67 75.21 62.31 75.86 62.31"/><polygon points="76.5 62.31 78.58 64.39 78.58 65.03 75.86 62.31 76.5 62.31"/><polygon points="77.14 62.31 78.58 63.74 78.58 64.39 76.5 62.31 77.14 62.31"/><polygon points="77.79 62.31 78.58 63.1 78.58 63.74 77.14 62.31 77.79 62.31"/><polygon points="78.43 62.31 78.58 62.45 78.58 63.1 77.79 62.31 78.43 62.31"/></g><path d="M22.15,65.12A41.17,41.17,0,0,0,50,75.74c7.69,0,16.61-2.42,22.77-7,1-.75.15-1.88-.89-1.44A55.3,55.3,0,0,1,50.6,71.68,55.92,55.92,0,0,1,22.78,64.3a.83.83,0,0,0-.4-.12c-.46,0-.69.53-.23.94"/><path d="M22.15,65.12A41.17,41.17,0,0,0,50,75.74c7.69,0,16.61-2.42,22.77-7,1-.75.15-1.88-.89-1.44A55.3,55.3,0,0,1,50.6,71.68,55.92,55.92,0,0,1,22.78,64.3a.83.83,0,0,0-.4-.12c-.46,0-.69.53-.23.94"/><g class="cls-4"><polygon points="21.57 75.18 22.13 75.74 21.57 75.74 21.57 75.18"/><polygon points="21.57 74.57 22.75 75.74 22.13 75.74 21.57 75.18 21.57 74.57"/><polygon points="21.57 73.95 23.36 75.74 22.75 75.74 21.57 74.57 21.57 73.95"/><polygon points="21.57 73.34 23.98 75.74 23.36 75.74 21.57 73.95 21.57 73.34"/><polygon points="21.57 72.72 24.59 75.74 23.98 75.74 21.57 73.34 21.57 72.72"/><polygon points="21.57 72.11 25.2 75.74 24.59 75.74 21.57 72.72 21.57 72.11"/><polygon points="21.57 71.5 25.82 75.74 25.2 75.74 21.57 72.11 21.57 71.5"/><polygon points="21.57 70.88 26.43 75.74 25.82 75.74 21.57 71.5 21.57 70.88"/><polygon points="21.57 70.27 27.05 75.74 26.43 75.74 21.57 70.88 21.57 70.27"/><polygon points="21.57 69.65 27.66 75.74 27.05 75.74 21.57 70.27 21.57 69.65"/><polygon points="21.57 69.04 28.27 75.74 27.66 75.74 21.57 69.65 21.57 69.04"/><polygon points="21.57 68.43 28.89 75.74 28.27 75.74 21.57 69.04 21.57 68.43"/><polygon points="21.57 67.81 29.5 75.74 28.89 75.74 21.57 68.43 21.57 67.81"/><polygon points="21.57 67.2 30.12 75.74 29.5 75.74 21.57 67.81 21.57 67.2"/><polygon points="21.57 66.58 30.73 75.74 30.12 75.74 21.57 67.2 21.57 66.58"/><polygon points="21.57 65.97 31.34 75.74 30.73 75.74 21.57 66.58 21.57 65.97"/><polygon points="21.57 65.36 31.96 75.74 31.34 75.74 21.57 65.97 21.57 65.36"/><polygon points="21.57 64.74 32.57 75.74 31.96 75.74 21.57 65.36 21.57 64.74"/><polygon points="21.57 64.13 33.19 75.74 32.57 75.74 21.57 64.74 21.57 64.13"/><polygon points="21.95 63.89 33.8 75.74 33.19 75.74 21.57 64.13 21.57 63.89 21.95 63.89"/><polygon points="22.57 63.89 34.41 75.74 33.8 75.74 21.95 63.89 22.57 63.89"/><polygon points="23.18 63.89 35.03 75.74 34.41 75.74 22.57 63.89 23.18 63.89"/><polygon points="23.8 63.89 35.64 75.74 35.03 75.74 23.18 63.89 23.8 63.89"/><polygon points="24.41 63.89 36.26 75.74 35.64 75.74 23.8 63.89 24.41 63.89"/><polygon points="25.02 63.89 36.87 75.74 36.26 75.74 24.41 63.89 25.02 63.89"/><polygon points="25.64 63.89 37.48 75.74 36.87 75.74 25.02 63.89 25.64 63.89"/><polygon points="26.25 63.89 38.1 75.74 37.48 75.74 25.64 63.89 26.25 63.89"/><polygon points="26.87 63.89 38.71 75.74 38.1 75.74 26.25 63.89 26.87 63.89"/><polygon points="27.48 63.89 39.33 75.74 38.71 75.74 26.87 63.89 27.48 63.89"/><polygon points="28.09 63.89 39.94 75.74 39.33 75.74 27.48 63.89 28.09 63.89"/><polygon points="28.71 63.89 40.55 75.74 39.94 75.74 28.09 63.89 28.71 63.89"/><polygon points="29.32 63.89 41.17 75.74 40.55 75.74 28.71 63.89 29.32 63.89"/><polygon points="29.94 63.89 41.78 75.74 41.17 75.74 29.32 63.89 29.94 63.89"/><polygon points="30.55 63.89 42.4 75.74 41.78 75.74 29.93 63.89 30.55 63.89"/><polygon points="31.16 63.89 43.01 75.74 42.4 75.74 30.55 63.89 31.16 63.89"/><polygon points="31.78 63.89 43.62 75.74 43.01 75.74 31.16 63.89 31.78 63.89"/><polygon points="32.39 63.89 44.24 75.74 43.62 75.74 31.78 63.89 32.39 63.89"/><polygon points="33.01 63.89 44.85 75.74 44.24 75.74 32.39 63.89 33.01 63.89"/><polygon points="33.62 63.89 45.47 75.74 44.85 75.74 33.01 63.89 33.62 63.89"/><polygon points="34.23 63.89 46.08 75.74 45.47 75.74 33.62 63.89 34.23 63.89"/><polygon points="34.85 63.89 46.69 75.74 46.08 75.74 34.23 63.89 34.85 63.89"/><polygon points="35.46 63.89 47.31 75.74 46.69 75.74 34.85 63.89 35.46 63.89"/><polygon points="36.08 63.89 47.92 75.74 47.31 75.74 35.46 63.89 36.08 63.89"/><polygon points="36.69 63.89 48.53 75.74 47.92 75.74 36.08 63.89 36.69 63.89"/><polygon points="37.3 63.89 49.15 75.74 48.53 75.74 36.69 63.89 37.3 63.89"/><polygon points="37.92 63.89 49.76 75.74 49.15 75.74 37.3 63.89 37.92 63.89"/><polygon points="38.53 63.89 50.38 75.74 49.76 75.74 37.92 63.89 38.53 63.89"/><polygon points="39.15 63.89 50.99 75.74 50.38 75.74 38.53 63.89 39.15 63.89"/><polygon points="39.76 63.89 51.6 75.74 50.99 75.74 39.15 63.89 39.76 63.89"/><polygon points="40.37 63.89 52.22 75.74 51.6 75.74 39.76 63.89 40.37 63.89"/><polygon points="40.99 63.89 52.83 75.74 52.22 75.74 40.37 63.89 40.99 63.89"/><polygon points="41.6 63.89 53.45 75.74 52.83 75.74 40.99 63.89 41.6 63.89"/><polygon points="42.22 63.89 54.06 75.74 53.45 75.74 41.6 63.89 42.22 63.89"/><polygon points="42.83 63.89 54.67 75.74 54.06 75.74 42.22 63.89 42.83 63.89"/><polygon points="43.44 63.89 55.29 75.74 54.67 75.74 42.83 63.89 43.44 63.89"/><polygon points="44.06 63.89 55.9 75.74 55.29 75.74 43.44 63.89 44.06 63.89"/><polygon points="44.67 63.89 56.52 75.74 55.9 75.74 44.06 63.89 44.67 63.89"/><polygon points="45.28 63.89 57.13 75.74 56.52 75.74 44.67 63.89 45.28 63.89"/><polygon points="45.9 63.89 57.74 75.74 57.13 75.74 45.28 63.89 45.9 63.89"/><polygon points="46.51 63.89 58.36 75.74 57.74 75.74 45.9 63.89 46.51 63.89"/><polygon points="47.13 63.89 58.97 75.74 58.36 75.74 46.51 63.89 47.13 63.89"/><polygon points="47.74 63.89 59.59 75.74 58.97 75.74 47.13 63.89 47.74 63.89"/><polygon points="48.35 63.89 60.2 75.74 59.59 75.74 47.74 63.89 48.35 63.89"/><polygon points="48.97 63.89 60.81 75.74 60.2 75.74 48.35 63.89 48.97 63.89"/><polygon points="49.58 63.89 61.43 75.74 60.81 75.74 48.97 63.89 49.58 63.89"/><polygon points="50.2 63.89 62.04 75.74 61.43 75.74 49.58 63.89 50.2 63.89"/><polygon points="50.81 63.89 62.66 75.74 62.04 75.74 50.2 63.89 50.81 63.89"/><polygon points="51.42 63.89 63.27 75.74 62.66 75.74 50.81 63.89 51.42 63.89"/><polygon points="52.04 63.89 63.88 75.74 63.27 75.74 51.42 63.89 52.04 63.89"/><polygon points="52.65 63.89 64.5 75.74 63.88 75.74 52.04 63.89 52.65 63.89"/><polygon points="53.27 63.89 65.11 75.74 64.5 75.74 52.65 63.89 53.27 63.89"/><polygon points="53.88 63.89 65.73 75.74 65.11 75.74 53.27 63.89 53.88 63.89"/><polygon points="54.49 63.89 66.34 75.74 65.73 75.74 53.88 63.89 54.49 63.89"/><polygon points="55.11 63.89 66.84 75.62 66.72 75.74 66.34 75.74 54.49 63.89 55.11 63.89"/><polygon points="55.72 63.89 67.14 75.32 66.84 75.62 55.11 63.89 55.72 63.89"/><polygon points="56.34 63.89 67.45 75.01 67.14 75.32 55.72 63.89 56.34 63.89"/><polygon points="56.95 63.89 67.76 74.7 67.45 75.01 56.34 63.89 56.95 63.89"/><polygon points="57.56 63.89 68.06 74.39 67.76 74.7 56.95 63.89 57.56 63.89"/><polygon points="58.18 63.89 68.37 74.09 68.06 74.39 57.56 63.89 58.18 63.89"/><polygon points="58.79 63.89 68.68 73.78 68.37 74.09 58.18 63.89 58.79 63.89"/><polygon points="59.41 63.89 68.99 73.47 68.68 73.78 58.79 63.89 59.41 63.89"/><polygon points="60.02 63.89 69.29 73.17 68.99 73.47 59.41 63.89 60.02 63.89"/><polygon points="60.63 63.89 69.6 72.86 69.29 73.17 60.02 63.89 60.63 63.89"/><polygon points="61.25 63.89 69.91 72.55 69.6 72.86 60.63 63.89 61.25 63.89"/><polygon points="61.86 63.89 70.21 72.25 69.91 72.55 61.25 63.89 61.86 63.89"/><polygon points="62.48 63.89 70.52 71.94 70.21 72.25 61.86 63.89 62.48 63.89"/><polygon points="63.09 63.89 70.83 71.63 70.52 71.94 62.48 63.89 63.09 63.89"/><polygon points="63.7 63.89 71.14 71.33 70.83 71.63 63.09 63.89 63.7 63.89"/><polygon points="64.32 63.89 71.44 71.02 71.14 71.33 63.7 63.89 64.32 63.89"/><polygon points="64.93 63.89 71.75 70.71 71.44 71.02 64.32 63.89 64.93 63.89"/><polygon points="65.55 63.89 72.06 70.4 71.75 70.71 64.93 63.89 65.55 63.89"/><polygon points="66.16 63.89 72.36 70.1 72.06 70.4 65.55 63.89 66.16 63.89"/><polygon points="66.78 63.89 72.67 69.79 72.36 70.1 66.16 63.89 66.78 63.89"/><polygon points="67.39 63.89 72.98 69.48 72.67 69.79 66.77 63.89 67.39 63.89"/><polygon points="68 63.89 73.28 69.17 72.98 69.48 67.39 63.89 68 63.89"/><polygon points="68.62 63.89 73.59 68.87 73.28 69.17 68 63.89 68.62 63.89"/><polygon points="69.23 63.89 73.73 68.4 73.73 68.72 73.59 68.87 68.62 63.89 69.23 63.89"/><polygon points="69.84 63.89 73.73 67.78 73.73 68.4 69.23 63.89 69.84 63.89"/><polygon points="70.46 63.89 73.73 67.17 73.73 67.78 69.84 63.89 70.46 63.89"/><polygon points="71.07 63.89 73.74 66.56 73.74 67.17 70.46 63.89 71.07 63.89"/><polygon points="71.69 63.89 73.74 65.94 73.74 66.56 71.07 63.89 71.69 63.89"/><polygon points="72.3 63.89 73.74 65.33 73.74 65.94 71.69 63.89 72.3 63.89"/><polygon points="72.91 63.89 73.74 64.72 73.74 65.33 72.3 63.89 72.91 63.89"/><polygon points="73.53 63.89 73.74 64.1 73.74 64.72 72.91 63.89 73.53 63.89"/></g></svg>