<?xml version="1.0" encoding="utf-8"?><svg id="Layer_1" data-name="Layer 1" xmlns="http://www.w3.org/2000/svg" xmlns:xlink="http://www.w3.org/1999/xlink" viewBox="0 0 400 400"><defs><style>.cls-1{fill:none;}.cls-2{fill:#0093d2;}.cls-3{clip-path:url(#clip-path);}.cls-4{fill:#d50057;}.cls-5{clip-path:url(#clip-path-2);}.cls-6{opacity:0.1;}.cls-7{fill:#ffc629;fill-rule:evenodd;}.cls-8{fill:#fff;}</style><clipPath id="clip-path"><circle class="cls-1" cx="200" cy="200" r="200"/></clipPath><clipPath id="clip-path-2"><circle class="cls-2" cx="200" cy="622.11" r="200"/></clipPath></defs><title>4Artboard 1 copy 11</title><g class="cls-3"><circle class="cls-4" cx="234.97" cy="188.23" r="276.69"/></g><circle class="cls-2" cx="200" cy="622.11" r="200"/><g class="cls-5"><g class="cls-6"><circle class="cls-2" cx="234.97" cy="610.33" r="276.69"/></g></g><path class="cls-7" d="M297.74,273.77c-26.49,19.55-64.9,30-98,30-46.35,0-88.1-17.13-119.69-45.66-2.48-2.24-.26-5.3,2.72-3.56,34.08,19.83,76.22,31.77,119.75,31.77a238.21,238.21,0,0,0,91.35-18.69C298.37,265.68,302.13,270.53,297.74,273.77Z"/><path class="cls-7" d="M308.77,261.18c-3.39-4.34-22.4-2.05-30.94-1-2.59.31-3-1.95-.66-3.59,15.16-10.65,40-7.57,42.9-4s-.76,28.51-15,40.4c-2.19,1.83-4.27.86-3.3-1.56C305,283.41,312.16,265.52,308.77,261.18Z"/><path class="cls-8" d="M182.34,160.56c2.51-1.45,4.68-2.86,7-4,8.3-4,16.74-4.74,25-.21,6.61,3.6,10.16,9.73,12.38,16.65,3.45,10.78,3.72,21.84,2.53,33-.95,9-3.6,17.32-9.58,24.27-7.73,9-17.4,12.91-29.24,10.46-3.54-.73-6.39-2.83-9.09-5.11l-1.61-1.34c-.78,1.64-1.47,3.15-2.23,4.63a3.26,3.26,0,0,1-4.16,1.91c-4.71-1.23-9.44-2.38-14.18-3.5-1.56-.37-1.89-1.19-1.23-2.56,2.83-5.77,3.28-11.93,3.27-18.24q-.09-45.67,0-91.34c0-3.48.21-3.66,3.58-4.31,4.72-.91,9.42-1.9,14.13-2.87,2.79-.58,3.41-.13,3.41,2.74q0,19.23,0,38.45Zm0,38.22c0,7.16,0,14.32,0,21.48a2.75,2.75,0,0,0,.77,2c3.79,2.62,7.93,3.84,12.54,2.56,5.28-1.47,8.11-5.46,10-10.2,3.37-8.56,3.6-17.49,2.6-26.51a30.26,30.26,0,0,0-3.37-11.73c-2.56-4.55-6.36-6.67-11.65-6-3.62.47-6.56,2.33-9.52,4.24a2.76,2.76,0,0,0-1.41,2.7C182.37,184.47,182.34,191.62,182.34,198.78Z"/><path class="cls-8" d="M287.36,232.29c-3.45,2.22-6.7,5-10.44,6.59a27.43,27.43,0,0,1-23.43-.66c-7.06-3.36-10.79-9.37-12-17-1.3-8.34-.42-16.28,5.39-22.93,4.56-5.23,10.73-7.75,17.33-9,5-.94,10.18-1.2,15.28-1.72,1.6-.16,3.22-.16,5.35-.25-.4-4.13-.49-8.1-1.23-12s-3.92-5.56-8.73-5.71c-6.08-.19-11.85,1.36-17.49,3.42-6.26,2.3-5.27,1.83-7.2-3.46-.71-1.95-1.38-3.92-2.06-5.89-1.11-3.17-.83-4.1,2.25-5.54a36.57,36.57,0,0,1,6.93-2.51c8.85-2.11,17.76-3.11,26.87-1.75,12.19,1.83,19.68,9.86,19.91,22.16.24,12,.18,24.07.15,36.1,0,6.9.75,13.6,3.82,19.91,1.09,2.23.72,2.91-1.61,3.85-4.09,1.66-8.21,3.27-12.3,4.92-1.74.7-3.11.32-3.87-1.41C289.22,237,288.26,234.49,287.36,232.29Zm-2.83-31c-5.28-.05-10.27.16-15,1.8-6.12,2.1-8.66,6-8.29,12.46a10.85,10.85,0,0,0,13,10.37c4-.71,7.15-3,9.86-5.86a2,2,0,0,0,.49-1.19C284.54,213.11,284.53,207.34,284.53,201.3Z"/><path class="cls-8" d="M128,171.71v63.34c0,3.41-.26,3.67-3.64,3.68-4.82,0-9.64,0-14.45,0-2.66,0-3-.4-3-3.07q0-30.65,0-61.3v-2.64h-3.74c-3.19,0-6.38-.05-9.57,0-1.49,0-2.18-.62-2.19-2.07,0-3.7,0-7.41,0-11.12,0-1.66.91-2.32,2.47-2.32l10.74,0h2.32c0-2.3-.14-4.38,0-6.43.4-5,.27-10.12,1.56-14.87,2.7-9.95,10-15.22,19.95-16.73a45.74,45.74,0,0,1,20.6,2,14,14,0,0,1,2.15.91c2.54,1.29,2.87,2,2.18,4.77-.86,3.46-1.73,6.93-2.66,10.38-.62,2.31-1.36,2.67-3.51,1.69a23.16,23.16,0,0,0-11.17-2.2c-4.57.28-7.24,2.64-7.75,7.17-.24,2.12-.2,4.28-.23,6.43s0,4.4,0,6.76c.85,0,1.54.1,2.23.1,5.4,0,10.81,0,16.21,0,3.33,0,3.71.49,3,3.64s-1.53,6.18-2.26,9.27a3,3,0,0,1-3.33,2.61c-4.49,0-9,0-13.47,0Z"/></svg>