<?xml version="1.0" encoding="utf-8"?><svg id="Layer_1" data-name="Layer 1" xmlns="http://www.w3.org/2000/svg" viewBox="0 0 100 100"><title>Award winning support</title><path d="M86.85,39.46l-.74-.21V36.11a36.11,36.11,0,0,0-72.22,0v3.14l-.74.21a18.15,18.15,0,0,0,5,35.6A7.93,7.93,0,0,0,26,67.14V46.69a7.93,7.93,0,0,0-7.25-7.89l-.94-.07V36.11a32.15,32.15,0,0,1,64.3,0v2.62l-.94.07A7.93,7.93,0,0,0,74,46.69V67.14A8,8,0,0,0,81.21,75l.94.07V76a14.51,14.51,0,0,1-14.52,14.8H60.41l-.26-.65a7.14,7.14,0,0,0-6.68-4.56H46.53a7.19,7.19,0,0,0,0,14.37h6.94a7.14,7.14,0,0,0,6.68-4.56l.26-.64h7.22A18.5,18.5,0,0,0,86.11,76.32V74.57l.74-.22a18.15,18.15,0,0,0,0-34.89ZM18.14,42.73h.05a3.93,3.93,0,0,1,3.88,4V67.14a3.94,3.94,0,0,1-4.12,4h-.09A14.22,14.22,0,0,1,4,57.7a14.19,14.19,0,0,1,14.16-15ZM53.47,96H46.53a3.22,3.22,0,1,1,0-6.44h6.94a3.22,3.22,0,1,1,0,6.44ZM96,57.7A14.22,14.22,0,0,1,82.15,71.09H82a4,4,0,0,1-4.11-4V46.69a3.92,3.92,0,0,1,3.86-4h.07A14.19,14.19,0,0,1,96,57.7Z"/><path d="M50,73.36a2,2,0,0,0,1.4-.58L65.26,58.92a10,10,0,0,0-7-17.11,10.5,10.5,0,0,0-7.5,3.29l-.72.72-.72-.72a10.53,10.53,0,0,0-7.51-3.29,10,10,0,0,0-7,17.11L48.6,72.78A2,2,0,0,0,50,73.36ZM37.54,47.54a6.08,6.08,0,0,1,8.58,0L48.6,50a2,2,0,0,0,2.8,0l2.48-2.48a6.07,6.07,0,0,1,8.58,8.58L50.72,67.85l-.72.73-.72-.73L37.54,56.12A6.08,6.08,0,0,1,37.54,47.54Z"/></svg>