<?xml version="1.0" encoding="utf-8"?><svg id="Layer_1" data-name="Layer 1" xmlns="http://www.w3.org/2000/svg" xmlns:xlink="http://www.w3.org/1999/xlink" viewBox="0 0 100 100"><defs><style>.cls-1{clip-path:url(#clip-path);}.cls-2{clip-path:url(#clip-path-2);}.cls-3{clip-path:url(#clip-path-3);}.cls-4{clip-path:url(#clip-path-4);}.cls-5{clip-path:url(#clip-path-5);}</style><clipPath id="clip-path"><path d="M43.15,94.48a3,3,0,0,1,0-4.25l2.39-2.39.23-.2h0A3,3,0,0,1,47.1,87h0l.25,0h.32a3,3,0,0,1,2.14.94l.19.23a3.11,3.11,0,0,1-.34,4.05l-2.3,2.3a3,3,0,0,1-2.12.88,3,3,0,0,1-2.13-.88m-8-6.16a3,3,0,0,1,0-4.24l4.63-4.64A3,3,0,0,1,43.45,79a3,3,0,0,1,1.43,3A3.1,3.1,0,0,1,44,83.76l-4.55,4.56a3,3,0,0,1-4.25,0m-7-7.06a3,3,0,0,1,0-4.24l4.63-4.63A3,3,0,0,1,37.9,74.9a3.22,3.22,0,0,1-.9,1.81l-4.55,4.55a3,3,0,0,1-2.13.88,3,3,0,0,1-2.12-.88m-6.15-7.94a3,3,0,0,1,0-4.25l2.39-2.38a2.29,2.29,0,0,1,.23-.21,3,3,0,0,1,1.63-.66h.05a1.11,1.11,0,0,1,.26,0,3,3,0,0,1,2.14.94A3.07,3.07,0,0,1,28.62,71L26.3,73.32a3,3,0,0,1-2.12.88,3,3,0,0,1-2.13-.88M14.36,53.47,32.47,31.41,38.24,33l-7.53,13.3a6.92,6.92,0,0,0,2.61,9.43l.3.16h0a5.58,5.58,0,0,0,.83.35,6.91,6.91,0,0,0,8.27-3.13l4.9-8.64,8.74.62,23.3,23.29a3,3,0,0,1-4.25,4.24l-.14-.12L62.71,59.78a2,2,0,0,0-2.78,2.76L72.66,75.4h0a3,3,0,0,1,0,4.25,3,3,0,0,1-4.25,0l-8.51-8.6a2,2,0,1,0-2.79,2.75l8.39,8.47a1.07,1.07,0,0,0,.14.16,3,3,0,1,1-4.26,4.24L56.74,82A2,2,0,0,0,54,84.73l4.52,4.57.14.15a3,3,0,0,1-4.25,4.25,3.83,3.83,0,0,0-.44-.36.22.22,0,0,1-.1-.32c.07-.15.16-.3.23-.46a4.27,4.27,0,0,0,.18-.54,7.11,7.11,0,0,0,.26-3,6.89,6.89,0,0,0-2.93-4.76,6.72,6.72,0,0,0-2.91-1.13A7,7,0,0,0,47,76.81,6.83,6.83,0,0,0,42,74.65h-.21A6.93,6.93,0,0,0,40,69.75a6.85,6.85,0,0,0-4.93-2.16,6.68,6.68,0,0,0-1.67.18,6.86,6.86,0,0,0-6.72-5.88,7,7,0,0,0-4.73,1.78Zm20.89-1.16a3,3,0,0,1-1.42-1.81,3,3,0,0,1,.29-2.28l7.35-13,3-.85a.11.11,0,0,1,.06,0l11.11-3.22H69.06L85.83,52.47,80.49,63.65,58.65,41.8l-.13-.12a2,2,0,0,0-1.12-.45l-10.71-.76a2,2,0,0,0-1.84,1l-5.51,9.72a3,3,0,0,1-1.81,1.41,2.76,2.76,0,0,1-.8.11,3,3,0,0,1-1.48-.39M72.89,29.67l7.91-5L95.29,43.46,88.4,49.4Zm-68.15,15,16.2-20.06,7.91,5-17.21,21ZM80.21,20.37,69.42,27.24H55.34a2,2,0,0,0-.54.09L43.89,30.47l-11.32-3.1-11-7A2,2,0,0,0,19,20.8L.5,43.7a2,2,0,0,0,.25,2.71l9.69,8.34,8.69,11.72a6.91,6.91,0,0,0,4.35,11.61,7.45,7.45,0,0,0-.08,1.06,6.93,6.93,0,0,0,6.92,6.92h.08a.61.61,0,0,0,0,.14,6.93,6.93,0,0,0,6.92,6.92A6.38,6.38,0,0,0,38.39,93,6.91,6.91,0,0,0,45,99.27h.47a6.92,6.92,0,0,0,4.66-2l1.06-1.06.44.36A6.92,6.92,0,0,0,63.4,91.47a6.92,6.92,0,0,0,7-7,6.84,6.84,0,0,0,5-2,6.91,6.91,0,0,0,2-5,6.92,6.92,0,0,0,5.91-10.69l6.35-13.29,9.54-8.22a1.92,1.92,0,0,0,.68-1.44v-.09a1.88,1.88,0,0,0-.4-1.14L82.81,20.83a1.94,1.94,0,0,0-1.55-.76,2,2,0,0,0-1.05.3"/></clipPath><clipPath id="clip-path-2"><path d="M72.56,6.84,59.19,20.22A2,2,0,0,0,62,23L75.33,9.61a2,2,0,0,0-2.77-2.77"/></clipPath><clipPath id="clip-path-3"><path d="M24.67,6.84a2,2,0,0,0,0,2.77L38.05,23a2,2,0,0,0,2.76-2.77L27.44,6.84a2,2,0,0,0-2.77,0"/></clipPath><clipPath id="clip-path-4"><path d="M48,10.53V21.6a2,2,0,0,0,3.92,0V10.53a2,2,0,0,0-3.92,0"/></clipPath><clipPath id="clip-path-5"><path d="M48.91,1.06a2,2,0,0,0-.72,2.38,2,2,0,0,0,1.91,1.2,2,2,0,0,0,1.09-3.51A2,2,0,0,0,50,.73a2,2,0,0,0-1.09.33"/></clipPath></defs><title>B2B Fulfilment</title><path d="M43.15,94.48a3,3,0,0,1,0-4.25l2.39-2.39.23-.2h0A3,3,0,0,1,47.1,87h0l.25,0h.32a3,3,0,0,1,2.14.94l.19.23a3.11,3.11,0,0,1-.34,4.05l-2.3,2.3a3,3,0,0,1-2.12.88,3,3,0,0,1-2.13-.88m-8-6.16a3,3,0,0,1,0-4.24l4.63-4.64A3,3,0,0,1,43.45,79a3,3,0,0,1,1.43,3A3.1,3.1,0,0,1,44,83.76l-4.55,4.56a3,3,0,0,1-4.25,0m-7-7.06a3,3,0,0,1,0-4.24l4.63-4.63A3,3,0,0,1,37.9,74.9a3.22,3.22,0,0,1-.9,1.81l-4.55,4.55a3,3,0,0,1-2.13.88,3,3,0,0,1-2.12-.88m-6.15-7.94a3,3,0,0,1,0-4.25l2.39-2.38a2.29,2.29,0,0,1,.23-.21,3,3,0,0,1,1.63-.66h.05a1.11,1.11,0,0,1,.26,0,3,3,0,0,1,2.14.94A3.07,3.07,0,0,1,28.62,71L26.3,73.32a3,3,0,0,1-2.12.88,3,3,0,0,1-2.13-.88M14.36,53.47,32.47,31.41,38.24,33l-7.53,13.3a6.92,6.92,0,0,0,2.61,9.43l.3.16h0a5.58,5.58,0,0,0,.83.35,6.91,6.91,0,0,0,8.27-3.13l4.9-8.64,8.74.62,23.3,23.29a3,3,0,0,1-4.25,4.24l-.14-.12L62.71,59.78a2,2,0,0,0-2.78,2.76L72.66,75.4h0a3,3,0,0,1,0,4.25,3,3,0,0,1-4.25,0l-8.51-8.6a2,2,0,1,0-2.79,2.75l8.39,8.47a1.07,1.07,0,0,0,.14.16,3,3,0,1,1-4.26,4.24L56.74,82A2,2,0,0,0,54,84.73l4.52,4.57.14.15a3,3,0,0,1-4.25,4.25,3.83,3.83,0,0,0-.44-.36.22.22,0,0,1-.1-.32c.07-.15.16-.3.23-.46a4.27,4.27,0,0,0,.18-.54,7.11,7.11,0,0,0,.26-3,6.89,6.89,0,0,0-2.93-4.76,6.72,6.72,0,0,0-2.91-1.13A7,7,0,0,0,47,76.81,6.83,6.83,0,0,0,42,74.65h-.21A6.93,6.93,0,0,0,40,69.75a6.85,6.85,0,0,0-4.93-2.16,6.68,6.68,0,0,0-1.67.18,6.86,6.86,0,0,0-6.72-5.88,7,7,0,0,0-4.73,1.78Zm20.89-1.16a3,3,0,0,1-1.42-1.81,3,3,0,0,1,.29-2.28l7.35-13,3-.85a.11.11,0,0,1,.06,0l11.11-3.22H69.06L85.83,52.47,80.49,63.65,58.65,41.8l-.13-.12a2,2,0,0,0-1.12-.45l-10.71-.76a2,2,0,0,0-1.84,1l-5.51,9.72a3,3,0,0,1-1.81,1.41,2.76,2.76,0,0,1-.8.11,3,3,0,0,1-1.48-.39M72.89,29.67l7.91-5L95.29,43.46,88.4,49.4Zm-68.15,15,16.2-20.06,7.91,5-17.21,21ZM80.21,20.37,69.42,27.24H55.34a2,2,0,0,0-.54.09L43.89,30.47l-11.32-3.1-11-7A2,2,0,0,0,19,20.8L.5,43.7a2,2,0,0,0,.25,2.71l9.69,8.34,8.69,11.72a6.91,6.91,0,0,0,4.35,11.61,7.45,7.45,0,0,0-.08,1.06,6.93,6.93,0,0,0,6.92,6.92h.08a.61.61,0,0,0,0,.14,6.93,6.93,0,0,0,6.92,6.92A6.38,6.38,0,0,0,38.39,93,6.91,6.91,0,0,0,45,99.27h.47a6.92,6.92,0,0,0,4.66-2l1.06-1.06.44.36A6.92,6.92,0,0,0,63.4,91.47a6.92,6.92,0,0,0,7-7,6.84,6.84,0,0,0,5-2,6.91,6.91,0,0,0,2-5,6.92,6.92,0,0,0,5.91-10.69l6.35-13.29,9.54-8.22a1.92,1.92,0,0,0,.68-1.44v-.09a1.88,1.88,0,0,0-.4-1.14L82.81,20.83a1.94,1.94,0,0,0-1.55-.76,2,2,0,0,0-1.05.3"/><g class="cls-1"><polygon points="72.89 48.95 73.34 49.4 72.89 49.4 72.89 48.95"/><polygon points="72.89 48.29 74 49.4 73.34 49.4 72.89 48.95 72.89 48.29"/><polygon points="72.89 47.63 74.66 49.4 74 49.4 72.89 48.29 72.89 47.63"/><polygon points="72.89 46.96 75.33 49.4 74.66 49.4 72.89 47.63 72.89 46.96"/><polygon points="72.89 46.3 75.99 49.4 75.33 49.4 72.89 46.96 72.89 46.3"/><polygon points="72.89 45.64 76.65 49.4 75.99 49.4 72.89 46.3 72.89 45.64"/><polygon points="72.89 44.97 77.31 49.4 76.65 49.4 72.89 45.64 72.89 44.97"/><polygon points="72.89 44.31 77.98 49.4 77.31 49.4 72.89 44.97 72.89 44.31"/><polygon points="72.89 43.65 78.64 49.4 77.98 49.4 72.89 44.31 72.89 43.65"/><polygon points="72.89 42.98 79.3 49.4 78.64 49.4 72.89 43.65 72.89 42.98"/><polygon points="72.89 42.32 79.97 49.4 79.3 49.4 72.89 42.98 72.89 42.32"/><polygon points="72.89 41.66 80.63 49.4 79.97 49.4 72.89 42.32 72.89 41.66"/><polygon points="72.89 41 81.29 49.4 80.63 49.4 72.89 41.66 72.89 41"/><polygon points="72.89 40.33 81.95 49.4 81.29 49.4 72.89 40.99 72.89 40.33"/><polygon points="72.89 39.67 82.62 49.4 81.95 49.4 72.89 40.33 72.89 39.67"/><polygon points="72.89 39.01 83.28 49.4 82.62 49.4 72.89 39.67 72.89 39.01"/><polygon points="72.89 30.67 90.77 48.55 89.91 49.4 83.28 49.4 72.89 39.01 72.89 30.67"/><polygon points="72.89 29.12 76.28 25.72 94.93 44.38 90.77 48.55 72.89 30.67 72.89 29.12"/><polygon points="76.28 25.73 77.37 24.64 83.53 24.64 95.3 36.4 95.3 44.02 94.93 44.38 76.28 25.73"/><polygon points="91.87 24.64 95.3 28.06 95.3 36.4 83.53 24.64 91.87 24.64"/><polygon points="95.29 28.06 91.87 24.64 95.29 24.64 95.29 28.06"/><polygon points="33.62 63.39 33.88 63.65 33.62 63.65 33.62 63.39"/><polygon points="33.62 62.72 34.54 63.65 33.88 63.65 33.62 63.38 33.62 62.72"/><polygon points="33.62 62.06 35.21 63.65 34.54 63.65 33.62 62.72 33.62 62.06"/><polygon points="33.62 61.4 35.87 63.65 35.21 63.65 33.62 62.06 33.62 61.4"/><polygon points="33.62 60.73 36.53 63.65 35.87 63.65 33.62 61.4 33.62 60.73"/><polygon points="33.62 60.07 37.2 63.65 36.53 63.65 33.62 60.73 33.62 60.07"/><polygon points="33.62 59.41 37.86 63.65 37.2 63.65 33.62 60.07 33.62 59.41"/><polygon points="33.62 58.74 38.52 63.65 37.86 63.65 33.62 59.41 33.62 58.74"/><polygon points="33.62 58.08 39.18 63.65 38.52 63.65 33.62 58.74 33.62 58.08"/><polygon points="33.62 57.42 39.85 63.65 39.18 63.65 33.62 58.08 33.62 57.42"/><polygon points="33.62 56.76 40.51 63.65 39.85 63.65 33.62 57.42 33.62 56.76"/><polygon points="33.62 56.09 41.17 63.65 40.51 63.65 33.62 56.76 33.62 56.09"/><polygon points="33.62 55.43 41.84 63.65 41.17 63.65 33.62 56.09 33.62 55.43"/><polygon points="33.62 54.77 42.5 63.65 41.84 63.65 33.62 55.43 33.62 54.77"/><polygon points="33.62 54.1 43.16 63.65 42.5 63.65 33.62 54.77 33.62 54.1"/><polygon points="33.62 53.44 43.83 63.65 43.16 63.65 33.62 54.1 33.62 53.44"/><polygon points="33.62 52.78 44.49 63.65 43.83 63.65 33.62 53.44 33.62 52.78"/><polygon points="33.62 52.12 45.15 63.65 44.49 63.65 33.62 52.78 33.62 52.12"/><polygon points="33.62 51.45 45.81 63.65 45.15 63.65 33.62 52.12 33.62 51.45"/><polygon points="33.62 50.79 46.48 63.65 45.81 63.65 33.62 51.45 33.62 50.79"/><polygon points="33.62 50.13 47.14 63.65 46.48 63.65 33.62 50.79 33.62 50.13"/><polygon points="33.62 49.46 47.8 63.65 47.14 63.65 33.62 50.13 33.62 49.46"/><polygon points="33.62 48.8 48.47 63.65 47.8 63.65 33.62 49.46 33.62 48.8"/><polygon points="33.62 48.14 49.13 63.65 48.47 63.65 33.62 48.8 33.62 48.14"/><polygon points="33.62 47.48 49.79 63.65 49.13 63.65 33.62 48.14 33.62 47.48"/><polygon points="33.62 46.81 50.46 63.65 49.79 63.65 33.62 47.47 33.62 46.81"/><polygon points="33.62 46.15 51.12 63.65 50.46 63.65 33.62 46.81 33.62 46.15"/><polygon points="33.62 45.49 51.78 63.65 51.12 63.65 33.62 46.15 33.62 45.49"/><polygon points="33.62 44.82 52.45 63.65 51.78 63.65 33.62 45.48 33.62 44.82"/><polygon points="33.62 44.16 53.11 63.65 52.45 63.65 33.62 44.82 33.62 44.16"/><polygon points="33.62 43.5 53.77 63.65 53.11 63.65 33.62 44.16 33.62 43.5"/><polygon points="33.62 42.83 54.43 63.65 53.77 63.65 33.62 43.5 33.62 42.83"/><polygon points="33.62 42.54 33.8 42.35 55.1 63.65 54.43 63.65 33.62 42.84 33.62 42.54"/><polygon points="33.8 42.35 34.13 42.02 55.76 63.65 55.09 63.65 33.8 42.35"/><polygon points="34.13 42.02 34.47 41.69 56.42 63.65 55.76 63.65 34.13 42.02"/><polygon points="34.47 41.69 34.8 41.36 57.09 63.65 56.42 63.65 34.47 41.69"/><polygon points="34.8 41.36 35.13 41.03 57.75 63.65 57.08 63.65 34.8 41.36"/><polygon points="35.13 41.03 35.46 40.7 58.41 63.65 57.75 63.65 35.13 41.03"/><polygon points="35.46 40.7 35.79 40.36 59.07 63.65 58.41 63.65 35.46 40.7"/><polygon points="35.79 40.37 36.12 40.03 59.74 63.65 59.07 63.65 35.79 40.37"/><polygon points="36.12 40.03 36.45 39.7 60.4 63.65 59.74 63.65 36.12 40.03"/><polygon points="36.45 39.7 36.79 39.37 61.06 63.65 60.4 63.65 36.45 39.7"/><polygon points="36.79 39.37 37.12 39.04 61.73 63.65 61.06 63.65 36.79 39.37"/><polygon points="37.12 39.04 37.45 38.71 62.39 63.65 61.73 63.65 37.12 39.04"/><polygon points="37.45 38.71 37.78 38.38 63.05 63.65 62.39 63.65 37.45 38.71"/><polygon points="37.78 38.38 38.11 38.04 63.72 63.65 63.05 63.65 37.78 38.38"/><polygon points="38.11 38.05 38.44 37.71 64.38 63.65 63.72 63.65 38.11 38.05"/><polygon points="38.44 37.71 38.77 37.38 65.04 63.65 64.38 63.65 38.44 37.71"/><polygon points="38.77 37.38 39.11 37.05 65.7 63.65 65.04 63.65 38.77 37.38"/><polygon points="39.11 37.05 39.44 36.72 66.37 63.65 65.7 63.65 39.11 37.05"/><polygon points="39.44 36.72 39.77 36.39 67.03 63.65 66.37 63.65 39.44 36.72"/><polygon points="39.77 36.39 40.1 36.05 67.69 63.65 67.03 63.65 39.77 36.39"/><polygon points="40.1 36.06 40.43 35.72 68.36 63.65 67.69 63.65 40.1 36.06"/><polygon points="40.43 35.72 40.76 35.39 69.02 63.65 68.35 63.65 40.43 35.72"/><polygon points="40.76 35.39 41.1 35.06 69.68 63.65 69.02 63.65 40.76 35.39"/><polygon points="41.09 35.06 41.43 34.73 70.34 63.65 69.68 63.65 41.09 35.06"/><polygon points="41.43 34.73 41.76 34.4 71.01 63.65 70.34 63.65 41.43 34.73"/><polygon points="41.76 34.4 42.09 34.07 71.67 63.65 71.01 63.65 41.76 34.4"/><polygon points="42.09 34.07 42.42 33.73 72.33 63.65 71.67 63.65 42.09 34.07"/><polygon points="42.42 33.73 42.75 33.4 73 63.65 72.33 63.65 42.42 33.73"/><polygon points="42.75 33.4 43.09 33.07 73.66 63.65 73 63.65 42.75 33.4"/><polygon points="43.08 33.07 43.42 32.74 74.32 63.65 73.66 63.65 43.08 33.07"/><polygon points="43.41 32.74 43.75 32.41 74.99 63.65 74.32 63.65 43.41 32.74"/><polygon points="43.75 32.41 44.08 32.08 75.65 63.65 74.98 63.65 43.75 32.41"/><polygon points="44.08 32.08 44.41 31.75 76.31 63.65 75.65 63.65 44.08 32.08"/><polygon points="44.41 31.75 44.74 31.41 76.97 63.65 76.31 63.65 44.41 31.75"/><polygon points="44.74 31.41 45 31.16 45.14 31.16 77.64 63.65 76.97 63.65 44.74 31.41"/><polygon points="45.81 31.15 78.3 63.65 77.64 63.65 45.14 31.15 45.81 31.15"/><polygon points="46.47 31.15 78.96 63.65 78.3 63.65 45.81 31.15 46.47 31.15"/><polygon points="47.13 31.15 79.63 63.65 78.96 63.65 46.47 31.15 47.13 31.15"/><polygon points="47.8 31.15 80.29 63.65 79.63 63.65 47.13 31.15 47.8 31.15"/><polygon points="48.46 31.15 80.95 63.65 80.29 63.65 47.8 31.15 48.46 31.15"/><polygon points="49.12 31.15 81.33 63.37 81.05 63.65 80.95 63.65 48.46 31.15 49.12 31.15"/><polygon points="49.78 31.15 81.66 63.03 81.33 63.37 49.12 31.15 49.78 31.15"/><polygon points="50.45 31.15 81.99 62.7 81.66 63.03 49.78 31.15 50.45 31.15"/><polygon points="51.11 31.15 82.33 62.37 81.99 62.7 50.45 31.15 51.11 31.15"/><polygon points="51.77 31.15 82.66 62.04 82.33 62.37 51.11 31.15 51.77 31.15"/><polygon points="52.44 31.15 82.99 61.71 82.66 62.04 51.77 31.15 52.44 31.15"/><polygon points="53.1 31.15 83.32 61.38 82.99 61.71 52.44 31.15 53.1 31.15"/><polygon points="53.76 31.15 83.65 61.04 83.32 61.38 53.1 31.15 53.76 31.15"/><polygon points="54.42 31.15 83.98 60.71 83.65 61.04 53.76 31.15 54.42 31.15"/><polygon points="55.09 31.15 84.32 60.38 83.98 60.71 54.43 31.15 55.09 31.15"/><polygon points="55.75 31.15 84.65 60.05 84.31 60.38 55.09 31.15 55.75 31.15"/><polygon points="56.41 31.15 84.98 59.72 84.65 60.05 55.75 31.15 56.41 31.15"/><polygon points="57.08 31.15 85.31 59.39 84.98 59.72 56.41 31.15 57.08 31.15"/><polygon points="57.74 31.15 85.64 59.05 85.31 59.39 57.08 31.15 57.74 31.15"/><polygon points="58.4 31.15 85.83 58.58 85.83 58.87 85.64 59.05 57.74 31.15 58.4 31.15"/><polygon points="59.07 31.15 85.83 57.92 85.83 58.58 58.4 31.15 59.07 31.15"/><polygon points="59.73 31.15 85.83 57.26 85.83 57.92 59.07 31.15 59.73 31.15"/><polygon points="60.39 31.15 85.83 56.59 85.83 57.26 59.73 31.15 60.39 31.15"/><polygon points="61.05 31.15 85.83 55.93 85.83 56.59 60.39 31.15 61.05 31.15"/><polygon points="61.72 31.15 85.83 55.27 85.83 55.93 61.06 31.15 61.72 31.15"/><polygon points="62.38 31.15 85.83 54.6 85.83 55.27 61.72 31.15 62.38 31.15"/><polygon points="63.04 31.15 85.83 53.94 85.83 54.6 62.38 31.15 63.04 31.15"/><polygon points="63.71 31.15 85.83 53.28 85.83 53.94 63.04 31.15 63.71 31.15"/><polygon points="64.37 31.15 85.83 52.62 85.83 53.28 63.71 31.15 64.37 31.15"/><polygon points="65.03 31.15 85.83 51.95 85.83 52.62 64.37 31.15 65.03 31.15"/><polygon points="73.37 31.15 85.83 43.61 85.83 51.95 65.03 31.15 73.37 31.15"/><polygon points="81.71 31.15 85.83 35.27 85.83 43.61 73.37 31.15 81.71 31.15"/><polygon points="85.83 35.27 81.71 31.16 85.83 31.16 85.83 35.27"/><polygon points="14.36 94.52 14.72 94.87 14.36 94.87 14.36 94.52"/><polygon points="14.36 93.85 15.38 94.87 14.72 94.87 14.36 94.52 14.36 93.85"/><polygon points="14.36 93.19 16.04 94.87 15.38 94.87 14.36 93.85 14.36 93.19"/><polygon points="14.36 92.53 16.71 94.87 16.04 94.87 14.36 93.19 14.36 92.53"/><polygon points="14.36 91.86 17.37 94.87 16.71 94.87 14.36 92.53 14.36 91.86"/><polygon points="14.36 91.2 18.03 94.87 17.37 94.87 14.36 91.86 14.36 91.2"/><polygon points="14.36 90.54 18.7 94.87 18.03 94.87 14.36 91.2 14.36 90.54"/><polygon points="14.36 89.88 19.36 94.87 18.7 94.87 14.36 90.54 14.36 89.88"/><polygon points="14.36 89.21 20.02 94.87 19.36 94.87 14.36 89.88 14.36 89.21"/><polygon points="14.36 88.55 20.68 94.87 20.02 94.87 14.36 89.21 14.36 88.55"/><polygon points="14.36 87.89 21.35 94.87 20.68 94.87 14.36 88.55 14.36 87.89"/><polygon points="14.36 87.22 22.01 94.87 21.35 94.87 14.36 87.89 14.36 87.22"/><polygon points="14.36 86.56 22.67 94.87 22.01 94.87 14.36 87.22 14.36 86.56"/><polygon points="14.36 85.9 23.34 94.87 22.67 94.87 14.36 86.56 14.36 85.9"/><polygon points="14.36 85.23 24 94.87 23.34 94.87 14.36 85.9 14.36 85.23"/><polygon points="14.36 84.57 24.66 94.87 24 94.87 14.36 85.23 14.36 84.57"/><polygon points="14.36 83.91 25.32 94.87 24.66 94.87 14.36 84.57 14.36 83.91"/><polygon points="14.36 83.25 25.99 94.87 25.32 94.87 14.36 83.91 14.36 83.25"/><polygon points="14.36 82.58 26.65 94.87 25.99 94.87 14.36 83.25 14.36 82.58"/><polygon points="14.36 81.92 27.31 94.87 26.65 94.87 14.36 82.58 14.36 81.92"/><polygon points="14.36 81.26 27.98 94.87 27.31 94.87 14.36 81.92 14.36 81.26"/><polygon points="14.36 80.59 28.64 94.87 27.98 94.87 14.36 81.26 14.36 80.59"/><polygon points="14.36 79.93 29.3 94.87 28.64 94.87 14.36 80.59 14.36 79.93"/><polygon points="14.36 79.27 29.97 94.87 29.3 94.87 14.36 79.93 14.36 79.27"/><polygon points="14.36 78.61 30.63 94.87 29.97 94.87 14.36 79.27 14.36 78.61"/><polygon points="14.36 77.94 31.29 94.87 30.63 94.87 14.36 78.6 14.36 77.94"/><polygon points="14.36 77.28 31.96 94.87 31.29 94.87 14.36 77.94 14.36 77.28"/><polygon points="14.36 76.62 32.62 94.87 31.96 94.87 14.36 77.28 14.36 76.62"/><polygon points="14.36 75.95 33.28 94.87 32.62 94.87 14.36 76.61 14.36 75.95"/><polygon points="14.36 75.29 33.94 94.87 33.28 94.87 14.36 75.95 14.36 75.29"/><polygon points="14.36 74.63 34.61 94.87 33.94 94.87 14.36 75.29 14.36 74.63"/><polygon points="14.36 73.96 35.27 94.87 34.61 94.87 14.36 74.63 14.36 73.96"/><polygon points="14.36 73.3 35.93 94.87 35.27 94.87 14.36 73.96 14.36 73.3"/><polygon points="14.36 72.64 36.6 94.87 35.93 94.87 14.36 73.3 14.36 72.64"/><polygon points="14.36 71.97 37.26 94.87 36.6 94.87 14.36 72.64 14.36 71.97"/><polygon points="14.36 71.31 37.92 94.87 37.26 94.87 14.36 71.97 14.36 71.31"/><polygon points="14.36 70.65 38.59 94.87 37.92 94.87 14.36 71.31 14.36 70.65"/><polygon points="14.36 69.99 39.25 94.87 38.59 94.87 14.36 70.65 14.36 69.99"/><polygon points="14.36 69.32 39.91 94.87 39.25 94.87 14.36 69.99 14.36 69.32"/><polygon points="14.36 68.66 40.57 94.87 39.91 94.87 14.36 69.32 14.36 68.66"/><polygon points="14.36 68 41.24 94.87 40.57 94.87 14.36 68.66 14.36 68"/><polygon points="14.36 67.33 41.9 94.87 41.24 94.87 14.36 68 14.36 67.33"/><polygon points="14.36 66.67 42.56 94.87 41.9 94.87 14.36 67.33 14.36 66.67"/><polygon points="14.36 66.01 43.23 94.87 42.56 94.87 14.36 66.67 14.36 66.01"/><polygon points="14.36 65.34 43.89 94.87 43.23 94.87 14.36 66.01 14.36 65.34"/><polygon points="14.36 64.68 44.55 94.87 43.89 94.87 14.36 65.34 14.36 64.68"/><polygon points="14.36 64.02 45.22 94.87 44.55 94.87 14.36 64.68 14.36 64.02"/><polygon points="14.36 63.36 45.88 94.87 45.22 94.87 14.36 64.02 14.36 63.36"/><polygon points="14.36 62.69 46.54 94.87 45.88 94.87 14.36 63.36 14.36 62.69"/><polygon points="14.36 62.03 47.2 94.87 46.54 94.87 14.36 62.69 14.36 62.03"/><polygon points="14.36 61.37 47.87 94.87 47.2 94.87 14.36 62.03 14.36 61.37"/><polygon points="14.36 60.7 48.53 94.87 47.87 94.87 14.36 61.37 14.36 60.7"/><polygon points="14.36 60.04 49.19 94.87 48.53 94.87 14.36 60.7 14.36 60.04"/><polygon points="14.36 59.38 49.85 94.87 49.19 94.87 14.36 60.04 14.36 59.38"/><polygon points="14.36 58.72 50.52 94.87 49.85 94.87 14.36 59.38 14.36 58.72"/><polygon points="14.36 58.05 51.18 94.87 50.52 94.87 14.36 58.72 14.36 58.05"/><polygon points="14.36 57.39 51.84 94.87 51.18 94.87 14.36 58.05 14.36 57.39"/><polygon points="14.36 56.73 52.51 94.87 51.84 94.87 14.36 57.39 14.36 56.73"/><polygon points="14.36 56.06 53.17 94.87 52.51 94.87 14.36 56.73 14.36 56.06"/><polygon points="14.36 55.4 53.83 94.87 53.17 94.87 14.36 56.06 14.36 55.4"/><polygon points="14.36 54.74 54.49 94.87 53.83 94.87 14.36 55.4 14.36 54.74"/><polygon points="14.36 54.08 55.16 94.87 54.49 94.87 14.36 54.74 14.36 54.08"/><polygon points="14.36 53.41 55.82 94.87 55.16 94.87 14.36 54.07 14.36 53.41"/><polygon points="14.36 52.75 56.48 94.87 55.82 94.87 14.36 53.41 14.36 52.75"/><polygon points="14.36 52.09 57.15 94.87 56.48 94.87 14.36 52.75 14.36 52.09"/><polygon points="14.36 51.42 57.81 94.87 57.15 94.87 14.36 52.09 14.36 51.42"/><polygon points="14.36 50.76 58.23 94.63 57.99 94.87 57.81 94.87 14.36 51.42 14.36 50.76"/><polygon points="14.36 50.1 58.56 94.3 58.23 94.63 14.36 50.76 14.36 50.1"/><polygon points="14.36 49.43 58.9 93.97 58.56 94.3 14.36 50.1 14.36 49.43"/><polygon points="14.36 48.96 14.46 48.87 59.23 93.64 58.9 93.97 14.36 49.43 14.36 48.96"/><rect x="36.77" y="39.43" width="0.47" height="63.31" transform="translate(-39.43 46.99) rotate(-45)"/><rect x="37.11" y="39.1" width="0.47" height="63.31" transform="translate(-39.09 47.13) rotate(-45)"/><rect x="37.44" y="38.77" width="0.47" height="63.31" transform="translate(-38.76 47.26) rotate(-45)"/><rect x="37.77" y="38.44" width="0.47" height="63.31" transform="translate(-38.43 47.4) rotate(-45)"/><rect x="38.1" y="38.1" width="0.47" height="63.31" transform="translate(-38.1 47.54) rotate(-45)"/><rect x="38.43" y="37.77" width="0.47" height="63.31" transform="translate(-37.77 47.68) rotate(-45)"/><rect x="38.76" y="37.44" width="0.47" height="63.31" transform="translate(-37.44 47.81) rotate(-45)"/><rect x="39.09" y="37.11" width="0.47" height="63.31" transform="translate(-37.1 47.95) rotate(-45)"/><rect x="39.43" y="36.78" width="0.47" height="63.31" transform="translate(-36.77 48.09) rotate(-45)"/><rect x="39.76" y="36.45" width="0.47" height="63.31" transform="translate(-36.44 48.23) rotate(-45)"/><rect x="40.09" y="36.12" width="0.47" height="63.31" transform="translate(-36.11 48.36) rotate(-45)"/><rect x="40.42" y="35.78" width="0.47" height="63.31" transform="translate(-35.78 48.5) rotate(-45)"/><rect x="40.75" y="35.45" width="0.47" height="63.31" transform="translate(-35.45 48.64) rotate(-45)"/><rect x="41.08" y="35.12" width="0.47" height="63.31" transform="translate(-35.12 48.77) rotate(-45)"/><rect x="41.42" y="34.79" width="0.47" height="63.31" transform="translate(-34.78 48.91) rotate(-45)"/><rect x="41.75" y="34.46" width="0.47" height="63.31" transform="translate(-34.45 49.05) rotate(-45)"/><rect x="42.08" y="34.13" width="0.47" height="63.31" transform="translate(-34.12 49.19) rotate(-45)"/><rect x="42.41" y="33.79" width="0.47" height="63.31" transform="translate(-33.79 49.32) rotate(-45)"/><rect x="42.74" y="33.46" width="0.47" height="63.31" transform="translate(-33.46 49.46) rotate(-45)"/><rect x="43.07" y="33.13" width="0.47" height="63.31" transform="translate(-33.13 49.6) rotate(-45)"/><rect x="43.4" y="32.8" width="0.47" height="63.31" transform="translate(-32.8 49.74) rotate(-45)"/><rect x="43.74" y="32.47" width="0.47" height="63.31" transform="translate(-32.46 49.87) rotate(-45)"/><rect x="44.07" y="32.14" width="0.47" height="63.31" transform="translate(-32.13 50.01) rotate(-45)"/><rect x="44.4" y="31.81" width="0.47" height="63.31" transform="translate(-31.8 50.15) rotate(-45)"/><rect x="44.73" y="31.47" width="0.47" height="63.31" transform="translate(-31.47 50.28) rotate(-45)"/><rect x="45.06" y="31.14" width="0.47" height="63.31" transform="translate(-31.14 50.42) rotate(-45)"/><rect x="45.39" y="30.81" width="0.47" height="63.31" transform="translate(-30.81 50.56) rotate(-45)"/><rect x="45.72" y="30.48" width="0.47" height="63.31" transform="translate(-30.47 50.7) rotate(-45)"/><rect x="46.06" y="30.15" width="0.47" height="63.31" transform="translate(-30.14 50.83) rotate(-45)"/><rect x="46.39" y="29.82" width="0.47" height="63.31" transform="translate(-29.81 50.97) rotate(-45)"/><rect x="46.72" y="29.49" width="0.47" height="63.31" transform="translate(-29.48 51.11) rotate(-45)"/><rect x="47.05" y="29.15" width="0.47" height="63.31" transform="translate(-29.15 51.25) rotate(-45)"/><rect x="47.38" y="28.82" width="0.47" height="63.31" transform="translate(-28.82 51.38) rotate(-45)"/><rect x="47.71" y="28.49" width="0.47" height="63.31" transform="translate(-28.49 51.52) rotate(-45)"/><rect x="48.05" y="28.16" width="0.47" height="63.31" transform="translate(-28.15 51.66) rotate(-45)"/><rect x="48.38" y="27.83" width="0.47" height="63.31" transform="translate(-27.82 51.8) rotate(-45)"/><rect x="48.71" y="27.5" width="0.47" height="63.31" transform="translate(-27.49 51.93) rotate(-45)"/><rect x="49.04" y="27.16" width="0.47" height="63.31" transform="translate(-27.16 52.07) rotate(-45)"/><rect x="49.37" y="26.83" width="0.47" height="63.31" transform="translate(-26.83 52.21) rotate(-45)"/><rect x="49.7" y="26.5" width="0.47" height="63.31" transform="translate(-26.5 52.34) rotate(-45)"/><rect x="50.03" y="26.17" width="0.47" height="63.31" transform="translate(-26.17 52.48) rotate(-45)"/><rect x="50.37" y="25.84" width="0.47" height="63.31" transform="translate(-25.83 52.62) rotate(-45)"/><rect x="50.7" y="25.51" width="0.47" height="63.31" transform="translate(-25.5 52.76) rotate(-45)"/><rect x="51.03" y="25.18" width="0.47" height="63.31" transform="translate(-25.17 52.89) rotate(-45)"/><rect x="51.36" y="24.84" width="0.47" height="63.31" transform="translate(-24.84 53.03) rotate(-45)"/><rect x="51.69" y="24.51" width="0.47" height="63.31" transform="translate(-24.51 53.17) rotate(-45)"/><rect x="52.02" y="24.18" width="0.47" height="63.31" transform="translate(-24.18 53.31) rotate(-45)"/><rect x="52.35" y="23.85" width="0.47" height="63.31" transform="translate(-23.85 53.44) rotate(-45)"/><rect x="52.69" y="23.52" width="0.47" height="63.31" transform="translate(-23.51 53.58) rotate(-45)"/><rect x="53.02" y="23.19" width="0.47" height="63.31" transform="translate(-23.18 53.72) rotate(-45)"/><rect x="53.35" y="22.86" width="0.47" height="63.31" transform="translate(-22.85 53.85) rotate(-45)"/><rect x="53.68" y="22.52" width="0.47" height="63.31" transform="translate(-22.52 53.99) rotate(-45)"/><polygon points="31.7 31.63 31.92 31.41 32.14 31.41 76.8 76.07 76.47 76.4 31.7 31.63"/><polygon points="32.8 31.41 77.13 75.73 76.8 76.06 32.14 31.41 32.8 31.41"/><polygon points="33.46 31.41 77.46 75.4 77.13 75.73 32.8 31.41 33.46 31.41"/><polygon points="34.13 31.41 77.79 75.07 77.46 75.4 33.46 31.41 34.13 31.41"/><polygon points="34.79 31.41 78.12 74.74 77.79 75.07 34.13 31.41 34.79 31.41"/><polygon points="35.45 31.41 78.45 74.41 78.12 74.74 34.79 31.41 35.45 31.41"/><polygon points="36.11 31.41 78.78 74.08 78.45 74.41 35.45 31.41 36.11 31.41"/><polygon points="36.78 31.41 79.12 73.75 78.78 74.08 36.12 31.41 36.78 31.41"/><polygon points="37.44 31.41 79.45 73.41 79.11 73.75 36.78 31.41 37.44 31.41"/><polygon points="38.1 31.41 79.78 73.08 79.45 73.41 37.44 31.41 38.1 31.41"/><polygon points="38.77 31.41 80.11 72.75 79.78 73.08 38.1 31.41 38.77 31.41"/><polygon points="39.43 31.41 80.44 72.42 80.11 72.75 38.77 31.41 39.43 31.41"/><polygon points="40.09 31.41 80.77 72.09 80.44 72.42 39.43 31.41 40.09 31.41"/><polygon points="40.76 31.41 80.85 71.51 80.85 72.01 80.77 72.09 40.09 31.41 40.76 31.41"/><polygon points="41.42 31.41 80.86 70.84 80.86 71.51 40.76 31.41 41.42 31.41"/><polygon points="42.08 31.41 80.86 70.18 80.86 70.84 41.42 31.41 42.08 31.41"/><polygon points="42.74 31.41 80.85 69.52 80.85 70.18 42.08 31.41 42.74 31.41"/><polygon points="43.41 31.41 80.86 68.85 80.86 69.52 42.74 31.41 43.41 31.41"/><polygon points="44.07 31.41 80.86 68.19 80.86 68.85 43.41 31.41 44.07 31.41"/><polygon points="44.73 31.41 80.85 67.53 80.85 68.19 44.07 31.41 44.73 31.41"/><polygon points="45.4 31.41 80.86 66.86 80.86 67.53 44.73 31.41 45.4 31.41"/><polygon points="46.06 31.41 80.86 66.2 80.86 66.86 45.4 31.41 46.06 31.41"/><polygon points="46.72 31.41 80.85 65.54 80.85 66.2 46.06 31.41 46.72 31.41"/><polygon points="47.38 31.41 80.86 64.88 80.86 65.54 46.72 31.41 47.38 31.41"/><polygon points="48.05 31.41 80.86 64.21 80.86 64.88 47.38 31.41 48.05 31.41"/><polygon points="48.71 31.41 80.85 63.55 80.85 64.21 48.05 31.41 48.71 31.41"/><polygon points="49.37 31.41 80.85 62.89 80.85 63.55 48.71 31.41 49.37 31.41"/><polygon points="50.04 31.41 80.86 62.23 80.86 62.89 49.37 31.41 50.04 31.41"/><polygon points="50.7 31.41 80.86 61.56 80.86 62.23 50.04 31.41 50.7 31.41"/><polygon points="51.36 31.41 80.85 60.9 80.85 61.56 50.7 31.41 51.36 31.41"/><polygon points="52.02 31.41 80.86 60.24 80.86 60.9 51.36 31.41 52.02 31.41"/><polygon points="52.69 31.41 80.86 59.57 80.86 60.24 52.03 31.41 52.69 31.41"/><polygon points="53.35 31.41 80.85 58.91 80.85 59.57 52.69 31.41 53.35 31.41"/><polygon points="54.01 31.41 80.86 58.25 80.86 58.91 53.35 31.41 54.01 31.41"/><polygon points="54.68 31.41 80.86 57.59 80.86 58.25 54.02 31.41 54.68 31.41"/><polygon points="55.34 31.41 80.85 56.92 80.85 57.59 54.68 31.41 55.34 31.41"/><polygon points="56 31.41 80.86 56.26 80.86 56.92 55.34 31.41 56 31.41"/><polygon points="56.67 31.41 80.86 55.6 80.86 56.26 56 31.41 56.67 31.41"/><polygon points="57.33 31.41 80.85 54.93 80.85 55.6 56.67 31.41 57.33 31.41"/><polygon points="57.99 31.41 80.86 54.27 80.86 54.93 57.33 31.41 57.99 31.41"/><polygon points="58.66 31.41 80.86 53.61 80.86 54.27 57.99 31.41 58.66 31.41"/><polygon points="59.32 31.41 80.85 52.94 80.85 53.61 58.66 31.41 59.32 31.41"/><polygon points="59.98 31.41 80.86 52.28 80.86 52.94 59.32 31.41 59.98 31.41"/><polygon points="60.64 31.41 80.86 51.62 80.86 52.28 59.98 31.41 60.64 31.41"/><polygon points="61.31 31.41 80.85 50.95 80.85 51.62 60.65 31.41 61.31 31.41"/><polygon points="61.97 31.41 80.86 50.29 80.86 50.95 61.31 31.41 61.97 31.41"/><polygon points="62.63 31.41 80.86 49.63 80.86 50.29 61.97 31.41 62.63 31.41"/><polygon points="63.3 31.41 80.85 48.96 80.85 49.63 62.63 31.41 63.3 31.41"/><polygon points="63.96 31.41 80.86 48.3 80.86 48.96 63.3 31.41 63.96 31.41"/><polygon points="64.62 31.41 80.86 47.64 80.86 48.3 63.96 31.41 64.62 31.41"/><polygon points="65.28 31.41 80.85 46.98 80.85 47.64 64.62 31.41 65.28 31.41"/><polygon points="73.62 31.41 80.85 38.64 80.85 46.98 65.28 31.41 73.62 31.41"/><polygon points="80.86 38.64 73.62 31.41 80.86 31.41 80.86 38.64"/><polygon points="41.98 95.62 42.02 95.65 41.98 95.65 41.98 95.62"/><polygon points="41.98 94.95 42.68 95.65 42.02 95.65 41.98 95.61 41.98 94.95"/><polygon points="41.98 94.29 43.34 95.65 42.68 95.65 41.98 94.95 41.98 94.29"/><polygon points="41.98 93.63 44.01 95.65 43.34 95.65 41.98 94.29 41.98 93.63"/><polygon points="41.98 92.96 44.67 95.65 44.01 95.65 41.98 93.63 41.98 92.96"/><polygon points="41.98 92.3 45.33 95.65 44.67 95.65 41.98 92.96 41.98 92.3"/><polygon points="41.98 91.64 45.99 95.65 45.33 95.65 41.98 92.3 41.98 91.64"/><polygon points="41.98 90.97 46.66 95.65 45.99 95.65 41.98 91.64 41.98 90.97"/><polygon points="41.98 90.85 42.25 90.58 47.05 95.38 46.78 95.65 46.66 95.65 41.98 90.97 41.98 90.85"/><rect x="44.58" y="89.42" width="0.47" height="6.79" transform="translate(-52.5 58.88) rotate(-45)"/><rect x="44.91" y="89.09" width="0.47" height="6.79" transform="translate(-52.17 59.01) rotate(-45)"/><rect x="45.25" y="88.76" width="0.47" height="6.79" transform="translate(-51.84 59.15) rotate(-45)"/><rect x="45.58" y="88.43" width="0.47" height="6.79" transform="translate(-51.51 59.29) rotate(-45)"/><rect x="45.91" y="88.09" width="0.47" height="6.79" transform="translate(-51.18 59.42) rotate(-45)"/><rect x="46.24" y="87.76" width="0.47" height="6.79" transform="translate(-50.85 59.56) rotate(-45)"/><rect x="46.57" y="87.43" width="0.47" height="6.79" transform="translate(-50.52 59.7) rotate(-45)"/><rect x="46.9" y="87.1" width="0.47" height="6.79" transform="translate(-50.18 59.84) rotate(-45)"/><rect x="47.23" y="86.77" width="0.47" height="6.79" transform="translate(-49.85 59.97) rotate(-45)"/><rect x="47.57" y="86.44" width="0.47" height="6.79" transform="translate(-49.52 60.11) rotate(-45)"/><polygon points="45.56 87.27 45.87 86.96 45.93 86.96 50.7 91.74 50.37 92.07 45.56 87.27"/><polygon points="46.59 86.96 50.94 91.32 50.94 91.49 50.7 91.74 45.93 86.96 46.59 86.96"/><polygon points="47.25 86.96 50.94 90.65 50.94 91.32 46.59 86.96 47.25 86.96"/><polygon points="47.91 86.96 50.94 89.99 50.94 90.65 47.25 86.96 47.91 86.96"/><polygon points="48.58 86.96 50.94 89.33 50.94 89.99 47.91 86.96 48.58 86.96"/><polygon points="49.24 86.96 50.94 88.67 50.94 89.33 48.58 86.96 49.24 86.96"/><polygon points="49.9 86.96 50.94 88 50.94 88.67 49.24 86.96 49.9 86.96"/><polygon points="50.57 86.96 50.94 87.34 50.94 88 49.9 86.96 50.57 86.96"/><polygon points="50.94 87.34 50.57 86.96 50.94 86.96 50.94 87.34"/><polygon points="34.31 88.61 34.91 89.2 34.31 89.2 34.31 88.61"/><polygon points="34.31 87.94 35.57 89.2 34.91 89.2 34.31 88.61 34.31 87.94"/><polygon points="34.31 87.28 36.23 89.2 35.57 89.2 34.31 87.94 34.31 87.28"/><polygon points="34.31 86.62 36.89 89.2 36.23 89.2 34.31 87.28 34.31 86.62"/><polygon points="34.31 85.95 37.56 89.2 36.89 89.2 34.31 86.62 34.31 85.95"/><polygon points="34.31 85.29 38.22 89.2 37.56 89.2 34.31 85.95 34.31 85.29"/><polygon points="34.31 84.63 38.88 89.2 38.22 89.2 34.31 85.29 34.31 84.63"/><polygon points="34.31 84.4 34.53 84.18 39.33 88.98 39.11 89.2 38.88 89.2 34.31 84.63 34.31 84.4"/><rect x="36.86" y="83.02" width="0.47" height="6.79" transform="translate(-50.24 51.54) rotate(-45)"/><rect x="37.19" y="82.69" width="0.47" height="6.79" transform="translate(-49.91 51.68) rotate(-45)"/><rect x="37.52" y="82.36" width="0.47" height="6.79" transform="translate(-49.58 51.82) rotate(-45)"/><rect x="37.85" y="82.03" width="0.47" height="6.79" transform="translate(-49.25 51.95) rotate(-45)"/><rect x="38.18" y="81.7" width="0.47" height="6.79" transform="translate(-48.92 52.09) rotate(-45)"/><rect x="38.52" y="81.37" width="0.47" height="6.79" transform="translate(-48.59 52.23) rotate(-45)"/><rect x="38.85" y="81.03" width="0.47" height="6.79" transform="translate(-48.25 52.36) rotate(-45)"/><rect x="39.18" y="80.7" width="0.47" height="6.79" transform="translate(-47.92 52.5) rotate(-45)"/><rect x="39.51" y="80.37" width="0.47" height="6.79" transform="translate(-47.59 52.64) rotate(-45)"/><rect x="39.84" y="80.04" width="0.47" height="6.79" transform="translate(-47.26 52.78) rotate(-45)"/><rect x="40.17" y="79.71" width="0.47" height="6.79" transform="translate(-46.93 52.91) rotate(-45)"/><rect x="40.51" y="79.38" width="0.47" height="6.79" transform="translate(-46.6 53.05) rotate(-45)"/><rect x="40.84" y="79.05" width="0.47" height="6.79" transform="translate(-46.26 53.19) rotate(-45)"/><rect x="41.17" y="78.71" width="0.47" height="6.79" transform="translate(-45.93 53.33) rotate(-45)"/><rect x="41.5" y="78.38" width="0.47" height="6.79" transform="translate(-45.6 53.46) rotate(-45)"/><rect x="41.83" y="78.05" width="0.47" height="6.79" transform="translate(-45.27 53.6) rotate(-45)"/><rect x="42.16" y="77.72" width="0.47" height="6.79" transform="translate(-44.94 53.74) rotate(-45)"/><polygon points="40.16 78.55 40.42 78.29 40.57 78.29 45.06 82.79 45.06 83.25 44.96 83.35 40.16 78.55"/><polygon points="41.23 78.29 45.07 82.13 45.07 82.79 40.57 78.29 41.23 78.29"/><polygon points="41.9 78.29 45.06 81.46 45.06 82.13 41.23 78.29 41.9 78.29"/><polygon points="42.56 78.29 45.07 80.8 45.07 81.46 41.9 78.29 42.56 78.29"/><polygon points="43.22 78.29 45.07 80.14 45.07 80.8 42.56 78.29 43.22 78.29"/><polygon points="43.88 78.29 45.06 79.47 45.06 80.14 43.22 78.29 43.88 78.29"/><polygon points="44.55 78.29 45.07 78.81 45.07 79.47 43.88 78.29 44.55 78.29"/><polygon points="45.07 78.81 44.55 78.29 45.07 78.29 45.07 78.81"/><polygon points="27.32 81.61 27.85 82.14 27.32 82.14 27.32 81.61"/><polygon points="27.32 80.95 28.51 82.14 27.85 82.14 27.32 81.61 27.32 80.95"/><polygon points="27.32 80.29 29.17 82.14 28.51 82.14 27.32 80.95 27.32 80.29"/><polygon points="27.32 79.63 29.84 82.14 29.17 82.14 27.32 80.29 27.32 79.63"/><polygon points="27.32 78.96 30.5 82.14 29.84 82.14 27.32 79.62 27.32 78.96"/><polygon points="27.32 78.3 31.16 82.14 30.5 82.14 27.32 78.96 27.32 78.3"/><polygon points="27.32 77.64 31.82 82.14 31.16 82.14 27.32 78.3 27.32 77.64"/><polygon points="27.32 77.34 27.5 77.16 32.3 81.96 32.12 82.14 31.82 82.14 27.32 77.64 27.32 77.34"/><rect x="29.83" y="76" width="0.47" height="6.79" transform="translate(-47.33 44.52) rotate(-45)"/><rect x="30.17" y="75.67" width="0.47" height="6.79" transform="translate(-47 44.65) rotate(-45)"/><rect x="30.5" y="75.33" width="0.47" height="6.79" transform="translate(-46.67 44.79) rotate(-45)"/><rect x="30.83" y="75" width="0.47" height="6.79" transform="translate(-46.34 44.93) rotate(-45)"/><rect x="31.16" y="74.67" width="0.47" height="6.79" transform="translate(-46.01 45.06) rotate(-45)"/><rect x="31.49" y="74.34" width="0.47" height="6.79" transform="translate(-45.68 45.2) rotate(-45)"/><rect x="31.82" y="74.01" width="0.47" height="6.79" transform="translate(-45.34 45.34) rotate(-45)"/><rect x="32.15" y="73.68" width="0.47" height="6.79" transform="translate(-45.01 45.48) rotate(-45)"/><rect x="32.49" y="73.35" width="0.47" height="6.79" transform="translate(-44.68 45.61) rotate(-45)"/><rect x="32.82" y="73.01" width="0.47" height="6.79" transform="translate(-44.35 45.75) rotate(-45)"/><rect x="33.15" y="72.68" width="0.47" height="6.79" transform="translate(-44.02 45.89) rotate(-45)"/><rect x="33.48" y="72.35" width="0.47" height="6.79" transform="translate(-43.69 46.03) rotate(-45)"/><rect x="33.81" y="72.02" width="0.47" height="6.79" transform="translate(-43.35 46.16) rotate(-45)"/><rect x="34.14" y="71.69" width="0.47" height="6.79" transform="translate(-43.02 46.3) rotate(-45)"/><rect x="34.47" y="71.36" width="0.47" height="6.79" transform="translate(-42.69 46.44) rotate(-45)"/><rect x="34.81" y="71.03" width="0.47" height="6.79" transform="translate(-42.36 46.57) rotate(-45)"/><rect x="35.14" y="70.69" width="0.47" height="6.79" transform="translate(-42.03 46.71) rotate(-45)"/><polygon points="33.14 71.52 33.4 71.26 33.53 71.26 38.07 75.79 38.07 76.19 37.94 76.33 33.14 71.52"/><polygon points="34.2 71.25 38.07 75.13 38.07 75.79 33.53 71.25 34.2 71.25"/><polygon points="34.86 71.25 38.07 74.47 38.07 75.13 34.2 71.25 34.86 71.25"/><polygon points="35.52 71.25 38.07 73.8 38.07 74.47 34.86 71.25 35.52 71.25"/><polygon points="36.18 71.25 38.07 73.14 38.07 73.8 35.52 71.25 36.18 71.25"/><polygon points="36.85 71.25 38.07 72.48 38.07 73.14 36.19 71.25 36.85 71.25"/><polygon points="37.51 71.25 38.07 71.81 38.07 72.48 36.85 71.25 37.51 71.25"/><polygon points="38.07 71.81 37.51 71.25 38.07 71.25 38.07 71.81"/><polygon points="20.88 73.85 21.52 74.5 20.88 74.5 20.88 73.85"/><polygon points="20.88 73.19 22.19 74.5 21.52 74.5 20.88 73.85 20.88 73.19"/><polygon points="20.88 72.53 22.85 74.5 22.19 74.5 20.88 73.19 20.88 72.53"/><polygon points="20.88 71.86 23.51 74.49 22.85 74.49 20.88 72.53 20.88 71.86"/><polygon points="20.88 71.2 24.18 74.5 23.51 74.5 20.88 71.86 20.88 71.2"/><polygon points="20.88 70.54 24.84 74.5 24.18 74.5 20.88 71.2 20.88 70.54"/><polygon points="20.88 69.88 25.5 74.49 24.84 74.49 20.88 70.54 20.88 69.88"/><polygon points="20.88 69.69 21.12 69.45 25.93 74.25 25.68 74.5 25.5 74.5 20.88 69.88 20.88 69.69"/><rect x="23.46" y="68.29" width="0.47" height="6.79" transform="translate(-43.75 37.75) rotate(-45)"/><rect x="23.79" y="67.96" width="0.47" height="6.79" transform="translate(-43.42 37.89) rotate(-45)"/><rect x="24.12" y="67.63" width="0.47" height="6.79" transform="translate(-43.09 38.02) rotate(-45)"/><rect x="24.45" y="67.3" width="0.47" height="6.79" transform="translate(-42.76 38.16) rotate(-45)"/><rect x="24.78" y="66.97" width="0.47" height="6.79" transform="translate(-42.43 38.3) rotate(-45)"/><rect x="25.11" y="66.64" width="0.47" height="6.79" transform="translate(-42.1 38.43) rotate(-45)"/><rect x="25.44" y="66.3" width="0.47" height="6.79" transform="translate(-41.76 38.57) rotate(-45)"/><rect x="25.78" y="65.97" width="0.47" height="6.79" transform="translate(-41.43 38.71) rotate(-45)"/><rect x="26.11" y="65.64" width="0.47" height="6.79" transform="translate(-41.1 38.85) rotate(-45)"/><rect x="26.44" y="65.31" width="0.47" height="6.79" transform="translate(-40.77 38.98) rotate(-45)"/><rect x="26.77" y="64.98" width="0.47" height="6.79" transform="translate(-40.44 39.12) rotate(-45)"/><polygon points="24.77 65.81 24.77 65.81 25.43 65.81 29.86 70.23 29.86 70.32 29.57 70.61 24.77 65.81"/><polygon points="26.09 65.81 29.86 69.57 29.86 70.23 25.43 65.81 26.09 65.81"/><polygon points="26.76 65.81 29.86 68.9 29.86 69.57 26.1 65.81 26.76 65.81"/><polygon points="27.42 65.81 29.86 68.24 29.86 68.9 26.76 65.81 27.42 65.81"/><polygon points="28.08 65.81 29.86 67.58 29.86 68.24 27.42 65.81 28.08 65.81"/><polygon points="28.75 65.81 29.86 66.92 29.86 67.58 28.09 65.81 28.75 65.81"/><polygon points="29.41 65.81 29.86 66.25 29.86 66.92 28.75 65.81 29.41 65.81"/><polygon points="29.86 66.25 29.41 65.81 29.86 65.81 29.86 66.25"/><polygon points="4.74 50.42 4.94 50.62 4.74 50.62 4.74 50.42"/><polygon points="4.74 49.76 5.6 50.62 4.94 50.62 4.74 50.42 4.74 49.76"/><polygon points="4.74 49.09 6.26 50.62 5.6 50.62 4.74 49.76 4.74 49.09"/><polygon points="4.74 48.43 6.93 50.62 6.26 50.62 4.74 49.09 4.74 48.43"/><polygon points="4.74 47.77 7.59 50.62 6.93 50.62 4.74 48.43 4.74 47.77"/><polygon points="4.74 47.1 8.25 50.62 7.59 50.62 4.74 47.77 4.74 47.1"/><polygon points="4.74 46.44 8.92 50.62 8.25 50.62 4.74 47.1 4.74 46.44"/><polygon points="4.74 45.78 9.58 50.62 8.92 50.62 4.74 46.44 4.74 45.78"/><polygon points="4.74 45.12 10.24 50.62 9.58 50.62 4.74 45.78 4.74 45.12"/><polygon points="4.74 44.45 10.91 50.62 10.24 50.62 4.74 45.12 4.74 44.45"/><polygon points="4.74 43.79 11.57 50.62 10.91 50.62 4.74 44.45 4.74 43.79"/><polygon points="4.74 43.13 12.21 50.6 12.19 50.62 11.57 50.62 4.74 43.79 4.74 43.13"/><polygon points="4.74 42.46 12.54 50.26 12.21 50.6 4.74 43.13 4.74 42.46"/><polygon points="4.74 41.8 12.87 49.93 12.54 50.27 4.74 42.46 4.74 41.8"/><polygon points="4.74 41.14 13.21 49.6 12.87 49.93 4.74 41.8 4.74 41.14"/><polygon points="4.74 40.47 13.54 49.27 13.21 49.6 4.74 41.14 4.74 40.47"/><polygon points="4.74 40.26 4.97 40.04 13.87 48.94 13.54 49.27 4.74 40.48 4.74 40.26"/><rect x="9.35" y="38.03" width="0.47" height="12.59" transform="translate(-28.53 19.76) rotate(-45)"/><rect x="9.68" y="37.7" width="0.47" height="12.59" transform="translate(-28.2 19.89) rotate(-45)"/><rect x="10.01" y="37.36" width="0.47" height="12.59" transform="translate(-27.87 20.03) rotate(-45)"/><rect x="10.34" y="37.03" width="0.47" height="12.59" transform="translate(-27.54 20.17) rotate(-45)"/><rect x="10.67" y="36.7" width="0.47" height="12.59" transform="translate(-27.21 20.31) rotate(-45)"/><rect x="11.01" y="36.37" width="0.47" height="12.59" transform="translate(-26.88 20.44) rotate(-45)"/><rect x="11.34" y="36.04" width="0.47" height="12.59" transform="translate(-26.54 20.58) rotate(-45)"/><rect x="11.67" y="35.71" width="0.47" height="12.59" transform="translate(-26.21 20.72) rotate(-45)"/><rect x="12" y="35.37" width="0.47" height="12.59" transform="translate(-25.88 20.86) rotate(-45)"/><rect x="12.33" y="35.04" width="0.47" height="12.59" transform="translate(-25.55 20.99) rotate(-45)"/><rect x="12.66" y="34.71" width="0.47" height="12.59" transform="translate(-25.22 21.13) rotate(-45)"/><rect x="12.99" y="34.38" width="0.47" height="12.59" transform="translate(-24.89 21.27) rotate(-45)"/><rect x="13.33" y="34.05" width="0.47" height="12.59" transform="translate(-24.56 21.41) rotate(-45)"/><rect x="13.66" y="33.72" width="0.47" height="12.59" transform="translate(-24.22 21.54) rotate(-45)"/><rect x="13.99" y="33.39" width="0.47" height="12.59" transform="translate(-23.89 21.68) rotate(-45)"/><rect x="14.32" y="33.05" width="0.47" height="12.59" transform="translate(-23.56 21.82) rotate(-45)"/><rect x="14.65" y="32.72" width="0.47" height="12.59" transform="translate(-23.23 21.95) rotate(-45)"/><rect x="14.98" y="32.39" width="0.47" height="12.59" transform="translate(-22.9 22.09) rotate(-45)"/><rect x="15.32" y="32.06" width="0.47" height="12.59" transform="translate(-22.57 22.23) rotate(-45)"/><rect x="15.65" y="31.73" width="0.47" height="12.59" transform="translate(-22.24 22.37) rotate(-45)"/><rect x="15.98" y="31.4" width="0.47" height="12.59" transform="translate(-21.9 22.5) rotate(-45)"/><rect x="16.31" y="31.07" width="0.47" height="12.59" transform="translate(-21.57 22.64) rotate(-45)"/><rect x="16.64" y="30.73" width="0.47" height="12.59" transform="translate(-21.24 22.78) rotate(-45)"/><rect x="16.97" y="30.4" width="0.47" height="12.59" transform="translate(-20.91 22.92) rotate(-45)"/><rect x="17.3" y="30.07" width="0.47" height="12.59" transform="translate(-20.58 23.05) rotate(-45)"/><rect x="17.64" y="29.74" width="0.47" height="12.59" transform="translate(-20.25 23.19) rotate(-45)"/><rect x="17.97" y="29.41" width="0.47" height="12.59" transform="translate(-19.91 23.33) rotate(-45)"/><rect x="18.3" y="29.08" width="0.47" height="12.59" transform="translate(-19.58 23.46) rotate(-45)"/><rect x="18.63" y="28.75" width="0.47" height="12.59" transform="translate(-19.25 23.6) rotate(-45)"/><rect x="18.96" y="28.41" width="0.47" height="12.59" transform="translate(-18.92 23.74) rotate(-45)"/><rect x="19.29" y="28.08" width="0.47" height="12.59" transform="translate(-18.59 23.88) rotate(-45)"/><rect x="19.62" y="27.75" width="0.47" height="12.59" transform="translate(-18.26 24.01) rotate(-45)"/><rect x="19.96" y="27.42" width="0.47" height="12.59" transform="translate(-17.93 24.15) rotate(-45)"/><rect x="20.29" y="27.09" width="0.47" height="12.59" transform="translate(-17.59 24.29) rotate(-45)"/><rect x="20.62" y="26.76" width="0.47" height="12.59" transform="translate(-17.26 24.43) rotate(-45)"/><rect x="20.95" y="26.42" width="0.47" height="12.59" transform="translate(-16.93 24.56) rotate(-45)"/><rect x="21.28" y="26.09" width="0.47" height="12.59" transform="translate(-16.6 24.7) rotate(-45)"/><rect x="21.61" y="25.76" width="0.47" height="12.59" transform="translate(-16.27 24.84) rotate(-45)"/><rect x="21.94" y="25.43" width="0.47" height="12.59" transform="translate(-15.94 24.98) rotate(-45)"/><rect x="22.28" y="25.1" width="0.47" height="12.59" transform="translate(-15.61 25.11) rotate(-45)"/><rect x="22.61" y="24.77" width="0.47" height="12.59" transform="translate(-15.27 25.25) rotate(-45)"/><rect x="22.94" y="24.44" width="0.47" height="12.59" transform="translate(-14.94 25.39) rotate(-45)"/><rect x="23.27" y="24.1" width="0.47" height="12.59" transform="translate(-14.61 25.52) rotate(-45)"/><rect x="23.6" y="23.77" width="0.47" height="12.59" transform="translate(-14.28 25.66) rotate(-45)"/><rect x="23.93" y="23.44" width="0.47" height="12.59" transform="translate(-13.95 25.8) rotate(-45)"/><polygon points="19.88 25.12 20.21 24.79 28.85 33.42 28.85 33.96 28.79 34.02 19.88 25.12"/><polygon points="20.21 24.79 20.38 24.62 20.71 24.62 28.85 32.76 28.85 33.42 20.21 24.79"/><polygon points="21.37 24.62 28.85 32.1 28.85 32.76 20.71 24.62 21.37 24.62"/><polygon points="22.03 24.62 28.85 31.43 28.85 32.1 21.37 24.62 22.03 24.62"/><polygon points="22.7 24.62 28.85 30.77 28.85 31.43 22.03 24.62 22.7 24.62"/><polygon points="23.36 24.62 28.85 30.11 28.85 30.77 22.7 24.62 23.36 24.62"/><polygon points="24.02 24.62 28.85 29.45 28.85 30.11 23.36 24.62 24.02 24.62"/><polygon points="24.68 24.62 28.85 28.78 28.85 29.45 24.02 24.62 24.68 24.62"/><polygon points="25.35 24.62 28.85 28.12 28.85 28.78 24.68 24.62 25.35 24.62"/><polygon points="26.01 24.62 28.85 27.46 28.85 28.12 25.35 24.62 26.01 24.62"/><polygon points="26.67 24.62 28.85 26.79 28.85 27.46 26.01 24.62 26.67 24.62"/><polygon points="27.34 24.62 28.85 26.13 28.85 26.79 26.67 24.62 27.34 24.62"/><polygon points="28 24.62 28.85 25.47 28.85 26.13 27.34 24.62 28 24.62"/><polygon points="28.66 24.62 28.85 24.8 28.85 25.47 28 24.62 28.66 24.62"/><polygon points="28.85 24.8 28.66 24.62 28.85 24.62 28.85 24.8"/><polygon points="-0.16 98.55 0.56 99.27 -0.11 99.27 -0.16 99.22 -0.16 98.55"/><polygon points="-0.16 97.89 1.22 99.27 0.56 99.27 -0.16 98.55 -0.16 97.89"/><polygon points="-0.16 97.23 1.88 99.27 1.22 99.27 -0.16 97.89 -0.16 97.23"/><polygon points="-0.16 96.56 2.54 99.27 1.88 99.27 -0.16 97.23 -0.16 96.56"/><polygon points="-0.16 95.9 3.21 99.27 2.54 99.27 -0.16 96.56 -0.16 95.9"/><polygon points="-0.16 95.24 3.87 99.27 3.21 99.27 -0.16 95.9 -0.16 95.24"/><polygon points="-0.16 94.57 4.53 99.27 3.87 99.27 -0.16 95.24 -0.16 94.57"/><polygon points="-0.16 93.91 5.2 99.27 4.53 99.27 -0.16 94.57 -0.16 93.91"/><polygon points="-0.16 93.25 5.86 99.27 5.2 99.27 -0.16 93.91 -0.16 93.25"/><polygon points="-0.16 92.59 6.52 99.27 5.86 99.27 -0.16 93.25 -0.16 92.59"/><polygon points="-0.16 91.92 7.19 99.27 6.52 99.27 -0.16 92.58 -0.16 91.92"/><polygon points="-0.16 91.26 7.85 99.27 7.19 99.27 -0.16 91.92 -0.16 91.26"/><polygon points="-0.16 90.6 8.51 99.27 7.85 99.27 -0.16 91.26 -0.16 90.6"/><polygon points="-0.16 89.93 9.18 99.27 8.51 99.27 -0.16 90.6 -0.16 89.93"/><polygon points="-0.16 89.27 9.84 99.27 9.18 99.27 -0.16 89.93 -0.16 89.27"/><polygon points="-0.16 88.61 10.5 99.27 9.84 99.27 -0.16 89.27 -0.16 88.61"/><polygon points="-0.16 87.94 11.16 99.27 10.5 99.27 -0.16 88.61 -0.16 87.94"/><polygon points="-0.16 87.28 11.83 99.27 11.16 99.27 -0.16 87.94 -0.16 87.28"/><polygon points="-0.16 86.62 12.49 99.27 11.83 99.27 -0.16 87.28 -0.16 86.62"/><polygon points="-0.16 85.96 13.15 99.27 12.49 99.27 -0.16 86.62 -0.16 85.96"/><polygon points="-0.16 85.29 13.82 99.27 13.15 99.27 -0.16 85.95 -0.16 85.29"/><polygon points="-0.16 84.63 14.48 99.27 13.82 99.27 -0.16 85.29 -0.16 84.63"/><polygon points="-0.16 83.97 15.14 99.27 14.48 99.27 -0.16 84.63 -0.16 83.97"/><polygon points="-0.16 83.3 15.8 99.27 15.14 99.27 -0.16 83.97 -0.16 83.3"/><polygon points="-0.16 82.64 16.47 99.27 15.8 99.27 -0.16 83.3 -0.16 82.64"/><polygon points="-0.16 81.98 17.13 99.27 16.47 99.27 -0.16 82.64 -0.16 81.98"/><polygon points="-0.16 81.31 17.79 99.27 17.13 99.27 -0.16 81.98 -0.16 81.31"/><polygon points="-0.16 80.65 18.46 99.27 17.79 99.27 -0.16 81.31 -0.16 80.65"/><polygon points="-0.16 79.99 19.12 99.27 18.46 99.27 -0.16 80.65 -0.16 79.99"/><polygon points="-0.16 79.33 19.78 99.27 19.12 99.27 -0.16 79.99 -0.16 79.33"/><polygon points="-0.16 78.66 20.45 99.27 19.78 99.27 -0.16 79.33 -0.16 78.66"/><polygon points="-0.16 78 21.11 99.27 20.45 99.27 -0.16 78.66 -0.16 78"/><polygon points="-0.16 77.34 21.77 99.27 21.11 99.27 -0.16 78 -0.16 77.34"/><polygon points="-0.16 76.67 22.43 99.27 21.77 99.27 -0.16 77.34 -0.16 76.67"/><polygon points="-0.16 76.01 23.1 99.27 22.43 99.27 -0.16 76.67 -0.16 76.01"/><polygon points="-0.16 75.35 23.76 99.27 23.1 99.27 -0.16 76.01 -0.16 75.35"/><polygon points="-0.16 74.69 24.42 99.27 23.76 99.27 -0.16 75.35 -0.16 74.69"/><polygon points="-0.16 74.02 25.09 99.27 24.42 99.27 -0.16 74.69 -0.16 74.02"/><polygon points="-0.16 73.36 25.75 99.27 25.09 99.27 -0.16 74.02 -0.16 73.36"/><polygon points="-0.16 72.7 26.41 99.27 25.75 99.27 -0.16 73.36 -0.16 72.7"/><polygon points="-0.16 72.03 27.07 99.27 26.41 99.27 -0.16 72.7 -0.16 72.03"/><polygon points="-0.16 71.37 27.74 99.27 27.07 99.27 -0.16 72.03 -0.16 71.37"/><polygon points="-0.16 70.71 28.4 99.27 27.74 99.27 -0.16 71.37 -0.16 70.71"/><polygon points="-0.16 70.05 29.06 99.27 28.4 99.27 -0.16 70.71 -0.16 70.05"/><polygon points="-0.16 69.38 29.73 99.27 29.06 99.27 -0.16 70.04 -0.16 69.38"/><polygon points="-0.16 68.72 30.39 99.27 29.73 99.27 -0.16 69.38 -0.16 68.72"/><polygon points="-0.16 68.06 31.05 99.27 30.39 99.27 -0.16 68.72 -0.16 68.06"/><polygon points="-0.16 67.39 31.72 99.27 31.05 99.27 -0.16 68.06 -0.16 67.39"/><polygon points="-0.16 66.73 32.38 99.27 31.72 99.27 -0.16 67.39 -0.16 66.73"/><polygon points="-0.16 66.07 33.04 99.27 32.38 99.27 -0.16 66.73 -0.16 66.07"/><polygon points="-0.16 65.4 33.7 99.27 33.04 99.27 -0.16 66.07 -0.16 65.4"/><polygon points="-0.16 64.74 34.37 99.27 33.7 99.27 -0.16 65.4 -0.16 64.74"/><polygon points="-0.16 64.08 35.03 99.27 34.37 99.27 -0.16 64.74 -0.16 64.08"/><polygon points="-0.16 63.41 35.69 99.27 35.03 99.27 -0.16 64.08 -0.16 63.41"/><polygon points="-0.16 62.75 36.36 99.27 35.69 99.27 -0.16 63.41 -0.16 62.75"/><polygon points="-0.16 62.09 37.02 99.27 36.36 99.27 -0.16 62.75 -0.16 62.09"/><polygon points="-0.16 61.43 37.68 99.27 37.02 99.27 -0.16 62.09 -0.16 61.43"/><polygon points="-0.16 60.76 38.35 99.27 37.68 99.27 -0.16 61.42 -0.16 60.76"/><polygon points="-0.16 60.1 39.01 99.27 38.35 99.27 -0.16 60.76 -0.16 60.1"/><polygon points="-0.16 59.44 39.67 99.27 39.01 99.27 -0.16 60.1 -0.16 59.44"/><polygon points="-0.16 58.77 40.34 99.27 39.67 99.27 -0.16 59.44 -0.16 58.77"/><polygon points="-0.16 58.11 41 99.27 40.34 99.27 -0.16 58.77 -0.16 58.11"/><polygon points="-0.16 57.45 41.66 99.27 41 99.27 -0.16 58.11 -0.16 57.45"/><polygon points="-0.16 56.78 42.32 99.27 41.66 99.27 -0.16 57.45 -0.16 56.78"/><polygon points="-0.16 56.12 42.99 99.27 42.32 99.27 -0.16 56.78 -0.16 56.12"/><polygon points="-0.16 55.46 43.65 99.27 42.99 99.27 -0.16 56.12 -0.16 55.46"/><polygon points="-0.16 54.8 44.31 99.27 43.65 99.27 -0.16 55.46 -0.16 54.8"/><polygon points="-0.16 54.13 44.98 99.27 44.31 99.27 -0.16 54.8 -0.16 54.13"/><polygon points="-0.16 53.47 45.64 99.27 44.98 99.27 -0.16 54.13 -0.16 53.47"/><polygon points="-0.16 52.81 46.3 99.27 45.64 99.27 -0.16 53.47 -0.16 52.81"/><polygon points="-0.16 52.14 46.97 99.27 46.3 99.27 -0.16 52.81 -0.16 52.14"/><polygon points="-0.16 51.48 47.63 99.27 46.97 99.27 -0.16 52.14 -0.16 51.48"/><polygon points="-0.16 50.82 48.29 99.27 47.63 99.27 -0.16 51.48 -0.16 50.82"/><polygon points="-0.16 50.16 48.95 99.27 48.29 99.27 -0.16 50.82 -0.16 50.16"/><polygon points="-0.16 49.49 49.62 99.27 48.95 99.27 -0.16 50.16 -0.16 49.49"/><polygon points="-0.16 48.83 50.28 99.27 49.62 99.27 -0.16 49.49 -0.16 48.83"/><polygon points="-0.16 48.17 50.94 99.27 50.28 99.27 -0.16 48.83 -0.16 48.17"/><polygon points="-0.16 47.5 51.6 99.27 50.94 99.27 -0.16 48.17 -0.16 47.5"/><polygon points="-0.16 46.84 52.27 99.27 51.6 99.27 -0.16 47.5 -0.16 46.84"/><polygon points="-0.16 46.18 52.93 99.27 52.27 99.27 -0.16 46.84 -0.16 46.18"/><polygon points="-0.16 45.51 53.59 99.27 52.93 99.27 -0.16 46.18 -0.16 45.51"/><polygon points="-0.16 44.85 54.26 99.27 53.59 99.27 -0.16 45.51 -0.16 44.85"/><polygon points="-0.16 44.19 54.92 99.27 54.26 99.27 -0.16 44.85 -0.16 44.19"/><polygon points="-0.16 43.52 55.58 99.27 54.92 99.27 -0.16 44.19 -0.16 43.52"/><polygon points="-0.16 42.86 56.24 99.27 55.58 99.27 -0.16 43.52 -0.16 42.86"/><polygon points="-0.16 42.2 56.91 99.27 56.24 99.27 -0.16 42.86 -0.16 42.2"/><polygon points="-0.16 41.54 57.57 99.27 56.91 99.27 -0.16 42.2 -0.16 41.54"/><polygon points="-0.16 40.87 58.23 99.27 57.57 99.27 -0.16 41.54 -0.16 40.87"/><polygon points="-0.16 40.21 58.9 99.27 58.23 99.27 -0.16 40.87 -0.16 40.21"/><polygon points="-0.16 39.55 59.34 99.06 59.13 99.27 58.9 99.27 -0.16 40.21 -0.16 39.55"/><polygon points="-0.16 39.25 0.02 39.06 59.68 98.72 59.34 99.06 -0.16 39.55 -0.16 39.25"/><rect x="29.78" y="26.54" width="0.47" height="84.37" transform="translate(-39.81 41.35) rotate(-45)"/><rect x="30.11" y="26.21" width="0.47" height="84.37" transform="translate(-39.48 41.49) rotate(-45)"/><rect x="30.44" y="25.88" width="0.47" height="84.37" transform="translate(-39.15 41.63) rotate(-45)"/><rect x="30.77" y="25.55" width="0.47" height="84.37" transform="translate(-38.81 41.76) rotate(-45)"/><rect x="31.1" y="25.22" width="0.47" height="84.37" transform="translate(-38.48 41.9) rotate(-45)"/><rect x="31.44" y="24.89" width="0.47" height="84.37" transform="translate(-38.15 42.04) rotate(-45)"/><rect x="31.77" y="24.55" width="0.47" height="84.37" transform="translate(-37.82 42.18) rotate(-45)"/><rect x="32.1" y="24.22" width="0.47" height="84.37" transform="translate(-37.49 42.31) rotate(-45)"/><rect x="32.43" y="23.89" width="0.47" height="84.37" transform="translate(-37.16 42.45) rotate(-45)"/><rect x="32.76" y="23.56" width="0.47" height="84.37" transform="translate(-36.82 42.59) rotate(-45)"/><rect x="33.09" y="23.23" width="0.47" height="84.37" transform="translate(-36.49 42.73) rotate(-45)"/><rect x="33.42" y="22.9" width="0.47" height="84.37" transform="translate(-36.16 42.86) rotate(-45)"/><rect x="33.76" y="22.57" width="0.47" height="84.37" transform="translate(-35.83 43) rotate(-45)"/><rect x="34.09" y="22.23" width="0.47" height="84.37" transform="translate(-35.5 43.14) rotate(-45)"/><rect x="34.42" y="21.9" width="0.47" height="84.37" transform="translate(-35.17 43.27) rotate(-45)"/><rect x="34.75" y="21.57" width="0.47" height="84.37" transform="translate(-34.84 43.41) rotate(-45)"/><rect x="35.08" y="21.24" width="0.47" height="84.37" transform="translate(-34.5 43.55) rotate(-45)"/><rect x="35.41" y="20.91" width="0.47" height="84.37" transform="translate(-34.17 43.69) rotate(-45)"/><rect x="35.74" y="20.58" width="0.47" height="84.37" transform="translate(-33.84 43.82) rotate(-45)"/><rect x="36.08" y="20.25" width="0.47" height="84.37" transform="translate(-33.51 43.96) rotate(-45)"/><rect x="36.41" y="19.91" width="0.47" height="84.37" transform="translate(-33.18 44.1) rotate(-45)"/><rect x="36.74" y="19.58" width="0.47" height="84.37" transform="translate(-32.85 44.24) rotate(-45)"/><rect x="37.07" y="19.25" width="0.47" height="84.37" transform="translate(-32.52 44.37) rotate(-45)"/><rect x="37.4" y="18.92" width="0.47" height="84.37" transform="translate(-32.18 44.51) rotate(-45)"/><rect x="37.73" y="18.59" width="0.47" height="84.37" transform="translate(-31.85 44.65) rotate(-45)"/><rect x="38.06" y="18.26" width="0.47" height="84.37" transform="translate(-31.52 44.78) rotate(-45)"/><rect x="38.4" y="17.92" width="0.47" height="84.37" transform="translate(-31.19 44.92) rotate(-45)"/><rect x="38.73" y="17.59" width="0.47" height="84.37" transform="translate(-30.86 45.06) rotate(-45)"/><rect x="39.06" y="17.26" width="0.47" height="84.37" transform="translate(-30.53 45.2) rotate(-45)"/><rect x="39.39" y="16.93" width="0.47" height="84.37" transform="translate(-30.2 45.33) rotate(-45)"/><rect x="39.72" y="16.6" width="0.47" height="84.37" transform="translate(-29.86 45.47) rotate(-45)"/><rect x="40.05" y="16.27" width="0.47" height="84.37" transform="translate(-29.53 45.61) rotate(-45)"/><rect x="40.39" y="15.94" width="0.47" height="84.37" transform="translate(-29.2 45.75) rotate(-45)"/><rect x="40.72" y="15.6" width="0.47" height="84.37" transform="translate(-28.87 45.88) rotate(-45)"/><rect x="41.05" y="15.27" width="0.47" height="84.37" transform="translate(-28.54 46.02) rotate(-45)"/><rect x="41.38" y="14.94" width="0.47" height="84.37" transform="translate(-28.21 46.16) rotate(-45)"/><rect x="41.71" y="14.61" width="0.47" height="84.37" transform="translate(-27.87 46.29) rotate(-45)"/><rect x="42.04" y="14.28" width="0.47" height="84.37" transform="translate(-27.54 46.43) rotate(-45)"/><rect x="42.37" y="13.95" width="0.47" height="84.37" transform="translate(-27.21 46.57) rotate(-45)"/><rect x="42.71" y="13.62" width="0.47" height="84.37" transform="translate(-26.88 46.71) rotate(-45)"/><rect x="43.04" y="13.28" width="0.47" height="84.37" transform="translate(-26.55 46.84) rotate(-45)"/><rect x="43.37" y="12.95" width="0.47" height="84.37" transform="translate(-26.22 46.98) rotate(-45)"/><rect x="43.7" y="12.62" width="0.47" height="84.37" transform="translate(-25.89 47.12) rotate(-45)"/><rect x="44.03" y="12.29" width="0.47" height="84.37" transform="translate(-25.55 47.26) rotate(-45)"/><rect x="44.36" y="11.96" width="0.47" height="84.37" transform="translate(-25.22 47.39) rotate(-45)"/><rect x="44.69" y="11.63" width="0.47" height="84.37" transform="translate(-24.89 47.53) rotate(-45)"/><rect x="45.03" y="11.3" width="0.47" height="84.37" transform="translate(-24.56 47.67) rotate(-45)"/><rect x="45.36" y="10.96" width="0.47" height="84.37" transform="translate(-24.23 47.81) rotate(-45)"/><rect x="45.69" y="10.63" width="0.47" height="84.37" transform="translate(-23.9 47.94) rotate(-45)"/><rect x="46.02" y="10.3" width="0.47" height="84.37" transform="translate(-23.57 48.08) rotate(-45)"/><rect x="46.35" y="9.97" width="0.47" height="84.37" transform="translate(-23.23 48.22) rotate(-45)"/><rect x="46.68" y="9.64" width="0.47" height="84.37" transform="translate(-22.9 48.35) rotate(-45)"/><rect x="47.02" y="9.31" width="0.47" height="84.37" transform="translate(-22.57 48.49) rotate(-45)"/><rect x="47.35" y="8.97" width="0.47" height="84.37" transform="translate(-22.24 48.63) rotate(-45)"/><rect x="47.68" y="8.64" width="0.47" height="84.37" transform="translate(-21.91 48.77) rotate(-45)"/><rect x="48.01" y="8.31" width="0.47" height="84.37" transform="translate(-21.58 48.9) rotate(-45)"/><rect x="48.34" y="7.98" width="0.47" height="84.37" transform="translate(-21.25 49.04) rotate(-45)"/><rect x="48.67" y="7.65" width="0.47" height="84.37" transform="translate(-20.91 49.18) rotate(-45)"/><polygon points="19.24 19.84 19.25 19.83 19.9 19.83 79.23 79.17 78.9 79.5 19.24 19.84"/><polygon points="20.56 19.83 79.57 78.84 79.23 79.17 19.9 19.83 20.56 19.83"/><polygon points="21.22 19.83 79.9 78.5 79.57 78.84 20.56 19.83 21.22 19.83"/><polygon points="21.89 19.83 80.23 78.17 79.9 78.5 21.22 19.83 21.89 19.83"/><polygon points="22.55 19.83 80.56 77.84 80.23 78.17 21.89 19.83 22.55 19.83"/><polygon points="23.21 19.83 80.89 77.51 80.56 77.84 22.55 19.83 23.21 19.83"/><polygon points="23.88 19.83 81.22 77.18 80.89 77.51 23.21 19.83 23.88 19.83"/><polygon points="24.54 19.83 81.55 76.85 81.22 77.18 23.88 19.83 24.54 19.83"/><polygon points="25.2 19.83 81.89 76.52 81.56 76.85 24.54 19.83 25.2 19.83"/><polygon points="25.86 19.83 82.22 76.18 81.89 76.52 25.2 19.83 25.86 19.83"/><polygon points="26.53 19.83 82.55 75.85 82.22 76.18 25.86 19.83 26.53 19.83"/><polygon points="27.19 19.83 82.88 75.52 82.55 75.85 26.53 19.83 27.19 19.83"/><polygon points="27.85 19.83 83.21 75.19 82.88 75.52 27.19 19.83 27.85 19.83"/><polygon points="28.52 19.83 83.54 74.86 83.21 75.19 27.85 19.83 28.52 19.83"/><polygon points="29.18 19.83 83.87 74.53 83.54 74.86 28.52 19.83 29.18 19.83"/><polygon points="29.84 19.83 84.21 74.19 83.88 74.53 29.18 19.83 29.84 19.83"/><polygon points="30.5 19.83 84.54 73.86 84.21 74.19 29.84 19.83 30.5 19.83"/><polygon points="31.17 19.83 84.87 73.53 84.54 73.86 30.5 19.83 31.17 19.83"/><polygon points="31.83 19.83 85.2 73.2 84.87 73.53 31.17 19.83 31.83 19.83"/><polygon points="32.49 19.83 85.53 72.87 85.2 73.2 31.83 19.83 32.49 19.83"/><polygon points="33.16 19.83 85.86 72.54 85.53 72.87 32.49 19.83 33.16 19.83"/><polygon points="33.82 19.83 86.2 72.21 85.86 72.54 33.16 19.83 33.82 19.83"/><polygon points="34.48 19.83 86.53 71.87 86.19 72.21 33.82 19.83 34.48 19.83"/><polygon points="35.15 19.83 86.86 71.54 86.53 71.87 34.48 19.83 35.15 19.83"/><polygon points="35.81 19.83 87.19 71.21 86.86 71.54 35.15 19.83 35.81 19.83"/><polygon points="36.47 19.83 87.52 70.88 87.19 71.21 35.81 19.83 36.47 19.83"/><polygon points="37.13 19.83 87.85 70.55 87.52 70.88 36.47 19.83 37.13 19.83"/><polygon points="37.8 19.83 88.19 70.22 87.85 70.55 37.13 19.83 37.8 19.83"/><polygon points="38.46 19.83 88.52 69.89 88.18 70.22 37.8 19.83 38.46 19.83"/><polygon points="39.12 19.83 88.85 69.55 88.52 69.89 38.46 19.83 39.12 19.83"/><polygon points="39.79 19.83 89.18 69.22 88.85 69.55 39.12 19.83 39.79 19.83"/><polygon points="40.45 19.83 89.51 68.89 89.18 69.22 39.79 19.83 40.45 19.83"/><polygon points="41.11 19.83 89.84 68.56 89.51 68.89 40.45 19.83 41.11 19.83"/><polygon points="41.77 19.83 90.17 68.23 89.84 68.56 41.11 19.83 41.77 19.83"/><polygon points="42.44 19.83 90.5 67.9 90.17 68.23 41.78 19.83 42.44 19.83"/><polygon points="43.1 19.83 90.83 67.56 90.5 67.9 42.44 19.83 43.1 19.83"/><polygon points="43.76 19.83 91.17 67.23 90.84 67.56 43.1 19.83 43.76 19.83"/><polygon points="44.43 19.83 91.5 66.9 91.17 67.23 43.77 19.83 44.43 19.83"/><polygon points="45.09 19.83 91.83 66.57 91.5 66.9 44.43 19.83 45.09 19.83"/><polygon points="45.75 19.83 92.16 66.24 91.83 66.57 45.09 19.83 45.75 19.83"/><polygon points="46.42 19.83 92.49 65.91 92.16 66.24 45.75 19.83 46.42 19.83"/><polygon points="47.08 19.83 92.82 65.58 92.49 65.91 46.42 19.83 47.08 19.83"/><polygon points="47.74 19.83 93.16 65.25 92.83 65.58 47.08 19.83 47.74 19.83"/><polygon points="48.41 19.83 93.49 64.91 93.16 65.25 47.74 19.83 48.41 19.83"/><polygon points="49.07 19.83 93.82 64.58 93.49 64.91 48.41 19.83 49.07 19.83"/><polygon points="49.73 19.83 94.15 64.25 93.82 64.58 49.07 19.83 49.73 19.83"/><polygon points="50.39 19.83 94.48 63.92 94.15 64.25 49.73 19.83 50.39 19.83"/><polygon points="51.06 19.83 94.81 63.59 94.48 63.92 50.4 19.83 51.06 19.83"/><polygon points="51.72 19.83 95.15 63.26 94.81 63.59 51.06 19.83 51.72 19.83"/><polygon points="52.38 19.83 95.48 62.92 95.15 63.26 51.72 19.83 52.38 19.83"/><polygon points="53.05 19.83 95.81 62.59 95.48 62.92 52.38 19.83 53.05 19.83"/><polygon points="53.71 19.83 96.14 62.26 95.81 62.59 53.05 19.83 53.71 19.83"/><polygon points="62.05 19.83 100.16 57.95 100.16 58.24 96.14 62.26 53.71 19.83 62.05 19.83"/><polygon points="70.39 19.83 100.16 49.61 100.16 57.95 62.05 19.83 70.39 19.83"/><polygon points="78.72 19.83 100.16 41.27 100.16 49.61 70.39 19.83 78.72 19.83"/><polygon points="87.06 19.83 100.16 32.93 100.16 41.27 78.72 19.83 87.06 19.83"/><polygon points="95.4 19.83 100.16 24.59 100.16 32.93 87.06 19.83 95.4 19.83"/><polygon points="100.16 24.59 95.4 19.83 100.16 19.83 100.16 24.59"/></g><path d="M72.56,6.84,59.19,20.22A2,2,0,0,0,62,23L75.33,9.61a2,2,0,0,0-2.77-2.77"/><g class="cls-2"><polygon points="58.42 23.36 58.62 23.56 58.42 23.56 58.42 23.36"/><polygon points="58.42 20.43 61.11 17.74 64.43 21.06 61.94 23.56 58.62 23.56 58.42 23.36 58.42 20.43"/><rect x="61.91" y="14.97" width="5.88" height="4.7" transform="translate(6.74 50.93) rotate(-45)"/><rect x="66.07" y="10.82" width="5.88" height="4.7" transform="translate(10.9 52.65) rotate(-45)"/><polygon points="69.42 9.43 72.77 6.08 74.38 6.08 76.1 7.79 76.1 9.4 72.74 12.75 69.42 9.43"/><polygon points="76.1 7.79 74.38 6.08 76.1 6.08 76.1 7.79"/></g><path d="M24.67,6.84a2,2,0,0,0,0,2.77L38.05,23a2,2,0,0,0,2.76-2.77L27.44,6.84a2,2,0,0,0-2.77,0"/><g class="cls-3"><polygon points="23.91 23.13 24.34 23.56 23.91 23.56 23.91 23.13"/><polygon points="23.91 22.6 24.87 23.56 24.34 23.56 23.91 23.13 23.91 22.6"/><polygon points="23.91 22.07 25.4 23.56 24.87 23.56 23.91 22.6 23.91 22.07"/><polygon points="23.91 21.54 25.93 23.56 25.4 23.56 23.91 22.07 23.91 21.54"/><polygon points="23.91 21.01 26.45 23.56 25.93 23.56 23.91 21.54 23.91 21.01"/><polygon points="23.91 20.48 26.98 23.56 26.45 23.56 23.91 21.01 23.91 20.48"/><polygon points="23.91 19.95 27.51 23.56 26.98 23.56 23.91 20.48 23.91 19.95"/><polygon points="23.91 19.43 28.04 23.56 27.51 23.56 23.91 19.95 23.91 19.43"/><polygon points="23.91 18.9 28.57 23.56 28.04 23.56 23.91 19.43 23.91 18.9"/><polygon points="23.91 18.37 29.1 23.56 28.57 23.56 23.91 18.9 23.91 18.37"/><polygon points="23.91 17.84 29.63 23.56 29.1 23.56 23.91 18.37 23.91 17.84"/><polygon points="23.91 17.31 30.16 23.56 29.63 23.56 23.91 17.84 23.91 17.31"/><polygon points="23.91 16.78 30.68 23.56 30.16 23.56 23.91 17.31 23.91 16.78"/><polygon points="23.91 16.25 31.21 23.56 30.68 23.56 23.91 16.78 23.91 16.25"/><polygon points="23.91 15.72 31.74 23.56 31.21 23.56 23.91 16.25 23.91 15.72"/><polygon points="23.91 15.2 32.27 23.56 31.74 23.56 23.91 15.72 23.91 15.2"/><polygon points="23.91 14.67 32.8 23.56 32.27 23.56 23.91 15.2 23.91 14.67"/><polygon points="23.91 14.14 33.33 23.56 32.8 23.56 23.91 14.67 23.91 14.14"/><polygon points="23.91 13.61 33.86 23.56 33.33 23.56 23.91 14.14 23.91 13.61"/><polygon points="23.91 13.08 34.39 23.56 33.86 23.56 23.91 13.61 23.91 13.08"/><polygon points="23.91 12.55 34.91 23.56 34.39 23.56 23.91 13.08 23.91 12.55"/><polygon points="23.91 12.02 35.44 23.56 34.91 23.56 23.91 12.55 23.91 12.02"/><polygon points="23.91 11.49 35.97 23.56 35.44 23.56 23.91 12.02 23.91 11.49"/><polygon points="23.91 10.96 36.5 23.56 35.97 23.56 23.91 11.49 23.91 10.96"/><polygon points="23.91 10.44 37.03 23.56 36.5 23.56 23.91 10.97 23.91 10.44"/><polygon points="23.91 9.91 37.56 23.56 37.03 23.56 23.91 10.44 23.91 9.91"/><polygon points="23.91 9.38 38.09 23.56 37.56 23.56 23.91 9.91 23.91 9.38"/><polygon points="23.91 8.85 38.62 23.56 38.09 23.56 23.91 9.38 23.91 8.85"/><polygon points="23.91 8.32 39.14 23.56 38.62 23.56 23.91 8.85 23.91 8.32"/><polygon points="23.91 7.79 39.67 23.56 39.14 23.56 23.91 8.32 23.91 7.79"/><polygon points="23.91 7.26 40.2 23.56 39.67 23.56 23.91 7.79 23.91 7.26"/><polygon points="23.91 7.05 24.07 6.89 40.73 23.56 40.2 23.56 23.91 7.26 23.91 7.05"/><polygon points="24.06 6.89 24.33 6.63 41.03 23.33 40.8 23.56 40.73 23.56 24.06 6.89"/><rect x="32.62" y="3.04" width="0.37" height="23.62" transform="translate(-0.89 27.55) rotate(-45)"/><rect x="32.89" y="2.77" width="0.37" height="23.62" transform="translate(-0.62 27.66) rotate(-45)"/><polygon points="24.86 6.1 24.88 6.08 25.36 6.08 41.58 22.3 41.58 22.77 41.56 22.8 24.86 6.1"/><polygon points="25.89 6.08 41.58 21.77 41.58 22.3 25.36 6.08 25.89 6.08"/><polygon points="26.42 6.08 41.58 21.24 41.58 21.77 25.89 6.08 26.42 6.08"/><polygon points="26.95 6.08 41.58 20.71 41.58 21.24 26.42 6.08 26.95 6.08"/><polygon points="27.48 6.08 41.58 20.18 41.58 20.71 26.95 6.08 27.48 6.08"/><polygon points="28 6.08 41.58 19.65 41.58 20.18 27.48 6.08 28 6.08"/><polygon points="28.53 6.08 41.58 19.12 41.58 19.65 28 6.08 28.53 6.08"/><polygon points="29.06 6.08 41.58 18.59 41.58 19.12 28.53 6.08 29.06 6.08"/><polygon points="29.59 6.08 41.58 18.07 41.58 18.59 29.06 6.08 29.59 6.08"/><polygon points="30.12 6.08 41.58 17.54 41.58 18.07 29.59 6.08 30.12 6.08"/><polygon points="30.65 6.08 41.58 17.01 41.58 17.54 30.12 6.08 30.65 6.08"/><polygon points="31.18 6.08 41.58 16.48 41.58 17.01 30.65 6.08 31.18 6.08"/><polygon points="31.7 6.08 41.58 15.95 41.58 16.48 31.18 6.08 31.7 6.08"/><polygon points="32.23 6.08 41.58 15.42 41.58 15.95 31.7 6.08 32.23 6.08"/><polygon points="32.76 6.08 41.58 14.89 41.58 15.42 32.23 6.08 32.76 6.08"/><polygon points="33.29 6.08 41.58 14.37 41.58 14.89 32.76 6.08 33.29 6.08"/><polygon points="33.82 6.08 41.58 13.84 41.58 14.37 33.29 6.08 33.82 6.08"/><polygon points="34.35 6.08 41.58 13.31 41.58 13.84 33.82 6.08 34.35 6.08"/><polygon points="34.88 6.08 41.58 12.78 41.58 13.31 34.35 6.08 34.88 6.08"/><polygon points="35.41 6.08 41.58 12.25 41.58 12.78 34.88 6.08 35.41 6.08"/><polygon points="35.94 6.08 41.58 11.72 41.58 12.25 35.41 6.08 35.94 6.08"/><polygon points="36.46 6.08 41.58 11.19 41.58 11.72 35.94 6.08 36.46 6.08"/><polygon points="36.99 6.08 41.58 10.67 41.58 11.19 36.46 6.08 36.99 6.08"/><polygon points="37.52 6.08 41.58 10.14 41.58 10.67 36.99 6.08 37.52 6.08"/><polygon points="38.05 6.08 41.58 9.61 41.58 10.14 37.52 6.08 38.05 6.08"/><polygon points="38.58 6.08 41.58 9.08 41.58 9.61 38.05 6.08 38.58 6.08"/><polygon points="39.11 6.08 41.58 8.55 41.58 9.08 38.58 6.08 39.11 6.08"/><polygon points="41.58 8.55 39.11 6.08 41.58 6.08 41.58 8.55"/></g><path d="M48,10.53V21.6a2,2,0,0,0,3.92,0V10.53a2,2,0,0,0-3.92,0"/><g class="cls-4"><polygon points="48.04 23.04 48.57 23.56 48.04 23.56 48.04 23.04"/><polygon points="48.04 22.35 49.25 23.56 48.57 23.56 48.04 23.04 48.04 22.35"/><polygon points="48.04 21.67 49.94 23.56 49.25 23.56 48.04 22.35 48.04 21.67"/><polygon points="48.04 20.98 50.62 23.56 49.94 23.56 48.04 21.67 48.04 20.98"/><polygon points="48.04 20.3 51.3 23.56 50.62 23.56 48.04 20.98 48.04 20.3"/><polygon points="48.04 19.61 51.81 23.38 51.63 23.56 51.3 23.56 48.04 20.3 48.04 19.61"/><polygon points="48.04 18.93 51.96 22.85 51.96 23.24 51.81 23.38 48.04 19.61 48.04 18.93"/><polygon points="48.04 18.25 51.96 22.16 51.96 22.85 48.04 18.93 48.04 18.25"/><polygon points="48.04 17.56 51.96 21.48 51.96 22.16 48.04 18.25 48.04 17.56"/><polygon points="48.04 16.88 51.96 20.8 51.96 21.48 48.04 17.56 48.04 16.88"/><polygon points="48.04 16.19 51.96 20.11 51.96 20.8 48.04 16.88 48.04 16.19"/><polygon points="48.04 15.51 51.96 19.43 51.96 20.11 48.04 16.19 48.04 15.51"/><polygon points="48.04 14.83 51.96 18.74 51.96 19.43 48.04 15.51 48.04 14.83"/><polygon points="48.04 14.14 51.96 18.06 51.96 18.74 48.04 14.83 48.04 14.14"/><polygon points="48.04 13.46 51.96 17.37 51.96 18.06 48.04 14.14 48.04 13.46"/><polygon points="48.04 12.77 51.96 16.69 51.96 17.37 48.04 13.46 48.04 12.77"/><polygon points="48.04 12.09 51.96 16.01 51.96 16.69 48.04 12.77 48.04 12.09"/><polygon points="48.04 8.9 48.37 8.57 51.96 8.57 51.96 16.01 48.04 12.09 48.04 8.9"/></g><path d="M48.91,1.06a2,2,0,0,0-.72,2.38,2,2,0,0,0,1.91,1.2,2,2,0,0,0,1.09-3.51A2,2,0,0,0,50,.73a2,2,0,0,0-1.09.33"/><g class="cls-5"><polygon points="47.84 2.95 49.57 4.68 47.84 4.68 47.84 2.95"/><polygon points="47.84 1.31 48.56 0.6 52.12 0.6 52.12 4.11 51.54 4.68 49.57 4.68 47.84 2.95 47.84 1.31"/></g></svg>