<?xml version="1.0" encoding="utf-8"?><svg id="Layer_1" data-name="Layer 1" xmlns="http://www.w3.org/2000/svg" xmlns:xlink="http://www.w3.org/1999/xlink" viewBox="0 0 400 400"><defs><style>.cls-1{fill:none;}.cls-2{fill:#0093d2;}.cls-3{clip-path:url(#clip-path);}.cls-4{fill:#d50057;}.cls-5{clip-path:url(#clip-path-2);}.cls-6{opacity:0.1;}.cls-7{fill:#666;}.cls-8{fill:#ffc629;}.cls-9{fill:#fefefe;}.cls-10{fill:#ecf0f1;}.cls-11{fill:#fed298;}.cls-12{fill:#fff;}</style><clipPath id="clip-path"><circle class="cls-1" cx="200" cy="200" r="200"/></clipPath><clipPath id="clip-path-2"><circle class="cls-2" cx="200" cy="622.11" r="200"/></clipPath></defs><title>4Artboard 1 copy 27</title><g class="cls-3"><circle class="cls-4" cx="234.97" cy="188.23" r="276.69"/></g><circle class="cls-2" cx="200" cy="622.11" r="200"/><g class="cls-5"><g class="cls-6"><circle class="cls-2" cx="234.97" cy="610.33" r="276.69"/></g></g><path class="cls-7" d="M211.13,209v20.18H198.2V209q3.21.08,6.47.08T211.13,209Z"/><path class="cls-7" d="M204.67,29.22a90.32,90.32,0,1,1-90.32,90.32A90.32,90.32,0,0,1,204.67,29.22Z"/><path class="cls-8" d="M204.67,40.92a78.62,78.62,0,1,1-78.62,78.61A78.62,78.62,0,0,1,204.67,40.92Z"/><path class="cls-7" d="M194.76,365.42h19.81a5.09,5.09,0,0,0,5-5.13V239.09a5.1,5.1,0,0,0-5-5.13H194.76a5.11,5.11,0,0,0-5,5.13v121.2A5.09,5.09,0,0,0,194.76,365.42Z"/><path class="cls-9" d="M219.57,243.13v-8.82a5.08,5.08,0,0,0-5-5.13H194.76a5.1,5.1,0,0,0-5,5.13v8.82h29.81Z"/><path class="cls-10" d="M194.41,229.2a5.1,5.1,0,0,0-4.65,5.11v8.82h4.65V229.19Z"/><path class="cls-11" d="M128.82,341.35l-52.17,2.5L42.71,281l85.75-4.72c12.82-17.72,21.56-34.79,61.3-33.34l0,8.32,43.11-.45c14.85-.71,17,23.72,1,24.48l-2.21.19-.35,2,6-.44c12.34-1.1,14.17,22.34.13,23.59l-10.54,1.46-.25,1.72,6.78-.88c11.36-1,11.62,22.13-.4,23.51l-8.1,1.33,0,1.25,3.31,0c11.28-.47,9.79,20.23-.84,21.37-12.91,1.38-14.25,1.29-27.49,2.23C181.18,353.24,137,357.58,128.82,341.35Z"/><path class="cls-12" d="M114.28,272.78l1.47,73.68-17.27.08L97,272.24l17.27.54Z"/><path class="cls-2" d="M103.88,269.61l1.1,79.55-37.46.66A200.17,200.17,0,0,1,8.29,257.13Z"/><path class="cls-12" d="M94.81,341.23a4.48,4.48,0,1,1-4.53-4.56,4.55,4.55,0,0,1,4.53,4.56Z"/><path class="cls-12" d="M82.59,341.63a4.48,4.48,0,1,1-4.52-4.56,4.54,4.54,0,0,1,4.52,4.56Z"/><path class="cls-9" d="M149.67,144.53l38.2-50.9,2.93,2.07-4.64,6.56,1.48-1.5,41.07,40.89,31.9-45.11,2.93,2.07-32.25,45.61,1.43,1.43-2.53,2.54-1-1-2.37,3.35-2.93-2.07,2.72-3.85-41.32-41.14L152.6,146.6l-2.92-2.07Z"/><circle class="cls-9" cx="186.31" cy="101.01" r="7.84"/><circle class="cls-9" cx="228.92" cy="144.47" r="7.84"/><circle class="cls-9" cx="258.53" cy="101" r="7.84"/><circle class="cls-9" cx="153.36" cy="141.56" r="7.84"/></svg>