<?xml version="1.0" encoding="utf-8"?><svg id="Layer_1" data-name="Layer 1" xmlns="http://www.w3.org/2000/svg" xmlns:xlink="http://www.w3.org/1999/xlink" viewBox="0 0 400 400"><defs><style>.cls-1{fill:#0093d2;}.cls-2{fill:#ffc629;}.cls-3{fill:none;}.cls-4{clip-path:url(#clip-path);}.cls-5{opacity:0.1;}.cls-6{clip-path:url(#clip-path-2);}.cls-7{clip-path:url(#clip-path-3);}.cls-8{fill:#d50057;}.cls-9{fill:#c2d500;}.cls-10{fill:#fff;}</style><clipPath id="clip-path"><circle class="cls-1" cx="200" cy="-222.11" r="200"/></clipPath><clipPath id="clip-path-2"><circle class="cls-2" cx="200" cy="200" r="200"/></clipPath><clipPath id="clip-path-3"><circle class="cls-3" cx="199.63" cy="199.63" r="199.63"/></clipPath></defs><title>4Artboard 1 copy 29</title><circle class="cls-1" cx="200" cy="-222.11" r="200"/><g class="cls-4"><g class="cls-5"><circle class="cls-1" cx="234.97" cy="-233.88" r="276.69"/></g></g><circle class="cls-2" cx="200" cy="200" r="200"/><g class="cls-6"><circle class="cls-2" cx="234.97" cy="188.23" r="276.69"/></g><g class="cls-7"><polygon points="118.26 399.98 76.82 400 76.82 277.8 118.26 277.8 118.26 399.98"/><rect class="cls-8" x="145.12" y="230.29" width="41.46" height="169.71"/><rect class="cls-1" x="213.42" y="182.77" width="41.46" height="216.49"/><rect class="cls-9" x="281.74" y="135.26" width="41.44" height="264.01"/><path class="cls-10" d="M319,61.53,275.52,60a4.37,4.37,0,0,0-3.74,6.86l7,10.08c-23.6,14.14-99.11,53.88-202,53.88v28.86a442.5,442.5,0,0,0,163.32-31.75,377.87,377.87,0,0,0,55.15-27.23l6.21,9a4.37,4.37,0,0,0,7.73-1.12L323,67.27A4.36,4.36,0,0,0,319,61.53Z"/></g></svg>