<?xml version="1.0" encoding="utf-8"?><svg id="Layer_1" data-name="Layer 1" xmlns="http://www.w3.org/2000/svg" xmlns:xlink="http://www.w3.org/1999/xlink" viewBox="0 0 100 100"><defs><style>.cls-1{clip-path:url(#clip-path);}.cls-2{clip-path:url(#clip-path-2);}.cls-3{clip-path:url(#clip-path-3);}</style><clipPath id="clip-path"><path d="M84.72,66.14a2,2,0,1,0,2-2,2,2,0,0,0-2,2"/></clipPath><clipPath id="clip-path-2"><path d="M10.3,66.14a2,2,0,1,0,1.95-2,1.95,1.95,0,0,0-1.95,2"/></clipPath><clipPath id="clip-path-3"><path d="M31,59.79V40.84a17.38,17.38,0,0,1,2.84-9.53,18.83,18.83,0,0,1,31.28,0,17.41,17.41,0,0,1,2.83,9.51V59.79a6.78,6.78,0,0,1-6,6.62V41.5a2,2,0,1,0-3.91,0V96.23h-7V69a2,2,0,0,0-3.91,0V96.23h-6V41.5a2,2,0,1,0-3.91,0v25A6.8,6.8,0,0,1,31,59.79M41.26,11.5a7.56,7.56,0,1,1,7.56,7.57,7.57,7.57,0,0,1-7.56-7.57m-3.92,0a11.45,11.45,0,0,0,4.28,8.93A22.28,22.28,0,0,0,31.2,28.21l-.93,0h-.55a6.44,6.44,0,1,1,3.07-12.1,2,2,0,1,0,1.87-3.43A10.34,10.34,0,0,0,22.93,29.55,19.47,19.47,0,0,0,10.3,47.62V58.71a2,2,0,0,0,3.91,0V47.62A15.76,15.76,0,0,1,28.9,32.16a21.18,21.18,0,0,0-1.85,8.68V59.79A10.73,10.73,0,0,0,37.26,70.37V96.23H31.94V74.85a2,2,0,0,0-3.91,0V96.23H23.22v-48a2,2,0,1,0-3.91,0v48H3.79a2,2,0,0,0-1.95,2A2,2,0,0,0,3,100h94.8a2,2,0,0,0,.38-.23V96.63a2,2,0,0,0-1.18-.4H80.19l-.11-48.06a2,2,0,0,0-2-2h0a2,2,0,0,0-2,2l.1,48.05H70.59l0-21.38a2,2,0,0,0-2-1.95h0a2,2,0,0,0-2,2l.06,21.37H61.94V70.35a10.73,10.73,0,0,0,9.88-10.56V40.84A21.28,21.28,0,0,0,70,32.14a16.19,16.19,0,0,1,10.22,4.5,15.16,15.16,0,0,1,4.71,11l0,11.12a2,2,0,0,0,2,1.95h0a2,2,0,0,0,2-2l0-11.13a19,19,0,0,0-5.9-13.74,20.16,20.16,0,0,0-7.55-4.59,10.33,10.33,0,0,0-7.12-17.83h0a10.37,10.37,0,0,0-4.76,1.17,2,2,0,0,0,1.81,3.47,6.35,6.35,0,0,1,3-.73,6.44,6.44,0,1,1,0,12.87l-.25,0h-.31a22.23,22.23,0,0,0-11.31-8.09,11.47,11.47,0,1,0-19-8.63"/></clipPath></defs><title>Crowdfunding Fulfilment</title><path d="M84.72,66.14a2,2,0,1,0,2-2,2,2,0,0,0-2,2"/><g class="cls-1"><polygon points="84.72 67.72 85.06 68.09 84.72 68.09 84.72 67.72"/><polygon points="84.72 66.96 85.74 68.09 85.06 68.09 84.72 67.72 84.72 66.96"/><polygon points="84.72 66.2 86.43 68.09 85.74 68.09 84.72 66.96 84.72 66.2"/><polygon points="84.72 65.44 87.11 68.09 86.43 68.09 84.72 66.2 84.72 65.44"/><polygon points="84.72 64.67 87.8 68.09 87.11 68.09 84.72 65.44 84.72 64.67"/><polygon points="84.97 64.18 88.49 68.09 87.8 68.09 84.72 64.67 84.72 64.18 84.97 64.18"/><polygon points="85.66 64.18 88.64 67.5 88.64 68.09 88.49 68.09 84.97 64.18 85.66 64.18"/><polygon points="86.34 64.18 88.64 66.73 88.64 67.5 85.66 64.18 86.34 64.18"/><polygon points="87.03 64.18 88.64 65.97 88.64 66.73 86.34 64.18 87.03 64.18"/><polygon points="87.72 64.18 88.64 65.21 88.64 65.97 87.03 64.18 87.72 64.18"/><polygon points="88.4 64.18 88.64 64.44 88.64 65.21 87.72 64.18 88.4 64.18"/><polygon points="88.64 64.44 88.4 64.18 88.64 64.18 88.64 64.44"/></g><path d="M10.3,66.14a2,2,0,1,0,1.95-2,1.95,1.95,0,0,0-1.95,2"/><g class="cls-2"><polygon points="10.3 67.36 10.96 68.09 10.3 68.09 10.3 67.36"/><polygon points="10.3 66.59 11.64 68.09 10.96 68.09 10.3 67.36 10.3 66.59"/><polygon points="10.3 65.83 12.33 68.09 11.64 68.09 10.3 66.59 10.3 65.83"/><polygon points="10.3 65.07 13.02 68.09 12.33 68.09 10.3 65.83 10.3 65.07"/><polygon points="10.3 64.3 13.7 68.09 13.02 68.09 10.3 65.07 10.3 64.3"/><polygon points="10.87 64.18 14.21 67.89 14.21 68.09 13.7 68.09 10.3 64.3 10.3 64.18 10.87 64.18"/><polygon points="11.56 64.18 14.21 67.13 14.21 67.89 10.87 64.18 11.56 64.18"/><polygon points="12.24 64.18 14.21 66.36 14.21 67.13 11.56 64.18 12.24 64.18"/><polygon points="12.93 64.18 14.21 65.6 14.21 66.36 12.24 64.18 12.93 64.18"/><polygon points="13.62 64.18 14.21 64.84 14.21 65.6 12.93 64.18 13.62 64.18"/><polygon points="14.21 64.84 13.62 64.18 14.21 64.18 14.21 64.84"/></g><path d="M31,59.79V40.84a17.38,17.38,0,0,1,2.84-9.53,18.83,18.83,0,0,1,31.28,0,17.41,17.41,0,0,1,2.83,9.51V59.79a6.78,6.78,0,0,1-6,6.62V41.5a2,2,0,1,0-3.91,0V96.23h-7V69a2,2,0,0,0-3.91,0V96.23h-6V41.5a2,2,0,1,0-3.91,0v25A6.8,6.8,0,0,1,31,59.79M41.26,11.5a7.56,7.56,0,1,1,7.56,7.57,7.57,7.57,0,0,1-7.56-7.57m-3.92,0a11.45,11.45,0,0,0,4.28,8.93A22.28,22.28,0,0,0,31.2,28.21l-.93,0h-.55a6.44,6.44,0,1,1,3.07-12.1,2,2,0,1,0,1.87-3.43A10.34,10.34,0,0,0,22.93,29.55,19.47,19.47,0,0,0,10.3,47.62V58.71a2,2,0,0,0,3.91,0V47.62A15.76,15.76,0,0,1,28.9,32.16a21.18,21.18,0,0,0-1.85,8.68V59.79A10.73,10.73,0,0,0,37.26,70.37V96.23H31.94V74.85a2,2,0,0,0-3.91,0V96.23H23.22v-48a2,2,0,1,0-3.91,0v48H3.79a2,2,0,0,0-1.95,2A2,2,0,0,0,3,100h94.8a2,2,0,0,0,.38-.23V96.63a2,2,0,0,0-1.18-.4H80.19l-.11-48.06a2,2,0,0,0-2-2h0a2,2,0,0,0-2,2l.1,48.05H70.59l0-21.38a2,2,0,0,0-2-1.95h0a2,2,0,0,0-2,2l.06,21.37H61.94V70.35a10.73,10.73,0,0,0,9.88-10.56V40.84A21.28,21.28,0,0,0,70,32.14a16.19,16.19,0,0,1,10.22,4.5,15.16,15.16,0,0,1,4.71,11l0,11.12a2,2,0,0,0,2,1.95h0a2,2,0,0,0,2-2l0-11.13a19,19,0,0,0-5.9-13.74,20.16,20.16,0,0,0-7.55-4.59,10.33,10.33,0,0,0-7.12-17.83h0a10.37,10.37,0,0,0-4.76,1.17,2,2,0,0,0,1.81,3.47,6.35,6.35,0,0,1,3-.73,6.44,6.44,0,1,1,0,12.87l-.25,0h-.31a22.23,22.23,0,0,0-11.31-8.09,11.47,11.47,0,1,0-19-8.63"/><g class="cls-3"><polygon points="1.84 99.92 2.04 100.14 1.84 100.14 1.84 99.92"/><polygon points="1.84 99.16 2.72 100.14 2.04 100.14 1.84 99.92 1.84 99.16"/><polygon points="1.84 98.39 3.41 100.14 2.72 100.14 1.84 99.16 1.84 98.39"/><polygon points="1.84 97.63 4.09 100.14 3.41 100.14 1.84 98.39 1.84 97.63"/><polygon points="1.84 96.87 4.78 100.14 4.09 100.14 1.84 97.63 1.84 96.87"/><polygon points="1.84 96.1 5.47 100.14 4.78 100.14 1.84 96.87 1.84 96.1"/><polygon points="1.84 95.34 6.15 100.14 5.47 100.14 1.84 96.1 1.84 95.34"/><polygon points="1.84 94.58 6.84 100.14 6.15 100.14 1.84 95.34 1.84 94.58"/><polygon points="1.84 93.81 7.52 100.14 6.84 100.14 1.84 94.58 1.84 93.81"/><polygon points="1.84 93.05 8.21 100.14 7.52 100.14 1.84 93.81 1.84 93.05"/><polygon points="1.84 92.29 8.9 100.14 8.21 100.14 1.84 93.05 1.84 92.29"/><polygon points="1.84 91.52 9.58 100.14 8.9 100.14 1.84 92.29 1.84 91.52"/><polygon points="1.84 90.76 10.27 100.14 9.58 100.14 1.84 91.53 1.84 90.76"/><polygon points="1.84 90 10.95 100.14 10.27 100.14 1.84 90.76 1.84 90"/><polygon points="1.84 89.24 11.64 100.14 10.95 100.14 1.84 90 1.84 89.24"/><polygon points="1.84 88.47 12.33 100.14 11.64 100.14 1.84 89.24 1.84 88.47"/><polygon points="1.84 87.71 13.01 100.14 12.33 100.14 1.84 88.47 1.84 87.71"/><polygon points="1.84 86.95 13.7 100.14 13.01 100.14 1.84 87.71 1.84 86.95"/><polygon points="1.84 86.18 14.38 100.14 13.7 100.14 1.84 86.95 1.84 86.18"/><polygon points="1.84 85.42 15.07 100.14 14.38 100.14 1.84 86.18 1.84 85.42"/><polygon points="1.84 84.66 15.76 100.14 15.07 100.14 1.84 85.42 1.84 84.66"/><polygon points="1.84 83.89 16.44 100.14 15.76 100.14 1.84 84.66 1.84 83.89"/><polygon points="1.84 83.13 17.13 100.14 16.44 100.14 1.84 83.89 1.84 83.13"/><polygon points="1.84 82.37 17.82 100.14 17.13 100.14 1.84 83.13 1.84 82.37"/><polygon points="1.84 81.61 18.5 100.14 17.82 100.14 1.84 82.37 1.84 81.61"/><polygon points="1.84 80.84 19.19 100.14 18.5 100.14 1.84 81.61 1.84 80.84"/><polygon points="1.84 80.08 19.87 100.14 19.19 100.14 1.84 80.84 1.84 80.08"/><polygon points="1.84 79.31 20.56 100.14 19.87 100.14 1.84 80.08 1.84 79.31"/><polygon points="1.84 78.55 21.25 100.14 20.56 100.14 1.84 79.31 1.84 78.55"/><polygon points="1.84 77.79 21.93 100.14 21.25 100.14 1.84 78.55 1.84 77.79"/><polygon points="1.84 77.03 22.62 100.14 21.93 100.14 1.84 77.79 1.84 77.03"/><polygon points="1.84 76.26 23.3 100.14 22.62 100.14 1.84 77.03 1.84 76.26"/><polygon points="1.84 75.5 23.99 100.14 23.3 100.14 1.84 76.26 1.84 75.5"/><polygon points="1.84 74.74 24.68 100.14 23.99 100.14 1.84 75.5 1.84 74.74"/><polygon points="1.84 73.97 25.36 100.14 24.68 100.14 1.84 74.74 1.84 73.97"/><polygon points="1.84 73.21 26.05 100.14 25.36 100.14 1.84 73.97 1.84 73.21"/><polygon points="1.84 72.45 26.73 100.14 26.05 100.14 1.84 73.21 1.84 72.45"/><polygon points="1.84 71.68 27.42 100.14 26.73 100.14 1.84 72.45 1.84 71.68"/><polygon points="1.84 70.92 28.11 100.14 27.42 100.14 1.84 71.69 1.84 70.92"/><polygon points="1.84 70.16 28.79 100.14 28.11 100.14 1.84 70.92 1.84 70.16"/><polygon points="1.84 69.39 29.48 100.14 28.79 100.14 1.84 70.16 1.84 69.39"/><polygon points="1.84 68.63 30.17 100.14 29.48 100.14 1.84 69.4 1.84 68.63"/><polygon points="1.84 67.87 30.85 100.14 30.17 100.14 1.84 68.63 1.84 67.87"/><polygon points="1.84 67.11 31.54 100.14 30.85 100.14 1.84 67.87 1.84 67.11"/><polygon points="1.84 66.34 32.22 100.14 31.54 100.14 1.84 67.11 1.84 66.34"/><polygon points="1.84 65.58 32.91 100.14 32.22 100.14 1.84 66.34 1.84 65.58"/><polygon points="1.84 64.82 33.6 100.14 32.91 100.14 1.84 65.58 1.84 64.82"/><polygon points="1.84 64.05 34.28 100.14 33.6 100.14 1.84 64.82 1.84 64.05"/><polygon points="1.84 63.29 34.97 100.14 34.28 100.14 1.84 64.05 1.84 63.29"/><polygon points="1.84 62.53 35.66 100.14 34.97 100.14 1.84 63.29 1.84 62.53"/><polygon points="1.84 61.76 36.34 100.14 35.66 100.14 1.84 62.53 1.84 61.76"/><polygon points="1.84 61 37.03 100.14 36.34 100.14 1.84 61.76 1.84 61"/><polygon points="1.84 60.24 37.71 100.14 37.03 100.14 1.84 61 1.84 60.24"/><polygon points="1.84 59.47 38.4 100.14 37.71 100.14 1.84 60.24 1.84 59.47"/><polygon points="1.84 58.71 39.09 100.14 38.4 100.14 1.84 59.47 1.84 58.71"/><polygon points="1.84 57.95 39.77 100.14 39.09 100.14 1.84 58.71 1.84 57.95"/><polygon points="1.84 57.18 40.46 100.14 39.77 100.14 1.84 57.95 1.84 57.18"/><polygon points="1.84 56.42 41.14 100.14 40.46 100.14 1.84 57.18 1.84 56.42"/><polygon points="1.84 55.66 41.83 100.14 41.14 100.14 1.84 56.42 1.84 55.66"/><polygon points="1.84 54.9 42.52 100.14 41.83 100.14 1.84 55.66 1.84 54.9"/><polygon points="1.84 54.13 43.2 100.14 42.52 100.14 1.84 54.9 1.84 54.13"/><polygon points="1.84 53.37 43.89 100.14 43.2 100.14 1.84 54.13 1.84 53.37"/><polygon points="1.84 52.6 44.57 100.14 43.89 100.14 1.84 53.37 1.84 52.6"/><polygon points="1.84 51.84 45.26 100.14 44.57 100.14 1.84 52.6 1.84 51.84"/><polygon points="1.84 51.08 45.95 100.14 45.26 100.14 1.84 51.84 1.84 51.08"/><polygon points="1.84 50.32 46.63 100.14 45.95 100.14 1.84 51.08 1.84 50.32"/><polygon points="1.84 49.55 47.32 100.14 46.63 100.14 1.84 50.32 1.84 49.55"/><polygon points="1.84 48.79 48.01 100.14 47.32 100.14 1.84 49.55 1.84 48.79"/><polygon points="1.84 48.03 48.69 100.14 48.01 100.14 1.84 48.79 1.84 48.03"/><polygon points="1.84 47.26 49.38 100.14 48.69 100.14 1.84 48.03 1.84 47.26"/><polygon points="1.84 46.5 50.06 100.14 49.38 100.14 1.84 47.27 1.84 46.5"/><polygon points="1.84 45.74 50.75 100.14 50.06 100.14 1.84 46.5 1.84 45.74"/><polygon points="1.84 44.97 51.43 100.14 50.75 100.14 1.84 45.74 1.84 44.97"/><polygon points="1.84 44.21 52.12 100.14 51.43 100.14 1.84 44.97 1.84 44.21"/><polygon points="1.84 43.45 52.81 100.14 52.12 100.14 1.84 44.21 1.84 43.45"/><polygon points="1.84 42.69 53.49 100.14 52.81 100.14 1.84 43.45 1.84 42.69"/><polygon points="1.84 41.92 54.18 100.14 53.49 100.14 1.84 42.69 1.84 41.92"/><polygon points="1.84 41.16 54.86 100.14 54.18 100.14 1.84 41.92 1.84 41.16"/><polygon points="1.84 40.4 55.55 100.14 54.86 100.14 1.84 41.16 1.84 40.4"/><polygon points="1.84 39.63 56.24 100.14 55.55 100.14 1.84 40.4 1.84 39.63"/><polygon points="1.84 38.87 56.92 100.14 56.24 100.14 1.84 39.63 1.84 38.87"/><polygon points="1.84 38.11 57.61 100.14 56.92 100.14 1.84 38.87 1.84 38.11"/><polygon points="1.84 37.34 58.3 100.14 57.61 100.14 1.84 38.11 1.84 37.34"/><polygon points="1.84 36.58 58.98 100.14 58.3 100.14 1.84 37.34 1.84 36.58"/><polygon points="1.84 35.82 59.67 100.14 58.98 100.14 1.84 36.58 1.84 35.82"/><polygon points="1.84 35.05 60.35 100.14 59.67 100.14 1.84 35.82 1.84 35.05"/><polygon points="1.84 34.29 61.04 100.14 60.35 100.14 1.84 35.06 1.84 34.29"/><polygon points="1.84 33.53 61.73 100.14 61.04 100.14 1.84 34.29 1.84 33.53"/><polygon points="1.84 32.77 62.41 100.14 61.73 100.14 1.84 33.53 1.84 32.77"/><polygon points="1.84 32 63.1 100.14 62.41 100.14 1.84 32.77 1.84 32"/><polygon points="1.84 31.24 63.78 100.14 63.1 100.14 1.84 32 1.84 31.24"/><polygon points="1.84 30.48 64.47 100.14 63.78 100.14 1.84 31.24 1.84 30.48"/><polygon points="1.84 29.71 65.16 100.14 64.47 100.14 1.84 30.48 1.84 29.71"/><polygon points="1.84 28.95 65.84 100.14 65.16 100.14 1.84 29.71 1.84 28.95"/><polygon points="1.84 28.19 66.53 100.14 65.84 100.14 1.84 28.95 1.84 28.19"/><polygon points="1.84 27.42 67.21 100.14 66.53 100.14 1.84 28.19 1.84 27.42"/><polygon points="1.84 27.25 2.13 26.99 67.9 100.14 67.21 100.14 1.84 27.42 1.84 27.25"/><polygon points="2.13 26.99 2.51 26.65 68.59 100.14 67.9 100.14 2.13 26.99"/><polygon points="2.51 26.65 2.89 26.31 69.27 100.14 68.59 100.14 2.51 26.65"/><polygon points="2.89 26.31 3.27 25.96 69.96 100.14 69.27 100.14 2.89 26.31"/><polygon points="3.27 25.96 3.65 25.63 70.65 100.14 69.96 100.14 3.27 25.96"/><polygon points="3.65 25.62 4.03 25.28 71.33 100.14 70.64 100.14 3.65 25.62"/><polygon points="4.03 25.28 4.41 24.94 72.02 100.14 71.33 100.14 4.03 25.28"/><polygon points="4.41 24.94 4.79 24.6 72.7 100.14 72.02 100.14 4.41 24.94"/><polygon points="4.79 24.6 5.17 24.26 73.39 100.14 72.7 100.14 4.79 24.6"/><polygon points="5.17 24.26 5.55 23.92 74.08 100.14 73.39 100.14 5.17 24.26"/><polygon points="5.55 23.92 5.93 23.58 74.76 100.14 74.07 100.14 5.55 23.92"/><polygon points="5.92 23.58 6.3 23.24 75.45 100.14 74.76 100.14 5.92 23.58"/><polygon points="6.3 23.24 6.68 22.89 76.13 100.14 75.45 100.14 6.3 23.24"/><polygon points="6.68 22.89 7.06 22.55 76.82 100.14 76.13 100.14 6.68 22.89"/><polygon points="7.06 22.55 7.44 22.21 77.51 100.14 76.82 100.14 7.06 22.55"/><polygon points="7.44 22.21 7.82 21.87 78.19 100.14 77.51 100.14 7.44 22.21"/><polygon points="7.82 21.87 8.2 21.53 78.88 100.14 78.19 100.14 7.82 21.87"/><polygon points="8.2 21.53 8.58 21.19 79.56 100.14 78.88 100.14 8.2 21.53"/><polygon points="8.58 21.19 8.96 20.85 80.25 100.14 79.56 100.14 8.58 21.19"/><polygon points="8.96 20.85 9.34 20.51 80.94 100.14 80.25 100.14 8.96 20.85"/><polygon points="9.34 20.51 9.72 20.17 81.62 100.14 80.94 100.14 9.34 20.51"/><polygon points="9.72 20.17 10.1 19.83 82.31 100.14 81.62 100.14 9.72 20.17"/><polygon points="10.1 19.83 10.48 19.48 83 100.14 82.31 100.14 10.1 19.83"/><polygon points="10.48 19.48 10.86 19.14 83.68 100.14 83 100.14 10.48 19.48"/><polygon points="10.86 19.14 11.24 18.8 84.37 100.14 83.68 100.14 10.86 19.14"/><polygon points="11.24 18.8 11.62 18.46 85.05 100.14 84.37 100.14 11.24 18.8"/><polygon points="11.62 18.46 12 18.12 85.74 100.14 85.05 100.14 11.62 18.46"/><polygon points="12 18.12 12.38 17.78 86.42 100.14 85.74 100.14 12 18.12"/><polygon points="12.38 17.78 12.76 17.44 87.11 100.14 86.43 100.14 12.38 17.78"/><polygon points="12.76 17.44 13.13 17.1 87.8 100.14 87.11 100.14 12.76 17.44"/><polygon points="13.13 17.1 13.51 16.76 88.48 100.14 87.8 100.14 13.13 17.1"/><polygon points="13.51 16.76 13.89 16.41 89.17 100.14 88.48 100.14 13.51 16.76"/><polygon points="13.89 16.41 14.27 16.07 89.86 100.14 89.17 100.14 13.89 16.41"/><polygon points="14.27 16.07 14.65 15.73 90.54 100.14 89.86 100.14 14.27 16.07"/><polygon points="14.65 15.73 15.03 15.39 91.23 100.14 90.54 100.14 14.65 15.73"/><polygon points="15.03 15.39 15.41 15.05 91.91 100.14 91.23 100.14 15.03 15.39"/><polygon points="15.41 15.05 15.79 14.71 92.6 100.14 91.92 100.14 15.41 15.05"/><polygon points="15.79 14.71 16.17 14.37 93.29 100.14 92.6 100.14 15.79 14.71"/><polygon points="16.17 14.37 16.55 14.03 93.97 100.14 93.29 100.14 16.17 14.37"/><polygon points="16.55 14.03 16.93 13.68 94.66 100.14 93.97 100.14 16.55 14.03"/><polygon points="16.93 13.69 17.31 13.34 95.34 100.14 94.66 100.14 16.93 13.69"/><polygon points="17.31 13.34 17.69 13 96.03 100.14 95.34 100.14 17.31 13.34"/><polygon points="17.69 13 18.07 12.66 96.72 100.14 96.03 100.14 17.69 13"/><polygon points="18.07 12.66 18.45 12.32 97.4 100.14 96.72 100.14 18.07 12.66"/><polygon points="18.45 12.32 18.82 11.98 98.09 100.14 97.4 100.14 18.45 12.32"/><polygon points="18.82 11.98 19.2 11.64 98.78 100.14 98.09 100.14 18.82 11.98"/><polygon points="19.2 11.64 19.58 11.3 98.93 99.55 98.93 100.14 98.78 100.14 19.2 11.64"/><polygon points="19.58 11.3 19.96 10.96 98.93 98.79 98.93 99.55 19.58 11.3"/><polygon points="19.96 10.96 20.34 10.62 98.93 98.03 98.93 98.79 19.96 10.96"/><polygon points="20.34 10.62 20.72 10.28 98.93 97.26 98.93 98.03 20.34 10.62"/><polygon points="20.72 10.28 21.1 9.93 98.93 96.5 98.93 97.26 20.72 10.28"/><polygon points="21.1 9.93 21.48 9.59 98.93 95.74 98.93 96.5 21.1 9.93"/><polygon points="21.48 9.59 21.86 9.25 98.93 94.97 98.93 95.74 21.48 9.59"/><polygon points="21.86 9.25 22.24 8.91 98.93 94.21 98.93 94.97 21.86 9.25"/><polygon points="22.24 8.91 22.62 8.57 98.93 93.45 98.93 94.21 22.24 8.91"/><polygon points="22.62 8.57 23 8.23 98.93 92.69 98.93 93.45 22.62 8.57"/><polygon points="23 8.23 23.38 7.89 98.93 91.92 98.93 92.68 23 8.23"/><polygon points="23.38 7.88 23.76 7.55 98.93 91.16 98.93 91.92 23.38 7.88"/><polygon points="23.76 7.54 24.14 7.21 98.93 90.4 98.93 91.16 23.76 7.54"/><polygon points="24.14 7.21 24.52 6.86 98.93 89.63 98.93 90.39 24.14 7.21"/><polygon points="24.52 6.86 24.9 6.52 98.93 88.87 98.93 89.63 24.52 6.86"/><polygon points="24.89 6.52 25.27 6.18 98.93 88.11 98.93 88.87 24.89 6.52"/><polygon points="25.27 6.18 25.66 5.84 98.93 87.34 98.93 88.11 25.27 6.18"/><polygon points="25.65 5.84 26.03 5.5 98.93 86.58 98.93 87.34 25.65 5.84"/><polygon points="26.03 5.5 26.41 5.16 98.93 85.82 98.93 86.58 26.03 5.5"/><polygon points="26.41 5.16 26.79 4.82 98.93 85.05 98.93 85.82 26.41 5.16"/><polygon points="26.79 4.82 27.17 4.47 98.93 84.29 98.93 85.05 26.79 4.82"/><polygon points="27.17 4.47 27.55 4.13 98.93 83.53 98.93 84.29 27.17 4.47"/><polygon points="27.55 4.13 27.93 3.79 98.93 82.77 98.93 83.53 27.55 4.13"/><polygon points="27.93 3.79 28.31 3.45 98.93 82 98.93 82.76 27.93 3.79"/><polygon points="28.31 3.45 28.69 3.11 98.93 81.24 98.93 82 28.31 3.45"/><polygon points="28.69 3.11 29.07 2.77 98.93 80.47 98.93 81.24 28.69 3.11"/><polygon points="29.07 2.77 29.45 2.43 98.93 79.71 98.93 80.47 29.07 2.77"/><polygon points="29.45 2.43 29.83 2.09 98.93 78.95 98.93 79.71 29.45 2.43"/><polygon points="29.83 2.09 30.21 1.75 98.93 78.19 98.93 78.95 29.83 2.09"/><polygon points="30.21 1.75 30.59 1.41 98.93 77.42 98.93 78.19 30.21 1.75"/><polygon points="30.59 1.41 30.97 1.06 98.93 76.66 98.93 77.42 30.59 1.41"/><polygon points="30.97 1.06 31.35 0.72 98.93 75.9 98.93 76.66 30.97 1.06"/><polygon points="31.34 0.72 31.73 0.38 98.93 75.13 98.93 75.89 31.34 0.72"/><polygon points="31.73 0.38 32.1 0.04 98.93 74.37 98.93 75.13 31.73 0.38"/><polygon points="32.1 0.04 32.11 0.04 32.78 0.04 98.93 73.61 98.93 74.37 32.1 0.04"/><polygon points="33.47 0.03 98.93 72.84 98.93 73.61 32.78 0.03 33.47 0.03"/><polygon points="34.16 0.03 98.93 72.08 98.93 72.84 33.47 0.03 34.16 0.03"/><polygon points="34.84 0.03 98.93 71.32 98.93 72.08 34.16 0.03 34.84 0.03"/><polygon points="35.53 0.03 98.93 70.56 98.93 71.32 34.84 0.03 35.53 0.03"/><polygon points="36.21 0.03 98.93 69.79 98.93 70.56 35.53 0.03 36.21 0.03"/><polygon points="36.9 0.03 98.93 69.03 98.93 69.79 36.21 0.03 36.9 0.03"/><polygon points="45.53 0.03 98.93 59.43 98.93 69.03 36.9 0.03 45.53 0.03"/><polygon points="54.16 0.03 98.93 49.83 98.93 59.43 45.53 0.03 54.16 0.03"/><polygon points="62.79 0.03 98.93 40.23 98.93 49.83 54.16 0.03 62.79 0.03"/><polygon points="71.42 0.03 98.93 30.64 98.93 40.23 62.79 0.03 71.42 0.03"/><polygon points="80.05 0.03 98.93 21.04 98.93 30.64 71.42 0.03 80.05 0.03"/><polygon points="88.68 0.03 98.93 11.44 98.93 21.04 80.05 0.03 88.68 0.03"/><polygon points="97.31 0.03 98.93 1.84 98.93 11.44 88.68 0.03 97.31 0.03"/><polygon points="98.93 1.84 97.31 0.03 98.93 0.03 98.93 1.84"/><polygon points="41.26 18.61 41.66 19.07 41.26 19.07 41.26 18.61"/><polygon points="41.26 17.85 42.35 19.07 41.66 19.07 41.26 18.61 41.26 17.85"/><polygon points="41.26 17.09 43.04 19.07 42.35 19.07 41.26 17.85 41.26 17.09"/><polygon points="41.26 16.32 43.72 19.07 43.04 19.07 41.26 17.09 41.26 16.32"/><polygon points="41.26 15.56 44.41 19.07 43.72 19.07 41.26 16.32 41.26 15.56"/><polygon points="41.26 14.8 45.09 19.07 44.41 19.07 41.26 15.56 41.26 14.8"/><polygon points="41.26 14.04 45.78 19.07 45.09 19.07 41.26 14.8 41.26 14.04"/><polygon points="41.26 13.27 46.47 19.07 45.78 19.07 41.26 14.04 41.26 13.27"/><polygon points="41.26 12.51 47.15 19.07 46.47 19.07 41.26 13.27 41.26 12.51"/><polygon points="41.26 11.74 47.84 19.07 47.15 19.07 41.26 12.51 41.26 11.74"/><polygon points="41.26 10.98 48.52 19.07 47.84 19.07 41.26 11.74 41.26 10.98"/><polygon points="41.26 10.22 49.21 19.07 48.52 19.07 41.26 10.98 41.26 10.22"/><polygon points="41.26 9.46 49.9 19.07 49.21 19.07 41.26 10.22 41.26 9.46"/><polygon points="41.26 8.69 50.58 19.07 49.9 19.07 41.26 9.46 41.26 8.69"/><polygon points="41.26 7.93 51.27 19.07 50.58 19.07 41.26 8.69 41.26 7.93"/><polygon points="41.26 7.17 51.95 19.07 51.27 19.07 41.26 7.93 41.26 7.17"/><polygon points="41.26 6.4 52.64 19.07 51.95 19.07 41.26 7.17 41.26 6.4"/><polygon points="41.26 5.64 53.33 19.07 52.64 19.07 41.26 6.4 41.26 5.64"/><polygon points="41.26 4.88 54.01 19.07 53.33 19.07 41.26 5.64 41.26 4.88"/><polygon points="49.05 3.94 56.38 12.1 56.38 19.07 54.01 19.07 41.25 4.88 41.25 3.94 49.05 3.94"/><polygon points="56.38 12.1 49.05 3.94 56.38 3.94 56.38 12.1"/><polygon points="30.96 95.68 31.45 96.23 30.96 96.23 30.96 95.68"/><polygon points="30.96 94.92 32.14 96.23 31.45 96.23 30.96 95.68 30.96 94.92"/><polygon points="30.96 94.15 32.82 96.23 32.14 96.23 30.96 94.92 30.96 94.15"/><polygon points="30.96 93.39 33.51 96.23 32.82 96.23 30.96 94.15 30.96 93.39"/><polygon points="30.96 92.63 34.2 96.23 33.51 96.23 30.96 93.39 30.96 92.63"/><polygon points="30.96 91.86 34.88 96.23 34.2 96.23 30.96 92.62 30.96 91.86"/><polygon points="30.96 91.1 35.57 96.23 34.88 96.23 30.96 91.86 30.96 91.1"/><polygon points="30.96 90.34 36.25 96.23 35.57 96.23 30.96 91.1 30.96 90.34"/><polygon points="30.96 89.57 36.94 96.23 36.25 96.23 30.96 90.34 30.96 89.57"/><polygon points="30.96 88.81 37.63 96.23 36.94 96.23 30.96 89.57 30.96 88.81"/><polygon points="30.96 88.05 38.31 96.23 37.63 96.23 30.96 88.81 30.96 88.05"/><polygon points="30.96 87.28 39 96.23 38.31 96.23 30.96 88.05 30.96 87.28"/><polygon points="30.96 86.52 39.68 96.23 39 96.23 30.96 87.28 30.96 86.52"/><polygon points="30.96 85.76 40.37 96.23 39.68 96.23 30.96 86.52 30.96 85.76"/><polygon points="30.96 84.99 41.06 96.23 40.37 96.23 30.96 85.76 30.96 84.99"/><polygon points="30.96 84.23 41.74 96.23 41.06 96.23 30.96 84.99 30.96 84.23"/><polygon points="30.96 83.47 42.43 96.23 41.74 96.23 30.96 84.23 30.96 83.47"/><polygon points="30.96 82.7 43.12 96.23 42.43 96.23 30.96 83.47 30.96 82.7"/><polygon points="30.96 81.94 43.8 96.23 43.12 96.23 30.96 82.7 30.96 81.94"/><polygon points="30.96 81.18 44.49 96.23 43.8 96.23 30.96 81.94 30.96 81.18"/><polygon points="30.96 80.41 45.17 96.23 44.49 96.23 30.96 81.18 30.96 80.41"/><polygon points="30.96 79.65 45.86 96.23 45.17 96.23 30.96 80.42 30.96 79.65"/><polygon points="30.96 78.89 46.55 96.23 45.86 96.23 30.96 79.65 30.96 78.89"/><polygon points="30.96 78.13 47.23 96.23 46.55 96.23 30.96 78.89 30.96 78.13"/><polygon points="30.96 77.36 47.92 96.23 47.23 96.23 30.96 78.13 30.96 77.36"/><polygon points="30.96 76.6 48.6 96.23 47.92 96.23 30.96 77.36 30.96 76.6"/><polygon points="30.96 75.84 49.29 96.23 48.6 96.23 30.96 76.6 30.96 75.84"/><polygon points="30.96 75.07 49.98 96.23 49.29 96.23 30.96 75.84 30.96 75.07"/><polygon points="30.96 74.31 50.66 96.23 49.98 96.23 30.96 75.07 30.96 74.31"/><polygon points="30.96 73.55 51.35 96.23 50.66 96.23 30.96 74.31 30.96 73.55"/><polygon points="30.96 72.78 52.03 96.23 51.35 96.23 30.96 73.55 30.96 72.78"/><polygon points="30.96 72.02 52.72 96.23 52.03 96.23 30.96 72.78 30.96 72.02"/><polygon points="30.96 71.26 53.41 96.23 52.72 96.23 30.96 72.02 30.96 71.26"/><polygon points="30.96 70.5 54.09 96.23 53.41 96.23 30.96 71.26 30.96 70.5"/><polygon points="30.96 69.73 54.78 96.23 54.09 96.23 30.96 70.5 30.96 69.73"/><polygon points="30.96 68.97 55.47 96.23 54.78 96.23 30.96 69.73 30.96 68.97"/><polygon points="30.96 68.2 56.15 96.23 55.47 96.23 30.96 68.97 30.96 68.2"/><polygon points="30.96 67.44 56.84 96.23 56.15 96.23 30.96 68.2 30.96 67.44"/><polygon points="30.96 66.68 57.52 96.23 56.84 96.23 30.96 67.44 30.96 66.68"/><polygon points="30.96 65.92 58.21 96.23 57.52 96.23 30.96 66.68 30.96 65.92"/><polygon points="30.96 65.15 58.9 96.23 58.21 96.23 30.96 65.92 30.96 65.15"/><polygon points="30.96 64.39 59.58 96.23 58.9 96.23 30.96 65.15 30.96 64.39"/><polygon points="30.96 63.63 60.27 96.23 59.58 96.23 30.96 64.39 30.96 63.63"/><polygon points="30.96 62.86 60.95 96.23 60.27 96.23 30.96 63.63 30.96 62.86"/><polygon points="30.96 62.1 61.64 96.23 60.95 96.23 30.96 62.86 30.96 62.1"/><polygon points="30.96 61.34 62.33 96.23 61.64 96.23 30.96 62.1 30.96 61.34"/><polygon points="30.96 60.57 62.82 96.02 62.58 96.23 62.33 96.23 30.96 61.34 30.96 60.57"/><polygon points="30.96 59.81 63.2 95.67 62.82 96.02 30.96 60.58 30.96 59.81"/><polygon points="30.96 59.05 63.58 95.33 63.2 95.67 30.96 59.81 30.96 59.05"/><polygon points="30.96 58.28 63.96 94.99 63.58 95.33 30.96 59.05 30.96 58.28"/><polygon points="30.96 57.52 64.34 94.65 63.96 94.99 30.96 58.29 30.96 57.52"/><polygon points="30.96 56.76 64.72 94.31 64.34 94.65 30.96 57.52 30.96 56.76"/><polygon points="30.96 56 65.09 93.97 64.72 94.31 30.96 56.76 30.96 56"/><polygon points="30.96 55.23 65.47 93.63 65.09 93.97 30.96 56 30.96 55.23"/><polygon points="30.96 54.47 65.86 93.29 65.47 93.63 30.96 55.23 30.96 54.47"/><polygon points="30.96 53.71 66.23 92.94 65.86 93.29 30.96 54.47 30.96 53.71"/><polygon points="30.96 52.94 66.61 92.6 66.23 92.94 30.96 53.71 30.96 52.94"/><polygon points="30.96 52.18 66.99 92.26 66.61 92.6 30.96 52.94 30.96 52.18"/><polygon points="30.96 51.42 67.37 91.92 66.99 92.26 30.96 52.18 30.96 51.42"/><polygon points="30.96 50.65 67.75 91.58 67.37 91.92 30.96 51.42 30.96 50.65"/><polygon points="30.96 49.89 67.91 91 67.91 91.43 67.75 91.58 30.96 50.65 30.96 49.89"/><polygon points="30.96 49.13 67.91 90.23 67.91 91 30.96 49.89 30.96 49.13"/><polygon points="30.96 48.37 67.91 89.47 67.91 90.23 30.96 49.13 30.96 48.37"/><polygon points="30.96 47.6 67.91 88.71 67.91 89.47 30.96 48.37 30.96 47.6"/><polygon points="30.96 46.84 67.91 87.94 67.91 88.71 30.96 47.6 30.96 46.84"/><polygon points="30.96 46.08 67.91 87.18 67.91 87.94 30.96 46.84 30.96 46.08"/><polygon points="30.96 45.31 67.91 86.42 67.91 87.18 30.96 46.08 30.96 45.31"/><polygon points="30.96 44.55 67.91 85.66 67.91 86.42 30.96 45.31 30.96 44.55"/><polygon points="30.96 43.79 67.91 84.89 67.91 85.65 30.96 44.55 30.96 43.79"/><polygon points="30.96 43.02 67.91 84.13 67.91 84.89 30.96 43.79 30.96 43.02"/><polygon points="30.96 42.26 67.91 83.37 67.91 84.13 30.96 43.02 30.96 42.26"/><polygon points="30.96 41.5 67.91 82.6 67.91 83.36 30.96 42.26 30.96 41.5"/><polygon points="30.96 40.73 67.91 81.84 67.91 82.6 30.96 41.5 30.96 40.73"/><polygon points="30.96 39.97 67.91 81.08 67.91 81.84 30.96 40.73 30.96 39.97"/><polygon points="30.96 39.21 67.91 80.31 67.91 81.08 30.96 39.97 30.96 39.21"/><polygon points="30.96 38.44 67.91 79.55 67.91 80.31 30.96 39.21 30.96 38.44"/><polygon points="30.96 37.68 67.91 78.79 67.91 79.55 30.96 38.44 30.96 37.68"/><polygon points="30.96 36.92 67.91 78.02 67.91 78.79 30.96 37.68 30.96 36.92"/><polygon points="30.96 36.16 67.91 77.26 67.91 78.02 30.96 36.92 30.96 36.16"/><polygon points="30.96 35.39 67.91 76.5 67.91 77.26 30.96 36.16 30.96 35.39"/><polygon points="30.96 34.63 67.91 75.73 67.91 76.5 30.96 35.39 30.96 34.63"/><polygon points="30.96 33.87 67.91 74.97 67.91 75.73 30.96 34.63 30.96 33.87"/><polygon points="30.96 33.1 67.91 74.21 67.91 74.97 30.96 33.87 30.96 33.1"/><polygon points="30.96 32.34 67.91 73.45 67.91 74.21 30.96 33.1 30.96 32.34"/><polygon points="30.96 31.58 67.91 72.68 67.91 73.44 30.96 32.34 30.96 31.58"/><polygon points="30.96 30.81 67.91 71.92 67.91 72.68 30.96 31.58 30.96 30.81"/><polygon points="30.96 30.05 67.91 71.16 67.91 71.92 30.96 30.81 30.96 30.05"/><polygon points="30.96 29.29 67.91 70.39 67.91 71.16 30.96 30.05 30.96 29.29"/><polygon points="30.96 28.52 67.91 69.63 67.91 70.39 30.96 29.29 30.96 28.52"/><polygon points="30.96 27.76 67.91 68.87 67.91 69.63 30.96 28.52 30.96 27.76"/><polygon points="30.96 27.62 31.27 27.34 67.91 68.1 67.91 68.87 30.96 27.76 30.96 27.62"/><polygon points="31.27 27.34 31.65 27 67.91 67.34 67.91 68.1 31.27 27.34"/><polygon points="31.65 27 32.03 26.66 67.91 66.58 67.91 67.34 31.65 27"/><polygon points="32.02 26.66 32.41 26.32 67.91 65.81 67.91 66.58 32.02 26.66"/><polygon points="32.41 26.32 32.78 25.98 67.91 65.05 67.91 65.81 32.41 26.32"/><polygon points="32.78 25.98 33.16 25.64 67.91 64.29 67.91 65.05 32.78 25.98"/><polygon points="33.16 25.64 33.54 25.3 67.91 63.52 67.91 64.29 33.16 25.64"/><polygon points="33.54 25.3 33.92 24.96 67.91 62.76 67.91 63.52 33.54 25.3"/><polygon points="33.92 24.96 34.3 24.61 67.91 62 67.91 62.76 33.92 24.96"/><polygon points="34.3 24.61 34.68 24.27 67.91 61.24 67.91 62 34.3 24.61"/><polygon points="34.68 24.27 35.06 23.93 67.91 60.47 67.91 61.24 34.68 24.27"/><polygon points="35.06 23.93 35.44 23.59 67.91 59.71 67.91 60.47 35.06 23.93"/><polygon points="35.44 23.59 35.82 23.25 67.91 58.95 67.91 59.71 35.44 23.59"/><polygon points="35.82 23.25 36.12 22.98 36.26 22.98 67.91 58.18 67.91 58.95 35.82 23.25"/><polygon points="36.95 22.98 67.91 57.42 67.91 58.18 36.26 22.98 36.95 22.98"/><polygon points="37.63 22.98 67.91 56.66 67.91 57.42 36.95 22.98 37.63 22.98"/><polygon points="38.32 22.98 67.91 55.89 67.91 56.66 37.63 22.98 38.32 22.98"/><polygon points="39.01 22.98 67.91 55.13 67.91 55.89 38.32 22.98 39.01 22.98"/><polygon points="39.69 22.98 67.91 54.37 67.91 55.13 39.01 22.98 39.69 22.98"/><polygon points="40.38 22.98 67.91 53.6 67.91 54.37 39.69 22.98 40.38 22.98"/><polygon points="41.06 22.98 67.91 52.84 67.91 53.6 40.38 22.98 41.06 22.98"/><polygon points="41.75 22.98 67.91 52.08 67.91 52.84 41.06 22.98 41.75 22.98"/><polygon points="42.44 22.98 67.91 51.32 67.91 52.08 41.75 22.98 42.44 22.98"/><polygon points="43.12 22.98 67.91 50.55 67.91 51.32 42.44 22.98 43.12 22.98"/><polygon points="43.81 22.98 67.91 49.79 67.91 50.55 43.12 22.98 43.81 22.98"/><polygon points="44.49 22.98 67.91 49.02 67.91 49.79 43.81 22.98 44.49 22.98"/><polygon points="45.18 22.98 67.91 48.26 67.91 49.02 44.49 22.98 45.18 22.98"/><polygon points="45.87 22.98 67.91 47.5 67.91 48.26 45.18 22.98 45.87 22.98"/><polygon points="46.55 22.98 67.91 46.74 67.91 47.5 45.87 22.98 46.55 22.98"/><polygon points="47.24 22.98 67.91 45.97 67.91 46.74 46.55 22.98 47.24 22.98"/><polygon points="47.92 22.98 67.91 45.21 67.91 45.97 47.24 22.98 47.92 22.98"/><polygon points="48.61 22.98 67.91 44.45 67.91 45.21 47.92 22.98 48.61 22.98"/><polygon points="49.3 22.98 67.91 43.68 67.91 44.45 48.61 22.98 49.3 22.98"/><polygon points="49.98 22.98 67.91 42.92 67.91 43.68 49.3 22.98 49.98 22.98"/><polygon points="50.67 22.98 67.91 42.16 67.91 42.92 49.98 22.98 50.67 22.98"/><polygon points="51.35 22.98 67.91 41.4 67.91 42.16 50.67 22.98 51.35 22.98"/><polygon points="52.04 22.98 67.91 40.63 67.91 41.4 51.35 22.98 52.04 22.98"/><polygon points="52.73 22.98 67.91 39.87 67.91 40.63 52.04 22.98 52.73 22.98"/><polygon points="53.41 22.98 67.91 39.1 67.91 39.87 52.73 22.98 53.41 22.98"/><polygon points="54.1 22.98 67.91 38.34 67.91 39.1 53.41 22.98 54.1 22.98"/><polygon points="54.78 22.98 67.91 37.58 67.91 38.34 54.1 22.98 54.78 22.98"/><polygon points="55.47 22.98 67.91 36.82 67.91 37.58 54.78 22.98 55.47 22.98"/><polygon points="56.16 22.98 67.91 36.05 67.91 36.82 55.47 22.98 56.16 22.98"/><polygon points="56.84 22.98 67.91 35.29 67.91 36.05 56.16 22.98 56.84 22.98"/><polygon points="57.53 22.98 67.91 34.53 67.91 35.29 56.84 22.98 57.53 22.98"/><polygon points="66.16 22.98 67.91 24.93 67.91 34.53 57.53 22.98 66.16 22.98"/><polygon points="67.91 24.93 66.16 22.98 67.91 22.98 67.91 24.93"/></g></svg>