<?xml version="1.0" encoding="utf-8"?><svg id="Layer_1" data-name="Layer 1" xmlns="http://www.w3.org/2000/svg" xmlns:xlink="http://www.w3.org/1999/xlink" viewBox="0 0 400 400"><defs><style>.cls-1{fill:#c2d500;}.cls-2{fill:#ffc629;}.cls-3{fill:none;}.cls-4{clip-path:url(#clip-path);}.cls-5{clip-path:url(#clip-path-2);}.cls-6{clip-path:url(#clip-path-3);}.cls-7{fill:#fff;}.cls-8{fill:#d50057;}.cls-9{fill:#d6d6d6;}.cls-10{fill:#e3e8e7;}</style><clipPath id="clip-path"><circle class="cls-1" cx="200" cy="200" r="200"/></clipPath><clipPath id="clip-path-2"><circle class="cls-2" cx="200" cy="-222.11" r="200"/></clipPath><clipPath id="clip-path-3"><circle class="cls-3" cx="200" cy="200" r="200"/></clipPath></defs><title>4Artboard 1 copy 10</title><circle class="cls-1" cx="200" cy="200" r="200"/><g class="cls-4"><circle class="cls-1" cx="234.97" cy="188.23" r="276.69"/></g><circle class="cls-2" cx="200" cy="-222.11" r="200"/><g class="cls-5"><circle class="cls-2" cx="234.97" cy="-233.88" r="276.69"/></g><g class="cls-6"><path class="cls-7" d="M325.51,184.05V312.46a29.94,29.94,0,0,1-29.94,29.94l-103.69.44-60.74,66.81V342.84h-43A29.94,29.94,0,0,1,58.25,312.9V184.48a29.94,29.94,0,0,1,29.93-29.94l207.38-.43A30,30,0,0,1,325.51,184.05Z"/><path class="cls-8" d="M380.61,87.72l-207.38-.43a30,30,0,0,0-29.95,29.94v37.19l152.29-.32a30,30,0,0,1,29.94,30v112L368,342.84V276h12.58a30,30,0,0,0,29.94-29.94V117.67A30,30,0,0,0,380.61,87.72Z"/></g><circle class="cls-9" cx="91.9" cy="181.6" r="7.94"/><path class="cls-9" d="M79.62,201.82a12.29,12.29,0,0,1,24.57,0"/><rect class="cls-9" x="126.04" y="173.46" width="91.34" height="6.27"/><rect class="cls-10" x="126.04" y="201.73" width="177.88" height="6.27"/><rect class="cls-10" x="126.04" y="215.29" width="177.88" height="6.27"/><rect class="cls-10" x="126.04" y="228.86" width="177.88" height="6.27"/><rect class="cls-10" x="126.04" y="263.52" width="177.88" height="6.27"/><rect class="cls-10" x="126.04" y="277.49" width="177.88" height="6.27"/><rect class="cls-10" x="126.04" y="291.46" width="177.88" height="6.27"/><rect class="cls-10" x="126.04" y="319.39" width="91.34" height="6.27"/><rect class="cls-10" x="126.04" y="305.42" width="177.88" height="6.27"/><rect class="cls-10" x="126.04" y="242.24" width="91.34" height="6.27"/></svg>