<?xml version="1.0" encoding="utf-8"?><svg xmlns="http://www.w3.org/2000/svg" xmlns:xlink="http://www.w3.org/1999/xlink" viewBox="0 0 400 400"><defs><style>.cls-1{fill:none;}.cls-2{fill:#0093d2;}.cls-3{fill:#ffc629;}.cls-4{isolation:isolate;}.cls-5{clip-path:url(#clip-path);}.cls-6{fill:#d50057;}.cls-7{clip-path:url(#clip-path-2);}.cls-8{opacity:0.1;}.cls-9{clip-path:url(#clip-path-3);}.cls-10{clip-path:url(#clip-path-4);}.cls-11{opacity:0.55;}.cls-11,.cls-13{mix-blend-mode:multiply;}.cls-12{fill:#f2f2f2;}.cls-13{opacity:0.36;}.cls-14{fill:#2394e0;}.cls-15{clip-path:url(#clip-path-5);}.cls-16{fill:#f26322;}.cls-17{fill:#c2d500;}.cls-18{fill:#9c5c8f;}.cls-19{fill:#e0262c;}</style><clipPath id="clip-path"><circle class="cls-1" cx="200" cy="-222.11" r="200"/></clipPath><clipPath id="clip-path-2"><circle class="cls-2" cx="200" cy="200" r="200"/></clipPath><clipPath id="clip-path-3"><circle class="cls-3" cx="200" cy="622.11" r="200"/></clipPath><clipPath id="clip-path-4"><circle class="cls-1" cx="200" cy="200" r="200"/></clipPath><clipPath id="clip-path-5"><circle class="cls-1" cx="200" cy="200.02" r="200"/></clipPath></defs><title>4Artboard 1 copy 8</title><g class="cls-4"><g id="Layer_1" data-name="Layer 1"><g class="cls-5"><circle class="cls-6" cx="234.97" cy="-233.88" r="276.69"/></g><circle class="cls-2" cx="200" cy="200" r="200"/><g class="cls-7"><g class="cls-8"><circle class="cls-2" cx="234.97" cy="188.23" r="276.69"/></g></g><circle class="cls-3" cx="200" cy="622.11" r="200"/><g class="cls-9"><circle class="cls-3" cx="234.97" cy="610.33" r="276.69"/></g><g class="cls-10"><g class="cls-11"><circle class="cls-2" cx="293.04" cy="200" r="148.7"/></g><path class="cls-12" d="M356.68,189.49c.16.11-.38.86,0,1.43s1,.32,1.25.78-.37.74-.36,1.49.71,1,1,2a3.55,3.55,0,0,1-.18,1.79c-.64,2.55-1,3.83-1.31,4.11a3.35,3.35,0,0,1-3.64.06c-1.57-1-1.68-3-1.73-3.75C351.41,192.75,356.28,189.22,356.68,189.49Z"/><path class="cls-12" d="M313.14,202.52c-.58-.41-1.5,1-3.81,1.59-2.61.71-3.22-.55-5,.24-1.47.66-1.2,1.59-4.13,4.45-1.25,1.23-1.21,1-2,1.83-1.88,2.09-2.46,4-3.26,3.89-.39-.06-.3-.53-.79-.8-.68-.36-1.49.21-5.49,2.86-.1.07-.43.34-2,1.51-.93.7-1.19.89-1.27,1.27s0,.55.71,2c.58,1.23.66,1.43.56,1.59-.31.47-1.64-.4-2.46.24-.37.28-.47.74-.64,1.59-.26,1.26.06,1.45-.16,1.9-.7,1.44-4.39.43-5,1.83-.18.39.1.5-.08,1.27-.29,1.18-1.08,1.48-1,2,.18.73,1.93.56,2.07,1.19s-1.78,1.23-1.75,2.22c0,.8,1.27.87,1.75,2.15.39,1-.14,1.74.24,2s1.42-.85,3.65-1.82c1.1-.48,1.14-.31,2.07-.72a12.37,12.37,0,0,0,3.81-2.94,42.37,42.37,0,0,0,3.58-4,40.92,40.92,0,0,0,3.09-4.37c1.29-2.11,1.28-2.57,2.23-3.41,1.35-1.2,2.24-1,2.78-2.15s-.09-1.54.48-3a4.83,4.83,0,0,1,1.35-2c1.14-1,1.84-.53,2.62-1.35s.24-1.65,1-3.1a6.39,6.39,0,0,1,2.3-2.23c2-1.36,2.79-1,3.74-2.06S313.73,202.94,313.14,202.52Z"/><path class="cls-12" d="M279.79,225.12c-.33-.34-1-.81-1.46-.59s-.23.54-.6,1.64a4.33,4.33,0,0,1-.71,1.55c-.67.77-1.45.69-1.52,1.19a.83.83,0,0,0,.62.83c.38.07.71-.28,1.13-.74.65-.7.53-.91.93-1.28.84-.8,1.85-.31,2.17-.93S280.15,225.5,279.79,225.12Z"/><path class="cls-12" d="M272.67,227.72c.42,0,.74.35,1.1.77s1,1.12.71,1.7a1.43,1.43,0,0,1-1.6.65,1.69,1.69,0,0,1-1.29-1.69C271.62,228.49,272.1,227.75,272.67,227.72Z"/><path class="cls-12" d="M283.33,216.57a.73.73,0,0,1,.3.72c-.06.54-.72,1-1.07.83s-.34-.53-.27-.83C282.41,216.8,283,216.41,283.33,216.57Z"/><path class="cls-12" d="M283.21,220.24a1,1,0,0,1-.18,1,1,1,0,0,1-1.37.21,1,1,0,0,1,0-1.43A1,1,0,0,1,283.21,220.24Z"/><path class="cls-12" d="M285.3,217.5c.19.13.19.52,0,.77s-.63.44-.84.27a.59.59,0,0,1-.06-.63C284.59,217.56,285.07,217.34,285.3,217.5Z"/><path class="cls-12" d="M283.81,222.12c.17.16.06.49.06.5a.76.76,0,0,1-1,.45.53.53,0,0,1-.3-.51A.89.89,0,0,1,283.81,222.12Z"/><path class="cls-12" d="M272.51,207a1,1,0,0,1,.28,1,1,1,0,0,1-1.08.68,1,1,0,0,1-.55-1.47A1,1,0,0,1,272.51,207Z"/><path class="cls-12" d="M277.71,209.35c.57.37.36,1.62,0,1.71s-.45-.28-.59-.47-.62-.81-.36-1.16A.74.74,0,0,1,277.71,209.35Z"/><path class="cls-12" d="M279.9,241.81c-.47.37-1.39-.7-2.31-.32-.38.16-.72.56-.67.87s.7.52.67.68-1.61-.29-3.1.4c-.54.25-1.16.7-1.31.55s.08-.25,0-.36-1.25.62-2.3.32c-.4-.11-.32-.26-.8-.43a3.53,3.53,0,0,0-2.1.07,6.34,6.34,0,0,0-1.67.6c-.87.47-.84.73-1.47,1a4.36,4.36,0,0,1-2.22.12,19.82,19.82,0,0,0-2.55-.31c-.88,0-.8.22-1.7.23a10.18,10.18,0,0,0-2,0c-.19,0-.08,0-.91.24-1.4.36-1.59.35-1.75.32-.56-.1-.53-.39-1.15-.52s-1.32,0-1.47.32.51.94.39,1.07-.93-.26-1.5-1c-.3-.36-.64-.76-.52-1.15a1.35,1.35,0,0,1,1.63-.6c.32.13.3.33.75.56.07,0,.81.39,1.11.12s0-.54.2-.84.94-.3,1.31-.27c2.08.16,3.42.27,3.66-.16s-.27-1.09-.88-1.47c-1.17-.75-2.78,0-2.82-.2a4.09,4.09,0,0,1,1.63-.68,8.39,8.39,0,0,1,1.51-.28c1.57-.11,1.64.45,2.74.24.95-.18,1.26-.66,2.07-.51.19,0,.48.11.63,0s-.06-.7.12-.84.6.11.88.36.33.56.63.91a2.12,2.12,0,0,0,.92.6c.93.34,1.32-.36,2.66-.32.7,0,.75.22,1.86.28s1.28-.11,1.39-.24c.33-.37-.06-.84.16-1.31s1.29-.51,3.1-.71c2.38-.27,3.74-.78,4-.24.16.27-.12.5.08.91s.85.41,1.12.91A1,1,0,0,1,279.9,241.81Z"/><path class="cls-12" d="M247.88,244.51c.47-.2,1.3.4,1.27.83,0,.23-.27.29-.32.64s.14.43.08.59c-.16.47-1.95.52-2.14,0-.08-.2.17-.31.59-1.15C247.69,244.79,247.67,244.6,247.88,244.51Z"/><path class="cls-12" d="M245.42,244.63c.1,0,.75.14.91.67a1.08,1.08,0,0,1-.52,1.15,1.55,1.55,0,0,1-1.19.08,1.18,1.18,0,0,1-.83-.35.87.87,0,0,1-.12-.84c.13-.29.41-.4.83-.55A1.59,1.59,0,0,1,245.42,244.63Z"/><path class="cls-12" d="M243.63,243.59c.05,0-.2.33-.56.92s-.44.85-.59.83-.33-.4-.28-.43.86.64.72,1-.5.26-.76.24c-.5,0-.61-.35-1.11-.56-.84-.35-1.49.1-1.67-.2s.2-.72.44-.95a2.22,2.22,0,0,1,1.51-.56c.71,0,.88.37,1.43.24S243.57,243.54,243.63,243.59Z"/><path class="cls-12" d="M240.06,247.49c-.06-.38-1.18-.61-2.07-.52a3.89,3.89,0,0,0-1.39.44,4.67,4.67,0,0,0-1.35,1c-.33.37-.85,1-.68,1.27s1.17.34,1.79-.12.38-.78.84-1.07a2.23,2.23,0,0,1,2.1.16s-.47.08-.52,0S240.12,247.93,240.06,247.49Z"/><path class="cls-12" d="M250.58,240.77c.28.09.58.19.6.36,0,.33-1,1-1.55.64a.82.82,0,0,1-.36-1C249.51,240.43,250.47,240.74,250.58,240.77Z"/><path class="cls-12" d="M236.88,243.87c.37.1.36.24,1,.48s.82.2.83.32-.63.48-1.27.63a7.12,7.12,0,0,1-3.21-.12c-1.18-.21-1-.26-2.59-.55-1.21-.23-2.26-.4-2.26-.4-.82-.13-1-.15-1.35-.24a12.55,12.55,0,0,1-1.87-.67c-1.71-.68-2.8-.8-2.78-.92a3.51,3.51,0,0,1,1.59.08c1.26.27,1.19.66,2,.72s1.43-.28,2.42-.16a2.36,2.36,0,0,1,.52.12,4.52,4.52,0,0,1,.91.59,2.4,2.4,0,0,0,.75.4c.61.16.82-.17,1.63-.08.38.05.33.12.72.16a4.39,4.39,0,0,0,1.43-.16C236.6,243.84,236.69,243.82,236.88,243.87Z"/><path class="cls-12" d="M229.93,250.82c-.47.42-2-.25-2-.83,0-.3.4-.57.71-.64a1.22,1.22,0,0,1,1.39,1A.52.52,0,0,1,229.93,250.82Z"/><path class="cls-12" d="M232.51,249.63a.7.7,0,0,1,.71.72c-.08.37-.88.54-1.11.28A.73.73,0,0,1,232.51,249.63Z"/><path class="cls-12" d="M218.57,242.28c.23-.12.48.32,1.23.68a5.6,5.6,0,0,0,1.78.44c.88.11,1.16,0,1.43.27s.09.67.36,1c.54.72,1.91-.08,2.78.71a2.89,2.89,0,0,1,.68,1.23c0,.17.17.63.28,1.08s.13.58.27.71c.32.29.83.15.84.2a2.13,2.13,0,0,1-1.51.28,3.54,3.54,0,0,1-2.07-1.39c-.52-.64-.37-.78-.87-1.31A8.78,8.78,0,0,0,222,245a19.16,19.16,0,0,0-1.87-1c-.89-.34-1.39-.31-1.62-.75S218.35,242.39,218.57,242.28Z"/><path class="cls-12" d="M218.68,239.78c.15-.09.41.45,1.16.68.53.16.64-.05,1.15.12a2.26,2.26,0,0,1,1.23,1.07c.12.21.37.73.24.83s-.6-.54-1.55-.87-1.18,0-1.67-.36S218.51,239.89,218.68,239.78Z"/><path class="cls-12" d="M214.75,241.45a1.09,1.09,0,0,1,1.63.16.65.65,0,0,1-.12.67,1,1,0,0,1-1.55-.19A.66.66,0,0,1,214.75,241.45Z"/><path class="cls-12" d="M235.92,234.78a1.37,1.37,0,0,0,.56,1,1.31,1.31,0,0,0,1.47-.32c.48-.52.13-1.19.08-3.06,0-1.13-.07-2.51.48-2.74s1.3.93,1.58.76c.5-.3-2-3.48-2.46-8-.14-1.52,0-2.53-.67-4a6.65,6.65,0,0,0-2.39-2.82,5.8,5.8,0,0,0-3.65-1c-1.45.13-1.76.84-3.26.79a5.37,5.37,0,0,1-2.22-.59c-1.75-.88-2.41-2.34-2.78-2.15-.22.11-.16.69,0,1.07.21.73.77,1.27,2.34,2.15a11.32,11.32,0,0,0,3.3,1.51,24.77,24.77,0,0,0,4.88-.56c1.19-.18,1.68-.27,2.19,0,1,.65,1,2.31,1,2.66,0,1.16-.49,2.84-1.47,3.06-.54.13-.71-.31-1.95-.91-1.76-.86-2-.24-4.21-1.11-.66-.27-1.13-.52-1.66-.32s-1,.82-.88,1.19.85.12,2.07.6a6.1,6.1,0,0,1,2.42,1.51,1.37,1.37,0,0,0,.72.51c.52.12.87-.28,1.11-.12s.2.73,0,1.15c-.3.64-.79.57-1.67,1.43-.42.42-.77.77-.76,1.24,0,.27.15.35.24.83a1.65,1.65,0,0,1,0,1c-.26.69-1.32.55-1.59,1.31a.72.72,0,0,0,0,.44c.23.62,1.77.27,2.11.95.17.36-.14.64.08,1a1,1,0,0,0,1.27.2c.46-.32.37-1.16.32-1.67-.09-.86-.39-1.18-.2-1.43s1.12.17,1.59-.2c.75-.59-.49-2.79.12-3.22.35-.24,1.18.21,1.67.76a4.1,4.1,0,0,1,.71,3.06C236.3,232.47,235.63,233.17,235.92,234.78Z"/><path class="cls-12" d="M229,232.43a1.54,1.54,0,0,1,1,.92c.06.12.6,1.13.11,1.74a.9.9,0,0,1-.63.36c-.94.06-2.1-1.71-1.63-2.54A1.16,1.16,0,0,1,229,232.43Z"/><path class="cls-12" d="M219,226.71a1.31,1.31,0,0,1,.92.48,1.25,1.25,0,0,1-.16,1.27,1.71,1.71,0,0,1-2.15.52,1.54,1.54,0,0,1-.75-1.83C217.26,226.36,218.75,226.66,219,226.71Z"/><path class="cls-12" d="M264.84,214c.37-.16,2.49-1.07,3.42-.32s-.21,2.07.24,4.93c.35,2.23,1.26,3.07.71,3.89-.65,1-2.28.32-2.86,1.35-.4.71.26,1.24,0,2.86-.13.82-.23,1.47-.71,1.83-1.16.86-3.39-.75-3.9-.08-.26.35.29.86,0,1.35-.49.85-2.83.52-2.86.24s.55-.18.56-.4c0-.46-2.49-1.29-3.1-.55-.36.44.15,1.19-.24,1.51s-1-.3-1.59,0-.5,1-.95,1.11-1-.92-1.43-.8-.36,1.37-.71,1.43-.87-1.88-1.67-1.9c-.6,0-.94,1.06-1.35.95s-.16-.77-.64-1.67-.9-.78-1-1.35c-.23-1,1.09-1.69.79-2.54-.18-.52-.72-.39-1-1s.19-1.22-.16-1.83-.69-.33-1.51-.87a3.82,3.82,0,0,1-1.43-1.67c-.24-.62,0-.79-.08-2.47s-.3-2-.39-2.06c-.45-.34-.92.05-1.83-.32-.21-.08-.94-.38-1-.79s.74-.52,1.67-1.35c.42-.38,1.38-1.24,1.27-2.15-.07-.58-.52-.79-.39-1.11.21-.54,1.6-.31,1.66-.64s-1.47-.6-1.66-1.51c-.13-.6.46-.94.24-1.43s-.93-.31-1.36-1a1.71,1.71,0,0,1-.23-1c0-.83.56-1.17.39-1.43s-.61,0-1.59-.16a1.44,1.44,0,0,1-1-.48,1,1,0,0,1-.08-.87c.39-.81,2,0,3.34-1,.35-.25.09-.2,1.59-2.14a3.44,3.44,0,0,0,.63-1c.27-.73.15-1.31.32-1.35s.22.38.72.87.67.44.71.72-.33.55-.24.71.65-.14,1.12.08c.24.11.36.33.79,1.51s.43,1.28.56,1.43c.62.73,1.56.45,1.74,1s-.9,1.27-.71,1.59,1.45-.49,2.7-.08a4,4,0,0,1,2.06,2.23s-.64-.87-.63-.88a9.5,9.5,0,0,0,2.22,2.54c1.31,1,1.62.59,2.94,1.67.93.76,1.27,1.37,2,1.35s1-.65,1.43-.47c.09,0,.4.22.4,2s-.31,2.42,0,2.62S263.6,214.58,264.84,214Z"/><path class="cls-12" d="M225.16,223.58c.21-.27,0-1-.52-1.36s-1-.32-4.17.56c-2,.57-2.19.68-2.18.72a11.75,11.75,0,0,1,4.76-.24C224.11,223.49,224.91,223.89,225.16,223.58Z"/><path class="cls-12" d="M216.1,220.91a.76.76,0,0,1,.16.8A1,1,0,0,1,215,222c-.35-.19-.63-.63-.52-.92A1.11,1.11,0,0,1,216.1,220.91Z"/><path class="cls-12" d="M217,218.13a.87.87,0,0,1,.55,1.19.86.86,0,0,1-1.19.36A.78.78,0,0,1,216,219,.91.91,0,0,1,217,218.13Z"/><path class="cls-12" d="M215,210.51c.15-.06.55.72,1,1.51.61,1.17.55,1.36.48,1.43s-.44,0-.63-.08-.4-.43-.6-1.39S214.84,210.55,215,210.51Z"/><path class="cls-12" d="M213.64,209.43c.22-.1.92.38.79.84a.56.56,0,0,1-.59.4C213.47,210.55,213.39,209.56,213.64,209.43Z"/><path class="cls-12" d="M213.64,211.7c.34.05-.07,1.8.79,2.34a5.06,5.06,0,0,1,1,.64,1.37,1.37,0,0,1,.32.32,1.78,1.78,0,0,1,.15,1.31,8.41,8.41,0,0,1-.43,1.35,3.65,3.65,0,0,1-.48,1c-.22.28-.61.68-.75.6s.12-.72.43-2c.25-1,.49-2,.2-2.19s-.83.75-1.51.6c-.44-.1-.77-.6-.67-.79s.78.05,1-.2-.65-.85-.68-1.75C213,212.29,213.43,211.66,213.64,211.7Z"/><path class="cls-12" d="M209.83,221.59c.86-.32,2,.67,1.94,1.23s-1.92,1.12-2.5.48a1.14,1.14,0,0,1-.2-.8A1.19,1.19,0,0,1,209.83,221.59Z"/><path class="cls-12" d="M210.66,225.2c.46,0,.44.24,1.19.36a11.78,11.78,0,0,0,1.35,0,3.84,3.84,0,0,1,1.35.16c.28.1.59.23.68.52a.7.7,0,0,1-.24.71c-.4.32-.86-.19-1.71,0s-.7.55-1.27.56-.85-.62-1.67-.64a2.08,2.08,0,0,0-1,.24c-.43.25-.56.57-1,.68-.11,0-.39.08-.48,0s.48-1,.6-1.16C208.94,226.05,209.71,225.16,210.66,225.2Z"/><path class="cls-12" d="M204.19,217.5c.34.13.35.3,1.15.71.38.2.44.19.55.32.34.36.15.75.52,1.19.11.13.28.34.48.32s.27-.68.75-1,1.17-.27,1.27,0-.06.25-.51.83a10.67,10.67,0,0,1-.8,1c-.66.52-1.17.18-1.86.76a3.19,3.19,0,0,0-.52.59c-.58.78-.45,1-.72,1.16-.51.26-1.13-.58-2.78-.92-.38-.08-.69-.1-.87.08a.74.74,0,0,0,0,.92c.37.36,1.09-.27,1.75.12.39.23.28.55.71.75s.45,0,1.19,0,1.13,0,1.2.16-.66,1-1.59,1.23c-.72.14-1.22-.14-1.39.12-.06.08-.11.24.23.91.57,1.11,1.11,1.46,1,1.67s-1,.24-1.67-.2c-1.1-.7-1.13-2.21-1.51-2.18s-.24,1.24-1,1.71c-.37.21-.67.11-1.15.12-.65,0-1.09.18-3.06,1.27a31,31,0,0,0-2.82,1.62,6,6,0,0,0-1.83,3.18c-.11.57-.3,1.57.24,2.07s.94.06,1.59.51c.45.33.38.63.95,1.55.71,1.15,1.22,1.32,1.11,1.59-.19.51-2.3.66-3.61-.39-.83-.67-.9-1.47-1.51-1.51-.17,0-.47,0-1.55,1.31s-1.77,2.09-1.51,2.54,1.07.25,1.07.24-2.34.22-3.37-1.08c-.25-.31-.17-.39-.48-.75-.7-.81-1.29-.58-1.95-1.23-.38-.38-.19-.48-.91-1.79a4,4,0,0,0-.95-1.39,2.42,2.42,0,0,0-2.9.64c-.44.58-.07.87-.48,1.82a4.18,4.18,0,0,1-2.23,2.15c-.54.22-.63.09-1.43.4-1,.36-1.33.74-1.5.59s0-.85.39-1.31.71-.34,1.11-.67c.76-.63.26-1.56.92-3.5a10.75,10.75,0,0,1,.63-1.47c.63-1.16,1.15-1.58,1.08-2.34a1.27,1.27,0,0,0-.36-.84c-.33-.29-.69-.14-.91-.43a.84.84,0,0,1,0-.84c.19-.41.69-.53,1.07-.63.94-.28,2.36-.68,2.86-1.51s-.18-1.2.2-2.07c.3-.7.88-.82,2.5-1.63,2.28-1.14,2.15-1.41,4.17-2.3,1.25-.55,2.34-.92,2.34-.92a14.67,14.67,0,0,0,2.07-.67c1.32-.67,1.48-1.38,2.18-1.31a2,2,0,0,1,1.39,1.19c.35.73,0,1.07.32,1.51.54.73,1.72.07,2.35.75s-.15,1.45.47,2.59c.33.6,1,1.22,1.55,1.11.32-.07.49-.35.95-1.19.8-1.46,1.2-2.18,1.24-2.31a12.92,12.92,0,0,0,.19-3.33c0-.54,0-1,.28-1.23s.65,0,1.47,0C203.17,217.85,203.45,217.21,204.19,217.5Z"/><path class="cls-12" d="M196.92,216.62a.81.81,0,0,1,.28,1,.83.83,0,0,1-.88.47.8.8,0,0,1-.71-.71A1,1,0,0,1,196.92,216.62Z"/><path class="cls-12" d="M209.63,216.11c.17.21-.07.75-.44,1a1.37,1.37,0,0,1-.95.24c-.48,0-1.15-.25-1.15-.52s1.35-.69,1.66-.75S209.5,216,209.63,216.11Z"/><path class="cls-12" d="M195.61,219.48a1,1,0,0,1,.51,1,1.26,1.26,0,0,1-1.86.43.86.86,0,0,1-.16-.91A1.12,1.12,0,0,1,195.61,219.48Z"/><path class="cls-12" d="M168.08,222.42c.31.21.21,1.15-.32,1.63-.25.23-.71.45-.95.28s-.18-.81,0-1.19S167.8,222.24,168.08,222.42Z"/><path class="cls-12" d="M173,227.63c-.19-.33-1.07.36-2-.12-.59-.3-.67-.77-1.47-1-.31-.1-.44-.07-.64-.23-.46-.38-.34-1-.59-1.08s-.39.24-.44.48.17.63.4.91a2.89,2.89,0,0,0,.43.44c.89.72.62,1.93,1.39,2.38a1.64,1.64,0,0,0,1.28,0C172.48,229.11,173.26,228,173,227.63Z"/><path class="cls-12" d="M174.79,217.22a.68.68,0,0,1,.2.71.87.87,0,0,1-1.27.4.75.75,0,0,1-.08-.91A.81.81,0,0,1,174.79,217.22Z"/><path class="cls-12" d="M169.59,218.05c.11.18-.15.58-.4.8-.45.41-.86.23-1.59.51s-1.26,1-1.35.92.24-.8.84-1.35C168,218.08,169.39,217.75,169.59,218.05Z"/><path class="cls-12" d="M165.74,222.46c-.3.65-.32.92-.4.92s-.38-.78,0-1.31.74-.58.83-.48S166,221.86,165.74,222.46Z"/><path class="cls-12" d="M163.71,225.16c.27.06.25,1.21.16,1.87-.05.35-.14,1.05-.36,1.07s-.55-.65-.55-1.31C162.94,226,163.46,225.11,163.71,225.16Z"/><path class="cls-12" d="M161.84,227.51c.2,0,.44.69.28,1.27-.11.41-.43.8-.59.75s-.13-.78-.12-.87C161.45,228.19,161.64,227.5,161.84,227.51Z"/><path class="cls-12" d="M161.84,230.76c.21.08.21.8,0,1.36-.13.3-.41.72-.59.67s-.23-.6-.12-1S161.64,230.7,161.84,230.76Z"/><path class="cls-12" d="M159.86,233.66c.21.14.16.67-.08,1s-.68.51-.88.36-.09-.6.08-.88S159.65,233.53,159.86,233.66Z"/><path class="cls-12" d="M210.82,249.31c.3-.1.85.34,1,.88a1.14,1.14,0,0,1-.12.91c-.5.75-2.22.76-3-.08-.44-.46-.59-1.19-.39-1.35s.33.06,1.27.32c.49.13.62.14.75.08C210.65,249.9,210.55,249.41,210.82,249.31Z"/><path class="cls-12" d="M206.17,249c.44.05,1.21.26,1.23.59s-.2.37-.39.44c-.42.15-.71-.23-1-.08s-.28.91-.27,1a1.66,1.66,0,0,0,.39.92,2.49,2.49,0,0,0,1.71.63c1.36.15,1.65-.25,2.3.08a5.56,5.56,0,0,1,1.08,1.15,8.63,8.63,0,0,1,1.07,1.47c.34.68.18.78.56,1.47a8.09,8.09,0,0,0,.83,1.19,5,5,0,0,0,.87,1,7.7,7.7,0,0,0,3,.87c.47-.09.39-.26,1.19-.63s1.64-.47,1.63-.64-.32-.21-.35-.16.47.66,1.15.92a2.35,2.35,0,0,0,1.31.11s-.43-.13-.48,0,1.33,1,1.31,1a1.82,1.82,0,0,1-.51-.32,2.56,2.56,0,0,0,1.35.32c.22,0,.33-.1.51,0a1,1,0,0,1,.52.59c.09.28,0,.33,0,.76a1.67,1.67,0,0,0,.28.83,1.09,1.09,0,0,0,.51.44c.33.12.56,0,.68.12s0,.29,0,.48c0,.74,1.28,1.41,1.27,1.43a10.57,10.57,0,0,0-.91-.56,9.29,9.29,0,0,1,1.23,1.15c.2.24.36.47.51.44s.17-.47.52-.68a.52.52,0,0,1,.4-.08c.28.13.24.84.2,1.39-.09,1.13-.33,1.4-.12,1.69a1.22,1.22,0,0,0,1.49.18,1.62,1.62,0,0,0,.53-2c-.08,0-.28.13-.3.3,0,.32.56.54,1.61,1.25s1.21,1,1.2,1.2-.33.32-.48.71a1.63,1.63,0,0,0,.3,1.43c.58.8,1.34.37,2.08,1.13s.25,1.07,1,1.73c.44.42.66.32,1.25.83s.52.83,1,1.14c.83.59,1.55-.17,3,.23a6.13,6.13,0,0,1,1.73.9c1,.62,1,.88,1.61,1.25,1.59,1,3.76.73,3.81.48s-1-.56-1.07-.48a6.63,6.63,0,0,0,1.66,1.13c.7.38.84.38,1.37.66,2.06,1.06,2.12,2.24,3.52,2.44.49.07.88,0,1.19.3a1.8,1.8,0,0,1,.36,1.25,3.82,3.82,0,0,1,.18-1.91c.09-.23.21-.51.42-.53a3.07,3.07,0,0,1,1.93,1.19,5.22,5.22,0,0,0,1.16,1.73v-.48c0,.57-1.3,1.43-1,2.36.16.55-.24,1.08.24,1.43s.4.21.55.48c.31.53-.57,1.51-.78,1.79-.78,1-1.47,1-1.66,1.74s.09,1.48.52,1.59.9-.38,1.14-.75c.36-.56.29-1.1.47-1.11s.36.32.39.67c.07.9-1.19,1.47-1,1.79s.86.25,1.39-.12c.83-.58.7-1.82,1-1.83s.53.61.43,1.19-.44.6-1.23,1.59c-.58.73-.43.73-.79,1.08s-.93.6-1.08,1.11c-.06.22,0,.24,0,.55a2.78,2.78,0,0,1-.55,1.24c-.74,1.05-1.21,1.1-1.19,1.5s.69.48.91,1.16a2.51,2.51,0,0,1-.36,1.74c-.21.48-.34.54-.55,1.08a4.37,4.37,0,0,0-.32,1.11,3.38,3.38,0,0,0,.83,2.74c.44.43.73.38,1.43,1.07.37.37.68.68.6.9-.14.38-1.23-.07-2.33.59-.44.27-.41.44-.77.6a3,3,0,0,1-2.44-.48,35.49,35.49,0,0,0-4.23-1.43,33.22,33.22,0,0,0-4.35-1c-1.26-.22-2.5-.49-3.76-.72a4.91,4.91,0,0,1-2-.59c-1-.64-1-1.39-1.79-2.09s-1.22-.49-2.8-.83c-3.48-.76-3.75-1.87-6.79-2.27a6.66,6.66,0,0,1-1.79-.35c-1.47-.56-1.52-1.3-2.68-1.67-.81-.26-.71.12-3.16.18-1.48,0-2.15-.09-2.62.41a2.85,2.85,0,0,0-.54,1.2c0,.15-.06.5-.12,1.19a11.13,11.13,0,0,0-.06,1.13c0,.25.09.55.18,1.07s.11.53.06.6c-.2.27-1.24-.13-1.9-.48-2.74-1.42-3.75-4.28-4.12-4.11-.21.1-.11,1.22.48,2.2.94,1.55,2.59,1.89,2.47,2.27s-.88.35-1.49.06-.81-1-1-.9-.28.77,0,1.2c.14.19.29.22.72.65s.31.38.29.42-.7-.18-1,.09-.17.66-.15.77c.09.55.47.66.48,1.13,0,.08,0,.47-.21.63-.51.37-1.6-.95-2.38-.6-.51.24-.4.95-.78,1s-.75-1.06-2-2c-.5-.38-1.25-.81-1.49-.59s.27,1,0,1.25-1-.19-1.55-.6c-.71-.56-.63-.89-1.13-1.31-.87-.72-1.68-.26-2.69-.72a4.06,4.06,0,0,1-1.84-2.5c-1.57-4.09-7.3-6.48-12.75-14.83a38.06,38.06,0,0,1-3.28-6.32c-.95-2.33-1.42-3.5-1.43-4.77,0-1.77.59-2.9-.12-4.52-.23-.54-.7-1.35-.48-1.55s.79.31,1,.12-.55-1.17-.3-2.33c.09-.44.24-.43.3-.89.09-.82-.36-1-.24-1.61a2.56,2.56,0,0,1,1.25-1.43c.5-.3.81-.28.89-.54s-.39-.57-.59-1.19c-.27-.82.39-1.14.42-2.44,0-1-.35-1-.24-1.79.13-1.06.78-1.27.65-2s-.72-.61-1-1.43a2.05,2.05,0,0,1,.3-2,1.43,1.43,0,0,1,1.31-.6c.34.09.39.38.53.36.43-.07.87-2.86.12-5.9-.41-1.7-1.08-3-.53-3.45a.75.75,0,0,1,.77-.12c.49.22.49,1.07.6,1.84s.2.61,1.13,3.16a35.14,35.14,0,0,1,1.49,4.53c.44,2.31,0,2.74.65,4.23a18,18,0,0,0,1.61,2.38c1,1.39.73.79,2,2.39.61.79.87,1.17,1.19,1.13s.35-.89,1-1.55a4.12,4.12,0,0,1,3-.77s-.39.12-.47,0,.53-1.25,1.55-1.73c1.18-.56,2.1,0,2.56-.66a1.49,1.49,0,0,0,.12-1.19c-.17-.85-.7-1.05-1.73-2.44a4.52,4.52,0,0,1-.84-1.37c-.19-.84.19-1.32-.17-1.91-.22-.35-.38-.24-.9-.71-.23-.21-1.18-1.09-1-1.85.1-.32.41-.64.65-.6.43.08.23,1.14.84,1.61.82.63,2.65-.16,2.62-.48s-1.56-.44-1.61-.29a2.29,2.29,0,0,0,2.27.59,7.13,7.13,0,0,0,.95-.71c.3-.27.48-.47.65-.42s.17.47.36.54c.35.12.74-1.11,1.79-1.43A2.09,2.09,0,0,1,206.17,249Z"/><path class="cls-12" d="M193.6,260.31c.39-.07,1,.52.86,1.1s-.67.91-1,.77-.44-.83-.3-1.28C193.16,260.8,193.3,260.36,193.6,260.31Z"/><path class="cls-12" d="M197.41,254.68c.27-.05.56.37.66.68s.1.82-.12.93-.81-.28-.89-.78C197,255.17,197.16,254.72,197.41,254.68Z"/><path class="cls-12" d="M206.45,312.43c.09-.08.52.32,1.69.88a1.52,1.52,0,0,0,1.07.23c.34-.08.37-.28.62-.31s.55.18,1.45,1.31,1,1.45.93,1.65-.37.21-.44.22c-.72.08-1-.8-2.08-1.47s-1.32-.26-2.17-.92S206.33,312.54,206.45,312.43Z"/><path class="cls-12" d="M214.26,306.91c.07-.08.2,0,.87.16s1,.15,1.05.34a.61.61,0,0,1-.14.67c-.35.34-1,0-1.07,0C214.43,307.75,214.11,307.08,214.26,306.91Z"/><path class="cls-12" d="M246.09,193.66c.09,0,.12.34.06.36s-.58-1.34-1.73-2.92c-.65-.9-.64-.63-1.43-1.67-1.28-1.68-1.32-2.41-2.2-2.74-.68-.25-1.17,0-1.49-.41a1.35,1.35,0,0,1-.06-1.31c.12-.26.22-.24.36-.48a1.55,1.55,0,0,0-.12-1.79,1.19,1.19,0,0,0-1.31-.18c-.81.48-.93,2.45-.06,3.4s1.76.4,2.5,1.43c.19.26.44.74.66,1.13.3.57.32.66.53,1a9.69,9.69,0,0,0,.84,1.14,13.67,13.67,0,0,0,1,1.07c1.36,1.39,1.09,3.62,1.53,3.63S245.89,193.62,246.09,193.66Z"/><path class="cls-12" d="M231.67,196.64c.28-.11.25-.73.24-.95s-.11-2-1.16-2.35c-.4-.15-.67,0-1.1-.27a2.05,2.05,0,0,1-.54-.6c-.62-.91-.51-1.28-.89-1.49a1.22,1.22,0,0,0-1.34.24c-.42.44-.14,1.05-.51,1.25a.79.79,0,0,1-.92-.29c-.26-.41.12-1-.06-1.11s-.48.34-.69.24.07-1.2-.27-1.4-.51.32-1.16.39-1.19-.15-1.34-.54.67-1.11.51-1.34-1.38,0-1.82.84a2.56,2.56,0,0,0-.24,1.13c0,.45.11.45.06.71-.11.67-.85.72-.92,1.28s.43.6.36,1.11-.51.54-.54,1c0,.16,0,.28.33.8.5.89.76,1.33,1,1.31.39,0,.42-1.07.84-1.1s.55.46.65.72a1.2,1.2,0,0,1,.06.8c-.18.55-.74.53-.83,1-.05.2.1.47.38,1s.53.95.72.92.12-.76.5-.95.59.23,1.17.27a1.9,1.9,0,0,0,1.75-1.2,3.15,3.15,0,0,0-.11-1.52c-.19-1-.34-1.06-.27-1.43.15-.78,1.06-1.45,1.52-1.28.18.07.18.24.8,1.05.2.25.3.36.42.35.3,0,.38-.72.59-.71s.35,1,.54.95.15-.76.54-.89.55.15.59.18a2.33,2.33,0,0,1,.6,1.34.67.67,0,0,0,.24.5A.37.37,0,0,0,231.67,196.64Z"/><path class="cls-12" d="M232,197.72a.71.71,0,0,1-.24,1,.74.74,0,0,1-.89-.3.5.5,0,0,1-.12-.39C230.84,197.66,231.72,197.39,232,197.72Z"/><path class="cls-12" d="M229.17,184.09s0,.86.52,1.11a.64.64,0,0,0,.75-.08c.19-.24,0-.72-.32-1.27s-.5-.7-.51-1c0-.7.88-1.51,1.39-1.35s.39.7.67.71.51-.88.84-.87.57.58.55,1.15c0,1-1,1.25-1,2.23,0,.64.41,1.09.24,1.23s-.62-.43-1.23-.32a1.23,1.23,0,0,0-.88.8c0,.05-.19.54,0,.79s.45,0,.68.2a1.16,1.16,0,0,1,.08,1.39c-.29.45-.72.32-1,.83-.22.35-.13.59-.32.68s-.92-.4-1.07-.56c-.64-.64-.61-1.15-1.35-2.3-.34-.53-.34-.41-.48-.68a4.19,4.19,0,0,1,.12-3.57s0,.13,0,.36c.08,1.17,1.32,1.5,1.9,2.78a5.74,5.74,0,0,1,.32,1.78,5,5,0,0,0,.24-2C229.28,185.11,229.13,184.1,229.17,184.09Z"/><path class="cls-12" d="M225.16,186.47a1,1,0,0,1,1,.8.92.92,0,0,1-.43.87,1,1,0,0,1-1.32-.24A1,1,0,0,1,225.16,186.47Z"/><path class="cls-12" d="M225.76,181.63c.29.09.43,1.24-.12,1.83-.19.2-.27.13-.44.31-.52.57.07,1.4-.36,1.95s-1.19.48-1.35.24.17-.4.52-1.15a3,3,0,0,0,.35-2.07c0-.17-.12-.47-.31-.52-.38-.08-1,.94-.88,1.12s.38,0,.4-.12-.66-.26-.75-.64.63-.58.91-1.39-.11-1,.24-1.59a1.66,1.66,0,0,1,.63-.59c.69-.42,1.74-.53,2-.12s-.11.83-.32,1.11c-.63.81-1.54.66-1.71,1.23a.78.78,0,0,0,.4.88C225.29,182.17,225.52,181.56,225.76,181.63Z"/><path class="cls-12" d="M229.83,179c.17.21,0,.67-.27,1.61-.1.3-.17.5-.27.5s-.19-.65-.48-.71-.3.23-.83.59c-.22.16-.55.38-.66.3s.18-.71.33-1c.42-.81.68-1.32,1.22-1.46A1,1,0,0,1,229.83,179Z"/><path class="cls-12" d="M233.13,178.77c.42.19.29,1.76-.18,1.91-.2.06-.42-.16-.47-.21a1,1,0,0,1-.09-1.25C232.56,179,232.92,178.67,233.13,178.77Z"/><path class="cls-12" d="M238,180a.68.68,0,1,1-.89.33A.67.67,0,0,1,238,180Z"/><path class="cls-12" d="M237.45,176.74c.09.22-.43.35-.86,1.14-.52.94-.28,1.69-.89,2.11a.67.67,0,0,1-.51.15c-.5-.12-.75-1.18-.57-2a1.93,1.93,0,0,1,.42-.89C235.79,176.36,237.31,176.39,237.45,176.74Z"/><path class="cls-12" d="M231.23,179.25a.51.51,0,0,1,.21.71.46.46,0,0,1-.51.21.57.57,0,0,1-.09-.84A.42.42,0,0,1,231.23,179.25Z"/><path class="cls-12" d="M233.16,176.19a.5.5,0,0,1,.22.51.51.51,0,1,1-.95-.31A.51.51,0,0,1,233.16,176.19Z"/><path class="cls-12" d="M232.59,174.52c-.29-.38-.43-.57-.6-.64a1.12,1.12,0,0,0-1.31.46c-.23.5.35,1.07.1,1.33a.59.59,0,0,1-.64,0c-.42-.24-.26-.82-.63-1a.77.77,0,0,0-.95.3c-.16.32.27.55.21,1s-.48.86-1,1.33a1.31,1.31,0,0,0-.54.73c0,.07,0,.3.08.38s.94-.33,1.39-.81.47-.82.88-1,.5,0,1-.17a2,2,0,0,0,.76-.48,1.6,1.6,0,0,0,.41-.8,2.85,2.85,0,0,0-.43,1.51c0,.1,0,.38.1.4s.24-.88,1-1.39c.28-.2.5-.23.55-.44S232.87,174.89,232.59,174.52Z"/><path class="cls-12" d="M227.34,174.44a.75.75,0,0,1,.4.85c-.11.52-.82.84-1.13.64s-.24-.58-.14-.86S227,174.33,227.34,174.44Z"/><path class="cls-12" d="M233.82,174.3a11.88,11.88,0,0,0,1.19-2.2,6,6,0,0,0,.06-1.37,3.74,3.74,0,0,1,0-1c.16-.63.52-.73.48-1.07s-.46-.39-1.08-.86a2.9,2.9,0,0,1-1.22-1.7,2.35,2.35,0,0,1,.33-1.46c.26-.43.41-.36.6-.72.3-.59-.07-.93.12-1.78.14-.66.52-1.21.68-1.17s0,.77.33.93.46-.14.86-.33a2.31,2.31,0,0,1,2.33,0c.21.23.19.58.14,1.28-.09,1.44-.54,1.74-.35,2.56s.49.66.47,1.19c0,.71-.62,1-.44,1.64,0,.06.11.36.29.39s.51-.67.87-.66.4.29.48.51c.18.54-.27.84-.57,1.73-.38,1.12-.07,1.84-.63,2.77a.75.75,0,0,1-.38.36,1.26,1.26,0,0,1-1.17-.51c-.28-.34-.27-.62-.41-.62s-.54.53-.42,1,.44.38.6.77a1.36,1.36,0,0,1-.09,1c-.48,1-2.13,1.21-2.39.83-.16-.23.23-.66,0-.86s-.75.1-.89-.09S233.74,174.43,233.82,174.3Z"/><path class="cls-12" d="M240,141.29c1.15.53,1.55,1.86,1.84,2.86a5.72,5.72,0,0,1,.18,3.46c-.42,1.36-1.5,2.61-2,2.44s-.1-.86-.29-2.68a16.18,16.18,0,0,0-.84-3.93c-.45-1.24-.87-1.8-.59-2.15S239.46,141,240,141.29Z"/><path class="cls-12" d="M270.05,157.2c-1.5-.55-3.29,1-3.43.71-.05-.07.12-.31.24-.29.29,0-.11,1.71.56,3.63a2.43,2.43,0,0,0,.84,1.4c.48.32.8.14,2.38.24,1.14.07,1.33.19,1.61,0,.74-.51.45-2,.42-2.23a4.87,4.87,0,0,0-1.22-2.18C270.83,157.74,270.53,157.38,270.05,157.2Z"/><path class="cls-12" d="M233.16,118.8a1.14,1.14,0,0,1,1.34.06,1.37,1.37,0,0,1-.8,1.88,1.11,1.11,0,0,1-1.16-1C232.5,119.19,233.12,118.83,233.16,118.8Z"/><path class="cls-12" d="M224.32,118.35c.86-.07,2,.29,2.05.84s-.81.65-1.55,1.87a14.15,14.15,0,0,0-.74,1.91c-.52,1.29-.78,1.93-1.05,1.94-.48,0-.94-1.45-1.07-2.54a3.79,3.79,0,0,1,.66-3.21A2.74,2.74,0,0,1,224.32,118.35Z"/><path class="cls-12" d="M222.14,114.15a7.68,7.68,0,0,1,2,1.7c.52.55.54.65.53.74-.06.54-1.3,1.09-2.2.75-.7-.26-.57-.83-1.4-1.25s-.86,0-1.88-.39c-.7-.26-.92-.53-1.37-.45a1.17,1.17,0,0,0-.83.63c-.23.49.16.8,0,1.34a1.31,1.31,0,0,1-1.11.89c-.77,0-1.48-1-1.43-1.81.07-1,1.3-1.57,1.14-1.85s-.76-.12-1.28.18c-.92.52-1,1.49-1.43,1.49-.29,0-.52-.35-1-1s-.54-1-.71-1c-.42,0-.55,2-.84,2s-.38-.78-.38-1.49c0-.5.09-.9,0-1s-.35.4-.54.35-.45-1-.06-1.7c.23-.4.44-.34.66-.71.35-.62-.05-1.12,0-1.91s.65-.91,1.25-2.08c.72-1.42.11-1.84.8-3.07A25.14,25.14,0,0,1,214,102.5c1-1,1.51-1.5,1.73-1.4s.16,1.09.06,1.76a8.69,8.69,0,0,1-1,3.07c-.71,1.25-1.29,1.56-1.13,2.14,0,.2.12.18,1,1.26a6.52,6.52,0,0,0,.69.77c.4.33.61.34,1.28.8s.6.5.62.57c.12.27,0,.43-.05,1.1s-.09,1,.08,1.13.92.08,1.08,0c.59-.18.7-.52,1.1-.5s.25.19.71.39.79.07,1.49.32C221.87,114,222,114.09,222.14,114.15Z"/><path class="cls-12" d="M220.53,118.08c.54.32.83.29,1,.6.21.55-.46,1.29-.72,1.58s-.62.68-.83.59c-.43-.17.12-1.95-.39-2.2-.35-.17-.81.57-1.28.39s-.51-.83-.48-1.25c.05-.61.45-1.35.92-1.37S219.33,117.39,220.53,118.08Z"/><path class="cls-12" d="M217.88,100.12c.4-.23.26-.66.72-1.7.36-.82.65-1,.53-1.25-.25-.52-1.86.09-2.11-.39s.54-1,2.11-3c.94-1.17,1-1.37,1-1.46-.19-.26-1.85.39-3.24,1.46s-1.74,1.93-2.77,1.94c-.63,0-.94-.32-1.34-.09-.58.34-.72,1.49-.33,1.79s.67-.13.92.09c.41.35-.35,1.56,0,1.87.2.17.62,0,.9-.14.87-.4.88-.93,1.54-1.23s1.65-.19,1.85.27a1,1,0,0,1-.27,1c-.36.44-.84.43-.83.59S217.37,100.42,217.88,100.12Z"/><path class="cls-12" d="M229.09,115.93c.26.22-.08,1.31-.51,1.35a.7.7,0,0,1-.6-.72A.87.87,0,0,1,229.09,115.93Z"/><path class="cls-12" d="M228.5,120.42a.73.73,0,0,1,.43,1,.79.79,0,0,1-1.15.16C227.58,121.22,228.09,120.37,228.5,120.42Z"/><path class="cls-12" d="M332.83,153.94l0,.05Z"/><path class="cls-12" d="M332.8,154c0,.07-.07.12-.07.11S332.76,154.05,332.8,154Z"/><path class="cls-12" d="M226.75,69.45c.12.27-.24.7-.6,1.12a11,11,0,0,1-2.82,2.06c-1.47,1-.94,1.32-2.22,2.15-1.73,1.11-3.27,1-3.58,2a5.05,5.05,0,0,1-.24,1.16,3.49,3.49,0,0,1-.71,1.07c-1.31,1.39-1.89,1.56-2.54,2.46a3.26,3.26,0,0,0-.8,2c.13.07.56-.88,1.71-1.87a18.47,18.47,0,0,1,2.15-1.43c1.51-1,1.42-.88,1.7-1.07A39,39,0,0,0,222,76.33c1.1-.89,1.05-.64,3-2,.91-.66,2.85-2.07,2.66-2.42s-1.11.17-1.23-.08c0-.1,0-.32,1.15-1.23,1.26-1,1.42-1,2.31-1.75.62-.54,1.12-1.06,1.27-.95s-.15.55,0,.67.63-.31,1.19-.63c1-.61,2.25-.8,2.34-.6s-.77.82-1.86,1.63-1.53,1-1.47,1.19,1.21.32,2.18-.08.94-.79,1.71-1a3.94,3.94,0,0,1,1.91.08c2.6.34,4-.65,4.6.12a6.37,6.37,0,0,1,.2,1c.21,1.11.22,1.34.36,1.83a3.89,3.89,0,0,0,.4,1.07c.53.86,1.26.88,1.27,1.31s-1.13,1-1.23,1c-.91.35-1.25,0-1.87.36S240,77,239.78,76.88s-.24-.78-.4-.79-.16.82-.68,1.11c-.33.19-.84.11-.95-.12s.35-.59.24-.91-.62-.42-1-.4c-1.46.08-2.08,2.1-3,1.89-.34-.08-.41-.37-.9-.42a1.59,1.59,0,0,0-1,.24A7.34,7.34,0,0,0,230,79.41c-.36.49-.25.22-4.56,3.67-.34.27-2,1.57-1.82,1.79s.57-.2.8,0,.07,1-.23,1.58c-.43.79-1,1-2.45,2a9.53,9.53,0,0,0-2.2,1.73c0,.07,1.15-.75,1.52-.45s-.08,1,.06,1.1.56-.71.89-1.22a11.17,11.17,0,0,1,2.24-2.26c1-.94.68-1,2.65-3.78,1.83-2.56,2.53-3.11,3.33-3.13.41,0,1,.1,1.11.41.22.73-2.62,1.37-3.28,3.55-.33,1.09.24,1.41-.24,2.65s-1.14,1.36-1.19,2.32c0,.63.24.73.62,1.91a25.86,25.86,0,0,1,.57,2.92c.53,2.49.92,2.73,1.07,2.8.42.2,1,0,2-.3s1.8-.76,2-.56-.43.66-.27,1.1c.22.66,1.72.23,2.23,1,.37.56-.22,1,0,2.48a2.45,2.45,0,0,0,.48,1.31c.5.56,1.11.45,1.67,1.16a1.2,1.2,0,0,1,.32.68c0,.45-.31.82-1,1.4a15.56,15.56,0,0,1-1.82,1.31,9.32,9.32,0,0,0-2.08,2,27.78,27.78,0,0,0-2.06,4.17c-.39.88-.7,1.58-.44,1.82s.92-.36,1.54-.09c.86.37.73,2,1.23,2.08s.65-1,1-.89.3,1.22.77,1.34c.17,0,.34-.06.69-.36,1.09-.92,1.63-1.38,1.52-1.78-.16-.57-1.4-.34-1.64-1-.18-.49.37-1.13.63-1.43,1-1.13,2.2-1.2,2.2-1.73s-.83-.56-.83-1.07.53-.77.92-.92c.85-.34,1.28.21,2.06-.12a2.14,2.14,0,0,0,1-1.13c.23-.65-.1-.95.06-1.64a2.65,2.65,0,0,1,1-1.4,3.76,3.76,0,0,1,4-.54c1,.58.85,1.48,1.94,1.88.78.29,1.65.13,1.7-.09s-.72-.41-.72-.8,1-.53,1.1-1.11-.45-.61-.47-1.16c0-.77,1-1.62,1.46-1.43s0,1.16.65,1.64,1.26-.11,1.7.3-.19,1.46.33,2.17,1.94.5,2,.75-1.9.21-2.91,1.49a5.47,5.47,0,0,0-.84,1.43c-.2.57-.21,1-.42,1s-.37-.37-.89-.89a3,3,0,0,0-1.31-.9c-.74-.17-1,.42-2.15.66s-1.83-.24-2.2.18a1.46,1.46,0,0,0,.18,1.72c.75.88,2,0,3.45.72,1.68.79,2.65,3.09,2.09,3.87-.22.31-.63.31-1.25.36-2,.17-4.33.37-5.19,1.49s.25,3.4-.89,4.29a10.1,10.1,0,0,0-.89.71,10,10,0,0,0-.9,1,7.68,7.68,0,0,0-1.55,3.45c-.13,1,.17,1,.3,3.4a18.91,18.91,0,0,0,.06,2.32c.5,1.81,2,1.69,3.46,4.11a4.13,4.13,0,0,1,.83,2.51c-.07.79-.46,1.18-.3,1.9a2.65,2.65,0,0,0,1,1.37,35.26,35.26,0,0,0,2.86,2.15c2.14,1.68,1.84,3.17,3.33,3.51,1,.24,1.25-.42,2.45-.23.94.14,1.25.61,3.15,2.2,2.88,2.41,3.71,2.63,4.41,2.56s.65-.31,1.61-.41a3.41,3.41,0,0,1,2.8.59,2.55,2.55,0,0,1,.66,1.13c.26,1-.34,1.56,0,2a1.49,1.49,0,0,0,2,0c.23-.31,0-.61.06-1.19a3.46,3.46,0,0,1,1.55-2.27,4.57,4.57,0,0,1,3.52-.53c1.35.27,2.84,1.87,5.78,5.06a4.26,4.26,0,0,1,1.43,2.56,3.86,3.86,0,0,1-.84,2.39,42.09,42.09,0,0,1-3.87,5.12c-3.24,3.35-4.86,5-5,5.3-1,1.92-.19,1.87-1.67,7.51-.56,2.13-.89,3-.42,3.93s1.57,1.42,3.87,2.57,3,1.22,3.52,2.08c.75,1.18.19,2,1,2.68s2,.07,3,1c.53.52.41,1,1.13,1.49.18.12.9.64,1.43.35a1.16,1.16,0,0,0,.48-.83c.07-.5-.14-.81-.48-1.61a5.36,5.36,0,0,1-.53-1.61,2.78,2.78,0,0,1,1.43-2.2,2.43,2.43,0,0,1,1.25-.42c.64,0,1.08.27,1.19.12s-.62-.73-.48-1.31c.06-.24.27-.48.48-.48.46,0,.6,1.26.95,1.25s.48-.77.6-1.25c.28-1.1.18-1.51.36-2.5s.35-2,1-2.21,1.45.29,1.43.6-1,.47-1,.72.42.22.53.23a4.7,4.7,0,0,0,4.23-1.55,2,2,0,0,0,.54-1c.13-.92-.69-1.43-.48-1.85s1.91-.57,2.62.24c.33.38.27.72.42,1.73.18,1.19.33,1.16.78,3,.37,1.57.29,1.72.59,3.1.69,3.15,1.63,4.91,1.13,5.24s-1.08-.52-1.43-.24.37,1.79,0,2-1.08-.7-1.43-.48-.09.61-.06,1.07a5.35,5.35,0,0,1-1,3.16c-.15.27-1.36,2.42-2.2,2.21-.37-.1-.36-.56-.78-.66-.21-.05-.66-.05-1.67,1.07s-.83,1.47-1.55,2.21c-1.13,1.17-2,.78-2.74,1.9a4,4,0,0,0-.53,2c-.08,1.22.34,1.43.35,2.56a5.63,5.63,0,0,1-.89,3c-.58.93-1,.94-1.73,2.21a2.8,2.8,0,0,0-.53,1.72c0,.15.07.94.59,1.2a1.32,1.32,0,0,0,1.08-.12,42.25,42.25,0,0,0,4-2.56c1.9-1.15,3-1,3.45-2.15.24-.55.1-.83.48-1.43.57-.9,1.22-.77,1.79-1.55.36-.5.13-.61.53-2.32s.68-1.75.66-2.62-.26-1.12-.06-1.73a2.84,2.84,0,0,1,1-1.25c.57-.53.44-.6,2.33-3.7,1-1.69,1.36-2.15,1.66-2.08.52.1.57,1.56.78,1.55s.19-.18.24-1.55c0-1.08,0-1.94-.06-2.74-.09-1.29-.14-2.12-.3-3.28-.12-.88-.16-.94-.3-2-.31-2.35-.19-2.75.06-3,.52-.46,1.51-.1,1.55-.29s-1.39-.53-1.43-1.14,1-1,.89-1.13-.86.24-1.07,0,.3-1,.48-1.25.44-.82,1-4.89c.49-3.46.46-3.9,1-4.46a3.21,3.21,0,0,1,2.74-1c1.11.22,1.08,1.06,2.39,1.61a6.07,6.07,0,0,0,3.51.06c1.26-.2,2.35-.37,2.51-.95s-.94-.9-1.43-2.21c-.24-.63-.08-.81.23-3.63.18-1.63.26-2.73.66-2.8s.4.37.77.36c.56,0,.95-1,1.08-1.26a5.21,5.21,0,0,0,.38-1.82,6.14,6.14,0,0,0,2.95-2.41c1.42-2.16.78-4.55,1.49-4.7s1.32,2.2,2.62,2.2c.91,0,1.07-1.13,2.09-1.25,1.55-.19,2.83,2.21,3.52,1.85.36-.2,0-.87.53-1.31.69-.62,2.3-.18,2.38.29a.33.33,0,0,1-.07.26,1.68,1.68,0,0,1,.91-.79,1.47,1.47,0,0,1,1.49.95c.12.36,0,.5,0,1.13a4.16,4.16,0,0,0,.3,1.25c.46,1.07,1.93.73,3.81,1.79a12.41,12.41,0,0,1,2.74,2.45c.87.9.76.94,1.79,2a9.82,9.82,0,0,0,2.68,2.38c.94.41,1.57.32,2,1s.1.73.48,1.31a3.48,3.48,0,0,0,2,1.25c.76.22.8,0,1.19.24,1.08.57,1.14,2.18,1.49,2.14s.16-.63.48-.77,1.63.65,2.08,1.73c1,2.32-2,4.14-1.13,6.67.45,1.32,1.41,1.29,1.73,2.86.23,1.15-.26,1.37-.18,3.1.08,1.92.75,3.39,1.25,3.39a5.38,5.38,0,0,1,.59-.11,1.13,1.13,0,0,1,.6.05c.41.23.15.94.54,1.85a4.51,4.51,0,0,0,.47.78,10.83,10.83,0,0,0,1.61,1.9c.92.82,1.49,1.33,2.33,1.37,1.46.07,2.52-1.37,2.74-1.66a5.69,5.69,0,0,0,.83-2,8.17,8.17,0,0,0,.48-4.05c-.28-1.42-.87-1.44-.84-2.33.07-1.6,2-1.64,3-3.51,1.28-2.46-1-4.43.42-7.33.59-1.18,1-1,1.55-2.21.73-1.71-.05-2.17.24-5.3.13-1.44.4-2.51.62-5a9.67,9.67,0,0,0,.06-1.19c0-1.79-.6-2.86-.33-3s1.3,1.3,1.94,1c.24-.1.31-.38.39-.6.29-.83.74-1,2-2.32,1.54-1.55,2.31-2.32,2.48-3,.21-.85-.1-1.12.21-2.77a3.09,3.09,0,0,1,.56-1.58c.54-.65,1.1-.52,1.34-1.07s-.4-1.21-.09-1.79,1.29-.43,1.43-1-.38-.65-.3-1c.14-.48,1.56-.42,3.61-.41,3.45,0,4.3-.14,5.33.56.58.39.57.61,1.07.78,1.51.49,3.42-.9,3.7-1.1.58-.43.7-.67,1.25-.87.78-.28,1.33-.1,1.58-.48.08-.12.12-.29-.06-1-.35-1.39-.8-1.92-.6-2.14s.81,0,1.23.24c.7.45.58,1,1.13,1.25s.89,0,1.81-.45a4,4,0,0,0,1.29-.8,2.87,2.87,0,0,0,.71-1.17c.12-.39,0-.44.12-.74.24-.76.94-.79,1.25-1.37.21-.38.06-.66-.3-2.12-.64-2.61-.47-2.91-.32-3s.4,0,.95.18c.89.3,1.42.48,1.73.93s.17.67.21,1.34c.07,1.51.55,1.56.74,3.1.15,1.25-.16,1.24,0,2.68a22.38,22.38,0,0,0,.48,2.26c.55,2.57.5,2.9.38,3s-.3-.17-.41-.3c-.57-.64-.34-1.24-.75-1.9-.3-.5-.89-.94-1.16-.81s-.38,1.49.21,2.47,1.73,1.2,1.76,2a1,1,0,0,1-.6,1c-.45.1-.77-.64-1.31-.53-.29,0-.31.29-.66.44a1.65,1.65,0,0,1-1.31-.15,4.87,4.87,0,0,1-2.23-2c-.57-.94-.3-1.06-.81-1.85-.8-1.25-2.2-2.08-2.53-1.82-.11.1-.08.31,0,.69a22.88,22.88,0,0,0,1.1,3c.12.34.7,2.15-.14,3.1a2.63,2.63,0,0,1-1.11.65c-.81.27-1.35,0-1.58.36s.09.39,0,1a1.81,1.81,0,0,1-.47,1.08c-.27.26-.45.21-.57.41s0,.67.3,1.19c.73,1.17,1.36,1.14,2.2,2.18a5.63,5.63,0,0,1,1.11,2c.21.76.23,1.47.44,1.49s.29-.72.69-.8.83.49,1.07.95c.48.93.05,1.46.57,2.54a2,2,0,0,0,.58.78c.56.42,1,.11,1.43.44s.23,1.2.94,1.84a2.86,2.86,0,0,0,1.14.55c.89.31,1.06.14,1.39.41.55.45.25,1.09.76,1.46s.77,0,1.53.07a3.45,3.45,0,0,1,2.23.87c1,1,.36,2.24,1.27,3.5a9.59,9.59,0,0,0,2.78,1.58c3.08,1.48,3.33,1.39,4.37,2.15s1.17,1.18,1.83,1.27a3.58,3.58,0,0,0,3.33-2.22c.57-1.3-.14-1.92-.32-5.33-.09-1.85.12-1.61,0-3.33-.14-2.07-.44-2.4-.71-5.25a12.54,12.54,0,0,1,0-3.25c.2-1.37.45-1.25.48-2,.06-2.08-1.93-2.75-2.47-5.32-.18-.88.07-.7,0-2.47a27.25,27.25,0,0,0-1.11-6c-.87-3.62-1.3-5.42-1.11-5.49s1.45,2.36,2.22,5,.56,3.55,1.43,6.83c.31,1.14.24.68,1.19,3.74,2.18,6.93,2.24,8.4,1.83,9.53a5.11,5.11,0,0,0-.4,2,8.85,8.85,0,0,0,.48,2.14,8.75,8.75,0,0,1,.48,3.5c-.12.89-.36.88-.56,1.9-.3,1.58.31,1.81.08,3.1a6.18,6.18,0,0,1-1.59,3.1c-.52.54-1,.82-.95,1.27,0,.26.21.33,1,1.11a4,4,0,0,1,1,1.11,2.6,2.6,0,0,1,.15,1.12,7.39,7.39,0,0,1-.47,2.14c-.32,1.07-.4,1.24-.56,1.27-.39.09-.6-.75-1.35-.87-.54-.09-.72.3-1.19.16s-.54-.84-1-1-1.06.74-1.51.56-.18-.91-.64-1.19-1,.43-1.91.24-1-.91-1.35-.8-.25,1.4-.23,1.59c.48,4.4.72,6.59,1.11,7.71a56.13,56.13,0,0,0,3.1,6.35c2.27,4.34,3.36,6,4.29,8.58a19.39,19.39,0,0,0,.79,2c.77,1.64,1.2,1.93,2.15,3.65.18.35.62,1.32,1.51,3.26a14.19,14.19,0,0,1,1.19,3,8.33,8.33,0,0,1,0,3c-.48,3.14.6,4.35.55,8.18,0,2.61-.92,5.65-2.69,11.72-.38,1.31-.76,2.53-.89,2.95-1.26,4-1.89,6.05-2.59,8-1.06,2.94-1.93,5-1.05,6.08a4.64,4.64,0,0,1,.87,1.28,4.76,4.76,0,0,1,.33,1.94c0,.77,0,2.43-1,3a2.45,2.45,0,0,1-1.46.17c-2.77.22-3.81,12.16-3.81,12.16-.33,1.08-.75,2.39-1.27,3.88a148.8,148.8,0,0,0,.27-156,23.64,23.64,0,0,1,.88,2.86c.28,1.17.32,1.67.16,1.74s-1.28-1.35-1.39-1.27.33.56.16.84-.94.13-1,.11c-1.21-.27-1.83-2-2.34-3.13-.26-.58-1.71-2.6-4.61-6.64-1.78-2.47-2.91-3.89-2.7-4.09s1.5.8,1.57.86c1,.73,1.52,1.51,1.67,1.41s-.21-.69-.06-.8,1.27,1.11,1.47,1-.56-1.53-.56-1.53a21,21,0,0,0-3.48-4.7c-1.35-1.36-1.31-1-2.65-2.41a20,20,0,0,0-2.6-2.54c-.25-.19-2.09-1.56-2.53-1.16s.47,1.76.18,1.94c-.12.07-.31-.12-.59-.3a4.83,4.83,0,0,0-2-.51,4.09,4.09,0,0,1-2.32-2.11c-.6-1-.36-1.2-1.08-3.31a7.89,7.89,0,0,0-1.25-2.8c-1.26-1.28-3-1-3.19-2a.8.8,0,0,1,.3-.8c.45-.24,1.25.51,2.12,1.28a24.32,24.32,0,0,0,3.9,3.07c.15-.14-2.88-3.34-2.68-3.55s3.28,2.47,5.57,4.65c2.45,2.33,3.67,3.49,4,4.17s.93,2.12,2.15,2.59a2.57,2.57,0,0,0,.76.18A149.21,149.21,0,0,0,356.9,65.68a.75.75,0,0,1-.26.56c-.22.16-.5.13-1,0-.18,0-4.18-.82-4.53-2.11a1.61,1.61,0,0,1,0-.71,1.27,1.27,0,0,1,.12-.35c-2.65-1.13-5.35-2.18-8.08-3.16,1.87,1.34,6.36,3,6.17,3.55-.12.31-1.87-.07-2-.08-2.59-.57-3.32-1.85-6-2.9a9.82,9.82,0,0,0-3-.8c-2-.16-3.13.49-5.33,0-.74-.16-1.6-.46-1.58-.71,0-.42,2.37-.46,2.38-.84,0-.21-.73-.39-1.07-.47-2.46-.63-2-.93-4.85-1.75-.71-.2-1.89-.44-4.25-.91s-3.84-.74-5-.92a21.58,21.58,0,0,0-3.57-.4,22.19,22.19,0,0,0,2.78,1c1.75.61,1.95.82,3,1.19,2.62.92,3.29.35,6.83,1.27.48.13,3,.78,2.94,1.19,0,.12-.23.18-1,.32-1.23.22-2.1.32-2.63.4a5.58,5.58,0,0,0-1.11-.88,5.8,5.8,0,0,0-1.19-.55,17,17,0,0,0-3.73-1.19c-.81,0-1.58.24-1.75-.08s.09-.51,0-.56-.53.76-1.11.79c-.32,0-.45-.21-.88-.47a4,4,0,0,0-2.54-.4,11.37,11.37,0,0,0-1.59.4c-.84.24-1.07.35-1.35.24-.52-.22-.36-.88-.79-1.43-.63-.8-1.87-.59-4-.64-1.17,0-2.33-.23-3.5-.32-4-.31-3.88-.79-7.15-1a29.28,29.28,0,0,0-7.78.56c-.71.17-1.35.39-1.35.39-.6.21-.93.37-1.2.48a8,8,0,0,1-2.94.48c-.58,0-1.28,0-2.7-.08-1.13-.06-1.08-.08-1.43-.08a10.31,10.31,0,0,0-3.41.63c-2.12.71-2.07,1.21-3.58,1.43a9,9,0,0,1-2.38,0c-.78-.07-2.38-.28-2.38-.55s1-.24,2.54-.72c1.91-.61,3.59-1.66,3.49-1.9s-.29-.1-1.82.23c-3,.66-4,1.12-6.2,1.59-2.42.53-2.2.18-3.58.64-1.83.61-2.44,1.31-4.05,1.43-1.36.1-1.29-.38-2.54-.32-2.6.12-3.19,2.22-5.64,2.15a5.52,5.52,0,0,1-2.15-.56L247,58.6a147.25,147.25,0,0,0-25.81,11.22,2.67,2.67,0,0,0,1.24.07C223,69.77,226.42,68.75,226.75,69.45ZM378.53,91.22c.49-.61,2.22.06,3.49.56A12.34,12.34,0,0,1,387,95a17.33,17.33,0,0,1,1.66,2.22c.76,1.13.71,1.24,1.51,2.54,1.49,2.4,2.16,2.82,2,3.66-.21,1-1.37,1.42-1.19,1.82s1.16,0,2.06.48c.67.39.56.87,1.28,2.07,1.05,1.75,1.92,1.77,2.3,3.17,0,.14.37,1.45-.16,1.83s-1.26-.36-1.75,0,0,1.31-.39,1.59-2.42-.68-3.58-2.38a11.6,11.6,0,0,1-1.59-4.45,5,5,0,0,0-.63-2.39c-.59-.85-1.07-.65-1.75-1.5-.8-1-.34-1.51-1.19-3-.63-1.11-1-1-1.2-1.83-.3-1.19.44-1.64.08-2.46-.23-.55-1.06-.9-2.7-1.59s-2-.68-2.46-1.19C378.59,92.84,378.14,91.7,378.53,91.22Z"/><g class="cls-13"><path class="cls-14" d="M211.84,75.42A148.71,148.71,0,0,0,417.62,281.2,148.7,148.7,0,1,1,211.84,75.42Z"/></g></g><g class="cls-15"><path class="cls-3" d="M-12.53,275.66l-.89-.5c1.12-2,2.3-4.12,3.51-6.19l.88.51C-10.24,271.55-11.41,273.62-12.53,275.66Zm7.15-12.25-.87-.54c1.24-2,2.53-4,3.82-6l.85.56C-2.86,259.4-4.14,261.41-5.38,263.41Zm7.75-11.87L1.53,251c1.34-2,2.72-3.9,4.11-5.81l.82.6C5.09,247.65,3.71,249.6,2.37,251.54Zm8.33-11.47-.81-.62c1.44-1.89,2.92-3.77,4.39-5.59l.8.64C13.61,236.32,12.14,238.19,10.7,240.07Zm8.9-11-.77-.67c1.54-1.81,3.12-3.61,4.69-5.34l.76.69C22.72,225.46,21.14,227.25,19.6,229.06Zm9.5-10.5-.73-.71c1.64-1.71,3.33-3.41,5-5l.72.73C32.42,215.16,30.74,216.85,29.1,218.56Zm10.13-9.89-.69-.76c1.75-1.6,3.54-3.18,5.33-4.71l.66.78C42.76,205.5,41,207.07,39.23,208.67ZM50,199.49l-.63-.8c1.87-1.48,3.77-2.93,5.66-4.31l.6.83C53.75,196.58,51.85,198,50,199.49Zm11.42-8.34-.56-.85c2-1.32,4-2.61,6-3.83l.53.88C65.38,188.56,63.38,189.84,61.41,191.15Zm153.26-.81c-2-1.19-4.14-2.34-6.19-3.43l.48-.9c2.06,1.09,4.15,2.25,6.22,3.44ZM73.49,183.81l-.49-.9c2.09-1.14,4.21-2.24,6.31-3.27l.45.92C77.67,181.58,75.56,182.67,73.49,183.81Zm128.69-.12c-2.13-1-4.29-2-6.4-3l.41-.94c2.13.95,4.3,2,6.44,3ZM189.26,178c-2.19-.88-4.42-1.71-6.62-2.48l.34-1c2.21.78,4.45,1.62,6.66,2.5Zm-103.08-.34-.4-.94c2.19-.94,4.41-1.82,6.61-2.63l.35,1C90.56,175.83,88.35,176.7,86.18,177.63Zm89.74-4.33c-2.26-.68-4.55-1.32-6.81-1.89l.25-1c2.27.57,4.58,1.21,6.86,1.9Zm-76.49-.53-.3-1c2.27-.69,4.57-1.33,6.85-1.9l.25,1C104,171.44,101.68,172.08,99.43,172.77Zm62.8-2.92c-2.32-.46-4.66-.87-7-1.21l.15-1c2.32.34,4.67.75,7,1.22Zm-49.11-.47-.19-1c2.33-.44,4.69-.82,7-1.12l.14,1C117.78,168.57,115.43,168.94,113.12,169.38Zm35.14-1.59c-2.35-.22-4.72-.38-7-.47l0-1c2.35.09,4.74.25,7.1.47Zm-21.16-.24-.07-1c2.35-.17,4.74-.28,7.11-.32v1C131.8,167.27,129.43,167.38,127.1,167.55Z"/><path class="cls-3" d="M223.75,195.83q-1.51-1-3-1.89l.54-.87c1,.62,2,1.25,3,1.9Z"/><path class="cls-16" d="M223.67,195.77l-1.57-1.52.71-.73,1.57,1.51Zm-6.78-6.4c-1.75-1.62-3.54-3.22-5.31-4.78l.67-.76c1.78,1.55,3.57,3.16,5.34,4.78ZM206.15,180c-1.82-1.52-3.68-3-5.53-4.51l.63-.8c1.86,1.48,3.73,3,5.56,4.53ZM195,171.07c-1.9-1.44-3.84-2.86-5.76-4.23l.6-.83c1.92,1.37,3.87,2.8,5.78,4.24Zm-11.63-8.29c-2-1.33-4-2.64-6-3.91l.54-.86c2,1.27,4,2.59,6,3.92Zm-248.85,0-.6-.83s2.16-1.55,6.06-3.94l.53.87C-63.38,161.24-65.49,162.74-65.51,162.76Zm12.15-7.52-.5-.89c2-1.15,4.17-2.31,6.31-3.42l.47.9C-49.21,153-51.32,154.09-53.36,155.24Zm224.64-.1c-2.06-1.22-4.14-2.42-6.19-3.55l.5-.9c2,1.14,4.14,2.34,6.21,3.57Zm-212-6.52-.45-.92c2.13-1,4.32-2,6.5-3l.42.93C-36.39,146.57-38.57,147.59-40.69,148.62Zm199.48-.4c-2.12-1.09-4.27-2.16-6.39-3.17l.44-.92c2.13,1,4.29,2.08,6.42,3.18Zm-186.44-5.46-.4-.94c2.2-.92,4.44-1.81,6.67-2.66l.36,1C-23.24,141-25.47,141.85-27.65,142.76Zm173.56-.68c-2.17-.94-4.39-1.87-6.59-2.75l.38-1c2.21.88,4.44,1.81,6.62,2.77Zm-160.22-4.43-.34-1c2.26-.79,4.55-1.56,6.81-2.27l.31,1C-9.78,136.1-12.06,136.87-14.31,137.65Zm147-.86c-2.23-.81-4.51-1.59-6.75-2.31l.32-1c2.25.73,4.53,1.52,6.78,2.33ZM-.69,133.32l-.29-1c2.3-.66,4.63-1.29,6.93-1.88l.25,1C3.92,132,1.6,132.67-.69,133.32Zm119.76-.93c-2.26-.65-4.58-1.27-6.89-1.85l.25-1c2.32.59,4.65,1.21,6.93,1.87Zm-105.92-2.6-.22-1c2.31-.52,4.68-1,7-1.46l.19,1C17.81,128.79,15.46,129.28,13.15,129.79Zm92.08-.87c-2.3-.49-4.66-.95-7-1.37l.18-1c2.35.42,4.72.89,7,1.38Zm-78.05-1.81-.16-1c2.36-.37,4.75-.72,7.1-1l.13,1C31.91,126.4,29.53,126.74,27.18,127.11Zm64-.69c-2.33-.33-4.72-.63-7.08-.89l.11-1c2.38.25,4.77.55,7.12.89Zm-49.84-1.11-.1-1c2.38-.22,4.78-.41,7.16-.56l.06,1C46.1,124.9,43.7,125.09,41.34,125.31ZM77,124.89c-2.36-.17-4.76-.3-7.13-.39l0-1c2.38.09,4.79.22,7.16.39Zm-21.4-.46,0-1c2-.06,4.13-.09,6.17-.09h1v1h-1C59.7,124.34,57.63,124.37,55.59,124.43Z"/><path class="cls-17" d="M222.09,191.1s-.93-2.47-2.94-6.52l.92-.46c2,4.11,3,6.59,3,6.62Zm-6.28-12.84c-1.15-2-2.38-4.12-3.64-6.15l.86-.54c1.28,2,2.52,4.13,3.67,6.19Zm-7.55-12.13c-1.33-1.94-2.73-3.9-4.16-5.81l.82-.61c1.44,1.92,2.85,3.89,4.18,5.84Zm-8.54-11.45c-1.49-1.84-3-3.67-4.61-5.45l.77-.68c1.57,1.79,3.13,3.64,4.63,5.49ZM190.29,144c-1.63-1.71-3.32-3.42-5-5.07l.71-.74c1.71,1.67,3.41,3.39,5.05,5.1ZM180.05,134c-1.76-1.58-3.57-3.15-5.4-4.66l.65-.79c1.84,1.52,3.67,3.1,5.43,4.69Zm-11-9.11c-1.88-1.43-3.81-2.85-5.75-4.22l.59-.84c2,1.38,3.89,2.81,5.78,4.25Zm-11.66-8.22c-2-1.29-4-2.56-6.06-3.77l.52-.88c2,1.22,4.09,2.49,6.09,3.79Zm-12.26-7.3c-2.06-1.13-4.18-2.23-6.32-3.3l.45-.91c2.15,1.07,4.29,2.18,6.36,3.31ZM132.38,103c-2.14-1-4.34-1.92-6.55-2.82l.39-.94c2.22.9,4.43,1.86,6.59,2.83Zm-13.19-5.4c-2.2-.81-4.47-1.6-6.74-2.35l.32-1c2.28.75,4.56,1.54,6.77,2.36Zm-13.55-4.47c-2.26-.66-4.58-1.29-6.88-1.88l.25-1c2.32.59,4.64,1.23,6.91,1.89ZM91.82,89.61c-2.3-.51-4.65-1-7-1.44l.19-1c2.35.44,4.71.93,7,1.45ZM77.8,87c-2.34-.38-4.71-.72-7.06-1l.13-1c2.36.31,4.75.65,7.1,1ZM63.65,85.11c-2.35-.23-4.74-.44-7.11-.62l.08-1c2.37.18,4.77.39,7.14.62Zm-49.92-.56-.08-1c2.39-.17,4.79-.31,7.16-.43l.05,1C18.5,84.24,16.1,84.38,13.73,84.55Zm35.69-.48c-2.36-.11-4.76-.2-7.14-.25l0-1c2.39,0,4.8.13,7.16.24ZM28,83.86l0-1c2.39-.07,4.8-.1,7.17-.11v1C32.78,83.76,30.38,83.79,28,83.86Z"/><path class="cls-18" d="M224.53,195.4h-1c0-.11,0-2.71-.19-7.18l1-.05C224.53,192.67,224.53,195.29,224.53,195.4ZM223,181.06c-.15-2.32-.33-4.72-.53-7.15l1-.08c.2,2.43.38,4.84.53,7.16Zm-1.19-14.28c-.23-2.27-.49-4.65-.78-7.12l1-.12c.29,2.47.55,4.86.78,7.13Zm-1.69-14.22c-.32-2.3-.66-4.67-1-7.09l1-.15q.57,3.63,1,7.1Zm-2.2-14.15c-.41-2.37-.84-4.73-1.29-7l1-.19c.44,2.31.88,4.68,1.29,7.06Zm-2.71-14c-.5-2.34-1-4.69-1.56-7l1-.24c.53,2.31,1.06,4.66,1.56,7Zm-3.26-13.93c-.6-2.34-1.22-4.66-1.84-6.91l1-.28c.63,2.26,1.25,4.59,1.85,6.93Zm-3.84-13.78c-.69-2.28-1.42-4.57-2.15-6.82l1-.32c.74,2.25,1.47,4.56,2.16,6.84Zm-4.47-13.58c-.8-2.25-1.64-4.5-2.49-6.7l1-.37c.86,2.21,1.7,4.47,2.5,6.73Zm-5.16-13.33c-.92-2.19-1.88-4.38-2.85-6.53l.93-.42c1,2.15,1.94,4.36,2.86,6.56Zm-5.9-13c-1.06-2.14-2.15-4.28-3.26-6.34l.9-.48c1.11,2.07,2.21,4.22,3.27,6.37ZM185.8,44.18c-1.2-2.06-2.45-4.11-3.7-6.1l.86-.55c1.26,2,2.51,4.07,3.72,6.14Zm-7.63-12c-1.35-2-2.75-3.91-4.17-5.79l.82-.62c1.43,1.9,2.84,3.86,4.19,5.83Zm-8.58-11.39c-1.52-1.83-3.08-3.64-4.66-5.38l.76-.69c1.58,1.75,3.16,3.58,4.69,5.42ZM160,10.21c-1.69-1.68-3.43-3.32-5.17-4.89l.69-.76c1.75,1.58,3.5,3.23,5.2,4.93Z"/><path class="cls-2" d="M224.63,190.28q-.25-3.61-.46-7.15l1-.06q.21,3.54.46,7.14Zm-.85-14.3c-.12-2.41-.22-4.79-.32-7.15l1,0c.09,2.35.19,4.74.31,7.14Zm-.56-14.31q-.1-3.61-.16-7.16h1q.06,3.52.16,7.14ZM223,147.35c0-1.28,0-2.56,0-3.82s0-2.23,0-3.34h1c0,1.1,0,2.21,0,3.33s0,2.53,0,3.82Zm1.1-14.3-1,0c0-2.42.1-4.81.17-7.16l1,0C224.17,128.25,224.12,130.63,224.07,133.05Zm.44-14.29-1-.05q.16-3.63.37-7.15l1,.06Q224.67,115.13,224.51,118.76Zm.83-14.27-1-.07q.27-3.65.58-7.14l1,.09Q225.61,100.87,225.34,104.49Zm1.26-14.23-1-.11q.39-3.63.81-7.12l1,.13Q227,86.63,226.6,90.26Zm1.73-14.19-1-.14c.33-2.39.69-4.77,1.06-7.09l1,.16C229,71.31,228.67,73.69,228.33,76.07ZM230.58,62l-1-.18c.43-2.35.88-4.72,1.35-7l1,.21C231.45,57.25,231,59.62,230.58,62Zm2.83-14-1-.22c.53-2.36,1.09-4.71,1.66-7l1,.25C234.5,43.27,234,45.61,233.41,48Zm3.5-13.84-1-.28c.65-2.32,1.33-4.63,2-6.87l1,.3C238.24,29.5,237.56,31.8,236.91,34.12Zm4.26-13.62-1-.34c.8-2.29,1.63-4.56,2.47-6.73l1,.37C242.8,16,242,18.21,241.17,20.5Zm5.19-13.29-.94-.41c1-2.26,2-4.45,3-6.51l.92.46C248.35,2.79,247.34,5,246.36,7.21Zm6.37-12.74L251.85-6a50.78,50.78,0,0,1,4-6.06l.79.65A53.2,53.2,0,0,0,252.73-5.53Z"/><path class="cls-19" d="M101.67,363.83l-1-.14s.38-2.66,1.16-7.16l1,.17C102.05,361.19,101.67,363.8,101.67,363.83Zm2.45-14.19-1-.2c.41-2.15.88-4.51,1.41-7.05l1,.2C105,345.13,104.54,347.48,104.12,349.64ZM107,335.58l-1-.22c.5-2.24,1-4.58,1.61-7l1,.23C108.07,331,107.53,333.34,107,335.58Zm3.31-13.95-1-.25c.57-2.27,1.18-4.59,1.81-6.95l1,.27C111.52,317.05,110.92,319.37,110.35,321.63Zm3.72-13.84-1-.28c.65-2.27,1.32-4.56,2-6.88l1,.29C115.39,303.24,114.72,305.53,114.07,307.79Zm4.17-13.7-1-.32c.75-2.31,1.52-4.6,2.27-6.81l1,.33C119.75,289.49,119,291.78,118.24,294.09Zm4.65-13.54-1-.35c.83-2.25,1.68-4.51,2.54-6.7l1,.37C124.57,276.06,123.72,278.31,122.89,280.55Zm5.22-13.31-1-.4c1-2.25,1.91-4.47,2.87-6.6l.93.42C130,262.78,129.05,265,128.11,267.24ZM134,254.18l-.92-.45c1.05-2.18,2.14-4.33,3.23-6.41l.91.47C136.12,249.86,135,252,134,254.18Zm6.65-12.65-.88-.51c1.21-2.12,2.45-4.19,3.69-6.16l.86.54C143.09,237.36,141.85,239.42,140.64,241.53Zm7.6-12.08-.84-.59c1.39-2,2.82-4,4.26-5.79l.8.63C151,225.52,149.62,227.46,148.24,229.45ZM157,218.2l-.76-.67c1.62-1.84,3.28-3.6,4.94-5.22l.71.73C160.25,214.65,158.61,216.39,157,218.2Zm10.16-9.93-.65-.79c1.88-1.56,3.81-3,5.74-4.32l.58.85C170.92,205.3,169,206.73,167.16,208.27Zm11.73-7.89-.47-.91a56.7,56.7,0,0,1,6.55-2.94l.36.95A56.59,56.59,0,0,0,178.89,200.38Zm13.19-4.93-.23-1a51.2,51.2,0,0,1,7.1-1.13l.09,1A52.51,52.51,0,0,0,192.08,195.45Zm21.08-.5a57,57,0,0,0-7-.75l0-1a57.08,57.08,0,0,1,7.17.77Z"/><path class="cls-6" d="M202.28,403.83s-.3-2.6-.7-7.14l1-.09c.41,4.52.71,7.09.71,7.12ZM201,389.55q-.25-3.27-.51-7.15l1-.07c.17,2.58.34,5,.51,7.14Zm-.94-14.3q-.19-3.42-.36-7.16l1,0c.11,2.48.23,4.87.36,7.14Zm-.65-14.32q-.12-3.48-.21-7.16l1,0c.06,2.44.14,4.83.22,7.15ZM199,346.61q0-3.51-.06-7.16h1q0,3.65.07,7.16Zm1-14.32h-1c0-2.35.05-4.74.09-7.16l1,0C200.07,327.55,200,329.94,200,332.29Zm.27-14.3-1,0q.1-3.56.26-7.17l1,0Q200.4,314.44,200.29,318Zm.62-14.29-1-.06c.14-2.37.29-4.76.46-7.15l1,.07Q201.12,300.15,200.91,303.7Zm1-14.26-1-.09q.3-3.56.66-7.13l1,.1Q202.22,285.89,201.92,289.44Zm1.43-14.22-1-.12c.28-2.38.57-4.75.9-7.11l1,.13Q203.77,271.66,203.35,275.22ZM205.28,261l-1-.15c.36-2.36.76-4.75,1.17-7.08l1,.18C206,256.32,205.64,258.69,205.28,261ZM207.77,247l-1-.2c.48-2.38,1-4.74,1.49-7l1,.23C208.75,242.24,208.25,244.59,207.77,247ZM210.93,233l-1-.25c.59-2.34,1.22-4.67,1.87-6.92l1,.28C212.15,228.38,211.52,230.7,210.93,233Zm3.95-13.72-1-.32c.75-2.3,1.53-4.58,2.33-6.78l1,.35C216.39,214.74,215.61,217,214.88,219.3Zm4.9-13.4-.94-.39c.93-2.26,1.9-4.47,2.89-6.57l.93.43C221.68,201.46,220.71,203.65,219.78,205.9Z"/></g><path d="M223.81,203.19c-.69,0-1.38,0-2.05,0l0-1,2.1,0c1.63,0,3.26-.07,4.84-.2l.08,1c-1.6.13-3.26.2-4.92.2Zm-9.08-.72a34.53,34.53,0,0,1-6.87-1.8l.37-.93a33.12,33.12,0,0,0,6.66,1.74Zm21.07-.55-.23-1a23.88,23.88,0,0,0,6.41-2.36l.51.86A24.48,24.48,0,0,1,235.8,201.92Zm-33.61-5.71a3.29,3.29,0,0,1-.18-1.07c0-1.75,1.43-3.4,4.12-4.76l.45.9c-1.62.82-3.57,2.16-3.57,3.86a2.46,2.46,0,0,0,.13.75Zm43.57-1.07h-1c0-1.49-1.55-3-4.38-4.25l.41-.91C244,191.41,245.76,193.2,245.76,195.14Zm-32.66-6-.21-1a50.82,50.82,0,0,1,7-.94l.07,1A50.16,50.16,0,0,0,213.1,189.14Zm20.69-.17a50.67,50.67,0,0,0-6.89-.79l0-1a52.43,52.43,0,0,1,7,.8Z"/><g class="cls-15"><path class="cls-3" d="M-12.53,275.66l-.89-.5c1.12-2,2.3-4.12,3.51-6.19l.88.51C-10.24,271.55-11.41,273.62-12.53,275.66Zm7.15-12.25-.87-.54c1.24-2,2.53-4,3.82-6l.85.56C-2.86,259.4-4.14,261.41-5.38,263.41Zm7.75-11.87L1.53,251c1.34-2,2.72-3.9,4.11-5.81l.82.6C5.09,247.65,3.71,249.6,2.37,251.54Zm8.33-11.47-.81-.62c1.44-1.89,2.92-3.77,4.39-5.59l.8.64C13.61,236.32,12.14,238.19,10.7,240.07Zm8.9-11-.77-.67c1.54-1.81,3.12-3.61,4.69-5.34l.76.69C22.72,225.46,21.14,227.25,19.6,229.06Zm9.5-10.5-.73-.71c1.64-1.71,3.33-3.41,5-5l.72.73C32.42,215.16,30.74,216.85,29.1,218.56Zm10.13-9.89-.69-.76c1.75-1.6,3.54-3.18,5.33-4.71l.66.78C42.76,205.5,41,207.07,39.23,208.67ZM50,199.49l-.63-.8c1.87-1.48,3.77-2.93,5.66-4.31l.6.83C53.75,196.58,51.85,198,50,199.49Zm11.42-8.34-.56-.85c2-1.32,4-2.61,6-3.83l.53.88C65.38,188.56,63.38,189.84,61.41,191.15Zm153.26-.81c-2-1.19-4.14-2.34-6.19-3.43l.48-.9c2.06,1.09,4.15,2.25,6.22,3.44ZM73.49,183.81l-.49-.9c2.09-1.14,4.21-2.24,6.31-3.27l.45.92C77.67,181.58,75.56,182.67,73.49,183.81Zm128.69-.12c-2.13-1-4.29-2-6.4-3l.41-.94c2.13.95,4.3,2,6.44,3ZM189.26,178c-2.19-.88-4.42-1.71-6.62-2.48l.34-1c2.21.78,4.45,1.62,6.66,2.5Zm-103.08-.34-.4-.94c2.19-.94,4.41-1.82,6.61-2.63l.35,1C90.56,175.83,88.35,176.7,86.18,177.63Zm89.74-4.33c-2.26-.68-4.55-1.32-6.81-1.89l.25-1c2.27.57,4.58,1.21,6.86,1.9Zm-76.49-.53-.3-1c2.27-.69,4.57-1.33,6.85-1.9l.25,1C104,171.44,101.68,172.08,99.43,172.77Zm62.8-2.92c-2.32-.46-4.66-.87-7-1.21l.15-1c2.32.34,4.67.75,7,1.22Zm-49.11-.47-.19-1c2.33-.44,4.69-.82,7-1.12l.14,1C117.78,168.57,115.43,168.94,113.12,169.38Zm35.14-1.59c-2.35-.22-4.72-.38-7-.47l0-1c2.35.09,4.74.25,7.1.47Zm-21.16-.24-.07-1c2.35-.17,4.74-.28,7.11-.32v1C131.8,167.27,129.43,167.38,127.1,167.55Z"/><path class="cls-3" d="M223.75,195.83q-1.51-1-3-1.89l.54-.87c1,.62,2,1.25,3,1.9Z"/><path class="cls-16" d="M223.67,195.77l-1.57-1.52.71-.73,1.57,1.51Zm-6.78-6.4c-1.75-1.62-3.54-3.22-5.31-4.78l.67-.76c1.78,1.55,3.57,3.16,5.34,4.78ZM206.15,180c-1.82-1.52-3.68-3-5.53-4.51l.63-.8c1.86,1.48,3.73,3,5.56,4.53ZM195,171.07c-1.9-1.44-3.84-2.86-5.76-4.23l.6-.83c1.92,1.37,3.87,2.8,5.78,4.24Zm-11.63-8.29c-2-1.33-4-2.64-6-3.91l.54-.86c2,1.27,4,2.59,6,3.92Zm-248.85,0-.6-.83s2.16-1.55,6.06-3.94l.53.87C-63.38,161.24-65.49,162.74-65.51,162.76Zm12.15-7.52-.5-.89c2-1.15,4.17-2.31,6.31-3.42l.47.9C-49.21,153-51.32,154.09-53.36,155.24Zm224.64-.1c-2.06-1.22-4.14-2.42-6.19-3.55l.5-.9c2,1.14,4.14,2.34,6.21,3.57Zm-212-6.52-.45-.92c2.13-1,4.32-2,6.5-3l.42.93C-36.39,146.57-38.57,147.59-40.69,148.62Zm199.48-.4c-2.12-1.09-4.27-2.16-6.39-3.17l.44-.92c2.13,1,4.29,2.08,6.42,3.18Zm-186.44-5.46-.4-.94c2.2-.92,4.44-1.81,6.67-2.66l.36,1C-23.24,141-25.47,141.85-27.65,142.76Zm173.56-.68c-2.17-.94-4.39-1.87-6.59-2.75l.38-1c2.21.88,4.44,1.81,6.62,2.77Zm-160.22-4.43-.34-1c2.26-.79,4.55-1.56,6.81-2.27l.31,1C-9.78,136.1-12.06,136.87-14.31,137.65Zm147-.86c-2.23-.81-4.51-1.59-6.75-2.31l.32-1c2.25.73,4.53,1.52,6.78,2.33ZM-.69,133.32l-.29-1c2.3-.66,4.63-1.29,6.93-1.88l.25,1C3.92,132,1.6,132.67-.69,133.32Zm119.76-.93c-2.26-.65-4.58-1.27-6.89-1.85l.25-1c2.32.59,4.65,1.21,6.93,1.87Zm-105.92-2.6-.22-1c2.31-.52,4.68-1,7-1.46l.19,1C17.81,128.79,15.46,129.28,13.15,129.79Zm92.08-.87c-2.3-.49-4.66-.95-7-1.37l.18-1c2.35.42,4.72.89,7,1.38Zm-78.05-1.81-.16-1c2.36-.37,4.75-.72,7.1-1l.13,1C31.91,126.4,29.53,126.74,27.18,127.11Zm64-.69c-2.33-.33-4.72-.63-7.08-.89l.11-1c2.38.25,4.77.55,7.12.89Zm-49.84-1.11-.1-1c2.38-.22,4.78-.41,7.16-.56l.06,1C46.1,124.9,43.7,125.09,41.34,125.31ZM77,124.89c-2.36-.17-4.76-.3-7.13-.39l0-1c2.38.09,4.79.22,7.16.39Zm-21.4-.46,0-1c2-.06,4.13-.09,6.17-.09h1v1h-1C59.7,124.34,57.63,124.37,55.59,124.43Z"/><path class="cls-17" d="M222.09,191.1s-.93-2.47-2.94-6.52l.92-.46c2,4.11,3,6.59,3,6.62Zm-6.28-12.84c-1.15-2-2.38-4.12-3.64-6.15l.86-.54c1.28,2,2.52,4.13,3.67,6.19Zm-7.55-12.13c-1.33-1.94-2.73-3.9-4.16-5.81l.82-.61c1.44,1.92,2.85,3.89,4.18,5.84Zm-8.54-11.45c-1.49-1.84-3-3.67-4.61-5.45l.77-.68c1.57,1.79,3.13,3.64,4.63,5.49ZM190.29,144c-1.63-1.71-3.32-3.42-5-5.07l.71-.74c1.71,1.67,3.41,3.39,5.05,5.1ZM180.05,134c-1.76-1.58-3.57-3.15-5.4-4.66l.65-.79c1.84,1.52,3.67,3.1,5.43,4.69Zm-11-9.11c-1.88-1.43-3.81-2.85-5.75-4.22l.59-.84c2,1.38,3.89,2.81,5.78,4.25Zm-11.66-8.22c-2-1.29-4-2.56-6.06-3.77l.52-.88c2,1.22,4.09,2.49,6.09,3.79Zm-12.26-7.3c-2.06-1.13-4.18-2.23-6.32-3.3l.45-.91c2.15,1.07,4.29,2.18,6.36,3.31ZM132.38,103c-2.14-1-4.34-1.92-6.55-2.82l.39-.94c2.22.9,4.43,1.86,6.59,2.83Zm-13.19-5.4c-2.2-.81-4.47-1.6-6.74-2.35l.32-1c2.28.75,4.56,1.54,6.77,2.36Zm-13.55-4.47c-2.26-.66-4.58-1.29-6.88-1.88l.25-1c2.32.59,4.64,1.23,6.91,1.89ZM91.82,89.61c-2.3-.51-4.65-1-7-1.44l.19-1c2.35.44,4.71.93,7,1.45ZM77.8,87c-2.34-.38-4.71-.72-7.06-1l.13-1c2.36.31,4.75.65,7.1,1ZM63.65,85.11c-2.35-.23-4.74-.44-7.11-.62l.08-1c2.37.18,4.77.39,7.14.62Zm-49.92-.56-.08-1c2.39-.17,4.79-.31,7.16-.43l.05,1C18.5,84.24,16.1,84.38,13.73,84.55Zm35.69-.48c-2.36-.11-4.76-.2-7.14-.25l0-1c2.39,0,4.8.13,7.16.24ZM28,83.86l0-1c2.39-.07,4.8-.1,7.17-.11v1C32.78,83.76,30.38,83.79,28,83.86Z"/><path class="cls-18" d="M224.53,195.4h-1c0-.11,0-2.71-.19-7.18l1-.05C224.53,192.67,224.53,195.29,224.53,195.4ZM223,181.06c-.15-2.32-.33-4.72-.53-7.15l1-.08c.2,2.43.38,4.84.53,7.16Zm-1.19-14.28c-.23-2.27-.49-4.65-.78-7.12l1-.12c.29,2.47.55,4.86.78,7.13Zm-1.69-14.22c-.32-2.3-.66-4.67-1-7.09l1-.15q.57,3.63,1,7.1Zm-2.2-14.15c-.41-2.37-.84-4.73-1.29-7l1-.19c.44,2.31.88,4.68,1.29,7.06Zm-2.71-14c-.5-2.34-1-4.69-1.56-7l1-.24c.53,2.31,1.06,4.66,1.56,7Zm-3.26-13.93c-.6-2.34-1.22-4.66-1.84-6.91l1-.28c.63,2.26,1.25,4.59,1.85,6.93Zm-3.84-13.78c-.69-2.28-1.42-4.57-2.15-6.82l1-.32c.74,2.25,1.47,4.56,2.16,6.84Zm-4.47-13.58c-.8-2.25-1.64-4.5-2.49-6.7l1-.37c.86,2.21,1.7,4.47,2.5,6.73Zm-5.16-13.33c-.92-2.19-1.88-4.38-2.85-6.53l.93-.42c1,2.15,1.94,4.36,2.86,6.56Zm-5.9-13c-1.06-2.14-2.15-4.28-3.26-6.34l.9-.48c1.11,2.07,2.21,4.22,3.27,6.37ZM185.8,44.18c-1.2-2.06-2.45-4.11-3.7-6.1l.86-.55c1.26,2,2.51,4.07,3.72,6.14Zm-7.63-12c-1.35-2-2.75-3.91-4.17-5.79l.82-.62c1.43,1.9,2.84,3.86,4.19,5.83Zm-8.58-11.39c-1.52-1.83-3.08-3.64-4.66-5.38l.76-.69c1.58,1.75,3.16,3.58,4.69,5.42ZM160,10.21c-1.69-1.68-3.43-3.32-5.17-4.89l.69-.76c1.75,1.58,3.5,3.23,5.2,4.93Z"/><path class="cls-2" d="M224.63,190.28q-.25-3.61-.46-7.15l1-.06q.21,3.54.46,7.14Zm-.85-14.3c-.12-2.41-.22-4.79-.32-7.15l1,0c.09,2.35.19,4.74.31,7.14Zm-.56-14.31q-.1-3.61-.16-7.16h1q.06,3.52.16,7.14ZM223,147.35c0-1.28,0-2.56,0-3.82s0-2.23,0-3.34h1c0,1.1,0,2.21,0,3.33s0,2.53,0,3.82Zm1.1-14.3-1,0c0-2.42.1-4.81.17-7.16l1,0C224.17,128.25,224.12,130.63,224.07,133.05Zm.44-14.29-1-.05q.16-3.63.37-7.15l1,.06Q224.67,115.13,224.51,118.76Zm.83-14.27-1-.07q.27-3.65.58-7.14l1,.09Q225.61,100.87,225.34,104.49Zm1.26-14.23-1-.11q.39-3.63.81-7.12l1,.13Q227,86.63,226.6,90.26Zm1.73-14.19-1-.14c.33-2.39.69-4.77,1.06-7.09l1,.16C229,71.31,228.67,73.69,228.33,76.07ZM230.58,62l-1-.18c.43-2.35.88-4.72,1.35-7l1,.21C231.45,57.25,231,59.62,230.58,62Zm2.83-14-1-.22c.53-2.36,1.09-4.71,1.66-7l1,.25C234.5,43.27,234,45.61,233.41,48Zm3.5-13.84-1-.28c.65-2.32,1.33-4.63,2-6.87l1,.3C238.24,29.5,237.56,31.8,236.91,34.12Zm4.26-13.62-1-.34c.8-2.29,1.63-4.56,2.47-6.73l1,.37C242.8,16,242,18.21,241.17,20.5Zm5.19-13.29-.94-.41c1-2.26,2-4.45,3-6.51l.92.46C248.35,2.79,247.34,5,246.36,7.21Zm6.37-12.74L251.85-6a50.78,50.78,0,0,1,4-6.06l.79.65A53.2,53.2,0,0,0,252.73-5.53Z"/><path class="cls-19" d="M101.67,363.83l-1-.14s.38-2.66,1.16-7.16l1,.17C102.05,361.19,101.67,363.8,101.67,363.83Zm2.45-14.19-1-.2c.41-2.15.88-4.51,1.41-7.05l1,.2C105,345.13,104.54,347.48,104.12,349.64ZM107,335.58l-1-.22c.5-2.24,1-4.58,1.61-7l1,.23C108.07,331,107.53,333.34,107,335.58Zm3.31-13.95-1-.25c.57-2.27,1.18-4.59,1.81-6.95l1,.27C111.52,317.05,110.92,319.37,110.35,321.63Zm3.72-13.84-1-.28c.65-2.27,1.32-4.56,2-6.88l1,.29C115.39,303.24,114.72,305.53,114.07,307.79Zm4.17-13.7-1-.32c.75-2.31,1.52-4.6,2.27-6.81l1,.33C119.75,289.49,119,291.78,118.24,294.09Zm4.65-13.54-1-.35c.83-2.25,1.68-4.51,2.54-6.7l1,.37C124.57,276.06,123.72,278.31,122.89,280.55Zm5.22-13.31-1-.4c1-2.25,1.91-4.47,2.87-6.6l.93.42C130,262.78,129.05,265,128.11,267.24ZM134,254.18l-.92-.45c1.05-2.18,2.14-4.33,3.23-6.41l.91.47C136.12,249.86,135,252,134,254.18Zm6.65-12.65-.88-.51c1.21-2.12,2.45-4.19,3.69-6.16l.86.54C143.09,237.36,141.85,239.42,140.64,241.53Zm7.6-12.08-.84-.59c1.39-2,2.82-4,4.26-5.79l.8.63C151,225.52,149.62,227.46,148.24,229.45ZM157,218.2l-.76-.67c1.62-1.84,3.28-3.6,4.94-5.22l.71.73C160.25,214.65,158.61,216.39,157,218.2Zm10.16-9.93-.65-.79c1.88-1.56,3.81-3,5.74-4.32l.58.85C170.92,205.3,169,206.73,167.16,208.27Zm11.73-7.89-.47-.91a56.7,56.7,0,0,1,6.55-2.94l.36.95A56.59,56.59,0,0,0,178.89,200.38Zm13.19-4.93-.23-1a51.2,51.2,0,0,1,7.1-1.13l.09,1A52.51,52.51,0,0,0,192.08,195.45Zm21.08-.5a57,57,0,0,0-7-.75l0-1a57.08,57.08,0,0,1,7.17.77Z"/><path class="cls-6" d="M202.28,403.83s-.3-2.6-.7-7.14l1-.09c.41,4.52.71,7.09.71,7.12ZM201,389.55q-.25-3.27-.51-7.15l1-.07c.17,2.58.34,5,.51,7.14Zm-.94-14.3q-.19-3.42-.36-7.16l1,0c.11,2.48.23,4.87.36,7.14Zm-.65-14.32q-.12-3.48-.21-7.16l1,0c.06,2.44.14,4.83.22,7.15ZM199,346.61q0-3.51-.06-7.16h1q0,3.65.07,7.16Zm1-14.32h-1c0-2.35.05-4.74.09-7.16l1,0C200.07,327.55,200,329.94,200,332.29Zm.27-14.3-1,0q.1-3.56.26-7.17l1,0Q200.4,314.44,200.29,318Zm.62-14.29-1-.06c.14-2.37.29-4.76.46-7.15l1,.07Q201.12,300.15,200.91,303.7Zm1-14.26-1-.09q.3-3.56.66-7.13l1,.1Q202.22,285.89,201.92,289.44Zm1.43-14.22-1-.12c.28-2.38.57-4.75.9-7.11l1,.13Q203.77,271.66,203.35,275.22ZM205.28,261l-1-.15c.36-2.36.76-4.75,1.17-7.08l1,.18C206,256.32,205.64,258.69,205.28,261ZM207.77,247l-1-.2c.48-2.38,1-4.74,1.49-7l1,.23C208.75,242.24,208.25,244.59,207.77,247ZM210.93,233l-1-.25c.59-2.34,1.22-4.67,1.87-6.92l1,.28C212.15,228.38,211.52,230.7,210.93,233Zm3.95-13.72-1-.32c.75-2.3,1.53-4.58,2.33-6.78l1,.35C216.39,214.74,215.61,217,214.88,219.3Zm4.9-13.4-.94-.39c.93-2.26,1.9-4.47,2.89-6.57l.93.43C221.68,201.46,220.71,203.65,219.78,205.9Z"/></g></g></g></svg>