<?xml version="1.0" encoding="utf-8"?><svg id="Layer_1" data-name="Layer 1" xmlns="http://www.w3.org/2000/svg" xmlns:xlink="http://www.w3.org/1999/xlink" viewBox="0 0 400 400"><defs><style>.cls-1{fill:none;}.cls-2{fill:#0093d2;}.cls-3{clip-path:url(#clip-path);}.cls-4{fill:#d50057;}.cls-5{clip-path:url(#clip-path-2);}.cls-6{opacity:0.1;}.cls-7{fill:#c2d500;}</style><clipPath id="clip-path"><circle class="cls-1" cx="200" cy="200" r="200"/></clipPath><clipPath id="clip-path-2"><circle class="cls-2" cx="200" cy="622.11" r="200"/></clipPath></defs><title>4Artboard 1 copy 7</title><g class="cls-3"><circle class="cls-4" cx="234.97" cy="188.23" r="276.69"/></g><circle class="cls-2" cx="200" cy="622.11" r="200"/><g class="cls-5"><g class="cls-6"><circle class="cls-2" cx="234.97" cy="610.33" r="276.69"/></g></g><g class="cls-3"><path d="M192.53,98.14a5.59,5.59,0,0,1-5.59-5.59V75.78a5.59,5.59,0,0,1,11.18,0V92.55A5.59,5.59,0,0,1,192.53,98.14Z"/><path d="M192.53,405.59a5.59,5.59,0,0,1-5.59-5.59V293.79a5.59,5.59,0,1,1,11.18,0V400A5.59,5.59,0,0,1,192.53,405.59Z"/><path d="M192.53,209.94a5.59,5.59,0,0,1-5.59-5.59V182a5.59,5.59,0,1,1,11.18,0v22.36A5.59,5.59,0,0,1,192.53,209.94Z"/><path class="cls-2" d="M303.71,182H88.54a13.4,13.4,0,0,1-13.4-13.4V106a13.4,13.4,0,0,1,13.4-13.4H303.71l48.7,43.83a1.2,1.2,0,0,1,0,1.78Z"/><path class="cls-7" d="M96.29,293.79h217a13.4,13.4,0,0,0,13.4-13.4V217.75a13.4,13.4,0,0,0-13.4-13.4h-217l-48.7,43.83a1.2,1.2,0,0,0,0,1.78Z"/></g></svg>