<?xml version="1.0" encoding="utf-8"?><svg xmlns="http://www.w3.org/2000/svg" xmlns:xlink="http://www.w3.org/1999/xlink" viewBox="0 0 400 400"><defs><style>.cls-1{fill:#ffc629;}.cls-2{fill:#0093d2;}.cls-3{fill:#c2d500;}.cls-4{isolation:isolate;}.cls-5{clip-path:url(#clip-path);}.cls-6{clip-path:url(#clip-path-2);}.cls-7{opacity:0.1;}.cls-8{clip-path:url(#clip-path-3);}.cls-9{opacity:0.36;mix-blend-mode:multiply;}.cls-10{fill:#666;}.cls-11{fill:#999;}.cls-12{fill:#b1e9f1;}.cls-13{fill:#fff;}</style><clipPath id="clip-path"><circle class="cls-1" cx="200" cy="200" r="200"/></clipPath><clipPath id="clip-path-2"><circle class="cls-2" cx="200" cy="-222.11" r="200"/></clipPath><clipPath id="clip-path-3"><circle class="cls-3" cx="200" cy="622.11" r="200"/></clipPath></defs><title>4Artboard 1 copy 21</title><g class="cls-4"><g id="Layer_1" data-name="Layer 1"><circle class="cls-1" cx="200" cy="200" r="200"/><g class="cls-5"><circle class="cls-1" cx="234.97" cy="188.23" r="276.69"/></g><path class="cls-3" d="M393.31,148.55c-3.9.1-8.73.27-14.28.52l-2.7,6-2.48-4.22-.53-.9-2-3.35-1.68-2.85-1.11,5-.39-.3-2.85,4.75-.11-.27L361.26,143l0-.09,0,.06-.12,2.39-1,4.68-8.61-4.18-.05.25-1.3.58-1.24,4.76-8.61-4.76-.57,2.16-.2.09-.84.35-.21.08-8.94,3.49c-15.94,1.75-32.95,4.19-49.42,7.58l-1.74,5.93-8.28-9.2-1.75,5.94-2.9.66c-7.26,1.81-14.3,3.83-21,6.09l-1.34,5-8.6-5.64-1.3,4.8,1,5.56-10.56-4,1,5.57-5-.39-5.44-3.7-.07,6.39-2.29,1.2-.38.2c-53.92,29.8-90.21,69.26-90.21,69.26L344,299.31h29.67a200.56,200.56,0,0,0,19.67-150.76Z"/><circle class="cls-2" cx="200" cy="-222.11" r="200"/><g class="cls-6"><g class="cls-7"><circle class="cls-2" cx="234.97" cy="-233.88" r="276.69"/></g></g><circle class="cls-3" cx="200" cy="622.11" r="200"/><g class="cls-8"><circle class="cls-3" cx="234.97" cy="610.33" r="276.69"/></g><g class="cls-9"><path class="cls-3" d="M393.31,148.55c-3.9.1-8.73.27-14.28.52l-2.7,6-2.48-4.22-.53-.9-2-3.35-1.68-2.85-1.11,5-.39-.3-2.85,4.75-.11-.27L361.26,143l0-.09,0,.06-.12,2.39-1,4.68-8.61-4.18-.05.25-1.3.58-1.24,4.76-8.61-4.76-.57,2.16-.2.09-.84.35-.21.08-8.94,3.49c-15.94,1.75-32.95,4.19-49.42,7.58l-1.74,5.93-8.28-9.2-1.75,5.94-2.9.66c-7.26,1.81-14.3,3.83-21,6.09l-1.34,5-8.6-5.64-1.3,4.8,1,5.56-10.56-4,1,5.57-5-.39-5.44-3.7-.07,6.39-2.29,1.2-.38.2c-53.92,29.8-90.21,69.26-90.21,69.26L344,299.31h29.67a200.56,200.56,0,0,0,19.67-150.76Z"/></g><path class="cls-3" d="M15.2,123.41c3,.61,6.07,1.28,9.26,2l1.39.32,3.77-2.62,4.14,8.22,1.44-1L39,125.22l2.83,7.62,3.12-5.57,4.9,11.8,3.12-5.57,6.65,2.29,4.6-3.16,1.93,11,1.25-.85,2.25.48,3.88-3.53,4,9.68,3.88-3.53,2.74-.16,3-.42-4.94,9.77,5.42-.75,4.14,3,.86.54.6.37.26.16.5.31.23.15.41.49.27.36v.39l4.61-.8.09.07.73.62.59.49.46.4a59.67,59.67,0,0,1,10.3,13.82A94.13,94.13,0,0,0,121,189l9.69,5.09,1.07.54,1.77-.74-2.36,12.53L137,204l.84.45.38.2.36.21.37.2.71.39,10.8,5.55c59.53,23,149.34-1.68,246.79,22.29C381.4,327.88,299.13,400,200,400,89.54,400,0,310.46,0,200A199.4,199.4,0,0,1,15.2,123.41Z"/><path class="cls-10" d="M51.55,179.17h0a31.15,31.15,0,0,1,31.06,31.05v36.07H20.5V210.22A31.14,31.14,0,0,1,51.55,179.17Z"/><path class="cls-11" d="M50.76,185.76h1.57A30.36,30.36,0,0,1,82.61,216v30.27H20.5V216A30.35,30.35,0,0,1,50.76,185.76Z"/><path class="cls-12" d="M45,197.3h1.28a24.56,24.56,0,0,1,24.49,24.5v24.49H20.5V221.8A24.56,24.56,0,0,1,45,197.3Z"/><polygon class="cls-10" points="84.35 258.69 136.88 258.69 136.88 269.12 84.35 269.12 84.35 258.69"/><path class="cls-10" d="M126.16,385.93V269.12H95.07V370.28A199.68,199.68,0,0,0,126.16,385.93Z"/><path class="cls-10" d="M20.5,246.29H394.6c-1,4.19-2.11,8.31-3.35,12.4H20.5Z"/><path class="cls-11" d="M20.5,252.49H393c-.55,2.08-1.15,4.14-1.77,6.2H20.5Z"/><polygon class="cls-10" points="196.07 258.69 248.6 258.69 248.6 269.12 196.07 269.12 196.07 258.69"/><path class="cls-10" d="M237.88,396.41V269.12h-31.1V399.88A202.45,202.45,0,0,0,237.88,396.41Z"/><polygon class="cls-10" points="308.37 258.69 360.9 258.69 360.9 269.12 308.37 269.12 308.37 258.69"/><path class="cls-10" d="M350.18,332.07V269.12H319.09v91.57A200.38,200.38,0,0,0,350.18,332.07Z"/><path class="cls-13" d="M94,212.25h305.6a200.73,200.73,0,0,1-5.76,37.12h-336a6.25,6.25,0,0,1-4.49-10.58l15-15.61A34.49,34.49,0,0,1,94,212.25Z"/><path class="cls-2" d="M399,220.42H71.28A34.33,34.33,0,0,1,94,212.25h305.6C399.45,215,399.25,217.72,399,220.42Z"/><path class="cls-11" d="M52,240.74H395.85c-.33,1.59-.68,3.17-1.05,4.73H52A6.11,6.11,0,0,1,52,240.74Z"/><polygon class="cls-11" points="68.25 223.27 97.53 223.27 91.58 231.9 59.95 231.9 68.25 223.27"/><polygon class="cls-11" points="114.38 223.27 100.11 223.27 94.25 231.9 114.08 231.9 114.38 223.27"/><path class="cls-2" d="M233.82,225.11H249.9v8.52H233.83v-8.52Zm20.61,0H270.5v8.52H254.43Zm20.6,0H291.1v8.52H275v-8.52Zm20.59,0h16.07v8.52H295.62Zm20.61,0H332.3v8.52H316.23v-8.52Zm20.59,0h16.07v8.52H336.82v-8.52Zm20.6,0H373.5v8.52H357.42Zm20.6,0h16.07v8.52H378v-8.52Z"/></g></g></svg>