<?xml version="1.0" encoding="utf-8"?><svg xmlns="http://www.w3.org/2000/svg" xmlns:xlink="http://www.w3.org/1999/xlink" viewBox="0 0 400 400"><defs><style>.cls-1{fill:#ffc629;}.cls-2{fill:none;}.cls-3{fill:#0093d2;}.cls-4{isolation:isolate;}.cls-5{clip-path:url(#clip-path);}.cls-6{clip-path:url(#clip-path-2);}.cls-7{fill:#d50057;}.cls-8{clip-path:url(#clip-path-3);}.cls-9{opacity:0.1;}.cls-10{clip-path:url(#clip-path-4);}.cls-11{fill:#fff;}.cls-12{fill:#999;}.cls-13{fill:#666;}.cls-14{fill:#4d4d4d;}.cls-15{fill:gray;}.cls-16{mix-blend-mode:multiply;}</style><clipPath id="clip-path"><circle class="cls-1" cx="200" cy="622.11" r="200"/></clipPath><clipPath id="clip-path-2"><circle class="cls-2" cx="200" cy="-222.11" r="200"/></clipPath><clipPath id="clip-path-3"><circle class="cls-3" cx="200" cy="200" r="200"/></clipPath><clipPath id="clip-path-4"><circle class="cls-2" cx="200" cy="200" r="200"/></clipPath></defs><title>4Artboard 1 copy 20</title><g class="cls-4"><g id="Layer_1" data-name="Layer 1"><circle class="cls-1" cx="200" cy="622.11" r="200"/><g class="cls-5"><circle class="cls-1" cx="234.97" cy="610.33" r="276.69"/></g><g class="cls-6"><circle class="cls-7" cx="234.97" cy="-233.88" r="276.69"/></g><circle class="cls-3" cx="200" cy="200" r="200"/><g class="cls-8"><g class="cls-9"><circle class="cls-3" cx="234.97" cy="188.23" r="276.69"/></g></g><g class="cls-10"><path class="cls-11" d="M224.12,85v68.32H175.89V85A60.38,60.38,0,0,1,224.12,85Z"/><path class="cls-7" d="M224.12,58.75V85a60.38,60.38,0,0,0-48.23,0V58.75a60.32,60.32,0,0,1,48.23,0Z"/><polyline class="cls-11" points="298.97 239.81 290.03 153.34 109.97 153.34 101.04 239.81"/><rect class="cls-12" x="96.56" y="147.11" width="206.88" height="12.46"/><rect class="cls-3" x="242.78" y="171.22" width="33.31" height="12.46"/><rect class="cls-3" x="160.96" y="194.03" width="114.04" height="12.46"/><rect class="cls-3" x="123.92" y="194.03" width="25.88" height="12.46"/><rect class="cls-3" x="123.92" y="171.22" width="107.79" height="12.46"/><polygon class="cls-13" points="342.17 257.1 307.4 344.58 302.67 356.5 291.03 385.78 200 409 108.97 385.78 97.33 356.5 92.6 344.58 57.83 257.1 200 200.21 342.17 257.1"/><polygon class="cls-14" points="342.17 257.1 291.03 385.78 200 409 200 200.21 342.17 257.1"/><path class="cls-7" d="M307.4,344.58l-4.73,11.92L200,342.59,97.33,356.5,92.6,344.58l106.57-14.45a7.54,7.54,0,0,1,.83-.06,7.72,7.72,0,0,1,.83.06Z"/><ellipse class="cls-15" cx="233.38" cy="275.11" rx="9.23" ry="16.29"/><ellipse class="cls-15" cx="166.62" cy="275.11" rx="9.23" ry="16.29"/><path class="cls-7" d="M307.4,344.58l-4.73,11.92L200,342.59V330.07a7.72,7.72,0,0,1,.83.06Z"/><g class="cls-16"><path class="cls-7" d="M307.4,344.58l-4.73,11.92L200,342.59V330.07a7.72,7.72,0,0,1,.83.06Z"/></g></g></g></g></svg>