<?xml version="1.0" encoding="utf-8"?><svg id="Layer_1" data-name="Layer 1" xmlns="http://www.w3.org/2000/svg" xmlns:xlink="http://www.w3.org/1999/xlink" viewBox="0 0 400 400"><defs><style>.cls-1{fill:none;}.cls-2{fill:#0093d2;}.cls-3{clip-path:url(#clip-path);}.cls-4{fill:#d50057;}.cls-5{clip-path:url(#clip-path-2);}.cls-6{opacity:0.1;}.cls-7{fill:#c2d500;}.cls-8{fill:#ffc629;}.cls-9{fill:#fff;}.cls-10{fill:#d6d6d6;}</style><clipPath id="clip-path"><circle class="cls-1" cx="200" cy="200" r="200"/></clipPath><clipPath id="clip-path-2"><circle class="cls-2" cx="200" cy="622.11" r="200"/></clipPath></defs><title>4Artboard 1 copy 19</title><g class="cls-3"><circle class="cls-4" cx="234.97" cy="188.23" r="276.69"/></g><circle class="cls-2" cx="200" cy="622.11" r="200"/><g class="cls-5"><g class="cls-6"><circle class="cls-2" cx="234.97" cy="610.33" r="276.69"/></g></g><path class="cls-2" d="M200,99.72a177,177,0,0,1,177,177,181.63,181.63,0,0,1-.92,18.17,200.06,200.06,0,0,1-352.17,0A179,179,0,0,1,23,276.73,177,177,0,0,1,200,99.72Z"/><path class="cls-7" d="M310.59,138.53a176.84,176.84,0,0,1,63.77,107.55,15.38,15.38,0,0,1-1.63-3.49,35.36,35.36,0,0,1-7.65,1.9l-.18.25c-1.62,2.31.08,1.34-2.77,3.75-3.4,2.85-5.61,6.76-9.4,9.07-.46,4,.33,4.95-.69,9.76-.39,1.77-2.38,6.53-4.7,6.17-.74-.14-3.86-7.85-4.59-10-1.25-3.63-2.66-6.31-3.57-10.49-.51-2.22-.85-6.49-1.36-8-2.44.36-2.33,1.91-4.65.28-1.64-1.19-.9-1.91-1.82-3.68-1.92-1.81-3.9-3.63-5.89-5.44-1.53-.5-7.42.36-9.92.09-4.47-.42-4.87-.14-7.53-3.73-4.71.24-4.31,2-8.9-2-3-2.54-2.44-6.62-6.8-4.31-.17,3.72,1.64,4.54,3.29,6.26,1.18,1.32,2.66,2.23,3.28,4,.06,0,.34,1.72.4,1.95,4.25.27,5.27-1.77,7.59-3.49,2.27,2.13.06,2.5,3.35,4.17,2.6,1.32,2.1.55,3.79,2.68.85,2.85-5.83,10.62-8.05,12-1.7,1.09-2.6.46-4.13,1.72-2.27,1.91.28,1.64-3.68,3.09-4.25,1.55-8.45,4.81-12.92,5.09-1-2.64-1.93-5.31-2.89-8-2.84-9.12-2.73-5.58-5.62-10.3-1.36-2.05-.79-3.36-1.7-5.18-.63-1.36-1.58-1.95-2.44-3.62-1.3-2.59-2.83-6.63-5.83-6.22-.63,2,2.77,8.94,3.62,10.62s2.21,2.4,2.61,4.81c.57,3.31-.11,2.9,1.7,5.12,3.8,4.58-.17,3.77,5.72,8.26,4.42,3.36,3.29,4.35,5.16,8.85,2.89.81,11.5-3,13-1.91,1.76,3.13-2,8.12-3,10.85-3.17,9.12-8.72,9-13,16-2.32,3.77-3.39,4.27-5.55,8.81-2.44,5.13,4.93,19.33.51,25.28-1,1.36-4.08,2.18-8,6.31-4.14,4.49.11,3.72-1.48,11.2-1.25,1.73-2.78,1.82-4.31,3.05-.56,1.76-.11,3.16-1.07,5.35-1,2.63-1.19,1.22-2.67,3.36-1.08,1.67-1,2.35-2.21,3.9a15.34,15.34,0,0,1-2.66,2.72c-4.93,4.54-15.53,4.68-16.43,4-2.5-2.13-.8-2.67-1.42-5.67a25.23,25.23,0,0,0-3.17-6.87l-.12-.21a16,16,0,0,1-1.36-2.86c-2-6.44-1.3-11.34-4.87-17.88-4.48-8.44,2.49-12.84,2.21-17.61-.11-1.27-.57-2-.68-3-.85-5.26-1.36-10-4.87-14.11-3.86-4.49-3.35-2.9-2.1-10.3,1.58-8.49-2-6.31-7.14-6.53-2.5-7.71-7.38-4-12.25-1.68-3.06,1.4-4.19-.41-7.65.09-7.71,1-1.64,4.36-12-3.81-4.31-3.41-1.42-1.68-4-5.95-.85-1.54-3.46-3.58-4.66-5.13-3.9-4.9.74-9.85.06-15.47-1.19-10.44-2.89-1.37,3-14,3.06-6.72,7.71-6.76,8.9-9.76,1-2.67.34-4.58,2.27-7,1.7-2,4.14-1.59,5.1-4.72,1.36-3.86-1.25-4.35-4.08-4.45-1.19-4-1.19-3-.29-6.76.52-2.09.06-3.09.52-5.18,1.13-5.21,10,0,12.58-2.18a6.05,6.05,0,0,0,0-6.53c-1.42-2.13-3.29-1.86-4.25-3.9,2.15-1.45.57-.18,2.44-.59,2.2-.5,1.92-1.14,4.53-1.64,2.32-.45,3.8-2.58,6.06-4,3.23-2.09,1.7-4,5.61-4.59,6.29-1.09,2.21-.9,2.9-6.76,1-.36,1.86-.78,2.77-1.18,2,2.59-.51,1.54,1.87,3.26.62-.36,1.36-.72,2-1.08-.34-2.82-1.64-2.27-2.49-5.76-3.12.5-4.25,3.13-6.75,2.18s-2.55-4.41-2.43-7.31c.9-2.18,5.43-3.36,7.19-3.91,2.84-.95,2.44-2.85,5-5.44,3.41-3.41.91,0,2.55-4.36,3.75-.14,2-.27,4.2-1.4l.11-.05.23-.09c1.3-.59,3-.72,4.7-1.31,6.23-2.09,8.78-1,13.32.81,3.51,1.45,14.11,1.5,14.9,6-2.55,2.67-5,.72-8.67.95.68,3.45,1,3.45,4.08,4.4.52-1.63-.22-1,.63-2,1,.22,2,.41,3.06.59,1-3.49,2.21-3,5.67-3.4-.57-2.41-1.19-1.73.11-3.63,3.57.36.68,0,2.44,2.91,2.49-.33,4.93-3.09,8.38-3.45,2.16-.23,2.05.59,5.1.27,2.5-.27,2.38-1.18,4.88-.14.9-1.68,0-1.64,2.21-2,3.39-.59,6.35,1.49,9.63,2-2.43-3-4.76-2.4-1.75-7.39,3.79-.78,4.13-.23,5.78,2.63a20.56,20.56,0,0,0,1.79-1.32ZM120,383.33h0q-8.85-3.87-17.22-8.54c-.07-.23-.13-.49-.19-.78-.85-5,1.31-5.58-1.08-14-1.56-5.55-.93-18.71-2.58-25.46a10.86,10.86,0,0,0-1-2.68c-1.53-2.54-5.27-3.72-8.27-5.76a.52.52,0,0,1-.34-.18c-4.13-2.91-8-14.3-11.33-18.56-1.53-2.05-2.49-1.14-3.17-4.36-.74-2.95.39-2.45,1.36-4.9-5-9.26,6.52-9.12,4.14-20.24-.51-2-2-4.9-3.23-5.8-2.38,1-1.25,1.62-2.5,3.62-1.92-1.09-3.85-2.18-5.72-3.26-5.84-5.63-2.72-1.55-4.36-5.23-3.51-7.71-6.86-3.39-11.06-7.21-1.87-1.59-2.21-4.09-5.32-3.63-4.71.64-2.1,1.36-7-.91-4.14-1.95-8.45-4.22-11.34-6.85-.11-4.09,1.36-4.27-1.19-8.08a21.32,21.32,0,0,0-1.47-2A176.83,176.83,0,0,1,80.68,146c2,.72,4.77.25,6.82.16.73-1.36,1.18-2.54,2.49-3a5.24,5.24,0,0,1,2-.18c.11.68.29,1.36.46,2,0,0,.11.5,0,.41s.12.27.17.41c3.58-2.09.57-2.14,2.49-5.9-3-.59-2.6-.23-4.47-2.14,1.81-2,5.32-2.68,7.93-2.49-.17,1.82-1,1.77-.34,3.31,2-1.27,3.46-4.67,6.75-4,.62.45,1.36.86,2,1.27-1.71,1.59-4.25,1.68-6.46,2.59-1,9.85,3.12,1.59,1.75,8.35a7.48,7.48,0,0,0,5.72-3.76c-.9-1.18-2.21-1.18-2.94-2.59a6.48,6.48,0,0,1,3.52-4,9.6,9.6,0,0,1,4.13-.85c18,.14,9.47.95,15,3.5,1.25.54,3.46.82,4.2,1.9,1.13,1.73,0,3.36,1.86,4.72,1.59,1.18,1.82,0,3.92,2.59a3.91,3.91,0,0,1-3.74,3.09c-3.06,0-1.25-2-4.54-1.73.06,3.09,3.12,4.27.28,5.95-2.49,1.5-.91-.54-2.77.5-.06.05-.23.14-.28.18a1.68,1.68,0,0,0-.29.32l-.9,1c-4.53-1.23-3.68-.68-6.4-3.67-1-1.14-1.19-1.41-3-1.27-1.13,0-2.6.54-3.68-.46,2.21-2.77,3.29-.09,6.52-1.73a41.79,41.79,0,0,0,4.7-3.67c-1-2.18-.11-.37-1.52-1.78-3.18-3.21-4.09-2.4-8.39-2.4-2,2.32-3.52,5.19-5.72,6.45a5.27,5.27,0,0,1-5,0c1,3.9,3.46.91,3.68,5.62-1.64-.31-2.49-1.13-4.19-.54-3.63,1.36-.4,1.22-.12,2,0,0,1.7.23,0,.86-1.87.68-.28-.36-3.91-2.49.51-.91,1-1.86,1.53-2.81a76,76,0,0,0-10.08,4,45.55,45.55,0,0,0-9.81,6.22c-.06,3.41.57,1.13.91,5.18,5.27.31,3.57,1.9,8.84,3.4,1,.28,2.32.55,3.91.82,0,2.54-2.27,4.45-.69,7.08,3.69,2.58,3.8-2.45,4.71-5.67,12.47-2.61,6.46-6.27,9.69-13.14a15.14,15.14,0,0,1,2.15-3.29c1,0,4.87.45,5.73.63,2.83.5,1.3,1.18,4.36,2.54-.06,2.46-1.3,5.63,2.33,5,2.77-.49,2.15-2.68,5.55-3.22,1.53,3.59,1.13,5.13,1.81,9.44,8.16,3.18,4.53,5.76,2.95,11.71,1,.5,2.09,1,3.17,1.41-.05,1.72-.11,3.4-.17,5.08-.17,0-8.73-1.86-9.29-2,1.3-3.72,3.68-3.77,5.21-7.58-3.06.55-2.84,1.5-5,2.18-2,.59-3.52.18-5.61.45-.74,2.45-.06-2.13.17,1,.11,1.18.68.05-.11,1.31-2.84-1.31-1.87-4.4-7.15-1.54,1.19.54,2.38,1,3.63,1.54-.16,3.49-.45.86-1.19,3.18-1.81,5.94,4.93,2.27,6.69,1.95-.45,3.13-2.38,3.13-5.1,4-3,.91-3.91,2.14-6.29,2.68,0-3.72-.57-.59,1.07-3.17-2.38.22-4.14,1.31-6.4,2.27l-.23.08c-2.91,1.19-3.35,1.37-3.68,5.09-2.5.77-5.39,1.64-7.14,3.45s-3.52,3.35-5.22,5c-.17.14-.29.27-.39.36.62,4.68,0,4.77-2.84,6.59-2.38,1.54-3.17,1.49-5.38,3.44-7.09,6.36-3.68,3.4-3.29,14.34-1.47-.45-2.89-1-4.25-1.45-1.08-7.26.39-4.85-5.44-6.53-6.29-1.82-5.45,1.27-8.05,1.81-2.89.63-4.31-2.63-8.5.09C49.25,229,47,230,46.47,232.82c-.68,3.41-2.21,5.9-2,9.67.41,10.22,9.7,10.8,12.08,6,1.58-3.18,1.19-4.9,6.34-4.09.51,2.73-.28,4.72-1,6.81-.45,1.23-1.7,3.45-1.08,5.14,3.69,1.49,3.8-1.33,8.67,1.58.35,4.85-2.2,10.3,1.53,13.11,2.89,2.14,3.06.23,5.61-.22,2.84-.5,2.33,1.27,4.94,1.68,1.47-1.82.84-.68,1.81-2.91,1.7-3.85,2.15-2,6.18-4.39.39-.23.73-.46,1.13-.73.45.95,1,1.86,1.41,2.77,3-3.5,3.29-.09,6.69.86a13.35,13.35,0,0,0,3.31.55c2.47,0,2.73-1.16,6.1,0a10.85,10.85,0,0,0,1.36.46c.06,0,.23.09.23.19l.28.23a12.84,12.84,0,0,1,1.08,1.95l6.92,6.62c4.47,1.77,4.47-1.54,9.57,3.4,2.16,2,1.19,2,2.38,4.63.17.41.51.81.74,1.32.45,1.22,1,2.4,1.47,3.58,2.32,3,5.5,1.14,8.73,4.27,1.87,1.81.45,1.27,4.59,2,6.4,1.05,3.91.46,8.78,4.13,1.87,1.36,2.32.59,4.08,1.77,2.44,3.4,1.82,7.08-.22,10.08-6.3,9.16-4.14,7.67-4.43,14.93-.22,4.17-1.41,12.79-5.33,13.84-14.22,4-5.95,6.76-9.68,13.8-1.08,2-1.88,2.49-2.56,4.08-2.82,6.62-.84,8.85-9.23,7.35a16.57,16.57,0,0,0,1.08,1.72c2.49,3.86,2.89,6.77-2.22,7.72-4.25.81-2.43,0-2.83,4.72-1.64.68-2.38,0-3.46,1.09l.41.74ZM82.62,144.25h0c1.09-.15,1.09-.62,4-1.32a2.62,2.62,0,0,0-.62-1.31l-.09-.18c-1.09.92-2.18,1.86-3.25,2.81ZM234.1,196.87h0l-.11-.08a8.84,8.84,0,0,1-1.13-.86c-2.49-2.22-3-4.21-5.78-3.72-.06,2.09.23,2.18,1.25,3.54,3.85,4.81,2.66,3.18,5.66,4.95l.11.06c.71.41,1.54,1,2.67,1.8-3.86,3.4-.29,3.76-2.67,4.9l-.11,0a6.34,6.34,0,0,0-.62.27c-.8-2,1-1-1.08-3.94-1.13-1.5-2.21-2-4-2.78-4.43-2.09-3.86-3.72-6.58-6.44-3.06.09-2.38,1-4.53,2.13-2.61,1.27-2.21-.22-5.27.05-2.5,4.4,1.07.73-3.46,4.36-5.44,4.21-1,8.62-9.69,9.94a5.75,5.75,0,0,0-1.47.22c-1.65.59-.69.09-1.65,1,.74,1.73-.28,1.45,2.67,1.87,5.38.72,6.06-2.59,10-3.41a124.34,124.34,0,0,1,14.84-.68c2.61,2.91.46,5,.46,7.4,2.83,1.49,6.85,1.86,8.5,3.4,1.87,1.77,1,1.5,1.87,1.81l.11,0c.34.1.84.27,1.7.6,2.27.77,2.15,1.22,4.59,1.41,2.21-7.4-.06-6.63,10.6-3.23,11.1,3.64,6.12.32,10.82.82,2.33.23,1.71,1,4.94.54.62-1.27,5.21-12.8-.74-11.34-1.76.45-.57,1.08-3.06.45s-.12-1.18-3-.77-6.24,2.91-8.45-5.67c-.85-3.09-2.38-5.76-5.89-1.1.9,1.59,1.53,1.73,2.54,3.27a21.82,21.82,0,0,1-1.58,2c-1.92,1.9.8,1-2.32,1.4-1.7-1.27-1.36-2.9-3-5.17-2.89-4.23-1-2.27-2.49-6.31-1.16-1-3.08-1.78-4.65-2.78Zm60.53,122.18h0c-2.49,1.27-2.83,4.18-4.7,5.81-2,1.86-4.76,1-5.55,4.45-1,4.31,1.69,3-1.31,8.62-1.07,2.08-1.13,7.3.52,8.85,4.92,4.76,7.59-7.26,8.72-11,.85-2.68,1.65-5.71,2.55-8.21C295.77,324.86,297.07,322.5,294.63,319.05Zm-8.16-126.62h0c.4,5.54,3.68,7.67,6,10.21-.28,2.64-.91,2-.85,5.63,2.78,2,4.81,3.22,8.45,2.23.5-4.45-.91-4.23-2.27-7.26a4.74,4.74,0,0,1,1-.91c1-1.36.51.54,1-1.77-2.66-.86-7-3.59-7.3-7.17,1.3-1,.9-.41,1.86-1,2.1-1.36.52.72,1.76-1.59-1.07-2.09-2.27-2.45-4.87-1.41a34.45,34.45,0,0,0-4.76,3.09Zm-23.18,1.46h0c-1.75-2.45-1.64-3.68-5-3.77a17,17,0,0,0-3.68,5.85c-1.14,3.36-.34,1.05-.23,4.68-.06.13,0,.32,0,.45-.06,2.18-.57-.41-.23,1.59,2.67-.55.63-.5,2.61-1.13s7.6-2.36,9.24-1.95c3.91.9,7.2,4,11.62.9-.23-3.95-5-5.44-8.28-7.17.18-3.63,1.14-.77.91-4.27a5.77,5.77,0,0,0-2.89.23c-2.55,1.13-1.13,1.46-1.13,1.86.11,2,2.55-.4-.06,2a5.23,5.23,0,0,1-2.83.73Zm-66.19-27.5h0c-.11,6.35,2.1,4.22,4.19,7.35-1,2.68-1.13.59-2.21,3.36-1,2.31.23.23-.4,4.26,1.65.1,4.08-.49,6.24-.68,3.06-.27,3-.54,4.08-3.67-1.7-2.09-3.4-4.18-5.16-6.26-2.21-3.37,0-1.05-.68-3.87-.5-1-1-2-1.41-3C198.8,164.89,199.08,164.62,197.1,166.39Z"/><path class="cls-8" d="M309.11,155.14l-1.72-1.71-7.06-7.07-1.72-1.71c-5.57,2.11-12.55,11.25-15.3,17l.85.86,7.07,7.07.86.85c5.76-2.75,14.9-9.73,17-15.3Z"/><path class="cls-9" d="M309.11,155.14l-1.72-1.71-7.06-7.07-1.72-1.71a15.35,15.35,0,0,0-4,2.46l12,12a15.63,15.63,0,0,0,2.46-4Z"/><path class="cls-8" d="M320.94,188.74,319.23,187,312.16,180l-1.71-1.71c-5.58,2.11-12.56,11.25-15.31,17l.86.86,7.06,7.06.86.86c5.77-2.76,14.91-9.73,17-15.31Z"/><path class="cls-9" d="M320.94,188.74,319.23,187,312.16,180l-1.71-1.71a15.23,15.23,0,0,0-4,2.46l12.05,12a15.35,15.35,0,0,0,2.46-4Z"/><path class="cls-8" d="M224.48,70.52l1.71,1.71,7.07,7.07L235,81c-2.11,5.57-11.25,12.55-17,15.31l-.86-.86L210,88.4l-.86-.86c2.76-5.77,9.73-14.91,15.31-17Z"/><path class="cls-9" d="M224.48,70.52l1.71,1.71,7.07,7.07L235,81a15,15,0,0,1-2.46,4l-12-12A14.72,14.72,0,0,1,224.48,70.52Z"/><path class="cls-8" d="M190.88,58.69l1.72,1.71,7.06,7.07,1.72,1.71c-2.12,5.58-11.26,12.56-17,15.31l-.85-.86-7.07-7.07-.86-.85c2.76-5.77,9.73-14.91,15.31-17Z"/><path class="cls-9" d="M190.88,58.69l1.72,1.71,7.06,7.07,1.71,1.71a14.92,14.92,0,0,1-2.45,4l-12-12.05A14.78,14.78,0,0,1,190.88,58.69Z"/><path class="cls-9" d="M165.79,218l20.73,29.47,6.61-8-11.73-31c1.47-1.27-1.3,1.25,4.75-4.2s32.66-29.91,56.76-49.5l69.4,98.11,6.33-6.33L280.28,124.26c15.68-12.93,27.81-23.24,31.08-27,10-11.42,19-26.65,11.9-40.92-14.28-7.13-29.5,1.91-40.92,11.9-3.74,3.27-14,15.4-27,31.08L133.09,61l-6.33,6.32,98.11,69.41c-19.59,24.1-44.05,50.7-49.5,56.75s-2.93,3.29-4.2,4.76l-31-11.73-8,6.61,29.47,20.73c-3.2,5.51-1.38,7.33,4.13,4.13Z"/><path class="cls-10" d="M165.79,218l20.73,29.47,1.59-1.92L168,216.43,165.79,218Z"/><path class="cls-10" d="M134.11,191.52l-1.93,1.59,29.48,20.73,1.53-2.22-29.08-20.1Z"/><path class="cls-10" d="M242.91,154.76l69.41,98.1,2.43-2.44-67.74-99Z"/><path class="cls-10" d="M129.2,64.87l-2.44,2.44,98.1,69.41,3.35-4.1-99-67.74Z"/><path class="cls-2" d="M317.29,62.33a12.07,12.07,0,0,0-5-3l-1.14,3.2a17.06,17.06,0,0,1,3.33,2.59,17.45,17.45,0,0,1,2.59,3.33l3.2-1.15a12.2,12.2,0,0,0-3-5Zm-7.54-3.52h0a19.62,19.62,0,0,0-9.27,1.32,18.27,18.27,0,0,1,8.35,1.25Zm8.49,12h0a18,18,0,0,1,1.25,8.35,19.53,19.53,0,0,0,1.33-9.27Z"/><path class="cls-9" d="M144.41,237.18l0,0,.42-.41.41-.4.42-.41.42-.4.43-.41.42-.41.43-.42.43-.41.43-.41.43-.42.43-.42.44-.42.43-.42.44-.43.44-.42.44-.43.45-.43.44-.43.45-.43.45-.44.45-.43.45-.44.45-.44.45-.44.46-.45.46-.44.45-.45.47-.45.46-.46.46-.45-2.58-2.63-.46.45-.46.45-.46.45-.46.45-.45.44-.45.45-.45.44-.45.44-.45.44-.45.43-.45.43-.44.43-.44.43-.45.43-.44.43-.44.42-.43.43-.44.42-.43.42-.44.42-.43.41-.43.42-.43.41-.43.41-.42.41-.43.4-.42.41-.42.41-.42.4-.41.41,0,0,2.55,2.65Zm206.31-1.52h0l-.44,1.14-.43,1.13-.44,1.11-.44,1.09-.44,1.07-.44,1.06-.44,1-.44,1-.44,1-.44,1-.44,1-.45,1-.44.95-.44.93,0,0,3.3,1.62,0-.06.45-1,.46-1,.45-1,.45-1,.45-1,.45-1,.45-1,.45-1.06.45-1.08.45-1.09.44-1.11.45-1.13.45-1.14.44-1.17-3.44-1.3Zm7.53-23.4h0l-.28,1.19-.28,1.18-.28,1.15-.29,1.14-.29,1.13-.29,1.1-.3,1.1-.29,1.07-.31,1.06-.3,1-.31,1-.31,1-.31,1-.31,1,0,0,3.5,1.16,0-.06.32-1,.32-1,.32-1,.31-1.05.31-1.07.31-1.08.31-1.1.3-1.12.3-1.12.3-1.15.29-1.16.29-1.18.28-1.19.29-1.21-3.59-.83ZM339.4,259.8h0l-.23.38-.45.74-.45.73-.45.72-.45.7-.46.68-.45.68-.46.66-.45.65-.46.63-.45.63-.46.61-.46.6-.45.58-.46.57-.46.57-.46.55-.46.53-.46.53-.46.51-.46.5-.46.49-.46.48-.47.47-.08.08,2.58,2.63.12-.11.49-.5.49-.51.49-.53.49-.53.49-.54.49-.56.48-.57.48-.58.49-.6.48-.6.48-.62.48-.62.48-.64.48-.66.47-.66.48-.68.47-.7.48-.7.47-.72.47-.73.47-.74.47-.76.47-.77.22-.38-3.15-1.9Zm-19.1,20.9h0l-.48.29-.47.28-.47.26-.47.26-.48.26-.47.24-.48.23-.48.23L316,283l-.48.22-.48.2-.48.2-.48.19-.48.19-.48.18-.49.17-.48.16-.48.16-.49.16-.49.14-.49.14-.49.14-.49.13-.49.12-.49.12-.5.11-.49.1-.5.1-.5.1-.49.09-.5.08-.51.08-.5.08-.5.07h0l.47,3.66h.06l.54-.08.54-.08.53-.08.54-.09.54-.1.53-.1.54-.11.53-.12.53-.11.54-.13.53-.13.54-.15.53-.14.53-.15.53-.16.52-.17.53-.17.53-.18.53-.19.52-.19.53-.2L316,287l.52-.22.53-.23.52-.23.52-.24.52-.25.52-.26.52-.27.52-.27.51-.28.52-.3.52-.3.51-.31h0l-1.92-3.14ZM293,287h-3.27l-.54,0-.55,0h-.54l-.55,0-.54,0-.54,0-.55,0-.55,0-.56,0-.55,0-.55,0-.55,0-.56,0-.56,0-.55,0-.56,0-.56,0-.57,0-.56,0-.57,0-.56,0h-.57l-.57,0-.57,0h-.57l-.57,0h-.63l-.07,3.68h.61l.57,0h.56l.56,0,.56,0,.57,0h.56l.56,0,.56,0,.55,0,.56,0,.56,0,.55,0,.56,0,.55,0,.56,0,.55,0,.56,0,.55,0,.56,0,.55,0,.55,0,.55,0,.55,0,.56,0h1.1l.55,0H293V287Zm-29.6-.33h0l-.48,0-.6,0-.61.05-.59.06-.61.06-.61.07-.6.07-.61.08-.61.08-.61.09-.61.09-.62.1-.61.1-.61.12-.62.11-.62.12-.62.13-.62.13-.62.14-.62.15-.63.15-.63.16-.62.16-.63.18-.63.18-.62.19-.64.19-.63.2-.63.21-.64.22-.08,0,1.25,3.47.05,0,.6-.2.59-.2.6-.19.59-.18.6-.18.6-.17.59-.16.59-.16.59-.15.59-.15.59-.14.59-.13.59-.13.58-.11.58-.12.59-.11.59-.1.58-.1.59-.09L258,291l.58-.08.58-.08.58-.07.59-.07.57-.07.58-.06.58-.06.57-.05.58-.05.48,0-.29-3.67Zm-28.84,8.38h0l-.49.28-.65.37-.65.39-.66.39-.65.41-.66.42-.65.42-.66.43-.65.45-.66.46-.66.46-.66.48-.66.5-.66.49-.66.52-.66.52-.66.53-.67.55-.66.55-.67.57-.66.58-.67.6-.67.6-.16.15,2.51,2.7.14-.13.64-.58.65-.57.64-.56.63-.54.64-.54.64-.52.63-.51.63-.5.64-.49.63-.48L229,303l.63-.45.62-.45.63-.43.63-.42.62-.42.63-.4.62-.4.62-.38.62-.37.62-.37.61-.35.5-.28-1.83-3.2Zm-23,19.14h0l-.06.07-.68.77-.66.76-.66.75-.66.74-.66.73-.66.72-.65.71-.66.7-.65.69-.65.69-.65.67-.65.67-.64.66-.65.65-.65.64-.64.63-.64.62-.64.62-.64.6-.12.11,2.51,2.7.13-.13.66-.62.66-.63.66-.63.65-.65.66-.65.66-.67.66-.67.67-.68.66-.69.67-.7.66-.7.67-.72.67-.73.67-.73.67-.74.67-.76.68-.76.67-.77.66-.75.06-.07-2.76-2.44Zm-20.82,20.33h0l-.44.35-.61.48-.62.47-.61.47-.62.46-.61.45-.6.44-.61.43-.61.43-.6.41-.6.42-.6.4-.6.4-.6.39-.59.38-.6.37-.59.37L180,342l-.59.35-.59.35-.58.33-.59.33-.58.32-.58.32-.58.31-.27.14,1.69,3.28.3-.16.61-.33.61-.32.6-.34.61-.35.61-.35.61-.35.62-.37.61-.37.62-.38.61-.39.62-.4.62-.4.62-.41.63-.42.62-.43.63-.43.63-.44.63-.45.63-.46.63-.46.63-.48.64-.48.63-.49.64-.49.44-.35-2.28-2.9Zm-24.94,14.15h0l-.48.16-.54.17-.54.17-.54.16-.54.15-.53.15-.53.14-.53.14-.53.13-.52.12-.52.12-.53.11-.52.1-.51.1-.52.1-.51.09-.51.08-.51.08-.51.07-.51.06-.5.07-.5,0-.5.05-.49,0-.5,0-.49,0-.49,0-.49,0-.49,0h-2.58l-.13,3.68h.22l.52,0H151l.52,0,.53,0,.53,0,.54,0,.53,0,.53-.05.54-.05.54-.06.54-.06.55-.08.54-.07.55-.08.55-.09.55-.1.55-.1.56-.11.55-.11.56-.12.56-.12.56-.14.56-.13.57-.15.56-.15.57-.16.57-.16.57-.17.58-.18.57-.18.49-.16-1.14-3.51Zm-27.91,1.14h0l-.18-.05-.42-.12-.42-.13-.43-.13-.41-.14-.42-.15-.42-.14-.41-.15-.41-.15-.41-.16-.4-.17-.4-.16-.4-.17-.4-.17-.4-.18-.39-.18-.39-.19-.39-.19-.39-.19-.38-.19-.38-.2-.38-.21-.38-.2-.38-.21-.37-.22-.37-.21-.37-.23L127,345l-.36-.23-.36-.23-.36-.23-.36-.24-.36-.24-.35-.25-.35-.24-.35-.25-.34-.26-.35-.25-.34-.26-.34-.26-.33-.27-.15-.12L120,344.55l.17.14.36.29.36.28.37.28.37.28.37.27.38.27.38.26.38.27.38.25.39.26.39.25.39.25.39.25.4.24.4.24.4.24.4.23.41.22.41.23.41.22.42.21.42.22.42.2.42.21.42.2.43.19.43.2.43.18.44.19.43.18.44.17.45.18.44.16.45.17.45.16.45.15.45.15.46.15.46.14.46.13.18.05,1-3.54Zm-23.13-15.64h0l-.15-.19-.26-.33-.27-.34-.26-.33-.26-.34-.26-.34L113,332l-.25-.34-.25-.35-.25-.34-.24-.35-.24-.35-.24-.35-.23-.35-.23-.36-.24-.35-.22-.36-.22-.36-.22-.36-.22-.36-.22-.37-.21-.36-.21-.37-.2-.36-.21-.37-.2-.37-.2-.37-.19-.37-.2-.38-.18-.37-.19-.37-.19-.38-.18-.38-.17-.38-.18-.37-.17-.38-.16-.38-.17-.38-.16-.38-.16-.38-.16-.39-.15-.38-.13-.32-3.43,1.33.14.35.16.41.17.41.16.4.18.41.17.4.18.41.19.4.18.41.19.4.19.4.2.4.2.4.2.4.2.39.21.4.21.39.21.39.22.39.22.39.22.39.23.39.23.39.23.38.24.38.23.38.24.39.24.37.25.38.25.38.25.37.26.37.26.37.26.37.26.37.27.36.27.37.28.36.27.36.28.36.28.35.28.36.16.19,2.86-2.32Zm-11.87-25.63h0a44.41,44.41,0,0,1,0-17.57l-3.6-.79a48,48,0,0,0-.07,19l3.62-.66ZM106.38,281h0a75.08,75.08,0,0,1,9.93-14.94l-2.84-2.34a77.64,77.64,0,0,0-10.4,15.68Zm17.17-23.12h0l0,0,.31-.33.32-.33.31-.33.32-.34.32-.33.33-.34.32-.34.33-.34.33-.33.33-.34.33-.34.33-.35.34-.34.34-.34.34-.34.34-.35.35-.35.34-.35.35-.35.35-.35.35-.35.36-.35.35-.35.36-.36.36-.36.36-.35.37-.36.36-.36.37-.36.37-.36.37-.37.37-.36.38-.36.37-.37.38-.37.38-.37.38-.37,0,0-2.57-2.64,0,0-.38.37-.38.37-.38.37-.38.37-.38.37-.37.37-.37.36-.38.36-.36.37-.37.36-.37.36-.36.36L129,247l-.36.36-.35.36-.36.35-.36.36-.35.35-.35.35-.35.36-.34.35-.35.35-.34.35-.35.34-.33.35-.34.34-.34.35-.34.34-.33.35-.33.34-.33.34-.33.34-.32.34-.33.34-.32.34-.32.34-.32.33,0,0,2.68,2.53v0Z"/></svg>