<?xml version="1.0" encoding="utf-8"?><svg id="Layer_1" data-name="Layer 1" xmlns="http://www.w3.org/2000/svg" xmlns:xlink="http://www.w3.org/1999/xlink" viewBox="0 0 100 100"><defs><style>.cls-1{clip-path:url(#clip-path);}.cls-2{clip-path:url(#clip-path-2);}.cls-3{clip-path:url(#clip-path-3);}.cls-4{clip-path:url(#clip-path-4);}.cls-5{clip-path:url(#clip-path-5);}.cls-6{clip-path:url(#clip-path-6);}</style><clipPath id="clip-path"><path d="M21.5,71.76a6.79,6.79,0,1,1,6.79,6.79,6.79,6.79,0,0,1-6.79-6.79m55.12,0a6.79,6.79,0,1,1,6.78,6.79,6.79,6.79,0,0,1-6.78-6.79m16.7-15V55h3.55v3.55H95.09a1.78,1.78,0,0,1-1.77-1.78m-20-21.81H87.19l2.56,10.23H73.28Zm0-6.68H85.07a3.45,3.45,0,0,1,3.45,3.44v.11H73.28ZM9.81,18.43a3.24,3.24,0,0,0-3.13,3.23V50.05a1.57,1.57,0,1,0,3.13,0V21.66a.1.1,0,0,1,.11-.1H70a.1.1,0,0,1,.11.1V50.05a1.57,1.57,0,1,0,3.13,0V48.28H91.75a5.11,5.11,0,0,1,4.87,3.55H91.75a1.56,1.56,0,0,0-1.56,1.56v3.34a4.91,4.91,0,0,0,4.9,4.91h1.78v6.89h-4.1a9.91,9.91,0,0,0-18.74,0h-.75V56.73a1.57,1.57,0,0,0-3.13,0v11.8H37.66a9.91,9.91,0,0,0-18.74,0h-9a.11.11,0,0,1-.11-.1V65H16.6a1.57,1.57,0,0,0,0-3.13h-15a1.57,1.57,0,1,0,0,3.13H6.68v3.45a3.24,3.24,0,0,0,3.24,3.23h8.45v.1a9.93,9.93,0,0,0,8.47,9.81h2.89a9.92,9.92,0,0,0,8.47-9.81v-.1H73.49v.1A9.92,9.92,0,0,0,82,81.57h2.89a9.93,9.93,0,0,0,8.47-9.81s0-.06,0-.1h5.12A1.56,1.56,0,0,0,100,70.1V53.39a8.26,8.26,0,0,0-7-8.15L90.41,34.88a1.57,1.57,0,0,0,1.24-1.53V31.68a6.58,6.58,0,0,0-6.58-6.57H73.28V21.66a3.24,3.24,0,0,0-3.14-3.23Z"/></clipPath><clipPath id="clip-path-2"><path d="M25.05,71.76a3.24,3.24,0,1,0,3.24-3.23,3.24,3.24,0,0,0-3.24,3.23"/></clipPath><clipPath id="clip-path-3"><path d="M80.17,71.76a3.24,3.24,0,1,0,3.23-3.23,3.24,3.24,0,0,0-3.23,3.23"/></clipPath><clipPath id="clip-path-4"><path d="M41.65,61.85a1.57,1.57,0,1,0,0,3.13H65a1.57,1.57,0,1,0,0-3.13Z"/></clipPath><clipPath id="clip-path-5"><path d="M4.91,55.17a1.57,1.57,0,1,0,0,3.13H25a1.57,1.57,0,1,0,0-3.13Z"/></clipPath><clipPath id="clip-path-6"><path d="M52.23,33.92,38.31,47.84,31.07,40.6a1.57,1.57,0,1,0-2.22,2.21l8.35,8.35a1.57,1.57,0,0,0,2.22,0l15-15a1.57,1.57,0,0,0-2.22-2.21"/></clipPath></defs><title>Freight Forwarding</title><path d="M21.5,71.76a6.79,6.79,0,1,1,6.79,6.79,6.79,6.79,0,0,1-6.79-6.79m55.12,0a6.79,6.79,0,1,1,6.78,6.79,6.79,6.79,0,0,1-6.78-6.79m16.7-15V55h3.55v3.55H95.09a1.78,1.78,0,0,1-1.77-1.78m-20-21.81H87.19l2.56,10.23H73.28Zm0-6.68H85.07a3.45,3.45,0,0,1,3.45,3.44v.11H73.28ZM9.81,18.43a3.24,3.24,0,0,0-3.13,3.23V50.05a1.57,1.57,0,1,0,3.13,0V21.66a.1.1,0,0,1,.11-.1H70a.1.1,0,0,1,.11.1V50.05a1.57,1.57,0,1,0,3.13,0V48.28H91.75a5.11,5.11,0,0,1,4.87,3.55H91.75a1.56,1.56,0,0,0-1.56,1.56v3.34a4.91,4.91,0,0,0,4.9,4.91h1.78v6.89h-4.1a9.91,9.91,0,0,0-18.74,0h-.75V56.73a1.57,1.57,0,0,0-3.13,0v11.8H37.66a9.91,9.91,0,0,0-18.74,0h-9a.11.11,0,0,1-.11-.1V65H16.6a1.57,1.57,0,0,0,0-3.13h-15a1.57,1.57,0,1,0,0,3.13H6.68v3.45a3.24,3.24,0,0,0,3.24,3.23h8.45v.1a9.93,9.93,0,0,0,8.47,9.81h2.89a9.92,9.92,0,0,0,8.47-9.81v-.1H73.49v.1A9.92,9.92,0,0,0,82,81.57h2.89a9.93,9.93,0,0,0,8.47-9.81s0-.06,0-.1h5.12A1.56,1.56,0,0,0,100,70.1V53.39a8.26,8.26,0,0,0-7-8.15L90.41,34.88a1.57,1.57,0,0,0,1.24-1.53V31.68a6.58,6.58,0,0,0-6.58-6.57H73.28V21.66a3.24,3.24,0,0,0-3.14-3.23Z"/><g class="cls-1"><polygon points="0 81.25 0.43 81.68 0 81.68 0 81.25"/><polygon points="0 80.65 1.03 81.68 0.43 81.68 0 81.25 0 80.65"/><polygon points="0 80.06 1.62 81.68 1.03 81.68 0 80.65 0 80.06"/><polygon points="0 79.47 2.21 81.68 1.62 81.68 0 80.06 0 79.47"/><polygon points="0 78.87 2.81 81.68 2.21 81.68 0 79.47 0 78.87"/><polygon points="0 78.28 3.4 81.68 2.81 81.68 0 78.87 0 78.28"/><polygon points="0 77.69 4 81.68 3.4 81.68 0 78.28 0 77.69"/><polygon points="0 77.09 4.59 81.68 4 81.68 0 77.68 0 77.09"/><polygon points="0 76.5 5.18 81.68 4.59 81.68 0 77.09 0 76.5"/><polygon points="0 75.9 5.78 81.68 5.18 81.68 0 76.5 0 75.9"/><polygon points="0 75.31 6.37 81.68 5.78 81.68 0 75.9 0 75.31"/><polygon points="0 74.72 6.97 81.68 6.37 81.68 0 75.31 0 74.72"/><polygon points="0 74.12 7.56 81.68 6.97 81.68 0 74.72 0 74.12"/><polygon points="0 73.53 8.15 81.68 7.56 81.68 0 74.12 0 73.53"/><polygon points="0 72.93 8.75 81.68 8.15 81.68 0 73.53 0 72.93"/><polygon points="0 72.34 9.34 81.68 8.75 81.68 0 72.93 0 72.34"/><polygon points="0 71.75 9.93 81.68 9.34 81.68 0 72.34 0 71.75"/><polygon points="0 71.15 10.53 81.68 9.93 81.68 0 71.75 0 71.15"/><polygon points="0 70.56 11.12 81.68 10.53 81.68 0 71.15 0 70.56"/><polygon points="0 69.97 11.71 81.68 11.12 81.68 0 70.56 0 69.97"/><polygon points="0 69.37 12.31 81.68 11.71 81.68 0 69.97 0 69.37"/><polygon points="0 68.78 12.9 81.68 12.31 81.68 0 69.37 0 68.78"/><polygon points="0 68.18 13.5 81.68 12.9 81.68 0 68.78 0 68.18"/><polygon points="0 67.59 14.09 81.68 13.5 81.68 0 68.18 0 67.59"/><polygon points="0 67 14.68 81.68 14.09 81.68 0 67.59 0 67"/><polygon points="0 66.4 15.28 81.68 14.68 81.68 0 67 0 66.4"/><polygon points="0 65.81 15.87 81.68 15.28 81.68 0 66.4 0 65.81"/><polygon points="0 65.22 16.46 81.68 15.87 81.68 0 65.81 0 65.22"/><polygon points="0 64.62 17.06 81.68 16.46 81.68 0 65.22 0 64.62"/><polygon points="0 64.03 17.65 81.68 17.06 81.68 0 64.62 0 64.03"/><polygon points="0 63.44 18.25 81.68 17.65 81.68 0 64.03 0 63.44"/><polygon points="0 62.84 18.84 81.68 18.25 81.68 0 63.43 0 62.84"/><polygon points="0 62.25 19.43 81.68 18.84 81.68 0 62.84 0 62.25"/><polygon points="0 61.65 20.03 81.68 19.43 81.68 0 62.25 0 61.65"/><polygon points="0 61.06 20.62 81.68 20.03 81.68 0 61.65 0 61.06"/><polygon points="0 60.47 21.21 81.68 20.62 81.68 0 61.06 0 60.47"/><polygon points="0 59.87 21.81 81.68 21.21 81.68 0 60.47 0 59.87"/><polygon points="0 59.28 22.4 81.68 21.81 81.68 0 59.87 0 59.28"/><polygon points="0 58.69 23 81.68 22.4 81.68 0 59.28 0 58.69"/><polygon points="0 58.09 23.59 81.68 23 81.68 0 58.68 0 58.09"/><polygon points="0 57.5 24.18 81.68 23.59 81.68 0 58.09 0 57.5"/><polygon points="0 56.9 24.78 81.68 24.18 81.68 0 57.49 0 56.9"/><polygon points="0 56.31 25.37 81.68 24.78 81.68 0 56.9 0 56.31"/><polygon points="0 55.72 25.97 81.68 25.37 81.68 0 56.31 0 55.72"/><polygon points="0 55.12 26.56 81.68 25.97 81.68 0 55.71 0 55.12"/><polygon points="0 54.53 27.15 81.68 26.56 81.68 0 55.12 0 54.53"/><polygon points="0 53.93 27.75 81.68 27.15 81.68 0 54.53 0 53.93"/><polygon points="0 53.34 28.34 81.68 27.75 81.68 0 53.93 0 53.34"/><polygon points="0 52.75 28.93 81.68 28.34 81.68 0 53.34 0 52.75"/><polygon points="0 52.15 29.53 81.68 28.93 81.68 0 52.75 0 52.15"/><polygon points="0 51.56 30.12 81.68 29.53 81.68 0 52.15 0 51.56"/><polygon points="0 50.97 30.72 81.68 30.12 81.68 0 51.56 0 50.97"/><polygon points="0 50.37 31.31 81.68 30.72 81.68 0 50.96 0 50.37"/><polygon points="0 49.78 31.9 81.68 31.31 81.68 0 50.37 0 49.78"/><polygon points="0 49.18 32.5 81.68 31.9 81.68 0 49.78 0 49.18"/><polygon points="0 48.59 33.09 81.68 32.5 81.68 0 49.18 0 48.59"/><polygon points="0 48 33.68 81.68 33.09 81.68 0 48.59 0 48"/><polygon points="0 47.4 34.28 81.68 33.68 81.68 0 48 0 47.4"/><polygon points="0 46.81 34.87 81.68 34.28 81.68 0 47.4 0 46.81"/><polygon points="0 46.22 35.47 81.68 34.87 81.68 0 46.81 0 46.22"/><polygon points="0 45.62 36.06 81.68 35.47 81.68 0 46.22 0 45.62"/><polygon points="0 45.03 36.65 81.68 36.06 81.68 0 45.62 0 45.03"/><polygon points="0 44.43 37.25 81.68 36.65 81.68 0 45.03 0 44.43"/><polygon points="0 43.84 37.84 81.68 37.25 81.68 0 44.43 0 43.84"/><polygon points="0 43.25 38.43 81.68 37.84 81.68 0 43.84 0 43.25"/><polygon points="0 42.65 39.03 81.68 38.43 81.68 0 43.25 0 42.65"/><polygon points="0 42.06 39.62 81.68 39.03 81.68 0 42.65 0 42.06"/><polygon points="0 41.47 40.22 81.68 39.62 81.68 0 42.06 0 41.47"/><polygon points="0 40.87 40.81 81.68 40.22 81.68 0 41.46 0 40.87"/><polygon points="0 40.28 41.4 81.68 40.81 81.68 0 40.87 0 40.28"/><polygon points="0 39.68 42 81.68 41.4 81.68 0 40.28 0 39.68"/><polygon points="0 39.09 42.59 81.68 42 81.68 0 39.68 0 39.09"/><polygon points="0 38.5 43.19 81.68 42.59 81.68 0 39.09 0 38.5"/><polygon points="0 37.9 43.78 81.68 43.19 81.68 0 38.5 0 37.9"/><polygon points="0 37.31 44.37 81.68 43.78 81.68 0 37.9 0 37.31"/><polygon points="0 36.72 44.97 81.68 44.37 81.68 0 37.31 0 36.72"/><polygon points="0 36.12 45.56 81.68 44.97 81.68 0 36.71 0 36.12"/><polygon points="0 35.53 46.15 81.68 45.56 81.68 0 36.12 0 35.53"/><polygon points="0 34.93 46.75 81.68 46.15 81.68 0 35.53 0 34.93"/><polygon points="0 34.34 47.34 81.68 46.75 81.68 0 34.93 0 34.34"/><polygon points="0 33.75 47.94 81.68 47.34 81.68 0 34.34 0 33.75"/><polygon points="0 33.15 48.53 81.68 47.94 81.68 0 33.75 0 33.15"/><polygon points="0 32.56 49.12 81.68 48.53 81.68 0 33.15 0 32.56"/><polygon points="0 31.97 49.72 81.68 49.12 81.68 0 32.56 0 31.97"/><polygon points="0 31.37 50.31 81.68 49.72 81.68 0 31.97 0 31.37"/><polygon points="0 30.78 50.9 81.68 50.31 81.68 0 31.37 0 30.78"/><polygon points="0 30.18 51.5 81.68 50.9 81.68 0 30.78 0 30.18"/><polygon points="0 29.59 52.09 81.68 51.5 81.68 0 30.18 0 29.59"/><polygon points="0 29 52.68 81.68 52.09 81.68 0 29.59 0 29"/><polygon points="0 28.4 53.28 81.68 52.68 81.68 0 29 0 28.4"/><polygon points="0 27.81 53.87 81.68 53.28 81.68 0 28.4 0 27.81"/><polygon points="0 27.21 54.47 81.68 53.87 81.68 0 27.81 0 27.21"/><polygon points="0 26.62 55.06 81.68 54.47 81.68 0 27.21 0 26.62"/><polygon points="0 26.03 55.65 81.68 55.06 81.68 0 26.62 0 26.03"/><polygon points="0 25.43 56.25 81.68 55.65 81.68 0 26.03 0 25.43"/><polygon points="0 24.84 56.84 81.68 56.25 81.68 0 25.43 0 24.84"/><polygon points="0 24.25 57.43 81.68 56.84 81.68 0 24.84 0 24.25"/><polygon points="0 23.65 58.03 81.68 57.43 81.68 0 24.25 0 23.65"/><polygon points="0 23.32 0.13 23.19 58.62 81.68 58.03 81.68 0 23.65 0 23.32"/><polygon points="0.13 23.19 0.43 22.89 59.22 81.68 58.62 81.68 0.13 23.19"/><polygon points="0.43 22.89 0.73 22.6 59.81 81.68 59.22 81.68 0.43 22.89"/><polygon points="0.72 22.6 1.02 22.3 60.4 81.68 59.81 81.68 0.72 22.6"/><polygon points="1.02 22.3 1.32 22 61 81.68 60.4 81.68 1.02 22.3"/><polygon points="1.32 22 1.62 21.7 61.59 81.68 61 81.68 1.32 22"/><polygon points="1.62 21.7 1.91 21.41 62.19 81.68 61.59 81.68 1.62 21.7"/><polygon points="1.91 21.41 2.21 21.11 62.78 81.68 62.19 81.68 1.91 21.41"/><polygon points="2.21 21.11 2.51 20.82 63.37 81.68 62.78 81.68 2.21 21.11"/><polygon points="2.51 20.82 2.8 20.52 63.97 81.68 63.37 81.68 2.51 20.82"/><polygon points="2.8 20.52 3.1 20.22 64.56 81.68 63.97 81.68 2.8 20.52"/><polygon points="3.1 20.22 3.4 19.92 65.15 81.68 64.56 81.68 3.1 20.22"/><polygon points="3.4 19.92 3.69 19.63 65.75 81.68 65.16 81.68 3.4 19.92"/><polygon points="3.69 19.63 3.99 19.33 66.34 81.68 65.75 81.68 3.69 19.63"/><polygon points="3.99 19.33 4.29 19.03 66.94 81.68 66.34 81.68 3.99 19.33"/><polygon points="4.29 19.03 4.58 18.74 67.53 81.68 66.94 81.68 4.29 19.03"/><polygon points="4.58 18.74 4.88 18.44 68.12 81.68 67.53 81.68 4.58 18.74"/><polygon points="4.88 18.44 4.9 18.43 5.46 18.43 68.72 81.68 68.12 81.68 4.88 18.44"/><polygon points="6.05 18.43 69.31 81.68 68.72 81.68 5.46 18.43 6.05 18.43"/><polygon points="6.65 18.43 69.9 81.68 69.31 81.68 6.05 18.43 6.65 18.43"/><polygon points="7.24 18.43 70.5 81.68 69.9 81.68 6.65 18.43 7.24 18.43"/><polygon points="7.84 18.43 71.09 81.68 70.5 81.68 7.24 18.43 7.84 18.43"/><polygon points="8.43 18.43 71.69 81.68 71.09 81.68 7.84 18.43 8.43 18.43"/><polygon points="9.02 18.43 72.28 81.68 71.68 81.68 8.43 18.43 9.02 18.43"/><polygon points="9.62 18.43 72.87 81.68 72.28 81.68 9.03 18.43 9.62 18.43"/><polygon points="10.21 18.43 73.47 81.68 72.87 81.68 9.62 18.43 10.21 18.43"/><polygon points="10.8 18.43 74.06 81.68 73.47 81.68 10.21 18.43 10.8 18.43"/><polygon points="11.4 18.43 74.65 81.68 74.06 81.68 10.81 18.43 11.4 18.43"/><polygon points="11.99 18.43 75.25 81.68 74.65 81.68 11.4 18.43 11.99 18.43"/><polygon points="12.59 18.43 75.84 81.68 75.25 81.68 11.99 18.43 12.59 18.43"/><polygon points="13.18 18.43 76.44 81.68 75.84 81.68 12.59 18.43 13.18 18.43"/><polygon points="13.77 18.43 77.03 81.68 76.44 81.68 13.18 18.43 13.77 18.43"/><polygon points="14.37 18.43 77.62 81.68 77.03 81.68 13.77 18.43 14.37 18.43"/><polygon points="14.96 18.43 78.22 81.68 77.62 81.68 14.37 18.43 14.96 18.43"/><polygon points="15.55 18.43 78.81 81.68 78.22 81.68 14.96 18.43 15.55 18.43"/><polygon points="16.15 18.43 79.41 81.68 78.81 81.68 15.56 18.43 16.15 18.43"/><polygon points="16.74 18.43 80 81.68 79.4 81.68 16.15 18.43 16.74 18.43"/><polygon points="17.34 18.43 80.59 81.68 80 81.68 16.74 18.43 17.34 18.43"/><polygon points="17.93 18.43 81.19 81.68 80.59 81.68 17.34 18.43 17.93 18.43"/><polygon points="18.52 18.43 81.78 81.68 81.19 81.68 17.93 18.43 18.52 18.43"/><polygon points="19.12 18.43 82.37 81.68 81.78 81.68 18.52 18.43 19.12 18.43"/><polygon points="19.71 18.43 82.97 81.68 82.37 81.68 19.12 18.43 19.71 18.43"/><polygon points="20.3 18.43 83.56 81.68 82.97 81.68 19.71 18.43 20.3 18.43"/><polygon points="20.9 18.43 84.16 81.68 83.56 81.68 20.3 18.43 20.9 18.43"/><polygon points="21.49 18.43 84.75 81.68 84.15 81.68 20.9 18.43 21.49 18.43"/><polygon points="22.09 18.43 85.34 81.68 84.75 81.68 21.49 18.43 22.09 18.43"/><polygon points="22.68 18.43 85.94 81.68 85.34 81.68 22.09 18.43 22.68 18.43"/><polygon points="23.27 18.43 86.53 81.68 85.94 81.68 22.68 18.43 23.27 18.43"/><polygon points="23.87 18.43 87.12 81.68 86.53 81.68 23.27 18.43 23.87 18.43"/><polygon points="24.46 18.43 87.72 81.68 87.12 81.68 23.87 18.43 24.46 18.43"/><polygon points="25.05 18.43 88.31 81.68 87.72 81.68 24.46 18.43 25.05 18.43"/><polygon points="25.65 18.43 88.91 81.68 88.31 81.68 25.06 18.43 25.65 18.43"/><polygon points="26.24 18.43 89.5 81.68 88.9 81.68 25.65 18.43 26.24 18.43"/><polygon points="26.84 18.43 90.09 81.68 89.5 81.68 26.24 18.43 26.84 18.43"/><polygon points="27.43 18.43 90.69 81.68 90.09 81.68 26.84 18.43 27.43 18.43"/><polygon points="28.02 18.43 91.28 81.68 90.69 81.68 27.43 18.43 28.02 18.43"/><polygon points="28.62 18.43 91.87 81.68 91.28 81.68 28.02 18.43 28.62 18.43"/><polygon points="29.21 18.43 92.47 81.68 91.87 81.68 28.62 18.43 29.21 18.43"/><polygon points="29.8 18.43 92.79 81.41 92.51 81.68 92.47 81.68 29.21 18.43 29.8 18.43"/><polygon points="30.4 18.43 93.08 81.11 92.79 81.41 29.81 18.43 30.4 18.43"/><polygon points="30.99 18.43 93.38 80.81 93.08 81.11 30.4 18.43 30.99 18.43"/><polygon points="31.59 18.43 93.68 80.52 93.38 80.81 30.99 18.43 31.59 18.43"/><polygon points="32.18 18.43 93.98 80.22 93.68 80.52 31.59 18.43 32.18 18.43"/><polygon points="32.77 18.43 94.27 79.92 93.97 80.22 32.18 18.43 32.77 18.43"/><polygon points="33.37 18.43 94.57 79.63 94.27 79.92 32.77 18.43 33.37 18.43"/><polygon points="33.96 18.43 94.86 79.33 94.57 79.63 33.37 18.43 33.96 18.43"/><polygon points="34.56 18.43 95.16 79.03 94.87 79.33 33.96 18.43 34.56 18.43"/><polygon points="35.15 18.43 95.46 78.73 95.16 79.03 34.56 18.43 35.15 18.43"/><polygon points="35.74 18.43 95.76 78.44 95.46 78.73 35.15 18.43 35.74 18.43"/><polygon points="36.34 18.43 96.05 78.14 95.76 78.44 35.74 18.43 36.34 18.43"/><polygon points="36.93 18.43 96.35 77.84 96.05 78.14 36.34 18.43 36.93 18.43"/><polygon points="37.52 18.43 96.65 77.55 96.35 77.84 36.93 18.43 37.52 18.43"/><polygon points="38.12 18.43 96.94 77.25 96.65 77.55 37.52 18.43 38.12 18.43"/><polygon points="38.71 18.43 97.24 76.95 96.94 77.25 38.12 18.43 38.71 18.43"/><polygon points="39.31 18.43 97.54 76.66 97.24 76.95 38.71 18.43 39.31 18.43"/><polygon points="39.9 18.43 97.83 76.36 97.54 76.66 39.3 18.43 39.9 18.43"/><polygon points="40.49 18.43 98.13 76.06 97.83 76.36 39.9 18.43 40.49 18.43"/><polygon points="41.09 18.43 98.43 75.77 98.13 76.06 40.49 18.43 41.09 18.43"/><polygon points="41.68 18.43 98.72 75.47 98.43 75.77 41.09 18.43 41.68 18.43"/><polygon points="42.27 18.43 99.02 75.17 98.72 75.47 41.68 18.43 42.27 18.43"/><polygon points="42.87 18.43 99.32 74.88 99.02 75.17 42.27 18.43 42.87 18.43"/><polygon points="43.46 18.43 99.62 74.58 99.32 74.88 42.87 18.43 43.46 18.43"/><polygon points="44.06 18.43 99.91 74.28 99.62 74.58 43.46 18.43 44.06 18.43"/><polygon points="44.65 18.43 100 73.77 100 74.2 99.91 74.28 44.06 18.43 44.65 18.43"/><polygon points="45.24 18.43 100 73.18 100 73.77 44.65 18.43 45.24 18.43"/><polygon points="45.84 18.43 100 72.59 100 73.18 45.24 18.43 45.84 18.43"/><polygon points="46.43 18.43 100 71.99 100 72.59 45.84 18.43 46.43 18.43"/><polygon points="47.02 18.43 100 71.4 100 71.99 46.43 18.43 47.02 18.43"/><polygon points="47.62 18.43 100 70.81 100 71.4 47.02 18.43 47.62 18.43"/><polygon points="48.21 18.43 100 70.21 100 70.81 47.62 18.43 48.21 18.43"/><polygon points="55.68 18.43 100 62.74 100 70.21 48.21 18.43 55.68 18.43"/><polygon points="63.15 18.43 100 55.28 100 62.74 55.68 18.43 63.15 18.43"/><polygon points="70.62 18.43 100 47.81 100 55.28 63.15 18.43 70.62 18.43"/><polygon points="78.08 18.43 100 40.34 100 47.81 70.62 18.43 78.08 18.43"/><polygon points="85.55 18.43 100 32.87 100 40.34 78.08 18.43 85.55 18.43"/><polygon points="93.02 18.43 100 25.4 100 32.87 85.55 18.43 93.02 18.43"/><polygon points="100 25.4 93.02 18.43 100 18.43 100 25.4"/><polygon points="73.28 28.55 76.51 31.79 73.28 31.79 73.28 28.55"/><polygon points="80.43 28.24 83.98 31.79 76.51 31.79 73.28 28.55 73.28 28.24 80.43 28.24"/><polygon points="87.9 28.24 88.52 28.86 88.52 31.79 83.98 31.79 80.43 28.24 87.9 28.24"/><polygon points="88.52 28.86 87.9 28.24 88.52 28.24 88.52 28.86"/><polygon points="73.28 44.68 73.75 45.15 73.28 45.15 73.28 44.68"/><polygon points="73.28 44.08 74.34 45.15 73.75 45.15 73.28 44.68 73.28 44.08"/><polygon points="73.28 43.49 74.93 45.15 74.34 45.15 73.28 44.09 73.28 43.49"/><polygon points="73.28 36.02 82.4 45.15 74.93 45.15 73.28 43.49 73.28 36.02"/><polygon points="79.64 34.92 89.75 45.02 89.75 45.15 82.4 45.15 73.28 36.02 73.28 34.92 79.64 34.92"/><polygon points="87.11 34.92 89.75 37.56 89.75 45.02 79.64 34.92 87.11 34.92"/><polygon points="89.75 37.56 87.11 34.92 89.75 34.92 89.75 37.56"/><polygon points="21.5 78.41 21.65 78.55 21.5 78.55 21.5 78.41"/><polygon points="21.5 77.81 22.24 78.55 21.65 78.55 21.5 78.41 21.5 77.81"/><polygon points="21.5 77.22 22.83 78.55 22.24 78.55 21.5 77.81 21.5 77.22"/><polygon points="21.5 76.63 23.43 78.55 22.83 78.55 21.5 77.22 21.5 76.63"/><polygon points="21.5 76.03 24.02 78.55 23.43 78.55 21.5 76.62 21.5 76.03"/><polygon points="21.5 75.44 24.62 78.55 24.02 78.55 21.5 76.03 21.5 75.44"/><polygon points="21.5 74.84 25.21 78.55 24.62 78.55 21.5 75.44 21.5 74.84"/><polygon points="21.5 74.25 25.8 78.55 25.21 78.55 21.5 74.84 21.5 74.25"/><polygon points="21.5 73.66 26.4 78.55 25.8 78.55 21.5 74.25 21.5 73.66"/><polygon points="21.5 73.06 26.99 78.55 26.4 78.55 21.5 73.66 21.5 73.06"/><polygon points="21.5 72.47 27.58 78.55 26.99 78.55 21.5 73.06 21.5 72.47"/><polygon points="21.5 71.88 28.18 78.55 27.58 78.55 21.5 72.47 21.5 71.88"/><polygon points="21.5 71.28 28.77 78.55 28.18 78.55 21.5 71.87 21.5 71.28"/><polygon points="21.5 70.69 29.36 78.55 28.77 78.55 21.5 71.28 21.5 70.69"/><polygon points="21.5 70.09 29.96 78.55 29.36 78.55 21.5 70.69 21.5 70.09"/><polygon points="21.5 69.5 30.55 78.55 29.96 78.55 21.5 70.09 21.5 69.5"/><polygon points="21.5 68.91 31.15 78.55 30.55 78.55 21.5 69.5 21.5 68.91"/><polygon points="21.5 68.31 31.74 78.55 31.15 78.55 21.5 68.91 21.5 68.31"/><polygon points="21.5 67.72 32.34 78.55 31.74 78.55 21.5 68.31 21.5 67.72"/><polygon points="21.5 67.13 32.93 78.55 32.34 78.55 21.5 67.72 21.5 67.13"/><polygon points="21.5 66.53 33.52 78.55 32.93 78.55 21.5 67.13 21.5 66.53"/><polygon points="21.5 65.94 34.12 78.55 33.52 78.55 21.5 66.53 21.5 65.94"/><polygon points="21.5 65.34 34.71 78.55 34.12 78.55 21.5 65.94 21.5 65.34"/><polygon points="21.73 64.98 35.07 78.32 35.07 78.55 34.71 78.55 21.5 65.34 21.5 64.98 21.73 64.98"/><polygon points="22.33 64.98 35.07 77.73 35.07 78.32 21.73 64.98 22.33 64.98"/><polygon points="22.92 64.98 35.07 77.13 35.07 77.73 22.33 64.98 22.92 64.98"/><polygon points="23.52 64.98 35.07 76.54 35.07 77.13 22.92 64.98 23.52 64.98"/><polygon points="24.11 64.98 35.07 75.94 35.07 76.54 23.52 64.98 24.11 64.98"/><polygon points="24.7 64.98 35.07 75.35 35.07 75.94 24.11 64.98 24.7 64.98"/><polygon points="25.3 64.98 35.07 74.76 35.07 75.35 24.7 64.98 25.3 64.98"/><polygon points="25.89 64.98 35.07 74.16 35.07 74.76 25.3 64.98 25.89 64.98"/><polygon points="26.48 64.98 35.07 73.57 35.07 74.16 25.89 64.98 26.48 64.98"/><polygon points="27.08 64.98 35.07 72.98 35.07 73.57 26.48 64.98 27.08 64.98"/><polygon points="27.67 64.98 35.07 72.38 35.07 72.98 27.08 64.98 27.67 64.98"/><polygon points="28.27 64.98 35.07 71.79 35.07 72.38 27.67 64.98 28.27 64.98"/><polygon points="28.86 64.98 35.07 71.19 35.07 71.79 28.27 64.98 28.86 64.98"/><polygon points="29.45 64.98 35.07 70.6 35.07 71.19 28.86 64.98 29.45 64.98"/><polygon points="30.05 64.98 35.07 70.01 35.07 70.6 29.45 64.98 30.05 64.98"/><polygon points="30.64 64.98 35.07 69.41 35.07 70.01 30.05 64.98 30.64 64.98"/><polygon points="31.23 64.98 35.07 68.82 35.07 69.41 30.64 64.98 31.23 64.98"/><polygon points="31.83 64.98 35.07 68.22 35.07 68.82 31.23 64.98 31.83 64.98"/><polygon points="32.42 64.98 35.07 67.63 35.07 68.22 31.83 64.98 32.42 64.98"/><polygon points="33.02 64.98 35.07 67.04 35.07 67.63 32.42 64.98 33.02 64.98"/><polygon points="33.61 64.98 35.07 66.44 35.07 67.04 33.01 64.98 33.61 64.98"/><polygon points="34.2 64.98 35.07 65.85 35.07 66.44 33.61 64.98 34.2 64.98"/><polygon points="34.8 64.98 35.07 65.25 35.07 65.85 34.2 64.98 34.8 64.98"/><polygon points="35.07 65.26 34.8 64.98 35.07 64.98 35.07 65.26"/><polygon points="76.62 78.3 76.87 78.55 76.62 78.55 76.62 78.3"/><polygon points="76.62 77.71 77.46 78.55 76.87 78.55 76.62 78.3 76.62 77.71"/><polygon points="76.62 77.11 78.05 78.55 77.46 78.55 76.62 77.71 76.62 77.11"/><polygon points="76.62 76.52 78.65 78.55 78.05 78.55 76.62 77.11 76.62 76.52"/><polygon points="76.62 75.93 79.24 78.55 78.65 78.55 76.62 76.52 76.62 75.93"/><polygon points="76.62 75.33 79.83 78.55 79.24 78.55 76.62 75.93 76.62 75.33"/><polygon points="76.62 74.74 80.43 78.55 79.83 78.55 76.62 75.33 76.62 74.74"/><polygon points="76.62 74.14 81.02 78.55 80.43 78.55 76.62 74.74 76.62 74.14"/><polygon points="76.62 73.55 81.62 78.55 81.02 78.55 76.62 74.14 76.62 73.55"/><polygon points="76.62 72.96 82.21 78.55 81.62 78.55 76.62 73.55 76.62 72.96"/><polygon points="76.62 72.36 82.81 78.55 82.21 78.55 76.62 72.96 76.62 72.36"/><polygon points="76.62 71.77 83.4 78.55 82.81 78.55 76.62 72.36 76.62 71.77"/><polygon points="76.62 71.18 83.99 78.55 83.4 78.55 76.62 71.77 76.62 71.18"/><polygon points="76.62 70.58 84.58 78.55 83.99 78.55 76.62 71.17 76.62 70.58"/><polygon points="76.62 69.99 85.18 78.55 84.58 78.55 76.62 70.58 76.62 69.99"/><polygon points="76.62 69.39 85.77 78.55 85.18 78.55 76.62 69.99 76.62 69.39"/><polygon points="76.62 68.8 86.37 78.55 85.77 78.55 76.62 69.39 76.62 68.8"/><polygon points="76.62 68.21 86.96 78.55 86.37 78.55 76.62 68.8 76.62 68.21"/><polygon points="76.62 67.61 87.56 78.55 86.96 78.55 76.62 68.21 76.62 67.61"/><polygon points="76.62 67.02 88.15 78.55 87.56 78.55 76.62 67.61 76.62 67.02"/><polygon points="76.62 66.42 88.74 78.55 88.15 78.55 76.62 67.02 76.62 66.42"/><polygon points="76.62 65.83 89.33 78.55 88.74 78.55 76.62 66.42 76.62 65.83"/><polygon points="76.62 65.24 89.93 78.55 89.33 78.55 76.62 65.83 76.62 65.24"/><polygon points="76.95 64.98 90.19 78.21 90.19 78.55 89.93 78.55 76.62 65.24 76.62 64.98 76.95 64.98"/><polygon points="77.55 64.98 90.19 77.62 90.19 78.21 76.95 64.98 77.55 64.98"/><polygon points="78.14 64.98 90.19 77.03 90.19 77.62 77.55 64.98 78.14 64.98"/><polygon points="78.73 64.98 90.19 76.43 90.19 77.03 78.14 64.98 78.73 64.98"/><polygon points="79.33 64.98 90.19 75.84 90.19 76.43 78.74 64.98 79.33 64.98"/><polygon points="79.92 64.98 90.19 75.25 90.19 75.84 79.33 64.98 79.92 64.98"/><polygon points="80.52 64.98 90.19 74.65 90.19 75.25 79.92 64.98 80.52 64.98"/><polygon points="81.11 64.98 90.19 74.06 90.19 74.65 80.52 64.98 81.11 64.98"/><polygon points="81.7 64.98 90.19 73.46 90.19 74.06 81.11 64.98 81.7 64.98"/><polygon points="82.3 64.98 90.19 72.87 90.19 73.46 81.7 64.98 82.3 64.98"/><polygon points="82.89 64.98 90.19 72.27 90.19 72.87 82.3 64.98 82.89 64.98"/><polygon points="83.48 64.98 90.19 71.68 90.19 72.27 82.89 64.98 83.48 64.98"/><polygon points="84.08 64.98 90.19 71.09 90.19 71.68 83.49 64.98 84.08 64.98"/><polygon points="84.67 64.98 90.19 70.5 90.19 71.09 84.08 64.98 84.67 64.98"/><polygon points="85.27 64.98 90.19 69.9 90.19 70.5 84.67 64.98 85.27 64.98"/><polygon points="85.86 64.98 90.19 69.31 90.19 69.9 85.27 64.98 85.86 64.98"/><polygon points="86.45 64.98 90.19 68.71 90.19 69.31 85.86 64.98 86.45 64.98"/><polygon points="87.05 64.98 90.19 68.12 90.19 68.71 86.45 64.98 87.05 64.98"/><polygon points="87.64 64.98 90.19 67.53 90.19 68.12 87.05 64.98 87.64 64.98"/><polygon points="88.23 64.98 90.19 66.93 90.19 67.53 87.64 64.98 88.23 64.98"/><polygon points="88.83 64.98 90.19 66.34 90.19 66.93 88.24 64.98 88.83 64.98"/><polygon points="89.42 64.98 90.19 65.74 90.19 66.34 88.83 64.98 89.42 64.98"/><polygon points="90.02 64.98 90.19 65.15 90.19 65.74 89.42 64.98 90.02 64.98"/><polygon points="90.19 65.15 90.02 64.98 90.19 64.98 90.19 65.15"/><polygon points="93.32 56.06 95.76 58.51 93.32 58.51 93.32 56.06"/><polygon points="95.76 58.51 93.32 56.06 93.32 54.96 96.87 54.96 96.87 58.51 95.76 58.51"/></g><path d="M25.05,71.76a3.24,3.24,0,1,0,3.24-3.23,3.24,3.24,0,0,0-3.24,3.23"/><g class="cls-2"><polygon points="25.05 74.45 25.6 75 25.05 75 25.05 74.45"/><polygon points="25.05 73.84 26.21 75 25.6 75 25.05 74.45 25.05 73.84"/><polygon points="25.05 73.23 26.82 75 26.21 75 25.05 73.84 25.05 73.23"/><polygon points="25.05 72.62 27.43 75 26.82 75 25.05 73.23 25.05 72.62"/><polygon points="25.05 72.01 28.04 75 27.43 75 25.05 72.62 25.05 72.01"/><polygon points="25.05 71.4 28.65 75 28.04 75 25.05 72.01 25.05 71.4"/><polygon points="25.05 70.79 29.26 75 28.65 75 25.05 71.4 25.05 70.79"/><polygon points="25.05 70.18 29.87 75 29.26 75 25.05 70.79 25.05 70.18"/><polygon points="25.05 69.57 30.48 75 29.87 75 25.05 70.18 25.05 69.57"/><polygon points="25.05 68.96 31.09 75 30.48 75 25.05 69.57 25.05 68.96"/><polygon points="25.23 68.53 31.52 74.82 31.52 75 31.09 75 25.05 68.96 25.05 68.53 25.23 68.53"/><polygon points="25.84 68.53 31.52 74.22 31.52 74.82 25.23 68.53 25.84 68.53"/><polygon points="26.45 68.53 31.52 73.61 31.52 74.22 25.84 68.53 26.45 68.53"/><polygon points="27.06 68.53 31.52 73 31.52 73.61 26.45 68.53 27.06 68.53"/><polygon points="27.67 68.53 31.52 72.39 31.52 73 27.06 68.53 27.67 68.53"/><polygon points="28.28 68.53 31.52 71.78 31.52 72.39 27.67 68.53 28.28 68.53"/><polygon points="28.89 68.53 31.52 71.17 31.52 71.78 28.28 68.53 28.89 68.53"/><polygon points="29.5 68.53 31.52 70.56 31.52 71.17 28.89 68.53 29.5 68.53"/><polygon points="30.11 68.53 31.52 69.95 31.52 70.56 29.5 68.53 30.11 68.53"/><polygon points="30.71 68.53 31.52 69.34 31.52 69.95 30.11 68.53 30.71 68.53"/><polygon points="31.32 68.53 31.53 68.73 31.53 69.34 30.71 68.53 31.32 68.53"/><polygon points="31.52 68.73 31.32 68.53 31.52 68.53 31.52 68.73"/></g><path d="M80.17,71.76a3.24,3.24,0,1,0,3.23-3.23,3.24,3.24,0,0,0-3.23,3.23"/><g class="cls-3"><polygon points="80.17 74.81 80.36 75 80.17 75 80.17 74.81"/><polygon points="80.17 74.2 80.97 75 80.36 75 80.17 74.81 80.17 74.2"/><polygon points="80.17 73.59 81.58 75 80.97 75 80.17 74.2 80.17 73.59"/><polygon points="80.17 72.98 82.19 75 81.58 75 80.17 73.59 80.17 72.98"/><polygon points="80.17 72.37 82.8 75 82.19 75 80.17 72.98 80.17 72.37"/><polygon points="80.17 71.76 83.41 75 82.8 75 80.17 72.37 80.17 71.76"/><polygon points="80.17 71.15 84.02 75 83.41 75 80.17 71.76 80.17 71.15"/><polygon points="80.17 70.54 84.63 75 84.02 75 80.17 71.15 80.17 70.54"/><polygon points="80.17 69.93 85.24 75 84.63 75 80.17 70.54 80.17 69.93"/><polygon points="80.17 69.32 85.85 75 85.24 75 80.17 69.93 80.17 69.32"/><polygon points="80.17 68.71 86.46 75 85.85 75 80.17 69.32 80.17 68.71"/><polygon points="80.59 68.53 86.64 74.57 86.64 75 86.46 75 80.17 68.71 80.17 68.53 80.59 68.53"/><polygon points="81.2 68.53 86.64 73.96 86.64 74.57 80.59 68.53 81.2 68.53"/><polygon points="81.81 68.53 86.64 73.35 86.64 73.96 81.2 68.53 81.81 68.53"/><polygon points="82.42 68.53 86.64 72.74 86.64 73.35 81.81 68.53 82.42 68.53"/><polygon points="83.03 68.53 86.64 72.13 86.64 72.74 82.42 68.53 83.03 68.53"/><polygon points="83.64 68.53 86.64 71.52 86.64 72.13 83.03 68.53 83.64 68.53"/><polygon points="84.25 68.53 86.64 70.91 86.64 71.52 83.64 68.53 84.25 68.53"/><polygon points="84.86 68.53 86.64 70.3 86.64 70.91 84.25 68.53 84.86 68.53"/><polygon points="85.47 68.53 86.64 69.7 86.64 70.3 84.86 68.53 85.47 68.53"/><polygon points="86.08 68.53 86.64 69.08 86.64 69.7 85.47 68.53 86.08 68.53"/><polygon points="86.64 69.08 86.08 68.53 86.64 68.53 86.64 69.08"/></g><path d="M41.65,61.85a1.57,1.57,0,1,0,0,3.13H65a1.57,1.57,0,1,0,0-3.13Z"/><g class="cls-4"><polygon points="40.08 64.75 40.32 64.98 40.08 64.98 40.08 64.75"/><polygon points="40.08 64.17 40.89 64.98 40.32 64.98 40.08 64.75 40.08 64.17"/><polygon points="40.08 63.59 41.47 64.98 40.89 64.98 40.08 64.17 40.08 63.59"/><polygon points="40.08 63.02 42.05 64.98 41.47 64.98 40.08 63.59 40.08 63.02"/><polygon points="40.08 62.44 42.62 64.98 42.05 64.98 40.08 63.02 40.08 62.44"/><polygon points="40.08 61.86 43.2 64.98 42.62 64.98 40.08 62.44 40.08 61.86"/><polygon points="40.64 61.85 43.77 64.98 43.2 64.98 40.08 61.86 40.08 61.85 40.64 61.85"/><polygon points="41.22 61.85 44.35 64.98 43.77 64.98 40.64 61.85 41.22 61.85"/><polygon points="41.8 61.85 44.93 64.98 44.35 64.98 41.22 61.85 41.8 61.85"/><polygon points="42.37 61.85 45.51 64.98 44.93 64.98 41.8 61.85 42.37 61.85"/><polygon points="42.95 61.85 46.08 64.98 45.5 64.98 42.37 61.85 42.95 61.85"/><polygon points="43.53 61.85 46.66 64.98 46.08 64.98 42.95 61.85 43.53 61.85"/><polygon points="44.1 61.85 47.23 64.98 46.66 64.98 43.53 61.85 44.1 61.85"/><polygon points="44.68 61.85 47.81 64.98 47.23 64.98 44.1 61.85 44.68 61.85"/><polygon points="45.26 61.85 48.39 64.98 47.81 64.98 44.68 61.85 45.26 61.85"/><polygon points="45.83 61.85 48.96 64.98 48.39 64.98 45.26 61.85 45.83 61.85"/><polygon points="46.41 61.85 49.54 64.98 48.96 64.98 45.83 61.85 46.41 61.85"/><polygon points="46.98 61.85 50.12 64.98 49.54 64.98 46.41 61.85 46.98 61.85"/><polygon points="47.56 61.85 50.69 64.98 50.12 64.98 46.98 61.85 47.56 61.85"/><polygon points="48.14 61.85 51.27 64.98 50.69 64.98 47.56 61.85 48.14 61.85"/><polygon points="48.71 61.85 51.85 64.98 51.27 64.98 48.14 61.85 48.71 61.85"/><polygon points="49.29 61.85 52.42 64.98 51.84 64.98 48.72 61.85 49.29 61.85"/><polygon points="49.87 61.85 53 64.98 52.42 64.98 49.29 61.85 49.87 61.85"/><polygon points="50.44 61.85 53.58 64.98 53 64.98 49.87 61.85 50.44 61.85"/><polygon points="51.02 61.85 54.15 64.98 53.57 64.98 50.44 61.85 51.02 61.85"/><polygon points="51.6 61.85 54.73 64.98 54.15 64.98 51.02 61.85 51.6 61.85"/><polygon points="52.17 61.85 55.3 64.98 54.73 64.98 51.6 61.85 52.17 61.85"/><polygon points="52.75 61.85 55.88 64.98 55.3 64.98 52.17 61.85 52.75 61.85"/><polygon points="53.33 61.85 56.46 64.98 55.88 64.98 52.75 61.85 53.33 61.85"/><polygon points="53.9 61.85 57.03 64.98 56.46 64.98 53.33 61.85 53.9 61.85"/><polygon points="54.48 61.85 57.61 64.98 57.03 64.98 53.9 61.85 54.48 61.85"/><polygon points="55.06 61.85 58.19 64.98 57.61 64.98 54.48 61.85 55.06 61.85"/><polygon points="55.63 61.85 58.76 64.98 58.19 64.98 55.06 61.85 55.63 61.85"/><polygon points="56.21 61.85 59.34 64.98 58.76 64.98 55.63 61.85 56.21 61.85"/><polygon points="56.78 61.85 59.92 64.98 59.34 64.98 56.21 61.85 56.78 61.85"/><polygon points="57.36 61.85 60.49 64.98 59.91 64.98 56.78 61.85 57.36 61.85"/><polygon points="57.94 61.85 61.07 64.98 60.49 64.98 57.36 61.85 57.94 61.85"/><polygon points="58.51 61.85 61.65 64.98 61.07 64.98 57.94 61.85 58.51 61.85"/><polygon points="59.09 61.85 62.22 64.98 61.65 64.98 58.52 61.85 59.09 61.85"/><polygon points="59.67 61.85 62.8 64.98 62.22 64.98 59.09 61.85 59.67 61.85"/><polygon points="60.24 61.85 63.38 64.98 62.8 64.98 59.67 61.85 60.24 61.85"/><polygon points="60.82 61.85 63.95 64.98 63.37 64.98 60.24 61.85 60.82 61.85"/><polygon points="61.4 61.85 64.53 64.98 63.95 64.98 60.82 61.85 61.4 61.85"/><polygon points="61.97 61.85 65.11 64.98 64.53 64.98 61.4 61.85 61.97 61.85"/><polygon points="62.55 61.85 65.68 64.98 65.1 64.98 61.97 61.85 62.55 61.85"/><polygon points="63.13 61.85 66.26 64.98 65.68 64.98 62.55 61.85 63.13 61.85"/><polygon points="63.7 61.85 66.6 64.74 66.6 64.98 66.26 64.98 63.13 61.85 63.7 61.85"/><polygon points="64.28 61.85 66.6 64.17 66.6 64.74 63.7 61.85 64.28 61.85"/><polygon points="64.86 61.85 66.6 63.59 66.6 64.17 64.28 61.85 64.86 61.85"/><polygon points="65.43 61.85 66.6 63.01 66.6 63.59 64.86 61.85 65.43 61.85"/><polygon points="66.01 61.85 66.6 62.44 66.6 63.01 65.43 61.85 66.01 61.85"/><polygon points="66.58 61.85 66.6 61.86 66.6 62.44 66.01 61.85 66.58 61.85"/><polygon points="66.6 61.86 66.58 61.85 66.6 61.85 66.6 61.86"/></g><path d="M4.91,55.17a1.57,1.57,0,1,0,0,3.13H25a1.57,1.57,0,1,0,0-3.13Z"/><g class="cls-5"><polygon points="3.34 57.93 3.71 58.3 3.34 58.3 3.34 57.93"/><polygon points="3.34 57.35 4.29 58.3 3.71 58.3 3.34 57.93 3.34 57.35"/><polygon points="3.34 56.78 4.86 58.3 4.29 58.3 3.34 57.35 3.34 56.78"/><polygon points="3.34 56.2 5.44 58.3 4.86 58.3 3.34 56.78 3.34 56.2"/><polygon points="3.34 55.62 6.02 58.3 5.44 58.3 3.34 56.2 3.34 55.62"/><polygon points="3.46 55.17 6.59 58.3 6.02 58.3 3.34 55.62 3.34 55.17 3.46 55.17"/><polygon points="4.04 55.17 7.17 58.3 6.59 58.3 3.46 55.17 4.04 55.17"/><polygon points="4.62 55.17 7.75 58.3 7.17 58.3 4.04 55.17 4.62 55.17"/><polygon points="5.2 55.17 8.33 58.3 7.75 58.3 4.62 55.17 5.2 55.17"/><polygon points="5.77 55.17 8.9 58.3 8.33 58.3 5.19 55.17 5.77 55.17"/><polygon points="6.35 55.17 9.48 58.3 8.9 58.3 5.77 55.17 6.35 55.17"/><polygon points="6.93 55.17 10.06 58.3 9.48 58.3 6.35 55.17 6.93 55.17"/><polygon points="7.5 55.17 10.64 58.3 10.06 58.3 6.93 55.17 7.5 55.17"/><polygon points="8.08 55.17 11.21 58.3 10.63 58.3 7.5 55.17 8.08 55.17"/><polygon points="8.66 55.17 11.79 58.3 11.21 58.3 8.08 55.17 8.66 55.17"/><polygon points="9.24 55.17 12.37 58.3 11.79 58.3 8.66 55.17 9.24 55.17"/><polygon points="9.81 55.17 12.95 58.3 12.37 58.3 9.23 55.17 9.81 55.17"/><polygon points="10.39 55.17 13.52 58.3 12.95 58.3 9.81 55.17 10.39 55.17"/><polygon points="10.97 55.17 14.1 58.3 13.52 58.3 10.39 55.17 10.97 55.17"/><polygon points="11.54 55.17 14.68 58.3 14.1 58.3 10.97 55.17 11.54 55.17"/><polygon points="12.12 55.17 15.25 58.3 14.68 58.3 11.54 55.17 12.12 55.17"/><polygon points="12.7 55.17 15.83 58.3 15.25 58.3 12.12 55.17 12.7 55.17"/><polygon points="13.28 55.17 16.41 58.3 15.83 58.3 12.7 55.17 13.28 55.17"/><polygon points="13.85 55.17 16.99 58.3 16.41 58.3 13.28 55.17 13.85 55.17"/><polygon points="14.43 55.17 17.56 58.3 16.99 58.3 13.85 55.17 14.43 55.17"/><polygon points="15.01 55.17 18.14 58.3 17.56 58.3 14.43 55.17 15.01 55.17"/><polygon points="15.59 55.17 18.72 58.3 18.14 58.3 15.01 55.17 15.59 55.17"/><polygon points="16.16 55.17 19.3 58.3 18.72 58.3 15.59 55.17 16.16 55.17"/><polygon points="16.74 55.17 19.87 58.3 19.3 58.3 16.16 55.17 16.74 55.17"/><polygon points="17.32 55.17 20.45 58.3 19.87 58.3 16.74 55.17 17.32 55.17"/><polygon points="17.89 55.17 21.03 58.3 20.45 58.3 17.32 55.17 17.89 55.17"/><polygon points="18.47 55.17 21.6 58.3 21.03 58.3 17.89 55.17 18.47 55.17"/><polygon points="19.05 55.17 22.18 58.3 21.6 58.3 18.47 55.17 19.05 55.17"/><polygon points="19.63 55.17 22.76 58.3 22.18 58.3 19.05 55.17 19.63 55.17"/><polygon points="20.2 55.17 23.34 58.3 22.76 58.3 19.63 55.17 20.2 55.17"/><polygon points="20.78 55.17 23.91 58.3 23.34 58.3 20.2 55.17 20.78 55.17"/><polygon points="21.36 55.17 24.49 58.3 23.91 58.3 20.78 55.17 21.36 55.17"/><polygon points="21.94 55.17 25.07 58.3 24.49 58.3 21.36 55.17 21.94 55.17"/><polygon points="22.51 55.17 25.65 58.3 25.07 58.3 21.94 55.17 22.51 55.17"/><polygon points="23.09 55.17 26.22 58.3 25.64 58.3 22.51 55.17 23.09 55.17"/><polygon points="23.67 55.17 26.51 58.01 26.51 58.3 26.22 58.3 23.09 55.17 23.67 55.17"/><polygon points="24.25 55.17 26.51 57.44 26.51 58.01 23.67 55.17 24.25 55.17"/><polygon points="24.82 55.17 26.51 56.86 26.51 57.44 24.25 55.17 24.82 55.17"/><polygon points="25.4 55.17 26.52 56.28 26.52 56.86 24.82 55.17 25.4 55.17"/><polygon points="25.98 55.17 26.51 55.7 26.51 56.28 25.4 55.17 25.98 55.17"/><polygon points="26.51 55.7 25.98 55.17 26.51 55.17 26.51 55.7"/></g><path d="M52.23,33.92,38.31,47.84,31.07,40.6a1.57,1.57,0,1,0-2.22,2.21l8.35,8.35a1.57,1.57,0,0,0,2.22,0l15-15a1.57,1.57,0,0,0-2.22-2.21"/><g class="cls-6"><polygon points="28.24 51.48 28.38 51.62 28.24 51.62 28.24 51.48"/><polygon points="28.24 50.89 28.97 51.62 28.38 51.62 28.24 51.48 28.24 50.89"/><polygon points="28.24 50.3 29.56 51.62 28.97 51.62 28.24 50.88 28.24 50.3"/><polygon points="28.24 49.7 30.16 51.62 29.56 51.62 28.24 50.3 28.24 49.7"/><polygon points="28.24 49.11 30.74 51.62 30.16 51.62 28.24 49.7 28.24 49.11"/><polygon points="28.24 48.52 31.34 51.62 30.74 51.62 28.24 49.11 28.24 48.52"/><polygon points="28.24 47.93 31.93 51.62 31.34 51.62 28.24 48.52 28.24 47.93"/><polygon points="28.24 47.34 32.52 51.62 31.93 51.62 28.24 47.93 28.24 47.34"/><polygon points="28.24 46.75 33.11 51.62 32.52 51.62 28.24 47.34 28.24 46.75"/><polygon points="28.24 46.16 33.7 51.62 33.11 51.62 28.24 46.75 28.24 46.16"/><polygon points="28.24 45.57 34.29 51.62 33.7 51.62 28.24 46.16 28.24 45.57"/><polygon points="28.24 44.98 34.88 51.62 34.29 51.62 28.24 45.57 28.24 44.98"/><polygon points="28.24 44.39 35.47 51.62 34.88 51.62 28.24 44.98 28.24 44.39"/><polygon points="28.24 43.8 36.06 51.62 35.47 51.62 28.24 44.39 28.24 43.8"/><polygon points="28.24 43.21 36.65 51.62 36.06 51.62 28.24 43.8 28.24 43.21"/><polygon points="28.24 42.62 37.24 51.62 36.65 51.62 28.24 43.21 28.24 42.62"/><polygon points="28.24 42.03 37.83 51.62 37.24 51.62 28.24 42.62 28.24 42.03"/><polygon points="28.24 41.44 38.42 51.62 37.83 51.62 28.24 42.02 28.24 41.44"/><polygon points="28.24 40.84 39.01 51.62 38.42 51.62 28.24 41.44 28.24 40.84"/><polygon points="28.24 40.26 39.6 51.62 39.01 51.62 28.24 40.84 28.24 40.26"/><polygon points="28.24 39.66 40.2 51.62 39.6 51.62 28.24 40.25 28.24 39.66"/><polygon points="28.24 39.07 40.78 51.62 40.2 51.62 28.24 39.66 28.24 39.07"/><polygon points="28.24 38.48 41.38 51.62 40.78 51.62 28.24 39.07 28.24 38.48"/><polygon points="28.24 37.97 28.28 37.93 41.97 51.62 41.38 51.62 28.24 38.48 28.24 37.97"/><polygon points="28.28 37.93 28.57 37.63 42.38 51.44 42.2 51.62 41.97 51.62 28.28 37.93"/><rect x="35.41" y="34.63" width="0.42" height="19.52" transform="translate(-20.95 38.19) rotate(-45)"/><rect x="35.71" y="34.33" width="0.42" height="19.52" transform="translate(-20.66 38.31) rotate(-45)"/><rect x="36" y="34.04" width="0.42" height="19.52" transform="translate(-20.36 38.43) rotate(-45)"/><rect x="36.3" y="33.74" width="0.42" height="19.52" transform="translate(-20.07 38.56) rotate(-45)"/><rect x="36.6" y="33.45" width="0.42" height="19.52" transform="translate(-19.77 38.68) rotate(-45)"/><rect x="36.89" y="33.15" width="0.42" height="19.52" transform="translate(-19.48 38.8) rotate(-45)"/><rect x="37.19" y="32.86" width="0.42" height="19.52" transform="translate(-19.18 38.92) rotate(-45)"/><rect x="37.48" y="32.56" width="0.42" height="19.52" transform="translate(-18.89 39.05) rotate(-45)"/><rect x="37.78" y="32.27" width="0.42" height="19.52" transform="translate(-18.59 39.17) rotate(-45)"/><rect x="38.07" y="31.97" width="0.42" height="19.52" transform="translate(-18.3 39.29) rotate(-45)"/><rect x="38.37" y="31.68" width="0.42" height="19.52" transform="translate(-18 39.41) rotate(-45)"/><rect x="38.66" y="31.38" width="0.42" height="19.52" transform="translate(-17.71 39.54) rotate(-45)"/><rect x="38.96" y="31.09" width="0.42" height="19.52" transform="translate(-17.41 39.66) rotate(-45)"/><rect x="39.25" y="30.79" width="0.42" height="19.52" transform="translate(-17.11 39.78) rotate(-45)"/><polygon points="32.71 33.5 32.91 33.3 33.1 33.3 46.81 47.01 46.51 47.3 32.71 33.5"/><polygon points="33.69 33.3 47.1 46.71 46.81 47.01 33.1 33.3 33.69 33.3"/><polygon points="34.28 33.3 47.4 46.41 47.1 46.71 33.69 33.3 34.28 33.3"/><polygon points="34.87 33.3 47.69 46.12 47.4 46.41 34.28 33.3 34.87 33.3"/><polygon points="35.47 33.3 47.99 45.83 47.69 46.12 34.87 33.3 35.47 33.3"/><polygon points="36.05 33.3 48.28 45.53 47.99 45.83 35.47 33.3 36.05 33.3"/><polygon points="36.65 33.3 48.58 45.23 48.28 45.53 36.05 33.3 36.65 33.3"/><polygon points="37.24 33.3 48.87 44.94 48.58 45.23 36.65 33.3 37.24 33.3"/><polygon points="37.83 33.3 49.17 44.64 48.87 44.94 37.24 33.3 37.83 33.3"/><polygon points="38.42 33.3 49.46 44.35 49.17 44.64 37.83 33.3 38.42 33.3"/><polygon points="39.01 33.3 49.76 44.05 49.46 44.35 38.42 33.3 39.01 33.3"/><polygon points="39.6 33.3 50.05 43.76 49.76 44.05 39.01 33.3 39.6 33.3"/><polygon points="40.19 33.3 50.35 43.46 50.05 43.76 39.6 33.3 40.19 33.3"/><polygon points="40.78 33.3 50.65 43.17 50.35 43.46 40.19 33.3 40.78 33.3"/><polygon points="41.37 33.3 50.94 42.87 50.65 43.17 40.78 33.3 41.37 33.3"/><polygon points="41.96 33.3 51.23 42.58 50.94 42.87 41.37 33.3 41.96 33.3"/><polygon points="42.55 33.3 51.53 42.28 51.24 42.58 41.96 33.3 42.55 33.3"/><polygon points="43.14 33.3 51.83 41.99 51.53 42.28 42.55 33.3 43.14 33.3"/><polygon points="43.73 33.3 52.12 41.69 51.83 41.99 43.14 33.3 43.73 33.3"/><polygon points="44.33 33.3 52.42 41.4 52.12 41.69 43.73 33.3 44.33 33.3"/><polygon points="44.91 33.3 52.71 41.1 52.42 41.4 44.32 33.3 44.91 33.3"/><polygon points="45.51 33.3 53.01 40.8 52.71 41.1 44.91 33.3 45.51 33.3"/><polygon points="46.1 33.3 53.3 40.51 53.01 40.8 45.51 33.3 46.1 33.3"/><polygon points="46.69 33.3 53.6 40.21 53.3 40.51 46.1 33.3 46.69 33.3"/><polygon points="47.28 33.3 53.89 39.92 53.6 40.21 46.69 33.3 47.28 33.3"/><polygon points="47.87 33.3 54.19 39.63 53.89 39.92 47.28 33.3 47.87 33.3"/><polygon points="48.46 33.3 54.48 39.33 54.19 39.63 47.87 33.3 48.46 33.3"/><polygon points="49.05 33.3 54.78 39.03 54.48 39.33 48.46 33.3 49.05 33.3"/><polygon points="49.64 33.3 55.06 38.72 55.06 38.76 54.78 39.03 49.05 33.3 49.64 33.3"/><polygon points="50.23 33.3 55.06 38.13 55.06 38.72 49.64 33.3 50.23 33.3"/><polygon points="50.82 33.3 55.06 37.54 55.06 38.13 50.23 33.3 50.82 33.3"/><polygon points="51.41 33.3 55.06 36.95 55.06 37.54 50.82 33.3 51.41 33.3"/><polygon points="52 33.3 55.06 36.36 55.06 36.95 51.41 33.3 52 33.3"/><polygon points="52.59 33.3 55.06 35.77 55.06 36.36 52 33.3 52.59 33.3"/><polygon points="53.18 33.3 55.06 35.18 55.06 35.77 52.59 33.3 53.18 33.3"/><polygon points="53.77 33.3 55.06 34.59 55.06 35.18 53.18 33.3 53.77 33.3"/><polygon points="54.37 33.3 55.06 33.99 55.06 34.59 53.77 33.3 54.37 33.3"/><polygon points="54.96 33.3 55.06 33.41 55.06 33.99 54.37 33.3 54.96 33.3"/><polygon points="55.06 33.41 54.96 33.3 55.06 33.3 55.06 33.41"/></g></svg>