<?xml version="1.0" encoding="utf-8"?><svg xmlns="http://www.w3.org/2000/svg" xmlns:xlink="http://www.w3.org/1999/xlink" viewBox="0 0 400 400"><defs><style>.cls-1{fill:#ffc629;}.cls-2{fill:#c2d500;}.cls-3{isolation:isolate;}.cls-4{clip-path:url(#clip-path);}.cls-5{clip-path:url(#clip-path-2);}.cls-6{fill:#f7b000;}.cls-7{fill:#0093d2;}.cls-8{fill:#fff;}.cls-9{opacity:0.33;mix-blend-mode:multiply;}</style><clipPath id="clip-path"><circle class="cls-1" cx="200" cy="-222.11" r="200"/></clipPath><clipPath id="clip-path-2"><circle class="cls-2" cx="200" cy="200" r="200"/></clipPath></defs><title>4Artboard 1 copy 22</title><g class="cls-3"><g id="Layer_1" data-name="Layer 1"><circle class="cls-1" cx="200" cy="-222.11" r="200"/><g class="cls-4"><circle class="cls-1" cx="234.97" cy="-233.88" r="276.69"/></g><circle class="cls-2" cx="200" cy="200" r="200"/><g class="cls-5"><circle class="cls-2" cx="234.97" cy="188.23" r="276.69"/></g><polygon class="cls-1" points="71.99 194.91 209.83 148.34 175.32 99.47 37.48 146.03 71.99 194.91"/><polygon class="cls-1" points="328.01 171.47 209.83 148.34 244.34 99.47 362.52 122.59 328.01 171.47"/><polygon class="cls-6" points="209.83 148.34 328.01 171.47 328.01 313.43 209.83 290.31 209.83 148.34"/><polygon class="cls-6" points="209.83 148.34 71.99 194.91 71.99 328.86 209.83 290.31 209.83 148.34"/><path class="cls-7" d="M191.89,58.2a111,111,0,1,1-111,111A111,111,0,0,1,191.89,58.2Z"/><path class="cls-8" d="M261.27,82.54a111,111,0,0,1,40,67.45,8.81,8.81,0,0,1-1-2.2,20.11,20.11,0,0,1-4.79,1.18l-.12.16c-1,1.45,0,.82-1.72,2.35-2.12,1.81-3.54,4.24-5.89,5.7-.28,2.55.19,3.1-.44,6.12-.23,1.1-1.49,4.09-2.94,3.89-.47-.08-2.43-4.91-2.87-6.28a50.43,50.43,0,0,1-2.23-6.56c-.32-1.41-.55-4.08-.87-5-1.53.23-1.45,1.21-2.9.15-1-.74-.55-1.18-1.14-2.31-1.22-1.14-2.44-2.28-3.69-3.42-1-.31-4.67.24-6.24,0-2.83-.27-3.07-.08-4.72-2.32-2.94.16-2.7,1.26-5.57-1.21-1.89-1.61-1.53-4.16-4.28-2.71-.12,2.31,1,2.86,2,3.92.75.83,1.69,1.42,2,2.52,0,0,.2,1.1.24,1.21,2.67.16,3.3-1.1,4.75-2.2,1.41,1.34,0,1.58,2.08,2.64,1.65.82,1.3.35,2.4,1.68.54,1.81-3.66,6.68-5.07,7.54-1.06.67-1.65.28-2.59,1.06-1.41,1.22.2,1-2.32,1.93s-5.3,3-8.08,3.18c-.59-1.65-1.22-3.34-1.81-5-1.77-5.73-1.69-3.49-3.53-6.48-.87-1.29-.51-2.12-1.06-3.26-.4-.86-1-1.21-1.54-2.27-.82-1.61-1.76-4.17-3.65-3.89-.39,1.29,1.73,5.61,2.28,6.67s1.37,1.49,1.65,3c.35,2.08-.08,1.8,1.06,3.22,2.4,2.86-.12,2.35,3.61,5.18,2.79,2.12,2,2.75,3.22,5.53,1.81.51,7.23-1.92,8.13-1.17,1.1,2-1.3,5.1-1.89,6.79-2,5.73-5.45,5.65-8.12,10-1.46,2.35-2.12,2.67-3.5,5.53-1.53,3.22,3.1,12.14.32,15.87-.59.86-2.55,1.37-5,4-2.59,2.83.08,2.32-.94,7-.79,1.1-1.73,1.14-2.71,1.92-.35,1.1-.08,2-.67,3.38-.63,1.65-.74.78-1.69,2.12a15.1,15.1,0,0,1-1.37,2.43,9.9,9.9,0,0,1-1.65,1.73c-3.1,2.87-9.74,2.94-10.32,2.51-1.57-1.33-.51-1.68-.91-3.57a16,16,0,0,0-2-4.32l-.08-.12a10.1,10.1,0,0,1-.86-1.8c-1.3-4.05-.83-7.11-3.06-11.23-2.83-5.3,1.57-8.05,1.37-11-.08-.79-.35-1.3-.43-1.93-.55-3.29-.86-6.24-3.06-8.83-2.44-2.83-2.08-1.81-1.3-6.48,1-5.34-1.29-4-4.47-4.08-1.58-4.83-4.64-2.47-7.7-1.06-1.92.86-2.63-.28-4.79,0-4.83.67-1,2.75-7.5-2.4-2.71-2.12-.9-1.06-2.47-3.73-.55-1-2.16-2.24-2.91-3.22-2.43-3.06.47-6.16,0-9.69-.74-6.56-1.8-.87,1.85-8.76,1.92-4.2,4.83-4.24,5.57-6.12.63-1.69.2-2.87,1.42-4.4,1.06-1.26,2.59-1,3.22-2.94.86-2.44-.79-2.75-2.56-2.79-.74-2.55-.74-1.93-.19-4.24.31-1.3,0-1.93.31-3.26.71-3.26,6.28,0,7.89-1.37a3.75,3.75,0,0,0,0-4.09c-.9-1.33-2-1.18-2.67-2.43,1.34-.9.36-.12,1.53-.35,1.38-.32,1.22-.71,2.83-1,1.45-.27,2.4-1.6,3.81-2.51,2-1.29,1.06-2.47,3.53-2.86,4-.67,1.38-.59,1.81-4.24.59-.24,1.18-.48,1.72-.75,1.26,1.61-.31,1,1.18,2,.4-.23.87-.47,1.3-.67-.2-1.76-1-1.41-1.57-3.61-2,.32-2.67,2-4.24,1.38s-1.61-2.75-1.53-4.6c.55-1.37,3.41-2.12,4.51-2.43,1.77-.59,1.53-1.81,3.18-3.42,2.12-2.12.55,0,1.61-2.75,2.36-.07,1.26-.15,2.63-.9l.08,0,.16,0c.82-.35,1.88-.47,2.94-.82,3.93-1.3,5.5-.67,8.36.51,2.2.9,8.88.94,9.35,3.73-1.61,1.69-3.14.47-5.46.59.43,2.16.59,2.16,2.55,2.75.32-1-.15-.63.39-1.3a14.5,14.5,0,0,0,1.93.35c.63-2.19,1.37-1.88,3.57-2.12-.35-1.49-.74-1.1.08-2.27,2.24.23.43,0,1.53,1.8,1.57-.19,3.1-1.92,5.26-2.16,1.34-.15,1.3.36,3.18.16,1.57-.16,1.49-.75,3.06-.08.55-1.06,0-1,1.38-1.29,2.12-.36,4,.94,6,1.21-1.53-1.88-3-1.49-1.1-4.63,2.4-.47,2.6-.16,3.62,1.65.59-.32.82-.67,1.13-.83ZM83.46,145.28A110.91,110.91,0,0,1,117,87.22a13.1,13.1,0,0,0,4.28.11c.47-.86.75-1.6,1.57-1.92a2.94,2.94,0,0,1,1.26-.12c.08.44.2.87.27,1.3,0,0,.08.31,0,.27s.08.16.12.24c2.24-1.3.35-1.34,1.57-3.69-1.88-.36-1.65-.16-2.82-1.34,1.13-1.25,3.33-1.68,5-1.57-.12,1.14-.63,1.1-.2,2.08,1.3-.78,2.16-2.94,4.24-2.51.4.28.87.55,1.3.79-1.06,1-2.67,1.06-4,1.61-.59,6.16,2,1,1.1,5.22a4.64,4.64,0,0,0,3.57-2.36c-.55-.74-1.37-.74-1.85-1.61a4.12,4.12,0,0,1,2.2-2.51,6.05,6.05,0,0,1,2.59-.55c11.31.08,5.93.59,9.43,2.2.78.35,2.16.51,2.63,1.18.7,1.09,0,2.12,1.17,2.94s1.14,0,2.44,1.61a2.39,2.39,0,0,1-2.36,1.92c-1.92,0-.78-1.29-2.82-1.1,0,1.93,2,2.67.19,3.73-1.57,1-.59-.35-1.72.32,0,0-.16.08-.2.12s-.16.15-.2.19c-.19.24-.39.43-.55.63-2.82-.78-2.31-.43-4-2.32-.63-.7-.75-.9-1.89-.78-.7,0-1.65.35-2.31-.28,1.37-1.72,2.08,0,4.08-1.09A25.91,25.91,0,0,0,144,87.61c-.58-1.37-.07-.24-.94-1.1-2-2-2.55-1.53-5.26-1.53-1.25,1.45-2.2,3.26-3.57,4a3.36,3.36,0,0,1-3.14,0c.59,2.44,2.16.59,2.31,3.53-1-.19-1.57-.7-2.63-.35-2.27.86-.23.79-.08,1.22,0,0,1.06.15,0,.55s-.19-.24-2.43-1.57l.94-1.77a54.67,54.67,0,0,0-6.32,2.51,29.37,29.37,0,0,0-6.16,3.89c0,2.12.35.71.59,3.26,3.29.2,2.24,1.18,5.53,2.12.63.16,1.46.35,2.48.51,0,1.61-1.42,2.79-.44,4.44,2.32,1.61,2.4-1.54,3-3.58,7.81-1.65,4-3.92,6.08-8.24a10.49,10.49,0,0,1,1.38-2.08c.59,0,3.06.27,3.57.39,1.77.31.82.75,2.75,1.61,0,1.53-.83,3.53,1.45,3.18,1.73-.31,1.34-1.69,3.5-2,.94,2.24.7,3.22,1.13,5.93,5.11,2,2.83,3.61,1.85,7.34.63.31,1.29.59,2,.86,0,1.1-.08,2.12-.12,3.18-.11,0-5.45-1.18-5.85-1.29.83-2.36,2.32-2.36,3.26-4.75-1.92.35-1.76.94-3.18,1.37a20.36,20.36,0,0,1-3.53.27c-.47,1.54,0-1.33.12.63.08.75.43,0-.08.83-1.77-.83-1.18-2.75-4.48-1,.75.35,1.49.66,2.28,1-.12,2.19-.27.55-.75,2-1.13,3.73,3.11,1.41,4.21,1.22-.28,2-1.5,2-3.22,2.51-1.89.59-2.44,1.33-3.93,1.69,0-2.36-.35-.36.67-2a14.15,14.15,0,0,0-4,1.42l-.15,0c-1.85.74-2.12.86-2.32,3.18a10.36,10.36,0,0,0-4.48,2.16l-3.25,3.14a.66.66,0,0,0-.24.23c.39,2.95,0,3-1.77,4.12-1.49,1-2,.95-3.37,2.16-4.44,4-2.32,2.12-2.08,9-1-.27-1.81-.58-2.67-.9-.67-4.55.23-3.06-3.42-4.08-3.92-1.14-3.41.78-5.06,1.14-1.81.39-2.71-1.65-5.34,0-1.46,1-2.83,1.65-3.18,3.41-.43,2.12-1.38,3.69-1.26,6.05.24,6.4,6.09,6.79,7.58,3.77,1-2,.74-3.07,4-2.56a8.33,8.33,0,0,1-.58,4.28c-.28.79-1.06,2.16-.67,3.22,2.31,1,2.39-.82,5.45,1,.2,3.07-1.37,6.48,1,8.25,1.8,1.33,1.92.16,3.53-.16,1.77-.31,1.45.79,3.1,1.06.94-1.14.55-.43,1.14-1.8,1.06-2.44,1.34-1.3,3.89-2.75.23-.16.47-.28.7-.47.28.59.59,1.17.91,1.72,1.84-2.19,2.08,0,4.2.55a8.57,8.57,0,0,0,2.08.36c1.57,0,1.73-.75,3.81,0a6.67,6.67,0,0,0,.86.27s.16,0,.16.12l.19.16a6.52,6.52,0,0,1,.67,1.21c1.45,1.42,2.91,2.79,4.32,4.16,2.79,1.1,2.79-1,6,2.12,1.33,1.3.74,1.26,1.49,2.91.12.27.31.51.47.82a21.14,21.14,0,0,0,.94,2.24c1.45,1.93,3.46.71,5.46,2.67,1.18,1.14.27.79,2.87,1.26,4,.67,2.47.27,5.49,2.59,1.18.86,1.45.35,2.55,1.1a5.24,5.24,0,0,1-.15,6.32c-4,5.73-2.59,4.83-2.79,9.38-.16,2.63-.9,8-3.34,8.68-8.91,2.51-3.73,4.24-6.08,8.64-.67,1.25-1.18,1.57-1.61,2.55-1.77,4.16-.55,5.53-5.81,4.59.51.86.19.27.66,1.06,1.57,2.43,1.81,4.24-1.37,4.83-2.67.51-1.53,0-1.77,2.94-1,.44-1.49,0-2.16.67,1,1.73.08.28,1.65,1.26-.27.94-.51,1.84-.74,2.75-.59,2.23-.79.15-1,2.74.94.44,1.57.36,2.39,1.46-.12.86-.94,3.18-1.22,4.51,1.3,2,2.4,4.08,5.19,4.28,0,1.65.35,1.49-1.06,1.81-1.22.27-3.77-.87-4.83-1.42a12.43,12.43,0,0,1-4.79-4.2,15.46,15.46,0,0,0-1.18-1.53c-1.34-1.73-.83-2.55-1.22-3.69-.19-.67-1.29-1.41-.86-3.65.12-.63,1.1-3.61-.12-3.1s.9.27-.74,1.1a26.83,26.83,0,0,1-.95-4c-.43-2.24-.94-2.31-1.21-3.69-.55-3.18.82-3.49-.67-8.75-1-3.5-.59-11.74-1.61-16a5.53,5.53,0,0,0-.63-1.69c-.94-1.61-3.3-2.32-5.18-3.61-.12,0-.2,0-.2-.12-2.59-1.81-5.06-9-7.1-11.62-1-1.3-1.57-.71-2-2.75-.47-1.84.24-1.53.87-3.06-3.18-5.81,4.08-5.73,2.59-12.68a7.89,7.89,0,0,0-2-3.65c-1.5.66-.79,1-1.57,2.27-1.22-.66-2.44-1.37-3.58-2-3.65-3.53-1.69-1-2.75-3.26-2.19-4.83-4.31-2.12-6.94-4.51-1.18-1-1.38-2.55-3.34-2.28-3,.39-1.3.87-4.36-.59a29.56,29.56,0,0,1-7.11-4.28c-.07-2.55.87-2.67-.74-5.06A11.14,11.14,0,0,0,83.5,145Zm34.82-59.16c.67-.59,1.34-1.18,2-1.77l0,.12a1.6,1.6,0,0,1,.39.82C119,85.73,119,86,118.28,86.12Zm95,33a25,25,0,0,1,2.9,1.72c.95,2.52-.23,1.3,1.58,4,1,1.41.82,2.43,1.88,3.26,2-.28.24.31,1.45-.87a12.63,12.63,0,0,0,1-1.21c-.62-1-1-1.06-1.61-2.05,2.2-2.94,3.18-1.25,3.69.67,1.38,5.38,3.54,3.81,5.3,3.57s.24,0,1.89.48.82,0,1.92-.28c3.73-.9.87,6.32.47,7.11-2,.27-1.64-.2-3.1-.36-2.94-.31.2,1.77-6.79-.51-6.67-2.12-5.26-2.63-6.63,2.05-1.54-.12-1.46-.4-2.87-.87-.55-.19-.86-.31-1.06-.39l-.08,0c-.55-.2,0,0-1.18-1.14-1-1-3.57-1.18-5.34-2.12,0-1.53,1.34-2.82-.27-4.63a72.48,72.48,0,0,0-9.31.43c-2.43.51-2.86,2.59-6.24,2.12-1.84-.27-1.22-.08-1.69-1.18.59-.59,0-.27,1-.66a3.94,3.94,0,0,1,1-.16c5.45-.83,2.67-3.57,6.08-6.24,2.83-2.28.59,0,2.16-2.75,1.92-.16,1.69.78,3.3,0,1.33-.67.94-1.3,2.82-1.34,1.69,1.73,1.34,2.75,4.13,4a5.3,5.3,0,0,1,2.47,1.73c1.3,1.8.2,1.21.67,2.47a3.89,3.89,0,0,1,.39-.16l.08,0c1.49-.7-.75-.94,1.69-3.06-.71-.51-1.22-.86-1.69-1.14l-.08,0c-1.88-1.1-1.14-.08-3.57-3.1a2.51,2.51,0,0,1-.79-2.24c1.73-.31,2,.95,3.61,2.32.2.2.48.35.71.55l.08,0Zm38,76.63c-1.57.79-1.76,2.63-2.94,3.65-1.3,1.18-3,.63-3.49,2.79-.63,2.71,1.06,1.88-.83,5.42-.67,1.29-.71,4.59.32,5.53,3.1,3,4.75-4.55,5.45-6.91.55-1.69,1-3.57,1.61-5.14s1.38-3.14-.16-5.34Zm-5.1-79.42c.24,3.49,2.32,4.83,3.77,6.4-.2,1.65-.59,1.21-.55,3.53,1.73,1.26,3,2,5.3,1.41.31-2.78-.59-2.63-1.41-4.55a3.27,3.27,0,0,1,.58-.55c.63-.86.32.35.63-1.1-1.69-.55-4.36-2.24-4.59-4.51.82-.67.55-.28,1.18-.67,1.29-.87.31.47,1.1-1-.67-1.3-1.42-1.53-3.07-.91a20.78,20.78,0,0,0-3,1.93Zm-14.53.9c-1.1-1.53-1-2.32-3.18-2.35a10.51,10.51,0,0,0-2.31,3.69c-.71,2.12-.2.66-.16,2.94,0,.08,0,.2,0,.27,0,1.38-.35-.27-.16,1,1.69-.36.4-.32,1.65-.71s4.75-1.49,5.81-1.22c2.44.59,4.52,2.52,7.31.59-.16-2.47-3.14-3.41-5.19-4.51.12-2.28.71-.47.55-2.67a3.16,3.16,0,0,0-1.8.15c-1.61.71-.71.91-.71,1.18.08,1.22,1.61-.23,0,1.26a3.55,3.55,0,0,1-1.77.47v-.08ZM190.09,100c-.08,4,1.33,2.63,2.63,4.59-.59,1.69-.71.35-1.38,2.12-.59,1.45.16.16-.23,2.67,1,0,2.55-.32,3.92-.43,1.93-.16,1.89-.36,2.56-2.32-1.06-1.3-2.12-2.63-3.22-3.93-1.38-2.12,0-.66-.44-2.43-.31-.63-.59-1.26-.9-1.88-1.84.62-1.65.47-2.9,1.57Z"/><polygon class="cls-1" points="71.99 194.91 190.17 218.03 190.17 360 71.99 328.86 71.99 194.91"/><g class="cls-9"><polygon class="cls-1" points="71.99 262.04 71.99 208.18 182.75 228.47 160.52 278.77 71.99 262.04"/></g><polygon class="cls-1" points="71.99 194.91 190.17 218.03 155.66 266.87 37.48 243.78 71.99 194.91"/><polygon class="cls-1" points="328.01 171.47 190.17 218.03 190.17 360 328.01 313.43 328.01 171.47"/><g class="cls-9"><polygon class="cls-1" points="328.01 171.47 190.17 218.03 190.17 360 328.01 313.43 328.01 171.47"/></g><g class="cls-9"><polygon class="cls-1" points="328.01 242.88 328.01 182.34 196.37 226.82 224.68 277.78 328.01 242.88"/></g><polygon class="cls-1" points="328.01 171.47 190.17 218.03 224.68 266.87 362.52 220.31 328.01 171.47"/></g></g></svg>