<?xml version="1.0" encoding="utf-8"?><svg id="Layer_1" data-name="Layer 1" xmlns="http://www.w3.org/2000/svg" viewBox="0 0 172.34 172.34"><title>dArtboard 23</title><path d="M170.93,49.23,87.63.39a2.88,2.88,0,0,0-2.84,0l-83.3,46A2.85,2.85,0,0,0,0,48.83V169.47a2.87,2.87,0,0,0,2.87,2.87H17.23a2.87,2.87,0,0,0,2.88-2.87V68.94H152.24V169.47a2.86,2.86,0,0,0,2.87,2.87h14.36a2.86,2.86,0,0,0,2.87-2.87V51.7A2.82,2.82,0,0,0,170.93,49.23ZM166.6,166.6H158V66.06a2.87,2.87,0,0,0-2.87-2.87H17.23a2.88,2.88,0,0,0-2.87,2.87V166.6H5.74V50.52L86.13,6.17,166.6,53.35V166.6Z"/><path d="M143.62,132.13H109.15a2.86,2.86,0,0,0-2.87,2.87v34.47a2.86,2.86,0,0,0,2.87,2.87h34.47a2.86,2.86,0,0,0,2.87-2.87V135A2.86,2.86,0,0,0,143.62,132.13Zm-2.87,34.47H112V137.87h28.73Z"/><path d="M129.26,135v8.62h-5.75V135h-5.74v11.49a2.86,2.86,0,0,0,2.87,2.87h11.49a2.86,2.86,0,0,0,2.87-2.87V135Z"/><path d="M109.15,132.13H74.68A2.87,2.87,0,0,0,71.81,135v34.47a2.87,2.87,0,0,0,2.87,2.87h34.47a2.86,2.86,0,0,0,2.87-2.87V135A2.86,2.86,0,0,0,109.15,132.13Zm-2.87,34.47H77.56V137.87h28.72Z"/><path d="M94.79,135v8.62H89V135H83.3v11.49a2.87,2.87,0,0,0,2.87,2.87H97.66a2.86,2.86,0,0,0,2.87-2.87V135Z"/><path d="M143.62,97.66H109.15a2.86,2.86,0,0,0-2.87,2.87V135a2.86,2.86,0,0,0,2.87,2.87h34.47a2.86,2.86,0,0,0,2.87-2.87V100.53A2.86,2.86,0,0,0,143.62,97.66Zm-2.87,34.47H112V103.41h28.73Z"/><path d="M129.26,100.53v8.62h-5.75v-8.62h-5.74V112a2.86,2.86,0,0,0,2.87,2.87h11.49A2.86,2.86,0,0,0,135,112V100.53Z"/><rect x="17.23" y="86.17" width="137.88" height="5.74"/><rect x="17.23" y="74.68" width="137.88" height="5.74"/><path d="M100.53,40.21H71.81a2.88,2.88,0,0,0-2.87,2.87V54.57a2.88,2.88,0,0,0,2.87,2.88h28.72a2.88,2.88,0,0,0,2.88-2.88V43.08A2.88,2.88,0,0,0,100.53,40.21ZM97.66,51.7h-23V46h23Z"/></svg>