<?xml version="1.0" encoding="utf-8"?><svg id="Layer_1" data-name="Layer 1" xmlns="http://www.w3.org/2000/svg" xmlns:xlink="http://www.w3.org/1999/xlink" viewBox="0 0 72.01 72"><defs><style>.cls-1{fill:none;}.cls-2{clip-path:url(#clip-path);}.cls-3{fill:#fff;}</style><clipPath id="clip-path"><rect class="cls-1" x="-803.69" y="-370" width="1914.82" height="2478"/></clipPath></defs><title>dArtboard 17</title><path class="cls-3" d="M70.12,55.55,55.54,45.83a4.24,4.24,0,0,0-5.69.92L45.6,52.21a1.82,1.82,0,0,1-2.33.49l-.8-.45c-2.68-1.45-6-3.27-12.72-10s-8.53-10-10-12.71l-.45-.81a1.83,1.83,0,0,1,.48-2.34l5.46-4.24a4.26,4.26,0,0,0,.92-5.7L16.46,1.89A4.24,4.24,0,0,0,10.75.61L4.66,4.27A8.57,8.57,0,0,0,.74,9.35c-2.2,8-.55,21.8,19.78,42.13C36.69,67.65,48.73,72,57,72a21.1,21.1,0,0,0,5.64-.74,8.54,8.54,0,0,0,5.08-3.92l3.67-6.09A4.22,4.22,0,0,0,70.12,55.55ZM69.33,60l-3.66,6.1A6.17,6.17,0,0,1,62,69c-7.39,2-20.28.35-39.8-19.17S1,17.37,3.05,10A6.25,6.25,0,0,1,5.89,6.32L12,2.67a1.83,1.83,0,0,1,2.47.55l5.28,7.93,4.43,6.65a1.84,1.84,0,0,1-.4,2.47l-5.45,4.24A4.21,4.21,0,0,0,17.2,29.9l.44.79C19.17,33.5,21.08,37,28,44s10.46,8.87,13.27,10.4l.79.44a4.21,4.21,0,0,0,5.39-1.12l4.24-5.45a1.84,1.84,0,0,1,2.47-.4l14.57,9.72A1.82,1.82,0,0,1,69.33,60Z"/><path class="cls-3" d="M40.8,12A20.43,20.43,0,0,1,61.2,32.4a1.2,1.2,0,0,0,2.4,0A22.83,22.83,0,0,0,40.8,9.6a1.2,1.2,0,1,0,0,2.4Z"/><path class="cls-3" d="M40.8,19.2A13.22,13.22,0,0,1,54,32.4a1.2,1.2,0,0,0,2.4,0A15.62,15.62,0,0,0,40.8,16.8a1.2,1.2,0,1,0,0,2.4Z"/><path class="cls-3" d="M40.8,26.4a6,6,0,0,1,6,6,1.2,1.2,0,1,0,2.4,0A8.42,8.42,0,0,0,40.8,24a1.2,1.2,0,1,0,0,2.4Z"/></svg>