<?xml version="1.0" encoding="utf-8"?><svg id="Layer_1" data-name="Layer 1" xmlns="http://www.w3.org/2000/svg" viewBox="0 0 166.39 166.39"><title>dArtboard 22</title><path d="M69.73,102.58H55.58a3.12,3.12,0,0,0-3.12,3.11v35.09a3.12,3.12,0,0,0,6.23,0v-9.6h6.76a13,13,0,0,0,13-13v-6.92A8.71,8.71,0,0,0,69.73,102.58Zm2.48,15.62A6.76,6.76,0,0,1,65.45,125H58.69V108.81h11a2.51,2.51,0,0,1,2.48,2.47Z"/><path d="M100.25,120.12H93.49V108.81h16.63a3.12,3.12,0,1,0,0-6.23H90.38a3.12,3.12,0,0,0-3.12,3.11v35.09a3.12,3.12,0,0,0,3.12,3.11h19.74a3.12,3.12,0,1,0,0-6.23H93.49V126.35h6.76a3.12,3.12,0,1,0,0-6.23Z"/><path d="M35.37,102.58H25.93a8.27,8.27,0,0,0-8.26,8.27v24.77a8.27,8.27,0,0,0,8.26,8.27h9.44a8.28,8.28,0,0,0,8.27-8.27V110.85A8.28,8.28,0,0,0,35.37,102.58Zm2,33a2,2,0,0,1-2,2H25.93a2,2,0,0,1-2-2V110.85a2,2,0,0,1,2-2h9.44a2,2,0,0,1,2,2Z"/><path d="M163.28,80.08H131.05L82.2,1.47a3.12,3.12,0,0,0-5.29,0L27.49,80.08H3.11A3.12,3.12,0,0,0,0,83.2v80.08a3.12,3.12,0,0,0,3.11,3.11H163.28a3.12,3.12,0,0,0,3.11-3.11V83.2A3.12,3.12,0,0,0,163.28,80.08ZM79.54,9l44.17,71.09H34.85Zm80.62,151.17H6.23V86.31H160.16Z"/><path d="M144.92,102.58a3.12,3.12,0,0,0-3.12,3.11v23.2l-13.91-24.73a3.12,3.12,0,0,0-5.83,1.53v35.09a3.12,3.12,0,0,0,6.23,0v-23.2l13.91,24.73a3.15,3.15,0,0,0,3.51,1.48,3.11,3.11,0,0,0,2.32-3V105.69A3.11,3.11,0,0,0,144.92,102.58Z"/></svg>