<?xml version="1.0" encoding="utf-8"?><svg id="Layer_1" data-name="Layer 1" xmlns="http://www.w3.org/2000/svg" viewBox="0 0 94 94"><defs><style>.cls-1{fill:none;stroke:#e6e6e6;stroke-miterlimit:10;stroke-width:2px;}</style></defs><title>dArtboard 25</title><circle class="cls-1" cx="47" cy="47" r="46"/><path d="M63.26,62.65a.78.78,0,0,0-.78-.78H60.16V56.45a.78.78,0,0,0-.77-.77H57.06V51.81a.76.76,0,0,0-.77-.77h-.77V43.29a.78.78,0,0,0-.78-.77H54V37.1a.77.77,0,0,0-.78-.77h-.77V34a.78.78,0,0,0-.77-.77H49.32V29.36a2.32,2.32,0,0,0-1.55-2.18V21.62H46.23v5.56a2.32,2.32,0,0,0-1.55,2.18v3.87H42.35a.78.78,0,0,0-.77.77v2.33h-.77a.77.77,0,0,0-.78.77v5.42h-.77a.78.78,0,0,0-.78.77V51h-.77a.76.76,0,0,0-.77.77v3.87H34.61a.78.78,0,0,0-.77.77v5.42H31.52a.78.78,0,0,0-.78.78v5.42H23v1.55H71V68.07H63.26ZM61.71,65H50.87V63.42H61.71ZM41.58,57.23H52.42v4.64H41.58Zm13.94-4.65v9.29H54V52.58ZM44.68,63.42h4.64v4.65H44.68Zm13.93-6.19v4.64H57.06V57.23ZM53.19,51a.77.77,0,0,0-.77.77v3.87H50.87V44.07H54v7Zm-2.32-8.52V37.87h1.55v4.65ZM46.23,29.36a.77.77,0,1,1,1.54,0v3.87H46.23Zm-3.1,5.42h7.74v1.55H50.1a.77.77,0,0,0-.78.77V55.68H44.68V37.1a.77.77,0,0,0-.78-.77h-.77Zm-1.55,3.09h1.55v4.65H41.58ZM40,44.07h3.1V55.68H41.58V51.81a.77.77,0,0,0-.77-.77H40Zm-1.55,8.51H40v9.29H38.48V52.58Zm-3.09,4.65h1.55v4.64H35.39Zm-.78,6.19h8.52V65H32.29V63.42Zm-2.32,3.1H43.13v1.55H32.29Zm18.58,1.55V66.52H61.71v1.55Z"/><path d="M46.23,36.33h1.54v1.54H46.23Z"/><path d="M46.23,39.42h1.54V41H46.23Z"/><path d="M46.23,42.52h1.54v1.55H46.23Z"/><path d="M46.23,45.62h1.54v1.54H46.23Z"/><path d="M46.23,48.71h1.54v1.55H46.23Z"/><path d="M46.23,51.81h1.54v1.55H46.23Z"/><path d="M26.1,30.91a3.06,3.06,0,0,0,1.72-.53,4.7,4.7,0,0,0,4.29,0,3.1,3.1,0,1,0,2.25-5.62,4.65,4.65,0,0,0-8.79,0,3.1,3.1,0,0,0,.53,6.15ZM26,26.26h.11a.77.77,0,0,0,.79-.62,3.09,3.09,0,0,1,6.07,0,.78.78,0,0,0,.76.62h.11a1.55,1.55,0,1,1-1.14,2.63.78.78,0,0,0-.55-.23.72.72,0,0,0-.44.14,3.13,3.13,0,0,1-3.54,0,.78.78,0,0,0-1,.09A1.55,1.55,0,1,1,26,26.26Z"/><path d="M60.16,30.91a3.1,3.1,0,0,0,1.73-.53,4.68,4.68,0,0,0,4.28,0,3.1,3.1,0,1,0,2.26-5.62,4.65,4.65,0,0,0-8.79,0,3.1,3.1,0,0,0,.52,6.15Zm-.07-4.65h.11a.78.78,0,0,0,.8-.62,3.09,3.09,0,0,1,6.07,0,.77.77,0,0,0,.76.62h.11a1.55,1.55,0,0,1,0,3.1,1.54,1.54,0,0,1-1.1-.47.79.79,0,0,0-.56-.23.74.74,0,0,0-.44.14,3.13,3.13,0,0,1-3.54,0,.76.76,0,0,0-1,.09,1.55,1.55,0,1,1-1.18-2.63Z"/></svg>