<?xml version="1.0" encoding="utf-8"?><svg id="Layer_1" data-name="Layer 1" xmlns="http://www.w3.org/2000/svg" viewBox="0 0 192.97 172"><title>dArtboard 24</title><path d="M163.63,57.68c-3.63-1.4-7.51-2.66-11.58-3.8,1-4.1,1.89-8.09,2.5-11.94,3.15-20-.33-34.06-9.83-39.54A18.59,18.59,0,0,0,135.3,0c-11,0-25,8.2-39.05,22-3.08-3-6.16-5.79-9.24-8.28C71.25,1,57.35-3,47.86,2.5,41.76,6,38.05,13.21,37.13,23.29a3.08,3.08,0,1,0,6.13.56c.51-5.58,2.25-12.89,7.68-16,7-4.06,18.76-.15,32.2,10.72,2.93,2.37,5.87,5,8.81,7.89a199.64,199.64,0,0,0-17.41,21.5,197.35,197.35,0,0,0-28,4.49,112.24,112.24,0,0,1-3.08-16.76,3.08,3.08,0,0,0-6.13.6A119.24,119.24,0,0,0,40.54,54c-3.93,1.11-7.68,2.35-11.21,3.7C10.42,65,0,75,0,86s10.42,21,29.33,28.27c3.63,1.4,7.51,2.67,11.59,3.81-1.05,4.1-1.89,8.09-2.5,11.93-3.16,20,.33,34.06,9.82,39.54a18.53,18.53,0,0,0,9.43,2.41c10.91,0,24.66-8,38.56-21.57,3,2.91,6,5.59,9,8,11.16,9,21.38,13.65,29.77,13.65a18.53,18.53,0,0,0,9.39-2.39c9.49-5.48,13-19.52,9.82-39.54-.61-3.85-1.45-7.84-2.5-11.94A118,118,0,0,0,169,112a3.08,3.08,0,0,0-2.55-5.61A112,112,0,0,1,150,112.21a198.42,198.42,0,0,0-9.84-25.79,198.82,198.82,0,0,0,10.24-26.66c22.85,6.4,36.4,16.51,36.4,26.2,0,6.26-5.46,11.42-10,14.65a3.08,3.08,0,0,0,3.55,5C188.59,99.81,193,93,193,86c0-11-10.42-21-29.34-28.28ZM135.3,6.16a12.55,12.55,0,0,1,6.34,1.57c7,4.06,9.52,16.18,6.82,33.25-.57,3.66-1.37,7.46-2.37,11.36A200.61,200.61,0,0,0,118,47.89a198.12,198.12,0,0,0-17.4-21.45c1.09-1.07,2.18-2.12,3.27-3.12C115.83,12.25,127,6.16,135.3,6.16Zm-39,24.7a188.35,188.35,0,0,1,13.68,16.46C105.52,47.08,101,47,96.48,47c-4.69,0-9.33.14-13.9.39A189.91,189.91,0,0,1,96.26,30.86Zm0,110.71a184.5,184.5,0,0,1-14.16-17c4.72.28,9.54.42,14.4.42,4.69,0,9.34-.14,13.91-.4a190.13,190.13,0,0,1-14.15,17Zm.24-22.77c-6.61,0-13-.25-19-.73-3.4-5-6.69-10.17-9.82-15.59S61.74,91.76,59.17,86.4C61.84,80.79,64.8,75.15,68,69.53,71.17,64.1,74.5,58.83,78,53.81c5.91-.45,12.09-.7,18.52-.7q9.4,0,18.07.66c3.46,5,6.81,10.34,10,15.86s6.17,11.2,8.83,16.78c-2.55,5.31-5.38,10.66-8.44,16s-6.46,10.68-9.91,15.7c-6,.47-12.25.72-18.54.72Zm-26.94-1.5a183.23,183.23,0,0,1-21-3.61,187.13,187.13,0,0,1,7.36-20c2,4,4.16,8,6.44,11.9S67.06,113.51,69.54,117.3ZM70,54.56q-3.77,5.73-7.33,11.9c-2.43,4.21-4.72,8.46-6.84,12.69a189.61,189.61,0,0,1-7.72-20.83A182.31,182.31,0,0,1,70,54.56ZM6.16,86c0-9.64,13.4-19.69,36-26.09A201.2,201.2,0,0,0,52.37,86.41a199.1,199.1,0,0,0-9.82,25.74C19.7,105.75,6.16,95.65,6.16,86Zm51.51,79.8a12.49,12.49,0,0,1-6.35-1.58c-7-4.06-9.51-16.17-6.82-33.25.58-3.65,1.38-7.45,2.38-11.36a196.84,196.84,0,0,0,27.17,4.36,198.06,198.06,0,0,0,17.87,22c-.93.9-1.85,1.78-2.78,2.64-12,11.06-23.18,17.16-31.47,17.16ZM148.08,131c2.69,17.07.2,29.19-6.82,33.25s-18.76.15-32.2-10.72q-4.25-3.44-8.51-7.6a198.22,198.22,0,0,0,17.89-22,201.67,201.67,0,0,0,27.26-4.32C146.7,123.56,147.5,127.37,148.08,131Zm-4-17.31A186.4,186.4,0,0,1,123,117.31q3.75-5.72,7.3-11.85c2.27-3.92,4.4-7.87,6.4-11.81A186.44,186.44,0,0,1,144,113.72Zm-7.35-34.54q-3.18-6.33-6.81-12.63t-7.43-12a183.64,183.64,0,0,1,22,3.73A188.82,188.82,0,0,1,136.69,79.18Z"/><path d="M96.48,70.56A15.4,15.4,0,1,0,111.88,86,15.41,15.41,0,0,0,96.48,70.56Zm0,24.64A9.24,9.24,0,1,1,105.72,86,9.25,9.25,0,0,1,96.48,95.2Z"/></svg>