<?xml version="1.0" encoding="utf-8"?><svg id="Layer_1" data-name="Layer 1" xmlns="http://www.w3.org/2000/svg" viewBox="0 0 94 94"><defs><style>.cls-1{fill:none;stroke:#e6e6e6;stroke-miterlimit:10;stroke-width:2px;}</style></defs><title>dArtboard 26</title><circle class="cls-1" cx="47" cy="47" r="46"/><path d="M64.52,42.91H62.19a.58.58,0,0,0-.59.59v1.75H60.43V43.5a.58.58,0,0,0-.58-.59H57.51a.58.58,0,0,0-.58.59v1.75H55.76V43.5a.58.58,0,0,0-.58-.59H52.84a6.18,6.18,0,0,1-5-2.62l-.06-.1a7.34,7.34,0,0,0-6-3.12V29.48a.59.59,0,0,0-.58-.59H38.82a.59.59,0,0,0-.58.59v1.75H37.07V29.48a.59.59,0,0,0-.58-.59H34.15a.59.59,0,0,0-.58.59v1.75H32.4V29.48a.59.59,0,0,0-.59-.59H29.48a.59.59,0,0,0-.59.59V40a.59.59,0,0,0,.59.59H41.16A4,4,0,0,1,45,43.52l1,3.76a5.22,5.22,0,0,0,5,3.81h1.17V57a9.36,9.36,0,0,1-4.35,1.07h-5V56.48L44,54.27a.59.59,0,0,0-.52-.85h-.59V49.34a.58.58,0,0,0-.58-.59h-.59V47a.57.57,0,0,0-.47-.57,6.18,6.18,0,0,1-4.06-2.87l-.14-.23V41.74H35.9v1.59l-.13.23a6.2,6.2,0,0,1-4.07,2.87.58.58,0,0,0-.47.57v1.75h-.58a.58.58,0,0,0-.59.59v4.08h-.58a.61.61,0,0,0-.5.28.56.56,0,0,0,0,.57l1.1,2.21v7.46H28.89v1.17H65.11V63.94H56.39a21.26,21.26,0,0,0,4.79-2.34h3.34a.58.58,0,0,0,.59-.58V43.5a.58.58,0,0,0-.59-.59Zm-27.45-3.5h-3.5V37.65a1.75,1.75,0,0,1,3.5,0Zm3.51,0H38.24V37.65a2.92,2.92,0,0,0-5.84,0v1.76H30.06V30.06h1.17v1.75a.58.58,0,0,0,.58.59h2.34a.58.58,0,0,0,.58-.59V30.06H35.9v1.75a.58.58,0,0,0,.59.59h2.33a.58.58,0,0,0,.59-.59V30.06h1.17ZM52.26,44v2.33a4.76,4.76,0,0,1-3.79-2.81l-.66-1.5A7.25,7.25,0,0,0,52.26,44Zm-1.17,5.88a4,4,0,0,1-3.88-3l-1.05-3.76a5.2,5.2,0,0,0-4.42-3.77v-1.2a4.77,4.77,0,0,1,4.38,2.86L47.4,44a5.9,5.9,0,0,0,4.86,3.52v2.38Zm-3.18,9.35a10.47,10.47,0,0,0,8.75-4.68H60.1a10.77,10.77,0,0,1-9.6,5.84H42.91V59.27Zm12.52-5.85h-3.5V51.67a1.75,1.75,0,0,1,3.5,0Zm-30,1.17H42.55L42,55.76H31Zm2-7.13a7.31,7.31,0,0,0,4.09-2.87,7.25,7.25,0,0,0,4.09,2.87v1.29H40a.58.58,0,0,0-.58.59v1.75H38.24V49.34a.58.58,0,0,0-.59-.59H35.32a.59.59,0,0,0-.59.59v1.75H33.57V49.34a.58.58,0,0,0-.59-.59H32.4Zm-1.17,2.46H32.4v1.75a.58.58,0,0,0,.58.59h2.34a.58.58,0,0,0,.58-.59V49.92h1.17v1.75a.58.58,0,0,0,.58.59H40a.59.59,0,0,0,.59-.59V49.92h1.16v3.5H31.23Zm7,14H34.73V62.19a1.76,1.76,0,1,1,3.51,0Zm1.17,0V62.19a2.92,2.92,0,0,0-5.84,0v1.75H31.23v-7H41.74v7Zm21-3.24a20.18,20.18,0,0,1-11,3.24H42.91V61.6H50.5a11.92,11.92,0,0,0,9.93-5.28Zm3.51-.27H61.6V51.67a2.92,2.92,0,0,0-5.84,0v2.16a9.36,9.36,0,0,1-2.33,2.48V44.08h1.16v1.75a.59.59,0,0,0,.59.59h2.33a.59.59,0,0,0,.59-.59V44.08h1.17v1.75a.59.59,0,0,0,.58.59h2.34a.59.59,0,0,0,.58-.59V44.08h1.17Z"/><path d="M56.93,35.9a2.29,2.29,0,0,0,1.3-.4,3.5,3.5,0,0,0,3.24,0,2.29,2.29,0,0,0,1.3.4,2.34,2.34,0,0,0,.4-4.64,3.51,3.51,0,0,0-6.64,0,2.34,2.34,0,0,0,.4,4.64Zm0-3.5H57a.61.61,0,0,0,.6-.47,2.34,2.34,0,0,1,4.58,0,.59.59,0,0,0,.57.46h.08a1.17,1.17,0,0,1,0,2.33,1.13,1.13,0,0,1-.83-.35.63.63,0,0,0-.42-.17.61.61,0,0,0-.34.1,2.35,2.35,0,0,1-2.66,0,.6.6,0,0,0-.76.07,1.14,1.14,0,0,1-.83.35,1.17,1.17,0,0,1,0-2.33Z"/><path d="M45.25,35.9a2.29,2.29,0,0,0,1.3-.4,3.48,3.48,0,0,0,3.23,0,2.34,2.34,0,1,0,1.7-4.24,3.5,3.5,0,0,0-6.63,0,2.34,2.34,0,0,0,.4,4.64Zm0-3.5h.08a.61.61,0,0,0,.6-.47,2.34,2.34,0,0,1,4.58,0,.57.57,0,0,0,.57.46h.08a1.17,1.17,0,0,1,0,2.33,1.13,1.13,0,0,1-.83-.35.63.63,0,0,0-.42-.17.59.59,0,0,0-.34.1,2.37,2.37,0,0,1-2.67,0,.59.59,0,0,0-.75.07,1.14,1.14,0,0,1-.83.35,1.17,1.17,0,0,1,0-2.33Z"/></svg>