<?xml version="1.0" encoding="utf-8"?><svg id="Layer_1" data-name="Layer 1" xmlns="http://www.w3.org/2000/svg" xmlns:xlink="http://www.w3.org/1999/xlink" viewBox="0 0 72.01 76.39"><defs><style>.cls-1{fill:none;}.cls-2{clip-path:url(#clip-path);}</style><clipPath id="clip-path"><rect class="cls-1" x="-265.99" y="-369.94" width="1914.82" height="2478"/></clipPath></defs><title>dArtboard 16</title><path d="M58.34,49.07A13.69,13.69,0,0,0,47.52,54.4l-21-11.72a13.71,13.71,0,0,0,.76-4.5,13.29,13.29,0,0,0-.78-4.52L47.49,22a13.63,13.63,0,1,0-2.83-8.29,13.29,13.29,0,0,0,.78,4.52L24.49,29.88a13.64,13.64,0,1,0,0,16.58l21,11.72a13.51,13.51,0,0,0-.79,4.55A13.66,13.66,0,1,0,58.34,49.07Zm0-44.77A9.38,9.38,0,1,1,49,13.67,9.38,9.38,0,0,1,58.34,4.3ZM13.67,47.55a9.38,9.38,0,1,1,9.38-9.37A9.38,9.38,0,0,1,13.67,47.55ZM58.34,72.09a9.38,9.38,0,1,1,9.37-9.38A9.39,9.39,0,0,1,58.34,72.09Z"/></svg>