<?xml version="1.0" encoding="utf-8"?><svg id="Layer_1" data-name="Layer 1" xmlns="http://www.w3.org/2000/svg" viewBox="0 0 94 94"><defs><style>.cls-1{fill:none;stroke:#e6e6e6;stroke-miterlimit:10;stroke-width:2px;}</style></defs><title>dArtboard 24</title><circle class="cls-1" cx="47" cy="47" r="46"/><path d="M70.51,68.52H53.93v-19a.79.79,0,0,0-1.58,0v19H50V61.41a.79.79,0,0,0-1.58,0v7.11H46.82V61.41a.79.79,0,0,0-1.58,0v7.11H42.87V59h7.9a.79.79,0,1,0,0-1.58H50V50.35a.79.79,0,1,0-1.58,0v7.11H46.82V50.35a.79.79,0,1,0-1.58,0v7.11H42.87V48H54.72a.79.79,0,0,0,.79-.79V31.39a.79.79,0,0,0-1.58,0v15H41.29V33.76H52.35a.79.79,0,1,0,0-1.58H52l-1.36-2.72A.79.79,0,0,0,50,29H48.4V23.49a.79.79,0,1,0-1.58,0V29H45.24a.79.79,0,0,0-.71.44l-1.36,2.72H41.29v-.79a.79.79,0,0,0-1.58,0v15.8a.79.79,0,0,0,.79.79h.79V68.52H24.7a.79.79,0,1,0,0,1.58H70.51a.79.79,0,1,0,0-1.58ZM45.72,30.6h3.77l.79,1.58H44.93Z"/><path d="M46.82,38.5v1.58a.77.77,0,0,0,.23.56l.79.79a.78.78,0,0,0,1.11,0,.78.78,0,0,0,0-1.11l-.55-.56V38.5a.79.79,0,0,0-1.58,0Z"/><path d="M42.87,40.08a4.74,4.74,0,1,0,4.74-4.74A4.74,4.74,0,0,0,42.87,40.08Zm7.9,0a3.16,3.16,0,1,1-3.16-3.16A3.16,3.16,0,0,1,50.77,40.08Z"/></svg>