<?xml version="1.0" encoding="utf-8"?><svg id="Layer_1" data-name="Layer 1" xmlns="http://www.w3.org/2000/svg" viewBox="0 0 94 94"><defs><style>.cls-1{fill:none;stroke:#e6e6e6;stroke-miterlimit:10;stroke-width:2px;}</style></defs><title>dArtboard 27</title><circle class="cls-1" cx="47" cy="47" r="46"/><path d="M55.19,66.24h-.73l-.6-6.52a.6.6,0,0,0-.6-.54h-.71l-.92-17.42v0h0a2.2,2.2,0,0,1,.29-1.46,1.1,1.1,0,0,1,.78-.42h.19l0,0h0l0,0,0,0h0l0,0v0l0,0,0,0,0,0,0,0v0l0,0v-.28h0v-.06h0V39l0,0v0l0,0v0l0,0,0,0,0,0,0,0,0,0,0,0,0,0h0l0,0h0l0,0H51.47L51.33,36h0a.61.61,0,0,0,0-1.21h-.69V30.83h0a.61.61,0,1,0,0-1.21h-.26a3.69,3.69,0,0,0-3-1.89V27a.61.61,0,0,0-1.21,0v.72a3.7,3.7,0,0,0-3,1.89H43a.61.61,0,0,0,0,1.21h0v3.93h-.68a.61.61,0,0,0,0,1.21h0l-.14,2.65h-1.4l0,0h0l0,0h0l0,0h0l0,0h0l0,0,0,0,0,0v0l0,0v.22h0v.06h0v.28l0,0v0l0,0v0l0,0,0,0,0,0,0,0h0l0,0,0,0h0l0,0H41c1.28.17,1.1,1.71,1.08,1.88h0v0l-.91,17.42h-.72a.6.6,0,0,0-.6.54l-.59,6.52h-.73a.61.61,0,0,0,0,1.21h16.7a.61.61,0,0,0,0-1.21ZM44,39.82a7.76,7.76,0,0,1,.1,1.37h-.79a3.29,3.29,0,0,0-.36-1.37Zm4.54,0a8.11,8.11,0,0,0-.09,1.37h-1V39.82Zm2.26,0a3.27,3.27,0,0,0-.35,1.37h-.8a8.64,8.64,0,0,1,.11-1.37Zm-7.54,2.57h7.24l.21,3.94H43Zm3-1.2h-1a9.32,9.32,0,0,0-.09-1.37h1.06ZM43,47.53h7.78l.41,7.79h-8.6ZM46.81,28.9a3.31,3.31,0,0,1,2.15.72h-4.3A3.35,3.35,0,0,1,46.81,28.9Zm-2.58,1.93h5.22v3.93h-2v-2a.6.6,0,1,0-1.2,0v2h-2ZM43.56,36h6.56l.14,2.65H43.42ZM42.47,56.53H51.2l.14,2.65h-9ZM41,60.38H52.71l.54,5.86H48.73V61.71a.61.61,0,0,0-.61-.61H45.55a.6.6,0,0,0-.6.61v4.53H40.43Zm6.56,5.86H46.16V62.31h1.36Z"/><path d="M46.84,43.76a.6.6,0,0,0-.6.6V45a.6.6,0,0,0,1.2,0v-.64A.6.6,0,0,0,46.84,43.76Z"/><path d="M46.84,52.75a.6.6,0,0,0-.6.6V54a.6.6,0,0,0,1.2,0v-.65A.6.6,0,0,0,46.84,52.75Z"/></svg>