<?xml version="1.0" encoding="utf-8"?><svg id="Layer_1" data-name="Layer 1" xmlns="http://www.w3.org/2000/svg" viewBox="0 0 160.22 160.22"><title>dArtboard 25</title><path d="M152.21,81.24V72.1a13.32,13.32,0,0,0-11.68-13.18L112,26.62a24.83,24.83,0,0,0,.15-2.59,24,24,0,0,0-48.07,0c0,.43,0,.84.06,1.26L33.29,56.15A24,24,0,0,0,18.69,98v40.89h-16A2.68,2.68,0,0,0,0,141.53v16a2.67,2.67,0,0,0,2.67,2.67H104.15a2.67,2.67,0,0,0,2.67-2.67v-16a2.68,2.68,0,0,0-2.67-2.67H50.74V98a23.6,23.6,0,0,0,7.68-21.63L86.76,48c.46,0,.9.07,1.36.07a23.83,23.83,0,0,0,4-.37L125.51,74v7.28a13.34,13.34,0,0,0-8,12.21v26.71a2.67,2.67,0,0,0,3.86,2.4L132,117.23a2.68,2.68,0,0,0,1.48-2.4V96.13H144.2v18.7a2.68,2.68,0,0,0,1.48,2.4l10.68,5.34a2.67,2.67,0,0,0,3.86-2.4V93.46A13.35,13.35,0,0,0,152.21,81.24ZM88.12,5.34A18.7,18.7,0,1,1,69.43,24,18.69,18.69,0,0,1,88.12,5.34Zm13.35,149.54H5.34V144.2h96.13Zm-56.07-16H24V101.61a23.79,23.79,0,0,0,21.37,0ZM34.72,98.8A18.69,18.69,0,1,1,53.41,80.11,18.69,18.69,0,0,1,34.72,98.8Zm22-28.3A24.09,24.09,0,0,0,40.25,56.76l25.1-25.1A24.13,24.13,0,0,0,80.43,46.79Zm53.72-37.59,23.63,26.77a13.3,13.3,0,0,0-7.78,8.1l-27.95-22A24.15,24.15,0,0,0,110.44,32.91ZM130.85,72.1a8,8,0,1,1,16,0v8h-16Zm24,43.75-5.34-2.67V93.46a2.67,2.67,0,0,0-2.67-2.67h-16a2.67,2.67,0,0,0-2.67,2.67v19.72l-5.34,2.67V93.46a8,8,0,0,1,8-8h16a8,8,0,0,1,8,8Z"/></svg>