<?xml version="1.0" encoding="utf-8"?><svg id="Layer_1" data-name="Layer 1" xmlns="http://www.w3.org/2000/svg" xmlns:xlink="http://www.w3.org/1999/xlink" viewBox="0 0 78.1 78.1"><defs><style>.cls-1{fill:none;}.cls-2{clip-path:url(#clip-path);}.cls-3{fill:#fff;}</style><clipPath id="clip-path"><rect class="cls-1" x="-1334.9" y="-371.76" width="1914.82" height="2478"/></clipPath></defs><title>dArtboard 18</title><path class="cls-3" d="M76.85,1.27h0v0A4.23,4.23,0,0,0,72.27.3L2.71,27.5a4.27,4.27,0,0,0,1,8.2l34,4.58a.15.15,0,0,1,.13.13l4.58,34a4.22,4.22,0,0,0,3.72,3.67l.53,0a4.2,4.2,0,0,0,4-2.72L77.8,5.83A4.22,4.22,0,0,0,76.85,1.27ZM4.25,31.61c-.08,0-.11,0-.13-.12s0-.13.09-.15L69.29,5.89,38.86,36.33C38.66,36.27,4.25,31.61,4.25,31.61ZM46.76,73.88c0,.08,0,.11-.15.09s-.11,0-.12-.12-4.66-34.41-4.72-34.61L72.21,8.8Z"/></svg>