<?xml version="1.0" encoding="utf-8"?><svg id="Layer_1" data-name="Layer 1" xmlns="http://www.w3.org/2000/svg" viewBox="0 0 100 100"><title>Inventory management</title><path d="M71,0H29A8.06,8.06,0,0,0,21,8.06V91.94A8.07,8.07,0,0,0,29,100H71A8.07,8.07,0,0,0,79,91.94V8.06A8.06,8.06,0,0,0,71,0ZM58.68,3.23,57.07,6.45H42.93L41.32,3.23ZM75.81,91.94A4.84,4.84,0,0,1,71,96.77H29a4.84,4.84,0,0,1-4.84-4.83V8.06A4.84,4.84,0,0,1,29,3.23h8.68l2.78,5.56a1.63,1.63,0,0,0,1.45.89H58.06a1.63,1.63,0,0,0,1.45-.89l2.78-5.56H71a4.84,4.84,0,0,1,4.84,4.83Z"/><path d="M37.1,90.32H29a1.62,1.62,0,0,0,0,3.23H37.1a1.62,1.62,0,0,0,0-3.23Z"/><path d="M43.55,90.32H41.94a1.62,1.62,0,1,0,0,3.23h1.61a1.62,1.62,0,0,0,0-3.23Z"/><path d="M64.52,62.9h-29a1.62,1.62,0,0,0-1.61,1.62V71a1.61,1.61,0,0,0,1.61,1.61h29A1.61,1.61,0,0,0,66.13,71V64.52A1.62,1.62,0,0,0,64.52,62.9ZM62.9,69.35H37.1V66.13H62.9Z"/><path d="M59.68,74.19H40.32a1.62,1.62,0,0,0,0,3.23H59.68a1.62,1.62,0,0,0,0-3.23Z"/><path d="M64.52,21h-29a1.61,1.61,0,0,0-1.61,1.61v29a1.62,1.62,0,0,0,1.61,1.62h29a1.62,1.62,0,0,0,1.61-1.62v-29A1.61,1.61,0,0,0,64.52,21ZM53.23,24.19V35.7l-2.34-1.56a1.6,1.6,0,0,0-1.78,0L46.77,35.7V24.19ZM62.9,50H37.1V24.19h6.45V38.71a1.62,1.62,0,0,0,2.51,1.34L50,37.42l3.94,2.63a1.6,1.6,0,0,0,2.24-.45,1.56,1.56,0,0,0,.27-.89V24.19H62.9Z"/></svg>