<?xml version="1.0" encoding="utf-8"?><svg xmlns="http://www.w3.org/2000/svg" xmlns:xlink="http://www.w3.org/1999/xlink" viewBox="0 0 150.2 45.27"><defs><style>.cls-1{fill:none;}.cls-2{isolation:isolate;}.cls-3{clip-path:url(#clip-path);}.cls-4{opacity:0.1;mix-blend-mode:multiply;}.cls-5{fill:#0093d2;}.cls-6{fill:#f49819;}.cls-6,.cls-7{fill-rule:evenodd;}</style><clipPath id="clip-path"><rect class="cls-1" x="-2863.37" y="-612.07" width="1921" height="934.98"/></clipPath></defs><title>dArtboard 32</title><g class="cls-2"><g id="Layer_1" data-name="Layer 1"><g class="cls-3"><g class="cls-4"><polygon class="cls-5" points="-169.91 592.96 -248.91 592.96 3.93 -858.08 82.93 -858.08 -169.91 592.96"/><polygon class="cls-5" points="-8.9 592.96 -87.91 592.96 164.93 -858.08 243.93 -858.08 -8.9 592.96"/></g></g><path class="cls-6" d="M93.18,35.39c-8.72,6.44-21.37,9.87-32.26,9.88a58.45,58.45,0,0,1-39.43-15c-.82-.74-.09-1.74.89-1.17A79.39,79.39,0,0,0,61.83,39.52a78.54,78.54,0,0,0,30.09-6.17c1.47-.63,2.71,1,1.26,2Z"/><path class="cls-6" d="M96.81,31.24c-1.11-1.43-7.37-.67-10.19-.34-.85.11-1-.64-.21-1.18,5-3.51,13.18-2.5,14.13-1.32s-.25,9.39-4.93,13.31c-.72.6-1.4.28-1.09-.52,1.06-2.63,3.41-8.52,2.29-9.95Z"/><path class="cls-7" d="M86.81,4.94V1.53a.84.84,0,0,1,.86-.87H103a.86.86,0,0,1,.89.86V4.44a4.91,4.91,0,0,1-1.15,2.15l-7.91,11.3a16.94,16.94,0,0,1,8.71,1.87,1.55,1.55,0,0,1,.81,1.33v3.64c0,.5-.54,1.08-1.12.78a17.61,17.61,0,0,0-16.14,0c-.54.29-1.09-.28-1.09-.79V21.3A4.18,4.18,0,0,1,86.51,19L95.68,5.79h-8a.85.85,0,0,1-.88-.86Z"/><path class="cls-7" d="M31.08,26.25H26.43a.87.87,0,0,1-.83-.78V1.61a.87.87,0,0,1,.89-.86h4.33a.87.87,0,0,1,.85.8V4.66h.09A6.12,6.12,0,0,1,37.87.24c2.91,0,4.73,1.41,6,4.42a6.86,6.86,0,0,1,11.8-1.81c1.47,2,1.17,4.92,1.17,7.48V25.38a.87.87,0,0,1-.89.86H51.35a.86.86,0,0,1-.84-.85V12.74a30.19,30.19,0,0,0-.13-4.47,2.43,2.43,0,0,0-2.73-2.06,3.11,3.11,0,0,0-2.78,2,14.39,14.39,0,0,0-.43,4.57V25.39a.87.87,0,0,1-.89.86H38.9a.88.88,0,0,1-.84-.86V12.75c0-2.67.43-6.58-2.87-6.58S32,10,32,12.75V25.39a.88.88,0,0,1-.9.86Z"/><path class="cls-7" d="M117,5.08c-3.42,0-3.64,4.67-3.64,7.59s0,9.13,3.61,9.13,3.77-5,3.77-8.08a22,22,0,0,0-.7-6.33,2.92,2.92,0,0,0-3-2.31Zm0-4.87c6.9,0,10.63,5.92,10.63,13.45,0,7.28-4.11,13.06-10.62,13.06-6.77,0-10.46-5.92-10.46-13.3S110.26.22,117,.21Z"/><path class="cls-7" d="M136.58,26.21H132a.87.87,0,0,1-.84-.85l0-23.87a.88.88,0,0,1,.9-.78h4.31a.9.9,0,0,1,.83.67V5h.08c1.3-3.27,3.13-4.83,6.34-4.83A6.08,6.08,0,0,1,149,3c1.22,1.91,1.22,5.12,1.22,7.43v15a.89.89,0,0,1-.89.76h-4.66a.88.88,0,0,1-.83-.75v-13c0-2.61.3-6.42-2.91-6.42A3,3,0,0,0,138.21,8a10.6,10.6,0,0,0-.73,4.52V25.35a.89.89,0,0,1-.9.86Z"/><path class="cls-7" d="M79.33,26.17a1,1,0,0,1-1.1.11,11.33,11.33,0,0,1-2.67-3.09c-2.55,2.6-4.36,3.38-7.66,3.38-3.91,0-7-2.41-7-7.24a7.89,7.89,0,0,1,5-7.6c2.52-1.11,6-1.31,8.74-1.62v-.6a6,6,0,0,0-.56-3.37,3.11,3.11,0,0,0-2.61-1.21,3.54,3.54,0,0,0-3.74,2.79,1,1,0,0,1-.81.86l-4.5-.49a.82.82,0,0,1-.7-1c1-5.47,6-7.12,10.4-7.12,2.26,0,5.22.6,7,2.31,2.26,2.11,2,4.93,2,8v7.24a6.34,6.34,0,0,0,1.75,4.31.88.88,0,0,1,0,1.24c-1,.79-2.64,2.26-3.56,3.08Zm-4.7-11.33c0,1.81.05,3.32-.86,4.93a3.79,3.79,0,0,1-3.22,2.12c-1.78,0-2.83-1.36-2.83-3.37,0-4,3.55-4.68,6.91-4.68v1Z"/><path class="cls-7" d="M18.39,26.2a1,1,0,0,1-1.1.11,11.5,11.5,0,0,1-2.67-3.1c-2.55,2.6-4.35,3.38-7.66,3.38-3.91,0-7-2.41-7-7.24a7.9,7.9,0,0,1,5-7.6c2.53-1.11,6.05-1.31,8.74-1.61V9.53a6,6,0,0,0-.56-3.37A3.14,3.14,0,0,0,10.52,5a3.56,3.56,0,0,0-3.74,2.8A1,1,0,0,1,6,8.6L1.47,8.12a.82.82,0,0,1-.69-1C1.81,1.68,6.74,0,11.17,0c2.26,0,5.22.61,7,2.32,2.26,2.11,2,4.93,2,8v7.25c0,2.18.91,3.13,1.76,4.3.29.43.36.93,0,1.24-.95.8-2.63,2.26-3.56,3.09ZM13.7,14.87c0,1.81,0,3.32-.87,4.93a3.77,3.77,0,0,1-3.22,2.11c-1.78,0-2.83-1.36-2.83-3.37,0-4,3.55-4.68,6.92-4.68v1Z"/></g></g></svg>