<?xml version="1.0" encoding="utf-8"?><svg xmlns="http://www.w3.org/2000/svg" xmlns:xlink="http://www.w3.org/1999/xlink" viewBox="0 0 142.73 40.73"><defs><style>.cls-1{fill:none;}.cls-2{isolation:isolate;}.cls-3{clip-path:url(#clip-path);}.cls-4{opacity:0.1;mix-blend-mode:multiply;}.cls-5{fill:#0093d2;}.cls-6{fill:#9dbd31;}.cls-7{fill:#5f8c2f;}.cls-8{fill:#fff;}.cls-9{fill:#1d1d1b;}</style><clipPath id="clip-path"><rect class="cls-1" x="-2990.78" y="-722.47" width="1921" height="934.98"/></clipPath></defs><title>dArtboard 29</title><g class="cls-2"><g id="Layer_1" data-name="Layer 1"><g class="cls-3"><g class="cls-4"><polygon class="cls-5" points="-136.31 482.56 -215.31 482.56 37.53 -968.47 116.53 -968.47 -136.31 482.56"/></g></g><path class="cls-6" d="M16.12,1.38a1.11,1.11,0,0,1,.65.22c-1.64.77-3.4,2.73-4.15,6.62l-3.13,1c.87-3,2.94-7.81,6.63-7.81Zm1.52,1.44a9.45,9.45,0,0,1,.52,3.46V6.5l-4,1.23c.77-2.95,2.2-4.37,3.45-4.91Zm3.79,2.67-1.92.59V5.67a9.48,9.48,0,0,0-.46-3.1c1.14.14,1.89,1.43,2.38,2.92Zm9.22,2.26a.4.4,0,0,0-.35-.33l-3.2-.23S25,5.08,24.74,4.84a1,1,0,0,0-.87-.11l-1.19.37c-.71-2-2-3.92-4.16-3.92h-.19A2.68,2.68,0,0,0,16.26,0C11.12,0,8.67,6.42,7.9,9.68L4.31,10.8c-1.11.35-1.15.38-1.29,1.43-.11.8-3,23.33-3,23.33l22.71,4.25L35,37.14,30.65,7.75Z"/><path class="cls-7" d="M30.3,7.42l-3.2-.23S25,5.08,24.74,4.84a.63.63,0,0,0-.33-.15l-1.7,35.12L35,37.14,30.65,7.75a.4.4,0,0,0-.35-.33Z"/><path class="cls-8" d="M18.52,14.23,17,18.74a7,7,0,0,0-3-.71c-2.39,0-2.51,1.5-2.51,1.88,0,2.06,5.37,2.85,5.37,7.67,0,3.8-2.4,6.25-5.65,6.25a7.87,7.87,0,0,1-5.89-2.42l1-3.45s2.05,1.76,3.78,1.76a1.53,1.53,0,0,0,1.59-1.54c0-2.69-4.41-2.81-4.41-7.23,0-3.72,2.66-7.32,8.05-7.32a6.55,6.55,0,0,1,3.1.6Z"/><path class="cls-9" d="M49.35,22.67c-1.23-.66-1.86-1.22-1.86-2,0-1,.87-1.62,2.24-1.62a8,8,0,0,1,3,.67l1.13-3.44s-1-.8-4.07-.8c-4.23,0-7.15,2.42-7.15,5.82,0,1.93,1.37,3.4,3.19,4.45,1.47.84,2,1.44,2,2.31s-.74,1.65-2.1,1.65a9.43,9.43,0,0,1-4-1l-1.19,3.44a9.09,9.09,0,0,0,4.76,1.19c4.35,0,7.47-2.14,7.47-6,0-2.07-1.58-3.54-3.47-4.63Z"/><path class="cls-9" d="M66.66,15.44A6.57,6.57,0,0,0,61.54,18l-.07,0,1.86-9.71H58.49L53.8,33h4.84l1.61-8.45c.63-3.19,2.28-5.16,3.82-5.16,1.08,0,1.51.74,1.51,1.79a11.09,11.09,0,0,1-.21,2.14L63.55,33h4.84l1.88-10a18,18,0,0,0,.35-3.15c0-2.74-1.44-4.39-4-4.39Z"/><path class="cls-9" d="M79.18,29.6c-1.65,0-2.35-1.4-2.35-3.15,0-2.77,1.44-7.29,4.07-7.29,1.71,0,2.27,1.47,2.27,2.9,0,3-1.43,7.54-4,7.54Zm2.38-14.16c-5.82,0-9.67,5.26-9.67,11.12,0,3.75,2.31,6.76,6.66,6.76,5.72,0,9.57-5.12,9.57-11.12,0-3.47-2-6.76-6.56-6.76Z"/><path class="cls-9" d="M95.87,29.67a3.07,3.07,0,0,1-2-.7l.8-4.53c.56-3,2.14-5,3.82-5,1.48,0,1.93,1.37,1.93,2.66,0,3.12-1.85,7.58-4.55,7.58Zm4.62-14.24a6.64,6.64,0,0,0-5.12,2.88H95.3l.28-2.6H91.31c-.21,1.75-.6,4.41-1,6.41L87,39.84h4.84l1.33-7.15h.1a5.63,5.63,0,0,0,2.84.63c5.68,0,9.39-5.82,9.39-11.71,0-3.26-1.44-6.17-5-6.17Z"/><path class="cls-9" d="M112.37,8.49a2.76,2.76,0,0,0-2.77,2.8,2.23,2.23,0,0,0,2.28,2.42H112a2.73,2.73,0,0,0,2.84-2.81,2.3,2.3,0,0,0-2.42-2.41Z"/><polygon class="cls-9" points="105.62 32.96 110.45 32.96 113.74 15.81 108.87 15.81 105.62 32.96 105.62 32.96"/><path class="cls-9" d="M126.05,15.77h-3.37l.18-.8c.28-1.65,1.26-3.12,2.87-3.12a5.13,5.13,0,0,1,1.54.24l1-3.79a6.31,6.31,0,0,0-2.63-.41,7.17,7.17,0,0,0-4.73,1.61A9.21,9.21,0,0,0,118.05,15l-.14.81h-2.24l-.7,3.64h2.24L114.66,33h4.84l2.55-13.53h3.33l.67-3.65Z"/><path class="cls-9" d="M137.69,15.8s-3,7.62-4.38,11.78h-.07c-.1-1.34-1.2-11.77-1.2-11.77H127l2.91,15.74a1,1,0,0,1-.1.8,8.25,8.25,0,0,1-2.63,2.91,10.4,10.4,0,0,1-2.73,1.37l1.33,4.1a11,11,0,0,0,4.73-2.63c2.21-2.07,4.24-5.26,6.34-9.61l5.92-12.69Z"/></g></g></svg>