<?xml version="1.0" encoding="utf-8"?><svg id="Layer_1" data-name="Layer 1" xmlns="http://www.w3.org/2000/svg" viewBox="0 0 147 33.14"><defs><style>.cls-1{fill:#34313f;}</style></defs><title>dArtboard 30</title><path class="cls-1" d="M40.44,16a5.52,5.52,0,0,1,4.65,2.26V.42a.42.42,0,0,0-.68-.33L22.34,16.23h.58c2.3,0,3.47,1.47,3.47,3.06a2.7,2.7,0,0,1-1.53,2.57.18.18,0,0,0,0,.34A3,3,0,0,1,26.6,25a3.16,3.16,0,0,1-3.49,3.27H16.84a.24.24,0,0,1-.25-.25V20.43L.15,32.47a.37.37,0,0,0,.21.67l44.34,0a.35.35,0,0,0,.37-.36v-6.1a6.7,6.7,0,0,1-4.66,1.81,6.22,6.22,0,1,1,0-12.43Zm-8.78,12a.21.21,0,0,1-.22.21H29.33a.21.21,0,0,1-.22-.21V16.44a.21.21,0,0,1,.21-.21h2.12a.21.21,0,0,1,.21.21Z"/><path class="cls-1" d="M19.41,21h3a1.25,1.25,0,0,0,1.4-1.26,1.27,1.27,0,0,0-1.41-1.25H19.28a.13.13,0,0,0-.12.12v2.17A.24.24,0,0,0,19.41,21Z"/><path class="cls-1" d="M19.41,26H22.5A1.35,1.35,0,0,0,24,24.65a1.38,1.38,0,0,0-1.53-1.38H19.41a.25.25,0,0,0-.25.25v2.27A.26.26,0,0,0,19.41,26Z"/><path class="cls-1" d="M43.17,19.68a3.5,3.5,0,0,0-2.73-1.37,3.75,3.75,0,0,0-3.79,4,3.76,3.76,0,0,0,3.79,3.95,4.13,4.13,0,0,0,2.48-.86.24.24,0,0,0,.06-.16V24a.19.19,0,0,0-.18-.18H40.08a.24.24,0,0,1-.25-.25V21.89a.25.25,0,0,1,.24-.25h5.06V18.92l-1.63.89A.32.32,0,0,1,43.17,19.68Z"/><path class="cls-1" d="M47,22.25A6,6,0,0,1,53.09,16a5.1,5.1,0,0,1,4.53,2.5.19.19,0,0,1-.09.28l-1.38.74a.16.16,0,0,1-.25-.07,3.43,3.43,0,0,0-2.81-1.59,4.06,4.06,0,0,0-4,4.35,4.07,4.07,0,0,0,4,4.35A3.43,3.43,0,0,0,55.91,25a.16.16,0,0,1,.24-.07l1.38.71a.21.21,0,0,1,.09.3,5.21,5.21,0,0,1-4.53,2.55A6,6,0,0,1,47,22.25Z"/><path class="cls-1" d="M58.81,22.25a5.9,5.9,0,0,1,4.29-6c4.38-1.17,8.39,2.93,7.44,7.5a5.74,5.74,0,0,1-5.78,4.74A5.92,5.92,0,0,1,58.81,22.25Zm9.77,0c0-2.48-1.53-4.35-3.86-4.35s-3.86,1.87-3.85,4.35,1.5,4.35,3.86,4.35S68.58,24.7,68.58,22.25Z"/><path class="cls-1" d="M83.16,28.09V18.93l-3.64,9.22s-.07.06-.1.06h-.76s-.09,0-.09-.06l-3.68-9.21v9.15a.14.14,0,0,1-.15.15H72.9a.15.15,0,0,1-.15-.16V16.33a.14.14,0,0,1,.16-.15h2.63a.31.31,0,0,1,.28.18L79,24.63l3.19-8.27a.26.26,0,0,1,.27-.18h2.63a.14.14,0,0,1,.16.15V28.09a.14.14,0,0,1-.15.15H83.28A.16.16,0,0,1,83.16,28.09Z"/><path class="cls-1" d="M104,28V16.41a.21.21,0,0,1,.21-.21H112a.21.21,0,0,1,.21.21v1.41A.21.21,0,0,1,112,18h-5.7a.21.21,0,0,0-.21.21v2.66a.21.21,0,0,0,.21.22h5.58a.21.21,0,0,1,.21.21v1.41a.21.21,0,0,1-.21.21h-5.57a.21.21,0,0,0-.22.21v2.91a.21.21,0,0,0,.22.21H112a.22.22,0,0,1,.22.22v1.4a.21.21,0,0,1-.22.22h-7.81C104.07,28.23,104,28.14,104,28Z"/><path class="cls-1" d="M122,28.1l-2.55-4.28a.21.21,0,0,0-.18-.09h-1.78a.21.21,0,0,0-.21.21V28a.21.21,0,0,1-.21.22h-1.66a.21.21,0,0,1-.21-.22V16.41a.21.21,0,0,1,.22-.21h5.08A3.65,3.65,0,0,1,124.46,20a3.36,3.36,0,0,1-2.57,3.46.23.23,0,0,0-.15.34c.49.79,2,3.24,2.6,4.13a.22.22,0,0,1-.18.34h-1.93A.22.22,0,0,1,122,28.1Zm.27-8.17a1.87,1.87,0,0,0-2.05-1.9h-2.7a.21.21,0,0,0-.21.22v3.39a.21.21,0,0,0,.21.22h2.7A1.89,1.89,0,0,0,122.29,19.93Z"/><path class="cls-1" d="M138.73,28V16.4a.21.21,0,0,1,.21-.21h7.84a.22.22,0,0,1,.22.22v1.44a.21.21,0,0,1-.22.21h-5.72a.22.22,0,0,0-.22.22V21a.22.22,0,0,0,.22.22h5.57a.22.22,0,0,1,.22.22v1.44a.21.21,0,0,1-.22.21h-5.57a.22.22,0,0,0-.22.22V26.2a.21.21,0,0,0,.21.21h5.73a.21.21,0,0,1,.21.21v1.44a.21.21,0,0,1-.21.22H139A.33.33,0,0,1,138.73,28Z"/><path class="cls-1" d="M126,22.16a6,6,0,0,1,6.09-6.22,5.13,5.13,0,0,1,4.54,2.51.19.19,0,0,1-.09.28l-1.38.73a.16.16,0,0,1-.25-.06,3.4,3.4,0,0,0-2.81-1.59,4,4,0,0,0-4,4.35,4.07,4.07,0,0,0,4,4.35,3.44,3.44,0,0,0,2.82-1.6.16.16,0,0,1,.24-.06l1.38.71a.21.21,0,0,1,.09.3,5.21,5.21,0,0,1-4.53,2.55A6,6,0,0,1,126,22.16Z"/><path class="cls-1" d="M98.77,28.08V18.93l-3.64,9.21s-.06.07-.09.07h-.77s-.09,0-.09-.06L90.5,18.93v9.16a.14.14,0,0,1-.16.15H88.52a.15.15,0,0,1-.16-.15V16.33a.14.14,0,0,1,.15-.15h2.64a.3.3,0,0,1,.27.19l3.22,8.26,3.18-8.26a.26.26,0,0,1,.28-.19h2.63a.14.14,0,0,1,.15.15V28.08a.14.14,0,0,1-.16.15H98.9C98.84,28.24,98.78,28.17,98.77,28.08Z"/></svg>