<?xml version="1.0" encoding="utf-8"?><svg xmlns="http://www.w3.org/2000/svg" xmlns:xlink="http://www.w3.org/1999/xlink" viewBox="0 0 128.81 48.91"><defs><style>.cls-1{fill:none;}.cls-2{isolation:isolate;}.cls-3{clip-path:url(#clip-path);}.cls-4{opacity:0.1;mix-blend-mode:multiply;}.cls-5{fill:#0093d2;}.cls-6{fill:#e0262c;}.cls-7{fill:#385faa;}.cls-8{fill:#f4b100;}.cls-9{fill:#8cb625;}.cls-10{fill:#13110c;}</style><clipPath id="clip-path"><rect class="cls-1" x="-2946.59" y="-527.04" width="1921" height="934.98"/></clipPath></defs><title>dArtboard 33</title><g class="cls-2"><g id="Layer_1" data-name="Layer 1"><g class="cls-3"><g class="cls-4"><polygon class="cls-5" points="-92.13 678 -171.13 678 81.71 -773.04 160.71 -773.04 -92.13 678"/></g></g><path class="cls-6" d="M15.56,14.8c5.16,0,8.68,3.15,8.68,7.89H6.45c0-5,4.58-7.9,9.11-7.9Zm.22-4.12C7.17,10.69,0,14.34,0,25.37,0,34.1,4.83,39.6,16,39.59c13.16,0,14-8.67,14-8.67H23.64s-1.36,4.67-8,4.67c-5.42,0-9.32-3.65-9.32-8.79H30.69V23.58c0-5.08-3.23-12.9-14.91-12.9Z"/><path class="cls-7" d="M46.47,15C52.32,15,56,19.3,56,25.12c0,6.25-4.29,10.33-9.52,10.33-6.24,0-9.61-4.86-9.61-10.26,0-5,3-10.22,9.56-10.22ZM30.68,0V34.05c0,1.94-.14,4.65-.14,4.65h6.09s.21-2,.21-3.73c0,0,3,4.7,11.19,4.7,8.61,0,14.45-6,14.45-14.55,0-8-5.38-14.37-14.45-14.37-8.49,0-11.13,4.6-11.13,4.6V0Z"/><path class="cls-8" d="M84.73,25.78v1.78c0,2.32-1.43,8.09-9.86,8.09-4.62,0-6.6-2.3-6.6-5,0-4.86,6.67-4.9,16.46-4.9ZM77.61,10.66c-13,0-13.79,7.1-13.79,8.23h6.45s.33-4.14,6.89-4.14c4.26,0,7.56,1.94,7.56,5.69v1.34H77.16c-10,0-15.34,2.94-15.34,8.9s4.91,9,11.54,9c9,0,11.93-5,11.93-5,0,2,.16,3.94.16,3.94h5.73s-.22-2.43-.22-4V21.29c0-8.79-7.09-10.63-13.34-10.63Z"/><polygon class="cls-9" points="87.47 11.77 94.73 11.77 105.15 32.62 115.53 11.76 122.11 11.76 103.2 48.9 96.3 48.91 101.76 38.55 87.47 11.77 87.47 11.77 87.47 11.77"/><path class="cls-10" d="M125.49,9.1c0-.25,0-.47,0-.67H126l0,.34h0a.77.77,0,0,1,.69-.39.64.64,0,0,1,.62.42h0a.83.83,0,0,1,.28-.28.75.75,0,0,1,.45-.14c.38,0,.76.26.76,1v1.33h-.56V9.44c0-.37-.13-.6-.4-.6a.44.44,0,0,0-.4.31,1,1,0,0,0,0,.19v1.35h-.56V9.38c0-.31-.12-.53-.39-.53a.45.45,0,0,0-.41.32.52.52,0,0,0,0,.18v1.34h-.55V9.1Zm-1-1.31v.64h.55v.43h-.55v1c0,.28.07.42.29.42a.65.65,0,0,0,.22,0v.44a1.33,1.33,0,0,1-.41.05.66.66,0,0,1-.49-.18.89.89,0,0,1-.18-.63V8.86h-.32V8.43H124V7.92l.55-.13Z"/></g></g></svg>