<?xml version="1.0" encoding="utf-8"?><svg id="Layer_1" data-name="Layer 1" xmlns="http://www.w3.org/2000/svg" viewBox="0 0 154.74 31.22"><defs><style>.cls-1{fill:#9c5c8f;}.cls-1,.cls-2,.cls-3{fill-rule:evenodd;}.cls-2{fill:#fff;}</style></defs><title>dArtboard 31</title><path class="cls-1" d="M.39,3A4.89,4.89,0,0,1,4.8,0L47.44,0a4.9,4.9,0,0,1,5,5c0,5.44,0,10.89,0,16.34a4.9,4.9,0,0,1-4.62,4.73c-5.19,0-10.37,0-15.56,0l2.1,5.14c-3.09-1.7-6.14-3.46-9.25-5.12-6.82-.06-13.64,0-20.47,0A4.88,4.88,0,0,1,0,21.35C0,16,0,10.69,0,5.35A5.44,5.44,0,0,1,.39,3Z"/><path class="cls-2" d="M21.24,3.38a1.88,1.88,0,0,1,2.86.38,1.78,1.78,0,0,1,.09,1.69,24.65,24.65,0,0,0-2,6.91,44.21,44.21,0,0,0-.75,9.32,1.81,1.81,0,0,1-1.19,1.95,2.23,2.23,0,0,1-2.05-.92,21.93,21.93,0,0,1-4.59-9c-1,1.89-1.92,3.78-2.85,5.69a13.4,13.4,0,0,1-2.37,3.62c-.44.44-1.18.83-1.74.38a6.37,6.37,0,0,1-1.43-3A124,124,0,0,1,2.3,6.05a1.82,1.82,0,0,1,1-2.1,2,2,0,0,1,2,.2,2.19,2.19,0,0,1,.56,1.37C6.43,9.27,7.1,13,8,16.7q2.33-4.42,4.64-8.84a2.87,2.87,0,0,1,.93-1.14,1.52,1.52,0,0,1,1.87.17,3,3,0,0,1,.64,1.55,39.57,39.57,0,0,0,2,7.15A41.05,41.05,0,0,1,20.23,5.3a7.66,7.66,0,0,1,1-1.92ZM30,5.24a5.36,5.36,0,0,1,4.61,1.62,7.08,7.08,0,0,1,1.63,3.79,11.63,11.63,0,0,1-1.28,6.9,7.53,7.53,0,0,1-2.66,3,5.45,5.45,0,0,1-5.73-.18,6.3,6.3,0,0,1-2.4-4,11,11,0,0,1,3.1-9.91A5.17,5.17,0,0,1,30,5.24Zm.35,3.62a3.57,3.57,0,0,0-1.74,1.69,6.38,6.38,0,0,0-.53,5.93,1.78,1.78,0,0,0,1.18,1.13A2.12,2.12,0,0,0,30.87,17a5.79,5.79,0,0,0,1.71-3.38,5.67,5.67,0,0,0-.7-4.22,1.38,1.38,0,0,0-1.56-.52ZM43.38,5.24a5.37,5.37,0,0,1,4.55,1.52,7.08,7.08,0,0,1,1.73,4.06,11.64,11.64,0,0,1-1.26,6.66,7.55,7.55,0,0,1-2.72,3.12,5.48,5.48,0,0,1-5.51-.07,5.6,5.6,0,0,1-2.28-3,11,11,0,0,1,2.5-10.79,5.26,5.26,0,0,1,3-1.48Zm.35,3.62a4,4,0,0,0-1.86,1.91,6.38,6.38,0,0,0-.33,5.81,1.61,1.61,0,0,0,1.27,1,2.42,2.42,0,0,0,1.68-.82,6.21,6.21,0,0,0,1.6-3.73,5.38,5.38,0,0,0-.79-3.71,1.38,1.38,0,0,0-1.57-.5Z"/><path class="cls-3" d="M61.26,5.71a9.93,9.93,0,0,1,4.34.06c0,1.16,0,2.32,0,3.48a5.39,5.39,0,0,0-3.59,0,4.09,4.09,0,0,0-2.1,3.65,4.25,4.25,0,0,0,1.7,3.89,4.81,4.81,0,0,0,4,.25c0,1.16,0,2.32,0,3.48a8.44,8.44,0,0,1-5.28-.19,7.08,7.08,0,0,1-4.24-4.55,9.61,9.61,0,0,1-.15-4.85,7.17,7.17,0,0,1,5.32-5.22Zm10.47-.17a6.91,6.91,0,0,1,5.08,1.19,6.72,6.72,0,0,1,2.29,4.45,12.63,12.63,0,0,1-.38,5.5,5.82,5.82,0,0,1-2.94,3.57,7.47,7.47,0,0,1-4.76.39,5.36,5.36,0,0,1-3.46-2.59,10.82,10.82,0,0,1-1.1-5.82,7.79,7.79,0,0,1,1.66-4.81,5.52,5.52,0,0,1,3.61-1.88Zm.54,3.33A2.14,2.14,0,0,0,70.9,10.5a13.23,13.23,0,0,0-.21,4.26,3.81,3.81,0,0,0,.72,2.2,1.92,1.92,0,0,0,2.84-.13,3.84,3.84,0,0,0,.66-1.92,13.08,13.08,0,0,0,0-3.59,3.64,3.64,0,0,0-.85-2,1.84,1.84,0,0,0-1.78-.45Zm68.79-3.13a9.89,9.89,0,0,1,4.56,0c0,1.16,0,2.33,0,3.49a5.58,5.58,0,0,0-3.52,0A4,4,0,0,0,140,12.52a4.45,4.45,0,0,0,1.63,4.21,4.78,4.78,0,0,0,4,.28c0,1.17,0,2.34,0,3.5a8.59,8.59,0,0,1-5.57-.34,7.1,7.1,0,0,1-4-4.58,9.4,9.4,0,0,1-.08-4.77,7.17,7.17,0,0,1,5.06-5.08Zm-59.65.14h5c.6,2.69,1.17,5.39,1.67,8.1.47-2.73,1.11-5.42,1.75-8.1h5.1q1,7.31,2,14.61H93c-.36-3.34-.68-6.67-1.07-10-.79,3.34-1.62,6.67-2.42,10H86.84c-.86-3.34-1.69-6.68-2.55-10-.34,3.34-.67,6.68-1,10H79.55l1.86-14.6Zm17.85,0h5c.6,2.69,1.17,5.38,1.67,8.09.48-2.72,1.11-5.41,1.75-8.09h5.08l2,14.6h-3.9c-.36-3.33-.7-6.67-1.06-10-.81,3.33-1.6,6.67-2.41,10h-2.66l-2.55-10c-.34,3.35-.67,6.69-1,10H97.4L99.26,5.87Zm16.56,0c2.67-.06,5.34,0,8,0,0,1,0,2.07,0,3.1-1.35,0-2.69,0-4,0v2.68h3.5v3h-3.5c0,.89,0,1.79,0,2.68h4v3.11h-8c0-4.86,0-9.72,0-14.58Zm9.15,0c1.67,0,3.34,0,5,0a6.66,6.66,0,0,1,4.41,1.55,4,4,0,0,1,1,4,4,4,0,0,1-2.2,2.5c1,2.2,2.1,4.38,3.14,6.57h-4.16c-1.09-2.23-2.14-4.48-3.24-6.71,0,2.24,0,4.48,0,6.71h-4q0-7.3,0-14.61Zm3.93,2.81v3.48a3.92,3.92,0,0,0,2.1-.51,1.67,1.67,0,0,0,.18-2.23,3.08,3.08,0,0,0-2.28-.74Zm17.84-2.81h8V9h-4.05v2.67h3.5v3h-3.49c0,.89,0,1.78,0,2.67,1.35,0,2.71,0,4.06,0v3.12h-8c0-4.87,0-9.74,0-14.6Z"/></svg>