<?xml version="1.0" encoding="utf-8"?><svg id="Layer_1" data-name="Layer 1" xmlns="http://www.w3.org/2000/svg" viewBox="0 0 100 100"><title>Major shipping discounts</title><path d="M38.07.65l-27,8.7L2.83,1.08A1.67,1.67,0,0,0,.47,3.44L9,12l-8.39,26a3.46,3.46,0,0,0,.85,3.51l55.93,56a3.47,3.47,0,0,0,4.9,0L97.55,62.28a3.46,3.46,0,0,0,0-4.9l-56-55.89A3.48,3.48,0,0,0,38.07.65Zm21.62,94.4-56-56L11.8,14.77,18,21a8.34,8.34,0,0,0,1.83,11.17,8.44,8.44,0,0,0,10.89-.55,8.34,8.34,0,0,0-10.36-13L13.85,12.1,39.07,3.7l56,56ZM23.81,26.78a1.67,1.67,0,0,0,2.35-2.36L22.84,21.1a5,5,0,0,1,5.68,8,5.14,5.14,0,0,1-7.07,0,4.94,4.94,0,0,1-1-5.68Z"/><path d="M33.9,62.18l4.71-4.71L64.55,83.4l-4.72,4.71Z"/><path d="M45.69,50.39l4.71-4.71L76.33,71.61l-4.71,4.72Z"/><path d="M52.76,43.32l4.71-4.71L83.4,64.54l-4.71,4.71Z"/><path d="M59.83,36.25l2.36-2.36L88.12,59.82l-2.36,2.36Z"/><path d="M41,55.11l2.36-2.36L69.26,78.68,66.9,81Z"/></svg>