<?xml version="1.0" encoding="utf-8"?><svg id="Layer_1" data-name="Layer 1" xmlns="http://www.w3.org/2000/svg" xmlns:xlink="http://www.w3.org/1999/xlink" viewBox="0 0 100 100"><defs><style>.cls-1{clip-path:url(#clip-path);}</style><clipPath id="clip-path"><path d="M69.48,37.57l8-3.88V49l-8,3.87ZM40.39,40.69a1.47,1.47,0,0,0-.68-2L8,23.44l14.54-7,44,21.22,0,0V55.23a1.43,1.43,0,0,0,.68,1.24,1.48,1.48,0,0,0,.78.23,1.39,1.39,0,0,0,.63-.15l11-5.28A1.48,1.48,0,0,0,80.43,50V32.28l13.51-6.51V75.71L51.49,96.2V46.26l10.12-4.89a1.46,1.46,0,1,0-1.27-2.64L50,43.71l-4.06-2a1.47,1.47,0,1,0-1.28,2.64l3.87,1.87V96.2L6.12,75.71V25.77l32.32,15.6a1.48,1.48,0,0,0,2-.68M26,14.83l8.57-4.16L76.52,30.92l-8.58,4.15Zm53.6,14.33L37.89,9,50,3.15,92,23.44,79.86,29.31a1.28,1.28,0,0,0-.25-.15M49.39.21,4,22.12a1.45,1.45,0,0,0-.83,1.32V76.63A1.47,1.47,0,0,0,4,78l45.37,21.9.21.08h.86l.2-.08L96,78a1.47,1.47,0,0,0,.78-.93v-54a1.45,1.45,0,0,0-.78-.93L50.66.21a1.51,1.51,0,0,0-1.27,0"/></clipPath></defs><title>Multichannel eCommerce Fulfilment</title><path d="M69.48,37.57l8-3.88V49l-8,3.87ZM40.39,40.69a1.47,1.47,0,0,0-.68-2L8,23.44l14.54-7,44,21.22,0,0V55.23a1.43,1.43,0,0,0,.68,1.24,1.48,1.48,0,0,0,.78.23,1.39,1.39,0,0,0,.63-.15l11-5.28A1.48,1.48,0,0,0,80.43,50V32.28l13.51-6.51V75.71L51.49,96.2V46.26l10.12-4.89a1.46,1.46,0,1,0-1.27-2.64L50,43.71l-4.06-2a1.47,1.47,0,1,0-1.28,2.64l3.87,1.87V96.2L6.12,75.71V25.77l32.32,15.6a1.48,1.48,0,0,0,2-.68M26,14.83l8.57-4.16L76.52,30.92l-8.58,4.15Zm53.6,14.33L37.89,9,50,3.15,92,23.44,79.86,29.31a1.28,1.28,0,0,0-.25-.15M49.39.21,4,22.12a1.45,1.45,0,0,0-.83,1.32V76.63A1.47,1.47,0,0,0,4,78l45.37,21.9.21.08h.86l.2-.08L96,78a1.47,1.47,0,0,0,.78-.93v-54a1.45,1.45,0,0,0-.78-.93L50.66.21a1.51,1.51,0,0,0-1.27,0"/><g class="cls-1"><polygon points="3.19 77.24 25.95 100 3.19 100 3.19 77.24"/><polygon points="3.19 76.73 26.46 100 25.95 100 3.19 77.24 3.19 76.73"/><polygon points="3.19 76.22 26.97 100 26.46 100 3.19 76.73 3.19 76.22"/><polygon points="3.19 75.71 27.48 100 26.97 100 3.19 76.22 3.19 75.71"/><polygon points="3.19 75.2 27.99 100 27.48 100 3.19 75.71 3.19 75.2"/><polygon points="3.19 74.69 28.5 100 27.99 100 3.19 75.2 3.19 74.69"/><polygon points="3.19 74.18 29 100 28.5 100 3.19 74.69 3.19 74.18"/><polygon points="3.19 73.67 29.51 100 29 100 3.19 74.18 3.19 73.67"/><polygon points="3.19 73.17 30.02 100 29.51 100 3.19 73.67 3.19 73.17"/><polygon points="3.19 72.66 30.53 100 30.02 100 3.19 73.16 3.19 72.66"/><polygon points="3.19 72.15 31.04 100 30.53 100 3.19 72.66 3.19 72.15"/><polygon points="3.19 71.64 31.55 100 31.04 100 3.19 72.15 3.19 71.64"/><polygon points="3.19 71.13 32.06 100 31.55 100 3.19 71.64 3.19 71.13"/><polygon points="3.19 70.62 32.57 100 32.06 100 3.19 71.13 3.19 70.62"/><polygon points="3.19 70.11 33.08 100 32.57 100 3.19 70.62 3.19 70.11"/><polygon points="3.19 69.6 33.58 100 33.08 100 3.19 70.11 3.19 69.6"/><polygon points="3.19 69.09 34.09 100 33.58 100 3.19 69.6 3.19 69.09"/><polygon points="3.19 68.59 34.6 100 34.09 100 3.19 69.09 3.19 68.59"/><polygon points="3.19 68.08 35.11 100 34.6 100 3.19 68.59 3.19 68.08"/><polygon points="3.19 67.57 35.62 100 35.11 100 3.19 68.08 3.19 67.57"/><polygon points="3.19 67.06 36.13 100 35.62 100 3.19 67.57 3.19 67.06"/><polygon points="3.19 66.55 36.63 100 36.13 100 3.19 67.06 3.19 66.55"/><polygon points="3.19 66.04 37.15 100 36.63 100 3.19 66.55 3.19 66.04"/><polygon points="3.19 65.53 37.65 100 37.15 100 3.19 66.04 3.19 65.53"/><polygon points="3.19 65.02 38.16 100 37.65 100 3.19 65.53 3.19 65.02"/><polygon points="3.19 64.52 38.67 100 38.16 100 3.19 65.02 3.19 64.52"/><polygon points="3.19 64.01 39.18 100 38.67 100 3.19 64.52 3.19 64.01"/><polygon points="3.19 63.5 39.69 100 39.18 100 3.19 64.01 3.19 63.5"/><polygon points="3.19 62.99 40.2 100 39.69 100 3.19 63.5 3.19 62.99"/><polygon points="3.19 62.48 40.71 100 40.2 100 3.19 62.99 3.19 62.48"/><polygon points="3.19 61.97 41.22 100 40.71 100 3.19 62.48 3.19 61.97"/><polygon points="3.19 61.46 41.72 100 41.22 100 3.19 61.97 3.19 61.46"/><polygon points="3.19 60.95 42.23 100 41.72 100 3.19 61.46 3.19 60.95"/><polygon points="3.19 60.45 42.74 100 42.23 100 3.19 60.95 3.19 60.45"/><polygon points="3.19 59.94 43.25 100 42.74 100 3.19 60.44 3.19 59.94"/><polygon points="3.19 59.43 43.76 100 43.25 100 3.19 59.94 3.19 59.43"/><polygon points="3.19 58.92 44.27 100 43.76 100 3.19 59.43 3.19 58.92"/><polygon points="3.19 58.41 44.78 100 44.27 100 3.19 58.92 3.19 58.41"/><polygon points="3.19 57.9 45.28 100 44.78 100 3.19 58.41 3.19 57.9"/><polygon points="3.19 57.39 45.79 100 45.28 100 3.19 57.9 3.19 57.39"/><polygon points="3.19 56.88 46.3 100 45.79 100 3.19 57.39 3.19 56.88"/><polygon points="3.19 56.37 46.81 100 46.3 100 3.19 56.88 3.19 56.37"/><polygon points="3.19 55.87 47.32 100 46.81 100 3.19 56.37 3.19 55.87"/><polygon points="3.19 55.36 47.83 100 47.32 100 3.19 55.87 3.19 55.36"/><polygon points="3.19 54.85 48.34 100 47.83 100 3.19 55.36 3.19 54.85"/><polygon points="3.19 54.34 48.85 100 48.34 100 3.19 54.85 3.19 54.34"/><polygon points="3.19 53.83 49.36 100 48.85 100 3.19 54.34 3.19 53.83"/><polygon points="3.19 53.32 49.86 100 49.36 100 3.19 53.83 3.19 53.32"/><polygon points="3.19 52.81 50.37 100 49.86 100 3.19 53.32 3.19 52.81"/><polygon points="3.19 52.3 50.88 100 50.37 100 3.19 52.81 3.19 52.3"/><polygon points="3.19 51.8 51.39 100 50.88 100 3.19 52.3 3.19 51.8"/><polygon points="3.19 51.29 51.9 100 51.39 100 3.19 51.8 3.19 51.29"/><polygon points="3.19 50.78 52.41 100 51.9 100 3.19 51.29 3.19 50.78"/><polygon points="3.19 50.27 52.92 100 52.41 100 3.19 50.78 3.19 50.27"/><polygon points="3.19 49.76 53.43 100 52.92 100 3.19 50.27 3.19 49.76"/><polygon points="3.19 49.25 53.94 100 53.43 100 3.19 49.76 3.19 49.25"/><polygon points="3.19 48.74 54.44 100 53.94 100 3.19 49.25 3.19 48.74"/><polygon points="3.19 48.23 54.95 100 54.44 100 3.19 48.74 3.19 48.23"/><polygon points="3.19 47.73 55.46 100 54.95 100 3.19 48.23 3.19 47.73"/><polygon points="3.19 47.22 55.97 100 55.46 100 3.19 47.72 3.19 47.22"/><polygon points="3.19 46.71 56.48 100 55.97 100 3.19 47.22 3.19 46.71"/><polygon points="3.19 46.2 56.99 100 56.48 100 3.19 46.71 3.19 46.2"/><polygon points="3.19 45.69 57.49 100 56.99 100 3.19 46.2 3.19 45.69"/><polygon points="3.19 45.18 58.01 100 57.49 100 3.19 45.69 3.19 45.18"/><polygon points="3.19 44.67 58.51 100 58.01 100 3.19 45.18 3.19 44.67"/><polygon points="3.19 44.16 59.02 100 58.51 100 3.19 44.67 3.19 44.16"/><polygon points="3.19 43.66 59.53 100 59.02 100 3.19 44.16 3.19 43.66"/><polygon points="3.19 43.15 60.04 100 59.53 100 3.19 43.66 3.19 43.15"/><polygon points="3.19 42.64 60.55 100 60.04 100 3.19 43.15 3.19 42.64"/><polygon points="3.19 42.13 61.06 100 60.55 100 3.19 42.64 3.19 42.13"/><polygon points="3.19 41.62 61.57 100 61.06 100 3.19 42.13 3.19 41.62"/><polygon points="3.19 41.11 62.08 100 61.57 100 3.19 41.62 3.19 41.11"/><polygon points="3.19 40.6 62.59 100 62.08 100 3.19 41.11 3.19 40.6"/><polygon points="3.19 40.09 63.09 100 62.59 100 3.19 40.6 3.19 40.09"/><polygon points="3.19 39.59 63.6 100 63.09 100 3.19 40.09 3.19 39.59"/><polygon points="3.19 39.08 64.11 100 63.6 100 3.19 39.58 3.19 39.08"/><polygon points="3.19 38.57 64.62 100 64.11 100 3.19 39.08 3.19 38.57"/><polygon points="3.19 38.06 65.13 100 64.62 100 3.19 38.57 3.19 38.06"/><polygon points="3.19 37.55 65.64 100 65.13 100 3.19 38.06 3.19 37.55"/><polygon points="3.19 37.04 66.15 100 65.64 100 3.19 37.55 3.19 37.04"/><polygon points="3.19 36.53 66.65 100 66.15 100 3.19 37.04 3.19 36.53"/><polygon points="3.19 36.02 67.16 100 66.65 100 3.19 36.53 3.19 36.02"/><polygon points="3.19 35.52 67.67 100 67.16 100 3.19 36.02 3.19 35.52"/><polygon points="3.19 35.01 68.18 100 67.67 100 3.19 35.52 3.19 35.01"/><polygon points="3.19 34.5 68.69 100 68.18 100 3.19 35 3.19 34.5"/><polygon points="3.19 33.99 69.2 100 68.69 100 3.19 34.5 3.19 33.99"/><polygon points="3.19 33.48 69.71 100 69.2 100 3.19 33.99 3.19 33.48"/><polygon points="3.19 32.97 70.22 100 69.71 100 3.19 33.48 3.19 32.97"/><polygon points="3.19 32.46 70.72 100 70.22 100 3.19 32.97 3.19 32.46"/><polygon points="3.19 31.95 71.23 100 70.72 100 3.19 32.46 3.19 31.95"/><polygon points="3.19 31.44 71.74 100 71.23 100 3.19 31.95 3.19 31.44"/><polygon points="3.19 30.94 72.25 100 71.74 100 3.19 31.44 3.19 30.94"/><polygon points="3.19 30.43 72.76 100 72.25 100 3.19 30.94 3.19 30.43"/><polygon points="3.19 29.92 73.27 100 72.76 100 3.19 30.43 3.19 29.92"/><polygon points="3.19 29.41 73.78 100 73.27 100 3.19 29.92 3.19 29.41"/><polygon points="3.19 28.9 74.29 100 73.78 100 3.19 29.41 3.19 28.9"/><polygon points="3.19 28.39 74.8 100 74.29 100 3.19 28.9 3.19 28.39"/><polygon points="3.19 27.88 75.3 100 74.8 100 3.19 28.39 3.19 27.88"/><polygon points="3.19 27.37 75.81 100 75.3 100 3.19 27.88 3.19 27.37"/><polygon points="3.19 26.86 76.32 100 75.81 100 3.19 27.37 3.19 26.86"/><polygon points="3.19 26.36 76.83 100 76.32 100 3.19 26.86 3.19 26.36"/><polygon points="3.19 25.85 77.34 100 76.83 100 3.19 26.36 3.19 25.85"/><polygon points="3.19 25.34 77.85 100 77.34 100 3.19 25.85 3.19 25.34"/><polygon points="3.19 24.83 78.36 100 77.85 100 3.19 25.34 3.19 24.83"/><polygon points="3.19 24.32 78.71 99.84 78.55 100 78.36 100 3.19 24.83 3.19 24.32"/><polygon points="3.19 23.81 78.96 99.58 78.71 99.84 3.19 24.32 3.19 23.81"/><polygon points="3.19 23.3 79.22 99.33 78.96 99.58 3.19 23.81 3.19 23.3"/><polygon points="3.19 22.79 79.47 99.08 79.22 99.33 3.19 23.3 3.19 22.79"/><polygon points="3.19 22.29 79.72 98.82 79.47 99.08 3.19 22.79 3.19 22.29"/><polygon points="3.19 21.78 79.98 98.57 79.72 98.82 3.19 22.29 3.19 21.78"/><polygon points="3.19 21.27 80.23 98.31 79.98 98.57 3.19 21.78 3.19 21.27"/><polygon points="3.19 20.76 80.49 98.06 80.23 98.31 3.19 21.27 3.19 20.76"/><polygon points="3.19 20.25 80.74 97.8 80.49 98.06 3.19 20.76 3.19 20.25"/><polygon points="3.19 19.74 81 97.55 80.74 97.8 3.19 20.25 3.19 19.74"/><polygon points="3.19 19.23 81.25 97.3 81 97.55 3.19 19.74 3.19 19.23"/><polygon points="3.19 18.72 81.5 97.04 81.25 97.3 3.19 19.23 3.19 18.72"/><polygon points="3.19 18.38 3.27 18.3 81.76 96.79 81.5 97.04 3.19 18.73 3.19 18.38"/><rect x="42.46" y="1.92" width="0.36" height="111" transform="translate(-28.06 46.66) rotate(-44.75)"/><rect x="42.72" y="1.66" width="0.36" height="111" transform="translate(-27.85 47.07) rotate(-45)"/><rect x="42.97" y="1.41" width="0.36" height="111" transform="translate(-27.6 47.18) rotate(-45)"/><rect x="43.23" y="1.15" width="0.36" height="111" transform="translate(-27.35 47.29) rotate(-45)"/><rect x="43.48" y="0.9" width="0.36" height="111" transform="translate(-27.05 47.08) rotate(-44.75)"/><rect x="43.73" y="0.64" width="0.36" height="111" transform="translate(-26.84 47.5) rotate(-45)"/><rect x="43.99" y="0.39" width="0.36" height="111" transform="translate(-26.58 47.6) rotate(-45)"/><rect x="44.24" y="0.14" width="0.36" height="111" transform="translate(-26.29 47.4) rotate(-44.75)"/><rect x="44.5" y="-0.12" width="0.36" height="111" transform="translate(-26.07 47.81) rotate(-45)"/><rect x="44.75" y="-0.37" width="0.36" height="111" transform="translate(-25.82 47.92) rotate(-45)"/><rect x="45.01" y="-0.63" width="0.36" height="111" transform="translate(-25.56 48.02) rotate(-45)"/><polygon points="6.07 15.5 6.33 15.25 84.81 93.73 84.56 93.99 6.07 15.5"/><rect x="45.52" y="-1.14" width="0.36" height="111" transform="translate(-25.06 48.23) rotate(-45)"/><rect x="45.77" y="-1.39" width="0.36" height="111" transform="translate(-24.8 48.34) rotate(-45)"/><polygon points="6.83 14.74 7.09 14.48 85.58 92.97 85.32 93.23 6.83 14.74"/><rect x="46.28" y="-1.9" width="0.36" height="111" transform="translate(-24.29 48.55) rotate(-45)"/><rect x="46.53" y="-2.15" width="0.36" height="111" transform="translate(-24.04 48.65) rotate(-45)"/><rect x="46.79" y="-2.41" width="0.36" height="111" transform="translate(-23.78 48.76) rotate(-45)"/><rect x="47.04" y="-2.66" width="0.36" height="111" transform="translate(-23.53 48.87) rotate(-45)"/><rect x="47.3" y="-2.92" width="0.36" height="111" transform="translate(-23.26 48.66) rotate(-44.75)"/><rect x="47.55" y="-3.17" width="0.36" height="111" transform="translate(-23.02 49.08) rotate(-45)"/><rect x="47.81" y="-3.43" width="0.36" height="111" transform="translate(-22.77 49.18) rotate(-45)"/><rect x="48.06" y="-3.68" width="0.36" height="111" transform="translate(-22.5 48.98) rotate(-44.75)"/><rect x="48.31" y="-3.93" width="0.36" height="111" transform="translate(-22.26 49.39) rotate(-45)"/><rect x="48.57" y="-4.19" width="0.36" height="111" transform="translate(-22 49.5) rotate(-45)"/><rect x="48.82" y="-4.44" width="0.36" height="111" transform="translate(-21.74 49.29) rotate(-44.75)"/><rect x="49.08" y="-4.7" width="0.36" height="111" transform="translate(-21.49 49.71) rotate(-45)"/><rect x="49.33" y="-4.95" width="0.36" height="111" transform="translate(-21.24 49.81) rotate(-45)"/><rect x="49.59" y="-5.21" width="0.36" height="111" transform="translate(-20.99 49.92) rotate(-45)"/><polygon points="10.65 10.92 10.9 10.67 89.39 89.15 89.14 89.41 10.65 10.92"/><rect x="50.09" y="-5.72" width="0.36" height="111" transform="translate(-20.48 50.13) rotate(-45)"/><rect x="50.35" y="-5.97" width="0.36" height="111" transform="translate(-20.22 50.24) rotate(-45)"/><polygon points="11.41 10.16 11.67 9.9 90.15 88.39 89.9 88.65 11.41 10.16"/><rect x="50.86" y="-6.48" width="0.36" height="111" transform="translate(-19.71 50.45) rotate(-45)"/><rect x="51.11" y="-6.73" width="0.36" height="111" transform="translate(-19.46 50.55) rotate(-45)"/><rect x="51.37" y="-6.99" width="0.36" height="111" transform="translate(-19.2 50.66) rotate(-45)"/><rect x="51.62" y="-7.24" width="0.36" height="111" transform="translate(-18.95 50.76) rotate(-45)"/><rect x="51.88" y="-7.5" width="0.36" height="111" transform="translate(-18.71 50.56) rotate(-44.75)"/><rect x="52.13" y="-7.75" width="0.36" height="111" transform="translate(-18.44 50.97) rotate(-45)"/><rect x="52.38" y="-8.01" width="0.36" height="111" transform="translate(-18.19 51.08) rotate(-45)"/><rect x="52.64" y="-8.26" width="0.36" height="111" transform="translate(-17.95 50.88) rotate(-44.75)"/><rect x="52.89" y="-8.51" width="0.36" height="111" transform="translate(-17.68 51.29) rotate(-45)"/><rect x="53.15" y="-8.77" width="0.36" height="111" transform="translate(-17.42 51.39) rotate(-45)"/><rect x="53.4" y="-9.02" width="0.36" height="111" transform="translate(-17.17 51.5) rotate(-45)"/><rect x="53.66" y="-9.28" width="0.36" height="111" transform="translate(-16.94 51.3) rotate(-44.75)"/><rect x="53.91" y="-9.53" width="0.36" height="111" transform="translate(-16.66 51.71) rotate(-45)"/><rect x="54.16" y="-9.79" width="0.36" height="111" transform="translate(-16.41 51.82) rotate(-45)"/><rect x="54.42" y="-10.04" width="0.36" height="111" transform="translate(-16.18 51.61) rotate(-44.75)"/><rect x="54.67" y="-10.29" width="0.36" height="111" transform="translate(-15.9 52.03) rotate(-45)"/><rect x="54.93" y="-10.55" width="0.36" height="111" transform="translate(-15.64 52.13) rotate(-45)"/><rect x="55.18" y="-10.8" width="0.36" height="111" transform="translate(-15.39 52.24) rotate(-45)"/><polygon points="16.25 5.32 16.5 5.07 94.99 83.56 94.73 83.81 16.25 5.32"/><rect x="55.69" y="-11.31" width="0.36" height="111" transform="translate(-14.88 52.45) rotate(-45)"/><rect x="55.95" y="-11.57" width="0.36" height="111" transform="translate(-14.63 52.55) rotate(-45)"/><polygon points="17.01 4.56 17.27 4.31 95.75 82.79 95.5 83.05 17.01 4.56"/><rect x="56.45" y="-12.07" width="0.36" height="111" transform="translate(-14.12 52.76) rotate(-45)"/><rect x="56.71" y="-12.33" width="0.36" height="111" transform="translate(-13.86 52.87) rotate(-45)"/><polygon points="17.77 3.8 18.03 3.54 96.51 82.03 96.26 82.29 17.77 3.8"/><rect x="57.22" y="-12.84" width="0.36" height="111" transform="translate(-13.35 53.08) rotate(-45)"/><polygon points="18.28 3.29 18.54 3.03 96.86 81.36 96.86 81.68 96.77 81.78 18.28 3.29"/><polygon points="18.54 3.04 18.79 2.78 96.86 80.85 96.86 81.36 18.54 3.04"/><polygon points="18.79 2.78 19.05 2.53 96.86 80.34 96.86 80.85 18.79 2.78"/><polygon points="19.05 2.52 19.3 2.27 96.86 79.83 96.86 80.34 19.05 2.52"/><polygon points="19.3 2.27 19.55 2.02 96.86 79.33 96.86 79.83 19.3 2.27"/><polygon points="19.55 2.02 19.81 1.76 96.86 78.82 96.86 79.33 19.55 2.02"/><polygon points="19.81 1.76 20.06 1.51 96.86 78.31 96.86 78.82 19.81 1.76"/><polygon points="20.06 1.51 20.32 1.25 96.86 77.8 96.86 78.31 20.06 1.51"/><polygon points="20.32 1.25 20.57 1 96.86 77.29 96.86 77.8 20.32 1.25"/><polygon points="20.57 1 20.83 0.74 96.86 76.78 96.86 77.29 20.57 1"/><polygon points="20.82 0.74 21.08 0.49 96.86 76.27 96.86 76.78 20.82 0.74"/><polygon points="21.08 0.49 21.34 0.24 96.86 75.76 96.86 76.27 21.08 0.49"/><polygon points="21.33 0.24 21.55 0.02 21.63 0.02 96.86 75.25 96.86 75.76 21.33 0.24"/><polygon points="22.13 0.02 96.86 74.75 96.86 75.25 21.63 0.02 22.13 0.02"/><polygon points="22.64 0.02 96.86 74.24 96.86 74.75 22.13 0.02 22.64 0.02"/><polygon points="23.15 0.02 96.86 73.73 96.86 74.24 22.64 0.02 23.15 0.02"/><polygon points="23.66 0.02 96.86 73.22 96.86 73.73 23.15 0.02 23.66 0.02"/><polygon points="24.17 0.02 96.86 72.71 96.86 73.22 23.66 0.02 24.17 0.02"/><polygon points="24.68 0.02 96.86 72.2 96.86 72.71 24.17 0.02 24.68 0.02"/><polygon points="25.19 0.02 96.86 71.69 96.86 72.2 24.68 0.02 25.19 0.02"/><polygon points="25.7 0.02 96.86 71.18 96.86 71.69 25.19 0.02 25.7 0.02"/><polygon points="26.2 0.02 96.86 70.68 96.86 71.18 25.7 0.02 26.2 0.02"/><polygon points="26.71 0.02 96.86 70.17 96.86 70.68 26.2 0.02 26.71 0.02"/><polygon points="27.22 0.02 96.86 69.66 96.86 70.17 26.71 0.02 27.22 0.02"/><polygon points="27.73 0.02 96.86 69.15 96.86 69.66 27.22 0.02 27.73 0.02"/><polygon points="28.24 0.02 96.86 68.64 96.86 69.15 27.73 0.02 28.24 0.02"/><polygon points="28.75 0.02 96.86 68.13 96.86 68.64 28.24 0.02 28.75 0.02"/><polygon points="29.26 0.02 96.86 67.62 96.86 68.13 28.75 0.02 29.26 0.02"/><polygon points="35.66 0.02 96.86 61.23 96.86 67.62 29.26 0.02 35.66 0.02"/><polygon points="42.06 0.02 96.86 54.83 96.86 61.23 35.66 0.02 42.06 0.02"/><polygon points="48.45 0.02 96.86 48.43 96.86 54.83 42.06 0.02 48.45 0.02"/><polygon points="54.85 0.02 96.86 42.03 96.86 48.43 48.45 0.02 54.85 0.02"/><polygon points="61.25 0.02 96.86 35.63 96.86 42.03 54.85 0.02 61.25 0.02"/><polygon points="67.65 0.02 96.86 29.23 96.86 35.63 61.25 0.02 67.65 0.02"/><polygon points="74.05 0.02 96.86 22.83 96.86 29.23 67.65 0.02 74.05 0.02"/><polygon points="96.86 22.83 74.05 0.02 96.86 0.02 96.86 22.83"/><polygon points="37.89 29 38.2 29.31 37.89 29.31 37.89 29"/><polygon points="37.89 28.49 38.71 29.31 38.2 29.31 37.89 29 37.89 28.49"/><polygon points="37.89 27.98 39.22 29.31 38.71 29.31 37.89 28.49 37.89 27.98"/><polygon points="37.89 27.48 39.73 29.31 39.22 29.31 37.89 27.98 37.89 27.48"/><polygon points="37.89 26.96 40.23 29.31 39.73 29.31 37.89 27.48 37.89 26.96"/><polygon points="37.89 26.46 40.74 29.31 40.23 29.31 37.89 26.96 37.89 26.46"/><polygon points="37.89 25.95 41.25 29.31 40.74 29.31 37.89 26.46 37.89 25.95"/><polygon points="37.89 25.44 41.76 29.31 41.25 29.31 37.89 25.95 37.89 25.44"/><polygon points="37.89 24.93 42.27 29.31 41.76 29.31 37.89 25.44 37.89 24.93"/><polygon points="37.89 24.42 42.78 29.31 42.27 29.31 37.89 24.93 37.89 24.42"/><polygon points="37.89 23.91 43.29 29.31 42.78 29.31 37.89 24.42 37.89 23.91"/><polygon points="37.89 23.4 43.8 29.31 43.29 29.31 37.89 23.91 37.89 23.4"/><polygon points="37.89 22.89 44.31 29.31 43.8 29.31 37.89 23.4 37.89 22.89"/><polygon points="37.89 22.39 44.81 29.31 44.31 29.31 37.89 22.89 37.89 22.39"/><polygon points="37.89 21.88 45.32 29.31 44.81 29.31 37.89 22.39 37.89 21.88"/><polygon points="37.89 21.37 45.83 29.31 45.32 29.31 37.89 21.88 37.89 21.37"/><polygon points="37.89 20.86 46.34 29.31 45.83 29.31 37.89 21.37 37.89 20.86"/><polygon points="37.89 20.35 46.85 29.31 46.34 29.31 37.89 20.86 37.89 20.35"/><polygon points="37.89 19.84 47.36 29.31 46.85 29.31 37.89 20.35 37.89 19.84"/><polygon points="37.89 19.33 47.87 29.31 47.36 29.31 37.89 19.84 37.89 19.33"/><polygon points="37.89 18.82 48.38 29.31 47.87 29.31 37.89 19.33 37.89 18.82"/><polygon points="37.89 18.32 48.88 29.31 48.38 29.31 37.89 18.82 37.89 18.32"/><polygon points="37.89 17.81 49.39 29.31 48.88 29.31 37.89 18.32 37.89 17.81"/><polygon points="37.89 17.3 49.9 29.31 49.39 29.31 37.89 17.81 37.89 17.3"/><polygon points="37.89 16.79 50.41 29.31 49.9 29.31 37.89 17.3 37.89 16.79"/><polygon points="37.89 16.28 50.92 29.31 50.41 29.31 37.89 16.79 37.89 16.28"/><polygon points="37.89 15.77 51.43 29.31 50.92 29.31 37.89 16.28 37.89 15.77"/><polygon points="37.89 15.26 51.94 29.31 51.43 29.31 37.89 15.77 37.89 15.26"/><polygon points="37.89 14.76 52.45 29.31 51.94 29.31 37.89 15.26 37.89 14.76"/><polygon points="37.89 14.25 52.96 29.31 52.45 29.31 37.89 14.76 37.89 14.25"/><polygon points="37.89 13.74 53.46 29.31 52.96 29.31 37.89 14.24 37.89 13.74"/><polygon points="37.89 13.23 53.97 29.31 53.46 29.31 37.89 13.74 37.89 13.23"/><polygon points="37.89 12.72 54.48 29.31 53.97 29.31 37.89 13.23 37.89 12.72"/><polygon points="37.89 12.21 54.99 29.31 54.48 29.31 37.89 12.72 37.89 12.21"/><polygon points="37.89 11.7 55.5 29.31 54.99 29.31 37.89 12.21 37.89 11.7"/><polygon points="37.89 11.19 56.01 29.31 55.5 29.31 37.89 11.7 37.89 11.19"/><polygon points="37.89 10.68 56.52 29.31 56.01 29.31 37.89 11.19 37.89 10.68"/><polygon points="37.89 10.18 57.02 29.31 56.52 29.31 37.89 10.68 37.89 10.18"/><polygon points="37.89 9.67 57.53 29.31 57.02 29.31 37.89 10.18 37.89 9.67"/><polygon points="37.89 9.16 58.04 29.31 57.53 29.31 37.89 9.67 37.89 9.16"/><polygon points="37.89 8.65 58.55 29.31 58.04 29.31 37.89 9.16 37.89 8.65"/><polygon points="37.89 4.72 39.12 3.48 64.95 29.31 58.55 29.31 37.89 8.65 37.89 4.72"/><polygon points="39.12 3.48 39.45 3.15 45.19 3.15 71.35 29.31 64.95 29.31 39.12 3.48"/><polygon points="51.59 3.15 77.75 29.31 71.35 29.31 45.19 3.15 51.59 3.15"/><polygon points="57.99 3.15 84.15 29.31 77.75 29.31 51.59 3.15 57.99 3.15"/><polygon points="64.39 3.15 90.5 29.26 90.45 29.31 84.15 29.31 57.99 3.15 64.39 3.15"/><polygon points="70.79 3.15 92.03 24.4 92.03 27.73 90.5 29.26 64.39 3.15 70.79 3.15"/><polygon points="77.19 3.15 92.03 18 92.03 24.4 70.79 3.15 77.19 3.15"/><polygon points="92.03 18 77.19 3.16 92.03 3.16 92.03 18"/><polygon points="26.01 34.93 26.15 35.07 26.01 35.07 26.01 34.93"/><polygon points="26.01 34.42 26.66 35.07 26.15 35.07 26.01 34.93 26.01 34.42"/><polygon points="26.01 33.91 27.16 35.07 26.66 35.07 26.01 34.42 26.01 33.91"/><polygon points="26.01 33.4 27.67 35.07 27.16 35.07 26.01 33.91 26.01 33.4"/><polygon points="26.01 32.89 28.18 35.07 27.67 35.07 26.01 33.4 26.01 32.89"/><polygon points="26.01 32.38 28.69 35.07 28.18 35.07 26.01 32.89 26.01 32.38"/><polygon points="26.01 31.88 29.2 35.07 28.69 35.07 26.01 32.38 26.01 31.88"/><polygon points="26.01 31.37 29.71 35.07 29.2 35.07 26.01 31.87 26.01 31.37"/><polygon points="26.01 30.86 30.22 35.07 29.71 35.07 26.01 31.37 26.01 30.86"/><polygon points="26.01 30.35 30.73 35.07 30.22 35.07 26.01 30.86 26.01 30.35"/><polygon points="26.01 29.84 31.23 35.07 30.73 35.07 26.01 30.35 26.01 29.84"/><polygon points="26.01 29.33 31.74 35.07 31.23 35.07 26.01 29.84 26.01 29.33"/><polygon points="26.01 28.82 32.25 35.07 31.74 35.07 26.01 29.33 26.01 28.82"/><polygon points="26.01 28.31 32.76 35.07 32.25 35.07 26.01 28.82 26.01 28.31"/><polygon points="26.01 27.81 33.27 35.07 32.76 35.07 26.01 28.31 26.01 27.81"/><polygon points="26.01 27.3 33.78 35.07 33.27 35.07 26.01 27.81 26.01 27.3"/><polygon points="26.01 26.79 34.29 35.07 33.78 35.07 26.01 27.3 26.01 26.79"/><polygon points="26.01 26.28 34.8 35.07 34.29 35.07 26.01 26.79 26.01 26.28"/><polygon points="26.01 25.77 35.31 35.07 34.8 35.07 26.01 26.28 26.01 25.77"/><polygon points="26.01 25.26 35.81 35.07 35.31 35.07 26.01 25.77 26.01 25.26"/><polygon points="26.01 24.75 36.32 35.07 35.81 35.07 26.01 25.26 26.01 24.75"/><polygon points="26.01 24.24 36.83 35.07 36.32 35.07 26.01 24.75 26.01 24.24"/><polygon points="26.01 23.73 37.34 35.07 36.83 35.07 26.01 24.24 26.01 23.73"/><polygon points="26.01 23.23 37.85 35.07 37.34 35.07 26.01 23.73 26.01 23.23"/><polygon points="26.01 22.72 38.36 35.07 37.85 35.07 26.01 23.23 26.01 22.72"/><polygon points="26.01 22.21 38.87 35.07 38.36 35.07 26.01 22.72 26.01 22.21"/><polygon points="26.01 21.7 39.38 35.07 38.87 35.07 26.01 22.21 26.01 21.7"/><polygon points="26.01 21.19 39.89 35.07 39.38 35.07 26.01 21.7 26.01 21.19"/><polygon points="26.01 20.68 40.39 35.07 39.89 35.07 26.01 21.19 26.01 20.68"/><polygon points="26.01 20.17 40.9 35.07 40.39 35.07 26.01 20.68 26.01 20.17"/><polygon points="26.01 19.66 41.41 35.07 40.9 35.07 26.01 20.17 26.01 19.66"/><polygon points="26.01 19.16 41.92 35.07 41.41 35.07 26.01 19.66 26.01 19.16"/><polygon points="26.01 18.65 42.43 35.07 41.92 35.07 26.01 19.16 26.01 18.65"/><polygon points="26.01 18.14 42.94 35.07 42.43 35.07 26.01 18.65 26.01 18.14"/><polygon points="26.01 17.63 43.45 35.07 42.94 35.07 26.01 18.14 26.01 17.63"/><polygon points="26.01 17.12 43.95 35.07 43.45 35.07 26.01 17.63 26.01 17.12"/><polygon points="26.01 16.61 44.47 35.07 43.95 35.07 26.01 17.12 26.01 16.61"/><polygon points="26.01 16.1 44.97 35.07 44.47 35.07 26.01 16.61 26.01 16.1"/><polygon points="26.01 15.59 45.48 35.07 44.97 35.07 26.01 16.1 26.01 15.59"/><polygon points="26.01 15.09 45.99 35.07 45.48 35.07 26.01 15.59 26.01 15.09"/><polygon points="26.01 14.58 46.5 35.07 45.99 35.07 26.01 15.09 26.01 14.58"/><polygon points="26.01 14.07 47.01 35.07 46.5 35.07 26.01 14.58 26.01 14.07"/><polygon points="26.01 13.56 47.52 35.07 47.01 35.07 26.01 14.07 26.01 13.56"/><polygon points="26.01 13.05 48.02 35.07 47.52 35.07 26.01 13.56 26.01 13.05"/><polygon points="26.01 12.54 48.53 35.07 48.02 35.07 26.01 13.05 26.01 12.54"/><polygon points="26.01 12.03 49.04 35.07 48.53 35.07 26.01 12.54 26.01 12.03"/><polygon points="26.01 11.52 49.55 35.07 49.04 35.07 26.01 12.03 26.01 11.52"/><polygon points="26.01 11.02 50.06 35.07 49.55 35.07 26.01 11.52 26.01 11.02"/><polygon points="26.17 10.67 50.57 35.07 50.06 35.07 26.01 11.02 26.01 10.67 26.17 10.67"/><polygon points="26.68 10.67 51.08 35.07 50.57 35.07 26.17 10.67 26.68 10.67"/><polygon points="27.19 10.67 51.59 35.07 51.08 35.07 26.68 10.67 27.19 10.67"/><polygon points="27.7 10.67 52.09 35.07 51.59 35.07 27.19 10.67 27.7 10.67"/><polygon points="28.21 10.67 52.61 35.07 52.1 35.07 27.7 10.67 28.21 10.67"/><polygon points="28.72 10.67 53.12 35.07 52.6 35.07 28.21 10.67 28.72 10.67"/><polygon points="29.23 10.67 53.62 35.07 53.11 35.07 28.72 10.67 29.23 10.67"/><polygon points="29.73 10.67 54.13 35.07 53.62 35.07 29.23 10.67 29.73 10.67"/><polygon points="30.24 10.67 54.64 35.07 54.13 35.07 29.73 10.67 30.24 10.67"/><polygon points="30.75 10.67 55.15 35.07 54.64 35.07 30.24 10.67 30.75 10.67"/><polygon points="31.26 10.67 55.66 35.07 55.15 35.07 30.75 10.67 31.26 10.67"/><polygon points="31.77 10.67 56.16 35.07 55.66 35.07 31.26 10.67 31.77 10.67"/><polygon points="32.28 10.67 56.67 35.07 56.17 35.07 31.77 10.67 32.28 10.67"/><polygon points="32.79 10.67 57.18 35.07 56.67 35.07 32.28 10.67 32.79 10.67"/><polygon points="33.3 10.67 57.69 35.07 57.18 35.07 32.79 10.67 33.3 10.67"/><polygon points="33.8 10.67 58.2 35.07 57.69 35.07 33.3 10.67 33.8 10.67"/><polygon points="34.31 10.67 58.71 35.07 58.2 35.07 33.8 10.67 34.31 10.67"/><polygon points="34.82 10.67 59.22 35.07 58.71 35.07 34.31 10.67 34.82 10.67"/><polygon points="35.33 10.67 59.73 35.07 59.22 35.07 34.82 10.67 35.33 10.67"/><polygon points="35.84 10.67 60.23 35.07 59.73 35.07 35.33 10.67 35.84 10.67"/><polygon points="36.35 10.67 60.75 35.07 60.24 35.07 35.84 10.67 36.35 10.67"/><polygon points="36.86 10.67 61.25 35.07 60.74 35.07 36.35 10.67 36.86 10.67"/><polygon points="37.37 10.67 61.76 35.07 61.25 35.07 36.86 10.67 37.37 10.67"/><polygon points="37.88 10.67 62.27 35.07 61.76 35.07 37.37 10.67 37.88 10.67"/><polygon points="38.38 10.67 62.78 35.07 62.27 35.07 37.87 10.67 38.38 10.67"/><polygon points="38.89 10.67 63.29 35.07 62.78 35.07 38.38 10.67 38.89 10.67"/><polygon points="39.4 10.67 63.8 35.07 63.29 35.07 38.89 10.67 39.4 10.67"/><polygon points="39.91 10.67 64.31 35.07 63.8 35.07 39.4 10.67 39.91 10.67"/><polygon points="46.31 10.67 70.71 35.07 64.31 35.07 39.91 10.67 46.31 10.67"/><polygon points="52.71 10.67 76.53 34.49 76.53 35.07 70.71 35.07 46.31 10.67 52.71 10.67"/><polygon points="59.11 10.67 76.53 28.09 76.53 34.49 52.71 10.67 59.11 10.67"/><polygon points="65.51 10.67 76.53 21.69 76.53 28.09 59.11 10.67 65.51 10.67"/><polygon points="71.91 10.67 76.53 15.29 76.53 21.69 65.51 10.67 71.91 10.67"/><polygon points="76.53 15.29 71.91 10.67 76.53 10.67 76.53 15.29"/><polygon points="69.48 52.45 69.93 52.9 69.48 52.9 69.48 52.45"/><polygon points="69.48 51.95 70.44 52.9 69.93 52.9 69.48 52.45 69.48 51.95"/><polygon points="69.48 51.44 70.94 52.9 70.44 52.9 69.48 51.95 69.48 51.44"/><polygon points="69.48 50.93 71.45 52.9 70.94 52.9 69.48 51.44 69.48 50.93"/><polygon points="69.48 50.42 71.96 52.9 71.45 52.9 69.48 50.93 69.48 50.42"/><polygon points="69.48 49.91 72.47 52.9 71.96 52.9 69.48 50.42 69.48 49.91"/><polygon points="69.48 49.4 72.98 52.9 72.47 52.9 69.48 49.91 69.48 49.4"/><polygon points="69.48 48.89 73.49 52.9 72.98 52.9 69.48 49.4 69.48 48.89"/><polygon points="69.48 48.38 74 52.9 73.49 52.9 69.48 48.89 69.48 48.38"/><polygon points="69.48 47.88 74.51 52.9 74 52.9 69.48 48.38 69.48 47.88"/><polygon points="69.48 47.37 75.02 52.9 74.51 52.9 69.48 47.88 69.48 47.37"/><polygon points="69.48 46.86 75.52 52.9 75.02 52.9 69.48 47.37 69.48 46.86"/><polygon points="69.48 46.35 76.03 52.9 75.52 52.9 69.48 46.86 69.48 46.35"/><polygon points="69.48 45.84 76.54 52.9 76.03 52.9 69.48 46.35 69.48 45.84"/><polygon points="69.48 45.33 77.05 52.9 76.54 52.9 69.48 45.84 69.48 45.33"/><polygon points="69.48 44.82 77.51 52.85 77.51 52.9 77.05 52.9 69.48 45.33 69.48 44.82"/><polygon points="69.48 44.31 77.51 52.34 77.51 52.85 69.48 44.82 69.48 44.31"/><polygon points="69.48 43.81 77.51 51.83 77.51 52.34 69.48 44.31 69.48 43.81"/><polygon points="69.48 43.3 77.51 51.32 77.51 51.83 69.48 43.81 69.48 43.3"/><polygon points="69.48 42.79 77.51 50.81 77.51 51.32 69.48 43.3 69.48 42.79"/><polygon points="69.48 42.28 77.51 50.3 77.51 50.81 69.48 42.79 69.48 42.28"/><polygon points="69.48 41.77 77.51 49.8 77.51 50.31 69.48 42.28 69.48 41.77"/><polygon points="69.48 41.26 77.51 49.28 77.51 49.8 69.48 41.77 69.48 41.26"/><polygon points="69.48 40.75 77.51 48.78 77.51 49.29 69.48 41.26 69.48 40.75"/><polygon points="69.48 40.24 77.51 48.27 77.51 48.78 69.48 40.75 69.48 40.24"/><polygon points="69.48 33.84 77.51 41.87 77.51 48.27 69.48 40.24 69.48 33.84"/><polygon points="75.73 33.7 77.51 35.47 77.51 41.87 69.48 33.84 69.48 33.7 75.73 33.7"/><polygon points="77.51 35.47 75.73 33.7 77.51 33.7 77.51 35.47"/><polygon points="6.12 80.16 22.16 96.2 6.12 96.2 6.12 80.16"/><polygon points="6.12 79.66 22.66 96.2 22.16 96.2 6.12 80.16 6.12 79.66"/><polygon points="6.12 79.15 23.17 96.2 22.66 96.2 6.12 79.65 6.12 79.15"/><polygon points="6.12 78.64 23.68 96.2 23.17 96.2 6.12 79.14 6.12 78.64"/><polygon points="6.12 78.13 24.19 96.2 23.68 96.2 6.12 78.64 6.12 78.13"/><polygon points="6.12 77.62 24.7 96.2 24.19 96.2 6.12 78.13 6.12 77.62"/><polygon points="6.12 77.11 25.21 96.2 24.7 96.2 6.12 77.62 6.12 77.11"/><polygon points="6.12 76.6 25.72 96.2 25.21 96.2 6.12 77.11 6.12 76.6"/><polygon points="6.12 76.09 26.22 96.2 25.72 96.2 6.12 76.6 6.12 76.09"/><polygon points="6.12 75.58 26.73 96.2 26.22 96.2 6.12 76.09 6.12 75.58"/><polygon points="6.12 75.08 27.24 96.2 26.73 96.2 6.12 75.58 6.12 75.08"/><polygon points="6.12 74.57 27.75 96.2 27.24 96.2 6.12 75.08 6.12 74.57"/><polygon points="6.12 74.06 28.26 96.2 27.75 96.2 6.12 74.57 6.12 74.06"/><polygon points="6.12 73.55 28.77 96.2 28.26 96.2 6.12 74.06 6.12 73.55"/><polygon points="6.12 73.04 29.28 96.2 28.77 96.2 6.12 73.55 6.12 73.04"/><polygon points="6.12 72.53 29.79 96.2 29.28 96.2 6.12 73.04 6.12 72.53"/><polygon points="6.12 72.02 30.3 96.2 29.79 96.2 6.12 72.53 6.12 72.02"/><polygon points="6.12 71.51 30.8 96.2 30.3 96.2 6.12 72.02 6.12 71.51"/><polygon points="6.12 71 31.31 96.2 30.8 96.2 6.12 71.51 6.12 71"/><polygon points="6.12 70.5 31.82 96.2 31.31 96.2 6.12 71 6.12 70.5"/><polygon points="6.12 69.99 32.33 96.2 31.82 96.2 6.12 70.5 6.12 69.99"/><polygon points="6.12 69.48 32.84 96.2 32.33 96.2 6.12 69.99 6.12 69.48"/><polygon points="6.12 68.97 33.35 96.2 32.84 96.2 6.12 69.48 6.12 68.97"/><polygon points="6.12 68.46 33.86 96.2 33.35 96.2 6.12 68.97 6.12 68.46"/><polygon points="6.12 67.95 34.37 96.2 33.86 96.2 6.12 68.46 6.12 67.95"/><polygon points="6.12 67.44 34.87 96.2 34.37 96.2 6.12 67.95 6.12 67.44"/><polygon points="6.12 66.94 35.38 96.2 34.87 96.2 6.12 67.44 6.12 66.94"/><polygon points="6.12 66.43 35.89 96.2 35.38 96.2 6.12 66.93 6.12 66.43"/><polygon points="6.12 65.92 36.4 96.2 35.89 96.2 6.12 66.43 6.12 65.92"/><polygon points="6.12 65.41 36.91 96.2 36.4 96.2 6.12 65.92 6.12 65.41"/><polygon points="6.12 64.9 37.42 96.2 36.91 96.2 6.12 65.41 6.12 64.9"/><polygon points="6.12 64.39 37.93 96.2 37.42 96.2 6.12 64.9 6.12 64.39"/><polygon points="6.12 63.88 38.44 96.2 37.93 96.2 6.12 64.39 6.12 63.88"/><polygon points="6.12 63.37 38.95 96.2 38.44 96.2 6.12 63.88 6.12 63.37"/><polygon points="6.12 62.87 39.45 96.2 38.95 96.2 6.12 63.37 6.12 62.87"/><polygon points="6.12 62.35 39.96 96.2 39.45 96.2 6.12 62.87 6.12 62.35"/><polygon points="6.12 61.85 40.47 96.2 39.96 96.2 6.12 62.35 6.12 61.85"/><polygon points="6.12 61.34 40.98 96.2 40.47 96.2 6.12 61.85 6.12 61.34"/><polygon points="6.12 60.83 41.49 96.2 40.98 96.2 6.12 61.34 6.12 60.83"/><polygon points="6.12 60.32 42 96.2 41.49 96.2 6.12 60.83 6.12 60.32"/><polygon points="6.12 59.81 42.51 96.2 42 96.2 6.12 60.32 6.12 59.81"/><polygon points="6.12 59.3 43.02 96.2 42.51 96.2 6.12 59.81 6.12 59.3"/><polygon points="6.12 58.79 43.52 96.2 43.02 96.2 6.12 59.3 6.12 58.79"/><polygon points="6.12 58.29 44.03 96.2 43.52 96.2 6.12 58.79 6.12 58.29"/><polygon points="6.12 57.78 44.54 96.2 44.03 96.2 6.12 58.29 6.12 57.78"/><polygon points="6.12 57.27 45.05 96.2 44.54 96.2 6.12 57.78 6.12 57.27"/><polygon points="6.12 56.76 45.56 96.2 45.05 96.2 6.12 57.27 6.12 56.76"/><polygon points="6.12 56.25 46.07 96.2 45.56 96.2 6.12 56.76 6.12 56.25"/><polygon points="6.12 55.74 46.58 96.2 46.07 96.2 6.12 56.25 6.12 55.74"/><polygon points="6.12 55.23 47.08 96.2 46.58 96.2 6.12 55.74 6.12 55.23"/><polygon points="6.12 54.73 47.59 96.2 47.08 96.2 6.12 55.23 6.12 54.73"/><polygon points="6.12 54.22 48.1 96.2 47.59 96.2 6.12 54.73 6.12 54.22"/><polygon points="6.12 53.71 48.61 96.2 48.1 96.2 6.12 54.21 6.12 53.71"/><polygon points="6.12 53.2 49.12 96.2 48.61 96.2 6.12 53.7 6.12 53.2"/><polygon points="6.12 52.69 49.63 96.2 49.12 96.2 6.12 53.2 6.12 52.69"/><polygon points="6.12 52.18 50.14 96.2 49.63 96.2 6.12 52.69 6.12 52.18"/><polygon points="6.12 51.67 50.65 96.2 50.14 96.2 6.12 52.18 6.12 51.67"/><polygon points="6.12 51.16 51.16 96.2 50.65 96.2 6.12 51.67 6.12 51.16"/><polygon points="6.12 50.65 51.66 96.2 51.16 96.2 6.12 51.16 6.12 50.65"/><polygon points="6.12 50.15 52.17 96.2 51.66 96.2 6.12 50.65 6.12 50.15"/><polygon points="6.12 49.64 52.68 96.2 52.17 96.2 6.12 50.15 6.12 49.64"/><polygon points="6.12 49.13 53.19 96.2 52.68 96.2 6.12 49.63 6.12 49.13"/><polygon points="6.12 48.62 53.7 96.2 53.19 96.2 6.12 49.13 6.12 48.62"/><polygon points="6.12 48.11 54.21 96.2 53.7 96.2 6.12 48.62 6.12 48.11"/><polygon points="6.12 47.6 54.72 96.2 54.21 96.2 6.12 48.11 6.12 47.6"/><polygon points="6.12 47.09 55.23 96.2 54.72 96.2 6.12 47.6 6.12 47.09"/><polygon points="6.12 46.58 55.74 96.2 55.23 96.2 6.12 47.09 6.12 46.58"/><polygon points="6.12 46.08 56.24 96.2 55.74 96.2 6.12 46.58 6.12 46.08"/><polygon points="6.12 45.57 56.75 96.2 56.24 96.2 6.12 46.07 6.12 45.57"/><polygon points="6.12 45.06 57.26 96.2 56.75 96.2 6.12 45.57 6.12 45.06"/><polygon points="6.12 44.55 57.77 96.2 57.26 96.2 6.12 45.06 6.12 44.55"/><polygon points="6.12 44.04 58.28 96.2 57.77 96.2 6.12 44.55 6.12 44.04"/><polygon points="6.12 43.53 58.79 96.2 58.28 96.2 6.12 44.04 6.12 43.53"/><polygon points="6.12 43.02 59.3 96.2 58.79 96.2 6.12 43.53 6.12 43.02"/><polygon points="6.12 42.51 59.8 96.2 59.3 96.2 6.12 43.02 6.12 42.51"/><polygon points="6.12 42 60.31 96.2 59.8 96.2 6.12 42.51 6.12 42"/><polygon points="6.12 41.5 60.82 96.2 60.31 96.2 6.12 42 6.12 41.5"/><polygon points="6.12 40.99 61.33 96.2 60.82 96.2 6.12 41.49 6.12 40.99"/><polygon points="6.12 40.48 61.84 96.2 61.33 96.2 6.12 40.99 6.12 40.48"/><polygon points="6.12 39.97 62.35 96.2 61.84 96.2 6.12 40.48 6.12 39.97"/><polygon points="6.12 39.46 62.86 96.2 62.35 96.2 6.12 39.97 6.12 39.46"/><polygon points="6.12 38.95 63.37 96.2 62.86 96.2 6.12 39.46 6.12 38.95"/><polygon points="6.12 38.44 63.88 96.2 63.37 96.2 6.12 38.95 6.12 38.44"/><polygon points="6.12 37.93 64.39 96.2 63.88 96.2 6.12 38.44 6.12 37.93"/><polygon points="6.12 37.43 64.89 96.2 64.39 96.2 6.12 37.93 6.12 37.43"/><polygon points="6.12 36.92 65.4 96.2 64.89 96.2 6.12 37.43 6.12 36.92"/><polygon points="6.12 36.41 65.91 96.2 65.4 96.2 6.12 36.92 6.12 36.41"/><polygon points="6.12 35.9 66.42 96.2 65.91 96.2 6.12 36.41 6.12 35.9"/><polygon points="6.12 35.39 66.93 96.2 66.42 96.2 6.12 35.9 6.12 35.39"/><polygon points="6.12 34.88 67.44 96.2 66.93 96.2 6.12 35.39 6.12 34.88"/><polygon points="6.12 34.37 67.94 96.2 67.44 96.2 6.12 34.88 6.12 34.37"/><polygon points="6.12 33.86 68.45 96.2 67.94 96.2 6.12 34.37 6.12 33.86"/><polygon points="6.12 33.35 68.96 96.2 68.45 96.2 6.12 33.86 6.12 33.35"/><polygon points="6.12 32.85 69.47 96.2 68.96 96.2 6.12 33.35 6.12 32.85"/><polygon points="6.12 32.34 69.98 96.2 69.47 96.2 6.12 32.85 6.12 32.34"/><polygon points="6.12 31.83 70.49 96.2 69.98 96.2 6.12 32.34 6.12 31.83"/><polygon points="6.12 31.32 71 96.2 70.49 96.2 6.12 31.83 6.12 31.32"/><polygon points="6.12 30.81 71.51 96.2 71 96.2 6.12 31.32 6.12 30.81"/><polygon points="6.12 30.3 72.02 96.2 71.51 96.2 6.12 30.81 6.12 30.3"/><polygon points="6.12 29.79 72.52 96.2 72.02 96.2 6.12 30.3 6.12 29.79"/><polygon points="6.12 29.28 73.03 96.2 72.52 96.2 6.12 29.79 6.12 29.28"/><polygon points="6.12 28.78 73.54 96.2 73.03 96.2 6.12 29.28 6.12 28.78"/><polygon points="6.12 28.27 74.05 96.2 73.54 96.2 6.12 28.78 6.12 28.27"/><polygon points="6.12 27.76 74.56 96.2 74.05 96.2 6.12 28.27 6.12 27.76"/><polygon points="6.12 27.25 75.07 96.2 74.56 96.2 6.12 27.76 6.12 27.25"/><polygon points="6.12 26.74 75.58 96.2 75.07 96.2 6.12 27.25 6.12 26.74"/><polygon points="6.12 26.23 76.09 96.2 75.58 96.2 6.12 26.74 6.12 26.23"/><polygon points="6.12 25.72 76.6 96.2 76.09 96.2 6.12 26.23 6.12 25.72"/><polygon points="6.12 25.21 77.1 96.2 76.6 96.2 6.12 25.72 6.12 25.21"/><polygon points="6.12 24.7 77.61 96.2 77.1 96.2 6.12 25.21 6.12 24.7"/><polygon points="6.12 24.2 77.94 96.01 77.75 96.2 77.61 96.2 6.12 24.7 6.12 24.2"/><polygon points="6.12 23.69 78.19 95.76 77.94 96.01 6.12 24.2 6.12 23.69"/><polygon points="6.12 23.18 78.44 95.5 78.19 95.76 6.12 23.69 6.12 23.18"/><polygon points="6.12 22.67 78.7 95.25 78.44 95.5 6.12 23.18 6.12 22.67"/><polygon points="6.12 22.16 78.95 95 78.7 95.25 6.12 22.67 6.12 22.16"/><polygon points="6.12 21.65 79.21 94.74 78.95 95 6.12 22.16 6.12 21.65"/><polygon points="6.12 21.14 79.46 94.49 79.21 94.74 6.12 21.65 6.12 21.14"/><polygon points="6.12 21.04 6.32 20.84 79.71 94.23 79.46 94.49 6.12 21.14 6.12 21.04"/><rect x="42.96" y="5.51" width="0.36" height="103.8" transform="translate(-27.96 47.32) rotate(-45)"/><polygon points="6.57 20.58 6.83 20.33 80.22 93.72 79.97 93.98 6.57 20.58"/><rect x="43.47" y="5" width="0.36" height="103.8" transform="translate(-27.45 47.53) rotate(-45)"/><rect x="43.73" y="4.75" width="0.36" height="103.8" transform="translate(-27.19 47.64) rotate(-45)"/><rect x="43.98" y="4.49" width="0.36" height="103.8" transform="translate(-26.94 47.74) rotate(-45)"/><rect x="44.24" y="4.24" width="0.36" height="103.8" transform="translate(-26.65 47.54) rotate(-44.75)"/><rect x="44.49" y="3.98" width="0.36" height="103.8" transform="translate(-26.43 47.95) rotate(-45)"/><rect x="44.75" y="3.73" width="0.36" height="103.8" transform="translate(-26.18 48.06) rotate(-45)"/><polygon points="8.35 18.8 8.61 18.55 82 91.94 81.75 92.2 8.35 18.8"/><rect x="45.25" y="3.22" width="0.36" height="103.8" transform="translate(-25.67 48.27) rotate(-45)"/><rect x="45.51" y="2.96" width="0.36" height="103.8" transform="translate(-25.41 48.37) rotate(-45)"/><polygon points="9.12 18.04 9.37 17.79 82.77 91.18 82.51 91.43 9.12 18.04"/><rect x="46.02" y="2.46" width="0.36" height="103.8" transform="translate(-24.9 48.59) rotate(-45)"/><rect x="46.27" y="2.2" width="0.36" height="103.8" transform="translate(-24.65 48.69) rotate(-45)"/><rect x="46.53" y="1.95" width="0.36" height="103.8" transform="translate(-24.39 48.8) rotate(-45)"/><rect x="46.78" y="1.69" width="0.36" height="103.8" transform="translate(-24.14 48.9) rotate(-45)"/><polygon points="10.39 16.77 10.64 16.51 84.04 89.91 83.78 90.16 10.39 16.77"/><polygon points="10.64 16.51 10.74 16.42 11.06 16.42 84.29 89.65 84.04 89.91 10.64 16.51"/><polygon points="11.56 16.42 84.55 89.4 84.29 89.65 11.05 16.42 11.56 16.42"/><polygon points="12.07 16.42 84.8 89.15 84.55 89.4 11.56 16.42 12.07 16.42"/><polygon points="12.58 16.42 85.06 88.89 84.8 89.15 12.07 16.42 12.58 16.42"/><polygon points="13.09 16.42 85.31 88.64 85.06 88.89 12.58 16.42 13.09 16.42"/><polygon points="13.6 16.42 85.57 88.38 85.31 88.64 13.09 16.42 13.6 16.42"/><polygon points="14.11 16.42 85.82 88.13 85.57 88.38 13.6 16.42 14.11 16.42"/><polygon points="14.62 16.42 86.08 87.87 85.82 88.13 14.11 16.42 14.62 16.42"/><polygon points="15.13 16.42 86.33 87.62 86.07 87.87 14.62 16.42 15.13 16.42"/><polygon points="15.63 16.42 86.58 87.36 86.33 87.62 15.13 16.42 15.63 16.42"/><polygon points="16.14 16.42 86.84 87.11 86.58 87.36 15.63 16.42 16.14 16.42"/><polygon points="16.65 16.42 87.09 86.85 86.84 87.11 16.14 16.42 16.65 16.42"/><polygon points="17.16 16.42 87.35 86.6 87.09 86.85 16.65 16.42 17.16 16.42"/><polygon points="17.67 16.42 87.6 86.35 87.35 86.6 17.16 16.42 17.67 16.42"/><polygon points="18.18 16.42 87.86 86.09 87.6 86.35 17.67 16.42 18.18 16.42"/><polygon points="18.69 16.42 88.11 85.84 87.86 86.09 18.18 16.42 18.69 16.42"/><polygon points="19.2 16.42 88.36 85.58 88.11 85.84 18.69 16.42 19.2 16.42"/><polygon points="19.7 16.42 88.62 85.33 88.36 85.58 19.2 16.42 19.7 16.42"/><polygon points="20.21 16.42 88.87 85.07 88.62 85.33 19.71 16.42 20.21 16.42"/><polygon points="20.72 16.42 89.13 84.82 88.87 85.07 20.21 16.42 20.72 16.42"/><polygon points="21.23 16.42 89.38 84.57 89.13 84.82 20.72 16.42 21.23 16.42"/><polygon points="21.74 16.42 89.64 84.31 89.38 84.57 21.23 16.42 21.74 16.42"/><polygon points="22.25 16.42 89.89 84.06 89.64 84.31 21.74 16.42 22.25 16.42"/><polygon points="22.76 16.42 90.15 83.8 89.89 84.06 22.25 16.42 22.76 16.42"/><polygon points="23.27 16.42 90.4 83.55 90.14 83.8 22.76 16.42 23.27 16.42"/><polygon points="23.77 16.42 90.65 83.29 90.4 83.55 23.27 16.42 23.77 16.42"/><polygon points="24.28 16.42 90.91 83.04 90.66 83.29 23.77 16.42 24.28 16.42"/><polygon points="24.79 16.42 91.16 82.78 90.91 83.04 24.28 16.42 24.79 16.42"/><polygon points="25.3 16.42 91.42 82.53 91.16 82.78 24.79 16.42 25.3 16.42"/><polygon points="25.81 16.42 91.67 82.27 91.42 82.53 25.3 16.42 25.81 16.42"/><polygon points="26.32 16.42 91.92 82.02 91.67 82.27 25.81 16.42 26.32 16.42"/><polygon points="26.83 16.42 92.18 81.77 91.93 82.02 26.32 16.42 26.83 16.42"/><polygon points="27.34 16.42 92.44 81.51 92.18 81.77 26.83 16.42 27.34 16.42"/><polygon points="27.85 16.42 92.69 81.26 92.43 81.51 27.34 16.42 27.85 16.42"/><polygon points="28.35 16.42 92.94 81 92.69 81.26 27.84 16.42 28.35 16.42"/><polygon points="28.86 16.42 93.2 80.75 92.94 81 28.35 16.42 28.86 16.42"/><polygon points="29.37 16.42 93.45 80.49 93.2 80.75 28.86 16.42 29.37 16.42"/><polygon points="29.88 16.42 93.71 80.24 93.45 80.49 29.37 16.42 29.88 16.42"/><polygon points="30.39 16.42 93.93 79.96 93.93 80.01 93.71 80.24 29.88 16.42 30.39 16.42"/><polygon points="30.9 16.42 93.94 79.45 93.94 79.96 30.39 16.42 30.9 16.42"/><polygon points="31.41 16.42 93.93 78.94 93.93 79.45 30.9 16.42 31.41 16.42"/><polygon points="31.92 16.42 93.94 78.43 93.94 78.94 31.41 16.42 31.92 16.42"/><polygon points="32.42 16.42 93.93 77.92 93.93 78.43 31.91 16.42 32.42 16.42"/><polygon points="32.93 16.42 93.94 77.42 93.94 77.92 32.42 16.42 32.93 16.42"/><polygon points="33.44 16.42 93.94 76.91 93.94 77.42 32.93 16.42 33.44 16.42"/><polygon points="33.95 16.42 93.94 76.4 93.94 76.91 33.44 16.42 33.95 16.42"/><polygon points="34.46 16.42 93.94 75.89 93.94 76.4 33.95 16.42 34.46 16.42"/><polygon points="34.97 16.42 93.94 75.38 93.94 75.89 34.46 16.42 34.97 16.42"/><polygon points="35.48 16.42 93.94 74.87 93.94 75.38 34.97 16.42 35.48 16.42"/><polygon points="35.99 16.42 93.94 74.36 93.94 74.87 35.48 16.42 35.99 16.42"/><polygon points="36.49 16.42 93.94 73.86 93.94 74.36 35.98 16.42 36.49 16.42"/><polygon points="37 16.42 93.93 73.35 93.93 73.86 36.49 16.42 37 16.42"/><polygon points="37.51 16.42 93.94 72.84 93.94 73.35 37 16.42 37.51 16.42"/><polygon points="38.02 16.42 93.93 72.33 93.93 72.84 37.51 16.42 38.02 16.42"/><polygon points="38.53 16.42 93.94 71.82 93.94 72.33 38.02 16.42 38.53 16.42"/><polygon points="39.04 16.42 93.93 71.31 93.93 71.82 38.53 16.42 39.04 16.42"/><polygon points="39.55 16.42 93.94 70.8 93.94 71.31 39.04 16.42 39.55 16.42"/><polygon points="40.06 16.42 93.94 70.29 93.94 70.8 39.55 16.42 40.06 16.42"/><polygon points="40.56 16.42 93.94 69.78 93.94 70.29 40.05 16.42 40.56 16.42"/><polygon points="41.07 16.42 93.94 69.28 93.94 69.78 40.56 16.42 41.07 16.42"/><polygon points="41.58 16.42 93.94 68.77 93.94 69.28 41.07 16.42 41.58 16.42"/><polygon points="42.09 16.42 93.94 68.26 93.94 68.77 41.58 16.42 42.09 16.42"/><polygon points="42.6 16.42 93.93 67.75 93.93 68.26 42.09 16.42 42.6 16.42"/><polygon points="43.11 16.42 93.94 67.24 93.94 67.75 42.6 16.42 43.11 16.42"/><polygon points="43.62 16.42 93.93 66.73 93.93 67.24 43.11 16.42 43.62 16.42"/><polygon points="44.13 16.42 93.94 66.22 93.94 66.73 43.62 16.42 44.13 16.42"/><polygon points="44.63 16.42 93.93 65.71 93.93 66.22 44.13 16.42 44.63 16.42"/><polygon points="45.14 16.42 93.94 65.2 93.94 65.71 44.63 16.42 45.14 16.42"/><polygon points="45.65 16.42 93.93 64.69 93.93 65.2 45.14 16.42 45.65 16.42"/><polygon points="52.05 16.42 93.93 58.3 93.93 64.69 45.65 16.42 52.05 16.42"/><polygon points="58.45 16.42 93.94 51.9 93.94 58.3 52.05 16.42 58.45 16.42"/><polygon points="64.85 16.42 93.94 45.5 93.94 51.9 58.45 16.42 64.85 16.42"/><polygon points="71.25 16.42 93.94 39.1 93.94 45.5 64.85 16.42 71.25 16.42"/><polygon points="77.65 16.42 93.94 32.7 93.94 39.1 71.25 16.42 77.65 16.42"/><polygon points="84.05 16.42 93.94 26.3 93.94 32.7 77.65 16.42 84.05 16.42"/><polygon points="90.45 16.42 93.94 19.9 93.94 26.3 84.05 16.42 90.45 16.42"/><polygon points="93.94 19.9 90.45 16.41 93.94 16.41 93.94 19.9"/></g></svg>