<?xml version="1.0" encoding="utf-8"?><svg id="Layer_1" data-name="Layer 1" xmlns="http://www.w3.org/2000/svg" viewBox="0 0 100 100"><title>One time integration</title><path d="M98.8,47.09,52.91,1.2a4.13,4.13,0,0,0-5.82,0L1.2,47.09a4.13,4.13,0,0,0,0,5.82L47.09,98.8a4.13,4.13,0,0,0,5.82,0L98.8,52.91A4.13,4.13,0,0,0,98.8,47.09ZM64.49,33.22a1.59,1.59,0,0,0-.39,1.66A1.64,1.64,0,0,0,65.4,36a6.68,6.68,0,0,1,3.75,1.94c2.29,2.29,2.68,5.61.88,7.42s-5.12,1.4-7.42-.89a6.81,6.81,0,0,1-1.94-3.74,1.6,1.6,0,0,0-1.09-1.31,1.63,1.63,0,0,0-1.66.4L50,47.71l-6-6a10.31,10.31,0,0,0,2.77-2,9.8,9.8,0,0,0,2.92-6.15,7.11,7.11,0,0,0-7.88-7.88,9.8,9.8,0,0,0-6.15,2.92,10,10,0,0,0-2,2.78l-6.05-6.05L49.38,3.5a.88.88,0,0,1,1.24,0l21.8,21.79ZM34.88,35.9A1.61,1.61,0,0,0,36,34.6a6.68,6.68,0,0,1,1.94-3.75c2.29-2.29,5.61-2.68,7.41-.88s1.41,5.13-.88,7.42a6.81,6.81,0,0,1-3.74,1.94,1.6,1.6,0,0,0-1.31,1.09,1.63,1.63,0,0,0,.4,1.66L47.71,50l-6.05,6a10.06,10.06,0,0,0-2-2.77,9.8,9.8,0,0,0-6.15-2.92,7.23,7.23,0,0,0-5.84,2,7.31,7.31,0,0,0-2,5.85,9.8,9.8,0,0,0,2.92,6.15,10.11,10.11,0,0,0,2.78,2l-6.05,6L3.5,50.62a.87.87,0,0,1,0-1.24l21.79-21.8,7.93,7.93A1.6,1.6,0,0,0,34.88,35.9Zm.63,30.88a1.58,1.58,0,0,0,.39-1.65A1.6,1.6,0,0,0,34.6,64a6.68,6.68,0,0,1-3.75-1.94c-2.29-2.29-2.68-5.61-.88-7.41s5.13-1.41,7.42.88a6.81,6.81,0,0,1,1.94,3.74,1.6,1.6,0,0,0,1.09,1.31,1.62,1.62,0,0,0,1.66-.4L50,52.29l6,6.05a10.06,10.06,0,0,0-2.77,2c-3.55,3.55-4,8.93-.89,12s8.45,2.67,12-.88a10,10,0,0,0,2-2.78l6,6-21.8,21.8a.91.91,0,0,1-1.24,0l-21.8-21.8ZM65.13,64.1A1.62,1.62,0,0,0,64,65.4a6.68,6.68,0,0,1-1.94,3.75c-2.29,2.29-5.61,2.68-7.41.88s-1.41-5.12.88-7.42a6.81,6.81,0,0,1,3.74-1.94,1.6,1.6,0,0,0,1.31-1.09,1.64,1.64,0,0,0-.39-1.66L52.29,50l6.05-6a10.06,10.06,0,0,0,2,2.77c3.55,3.55,8.93,4,12,.89s2.67-8.45-.88-12a10.11,10.11,0,0,0-2.78-2l6-6.05L96.5,49.38a.87.87,0,0,1,0,1.24L74.71,72.42l-7.93-7.93A1.6,1.6,0,0,0,65.64,64,1.47,1.47,0,0,0,65.13,64.1Z"/></svg>