<?xml version="1.0" encoding="utf-8"?><svg xmlns="http://www.w3.org/2000/svg" xmlns:xlink="http://www.w3.org/1999/xlink" viewBox="0 0 400 400"><defs><style>.cls-1{fill:#0093d2;}.cls-2{fill:#c2d500;}.cls-3{fill:#ffc629;}.cls-4{isolation:isolate;}.cls-5{clip-path:url(#clip-path);}.cls-6{opacity:0.1;}.cls-7{clip-path:url(#clip-path-2);}.cls-8{clip-path:url(#clip-path-3);}.cls-9{fill:#f2f2f2;}.cls-10{opacity:0.36;mix-blend-mode:multiply;}.cls-11{fill:#2394e0;}.cls-12{fill:#d50057;}.cls-13{fill:#fff;}</style><clipPath id="clip-path"><circle class="cls-1" cx="200" cy="-222.11" r="200"/></clipPath><clipPath id="clip-path-2"><circle class="cls-2" cx="200" cy="622.11" r="200"/></clipPath><clipPath id="clip-path-3"><circle class="cls-3" cx="200" cy="200" r="200"/></clipPath></defs><title>4Artboard 1 copy 32</title><g class="cls-4"><g id="Layer_1" data-name="Layer 1"><circle class="cls-1" cx="200" cy="-222.11" r="200"/><g class="cls-5"><g class="cls-6"><circle class="cls-1" cx="234.97" cy="-233.88" r="276.69"/></g></g><circle class="cls-2" cx="200" cy="622.11" r="200"/><g class="cls-7"><circle class="cls-2" cx="234.97" cy="610.33" r="276.69"/></g><circle class="cls-3" cx="200" cy="200" r="200"/><g class="cls-8"><circle class="cls-3" cx="234.97" cy="188.23" r="276.69"/></g><circle class="cls-1" cx="200" cy="200" r="144.15"/><path class="cls-9" d="M322.38,245.11c.56.11.88,2.16.61,3.85-.37,2.35-1.81,3.74-1.23,4.47.33.41.88.08,1.85.69a2.62,2.62,0,0,1,1.15,1.23c.3,1-.92,1.56-2.08,3.7a9.13,9.13,0,0,0-1.23,4.78c0,.2.1.7.16,1.46.07,1,.08,1.8.07,2,0,1.91-2.21,2.4-4.16,5.7a9.31,9.31,0,0,1-2.15,3c-.44.37-1.39,1.18-1.85.93-.79-.43.33-3.72,1.23-6.86,2.21-7.71,1.09-7.77,3.24-14.94C318.19,254.44,321.09,244.85,322.38,245.11Z"/><path class="cls-9" d="M261.69,189.82c.15.1-.37.83,0,1.38s1,.31,1.21.75-.36.72-.35,1.45.69,1,.93,1.9a3.45,3.45,0,0,1-.17,1.74c-.62,2.47-.93,3.71-1.28,4a3.27,3.27,0,0,1-3.52.06c-1.52-.93-1.63-2.9-1.67-3.64C256.58,193,261.3,189.55,261.69,189.82Z"/><path class="cls-9" d="M219.48,202.45c-.56-.41-1.46.93-3.69,1.54-2.53.68-3.12-.54-4.85.23-1.44.63-1.18,1.54-4,4.31-1.22,1.19-1.18.94-1.92,1.77-1.83,2-2.38,3.9-3.16,3.77-.38-.06-.3-.51-.77-.77-.66-.35-1.44.2-5.32,2.78-.1.06-.41.33-1.92,1.46-.9.68-1.15.86-1.23,1.23s0,.53.69,1.93c.56,1.19.64,1.38.54,1.54-.3.45-1.59-.39-2.39.23-.36.28-.45.72-.61,1.54-.26,1.23.06,1.41-.16,1.85-.68,1.39-4.25.41-4.85,1.77-.17.38.1.49-.08,1.23-.27,1.14-1,1.43-.92,1.93.17.7,1.86.54,2,1.15s-1.73,1.19-1.69,2.16c0,.77,1.22.84,1.69,2.08.38,1-.13,1.68.23,1.92s1.39-.82,3.54-1.77c1.07-.46,1.11-.3,2-.69a12,12,0,0,0,3.69-2.85,40.75,40.75,0,0,0,3.47-3.93,39.87,39.87,0,0,0,3-4.23c1.25-2,1.24-2.5,2.16-3.32,1.31-1.16,2.17-1,2.69-2.08s-.08-1.49.47-2.92a4.69,4.69,0,0,1,1.31-1.93c1.1-.95,1.78-.5,2.54-1.31s.24-1.59,1-3a6.16,6.16,0,0,1,2.23-2.16c1.92-1.32,2.71-.94,3.62-2S220.06,202.85,219.48,202.45Z"/><path class="cls-9" d="M187.15,224.36c-.32-.33-1-.8-1.42-.58s-.22.53-.57,1.59a4.2,4.2,0,0,1-.7,1.5c-.64.75-1.4.67-1.47,1.15a.8.8,0,0,0,.61.81c.36.07.68-.27,1.09-.72.62-.67.52-.88.9-1.24.82-.78,1.79-.3,2.11-.9S187.5,224.72,187.15,224.36Z"/><path class="cls-9" d="M180.25,226.87c.41,0,.72.34,1.06.75s.92,1.08.7,1.65a1.4,1.4,0,0,1-1.56.63,1.62,1.62,0,0,1-1.24-1.65C179.24,227.62,179.69,226.9,180.25,226.87Z"/><path class="cls-9" d="M190.59,216.07a.68.68,0,0,1,.28.69c-.06.53-.69,1-1,.81a.75.75,0,0,1-.26-.81C189.69,216.28,190.25,215.91,190.59,216.07Z"/><path class="cls-9" d="M190.47,219.62a.93.93,0,0,1-.17,1,1,1,0,0,1-1.33.2,1,1,0,0,1,0-1.38A1,1,0,0,1,190.47,219.62Z"/><path class="cls-9" d="M192.49,217a.59.59,0,0,1,0,.75c-.18.28-.61.43-.81.26a.54.54,0,0,1-.06-.6C191.8,217,192.27,216.81,192.49,217Z"/><path class="cls-9" d="M191.05,221.44c.16.16.06.48,0,.49a.72.72,0,0,1-.95.43.53.53,0,0,1-.29-.49A.88.88,0,0,1,191.05,221.44Z"/><path class="cls-9" d="M180.09,206.8a.89.89,0,0,1,.27.92.93.93,0,0,1-1,.66,1,1,0,0,1-.54-1.43A.94.94,0,0,1,180.09,206.8Z"/><path class="cls-9" d="M185.14,209.07c.55.36.35,1.56,0,1.65s-.43-.27-.57-.46-.6-.78-.35-1.11A.71.71,0,0,1,185.14,209.07Z"/><path class="cls-9" d="M187.25,240.53c-.45.36-1.34-.68-2.23-.31-.37.16-.7.54-.65.85s.68.49.65.65-1.56-.28-3,.39c-.53.24-1.14.68-1.27.54s.07-.25,0-.35c-.19-.25-1.22.6-2.24.31-.39-.11-.3-.26-.77-.43a3.5,3.5,0,0,0-2,.08,6.18,6.18,0,0,0-1.62.58c-.84.45-.81.71-1.42,1a4.34,4.34,0,0,1-2.16.12,20.19,20.19,0,0,0-2.46-.31c-.86,0-.78.22-1.66.23a9.48,9.48,0,0,0-1.92,0c-.18,0-.08,0-.89.23-1.35.35-1.53.34-1.69.31-.55-.1-.52-.37-1.12-.5s-1.28,0-1.42.31.5.91.38,1-.9-.26-1.46-.93c-.29-.34-.61-.73-.5-1.11a1.28,1.28,0,0,1,1.58-.58c.31.12.29.32.73.54.07,0,.78.38,1.08.11s0-.52.19-.81.9-.29,1.27-.27c2,.16,3.31.27,3.54-.15s-.26-1.05-.84-1.42c-1.15-.73-2.7,0-2.74-.2a3.94,3.94,0,0,1,1.58-.65,6.59,6.59,0,0,1,1.46-.27c1.52-.11,1.59.43,2.66.23.92-.17,1.22-.64,2-.5.18,0,.47.11.62,0s-.07-.67.11-.81.58.1.85.35.32.55.62.88a2,2,0,0,0,.88.58c.91.33,1.29-.35,2.58-.31.69,0,.74.22,1.81.27s1.24-.1,1.35-.23c.32-.36-.06-.81.15-1.27s1.25-.5,3-.69c2.3-.26,3.63-.76,3.93-.23.15.26-.13.49.07.88s.82.4,1.08.89A.92.92,0,0,1,187.25,240.53Z"/><path class="cls-9" d="M156.22,243.15c.45-.19,1.26.39,1.23.81,0,.22-.26.28-.31.61s.13.42.08.58c-.16.45-1.9.5-2.08,0-.07-.2.17-.31.58-1.12C156,243.42,156,243.23,156.22,243.15Z"/><path class="cls-9" d="M153.83,243.26a1.13,1.13,0,0,1,.89.66,1.06,1.06,0,0,1-.5,1.11,1.53,1.53,0,0,1-1.16.08,1.15,1.15,0,0,1-.81-.35.79.79,0,0,1-.11-.8c.12-.29.4-.39.8-.54A1.66,1.66,0,0,1,153.83,243.26Z"/><path class="cls-9" d="M152.1,242.26c.05.05-.2.32-.54.89s-.43.82-.58.81-.31-.39-.27-.43.83.63.69,1-.48.25-.73.23c-.49,0-.59-.34-1.08-.54-.81-.34-1.44.09-1.61-.2s.2-.7.42-.92a2.12,2.12,0,0,1,1.46-.54c.7,0,.86.36,1.39.23S152,242.21,152.1,242.26Z"/><path class="cls-9" d="M148.63,246c0-.37-1.14-.6-2-.51a3.8,3.8,0,0,0-1.35.43,4.2,4.2,0,0,0-1.31,1c-.31.36-.82.93-.65,1.23s1.13.33,1.73-.11.36-.76.81-1a2.18,2.18,0,0,1,2,.15c0,.05-.46.08-.5,0S148.69,246.47,148.63,246Z"/><path class="cls-9" d="M158.84,239.53c.27.08.56.18.57.34,0,.32-.92,1-1.5.62a.77.77,0,0,1-.34-.92C157.8,239.19,158.73,239.49,158.84,239.53Z"/><path class="cls-9" d="M145.55,242.53c.36.09.35.23,1,.46s.8.2.81.31-.62.47-1.23.62a7.22,7.22,0,0,1-3.12-.12c-1.14-.2-1-.25-2.5-.54-1.18-.22-2.2-.38-2.2-.38-.79-.13-1-.14-1.31-.23a12.19,12.19,0,0,1-1.81-.66c-1.65-.65-2.71-.77-2.69-.88a3.09,3.09,0,0,1,1.54.07c1.22.26,1.15.64,2,.7s1.4-.27,2.35-.16a2.15,2.15,0,0,1,.5.12,4.35,4.35,0,0,1,.89.58,2.56,2.56,0,0,0,.73.38c.58.16.79-.17,1.58-.08.37.05.31.12.69.16a4.43,4.43,0,0,0,1.39-.16C145.28,242.5,145.37,242.48,145.55,242.53Z"/><path class="cls-9" d="M138.81,249.27c-.45.4-1.88-.25-1.88-.81,0-.29.38-.55.69-.61a1.18,1.18,0,0,1,1.35,1A.55.55,0,0,1,138.81,249.27Z"/><path class="cls-9" d="M141.32,248.11a.68.68,0,0,1,.69.7.78.78,0,0,1-1.08.27A.71.71,0,0,1,141.32,248.11Z"/><path class="cls-9" d="M127.8,241c.22-.11.47.31,1.19.66a5.61,5.61,0,0,0,1.74.42c.85.11,1.12,0,1.38.27s.08.64.35,1c.52.7,1.85-.08,2.69.69a2.79,2.79,0,0,1,.66,1.2c.05.16.16.61.27,1s.13.56.27.69c.31.28.8.14.81.19a2.06,2.06,0,0,1-1.47.27,3.41,3.41,0,0,1-2-1.35c-.51-.61-.36-.75-.85-1.27a8.44,8.44,0,0,0-1.73-1.15,16,16,0,0,0-1.81-1c-.87-.33-1.35-.31-1.58-.73S127.59,241.1,127.8,241Z"/><path class="cls-9" d="M127.91,238.57c.15-.09.4.43,1.12.65.52.16.62-.05,1.12.12a2.23,2.23,0,0,1,1.19,1c.12.21.36.71.23.81s-.58-.53-1.5-.84-1.14,0-1.62-.35S127.75,238.67,127.91,238.57Z"/><path class="cls-9" d="M124.1,240.18a1.07,1.07,0,0,1,1.58.16.64.64,0,0,1-.11.65,1,1,0,0,1-1.51-.19A.68.68,0,0,1,124.1,240.18Z"/><path class="cls-9" d="M144.63,233.71a1.29,1.29,0,0,0,.54,1,1.27,1.27,0,0,0,1.42-.3c.47-.51.13-1.16.08-3,0-1.1-.07-2.44.46-2.66s1.26.9,1.54.74c.48-.29-2-3.38-2.39-7.78-.14-1.48,0-2.46-.65-3.89a6.4,6.4,0,0,0-2.31-2.74,5.77,5.77,0,0,0-3.55-1c-1.4.13-1.7.82-3.15.77a5.18,5.18,0,0,1-2.16-.57c-1.69-.85-2.34-2.27-2.69-2.08s-.15.66,0,1c.21.7.74,1.23,2.27,2.08a11,11,0,0,0,3.2,1.46,25.06,25.06,0,0,0,4.73-.54c1.15-.18,1.63-.26,2.12,0,1,.62,1,2.24,1,2.58,0,1.12-.48,2.75-1.42,3-.53.12-.7-.3-1.89-.88-1.71-.83-2-.24-4.08-1.08-.64-.25-1.1-.5-1.62-.31s-1,.8-.85,1.16.82.11,2,.57a6,6,0,0,1,2.34,1.47,1.4,1.4,0,0,0,.7.5c.5.11.84-.28,1.08-.12s.19.7,0,1.12c-.29.62-.77.55-1.62,1.39-.41.39-.75.74-.73,1.19,0,.27.14.34.23.81a1.73,1.73,0,0,1,0,.92c-.26.67-1.29.53-1.54,1.27a.57.57,0,0,0,0,.43c.22.6,1.71.25,2,.92.17.34-.14.61.07.92a1,1,0,0,0,1.24.2c.44-.31.36-1.13.31-1.62-.09-.84-.38-1.14-.2-1.39s1.09.17,1.54-.19c.73-.58-.47-2.71.12-3.12.34-.24,1.14.2,1.62.73a4,4,0,0,1,.69,3C145,231.48,144.34,232.15,144.63,233.71Z"/><path class="cls-9" d="M137.93,231.44a1.48,1.48,0,0,1,1,.89c.06.11.59,1.09.11,1.69a.87.87,0,0,1-.61.35c-.91.06-2-1.66-1.58-2.47A1.14,1.14,0,0,1,137.93,231.44Z"/><path class="cls-9" d="M128.22,225.9a1,1,0,0,1,.73,1.69,1.64,1.64,0,0,1-2.07.5,1.49,1.49,0,0,1-.74-1.77C126.54,225.55,128,225.85,128.22,225.9Z"/><path class="cls-9" d="M172.66,213.61c.36-.15,2.41-1,3.31-.31s-.2,2,.23,4.78c.34,2.16,1.23,3,.7,3.77s-2.22.32-2.78,1.31c-.38.69.25,1.21,0,2.77-.12.8-.22,1.43-.69,1.78-1.12.83-3.28-.73-3.77-.08-.26.34.27.83,0,1.31-.48.83-2.75.5-2.78.23s.53-.18.54-.39c0-.44-2.41-1.25-3-.53-.35.42.15,1.15-.23,1.46s-.94-.29-1.54,0-.49,1-.93,1.08-.94-.89-1.38-.77-.35,1.32-.7,1.38-.84-1.82-1.61-1.85c-.58,0-.91,1-1.31.93s-.16-.74-.62-1.62-.87-.76-1-1.31c-.22-1,1.06-1.64.77-2.46-.17-.51-.7-.38-1-1s.19-1.18-.15-1.77-.68-.32-1.47-.85a3.71,3.71,0,0,1-1.38-1.62c-.23-.6,0-.76-.08-2.39s-.29-1.93-.39-2c-.43-.33-.88,0-1.77-.31-.2-.08-.91-.37-.92-.77s.71-.5,1.62-1.31c.4-.36,1.33-1.19,1.23-2.08-.07-.56-.51-.76-.39-1.07.21-.52,1.56-.31,1.62-.62s-1.43-.58-1.62-1.46c-.12-.59.45-.92.23-1.39s-.9-.3-1.31-.92a1.8,1.8,0,0,1-.23-1c0-.8.55-1.13.39-1.38s-.59,0-1.54-.16a1.36,1.36,0,0,1-1-.46.89.89,0,0,1-.08-.84c.37-.79,2,0,3.24-.93.34-.25.08-.2,1.54-2.08a3.45,3.45,0,0,0,.61-1c.26-.71.14-1.27.31-1.31s.21.37.69.85.66.43.7.69-.32.54-.24.69.63-.13,1.08.08c.24.11.35.32.77,1.47s.42,1.24.54,1.38c.61.71,1.52.44,1.7.93s-.88,1.22-.7,1.54,1.41-.48,2.62-.08a3.8,3.8,0,0,1,2,2.16s-.62-.85-.61-.85a9.17,9.17,0,0,0,2.15,2.46c1.27,1,1.57.57,2.85,1.62.9.73,1.23,1.33,1.93,1.31s1-.63,1.39-.46c.09,0,.38.22.38,1.92s-.3,2.35,0,2.54S171.46,214.13,172.66,213.61Z"/><path class="cls-9" d="M134.19,222.85c.2-.26,0-.95-.5-1.31s-1-.31-4,.54c-2,.56-2.13.66-2.12.7a11.17,11.17,0,0,1,4.62-.23C133.18,222.77,134,223.16,134.19,222.85Z"/><path class="cls-9" d="M125.41,220.27a.73.73,0,0,1,.16.77.92.92,0,0,1-1.2.24c-.34-.18-.61-.61-.5-.89S125,219.83,125.41,220.27Z"/><path class="cls-9" d="M126.26,217.58a.85.85,0,0,1,.54,1.15.84.84,0,0,1-1.16.35.79.79,0,0,1-.31-.69A.88.88,0,0,1,126.26,217.58Z"/><path class="cls-9" d="M124.3,210.19c.14-.06.53.7.92,1.46.59,1.14.53,1.32.46,1.38s-.42.05-.61-.07-.38-.42-.58-1.35S124.19,210.22,124.3,210.19Z"/><path class="cls-9" d="M123,209.15c.22-.11.89.36.77.8a.54.54,0,0,1-.57.39C122.85,210.23,122.79,209.26,123,209.15Z"/><path class="cls-9" d="M123,211.34c.34.06-.06,1.74.77,2.27a4.92,4.92,0,0,1,1,.62,1.22,1.22,0,0,1,.3.31,1.73,1.73,0,0,1,.16,1.27,9,9,0,0,1-.43,1.31,3.34,3.34,0,0,1-.46,1c-.21.27-.59.66-.73.58s.12-.7.42-1.93c.24-1,.48-2,.2-2.12s-.81.73-1.47.58c-.42-.1-.74-.58-.65-.77s.76.06.92-.19-.63-.82-.65-1.7C122.39,211.92,122.82,211.31,123,211.34Z"/><path class="cls-9" d="M119.33,220.93c.84-.31,2,.65,1.88,1.19s-1.86,1.09-2.42.46a1,1,0,0,1-.19-.77A1.17,1.17,0,0,1,119.33,220.93Z"/><path class="cls-9" d="M120.14,224.43c.44,0,.42.23,1.15.35a11.05,11.05,0,0,0,1.31,0,3.53,3.53,0,0,1,1.31.15c.27.1.57.22.65.5a.68.68,0,0,1-.23.7c-.39.3-.83-.19-1.65,0s-.68.53-1.23.54-.83-.61-1.62-.62a2.06,2.06,0,0,0-.93.23c-.42.24-.54.56-1,.66-.1,0-.37.08-.46,0s.47-1,.58-1.12C118.47,225.25,119.21,224.39,120.14,224.43Z"/><path class="cls-9" d="M113.86,217c.33.13.34.3,1.12.7.37.19.42.18.54.3.32.36.14.73.5,1.16.1.12.27.33.46.31s.26-.66.73-1,1.13-.26,1.23,0-.06.25-.5.81c-.77,1-.68.93-.77,1-.64.5-1.14.17-1.81.73a3.11,3.11,0,0,0-.5.58c-.56.75-.44,1-.69,1.11-.5.26-1.11-.56-2.7-.88-.37-.08-.67-.1-.84.07a.69.69,0,0,0,0,.89c.35.35,1.06-.26,1.69.12.38.22.28.53.69.73s.44,0,1.16,0,1.09,0,1.15.15-.63,1-1.54,1.19c-.69.14-1.17-.13-1.34.12-.06.07-.1.24.23.88.54,1.07,1.06,1.41,1,1.62s-1,.23-1.62-.19c-1.06-.69-1.09-2.15-1.46-2.12s-.23,1.21-1,1.66c-.36.2-.65.11-1.12.11-.62,0-1.05.18-3,1.24a31.17,31.17,0,0,0-2.74,1.57A5.79,5.79,0,0,0,101,232.9c-.1.55-.29,1.53.23,2s.92.06,1.54.5c.44.31.37.6.93,1.5.68,1.11,1.18,1.28,1.07,1.54-.19.49-2.23.64-3.5-.39-.81-.64-.87-1.42-1.46-1.46-.17,0-.46,0-1.51,1.27s-1.71,2-1.46,2.47,1,.24,1,.23-2.27.22-3.27-1c-.24-.31-.17-.39-.46-.73-.68-.79-1.26-.57-1.89-1.2-.38-.37-.19-.46-.89-1.73-.43-.78-.64-1.18-.92-1.35a2.34,2.34,0,0,0-2.81.62c-.43.56-.06.85-.46,1.77A4.1,4.1,0,0,1,85,239c-.53.21-.61.08-1.39.38s-1.29.72-1.46.58,0-.82.39-1.27.68-.33,1.07-.65c.74-.61.25-1.52.89-3.39a8.63,8.63,0,0,1,.62-1.43c.6-1.13,1.11-1.53,1-2.27a1.17,1.17,0,0,0-.34-.81c-.32-.28-.67-.13-.89-.42a.84.84,0,0,1,0-.81c.2-.4.68-.51,1-.62.92-.26,2.29-.66,2.78-1.46s-.18-1.16.19-2c.29-.68.85-.79,2.42-1.58,2.22-1.11,2.09-1.37,4-2.23,1.21-.53,2.27-.89,2.27-.89a15.45,15.45,0,0,0,2-.65c1.28-.65,1.44-1.34,2.12-1.28a1.94,1.94,0,0,1,1.35,1.16c.33.71,0,1,.31,1.46.52.71,1.66.08,2.27.73s-.14,1.4.46,2.51c.32.58,1,1.18,1.5,1.08.31-.07.48-.35.93-1.16.77-1.41,1.16-2.11,1.19-2.23a12.72,12.72,0,0,0,.19-3.24c0-.52,0-1,.27-1.19s.63,0,1.43,0C112.87,217.3,113.15,216.68,113.86,217Z"/><path class="cls-9" d="M106.81,216.12a.76.76,0,0,1,.27.92.77.77,0,0,1-.84.46.78.78,0,0,1-.7-.69A.94.94,0,0,1,106.81,216.12Z"/><path class="cls-9" d="M119.14,215.61c.16.21-.07.73-.43,1a1.34,1.34,0,0,1-.92.23c-.47,0-1.11-.24-1.12-.5s1.32-.67,1.62-.74S119,215.46,119.14,215.61Z"/><path class="cls-9" d="M105.54,218.89a.94.94,0,0,1,.5,1,1.23,1.23,0,0,1-1.81.42.85.85,0,0,1-.15-.88A1.07,1.07,0,0,1,105.54,218.89Z"/><path class="cls-9" d="M78.86,221.74c.3.19.2,1.11-.31,1.58-.24.22-.69.43-.93.27s-.16-.79,0-1.16S78.59,221.56,78.86,221.74Z"/><path class="cls-9" d="M83.67,226.78c-.19-.32-1,.36-2-.11-.57-.29-.65-.75-1.43-1-.3-.1-.43-.08-.61-.24-.45-.36-.34-1-.58-1s-.38.23-.43.47a1.17,1.17,0,0,0,.39.88,3.39,3.39,0,0,0,.42.43c.86.7.6,1.86,1.35,2.31a1.59,1.59,0,0,0,1.23,0C83.13,228.22,83.87,227.12,83.67,226.78Z"/><path class="cls-9" d="M85.36,216.69a.69.69,0,0,1,.2.7.85.85,0,0,1-1.24.38.72.72,0,0,1-.07-.88A.77.77,0,0,1,85.36,216.69Z"/><path class="cls-9" d="M80.32,217.5c.11.17-.14.56-.38.77-.45.4-.84.23-1.55.5s-1.22,1-1.3.89.22-.77.8-1.31C78.78,217.52,80.13,217.2,80.32,217.5Z"/><path class="cls-9" d="M76.58,221.78c-.28.62-.3.89-.38.88s-.37-.75,0-1.27c.24-.37.72-.56.81-.46S76.85,221.19,76.58,221.78Z"/><path class="cls-9" d="M74.62,224.39c.27.06.24,1.17.16,1.81,0,.34-.14,1-.35,1s-.53-.63-.54-1.27C73.88,225.15,74.38,224.34,74.62,224.39Z"/><path class="cls-9" d="M72.81,226.67c.19,0,.43.66.27,1.23-.11.4-.42.78-.58.73s-.12-.76-.11-.85C72.43,227.33,72.61,226.66,72.81,226.67Z"/><path class="cls-9" d="M72.81,229.82c.2.07.2.78,0,1.31-.13.3-.4.71-.57.66s-.23-.59-.12-1S72.62,229.76,72.81,229.82Z"/><path class="cls-9" d="M70.89,232.63c.2.14.16.65-.08,1s-.66.49-.85.34-.09-.57.08-.84S70.68,232.5,70.89,232.63Z"/><path class="cls-9" d="M120.29,247.81c.29-.11.82.32,1,.84a1.12,1.12,0,0,1-.11.89c-.49.73-2.16.73-2.93-.08-.43-.45-.57-1.15-.38-1.31s.31.06,1.23.31c.47.13.6.14.73.08C120.13,248.37,120,247.9,120.29,247.81Z"/><path class="cls-9" d="M115.79,247.54c.42.05,1.17.26,1.19.57s-.2.36-.39.43c-.4.15-.68-.22-1-.08s-.28.89-.27,1a1.55,1.55,0,0,0,.39.89,2.39,2.39,0,0,0,1.65.62c1.32.14,1.6-.24,2.24.07a5.34,5.34,0,0,1,1,1.12,8.32,8.32,0,0,1,1,1.42c.33.66.17.75.53,1.43a10.12,10.12,0,0,0,.81,1.15,4.91,4.91,0,0,0,.85,1,4,4,0,0,0,1,.46,3.72,3.72,0,0,0,1.85.38c.45-.08.37-.25,1.15-.61s1.59-.46,1.58-.62-.31-.2-.34-.15.45.64,1.11.88a2.37,2.37,0,0,0,1.27.12s-.42-.13-.46,0,1.29,1,1.27,1a1.74,1.74,0,0,1-.5-.31,2.5,2.5,0,0,0,1.31.31c.21,0,.32-.1.5,0a.92.92,0,0,1,.5.58c.09.27,0,.32,0,.73a1.69,1.69,0,0,0,.27.81,1,1,0,0,0,.5.42c.32.12.53,0,.65.12s0,.28,0,.46c0,.72,1.25,1.38,1.24,1.39a10,10,0,0,0-.89-.54,9.62,9.62,0,0,1,1.2,1.12c.19.23.34.45.5.42s.15-.45.5-.65c.05,0,.23-.15.38-.08s.23.81.19,1.35c-.08,1.09-.31,1.35-.11,1.63a1.19,1.19,0,0,0,1.44.18,1.58,1.58,0,0,0,.52-1.91c-.08,0-.27.12-.29.29s.55.52,1.56,1.21,1.17,1,1.16,1.16-.32.31-.46.69a1.57,1.57,0,0,0,.28,1.39c.57.77,1.31.36,2,1.09s.24,1,.92,1.68c.43.4.64.31,1.21.81s.51.79.93,1.09c.8.58,1.5-.16,2.94.24a5.58,5.58,0,0,1,1.68.86c.93.6,1,.86,1.56,1.21,1.55,1,3.65.71,3.69.47s-1-.54-1-.47a6.3,6.3,0,0,0,1.61,1.1c.68.37.82.37,1.33.64,2,1,2,2.17,3.41,2.37.47.06.85,0,1.15.28a1.7,1.7,0,0,1,.35,1.22,3.65,3.65,0,0,1,.17-1.85c.1-.22.21-.5.41-.52a3,3,0,0,1,1.87,1.15,5.13,5.13,0,0,0,1.13,1.68v-.46c0,.55-1.26,1.38-1,2.29.16.53-.24,1,.23,1.39s.39.2.54.46c.29.51-.56,1.46-.76,1.73-.76,1-1.42,1-1.61,1.69s.08,1.43.51,1.54.86-.37,1.1-.73c.35-.53.28-1.06.45-1.08s.36.31.38.66c.07.87-1.15,1.42-1,1.73s.83.25,1.35-.11c.8-.56.67-1.77,1-1.77s.52.59.42,1.15-.42.58-1.19,1.54c-.57.7-.42.71-.77,1s-.9.59-1,1.08a3.63,3.63,0,0,0,0,.54,2.68,2.68,0,0,1-.54,1.19c-.71,1-1.18,1.07-1.16,1.46s.68.47.89,1.12a2.5,2.5,0,0,1-.35,1.7c-.21.46-.33.52-.54,1a4.74,4.74,0,0,0-.3,1.07,3.25,3.25,0,0,0,.8,2.66c.43.42.71.37,1.39,1,.36.36.66.65.58.87-.14.37-1.2-.07-2.25.57-.44.27-.4.43-.75.58a2.93,2.93,0,0,1-2.37-.46,33.73,33.73,0,0,0-4.1-1.39,33.26,33.26,0,0,0-4.22-.92c-1.22-.21-2.42-.47-3.64-.69a4.64,4.64,0,0,1-2-.58c-.95-.62-.94-1.35-1.74-2s-1.18-.48-2.71-.81c-3.38-.74-3.63-1.81-6.59-2.2a6.69,6.69,0,0,1-1.73-.34c-1.42-.54-1.47-1.26-2.6-1.62-.78-.25-.68.12-3.06.17-1.44,0-2.08-.08-2.54.41a2.62,2.62,0,0,0-.52,1.15c0,.16-.06.49-.12,1.16a9.33,9.33,0,0,0,0,1.1c0,.24.08.53.17,1s.1.52.06.58c-.2.26-1.2-.12-1.85-.46-2.65-1.38-3.63-4.15-4-4s-.11,1.18.47,2.13c.9,1.5,2.51,1.83,2.39,2.2s-.86.34-1.44.05-.79-.93-1-.86-.27.74,0,1.15c.13.2.27.22.69.64s.3.37.29.4-.68-.17-1,.09-.17.64-.15.75c.09.54.45.64.46,1.1,0,.07,0,.45-.2.6-.49.36-1.55-.92-2.31-.57-.49.22-.39.92-.75,1s-.73-1-2-2c-.48-.37-1.21-.79-1.45-.58s.27,1,0,1.21-1-.18-1.5-.58c-.68-.54-.6-.86-1.1-1.27-.84-.7-1.63-.25-2.6-.69a4,4,0,0,1-1.79-2.43c-1.52-4-7.07-6.28-12.36-14.38a37.24,37.24,0,0,1-3.17-6.12c-.93-2.26-1.39-3.4-1.39-4.62,0-1.72.57-2.82-.12-4.39-.22-.52-.68-1.31-.46-1.5s.76.3,1,.11-.52-1.12-.29-2.25c.1-.43.24-.42.29-.87.1-.79-.34-1-.23-1.56a2.5,2.5,0,0,1,1.22-1.38c.48-.29.78-.27.86-.52s-.38-.56-.58-1.16c-.26-.79.38-1.11.41-2.37,0-.93-.34-.94-.23-1.73.13-1,.76-1.23.63-1.91s-.7-.59-1-1.38a2,2,0,0,1,.29-1.91,1.43,1.43,0,0,1,1.27-.58c.33.09.38.37.52.35.41-.06.84-2.77.12-5.72-.41-1.65-1-2.88-.52-3.35a.73.73,0,0,1,.75-.11c.47.21.47,1,.57,1.79s.2.59,1.1,3.06a34.45,34.45,0,0,1,1.45,4.39c.43,2.24,0,2.65.63,4.1a17.52,17.52,0,0,0,1.56,2.31c1,1.35.71.77,1.91,2.31.59.77.84,1.14,1.15,1.1s.34-.87,1-1.5a4,4,0,0,1,3-.75s-.38.11-.46,0,.51-1.21,1.5-1.68,2,0,2.48-.64a1.44,1.44,0,0,0,.12-1.15c-.16-.83-.67-1-1.68-2.37a4.09,4.09,0,0,1-.8-1.33c-.2-.81.17-1.27-.18-1.85-.2-.33-.37-.23-.86-.69-.23-.2-1.15-1.05-.93-1.79.09-.31.4-.62.64-.58.41.08.21,1.11.81,1.56.79.62,2.57-.15,2.54-.46s-1.52-.43-1.56-.29a2.2,2.2,0,0,0,2.19.58,6.9,6.9,0,0,0,.93-.69c.29-.26.46-.46.63-.41s.16.46.35.52.71-1.08,1.73-1.38A2,2,0,0,1,115.79,247.54Z"/><path class="cls-9" d="M103.6,258.46c.37-.06.93.51.84,1.07s-.66.89-1,.75-.42-.81-.28-1.24C103.17,258.94,103.31,258.51,103.6,258.46Z"/><path class="cls-9" d="M107.29,253c.27,0,.54.36.64.66s.1.8-.12.89-.78-.26-.86-.75C106.89,253.48,107.05,253.05,107.29,253Z"/><path class="cls-9" d="M116.05,309c.09-.08.51.31,1.64.85a1.45,1.45,0,0,0,1,.23c.33-.08.36-.27.6-.31s.54.18,1.4,1.28,1,1.4.91,1.59a.58.58,0,0,1-.43.22c-.7.07-1-.77-2-1.43s-1.28-.25-2.1-.89S115.94,309.1,116.05,309Z"/><path class="cls-9" d="M123.62,303.64c.07-.08.2,0,.85.16s.92.14,1,.32a.59.59,0,0,1-.14.66c-.34.32-1,0-1,0C123.79,304.46,123.48,303.81,123.62,303.64Z"/><path class="cls-9" d="M154.48,193.86c.09,0,.12.32.06.34s-.56-1.29-1.67-2.83c-.64-.87-.63-.61-1.39-1.61-1.24-1.64-1.28-2.35-2.14-2.66-.66-.24-1.13,0-1.44-.4a1.33,1.33,0,0,1-.06-1.27c.12-.25.21-.23.35-.47a1.48,1.48,0,0,0-.12-1.73,1.14,1.14,0,0,0-1.27-.17c-.78.46-.89,2.37-.06,3.29s1.72.39,2.43,1.39c.18.25.43.71.64,1.09.29.56.31.64.52,1a7.94,7.94,0,0,0,.8,1.09c.47.55.82.87,1,1,1.31,1.35,1,3.51,1.48,3.53S154.28,193.82,154.48,193.86Z"/><path class="cls-9" d="M140.51,196.75c.26-.12.24-.71.23-.93s-.11-1.9-1.13-2.28c-.39-.15-.65,0-1.07-.26a1.91,1.91,0,0,1-.52-.58c-.6-.88-.5-1.24-.86-1.44a1.18,1.18,0,0,0-1.3.23c-.41.42-.14,1-.49,1.21a.76.76,0,0,1-.9-.29c-.25-.39.12-.95-.06-1.06s-.46.32-.66.23.07-1.17-.26-1.36-.5.31-1.13.37-1.16-.14-1.3-.51c-.19-.52.65-1.08.49-1.3s-1.33,0-1.76.8a2.43,2.43,0,0,0-.23,1.1c0,.44.1.44.06.69-.11.65-.83.7-.9,1.25s.42.57.35,1.07-.49.52-.52,1c0,.15,0,.27.32.78.49.85.74,1.28.92,1.27.38,0,.41-1,.81-1.07s.54.45.64.69a1.23,1.23,0,0,1,0,.78c-.17.53-.71.51-.8.95-.05.2.09.45.37,1s.51.93.69.89.12-.73.49-.92.58.23,1.13.26a1.85,1.85,0,0,0,1.71-1.16,3.27,3.27,0,0,0-.12-1.47c-.18-.95-.33-1-.26-1.39.15-.76,1-1.4,1.47-1.24.18.07.18.23.78,1,.2.25.29.36.41.35.29,0,.37-.7.57-.69s.34.93.52.92.15-.73.52-.87.54.15.58.18a2.26,2.26,0,0,1,.58,1.3.69.69,0,0,0,.23.49A.43.43,0,0,0,140.51,196.75Z"/><path class="cls-9" d="M140.82,197.79a.7.7,0,0,1-.23,1,.72.72,0,0,1-.86-.29.48.48,0,0,1-.12-.38C139.7,197.73,140.55,197.47,140.82,197.79Z"/><path class="cls-9" d="M138.08,184.58s0,.83.5,1.08a.64.64,0,0,0,.73-.08c.19-.24,0-.7-.31-1.23s-.48-.68-.5-1c0-.68.86-1.45,1.35-1.3s.38.68.66.69.49-.86.81-.85.55.56.53,1.12c0,1-1,1.2-1,2.15,0,.63.4,1.06.23,1.2s-.6-.41-1.19-.31a1.2,1.2,0,0,0-.85.77c0,.05-.18.53,0,.77s.43,0,.66.19a1.14,1.14,0,0,1,.07,1.35c-.28.44-.69.31-1,.81-.2.33-.12.56-.31.65s-.88-.38-1-.54c-.61-.62-.58-1.11-1.3-2.23-.33-.51-.33-.39-.47-.65a4.13,4.13,0,0,1,.12-3.47s0,.13,0,.35c.08,1.14,1.29,1.46,1.85,2.69a6,6,0,0,1,.31,1.74,5.3,5.3,0,0,0,.23-2C138.19,185.56,138,184.58,138.08,184.58Z"/><path class="cls-9" d="M134.19,186.89a.92.92,0,0,1,1,.77.9.9,0,0,1-.42.85,1,1,0,0,1-1.27-.24A1,1,0,0,1,134.19,186.89Z"/><path class="cls-9" d="M134.77,182.19c.29.09.42,1.2-.12,1.77-.18.2-.26.13-.42.31-.51.55.07,1.36-.35,1.89s-1.15.47-1.31.23.17-.39.5-1.12a2.86,2.86,0,0,0,.35-2c0-.17-.12-.46-.31-.5-.37-.08-1,.91-.84,1.08s.36,0,.38-.12-.64-.25-.73-.62.61-.56.89-1.34-.11-1,.23-1.54a1.68,1.68,0,0,1,.61-.58c.66-.4,1.68-.51,1.93-.12s-.1.81-.31,1.08c-.61.79-1.5.64-1.66,1.2a.74.74,0,0,0,.39.84C134.31,182.72,134.54,182.12,134.77,182.19Z"/><path class="cls-9" d="M138.72,179.59c.16.21,0,.66-.26,1.56-.1.3-.17.49-.26.49s-.19-.63-.47-.69-.29.22-.8.58c-.22.14-.54.37-.64.29s.17-.7.32-1c.41-.78.66-1.27,1.18-1.41A.94.94,0,0,1,138.72,179.59Z"/><path class="cls-9" d="M141.92,179.42c.4.18.28,1.71-.17,1.85-.2.06-.41-.15-.46-.21a1,1,0,0,1-.09-1.21C141.36,179.6,141.71,179.32,141.92,179.42Z"/><path class="cls-9" d="M146.66,180.6a.66.66,0,1,1-.87.32A.67.67,0,0,1,146.66,180.6Z"/><path class="cls-9" d="M146.11,177.45c.09.22-.42.34-.84,1.1-.5.92-.26,1.65-.86,2a.64.64,0,0,1-.5.15c-.48-.12-.73-1.15-.54-2a1.74,1.74,0,0,1,.4-.86C144.5,177.09,146,177.11,146.11,177.45Z"/><path class="cls-9" d="M140.07,179.88a.49.49,0,0,1,.21.69.46.46,0,0,1-.5.21.55.55,0,0,1-.08-.81A.36.36,0,0,1,140.07,179.88Z"/><path class="cls-9" d="M142,176.92a.47.47,0,0,1,.21.5.52.52,0,0,1-.61.4.51.51,0,0,1-.31-.71A.51.51,0,0,1,142,176.92Z"/><path class="cls-9" d="M141.39,175.3c-.27-.37-.41-.55-.58-.62a1.08,1.08,0,0,0-1.27.44c-.22.49.34,1,.1,1.29a.56.56,0,0,1-.62,0c-.41-.23-.25-.79-.61-1a.78.78,0,0,0-.93.29c-.15.32.27.53.22,1s-.48.84-1,1.29c-.22.21-.47.39-.52.71,0,.07,0,.29.08.37s.91-.32,1.35-.79.45-.79.85-1,.49,0,1-.18a1.74,1.74,0,0,0,.73-.46,1.56,1.56,0,0,0,.4-.77,2.72,2.72,0,0,0-.42,1.47c0,.09,0,.36.1.38s.24-.85.94-1.35c.28-.19.49-.22.54-.42S141.67,175.66,141.39,175.3Z"/><path class="cls-9" d="M136.31,175.22a.72.72,0,0,1,.38.83c-.1.5-.79.81-1.09.61s-.23-.55-.14-.82S136,175.11,136.31,175.22Z"/><path class="cls-9" d="M142.59,175.09a10.66,10.66,0,0,0,1.15-2.14,6.3,6.3,0,0,0,.06-1.33,3.09,3.09,0,0,1,0-1c.15-.61.5-.72.46-1s-.44-.37-1-.84a2.73,2.73,0,0,1-1.18-1.64,2.27,2.27,0,0,1,.31-1.42c.25-.42.41-.34.58-.69.29-.58-.06-.91.12-1.74.13-.64.5-1.16.66-1.12s0,.74.32.89.45-.13.84-.31a2.21,2.21,0,0,1,2.25,0c.21.22.19.56.14,1.24-.09,1.39-.52,1.68-.34,2.48s.48.64.46,1.16c0,.68-.6,1-.43,1.58,0,.06.1.35.28.38s.49-.65.84-.64.39.28.46.5c.18.52-.25.81-.54,1.67-.37,1.09-.07,1.79-.61,2.69a.72.72,0,0,1-.38.34,1.18,1.18,0,0,1-1.12-.49c-.28-.33-.26-.6-.41-.6s-.52.52-.4,1,.42.37.58.75a1.31,1.31,0,0,1-.09,1c-.46,1-2.06,1.18-2.31.81s.22-.64,0-.84-.73.1-.87-.08S142.51,175.22,142.59,175.09Z"/><path class="cls-9" d="M148.59,143.09c1.12.51,1.51,1.8,1.79,2.77a5.52,5.52,0,0,1,.18,3.35c-.41,1.32-1.46,2.54-1.91,2.37s-.1-.84-.29-2.6a15,15,0,0,0-.81-3.81c-.43-1.2-.84-1.74-.57-2.08S148.06,142.85,148.59,143.09Z"/><path class="cls-9" d="M177.7,158.51c-1.44-.53-3.18.92-3.32.69,0-.07.12-.31.23-.29.29.05-.1,1.66.55,3.53.24.66.39,1.08.81,1.35s.78.14,2.31.23c1.11.08,1.29.19,1.56,0,.72-.49.44-2,.41-2.16a4.63,4.63,0,0,0-1.19-2.11C178.47,159,178.17,158.68,177.7,158.51Z"/><path class="cls-9" d="M142,121.28a1.11,1.11,0,0,1,1.3.06,1.32,1.32,0,0,1-.78,1.82,1.08,1.08,0,0,1-1.13-.92A1.18,1.18,0,0,1,142,121.28Z"/><path class="cls-9" d="M133.37,120.85c.84-.07,1.91.28,2,.81s-.79.63-1.51,1.82a14.21,14.21,0,0,0-.72,1.85c-.5,1.24-.75,1.87-1,1.87-.47,0-.91-1.4-1-2.45a3.69,3.69,0,0,1,.64-3.12A2.62,2.62,0,0,1,133.37,120.85Z"/><path class="cls-9" d="M131.26,116.78a7,7,0,0,1,2,1.64c.5.54.53.63.52.73-.06.51-1.27,1-2.14.72-.68-.26-.54-.81-1.36-1.22-.66-.33-.83,0-1.82-.37-.67-.26-.88-.52-1.32-.43a1.12,1.12,0,0,0-.81.6c-.22.48.16.78,0,1.3a1.28,1.28,0,0,1-1.07.87c-.75,0-1.44-1-1.39-1.76.07-1,1.26-1.52,1.1-1.79s-.74-.12-1.24.17c-.89.51-.92,1.44-1.39,1.44-.27,0-.5-.33-1-1s-.52-1-.69-1c-.41,0-.54,1.92-.81,1.91s-.38-.75-.38-1.45c0-.48.1-.87,0-.92s-.33.39-.52.35-.44-1-.05-1.65c.22-.39.42-.34.63-.69.35-.6,0-1.09,0-1.85s.63-.88,1.21-2c.7-1.38.11-1.78.78-3a25.9,25.9,0,0,1,1.82-1.88c1-1,1.47-1.45,1.68-1.35s.16,1.05,0,1.7a8.06,8.06,0,0,1-1,3c-.68,1.21-1.25,1.51-1.09,2.08,0,.18.11.17,1,1.21a6.73,6.73,0,0,0,.66.75c.39.32.59.33,1.24.78s.58.48.61.55c.11.26,0,.41-.06,1.07s-.09.92.09,1.09.88.08,1,0c.58-.18.68-.51,1.07-.49s.24.18.69.38.76.07,1.44.31A3.49,3.49,0,0,1,131.26,116.78Z"/><path class="cls-9" d="M129.71,120.59c.52.3.8.28.92.58.21.53-.44,1.24-.69,1.53s-.6.66-.81.57c-.42-.16.12-1.89-.38-2.13-.34-.16-.78.55-1.24.37s-.49-.8-.46-1.21c0-.59.43-1.3.89-1.33S128.54,119.92,129.71,120.59Z"/><path class="cls-9" d="M127.14,103.17c.38-.22.24-.63.69-1.64.35-.8.63-1,.52-1.21-.25-.51-1.81.08-2-.38s.53-1,2-2.89c.9-1.14,1-1.33.92-1.41-.19-.26-1.8.37-3.15,1.41s-1.68,1.87-2.68,1.88c-.61,0-.91-.32-1.3-.09-.56.33-.69,1.44-.32,1.73s.65-.12.9.09-.34,1.52,0,1.82c.19.16.59,0,.86-.14.85-.39.86-.9,1.5-1.19s1.59-.18,1.79.26a1,1,0,0,1-.26.93c-.35.43-.81.42-.8.57S126.64,103.46,127.14,103.17Z"/><path class="cls-9" d="M138,118.5c.26.21-.07,1.27-.5,1.31-.26,0-.59-.34-.57-.69A.84.84,0,0,1,138,118.5Z"/><path class="cls-9" d="M137.43,122.85a.72.72,0,0,1,.42.93.77.77,0,0,1-1.12.15C136.53,123.63,137,122.8,137.43,122.85Z"/><path class="cls-9" d="M238.57,155.35l0,.05Z"/><path class="cls-9" d="M238.54,155.4l-.07.11S238.5,155.46,238.54,155.4Z"/><path class="cls-9" d="M135.73,73.45c.12.25-.23.67-.58,1.07a10.78,10.78,0,0,1-2.73,2c-1.43,1-.91,1.27-2.16,2.08-1.67,1.08-3.17.92-3.46,1.92a5.81,5.81,0,0,1-.23,1.12,3.29,3.29,0,0,1-.7,1c-1.26,1.35-1.83,1.51-2.46,2.39a3.13,3.13,0,0,0-.77,1.92c.12.07.54-.85,1.66-1.81a18.5,18.5,0,0,1,2.07-1.38l1.66-1a38.68,38.68,0,0,0,3.08-2.66c1.07-.86,1-.61,2.89-2,.88-.63,2.76-2,2.58-2.34s-1.08.16-1.19-.08,0-.31,1.11-1.2c1.22-1,1.38-1,2.24-1.69.6-.52,1.09-1,1.23-.92s-.15.54,0,.65.61-.3,1.15-.62c1-.59,2.18-.76,2.27-.57s-.74.79-1.81,1.58-1.47,1-1.42,1.15,1.17.31,2.12-.08.91-.76,1.65-1a3.82,3.82,0,0,1,1.85.08c2.53.33,3.94-.62,4.47.12a9.63,9.63,0,0,1,.19,1,17.09,17.09,0,0,0,.35,1.77,4.05,4.05,0,0,0,.38,1c.52.83,1.22.85,1.24,1.27s-1.1,1-1.2,1c-.88.33-1.21,0-1.81.35s-.78,1.1-1,1-.22-.76-.38-.77-.16.8-.66,1.08c-.32.18-.81.1-.92-.12s.34-.57.23-.89-.6-.4-1-.38c-1.41.07-2,2-2.93,1.83-.32-.07-.39-.35-.86-.41a1.59,1.59,0,0,0-1,.24,7.05,7.05,0,0,0-2,1.87c-.35.47-.24.21-4.42,3.55-.32.26-1.9,1.53-1.76,1.74s.55-.2.78,0,.06,1-.23,1.53c-.41.77-.95,1-2.37,2a9.09,9.09,0,0,0-2.14,1.68c.05.07,1.12-.73,1.48-.44s-.08,1,.05,1.07.54-.69.87-1.18a10.8,10.8,0,0,1,2.17-2.2c1-.91.66-1,2.57-3.67,1.77-2.48,2.45-3,3.23-3,.39,0,1,.1,1.07.41.22.7-2.54,1.32-3.18,3.43-.32,1.06.24,1.37-.23,2.57s-1.1,1.32-1.15,2.26c0,.6.23.7.6,1.84a25.77,25.77,0,0,1,.55,2.83c.51,2.42.89,2.65,1,2.72.41.19.93,0,2-.29s1.75-.74,1.91-.55-.41.64-.26,1.07c.22.64,1.67.23,2.17,1,.36.55-.22,1,0,2.4a2.23,2.23,0,0,0,.46,1.27c.48.55,1.08.44,1.62,1.13a1.13,1.13,0,0,1,.31.66c0,.43-.3.8-1,1.36a19.2,19.2,0,0,1-1.76,1.27,9,9,0,0,0-2,2,27.26,27.26,0,0,0-2,4.05c-.38.85-.68,1.52-.43,1.76s.9-.35,1.5-.09c.83.36.71,2,1.19,2s.64-.93,1-.86.29,1.18.75,1.3c.16,0,.33-.06.66-.35,1.06-.9,1.59-1.35,1.48-1.73-.16-.55-1.36-.33-1.59-1-.18-.48.36-1.09.61-1.38,1-1.11,2.14-1.16,2.13-1.68s-.81-.54-.81-1,.52-.74.9-.89c.82-.33,1.24.2,2-.12a2,2,0,0,0,1-1.1c.23-.62-.09-.92.06-1.58a2.6,2.6,0,0,1,.95-1.36,3.63,3.63,0,0,1,3.9-.52c1,.56.82,1.43,1.88,1.82.76.28,1.6.12,1.65-.09s-.7-.4-.7-.78,1-.51,1.07-1.07-.44-.59-.46-1.12c0-.75,1-1.57,1.41-1.39s.05,1.13.64,1.59,1.21-.11,1.65.29-.19,1.41.31,2.11,1.89.47,1.91.72-1.85.21-2.83,1.44a5.48,5.48,0,0,0-.81,1.39c-.2.55-.21.94-.4,1s-.37-.36-.87-.87a2.87,2.87,0,0,0-1.27-.86c-.72-.17-.92.41-2.08.63s-1.78-.23-2.14.18a1.43,1.43,0,0,0,.18,1.67c.72.85,1.92,0,3.35.69,1.62.77,2.57,3,2,3.76-.22.3-.61.29-1.22.35-1.93.16-4.19.35-5,1.44s.23,3.29-.87,4.16a8.38,8.38,0,0,0-.86.69,9.37,9.37,0,0,0-.87.93,7.43,7.43,0,0,0-1.5,3.35c-.13,1,.16,1,.29,3.29.11,1.89-.1,1.7.06,2.25.48,1.75,2,1.63,3.35,4a3.93,3.93,0,0,1,.8,2.42c-.07.77-.44,1.15-.28,1.85a2.47,2.47,0,0,0,1,1.33c1.33,1.14,2.06,1.52,2.77,2.08,2.07,1.62,1.79,3.07,3.23,3.41,1,.22,1.21-.41,2.37-.24.91.14,1.22.6,3.06,2.14,2.79,2.33,3.6,2.55,4.28,2.49s.63-.3,1.56-.41a3.32,3.32,0,0,1,2.71.58,2.4,2.4,0,0,1,.64,1.1c.26,1-.33,1.51,0,2a1.45,1.45,0,0,0,2,0c.22-.3,0-.59.06-1.15a3.33,3.33,0,0,1,1.5-2.2,4.43,4.43,0,0,1,3.41-.52c1.31.26,2.76,1.81,5.6,4.91a4.06,4.06,0,0,1,1.39,2.48,3.69,3.69,0,0,1-.81,2.31,38.81,38.81,0,0,1-3.76,5c-3.13,3.25-4.71,4.87-4.85,5.14-1,1.86-.18,1.81-1.61,7.28-.55,2.07-.87,2.88-.41,3.81s1.52,1.37,3.76,2.49,2.87,1.19,3.4,2c.73,1.14.19,1.91,1,2.6s2,.06,2.88,1c.51.51.4.95,1.1,1.44.17.13.88.62,1.39.35a1.12,1.12,0,0,0,.46-.81c.07-.48-.14-.78-.46-1.56a4.93,4.93,0,0,1-.52-1.56,2.76,2.76,0,0,1,1.38-2.14,2.5,2.5,0,0,1,1.22-.4c.62,0,1,.26,1.15.12s-.6-.71-.46-1.28c.06-.22.26-.46.46-.46.45,0,.58,1.22.93,1.22s.46-.75.57-1.22a23.93,23.93,0,0,0,.35-2.42c.18-1,.34-1.92.92-2.14s1.41.28,1.39.58-1,.45-1,.69.41.21.52.23a4.59,4.59,0,0,0,4.1-1.5,2,2,0,0,0,.52-1c.13-.9-.67-1.39-.46-1.79s1.85-.56,2.54.23c.32.36.26.69.4,1.67.18,1.16.32,1.13.75,3,.36,1.52.29,1.67.58,3,.66,3.06,1.58,4.77,1.1,5.09s-1.05-.51-1.39-.24.35,1.73,0,2-1-.68-1.38-.46-.1.59-.06,1a5.27,5.27,0,0,1-1,3.06c-.15.26-1.32,2.34-2.14,2.13-.36-.09-.35-.53-.75-.63-.2,0-.64,0-1.62,1s-.81,1.42-1.5,2.14c-1.1,1.13-1.95.75-2.66,1.84a3.82,3.82,0,0,0-.52,1.91c-.07,1.18.34,1.38.35,2.48a5.46,5.46,0,0,1-.87,2.89c-.56.9-.94.91-1.67,2.14a2.71,2.71,0,0,0-.52,1.67c0,.14.07.91.58,1.16a1.24,1.24,0,0,0,1-.12,37.81,37.81,0,0,0,3.92-2.48c1.85-1.11,2.87-1,3.35-2.08.24-.54.1-.81.47-1.39.55-.86,1.18-.74,1.73-1.5.35-.49.13-.59.52-2.25s.65-1.69.63-2.54-.25-1.08-.05-1.68a2.72,2.72,0,0,1,1-1.21c.55-.51.42-.58,2.25-3.58,1-1.64,1.32-2.08,1.62-2,.49.1.55,1.52.75,1.5s.18-.17.23-1.5a24.44,24.44,0,0,0-.06-2.66c-.08-1.25-.13-2.05-.29-3.18-.11-.84-.15-.9-.29-1.9-.3-2.28-.18-2.67.06-2.89.5-.45,1.46-.1,1.5-.29s-1.34-.51-1.38-1.1.95-.93.86-1.09-.84.23-1,0,.29-.95.47-1.22.42-.79,1-4.73c.47-3.36.45-3.78,1-4.34a3.11,3.11,0,0,1,2.66-.92c1.07.21,1,1,2.31,1.56a6,6,0,0,0,3.41.06c1.21-.19,2.27-.36,2.42-.93s-.91-.87-1.38-2.13c-.23-.61-.08-.79.23-3.53.17-1.58.24-2.64.63-2.71s.39.36.75.35c.54,0,.92-.92,1-1.22a5.13,5.13,0,0,0,.38-1.77,6,6,0,0,0,2.86-2.33c1.37-2.1.75-4.42,1.44-4.56s1.28,2.13,2.54,2.14c.88,0,1-1.1,2-1.22,1.5-.18,2.74,2.15,3.41,1.79.35-.18,0-.84.52-1.27.67-.59,2.23-.17,2.31.29a.32.32,0,0,1-.07.25,1.62,1.62,0,0,1,.88-.77,1.42,1.42,0,0,1,1.44.93c.12.34,0,.48,0,1.09a4.17,4.17,0,0,0,.29,1.22c.45,1,1.88.7,3.7,1.73a11.89,11.89,0,0,1,2.66,2.37c.84.88.73.91,1.73,2a9.61,9.61,0,0,0,2.6,2.31c.91.4,1.52.3,2,.93.35.48.1.7.47,1.27a3.38,3.38,0,0,0,2,1.21c.74.21.78,0,1.15.23,1,.55,1.11,2.12,1.45,2.08s.15-.61.46-.75,1.58.63,2,1.67c1,2.25-1.93,4-1.1,6.47.44,1.28,1.38,1.26,1.68,2.78.22,1.11-.25,1.32-.17,3,.08,1.86.73,3.29,1.21,3.29a3.69,3.69,0,0,1,.58-.11,1,1,0,0,1,.57.05c.4.22.15.91.52,1.79a3.83,3.83,0,0,0,.47.75,9.54,9.54,0,0,0,1.56,1.85c.89.8,1.44,1.29,2.25,1.33,1.41.07,2.44-1.33,2.66-1.62a5.56,5.56,0,0,0,.8-1.9,7.81,7.81,0,0,0,.47-3.93c-.28-1.38-.85-1.39-.81-2.25.06-1.56,2-1.6,2.89-3.41,1.23-2.38-1-4.3.4-7.1.57-1.15,1-.92,1.5-2.14.71-1.66-.05-2.11.23-5.14.13-1.4.4-2.44.61-4.83a11.26,11.26,0,0,0,.06-1.15c0-1.73-.58-2.76-.32-2.92s1.25,1.26,1.88,1c.23-.09.3-.36.37-.57.29-.81.72-1,2-2.26,1.49-1.49,2.23-2.24,2.39-2.89.21-.81-.09-1.08.2-2.68a3,3,0,0,1,.55-1.53c.53-.63,1.07-.51,1.3-1s-.39-1.17-.08-1.73,1.24-.42,1.38-.93-.37-.63-.29-.92c.14-.47,1.52-.41,3.5-.41,3.35,0,4.16-.13,5.17.55.55.38.55.59,1,.75,1.46.48,3.31-.87,3.58-1.07.56-.41.68-.64,1.21-.83.76-.28,1.29-.11,1.53-.47.08-.12.12-.28-.06-1-.34-1.35-.77-1.86-.57-2.08s.78,0,1.18.23c.69.45.57,1,1.1,1.22s.86,0,1.76-.44a3.57,3.57,0,0,0,1.24-.78,2.67,2.67,0,0,0,.7-1.12c.11-.39,0-.43.11-.72.24-.74.91-.77,1.21-1.33.2-.37.06-.64-.28-2.05-.63-2.54-.46-2.83-.32-2.92s.39,0,.92.17c.87.29,1.38.46,1.68.9s.17.65.2,1.3c.07,1.46.54,1.51.72,3,.15,1.22-.15,1.2,0,2.6.06.57.12.59.46,2.2.54,2.49.49,2.81.38,2.86s-.3-.17-.41-.29c-.54-.63-.32-1.2-.72-1.85-.29-.48-.86-.91-1.12-.78s-.37,1.44.2,2.4,1.67,1.15,1.7,1.93a1,1,0,0,1-.58.95c-.43.1-.75-.62-1.27-.52-.28.06-.3.29-.63.44a1.63,1.63,0,0,1-1.27-.15,4.81,4.81,0,0,1-2.17-2c-.55-.91-.29-1-.78-1.79-.78-1.22-2.14-2-2.45-1.76-.11.09-.09.3,0,.66a19.86,19.86,0,0,0,1.07,2.89c.1.33.67,2.09-.15,3a2.62,2.62,0,0,1-1.07.64c-.79.25-1.31,0-1.53.34s.09.39,0,1a1.79,1.79,0,0,1-.46,1c-.26.25-.44.2-.55.4s0,.64.29,1.16c.71,1.13,1.32,1.1,2.14,2.1a5.72,5.72,0,0,1,1.07,2c.2.72.23,1.42.43,1.44s.28-.71.66-.78.81.47,1,.92c.46.91,0,1.42.55,2.46a1.86,1.86,0,0,0,.56.76c.55.41.93.1,1.39.42s.23,1.17.91,1.79a2.92,2.92,0,0,0,1.11.54c.86.3,1,.13,1.35.39.53.43.24,1.06.73,1.41s.75,0,1.49.07a3.39,3.39,0,0,1,2.16.85c.92,1,.35,2.16,1.23,3.39a9.36,9.36,0,0,0,2.69,1.54c3,1.43,3.23,1.34,4.24,2.08s1.14,1.14,1.77,1.23a3.47,3.47,0,0,0,3.23-2.16c.55-1.26-.13-1.85-.3-5.16-.1-1.8.11-1.56,0-3.23-.14-2-.43-2.33-.7-5.09a12.68,12.68,0,0,1,0-3.15c.2-1.32.44-1.21.47-1.93.06-2-1.87-2.66-2.39-5.16-.18-.85.07-.68,0-2.39a27.13,27.13,0,0,0-1.08-5.77c-.84-3.5-1.26-5.26-1.08-5.32s1.41,2.28,2.16,4.86.54,3.44,1.38,6.62c.3,1.1.23.66,1.16,3.62,2.11,6.72,2.17,8.15,1.77,9.24a5.16,5.16,0,0,0-.38,1.93,7.75,7.75,0,0,0,.46,2.08,8.47,8.47,0,0,1,.46,3.38c-.12.87-.35.87-.54,1.85-.29,1.53.3,1.75.08,3a6.12,6.12,0,0,1-1.54,3c-.5.52-1,.8-.93,1.23,0,.25.21.32,1,1.08s.85.89.93,1.08a2.4,2.4,0,0,1,.15,1.08,7.19,7.19,0,0,1-.46,2.08c-.3,1-.38,1.19-.54,1.23-.37.08-.58-.73-1.31-.85-.52-.09-.7.29-1.15.15s-.52-.81-1-.92-1,.71-1.47.54-.17-.88-.61-1.16-1,.42-1.85.24-1-.89-1.31-.77-.25,1.35-.23,1.54c.47,4.26.7,6.39,1.08,7.47a55.08,55.08,0,0,0,3,6.16c2.2,4.2,3.26,5.77,4.16,8.31a19,19,0,0,0,.77,1.93c.75,1.59,1.16,1.87,2.08,3.54.18.34.61,1.28,1.46,3.16a14.2,14.2,0,0,1,1.16,2.93,8,8,0,0,1,0,2.92c-.47,3.05.58,4.22.54,7.94,0,2.52-.89,5.47-2.61,11.36-.37,1.27-.74,2.45-.87,2.85-1.22,3.92-1.83,5.87-2.51,7.77-1,2.86-1.86,4.83-1,5.89a4.11,4.11,0,0,1,1.15,3.12c0,.76,0,2.36-1,2.95a2.45,2.45,0,0,1-1.41.17c-2.69.21-3.7,11.79-3.7,11.79-.32,1-.73,2.31-1.23,3.76a144.25,144.25,0,0,0,.26-151.24,22.17,22.17,0,0,1,.85,2.77c.27,1.13.31,1.62.16,1.69-.3.13-1.24-1.31-1.35-1.23s.32.54.15.81-.9.13-1,.11c-1.17-.27-1.78-1.93-2.27-3-.25-.56-1.66-2.52-4.47-6.43-1.72-2.4-2.82-3.77-2.62-4s1.46.78,1.52.83c.93.72,1.47,1.47,1.62,1.37s-.2-.67-.06-.77,1.24,1.07,1.43.94-.54-1.48-.54-1.48a20.3,20.3,0,0,0-3.38-4.55c-1.31-1.32-1.27-1-2.57-2.34a20,20,0,0,0-2.51-2.46c-.25-.18-2-1.51-2.46-1.12s.46,1.71.18,1.87c-.12.07-.31-.11-.58-.29a4.65,4.65,0,0,0-1.94-.49,4,4,0,0,1-2.25-2c-.57-.92-.34-1.16-1-3.2a7.9,7.9,0,0,0-1.21-2.72c-1.22-1.24-2.92-1-3.09-1.9a.74.74,0,0,1,.29-.78c.44-.23,1.21.49,2.05,1.24a23.48,23.48,0,0,0,3.78,3c.14-.13-2.79-3.24-2.6-3.43s3.18,2.39,5.4,4.5c2.37,2.26,3.56,3.39,3.9,4,.42.81.9,2.06,2.08,2.52a3,3,0,0,0,.74.17,144.68,144.68,0,0,0-49.21-38.38.7.7,0,0,1-.26.54c-.21.16-.48.13-1,0-.17,0-4.05-.8-4.39-2a1.77,1.77,0,0,1,0-.7,1.11,1.11,0,0,1,.12-.34c-2.57-1.09-5.19-2.11-7.83-3.05,1.8,1.29,6.16,2.93,6,3.43-.12.31-1.82-.06-1.89-.08-2.52-.55-3.22-1.78-5.85-2.81A9.81,9.81,0,0,0,243.9,64c-2-.16-3,.47-5.16,0-.72-.16-1.56-.44-1.54-.69s2.3-.45,2.31-.81c0-.2-.71-.38-1-.46-2.39-.61-1.89-.9-4.7-1.7-.69-.19-1.83-.42-4.12-.88s-3.72-.71-4.85-.89a19.88,19.88,0,0,0-3.47-.38,24.2,24.2,0,0,0,2.7.92c1.7.6,1.89.8,2.92,1.16,2.54.89,3.2.33,6.63,1.23.46.12,2.9.76,2.85,1.15,0,.12-.23.18-1,.31-1.2.21-2,.32-2.55.39a5.48,5.48,0,0,0-1.07-.85,6.41,6.41,0,0,0-1.16-.54A16.55,16.55,0,0,0,227,60.82c-.79,0-1.52.23-1.69-.08s.08-.49,0-.54-.51.73-1.08.77c-.31,0-.43-.21-.85-.46a3.85,3.85,0,0,0-2.46-.39,11.18,11.18,0,0,0-1.54.39c-.82.23-1,.34-1.31.23-.51-.21-.35-.85-.77-1.39-.61-.77-1.82-.56-3.85-.61-1.14,0-2.26-.22-3.39-.31-3.89-.31-3.76-.77-6.93-1a28.07,28.07,0,0,0-7.55.54c-.68.16-1.31.38-1.31.38-.57.2-.9.36-1.15.46a7.82,7.82,0,0,1-2.85.47c-.57,0-1.25,0-2.62-.08-1.1-.06-1.06-.08-1.39-.08a9.74,9.74,0,0,0-3.31.62c-2,.68-2,1.17-3.47,1.38a8.92,8.92,0,0,1-2.31,0c-.75-.06-2.31-.27-2.31-.53s1-.23,2.47-.7c1.85-.59,3.48-1.61,3.39-1.85,0-.08-.29-.09-1.77.24-2.95.63-3.9,1.08-6,1.54-2.35.51-2.13.16-3.47.61-1.77.6-2.36,1.27-3.93,1.39-1.32.09-1.25-.37-2.46-.31-2.52.12-3.1,2.15-5.47,2.08a5.45,5.45,0,0,1-2.08-.54l-.25-.13a144.07,144.07,0,0,0-25,10.88,2.68,2.68,0,0,0,1.21.07C132.07,73.75,135.41,72.76,135.73,73.45Zm147.14,21.1c.47-.59,2.15.06,3.39.54A12,12,0,0,1,291,98.17a18.06,18.06,0,0,1,1.62,2.15c.73,1.1.68,1.21,1.46,2.47,1.44,2.33,2.1,2.73,1.93,3.54-.2,1-1.33,1.38-1.16,1.77s1.12,0,2,.47c.65.37.54.84,1.24,2,1,1.7,1.86,1.72,2.23,3.08,0,.13.36,1.4-.15,1.77s-1.22-.35-1.7,0,0,1.27-.38,1.54-2.35-.66-3.47-2.31a11.34,11.34,0,0,1-1.54-4.31,4.77,4.77,0,0,0-.62-2.31c-.57-.83-1-.64-1.69-1.47s-.33-1.46-1.16-2.92c-.6-1.08-.95-1-1.15-1.78-.3-1.14.42-1.58.08-2.38-.23-.53-1-.88-2.62-1.54s-1.92-.66-2.39-1.16C282.93,96.12,282.5,95,282.87,94.55Z"/><g class="cls-10"><path class="cls-11" d="M121.28,79.23A144.16,144.16,0,0,0,320.77,278.72,144.16,144.16,0,1,1,121.28,79.23Z"/></g><circle class="cls-12" cx="87.71" cy="218.35" r="17"/><rect class="cls-13" x="85.78" y="207.53" width="3.87" height="21.64"/><rect class="cls-13" x="76.89" y="216.41" width="21.64" height="3.87"/><circle class="cls-12" cx="174.38" cy="83.59" r="17"/><rect class="cls-13" x="172.44" y="72.77" width="3.87" height="21.64"/><rect class="cls-13" x="163.56" y="81.65" width="21.64" height="3.87"/><circle class="cls-12" cx="181.67" cy="289.12" r="21.95"/><rect class="cls-13" x="179.17" y="275.16" width="5" height="27.93"/><rect class="cls-13" x="167.7" y="286.63" width="27.93" height="5"/><circle class="cls-12" cx="217.5" cy="164.13" r="21.95"/><rect class="cls-13" x="215" y="150.16" width="5" height="27.93"/><rect class="cls-13" x="203.53" y="161.63" width="27.93" height="5"/><circle class="cls-12" cx="292.31" cy="102.29" r="28.78"/><rect class="cls-13" x="289.04" y="83.97" width="6.56" height="36.63"/><rect class="cls-13" x="274" y="99.01" width="36.63" height="6.56"/></g></g></svg>