<?xml version="1.0" encoding="utf-8"?><svg id="Layer_1" data-name="Layer 1" xmlns="http://www.w3.org/2000/svg" xmlns:xlink="http://www.w3.org/1999/xlink" viewBox="0 0 400 400"><defs><style>.cls-1{fill:none;}.cls-2{fill:#c2d500;}.cls-3{clip-path:url(#clip-path);}.cls-4{fill:#d50057;}.cls-5{clip-path:url(#clip-path-2);}.cls-6{fill:#0093d2;}.cls-7{fill:#fff;}.cls-8{fill:#b7b7b7;}.cls-9{fill:#ecf0f1;}.cls-10{fill:#ffc629;}.cls-11{fill:#4d4d4d;}.cls-12{fill:#666;}</style><clipPath id="clip-path"><circle class="cls-1" cx="200" cy="200" r="200"/></clipPath><clipPath id="clip-path-2"><circle class="cls-2" cx="200" cy="-229.64" r="200"/></clipPath></defs><title>4Artboard 1 copy 34</title><g class="cls-3"><circle class="cls-4" cx="234.97" cy="188.23" r="276.69"/></g><circle class="cls-2" cx="200" cy="-229.64" r="200"/><g class="cls-5"><circle class="cls-2" cx="234.97" cy="-241.42" r="276.69"/></g><g class="cls-3"><circle class="cls-6" cx="277.05" cy="136.42" r="67.1"/><circle class="cls-7" cx="277.05" cy="136.42" r="61.53"/><path class="cls-6" d="M259.32,84.48l1.56-.5,1.38,4.25-1.56.51Zm35.47,103.88-1.55.51-1.39-4.26,1.56-.51,1.38,4.26ZM329,118.68l.5,1.56-4.25,1.38-.51-1.55ZM293.24,84l1.55.51-1.38,4.26-1.56-.51Zm15.41,7.57,1.32,1-2.63,3.63-1.32-1Zm12.32,12,1,1.33-3.62,2.63-1-1.33Zm8.53,49.1-.5,1.56-4.26-1.38.51-1.56ZM321.93,168l-1,1.32-3.62-2.63,1-1.33Zm-12,12.32-1.32,1L306,177.68l1.32-1Zm-49.1,8.53-1.55-.51,1.38-4.25,1.56.5-1.39,4.26Zm-15.41-7.57-1.33-1,2.64-3.62,1.32,1Zm-12.32-12-1-1.33,3.63-2.63,1,1.33Zm-8-15.18-.5-1.56,4.26-1.38.5,1.56-4.26,1.38Zm-.5-33.92.5-1.56,4.26,1.39-.51,1.55-4.25-1.38Zm7.56-15.41,1-1.33,3.62,2.63-1,1.33Zm12-12.33,1.32-1,2.63,3.62-1.32,1Z"/><path class="cls-8" d="M275.31,99.47l1.87-1.86L279,99.47v37h-3.68v-37Z"/><path class="cls-4" d="M243.25,163.13l-2.53.5,1.2-2.28,33.25-24.93,1.34,1.79-33.26,24.92Z"/><path class="cls-8" d="M311,134.4l2.12,1.84L311,138.08l-33.82.31,0-3.68L311,134.4Z"/><circle class="cls-9" cx="277.05" cy="136.42" r="6.2"/><path class="cls-4" d="M320.93,135h8.62v2.84h-8.62Zm-96.37,0h8.62v2.84h-8.62Z"/><path class="cls-4" d="M275.63,92.54V83.93h2.84v8.61Zm0,96.38V180.3h2.84v8.62Z"/><circle class="cls-6" cx="277.05" cy="136.42" r="4.92"/><path class="cls-6" d="M263.4,162.51H199.59V278.16H304.13V226.11L291.94,184a29.72,29.72,0,0,0-28.54-21.46"/><path class="cls-9" d="M288.88,225.55h0L278,188a15.29,15.29,0,0,0-14.6-11H214.12l0,0v48.54h0v0h74.76v0Z"/><path class="cls-10" d="M19.31,104.45h161a19.31,19.31,0,0,1,19.31,19.31V278.15H0V123.76a19.32,19.32,0,0,1,19.31-19.31"/><polygon class="cls-9" points="130.81 104.48 130.81 155.51 123.34 148.04 115.52 155.87 107.69 148.04 99.87 155.87 92.04 148.04 84.11 155.87 76.3 148.04 68.74 155.6 68.74 104.48 130.81 104.48"/><path class="cls-11" d="M309,278.15V300H0V278.15H32.28a44.25,44.25,0,0,1,77.25,0H213.3a44.19,44.19,0,0,1,77.18,0Z"/><path class="cls-12" d="M282.7,299.83A30.84,30.84,0,1,1,251.85,269a30.85,30.85,0,0,1,30.85,30.84"/><path class="cls-9" d="M264.25,299.83a12.39,12.39,0,1,1-12.38-12.38,12.39,12.39,0,0,1,12.38,12.38"/><path class="cls-12" d="M101.72,299.83A30.85,30.85,0,1,1,70.88,269a30.85,30.85,0,0,1,30.84,30.84"/><path class="cls-9" d="M83.26,299.83a12.39,12.39,0,1,1-12.38-12.38,12.38,12.38,0,0,1,12.38,12.38"/></g></svg>