<?xml version="1.0" encoding="utf-8"?><svg xmlns="http://www.w3.org/2000/svg" xmlns:xlink="http://www.w3.org/1999/xlink" viewBox="0 0 400 400"><defs><style>.cls-1{fill:none;}.cls-2{fill:#0093d2;}.cls-3{fill:#ffc629;}.cls-4{isolation:isolate;}.cls-5{clip-path:url(#clip-path);}.cls-6{fill:#d50057;}.cls-7{clip-path:url(#clip-path-2);}.cls-8{opacity:0.1;}.cls-9{clip-path:url(#clip-path-3);}.cls-10{clip-path:url(#clip-path-4);}.cls-11{opacity:0.55;}.cls-11,.cls-13{mix-blend-mode:multiply;}.cls-12{fill:#ffdb66;}</style><clipPath id="clip-path"><circle class="cls-1" cx="200" cy="-222.11" r="200"/></clipPath><clipPath id="clip-path-2"><circle class="cls-2" cx="200" cy="200" r="200"/></clipPath><clipPath id="clip-path-3"><circle class="cls-3" cx="200" cy="622.11" r="200"/></clipPath><clipPath id="clip-path-4"><circle class="cls-1" cx="200" cy="200" r="200"/></clipPath></defs><title>4Artboard 1 copy 31</title><g class="cls-4"><g id="Layer_1" data-name="Layer 1"><g class="cls-5"><circle class="cls-6" cx="234.97" cy="-233.88" r="276.69"/></g><circle class="cls-2" cx="200" cy="200" r="200"/><g class="cls-7"><g class="cls-8"><circle class="cls-2" cx="234.97" cy="188.23" r="276.69"/></g></g><circle class="cls-3" cx="200" cy="622.11" r="200"/><g class="cls-9"><circle class="cls-3" cx="234.97" cy="610.33" r="276.69"/></g><g class="cls-10"><path class="cls-3" d="M80.22,112.62,227.8,139.24c5.72.82,9,1.57,10.39,1.51,1.55-.05,3.87-.77,13.11-2.34l147.59-25.79c6.69-1.17,11.75,1.5,11.75,7.61V282.42c0,6.12-5.29,12.7-11.75,14.63l-161.6,47.86L80.22,297.05c-6.47-1.93-11.76-8.51-11.76-14.63V120.24c0-6.12,5.06-8.83,11.76-7.62Z"/><g class="cls-11"><path class="cls-3" d="M237.29,140.71a6.2,6.2,0,0,0,.9,0c1.55-.06,3.87-.78,13.11-2.35l147.59-25.79c6.69-1.17,11.75,1.5,11.75,7.62V282.42c0,6.12-5.29,12.72-11.75,14.64l-161.6,47.85V140.72Z"/></g><path class="cls-12" d="M403.51,112.11,260.08,94.75a117,117,0,0,0-22-.29l-59.33,6.48-4.42.49L81.6,111.55c-6.55.72-7.69,2.55-1.85,3.54l146.56,25.07a74.49,74.49,0,0,0,11.76,1.51,57,57,0,0,0,10.21-1.22L326,127.36l10.1-1.56,65.59-10.14c6.32-1,7.2-2.89,1.85-3.55Z"/><path class="cls-6" d="M292.81,98.71,148,126.76l36.26,6.2L317.8,101.74Z"/><path class="cls-6" d="M148,126.76c3.8,18.13,6.75,46.66-12.73,54.9l36.24,15.42c22.37-13.49,11.59-58.39,12.75-64.12Z"/><path class="cls-12" d="M356.35,216.59v-11.8l-6-.72a46.69,46.69,0,0,0-1.66-7.41l4.86-4.45-4.92-10.12-5.57,3a37.29,37.29,0,0,0-4.54-5.34l2.4-6.74-8.52-5.71-3.62,5.91h0a28.22,28.22,0,0,0-6.2-1.85l-.71-7.22-9.84.23-.71,7.25a29.7,29.7,0,0,0-6.2,2.13L301.48,168,293,174.11l2.4,6.64a39,39,0,0,0-4.53,5.55l-5.58-2.76-4.91,10.34,4.85,4.24a47.79,47.79,0,0,0-1.65,7.48l-6,1v11.8l6,.72a46.31,46.31,0,0,0,1.65,7.4L280.34,231l4.91,10.11,5.58-3a36.6,36.6,0,0,0,4.53,5.34l-2.4,6.74,8.52,5.71L305.1,250a28.38,28.38,0,0,0,6.2,1.85L312,259l9.84-.23.71-7.24a30.29,30.29,0,0,0,6.2-2.13l3.62,5.75,8.52-6.1-2.4-6.64a39.75,39.75,0,0,0,4.54-5.55l5.57,2.76,4.92-10.34-4.86-4.24a47.8,47.8,0,0,0,1.66-7.48ZM316.93,227.4c-7.28.16-13.18-6.78-13.18-15.51s5.9-15.95,13.18-16.12,13.17,6.78,13.17,15.52S324.2,227.23,316.93,227.4Z"/><path class="cls-12" d="M373.34,259.74v-4.45l-2.27-.27a17.71,17.71,0,0,0-.63-2.79l1.84-1.68-1.86-3.81-2.1,1.13a13.25,13.25,0,0,0-1.71-2l.91-2.54-3.21-2.15-1.37,2.23h0a10.57,10.57,0,0,0-2.33-.69l-.27-2.72-3.71.08-.26,2.73a10.81,10.81,0,0,0-2.34.81l-1.36-2.17-3.21,2.3.9,2.5a15.25,15.25,0,0,0-1.71,2.09l-2.1-1-1.85,3.89,1.83,1.6a17.46,17.46,0,0,0-.62,2.82l-2.27.37v4.45l2.27.27a16.88,16.88,0,0,0,.62,2.79l-1.83,1.68,1.85,3.81,2.1-1.13a14.5,14.5,0,0,0,1.71,2l-.9,2.54,3.21,2.15L354,272.3a10.52,10.52,0,0,0,2.34.7l.26,2.72,3.71-.09.27-2.73a11.46,11.46,0,0,0,2.33-.8l1.37,2.17,3.21-2.3-.91-2.5a13.91,13.91,0,0,0,1.71-2.09l2.1,1,1.86-3.9-1.84-1.59a18.62,18.62,0,0,0,.63-2.82Zm-14.85,4.07c-2.74.06-5-2.55-5-5.85s2.23-6,5-6.06h0c2.74-.06,5,2.56,5,5.85S361.23,263.75,358.49,263.81Z"/><g class="cls-13"><path class="cls-6" d="M148,126.76c3.8,18.13,6.75,46.66-12.73,54.9l36.24,15.42c22.37-13.49,11.59-58.39,12.75-64.12Z"/></g></g></g></g></svg>