<?xml version="1.0" encoding="utf-8"?><svg id="Layer_1" data-name="Layer 1" xmlns="http://www.w3.org/2000/svg" viewBox="0 0 100 100"><title>Pick Pack and Dispatch</title><g id="Page-1"><path id="Shape" d="M7.52,13.07a4.93,4.93,0,0,0,3.82-.27l1.47-.73L34.34,78.2A5,5,0,0,0,36.68,81a11.66,11.66,0,1,0,14.11-3.2L92.43,63a5,5,0,1,0-3.34-9.43l-4.43,1.57-10.55-30a1.66,1.66,0,0,0-.85-.95A1.61,1.61,0,0,0,72,24.13L66.9,25.91,60,6.22a1.63,1.63,0,0,0-.85-1,1.65,1.65,0,0,0-1.27-.07l-8.44,3L43.1,10.39l-8.43,3a1.63,1.63,0,0,0-1,.85,1.6,1.6,0,0,0-.07,1.27l6.92,19.69-3.18,1.12a1.67,1.67,0,0,0-1,2.12L47,68.56l-4.7,1.67L20.52,3.45a5,5,0,0,0-7-2.93L6.87,3.86a5,5,0,0,0,.65,9.21ZM58.94,32.24l2.83,8.07L59,39.59a1.67,1.67,0,0,0-1.75.61l-1.74,2.31-2.83-8.06,3.15-1.11Zm-8.6-16.46-.88-.23a1.69,1.69,0,0,0-1.75.61l-.55.73L45.79,13l1.59-.56L49,11.86Zm-7.7-1.7,2.41,6.85A1.66,1.66,0,0,0,46.37,22l.25,0A1.68,1.68,0,0,0,48,21.38l1.75-2.33,2.83.72a1.65,1.65,0,0,0,1.64-.49,1.67,1.67,0,0,0,.35-1.68l-2.42-6.85L57.4,8.89l6.3,17.94-20.05,7-6.3-17.94ZM49.5,35.55l3.87,11a1.65,1.65,0,0,0,1.32,1.09A1.67,1.67,0,0,0,56.27,47l2.95-3.92L64,44.31a1.67,1.67,0,0,0,2-2.17l-3.87-11,9.44-3.31,9.93,28.29L50,67.16l-9.94-28.3ZM45.76,80a8.43,8.43,0,1,1-3.77.94l2.22-.78A7.35,7.35,0,0,1,45.76,80ZM8.36,6.84,15,3.51a1.66,1.66,0,0,1,2.33,1L39.62,72.89a1.66,1.66,0,0,0,2.14,1L90.2,56.75A1.67,1.67,0,0,1,92.26,59a1.63,1.63,0,0,1-1,.85l-47.91,17a11.69,11.69,0,0,0-2.92,1l-.83.29a1.66,1.66,0,0,1-2.14-1l-22.13-68a1.68,1.68,0,0,0-1-1A1.74,1.74,0,0,0,13.79,8a1.71,1.71,0,0,0-.74.17L9.85,9.83a1.67,1.67,0,0,1-1.5-3Z"/><path d="M40.76,88.32a5,5,0,1,0,5-5A5,5,0,0,0,40.76,88.32Zm5-1.67a1.67,1.67,0,1,1-1.66,1.67A1.67,1.67,0,0,1,45.76,86.65Z"/></g></svg>