<?xml version="1.0" encoding="utf-8"?><svg xmlns="http://www.w3.org/2000/svg" xmlns:xlink="http://www.w3.org/1999/xlink" viewBox="0 0 400 400"><defs><style>.cls-1{fill:none;}.cls-2{fill:#0093d2;}.cls-3{isolation:isolate;}.cls-4{clip-path:url(#clip-path);}.cls-5{fill:#d50057;}.cls-6{clip-path:url(#clip-path-2);}.cls-7{opacity:0.1;}.cls-8{fill:#4d4d4d;}.cls-9{fill:#fff;}.cls-10{fill:#666;}.cls-11{fill:#ffc629;}.cls-12{fill:#fcd34e;}.cls-13{opacity:0.55;}.cls-13,.cls-16,.cls-17{mix-blend-mode:multiply;}.cls-14{fill:#efefef;}.cls-15{fill:#d6d6d6;}.cls-16{opacity:0.33;}.cls-17{opacity:0.77;}</style><clipPath id="clip-path"><circle class="cls-1" cx="200" cy="200" r="200"/></clipPath><clipPath id="clip-path-2"><circle class="cls-2" cx="200" cy="622.11" r="200"/></clipPath></defs><title>4Artboard 1 copy 30</title><g class="cls-3"><g id="Layer_1" data-name="Layer 1"><g class="cls-4"><circle class="cls-5" cx="234.97" cy="188.23" r="276.69"/></g><circle class="cls-2" cx="200" cy="622.11" r="200"/><g class="cls-6"><g class="cls-7"><circle class="cls-2" cx="234.97" cy="610.33" r="276.69"/></g></g><g class="cls-4"><path class="cls-8" d="M10.07,113.43a106.54,106.54,0,0,1,37.44,0c5.4,1,10.06,4.54,10.06,10.06h0a10.23,10.23,0,0,1-3.68,7.86,4.09,4.09,0,0,1-3.31.86,3.92,3.92,0,0,1-2.95-1.84c-.86-1.23-2.09-2.09-3.81-1.23-8.83,4.42-11.9-2.46-15.95.37-3.44,2.33-4.91,2.21-9.7.12-3.19-1.35-7.12.49-9.45,2a4.26,4.26,0,0,1-5-.37A10.15,10.15,0,0,1,0,123.49H0C0,118,4.54,114.41,10.07,113.43Z"/><path class="cls-9" d="M314.75,291.55h0c0,3.19-1.47,6-4.54,6.63L138.1,329.11a6,6,0,0,1-6.63-8.22,4.4,4.4,0,0,1-.73-1.72L82.86,129.26H54.5A5.23,5.23,0,0,1,49.23,124h0a5.24,5.24,0,0,1,5.27-5.28H87.4a4.52,4.52,0,0,1,2.58.74,5.74,5.74,0,0,1,3.07,3.68l48.74,193.23c0,.12.12.36.12.49l166.34-30c3.07-.61,6.63,1.48,6.63,4.55Z"/><path class="cls-10" d="M10.07,113.43a106.54,106.54,0,0,1,37.44,0,11.66,11.66,0,0,1,4.29,1.47A30.46,30.46,0,0,1,49,117.6c-10.06,8.71-46.77,0-46.77,0a13.11,13.11,0,0,1,7.86-4Z"/><path class="cls-10" d="M53.15,110.72h0a4.35,4.35,0,0,1,4.3,4.3v17.07a4.34,4.34,0,0,1-4.3,4.29h0a4.34,4.34,0,0,1-4.29-4.29V115A4.35,4.35,0,0,1,53.15,110.72Z"/><polygon class="cls-11" points="78.93 70.58 160.57 51.19 182.67 134.42 100.91 154.79 78.93 70.58"/><polygon class="cls-12" points="102.99 154.3 223.79 124.23 267.25 298.42 146.94 321.38 102.99 154.3"/><g class="cls-13"><polygon class="cls-11" points="102.99 154.3 223.79 124.23 267.25 298.42 146.94 321.38 102.99 154.3"/></g><polygon class="cls-11" points="153.2 141.78 175.06 136.38 191.01 196.9 185.86 193.46 184.63 197.88 181.19 194.32 178.98 198.99 176.04 195.06 173.83 199.97 170.76 196.41 168.06 200.95 153.2 141.78"/><circle class="cls-10" cx="137.61" cy="323.34" r="50.58"/><circle class="cls-14" cx="137.61" cy="323.34" r="31.06"/><circle class="cls-15" cx="137.61" cy="323.34" r="26.27"/><circle class="cls-14" cx="137.61" cy="323.34" r="11.78"/><circle class="cls-8" cx="137" cy="323.47" r="2.95"/><polygon class="cls-11" points="75.62 65.3 160.94 45.05 164.87 61.74 79.55 82 75.62 65.3"/><g class="cls-16"><polygon class="cls-11" points="75.62 65.3 160.94 45.05 164.87 61.74 79.55 82 75.62 65.3"/></g><g class="cls-17"><polygon class="cls-11" points="153.2 141.78 175.06 136.38 191.01 196.9 185.86 193.46 184.63 197.88 181.19 194.32 178.98 198.99 176.04 195.06 173.83 199.97 170.76 196.41 168.06 200.95 153.2 141.78"/></g></g></g></g></svg>