<?xml version="1.0" encoding="utf-8"?><svg id="Layer_1" data-name="Layer 1" xmlns="http://www.w3.org/2000/svg" viewBox="0 0 952.72 48.91"><defs><style>.cls-1{fill:#9c5c8f;}.cls-1,.cls-2,.cls-3,.cls-6{fill-rule:evenodd;}.cls-14,.cls-2{fill:#fff;}.cls-4{fill:#f26322;}.cls-5{fill:#4d4d4d;}.cls-6{fill:#f49819;}.cls-7{fill:#e0262c;}.cls-8{fill:#385faa;}.cls-9{fill:#f4b100;}.cls-10{fill:#8cb625;}.cls-11{fill:#13110c;}.cls-12{fill:#9dbd31;}.cls-13{fill:#5f8c2f;}.cls-15{fill:#1d1d1b;}</style></defs><title>dArtboard 34</title><path class="cls-1" d="M195.75,11.83a4.89,4.89,0,0,1,4.41-3l42.64,0a4.9,4.9,0,0,1,5,5c0,5.45,0,10.89,0,16.34a4.9,4.9,0,0,1-4.62,4.73c-5.19,0-10.37,0-15.56,0l2.1,5.14c-3.09-1.7-6.14-3.45-9.25-5.12-6.82-.06-13.64,0-20.47,0a4.9,4.9,0,0,1-4.61-4.72c0-5.34,0-10.67,0-16a5.44,5.44,0,0,1,.39-2.36Z"/><path class="cls-2" d="M216.6,12.22a1.88,1.88,0,0,1,2.86.38,1.78,1.78,0,0,1,.09,1.69,24.75,24.75,0,0,0-2,6.91,44.21,44.21,0,0,0-.75,9.32,1.81,1.81,0,0,1-1.19,1.95,2.23,2.23,0,0,1-2-.92,21.93,21.93,0,0,1-4.59-9c-1,1.89-1.92,3.78-2.85,5.69a13.25,13.25,0,0,1-2.37,3.62c-.44.44-1.18.83-1.74.39a6.42,6.42,0,0,1-1.43-2.95,124.58,124.58,0,0,1-3-14.45,1.82,1.82,0,0,1,1-2.1,2.07,2.07,0,0,1,2,.2,2.21,2.21,0,0,1,.56,1.37c.56,3.75,1.23,7.49,2.14,11.18q2.32-4.41,4.64-8.84a2.87,2.87,0,0,1,.93-1.14,1.52,1.52,0,0,1,1.87.17,3,3,0,0,1,.64,1.55,39.57,39.57,0,0,0,2,7.15,41.05,41.05,0,0,1,2.13-10.29,7.66,7.66,0,0,1,1-1.92Zm8.73,1.86a5.36,5.36,0,0,1,4.61,1.62,7.08,7.08,0,0,1,1.63,3.79,11.67,11.67,0,0,1-1.28,6.91,7.66,7.66,0,0,1-2.66,3,5.48,5.48,0,0,1-5.73-.19,6.3,6.3,0,0,1-2.4-4,11.07,11.07,0,0,1,3.1-9.91,5.17,5.17,0,0,1,2.73-1.23Zm.35,3.62a3.61,3.61,0,0,0-1.74,1.69,6.38,6.38,0,0,0-.53,5.93,1.78,1.78,0,0,0,1.18,1.13,2.12,2.12,0,0,0,1.64-.63,5.79,5.79,0,0,0,1.71-3.38,5.67,5.67,0,0,0-.7-4.22,1.38,1.38,0,0,0-1.56-.52Zm13.06-3.62a5.37,5.37,0,0,1,4.55,1.52A7.08,7.08,0,0,1,245,19.66a11.68,11.68,0,0,1-1.26,6.67A7.67,7.67,0,0,1,241,29.45a5.51,5.51,0,0,1-5.51-.08,5.56,5.56,0,0,1-2.28-3,11,11,0,0,1,2.5-10.79,5.26,5.26,0,0,1,3-1.48Zm.35,3.62a4,4,0,0,0-1.86,1.91,6.38,6.38,0,0,0-.33,5.81,1.59,1.59,0,0,0,1.27,1,2.42,2.42,0,0,0,1.68-.82,6.21,6.21,0,0,0,1.6-3.73,5.34,5.34,0,0,0-.79-3.7,1.37,1.37,0,0,0-1.57-.51Z"/><path class="cls-3" d="M256.62,14.55a9.93,9.93,0,0,1,4.34.06c0,1.16,0,2.32,0,3.48a5.33,5.33,0,0,0-3.59,0,4.06,4.06,0,0,0-2.1,3.64,4.27,4.27,0,0,0,1.7,3.9,4.85,4.85,0,0,0,4,.24c0,1.16,0,2.32,0,3.48a8.51,8.51,0,0,1-5.28-.18,7.12,7.12,0,0,1-4.24-4.56,9.61,9.61,0,0,1-.15-4.85,7.18,7.18,0,0,1,5.32-5.22Zm10.47-.17a6.91,6.91,0,0,1,5.08,1.19A6.77,6.77,0,0,1,274.46,20a12.63,12.63,0,0,1-.38,5.5,5.82,5.82,0,0,1-2.94,3.57,7.41,7.41,0,0,1-4.76.39,5.36,5.36,0,0,1-3.46-2.59,10.82,10.82,0,0,1-1.1-5.82,7.79,7.79,0,0,1,1.66-4.81,5.56,5.56,0,0,1,3.61-1.88Zm.54,3.33a2.14,2.14,0,0,0-1.37,1.63,13.24,13.24,0,0,0-.21,4.26,3.86,3.86,0,0,0,.72,2.21,1.93,1.93,0,0,0,2.84-.14,3.84,3.84,0,0,0,.66-1.92,13.08,13.08,0,0,0,0-3.59,3.64,3.64,0,0,0-.85-2,1.84,1.84,0,0,0-1.78-.45Zm68.79-3.13a9.89,9.89,0,0,1,4.56,0c0,1.16,0,2.33,0,3.49a5.51,5.51,0,0,0-3.52,0,4,4,0,0,0-2.16,3.33A4.45,4.45,0,0,0,337,25.57a4.78,4.78,0,0,0,4.05.28c0,1.17,0,2.34,0,3.51A8.65,8.65,0,0,1,335.4,29a7.1,7.1,0,0,1-4-4.58,9.4,9.4,0,0,1-.08-4.77,7.17,7.17,0,0,1,5.06-5.08Zm-59.65.14h5c.6,2.69,1.17,5.39,1.67,8.1.47-2.73,1.11-5.42,1.75-8.1h5.1q1,7.29,2,14.6h-3.9c-.36-3.33-.68-6.67-1.07-10-.79,3.34-1.62,6.66-2.42,10H282.2c-.86-3.34-1.69-6.68-2.55-10-.34,3.34-.67,6.68-1,10h-3.73l1.86-14.6Zm17.85,0h5c.6,2.69,1.17,5.38,1.67,8.09.48-2.72,1.11-5.41,1.75-8.09h5.08l2,14.6h-3.9c-.36-3.34-.7-6.68-1.06-10-.81,3.33-1.6,6.67-2.41,10-.89,0-1.78,0-2.66,0l-2.55-10c-.34,3.34-.67,6.68-1,10h-3.73l1.86-14.61Zm16.56,0c2.67-.07,5.34,0,8,0,0,1,0,2.07,0,3.11h-4v2.67h3.5v3h-3.5c0,.89,0,1.78,0,2.67h4v3.11h-8c0-4.86,0-9.72,0-14.57Zm9.15-.06c1.67,0,3.34,0,5,0a6.66,6.66,0,0,1,4.41,1.55,4,4,0,0,1,1,4,4.09,4.09,0,0,1-2.2,2.51c1,2.19,2.1,4.37,3.14,6.56h-4.16c-1.09-2.24-2.14-4.49-3.24-6.72,0,2.24,0,4.48,0,6.72h-4q0-7.3,0-14.61Zm3.93,2.81V21a4.11,4.11,0,0,0,2.1-.51,1.68,1.68,0,0,0,.18-2.24,3.08,3.08,0,0,0-2.28-.74ZM342.1,14.7h8v3.12H346v2.67h3.5v3H346c0,.89,0,1.78,0,2.67,1.35,0,2.71,0,4.06,0V29.3h-8c0-4.87,0-9.74,0-14.6Z"/><g id="Logo-2"><polygon class="cls-4" points="418.57 0.85 398.11 12.67 398.12 36.26 403.96 39.63 403.91 16.04 418.53 7.59 433.15 16.03 433.16 39.61 439 36.24 438.99 12.63 418.57 0.85"/><polygon class="cls-4" points="421.48 39.62 418.56 41.32 415.63 39.64 415.62 16.03 409.78 19.41 409.8 43 418.56 48.06 427.32 42.99 427.31 19.4 421.47 16.03 421.48 39.62"/><path class="cls-5" d="M452.37,12.79l8,20.29h.06l7.83-20.29h3.06V36h-2.11V15.77h-.07c-.11.37-.23.74-.35,1.11s-.24.64-.38,1-.27.72-.37,1.05L461.35,36h-1.92l-6.8-17.1q-.19-.47-.39-1c-.13-.36-.26-.7-.37-1s-.26-.77-.39-1.14h-.06V36h-2V12.79Z"/><path class="cls-5" d="M477.51,36.13a4.73,4.73,0,0,1-1.73-.88,4,4,0,0,1-1.16-1.46,5.44,5.44,0,0,1,.13-4.48,4.18,4.18,0,0,1,1.49-1.52,8,8,0,0,1,2.2-.86,24.17,24.17,0,0,1,2.68-.45c.82-.09,1.52-.18,2.1-.28a6.47,6.47,0,0,0,1.39-.38,1.63,1.63,0,0,0,.78-.6,1.89,1.89,0,0,0,.24-1v-.32a3,3,0,0,0-1-2.55,4.65,4.65,0,0,0-3-.83q-4.49,0-4.71,3.74h-2a5.52,5.52,0,0,1,1.8-3.9,7.16,7.16,0,0,1,4.9-1.47A7,7,0,0,1,486,20.08a4.74,4.74,0,0,1,1.6,4V33.2a1.7,1.7,0,0,0,.28,1.09,1.11,1.11,0,0,0,.83.38,2,2,0,0,0,.34,0l.41-.1h.09V36a2.53,2.53,0,0,1-.55.18,3.14,3.14,0,0,1-.81.08,2.54,2.54,0,0,1-1.76-.57,2.42,2.42,0,0,1-.72-1.8v-.36h-.08a10.62,10.62,0,0,1-.86,1,6,6,0,0,1-1.23,1,6.67,6.67,0,0,1-1.66.68,8.14,8.14,0,0,1-2.14.26,7.65,7.65,0,0,1-2.18-.3m5-1.77a5.82,5.82,0,0,0,1.77-1.12A4.56,4.56,0,0,0,485.67,30v-3a7,7,0,0,1-2,.71c-.77.16-1.57.3-2.39.4s-1.38.23-2,.35a4.75,4.75,0,0,0-1.58.56A3,3,0,0,0,476.69,30a3.4,3.4,0,0,0-.39,1.74,3.08,3.08,0,0,0,.31,1.47,2.64,2.64,0,0,0,.82.94,3,3,0,0,0,1.18.5,6.88,6.88,0,0,0,1.43.15,6.34,6.34,0,0,0,2.43-.44"/><path class="cls-5" d="M493,40.67A4.49,4.49,0,0,1,491,37.53H493a2.74,2.74,0,0,0,1.58,2.09,7.07,7.07,0,0,0,3.14.64,5.4,5.4,0,0,0,4-1.29A4.74,4.74,0,0,0,503,35.44V32.77h-.09A7,7,0,0,1,500.7,35a6,6,0,0,1-3.16.75,7.08,7.08,0,0,1-3-.62,6.74,6.74,0,0,1-2.28-1.72,7.7,7.7,0,0,1-1.45-2.65,11.08,11.08,0,0,1-.5-3.4,10.38,10.38,0,0,1,.58-3.62A8,8,0,0,1,492.46,21a6.38,6.38,0,0,1,2.29-1.62,7.19,7.19,0,0,1,2.78-.56,6,6,0,0,1,3.22.8,6.61,6.61,0,0,1,2.11,2.16h.1V19.21h2V35.37a6.49,6.49,0,0,1-1.56,4.52,7.37,7.37,0,0,1-5.62,2A8,8,0,0,1,493,40.66m8.81-8.51a8.17,8.17,0,0,0,1.34-4.88,10.64,10.64,0,0,0-.33-2.73,6,6,0,0,0-1-2.13A4.69,4.69,0,0,0,500.06,21a5.57,5.57,0,0,0-2.39-.49,4.57,4.57,0,0,0-3.89,1.86,8.06,8.06,0,0,0-1.38,4.94,10.81,10.81,0,0,0,.33,2.65,6.5,6.5,0,0,0,1,2.11,4.67,4.67,0,0,0,1.63,1.4,4.92,4.92,0,0,0,2.31.5,4.76,4.76,0,0,0,4.13-1.85"/><path class="cls-5" d="M512,35.78a6.89,6.89,0,0,1-2.45-1.85,8.4,8.4,0,0,1-1.52-2.8,11.56,11.56,0,0,1-.52-3.5,10.87,10.87,0,0,1,.55-3.49,8.71,8.71,0,0,1,1.54-2.8A6.92,6.92,0,0,1,512,19.49a7.26,7.26,0,0,1,3.17-.67,7,7,0,0,1,3.4.76,6.29,6.29,0,0,1,2.24,2.05A8.42,8.42,0,0,1,522,24.57a16.32,16.32,0,0,1,.36,3.41H509.54a9.51,9.51,0,0,0,.41,2.65A6.77,6.77,0,0,0,511,32.77a4.86,4.86,0,0,0,1.78,1.43,5.61,5.61,0,0,0,2.5.52,4.73,4.73,0,0,0,3.27-1,5.63,5.63,0,0,0,1.64-2.75h1.95a7.15,7.15,0,0,1-2.28,4,6.72,6.72,0,0,1-4.58,1.5,8.08,8.08,0,0,1-3.35-.66m7.93-11.71a5.77,5.77,0,0,0-.94-1.89,4.44,4.44,0,0,0-1.57-1.25,5,5,0,0,0-2.24-.46,5.27,5.27,0,0,0-2.26.46,4.83,4.83,0,0,0-1.68,1.25,6.25,6.25,0,0,0-1.08,1.87,9.47,9.47,0,0,0-.54,2.34h10.67a9.05,9.05,0,0,0-.36-2.32"/><path class="cls-5" d="M526.87,19.2v2.57h.07a6.75,6.75,0,0,1,2.22-2.1,6.54,6.54,0,0,1,3.4-.83,5.59,5.59,0,0,1,3.86,1.35,4.92,4.92,0,0,1,1.51,3.88V36h-2V24.27a3.54,3.54,0,0,0-1-2.81,4.1,4.1,0,0,0-2.82-.89,5.39,5.39,0,0,0-2,.36,5.15,5.15,0,0,0-1.65,1,4.44,4.44,0,0,0-1.53,3.43V36h-2V19.2Z"/><path class="cls-5" d="M543.13,35.44a2.82,2.82,0,0,1-.87-2.33V20.86h-2.53V19.2h2.53V14h2v5.17h3.12v1.66h-3.12V32.79a1.56,1.56,0,0,0,.41,1.25,1.85,1.85,0,0,0,1.22.34,3.63,3.63,0,0,0,.73-.08,3,3,0,0,0,.6-.18h.1v1.72a5.57,5.57,0,0,1-1.86.29,3.64,3.64,0,0,1-2.34-.7"/><path class="cls-5" d="M553.36,35.76a7.07,7.07,0,0,1-2.45-1.85,8.29,8.29,0,0,1-1.55-2.8,11.58,11.58,0,0,1,0-7,8.37,8.37,0,0,1,1.54-2.8,7.16,7.16,0,0,1,2.46-1.86,8.38,8.38,0,0,1,6.52,0,7.18,7.18,0,0,1,2.44,1.86,8,8,0,0,1,1.52,2.8,11.9,11.9,0,0,1,0,7,8.2,8.2,0,0,1-1.53,2.79,7.18,7.18,0,0,1-2.44,1.86,7.64,7.64,0,0,1-3.25.66,7.76,7.76,0,0,1-3.27-.66m5.74-1.58a5,5,0,0,0,1.79-1.53A6.67,6.67,0,0,0,562,30.37a10.76,10.76,0,0,0,0-5.52,6.86,6.86,0,0,0-1.07-2.28,5.05,5.05,0,0,0-1.79-1.52,5.2,5.2,0,0,0-2.47-.56,5.56,5.56,0,0,0-2.49.56,5.25,5.25,0,0,0-1.79,1.52,6.7,6.7,0,0,0-1.09,2.28,10.91,10.91,0,0,0,0,5.53,6.6,6.6,0,0,0,1.09,2.28,5.16,5.16,0,0,0,1.79,1.52,5.26,5.26,0,0,0,2.49.55,5.13,5.13,0,0,0,2.46-.55"/><path class="cls-5" d="M566.94,22a2,2,0,0,1-2.11-2.16,2.12,2.12,0,1,1,4.23,0A2,2,0,0,1,566.94,22m0-4.08a1.76,1.76,0,0,0-1.81,1.92,1.82,1.82,0,1,0,3.63,0,1.77,1.77,0,0,0-1.82-1.91m.62,3.07-.71-1h-.23v1h-.42v-2.4h.73c.5,0,.83.25.83.7a.65.65,0,0,1-.48.66l.69,1Zm-.63-2h-.32v.7h.29c.27,0,.44-.11.44-.35s-.15-.36-.42-.36"/></g><path class="cls-6" d="M80.65,35.49C73.1,41.07,62.15,44,52.73,44A50.52,50.52,0,0,1,18.6,31c-.71-.64-.08-1.51.77-1a68.76,68.76,0,0,0,34.15,9.05,68.17,68.17,0,0,0,26-5.34c1.27-.54,2.34.84,1.09,1.76Z"/><path class="cls-6" d="M83.8,31.9c-1-1.23-6.39-.58-8.82-.29-.74.09-.86-.55-.19-1,4.32-3,11.4-2.16,12.23-1.15S86.8,37.57,82.75,41c-.62.52-1.21.25-.94-.44.91-2.28,3-7.38,2-8.62Z"/><path class="cls-3" d="M75.14,9.14V6.19a.73.73,0,0,1,.74-.75H89.11a.74.74,0,0,1,.76.75V8.71a4.15,4.15,0,0,1-1,1.86L82,20.35A14.7,14.7,0,0,1,89.58,22a1.34,1.34,0,0,1,.7,1.15v3.15c0,.43-.48.93-1,.67a15.26,15.26,0,0,0-14,0c-.46.25-.94-.25-.94-.68v-3a3.58,3.58,0,0,1,.49-2L82.81,9.88H75.9a.73.73,0,0,1-.76-.74Z"/><path class="cls-3" d="M26.9,27.59h-4a.77.77,0,0,1-.72-.68V6.26a.76.76,0,0,1,.78-.75h3.75a.76.76,0,0,1,.73.69V8.9h.08a5.31,5.31,0,0,1,5.29-3.83c2.52,0,4.09,1.22,5.22,3.83A5.94,5.94,0,0,1,48.22,7.33c1.27,1.74,1,4.26,1,6.47v13a.76.76,0,0,1-.78.75h-4a.76.76,0,0,1-.72-.74V15.89A26.19,26.19,0,0,0,43.6,12a2.1,2.1,0,0,0-2.37-1.78,2.66,2.66,0,0,0-2.4,1.7,12.56,12.56,0,0,0-.37,4v11a.76.76,0,0,1-.78.74h-4a.75.75,0,0,1-.73-.74V15.89c0-2.3.38-5.69-2.48-5.69s-2.77,3.31-2.77,5.7V26.84a.77.77,0,0,1-.78.75Z"/><path class="cls-3" d="M101.3,9.26c-3,0-3.16,4.05-3.16,6.57s0,7.9,3.12,7.9,3.27-4.34,3.27-7a19.33,19.33,0,0,0-.6-5.48,2.54,2.54,0,0,0-2.63-2Zm0-4.21c6,0,9.2,5.12,9.2,11.64,0,6.3-3.56,11.3-9.19,11.3-5.86,0-9.06-5.12-9.06-11.51s3.23-11.43,9.05-11.43Z"/><path class="cls-3" d="M118.21,27.55h-4a.75.75,0,0,1-.72-.74V6.15a.76.76,0,0,1,.77-.67H118a.76.76,0,0,1,.72.57V9.21h.07C119.89,6.39,121.47,5,124.24,5a5.28,5.28,0,0,1,4.7,2.43C130,9.12,130,11.9,130,13.9v13a.77.77,0,0,1-.77.65h-4a.76.76,0,0,1-.72-.65V15.69c0-2.26.27-5.57-2.51-5.57a2.64,2.64,0,0,0-2.33,1.66,9.23,9.23,0,0,0-.64,3.91V26.81a.78.78,0,0,1-.79.74Z"/><path class="cls-3" d="M68.66,27.52a.83.83,0,0,1-1,.09,9.72,9.72,0,0,1-2.31-2.68c-2.21,2.25-3.77,2.93-6.63,2.93-3.39,0-6-2.09-6-6.27A6.84,6.84,0,0,1,57,15c2.18-1,5.23-1.13,7.57-1.39v-.53a5.17,5.17,0,0,0-.49-2.91,2.69,2.69,0,0,0-2.26-1,3.07,3.07,0,0,0-3.24,2.42.84.84,0,0,1-.69.74L54,11.87a.71.71,0,0,1-.6-.84c.89-4.73,5.16-6.17,9-6.17,2,0,4.52.52,6.06,2,2,1.83,1.77,4.27,1.77,6.93v6.27a5.45,5.45,0,0,0,1.52,3.72c.25.37.31.81,0,1.07-.82.69-2.28,2-3.08,2.68ZM64.6,17.71A7.91,7.91,0,0,1,63.85,22a3.28,3.28,0,0,1-2.79,1.83c-1.54,0-2.44-1.18-2.44-2.92,0-3.43,3.07-4.05,6-4.05v.87Z"/><path class="cls-3" d="M15.91,27.54a.83.83,0,0,1-.95.09A9.83,9.83,0,0,1,12.66,25C10.45,27.2,8.89,27.88,6,27.88c-3.38,0-6-2.09-6-6.27A6.84,6.84,0,0,1,4.29,15c2.18-1,5.23-1.13,7.56-1.39v-.53a5.08,5.08,0,0,0-.49-2.91,2.69,2.69,0,0,0-2.26-1,3.06,3.06,0,0,0-3.23,2.42.85.85,0,0,1-.7.74l-3.9-.42a.71.71,0,0,1-.6-.84c.9-4.73,5.17-6.17,9-6.17a9.15,9.15,0,0,1,6.06,2c1.95,1.83,1.77,4.27,1.77,6.93v6.27A5.5,5.5,0,0,0,19,23.8c.26.37.32.81,0,1.07-.82.69-2.28,2-3.09,2.68Zm-4.06-9.81A7.91,7.91,0,0,1,11.1,22a3.26,3.26,0,0,1-2.78,1.83c-1.54,0-2.45-1.18-2.45-2.92,0-3.43,3.07-4.05,6-4.05v.87Z"/><path class="cls-7" d="M633.87,14.8c5.16,0,8.68,3.15,8.68,7.89H624.76c0-5,4.58-7.9,9.11-7.9Zm.22-4.12c-8.61,0-15.78,3.66-15.78,14.69,0,8.73,4.83,14.23,16,14.22,13.16,0,14-8.67,14-8.67H642s-1.36,4.67-8,4.67c-5.42,0-9.32-3.65-9.32-8.79H649V23.58c0-5.08-3.23-12.9-14.91-12.9Z"/><path class="cls-8" d="M664.78,15c5.85,0,9.57,4.33,9.57,10.15,0,6.25-4.29,10.33-9.52,10.33-6.24,0-9.61-4.86-9.61-10.26,0-5,3-10.22,9.56-10.22ZM649,0l0,34.05c0,1.94-.14,4.65-.14,4.65H655s.21-2,.21-3.73c0,0,3,4.7,11.19,4.7,8.6,0,14.45-6,14.45-14.55,0-8-5.38-14.37-14.45-14.37-8.49,0-11.13,4.6-11.13,4.6V0Z"/><path class="cls-9" d="M703,25.78v1.78c0,2.32-1.43,8.09-9.86,8.09-4.62,0-6.6-2.3-6.6-5,0-4.86,6.66-4.9,16.46-4.9Zm-7.12-15.12c-13,0-13.79,7.1-13.79,8.23h6.45s.33-4.14,6.89-4.14c4.26,0,7.56,1.94,7.56,5.69v1.34h-7.56c-10,0-15.34,2.94-15.34,8.9s4.91,9,11.53,9c9,0,11.94-5,11.94-5,0,2,.16,3.94.16,3.94h5.73s-.22-2.43-.22-4V21.29c0-8.79-7.09-10.63-13.34-10.63Z"/><polygon class="cls-10" points="705.78 11.77 713.04 11.77 723.46 32.62 733.84 11.76 740.42 11.76 721.51 48.9 714.61 48.91 720.07 38.55 705.78 11.77 705.78 11.77 705.78 11.77"/><path class="cls-11" d="M743.8,9.1c0-.25,0-.47,0-.67h.49l0,.34h0a.77.77,0,0,1,.69-.39.64.64,0,0,1,.62.42h0a.91.91,0,0,1,.73-.42c.38,0,.76.26.76,1v1.33h-.56V9.44c0-.37-.13-.6-.4-.6a.44.44,0,0,0-.4.31,1,1,0,0,0,0,.19v1.35h-.56V9.38c0-.31-.12-.53-.39-.53a.44.44,0,0,0-.41.32.52.52,0,0,0,0,.18v1.34h-.55V9.1Zm-1-1.31v.64h.55v.43h-.55v1c0,.28.08.42.3.42a.65.65,0,0,0,.22,0v.44a1.37,1.37,0,0,1-.41.05.66.66,0,0,1-.49-.18.89.89,0,0,1-.18-.63V8.86H742V8.43h.33V7.92l.55-.13Z"/><path class="cls-12" d="M826.1,5.46a1.13,1.13,0,0,1,.66.23c-1.64.77-3.41,2.72-4.15,6.62l-3.13,1c.87-3,2.94-7.82,6.62-7.82Zm1.53,1.45a9.41,9.41,0,0,1,.52,3.46v.22l-4,1.23c.77-3,2.2-4.38,3.45-4.91Zm3.79,2.67-1.92.59V9.76A9.59,9.59,0,0,0,829,6.65c1.13.15,1.89,1.44,2.38,2.93Zm9.22,2.25a.38.38,0,0,0-.35-.32l-3.2-.24-2.36-2.34a1,1,0,0,0-.87-.11l-1.19.37c-.71-2-2-3.92-4.16-3.92h-.19a2.69,2.69,0,0,0-2.08-1.18c-5.13,0-7.58,6.42-8.35,9.68l-3.59,1.12c-1.12.35-1.15.38-1.3,1.43-.11.79-3,23.33-3,23.33L832.7,43.9,845,41.23l-4.36-29.4Z"/><path class="cls-13" d="M840.29,11.51l-3.2-.24-2.36-2.34a.59.59,0,0,0-.33-.15L832.7,43.9,845,41.23l-4.36-29.4a.38.38,0,0,0-.35-.32Z"/><path class="cls-14" d="M828.51,18.31,827,22.82a7.06,7.06,0,0,0-3-.7c-2.39,0-2.51,1.5-2.51,1.87,0,2.07,5.37,2.85,5.37,7.68,0,3.8-2.4,6.24-5.65,6.25a7.86,7.86,0,0,1-5.89-2.43l1-3.45s2.05,1.76,3.78,1.76a1.52,1.52,0,0,0,1.59-1.54c0-2.69-4.41-2.81-4.41-7.22,0-3.72,2.66-7.32,8-7.32a6.69,6.69,0,0,1,3.1.59Z"/><path class="cls-15" d="M859.33,26.76c-1.22-.67-1.85-1.23-1.85-2,0-1,.87-1.61,2.24-1.61a8.05,8.05,0,0,1,3,.66l1.12-3.43s-1-.81-4.06-.81c-4.23,0-7.15,2.42-7.15,5.82,0,1.93,1.37,3.4,3.19,4.46,1.47.84,2,1.43,2,2.31s-.74,1.65-2.1,1.65a9.5,9.5,0,0,1-4-1.05l-1.19,3.43a9.15,9.15,0,0,0,4.77,1.19c4.35,0,7.47-2.14,7.47-6,0-2.07-1.58-3.54-3.48-4.63Z"/><path class="cls-15" d="M876.65,19.53a6.56,6.56,0,0,0-5.12,2.56l-.07,0,1.86-9.71h-4.84l-4.69,24.71h4.84l1.61-8.45c.63-3.19,2.27-5.15,3.82-5.15,1.08,0,1.5.73,1.51,1.79a11,11,0,0,1-.21,2.13l-1.82,9.68h4.83l1.89-10a18.24,18.24,0,0,0,.35-3.16c0-2.73-1.44-4.38-4-4.38Z"/><path class="cls-15" d="M889.17,33.69c-1.65,0-2.35-1.4-2.35-3.15,0-2.77,1.44-7.3,4.06-7.3,1.72,0,2.28,1.47,2.28,2.91,0,3-1.43,7.54-4,7.54Zm2.38-14.16c-5.82,0-9.67,5.26-9.67,11.11,0,3.75,2.31,6.77,6.66,6.77,5.71,0,9.57-5.13,9.57-11.12,0-3.47-2-6.77-6.56-6.76Z"/><path class="cls-15" d="M905.86,33.75a3.07,3.07,0,0,1-2-.7l.8-4.52c.56-3,2.14-5,3.82-5,1.48,0,1.93,1.36,1.93,2.66,0,3.12-1.85,7.57-4.55,7.57Zm4.62-14.23a6.61,6.61,0,0,0-5.12,2.87h-.07l.28-2.59H901.3c-.21,1.75-.6,4.42-1,6.42L897,43.92h4.84l1.32-7.15h.11a5.63,5.63,0,0,0,2.84.63c5.68,0,9.39-5.82,9.39-11.71,0-3.26-1.44-6.17-5-6.17Z"/><path class="cls-15" d="M922.36,12.57a2.77,2.77,0,0,0-2.77,2.81,2.23,2.23,0,0,0,2.28,2.42h.07A2.73,2.73,0,0,0,924.78,15a2.3,2.3,0,0,0-2.42-2.42Z"/><polygon class="cls-15" points="915.61 37.04 920.44 37.04 923.73 19.9 918.86 19.9 915.61 37.04 915.61 37.04"/><path class="cls-15" d="M936,19.86h-3.37l.18-.81c.28-1.64,1.26-3.12,2.87-3.12a4.94,4.94,0,0,1,1.54.25l1-3.79a6.45,6.45,0,0,0-2.63-.42,7.17,7.17,0,0,0-4.74,1.62,9.23,9.23,0,0,0-2.8,5.47l-.14.8h-2.24l-.7,3.65h2.24L924.65,37h4.84L932,23.51h3.33l.67-3.64Z"/><path class="cls-15" d="M947.67,19.89s-3,7.62-4.37,11.78h-.07c-.1-1.34-1.2-11.78-1.2-11.78H937l2.91,15.74a1,1,0,0,1-.1.81,8.25,8.25,0,0,1-2.63,2.91,10.4,10.4,0,0,1-2.73,1.37l1.33,4.1a11.09,11.09,0,0,0,4.73-2.63c2.21-2.07,4.24-5.26,6.34-9.61l5.92-12.69Z"/></svg>