<?xml version="1.0" encoding="utf-8"?><svg id="Layer_1" data-name="Layer 1" xmlns="http://www.w3.org/2000/svg" viewBox="0 0 100 100"><title>Returns management</title><path d="M99.11,21.71,60,.21a1.73,1.73,0,0,0-1.65,0L43.57,8.31a1.93,1.93,0,0,0-.79.43l-23.6,13a1.7,1.7,0,0,0-.89,1.5V49.39l-.17,0A25.9,25.9,0,0,0,2.62,85.49a1.73,1.73,0,0,0,2.29.78A1.72,1.72,0,0,0,5.7,84,22.44,22.44,0,1,1,16,94.3a1.68,1.68,0,0,0-.75-.17,1.77,1.77,0,0,0-.56.09,1.71,1.71,0,0,0-1,.87,1.68,1.68,0,0,0-.08,1.3,1.72,1.72,0,0,0,.86,1,25.89,25.89,0,0,0,29.65-5,25.47,25.47,0,0,0,5.35-7.76l.12-.25,8.69,4.77a1.73,1.73,0,0,0,1.65,0L99.11,67.69a1.7,1.7,0,0,0,.89-1.5V52.55a1.71,1.71,0,1,0-3.42,0V65.18L60.86,84.79V45.71L73,39.05V49.59a1.71,1.71,0,0,0,2.53,1.5l8.39-4.62A1.7,1.7,0,0,0,84.8,45V32.57L96.58,26.1V36.85a1.71,1.71,0,1,0,3.42,0V23.21A1.7,1.7,0,0,0,99.11,21.71Zm-41.67,24V84.8l-6.66-3.66,0-.19a26.07,26.07,0,0,0,.91-6.82A25.88,25.88,0,0,0,25.87,48.26a26.19,26.19,0,0,0-3.86.29l-.29,0V26.1m13.83-9.48L71.14,36.16l-12,6.59L23.56,23.21M44,12,79.59,31.52l-4.9,2.69L39.11,14.67M81.37,44l-5,2.74V37.17l5-2.72Zm1.78-14.39L47.56,10,59.15,3.67,94.73,23.21Z"/><path d="M100,44.69a1.71,1.71,0,1,0-2.92,1.21,1.77,1.77,0,0,0,2.42,0A1.72,1.72,0,0,0,100,44.69Z"/><path d="M13.35,68.21a1.71,1.71,0,0,0,0,2.42l4.71,4.71a1.75,1.75,0,0,0,2.42,0,1.71,1.71,0,0,0,0-2.42l-1.79-1.79H30.9a5.36,5.36,0,1,1,0,10.71H24a1.71,1.71,0,1,0,0,3.42H30.9a8.78,8.78,0,1,0,0-17.55H18.69l1.79-1.79a1.71,1.71,0,0,0-2.42-2.42Z"/><path d="M10.1,90.11a1.71,1.71,0,0,0-1.16-.61H8.79a1.71,1.71,0,0,0-1.31,2.81,1.76,1.76,0,0,0,2.42.21A1.71,1.71,0,0,0,10.1,90.11Z"/></svg>