<?xml version="1.0" encoding="utf-8"?><svg id="Layer_1" data-name="Layer 1" xmlns="http://www.w3.org/2000/svg" viewBox="0 0 100 100"><title>Secure storage</title><path d="M83.42,38.79,80.65,35.9V19.35h1.61a1.61,1.61,0,0,0,1.61-1.61V12.9a1.61,1.61,0,0,0-1.61-1.61H69.35a1.61,1.61,0,0,0-1.61,1.61v4.84a1.61,1.61,0,0,0,1.61,1.61H71v6.52L51.16,5.33a1.61,1.61,0,0,0-2.28,0l0,0L5.29,50.49a1.61,1.61,0,0,0,2.32,2.24l8.52-8.83v48H1.61a1.61,1.61,0,1,0,0,3.22H91.94a1.61,1.61,0,1,0,0-3.22H83.87v-48l8.52,8.83a1.61,1.61,0,1,0,2.32-2.24h0ZM71,14.52h9.68v1.61H71ZM19.35,91.94V40.55L50,8.77,71.42,31a1.61,1.61,0,0,0,2.28,0,1.58,1.58,0,0,0,.49-1.16V19.35h3.23v17.2a1.61,1.61,0,0,0,.45,1.12l2.78,2.88V91.94Z"/><path d="M98.39,91.94H96.77a1.61,1.61,0,0,0,0,3.22h1.62a1.61,1.61,0,0,0,0-3.22Z"/><path d="M32.26,87.1H22.58a1.61,1.61,0,0,0,0,3.22h9.68a1.61,1.61,0,1,0,0-3.22Z"/><path d="M38.71,87.1H37.1a1.61,1.61,0,1,0,0,3.22h1.61a1.61,1.61,0,1,0,0-3.22Z"/><path d="M50,39.43A18.62,18.62,0,1,1,31.38,58,18.64,18.64,0,0,1,50,39.43m0-3.38A22,22,0,1,0,72,58a22,22,0,0,0-22-22Z"/><path d="M43.85,58.54a1.61,1.61,0,0,0-2.28,2.28L44.79,64a1.61,1.61,0,0,0,2.19.09l11.29-9.68a1.61,1.61,0,1,0-2-2.53l-.09.08L46,60.71Z"/></svg>