<?xml version="1.0" encoding="utf-8"?><svg xmlns="http://www.w3.org/2000/svg" xmlns:xlink="http://www.w3.org/1999/xlink" viewBox="0 0 1000 700"><defs><style>.cls-1{fill:#fff;}.cls-2{clip-path:url(#clip-path);}.cls-3{clip-path:url(#clip-path-2);}.cls-4{clip-path:url(#clip-path-3);}.cls-5{clip-path:url(#clip-path-4);}.cls-6{clip-path:url(#clip-path-5);}.cls-7{clip-path:url(#clip-path-6);}</style><clipPath id="clip-path"><path class="cls-1" d="M403.59,423.7a23,23,0,1,1,23,23,23,23,0,0,1-23-23h0m186.78,0a23,23,0,1,1,23,23h0a23,23,0,0,1-23-23M647,372.87v-6h12v12h-6a6,6,0,0,1-6-6M579.18,299h47l8.67,34.67H579.05Zm0-22.64H619A11.7,11.7,0,0,1,630.69,288v.37H579.05ZM364,243a11,11,0,0,0-10.6,10.94v96.21A5.32,5.32,0,1,0,364,351a5.89,5.89,0,0,0,0-.84V253.93a.34.34,0,0,1,.34-.34H567.93a.35.35,0,0,1,.38.31v96.24a5.32,5.32,0,1,0,10.6.84,3.93,3.93,0,0,0,0-.84v-6h62.73a17.31,17.31,0,0,1,16.5,12h-16.5a5.28,5.28,0,0,0-5.29,5.28v11.32A16.64,16.64,0,0,0,653,389.41h6v23.35h-13.9a33.58,33.58,0,0,0-63.5,0h-2.54v-40a5.32,5.32,0,0,0-10.61,0v40H458.35a33.59,33.59,0,0,0-63.51,0h-30.5a.38.38,0,0,1-.37-.34V400.8h23a5.32,5.32,0,0,0,0-10.61H336.15a5.32,5.32,0,0,0-.85,10.61,6,6,0,0,0,.85,0h17.22v11.69a11,11,0,0,0,11,10.94H393v.34A33.64,33.64,0,0,0,421.68,457h9.79a33.62,33.62,0,0,0,28.71-33.24v-.34H579.76v.34A33.63,33.63,0,0,0,608.6,457h9.79a33.65,33.65,0,0,0,28.7-33.25v-.34h17.35a5.27,5.27,0,0,0,5.15-5.28V361.45a28,28,0,0,0-23.72-27.61l-8.77-35.11a5.33,5.33,0,0,0,4.2-5.18v-5.66A22.3,22.3,0,0,0,619,265.62h-40V253.93A11,11,0,0,0,568.41,243Z"/></clipPath><clipPath id="clip-path-2"><path class="cls-1" d="M415.61,423.7a11,11,0,1,0,11-10.94h0a11,11,0,0,0-11,10.94"/></clipPath><clipPath id="clip-path-3"><path class="cls-1" d="M602.4,423.7a11,11,0,1,0,11-10.94h-.07A11,11,0,0,0,602.4,423.7"/></clipPath><clipPath id="clip-path-4"><path class="cls-1" d="M471.87,390.12a5.32,5.32,0,0,0-.85,10.61,6,6,0,0,0,.85,0H551a5.32,5.32,0,1,0,.85-10.61,6,6,0,0,0-.85,0Z"/></clipPath><clipPath id="clip-path-5"><path class="cls-1" d="M347.37,367.49a5.32,5.32,0,1,0-.85,10.6,6,6,0,0,0,.85,0h68.08a5.32,5.32,0,0,0,.84-10.6,3.93,3.93,0,0,0-.84,0Z"/></clipPath><clipPath id="clip-path-6"><path class="cls-1" d="M507.72,295.48l-47.17,47.17L436,318.11a5.32,5.32,0,0,0-8,7,5.11,5.11,0,0,0,.52.52l28.3,28.3a5.33,5.33,0,0,0,7.52,0l50.83-50.83a5.32,5.32,0,0,0-7.52-7.49"/></clipPath></defs><title>4Artboard 7</title><g id="Layer_1" data-name="Layer 1"><rect width="1000" height="700"/></g><g id="Layer_2" data-name="Layer 2"><path class="cls-1" d="M403.59,423.7a23,23,0,1,1,23,23,23,23,0,0,1-23-23h0m186.78,0a23,23,0,1,1,23,23h0a23,23,0,0,1-23-23M647,372.87v-6h12v12h-6a6,6,0,0,1-6-6M579.18,299h47l8.67,34.67H579.05Zm0-22.64H619A11.7,11.7,0,0,1,630.69,288v.37H579.05ZM364,243a11,11,0,0,0-10.6,10.94v96.21A5.32,5.32,0,1,0,364,351a5.89,5.89,0,0,0,0-.84V253.93a.34.34,0,0,1,.34-.34H567.93a.35.35,0,0,1,.38.31v96.24a5.32,5.32,0,1,0,10.6.84,3.93,3.93,0,0,0,0-.84v-6h62.73a17.31,17.31,0,0,1,16.5,12h-16.5a5.28,5.28,0,0,0-5.29,5.28v11.32A16.64,16.64,0,0,0,653,389.41h6v23.35h-13.9a33.58,33.58,0,0,0-63.5,0h-2.54v-40a5.32,5.32,0,0,0-10.61,0v40H458.35a33.59,33.59,0,0,0-63.51,0h-30.5a.38.38,0,0,1-.37-.34V400.8h23a5.32,5.32,0,0,0,0-10.61H336.15a5.32,5.32,0,0,0-.85,10.61,6,6,0,0,0,.85,0h17.22v11.69a11,11,0,0,0,11,10.94H393v.34A33.64,33.64,0,0,0,421.68,457h9.79a33.62,33.62,0,0,0,28.71-33.24v-.34H579.76v.34A33.63,33.63,0,0,0,608.6,457h9.79a33.65,33.65,0,0,0,28.7-33.25v-.34h17.35a5.27,5.27,0,0,0,5.15-5.28V361.45a28,28,0,0,0-23.72-27.61l-8.77-35.11a5.33,5.33,0,0,0,4.2-5.18v-5.66A22.3,22.3,0,0,0,619,265.62h-40V253.93A11,11,0,0,0,568.41,243Z"/><path class="cls-1" d="M403.59,423.7a23,23,0,1,1,23,23,23,23,0,0,1-23-23h0m186.78,0a23,23,0,1,1,23,23h0a23,23,0,0,1-23-23M647,372.87v-6h12v12h-6a6,6,0,0,1-6-6M579.18,299h47l8.67,34.67H579.05Zm0-22.64H619A11.7,11.7,0,0,1,630.69,288v.37H579.05ZM364,243a11,11,0,0,0-10.6,10.94v96.21A5.32,5.32,0,1,0,364,351a5.89,5.89,0,0,0,0-.84V253.93a.34.34,0,0,1,.34-.34H567.93a.35.35,0,0,1,.38.31v96.24a5.32,5.32,0,1,0,10.6.84,3.93,3.93,0,0,0,0-.84v-6h62.73a17.31,17.31,0,0,1,16.5,12h-16.5a5.28,5.28,0,0,0-5.29,5.28v11.32A16.64,16.64,0,0,0,653,389.41h6v23.35h-13.9a33.58,33.58,0,0,0-63.5,0h-2.54v-40a5.32,5.32,0,0,0-10.61,0v40H458.35a33.59,33.59,0,0,0-63.51,0h-30.5a.38.38,0,0,1-.37-.34V400.8h23a5.32,5.32,0,0,0,0-10.61H336.15a5.32,5.32,0,0,0-.85,10.61,6,6,0,0,0,.85,0h17.22v11.69a11,11,0,0,0,11,10.94H393v.34A33.64,33.64,0,0,0,421.68,457h9.79a33.62,33.62,0,0,0,28.71-33.24v-.34H579.76v.34A33.63,33.63,0,0,0,608.6,457h9.79a33.65,33.65,0,0,0,28.7-33.25v-.34h17.35a5.27,5.27,0,0,0,5.15-5.28V361.45a28,28,0,0,0-23.72-27.61l-8.77-35.11a5.33,5.33,0,0,0,4.2-5.18v-5.66A22.3,22.3,0,0,0,619,265.62h-40V253.93A11,11,0,0,0,568.41,243Z"/><g class="cls-2"><polygon class="cls-1" points="330.73 455.86 332.19 457.32 330.73 457.32 330.73 455.86"/><polygon class="cls-1" points="330.73 453.83 334.22 457.32 332.19 457.32 330.73 455.86 330.73 453.83"/><polygon class="cls-1" points="330.73 451.83 336.22 457.32 334.22 457.32 330.73 453.83 330.73 451.83"/><polygon class="cls-1" points="330.73 449.83 338.22 457.32 336.22 457.32 330.73 451.83 330.73 449.83"/><polygon class="cls-1" points="330.73 447.8 340.25 457.32 338.22 457.32 330.73 449.83 330.73 447.8"/><polygon class="cls-1" points="330.73 445.8 342.25 457.32 340.25 457.32 330.73 447.8 330.73 445.8"/><polygon class="cls-1" points="330.73 443.8 344.28 457.32 342.25 457.32 330.73 445.8 330.73 443.8"/><polygon class="cls-1" points="330.73 441.76 346.28 457.32 344.28 457.32 330.73 443.76 330.73 441.76"/><polygon class="cls-1" points="330.73 439.76 348.28 457.32 346.28 457.32 330.73 441.76 330.73 439.76"/><polygon class="cls-1" points="330.73 437.73 350.32 457.32 348.28 457.32 330.73 439.76 330.73 437.73"/><polygon class="cls-1" points="330.73 435.73 352.31 457.32 350.32 457.32 330.73 437.73 330.73 435.73"/><polygon class="cls-1" points="330.73 433.73 354.35 457.32 352.31 457.32 330.73 435.73 330.73 433.73"/><polygon class="cls-1" points="330.73 431.7 356.35 457.32 354.35 457.32 330.73 433.73 330.73 431.7"/><polygon class="cls-1" points="330.73 429.7 358.35 457.32 356.35 457.32 330.73 431.7 330.73 429.7"/><polygon class="cls-1" points="330.73 427.67 360.38 457.32 358.35 457.32 330.73 429.7 330.73 427.67"/><polygon class="cls-1" points="330.73 425.67 362.38 457.32 360.38 457.32 330.73 427.67 330.73 425.67"/><polygon class="cls-1" points="330.73 423.67 364.38 457.32 362.38 457.32 330.73 425.67 330.73 423.67"/><polygon class="cls-1" points="330.73 421.64 366.41 457.32 364.38 457.32 330.73 423.67 330.73 421.64"/><polygon class="cls-1" points="330.73 419.64 368.41 457.32 366.41 457.32 330.73 421.64 330.73 419.64"/><polygon class="cls-1" points="330.73 417.64 370.41 457.32 368.41 457.32 330.73 419.64 330.73 417.64"/><polygon class="cls-1" points="330.73 415.6 372.44 457.32 370.41 457.32 330.73 417.64 330.73 415.6"/><polygon class="cls-1" points="330.73 413.61 374.44 457.32 372.44 457.32 330.73 415.6 330.73 413.61"/><polygon class="cls-1" points="330.73 411.57 376.48 457.32 374.44 457.32 330.73 413.61 330.73 411.57"/><polygon class="cls-1" points="330.73 409.57 378.48 457.32 376.48 457.32 330.73 411.57 330.73 409.57"/><polygon class="cls-1" points="330.73 407.57 380.47 457.32 378.48 457.32 330.73 409.57 330.73 407.57"/><polygon class="cls-1" points="330.73 405.54 382.51 457.32 380.47 457.32 330.73 407.57 330.73 405.54"/><polygon class="cls-1" points="330.73 403.54 384.51 457.32 382.51 457.32 330.73 405.54 330.73 403.54"/><polygon class="cls-1" points="330.73 401.54 386.51 457.32 384.51 457.32 330.73 403.54 330.73 401.54"/><polygon class="cls-1" points="330.73 399.51 388.54 457.32 386.51 457.32 330.73 401.54 330.73 399.51"/><polygon class="cls-1" points="330.73 397.51 390.54 457.32 388.54 457.32 330.73 399.51 330.73 397.51"/><polygon class="cls-1" points="330.73 395.51 392.57 457.32 390.54 457.32 330.73 397.51 330.73 395.51"/><polygon class="cls-1" points="330.73 393.48 394.57 457.32 392.57 457.32 330.73 395.48 330.73 393.48"/><polygon class="cls-1" points="330.73 391.48 396.57 457.32 394.57 457.32 330.73 393.48 330.73 391.48"/><polygon class="cls-1" points="330.73 389.44 398.6 457.32 396.57 457.32 330.73 391.48 330.73 389.44"/><polygon class="cls-1" points="330.73 387.44 400.6 457.32 398.6 457.32 330.73 389.44 330.73 387.44"/><polygon class="cls-1" points="330.73 385.44 402.6 457.32 400.6 457.32 330.73 387.44 330.73 385.44"/><polygon class="cls-1" points="330.73 383.41 404.64 457.32 402.6 457.32 330.73 385.44 330.73 383.41"/><polygon class="cls-1" points="330.73 381.41 406.63 457.32 404.64 457.32 330.73 383.41 330.73 381.41"/><polygon class="cls-1" points="330.73 379.41 408.67 457.32 406.63 457.32 330.73 381.41 330.73 379.41"/><polygon class="cls-1" points="330.73 377.38 410.67 457.32 408.67 457.32 330.73 379.38 330.73 377.38"/><polygon class="cls-1" points="330.73 375.38 412.67 457.32 410.67 457.32 330.73 377.38 330.73 375.38"/><polygon class="cls-1" points="330.73 373.35 414.7 457.32 412.67 457.32 330.73 375.35 330.73 373.35"/><polygon class="cls-1" points="330.73 371.35 416.7 457.32 414.7 457.32 330.73 373.35 330.73 371.35"/><polygon class="cls-1" points="330.73 369.35 418.73 457.32 416.7 457.32 330.73 371.35 330.73 369.35"/><polygon class="cls-1" points="330.73 367.32 420.73 457.32 418.73 457.32 330.73 369.31 330.73 367.32"/><polygon class="cls-1" points="330.73 365.32 422.73 457.32 420.73 457.32 330.73 367.32 330.73 365.32"/><polygon class="cls-1" points="330.73 363.28 424.76 457.32 422.73 457.32 330.73 365.32 330.73 363.28"/><polygon class="cls-1" points="330.73 361.28 426.76 457.32 424.76 457.32 330.73 363.28 330.73 361.28"/><polygon class="cls-1" points="330.73 359.29 428.76 457.32 426.76 457.32 330.73 361.28 330.73 359.29"/><polygon class="cls-1" points="330.73 357.25 430.8 457.32 428.76 457.32 330.73 359.29 330.73 357.25"/><polygon class="cls-1" points="330.73 355.25 432.8 457.32 430.8 457.32 330.73 357.25 330.73 355.25"/><polygon class="cls-1" points="330.73 353.25 434.83 457.32 432.8 457.32 330.73 355.25 330.73 353.25"/><polygon class="cls-1" points="330.73 351.22 436.83 457.32 434.83 457.32 330.73 353.22 330.73 351.22"/><polygon class="cls-1" points="330.73 349.22 438.83 457.32 436.83 457.32 330.73 351.22 330.73 349.22"/><polygon class="cls-1" points="330.73 347.19 440.86 457.32 438.83 457.32 330.73 349.22 330.73 347.19"/><polygon class="cls-1" points="330.73 345.19 442.86 457.32 440.86 457.32 330.73 347.19 330.73 345.19"/><polygon class="cls-1" points="330.73 343.19 444.86 457.32 442.86 457.32 330.73 345.19 330.73 343.19"/><polygon class="cls-1" points="330.73 341.16 446.89 457.32 444.86 457.32 330.73 343.19 330.73 341.16"/><polygon class="cls-1" points="330.73 339.16 448.89 457.32 446.89 457.32 330.73 341.16 330.73 339.16"/><polygon class="cls-1" points="330.73 337.16 450.92 457.32 448.89 457.32 330.73 339.16 330.73 337.16"/><polygon class="cls-1" points="330.73 335.12 452.92 457.32 450.92 457.32 330.73 337.16 330.73 335.12"/><polygon class="cls-1" points="330.73 333.13 454.92 457.32 452.92 457.32 330.73 335.12 330.73 333.13"/><polygon class="cls-1" points="330.73 331.09 456.96 457.32 454.92 457.32 330.73 333.13 330.73 331.09"/><polygon class="cls-1" points="330.73 329.09 458.96 457.32 456.96 457.32 330.73 331.09 330.73 329.09"/><polygon class="cls-1" points="330.73 327.09 460.95 457.32 458.96 457.32 330.73 329.09 330.73 327.09"/><polygon class="cls-1" points="330.73 325.06 462.99 457.32 460.95 457.32 330.73 327.09 330.73 325.06"/><polygon class="cls-1" points="330.73 323.06 464.99 457.32 462.99 457.32 330.73 325.06 330.73 323.06"/><polygon class="cls-1" points="330.73 321.06 467.02 457.32 464.99 457.32 330.73 323.06 330.73 321.06"/><polygon class="cls-1" points="330.73 319.03 469.02 457.32 467.02 457.32 330.73 321.03 330.73 319.03"/><polygon class="cls-1" points="330.73 317.03 471.02 457.32 469.02 457.32 330.73 319.03 330.73 317.03"/><polygon class="cls-1" points="330.73 315 473.05 457.32 471.02 457.32 330.73 317.03 330.73 315"/><polygon class="cls-1" points="330.73 313 475.05 457.32 473.05 457.32 330.73 315 330.73 313"/><polygon class="cls-1" points="330.73 311 477.08 457.32 475.05 457.32 330.73 313 330.73 311"/><polygon class="cls-1" points="330.73 308.96 479.08 457.32 477.08 457.32 330.73 311 330.73 308.96"/><polygon class="cls-1" points="330.73 306.96 481.08 457.32 479.08 457.32 330.73 308.96 330.73 306.96"/><polygon class="cls-1" points="330.73 304.96 483.12 457.32 481.08 457.32 330.73 306.96 330.73 304.96"/><polygon class="cls-1" points="330.73 302.93 485.12 457.32 483.12 457.32 330.73 304.93 330.73 302.93"/><polygon class="cls-1" points="330.73 300.93 487.12 457.32 485.12 457.32 330.73 302.93 330.73 300.93"/><polygon class="cls-1" points="330.73 298.9 489.15 457.32 487.12 457.32 330.73 300.93 330.73 298.9"/><polygon class="cls-1" points="330.73 296.9 491.15 457.32 489.15 457.32 330.73 298.9 330.73 296.9"/><polygon class="cls-1" points="330.73 294.9 493.18 457.32 491.15 457.32 330.73 296.9 330.73 294.9"/><polygon class="cls-1" points="330.73 292.87 495.18 457.32 493.18 457.32 330.73 294.9 330.73 292.87"/><polygon class="cls-1" points="330.73 290.87 497.18 457.32 495.18 457.32 330.73 292.87 330.73 290.87"/><polygon class="cls-1" points="330.73 288.87 499.21 457.32 497.18 457.32 330.73 290.87 330.73 288.87"/><polygon class="cls-1" points="330.73 286.84 501.21 457.32 499.21 457.32 330.73 288.87 330.73 286.84"/><polygon class="cls-1" points="330.73 284.84 503.21 457.32 501.21 457.32 330.73 286.84 330.73 284.84"/><polygon class="cls-1" points="330.73 282.8 505.24 457.32 503.21 457.32 330.73 284.84 330.73 282.8"/><polygon class="cls-1" points="330.73 280.8 507.24 457.32 505.24 457.32 330.73 282.8 330.73 280.8"/><polygon class="cls-1" points="330.73 278.81 509.24 457.32 507.24 457.32 330.73 280.8 330.73 278.81"/><polygon class="cls-1" points="330.73 276.77 511.28 457.32 509.24 457.32 330.73 278.81 330.73 276.77"/><polygon class="cls-1" points="330.73 274.77 513.27 457.32 511.28 457.32 330.73 276.77 330.73 274.77"/><polygon class="cls-1" points="330.73 272.74 515.31 457.32 513.27 457.32 330.73 274.77 330.73 272.74"/><polygon class="cls-1" points="330.73 270.74 517.31 457.32 515.31 457.32 330.73 272.74 330.73 270.74"/><polygon class="cls-1" points="330.73 268.74 519.31 457.32 517.31 457.32 330.73 270.74 330.73 268.74"/><polygon class="cls-1" points="330.73 266.71 521.34 457.32 519.31 457.32 330.73 268.74 330.73 266.71"/><polygon class="cls-1" points="330.73 264.71 523.34 457.32 521.34 457.32 330.73 266.71 330.73 264.71"/><polygon class="cls-1" points="330.73 262.71 525.34 457.32 523.34 457.32 330.73 264.71 330.73 262.71"/><polygon class="cls-1" points="330.73 260.68 527.37 457.32 525.34 457.32 330.73 262.71 330.73 260.68"/><polygon class="cls-1" points="330.73 259.56 331.17 259.12 529.37 457.32 527.37 457.32 330.73 260.68 330.73 259.56"/><polygon class="cls-1" points="331.17 259.12 332.19 258.1 531.4 457.32 529.37 457.32 331.17 259.12"/><polygon class="cls-1" points="332.19 258.1 333.2 257.12 533.4 457.32 531.4 457.32 332.19 258.1"/><polygon class="cls-1" points="333.17 257.12 334.19 256.1 535.4 457.32 533.4 457.32 333.17 257.12"/><polygon class="cls-1" points="334.19 256.1 335.2 255.08 537.44 457.32 535.4 457.32 334.19 256.1"/><polygon class="cls-1" points="335.2 255.08 336.22 254.07 539.44 457.32 537.44 457.32 335.2 255.08"/><polygon class="cls-1" points="336.22 254.07 337.2 253.09 541.47 457.32 539.44 457.32 336.22 254.07"/><polygon class="cls-1" points="337.2 253.09 338.22 252.07 543.47 457.32 541.47 457.32 337.2 253.09"/><polygon class="cls-1" points="338.22 252.07 339.24 251.09 545.47 457.32 543.47 457.32 338.22 252.07"/><polygon class="cls-1" points="339.24 251.09 340.22 250.07 547.5 457.32 545.47 457.32 339.24 251.09"/><polygon class="cls-1" points="340.22 250.07 341.23 249.05 549.5 457.32 547.5 457.32 340.22 250.07"/><polygon class="cls-1" points="341.23 249.05 342.25 248.04 551.5 457.32 549.5 457.32 341.23 249.05"/><polygon class="cls-1" points="342.25 248.04 343.23 247.05 553.53 457.32 551.53 457.32 342.25 248.04"/><polygon class="cls-1" points="343.23 247.05 344.25 246.04 555.53 457.32 553.53 457.32 343.23 247.05"/><polygon class="cls-1" points="344.25 246.04 345.27 245.02 557.57 457.32 555.53 457.32 344.25 246.04"/><polygon class="cls-1" points="345.27 245.02 346.25 244.04 559.56 457.32 557.57 457.32 345.27 245.02"/><polygon class="cls-1" points="346.25 244.04 347.27 243.02 561.56 457.32 559.56 457.32 346.25 244.04"/><polygon class="cls-1" points="347.27 243.02 347.33 242.99 349.23 242.99 563.6 457.32 561.56 457.32 347.27 243.02"/><polygon class="cls-1" points="351.23 242.99 565.6 457.32 563.6 457.32 349.23 242.99 351.23 242.99"/><polygon class="cls-1" points="353.26 242.99 567.6 457.32 565.6 457.32 351.23 242.99 353.26 242.99"/><polygon class="cls-1" points="355.26 242.99 569.63 457.32 567.6 457.32 353.26 242.99 355.26 242.99"/><polygon class="cls-1" points="357.3 242.99 571.63 457.32 569.63 457.32 355.26 242.99 357.3 242.99"/><polygon class="cls-1" points="359.3 242.99 573.66 457.32 571.63 457.32 357.3 242.99 359.3 242.99"/><polygon class="cls-1" points="361.3 242.99 575.66 457.32 573.63 457.32 359.3 242.99 361.3 242.99"/><polygon class="cls-1" points="363.33 242.99 577.66 457.32 575.66 457.32 361.33 242.99 363.33 242.99"/><polygon class="cls-1" points="365.33 242.99 579.69 457.32 577.66 457.32 363.33 242.99 365.33 242.99"/><polygon class="cls-1" points="367.33 242.99 581.69 457.32 579.69 457.32 365.33 242.99 367.33 242.99"/><polygon class="cls-1" points="369.36 242.99 583.69 457.32 581.69 457.32 367.36 242.99 369.36 242.99"/><polygon class="cls-1" points="371.36 242.99 585.73 457.32 583.69 457.32 369.36 242.99 371.36 242.99"/><polygon class="cls-1" points="373.39 242.99 587.72 457.32 585.73 457.32 371.36 242.99 373.39 242.99"/><polygon class="cls-1" points="375.39 242.99 589.76 457.32 587.72 457.32 373.39 242.99 375.39 242.99"/><polygon class="cls-1" points="377.39 242.99 591.76 457.32 589.76 457.32 375.39 242.99 377.39 242.99"/><polygon class="cls-1" points="379.42 242.99 593.76 457.32 591.76 457.32 377.39 242.99 379.42 242.99"/><polygon class="cls-1" points="381.42 242.99 595.79 457.32 593.76 457.32 379.42 242.99 381.42 242.99"/><polygon class="cls-1" points="383.42 242.99 597.79 457.32 595.79 457.32 381.42 242.99 383.42 242.99"/><polygon class="cls-1" points="385.46 242.99 599.82 457.32 597.79 457.32 383.46 242.99 385.46 242.99"/><polygon class="cls-1" points="387.45 242.99 601.82 457.32 599.79 457.32 385.46 242.99 387.45 242.99"/><polygon class="cls-1" points="389.49 242.99 603.82 457.32 601.82 457.32 387.45 242.99 389.49 242.99"/><polygon class="cls-1" points="391.49 242.99 605.85 457.32 603.82 457.32 389.49 242.99 391.49 242.99"/><polygon class="cls-1" points="393.49 242.99 607.85 457.32 605.85 457.32 391.49 242.99 393.49 242.99"/><polygon class="cls-1" points="395.52 242.99 609.85 457.32 607.85 457.32 393.49 242.99 395.52 242.99"/><polygon class="cls-1" points="397.52 242.99 611.88 457.32 609.85 457.32 395.52 242.99 397.52 242.99"/><polygon class="cls-1" points="399.52 242.99 613.88 457.32 611.88 457.32 397.52 242.99 399.52 242.99"/><polygon class="cls-1" points="401.55 242.99 615.92 457.32 613.88 457.32 399.52 242.99 401.55 242.99"/><polygon class="cls-1" points="403.55 242.99 617.92 457.32 615.88 457.32 401.55 242.99 403.55 242.99"/><polygon class="cls-1" points="405.58 242.99 619.92 457.32 617.92 457.32 403.55 242.99 405.58 242.99"/><polygon class="cls-1" points="407.58 242.99 621.95 457.32 619.92 457.32 405.58 242.99 407.58 242.99"/><polygon class="cls-1" points="409.58 242.99 623.95 457.32 621.95 457.32 407.58 242.99 409.58 242.99"/><polygon class="cls-1" points="411.62 242.99 625.95 457.32 623.95 457.32 409.58 242.99 411.62 242.99"/><polygon class="cls-1" points="413.62 242.99 627.98 457.32 625.95 457.32 411.62 242.99 413.62 242.99"/><polygon class="cls-1" points="415.62 242.99 629.98 457.32 627.98 457.32 413.62 242.99 415.62 242.99"/><polygon class="cls-1" points="417.65 242.99 632.01 457.32 629.98 457.32 415.65 242.99 417.65 242.99"/><polygon class="cls-1" points="419.65 242.99 634.01 457.32 631.98 457.32 417.65 242.99 419.65 242.99"/><polygon class="cls-1" points="421.68 242.99 636.01 457.32 634.01 457.32 419.65 242.99 421.68 242.99"/><polygon class="cls-1" points="423.68 242.99 638.04 457.32 636.01 457.32 421.68 242.99 423.68 242.99"/><polygon class="cls-1" points="425.68 242.99 640.04 457.32 638.04 457.32 423.68 242.99 425.68 242.99"/><polygon class="cls-1" points="427.71 242.99 642.04 457.32 640.04 457.32 425.68 242.99 427.71 242.99"/><polygon class="cls-1" points="429.71 242.99 644.08 457.32 642.04 457.32 427.71 242.99 429.71 242.99"/><polygon class="cls-1" points="431.71 242.99 645.16 456.4 644.21 457.32 644.08 457.32 429.71 242.99 431.71 242.99"/><polygon class="cls-1" points="433.74 242.99 646.14 455.39 645.16 456.4 431.75 242.99 433.74 242.99"/><polygon class="cls-1" points="435.74 242.99 647.16 454.37 646.14 455.39 433.74 242.99 435.74 242.99"/><polygon class="cls-1" points="437.78 242.99 648.18 453.39 647.16 454.37 435.74 242.99 437.78 242.99"/><polygon class="cls-1" points="439.78 242.99 649.19 452.37 648.18 453.39 437.78 242.99 439.78 242.99"/><polygon class="cls-1" points="441.77 242.99 650.18 451.35 649.16 452.37 439.78 242.99 441.77 242.99"/><polygon class="cls-1" points="443.81 242.99 651.19 450.37 650.18 451.35 441.77 242.99 443.81 242.99"/><polygon class="cls-1" points="445.81 242.99 652.18 449.36 651.19 450.37 443.81 242.99 445.81 242.99"/><polygon class="cls-1" points="447.84 242.99 653.19 448.34 652.21 449.36 445.81 242.99 447.84 242.99"/><polygon class="cls-1" points="449.84 242.99 654.21 447.32 653.19 448.34 447.84 242.99 449.84 242.99"/><polygon class="cls-1" points="451.84 242.99 655.23 446.34 654.21 447.32 449.84 242.99 451.84 242.99"/><polygon class="cls-1" points="453.87 242.99 656.21 445.32 655.23 446.34 451.84 242.99 453.87 242.99"/><polygon class="cls-1" points="455.87 242.99 657.23 444.31 656.21 445.32 453.87 242.99 455.87 242.99"/><polygon class="cls-1" points="457.87 242.99 658.24 443.32 657.23 444.31 455.87 242.99 457.87 242.99"/><polygon class="cls-1" points="459.9 242.99 659.22 442.31 658.24 443.32 457.87 242.99 459.9 242.99"/><polygon class="cls-1" points="461.9 242.99 660.24 441.29 659.22 442.31 459.9 242.99 461.9 242.99"/><polygon class="cls-1" points="463.94 242.99 661.26 440.31 660.24 441.29 461.9 242.99 463.94 242.99"/><polygon class="cls-1" points="465.94 242.99 662.24 439.29 661.26 440.31 463.9 242.99 465.94 242.99"/><polygon class="cls-1" points="467.94 242.99 663.26 438.27 662.24 439.29 465.94 242.99 467.94 242.99"/><polygon class="cls-1" points="469.97 242.99 664.27 437.29 663.26 438.27 467.94 242.99 469.97 242.99"/><polygon class="cls-1" points="471.97 242.99 665.26 436.27 664.27 437.29 469.97 242.99 471.97 242.99"/><polygon class="cls-1" points="473.97 242.99 666.27 435.26 665.26 436.27 471.97 242.99 473.97 242.99"/><polygon class="cls-1" points="476 242.99 667.29 434.28 666.27 435.26 473.97 242.99 476 242.99"/><polygon class="cls-1" points="478 242.99 668.31 433.26 667.29 434.28 476 242.99 478 242.99"/><polygon class="cls-1" points="480.03 242.99 669.29 432.24 668.31 433.26 478 242.99 480.03 242.99"/><polygon class="cls-1" points="482.03 242.99 669.59 430.51 669.59 431.97 669.29 432.24 480.03 242.99 482.03 242.99"/><polygon class="cls-1" points="484.03 242.99 669.59 428.51 669.59 430.51 482.03 242.99 484.03 242.99"/><polygon class="cls-1" points="486.06 242.99 669.59 426.52 669.59 428.51 484.03 242.99 486.06 242.99"/><polygon class="cls-1" points="488.06 242.99 669.59 424.48 669.59 426.52 486.06 242.99 488.06 242.99"/><polygon class="cls-1" points="490.06 242.99 669.59 422.48 669.59 424.48 488.06 242.99 490.06 242.99"/><polygon class="cls-1" points="492.1 242.99 669.59 420.48 669.59 422.48 490.06 242.99 492.1 242.99"/><polygon class="cls-1" points="494.1 242.99 669.59 418.45 669.59 420.48 492.1 242.99 494.1 242.99"/><polygon class="cls-1" points="519.41 242.99 669.59 393.14 669.59 418.45 494.1 242.99 519.41 242.99"/><polygon class="cls-1" points="544.72 242.99 669.59 367.86 669.59 393.14 519.41 242.99 544.72 242.99"/><polygon class="cls-1" points="570.03 242.99 669.59 342.55 669.59 367.86 544.72 242.99 570.03 242.99"/><polygon class="cls-1" points="595.32 242.99 669.59 317.23 669.59 342.55 570.03 242.99 595.32 242.99"/><polygon class="cls-1" points="620.63 242.99 669.59 291.92 669.59 317.23 595.32 242.99 620.63 242.99"/><polygon class="cls-1" points="645.94 242.99 669.59 266.61 669.59 291.92 620.63 242.99 645.94 242.99"/><polygon class="cls-1" points="669.59 266.61 645.94 242.99 669.59 242.99 669.59 266.61"/><polygon class="cls-1" points="579.05 277.28 589.99 288.26 579.05 288.26 579.05 277.28"/><polygon class="cls-1" points="603.28 276.23 615.31 288.26 589.99 288.26 579.05 277.28 579.05 276.23 603.28 276.23"/><polygon class="cls-1" points="628.59 276.23 630.69 278.33 630.69 288.26 615.31 288.26 603.28 276.23 628.59 276.23"/><polygon class="cls-1" points="630.69 278.33 628.59 276.23 630.69 276.23 630.69 278.33"/><polygon class="cls-1" points="579.05 331.94 580.64 333.53 579.05 333.53 579.05 331.94"/><polygon class="cls-1" points="579.05 329.9 582.64 333.53 580.64 333.53 579.05 331.94 579.05 329.9"/><polygon class="cls-1" points="579.05 327.91 584.64 333.53 582.64 333.53 579.05 329.94 579.05 327.91"/><polygon class="cls-1" points="579.05 302.59 609.95 333.53 584.64 333.53 579.05 327.91 579.05 302.59"/><polygon class="cls-1" points="600.6 298.87 634.86 333.09 634.86 333.53 609.95 333.53 579.05 302.59 579.05 298.87 600.6 298.87"/><polygon class="cls-1" points="625.91 298.87 634.86 307.81 634.86 333.09 600.6 298.87 625.91 298.87"/><polygon class="cls-1" points="634.86 307.81 625.91 298.87 634.86 298.87 634.86 307.81"/><polygon class="cls-1" points="403.58 446.24 404.09 446.71 403.58 446.71 403.58 446.24"/><polygon class="cls-1" points="403.58 444.2 406.09 446.71 404.09 446.71 403.58 446.24 403.58 444.2"/><polygon class="cls-1" points="403.58 442.2 408.09 446.71 406.09 446.71 403.58 444.2 403.58 442.2"/><polygon class="cls-1" points="403.58 440.21 410.13 446.71 408.09 446.71 403.58 442.2 403.58 440.21"/><polygon class="cls-1" points="403.58 438.17 412.12 446.71 410.13 446.71 403.58 440.17 403.58 438.17"/><polygon class="cls-1" points="403.58 436.17 414.16 446.71 412.12 446.71 403.58 438.17 403.58 436.17"/><polygon class="cls-1" points="403.58 434.14 416.16 446.71 414.16 446.71 403.58 436.17 403.58 434.14"/><polygon class="cls-1" points="403.58 432.14 418.16 446.71 416.16 446.71 403.58 434.14 403.58 432.14"/><polygon class="cls-1" points="403.58 430.14 420.19 446.71 418.16 446.71 403.58 432.14 403.58 430.14"/><polygon class="cls-1" points="403.58 428.11 422.19 446.71 420.19 446.71 403.58 430.14 403.58 428.11"/><polygon class="cls-1" points="403.58 426.11 424.19 446.71 422.19 446.71 403.58 428.11 403.58 426.11"/><polygon class="cls-1" points="403.58 424.11 426.22 446.71 424.19 446.71 403.58 426.11 403.58 424.11"/><polygon class="cls-1" points="403.58 422.08 428.22 446.71 426.22 446.71 403.58 424.08 403.58 422.08"/><polygon class="cls-1" points="403.58 420.08 430.22 446.71 428.22 446.71 403.58 422.08 403.58 420.08"/><polygon class="cls-1" points="403.58 418.04 432.25 446.71 430.22 446.71 403.58 420.08 403.58 418.04"/><polygon class="cls-1" points="403.58 416.05 434.25 446.71 432.25 446.71 403.58 418.04 403.58 416.05"/><polygon class="cls-1" points="403.58 414.05 436.29 446.71 434.25 446.71 403.58 416.05 403.58 414.05"/><polygon class="cls-1" points="403.58 412.01 438.29 446.71 436.29 446.71 403.58 414.05 403.58 412.01"/><polygon class="cls-1" points="403.58 410.01 440.32 446.71 438.29 446.71 403.58 412.01 403.58 410.01"/><polygon class="cls-1" points="403.58 408.01 442.32 446.71 440.32 446.71 403.58 410.01 403.58 408.01"/><polygon class="cls-1" points="403.58 405.98 444.32 446.71 442.32 446.71 403.58 408.01 403.58 405.98"/><polygon class="cls-1" points="403.58 403.98 446.35 446.71 444.32 446.71 403.58 405.98 403.58 403.98"/><polygon class="cls-1" points="403.58 401.95 448.35 446.71 446.35 446.71 403.58 403.98 403.58 401.95"/><polygon class="cls-1" points="404.36 400.73 449.57 445.93 449.57 446.71 448.35 446.71 403.58 401.95 403.58 400.73 404.36 400.73"/><polygon class="cls-1" points="406.4 400.73 449.57 443.93 449.57 445.93 404.36 400.73 406.4 400.73"/><polygon class="cls-1" points="408.4 400.73 449.57 441.9 449.57 443.93 406.4 400.73 408.4 400.73"/><polygon class="cls-1" points="410.43 400.73 449.57 439.9 449.57 441.9 408.4 400.73 410.43 400.73"/><polygon class="cls-1" points="412.43 400.73 449.57 437.87 449.57 439.9 410.43 400.73 412.43 400.73"/><polygon class="cls-1" points="414.43 400.73 449.57 435.87 449.57 437.87 412.43 400.73 414.43 400.73"/><polygon class="cls-1" points="416.46 400.73 449.57 433.87 449.57 435.87 414.43 400.73 416.46 400.73"/><polygon class="cls-1" points="418.46 400.73 449.57 431.84 449.57 433.87 416.46 400.73 418.46 400.73"/><polygon class="cls-1" points="420.46 400.73 449.57 429.84 449.57 431.84 418.46 400.73 420.46 400.73"/><polygon class="cls-1" points="422.49 400.73 449.57 427.84 449.57 429.84 420.46 400.73 422.49 400.73"/><polygon class="cls-1" points="424.49 400.73 449.57 425.8 449.57 427.84 422.49 400.73 424.49 400.73"/><polygon class="cls-1" points="426.53 400.73 449.57 423.81 449.57 425.8 424.49 400.73 426.53 400.73"/><polygon class="cls-1" points="428.52 400.73 449.57 421.77 449.57 423.81 426.53 400.73 428.52 400.73"/><polygon class="cls-1" points="430.52 400.73 449.57 419.77 449.57 421.77 428.52 400.73 430.52 400.73"/><polygon class="cls-1" points="432.56 400.73 449.57 417.77 449.57 419.77 430.52 400.73 432.56 400.73"/><polygon class="cls-1" points="434.56 400.73 449.57 415.74 449.57 417.77 432.56 400.73 434.56 400.73"/><polygon class="cls-1" points="436.56 400.73 449.57 413.74 449.57 415.74 434.56 400.73 436.56 400.73"/><polygon class="cls-1" points="438.59 400.73 449.57 411.71 449.57 413.74 436.56 400.73 438.59 400.73"/><polygon class="cls-1" points="440.59 400.73 449.57 409.71 449.57 411.71 438.59 400.73 440.59 400.73"/><polygon class="cls-1" points="442.62 400.73 449.57 407.71 449.57 409.71 440.59 400.73 442.62 400.73"/><polygon class="cls-1" points="444.62 400.73 449.57 405.68 449.57 407.71 442.59 400.73 444.62 400.73"/><polygon class="cls-1" points="446.62 400.73 449.57 403.68 449.57 405.68 444.62 400.73 446.62 400.73"/><polygon class="cls-1" points="448.65 400.73 449.57 401.64 449.57 403.68 446.62 400.73 448.65 400.73"/><polygon class="cls-1" points="449.57 401.68 448.65 400.73 449.57 400.73 449.57 401.68"/><polygon class="cls-1" points="590.37 445.87 591.21 446.71 590.37 446.71 590.37 445.87"/><polygon class="cls-1" points="590.37 443.87 593.21 446.71 591.21 446.71 590.37 445.87 590.37 443.87"/><polygon class="cls-1" points="590.37 441.83 595.21 446.71 593.21 446.71 590.37 443.87 590.37 441.83"/><polygon class="cls-1" points="590.37 439.83 597.25 446.71 595.21 446.71 590.37 441.83 590.37 439.83"/><polygon class="cls-1" points="590.37 437.83 599.25 446.71 597.25 446.71 590.37 439.83 590.37 437.83"/><polygon class="cls-1" points="590.37 435.8 601.25 446.71 599.25 446.71 590.37 437.83 590.37 435.8"/><polygon class="cls-1" points="590.37 433.8 603.28 446.71 601.25 446.71 590.37 435.8 590.37 433.8"/><polygon class="cls-1" points="590.37 431.77 605.28 446.71 603.28 446.71 590.37 433.8 590.37 431.77"/><polygon class="cls-1" points="590.37 429.77 607.31 446.71 605.28 446.71 590.37 431.77 590.37 429.77"/><polygon class="cls-1" points="590.37 427.77 609.31 446.71 607.31 446.71 590.37 429.77 590.37 427.77"/><polygon class="cls-1" points="590.37 425.74 611.34 446.71 609.31 446.71 590.37 427.77 590.37 425.74"/><polygon class="cls-1" points="590.37 423.74 613.34 446.71 611.34 446.71 590.37 425.74 590.37 423.74"/><polygon class="cls-1" points="590.37 421.74 615.34 446.71 613.34 446.71 590.37 423.74 590.37 421.74"/><polygon class="cls-1" points="590.37 419.7 617.34 446.71 615.34 446.71 590.37 421.7 590.37 419.7"/><polygon class="cls-1" points="590.37 417.7 619.37 446.71 617.34 446.71 590.37 419.7 590.37 417.7"/><polygon class="cls-1" points="590.37 415.67 621.37 446.71 619.37 446.71 590.37 417.7 590.37 415.67"/><polygon class="cls-1" points="590.37 413.67 623.41 446.71 621.37 446.71 590.37 415.67 590.37 413.67"/><polygon class="cls-1" points="590.37 411.67 625.41 446.71 623.41 446.71 590.37 413.67 590.37 411.67"/><polygon class="cls-1" points="590.37 409.64 627.44 446.71 625.41 446.71 590.37 411.67 590.37 409.64"/><polygon class="cls-1" points="590.37 407.64 629.44 446.71 627.44 446.71 590.37 409.64 590.37 407.64"/><polygon class="cls-1" points="590.37 405.61 631.44 446.71 629.44 446.71 590.37 407.64 590.37 405.61"/><polygon class="cls-1" points="590.37 403.61 633.44 446.71 631.44 446.71 590.37 405.61 590.37 403.61"/><polygon class="cls-1" points="590.37 401.61 635.47 446.71 633.44 446.71 590.37 403.61 590.37 401.61"/><polygon class="cls-1" points="591.49 400.73 636.35 445.56 636.35 446.71 635.47 446.71 590.37 401.61 590.37 400.73 591.49 400.73"/><polygon class="cls-1" points="593.52 400.73 636.35 443.56 636.35 445.56 591.49 400.73 593.52 400.73"/><polygon class="cls-1" points="595.52 400.73 636.35 441.56 636.35 443.56 593.52 400.73 595.52 400.73"/><polygon class="cls-1" points="597.52 400.73 636.35 439.53 636.35 441.56 595.52 400.73 597.52 400.73"/><polygon class="cls-1" points="599.55 400.73 636.35 437.53 636.35 439.53 597.55 400.73 599.55 400.73"/><polygon class="cls-1" points="601.55 400.73 636.35 435.53 636.35 437.53 599.55 400.73 601.55 400.73"/><polygon class="cls-1" points="603.58 400.73 636.35 433.5 636.35 435.53 601.55 400.73 603.58 400.73"/><polygon class="cls-1" points="605.58 400.73 636.35 431.5 636.35 433.5 603.58 400.73 605.58 400.73"/><polygon class="cls-1" points="607.58 400.73 636.35 429.46 636.35 431.5 605.58 400.73 607.58 400.73"/><polygon class="cls-1" points="609.62 400.73 636.35 427.46 636.35 429.46 607.58 400.73 609.62 400.73"/><polygon class="cls-1" points="611.61 400.73 636.35 425.43 636.35 427.46 609.62 400.73 611.61 400.73"/><polygon class="cls-1" points="613.61 400.73 636.35 423.43 636.35 425.43 611.61 400.73 613.61 400.73"/><polygon class="cls-1" points="615.65 400.73 636.35 421.43 636.35 423.43 613.65 400.73 615.65 400.73"/><polygon class="cls-1" points="617.65 400.73 636.35 419.43 636.35 421.43 615.65 400.73 617.65 400.73"/><polygon class="cls-1" points="619.68 400.73 636.35 417.4 636.35 419.43 617.65 400.73 619.68 400.73"/><polygon class="cls-1" points="621.68 400.73 636.35 415.4 636.35 417.4 619.68 400.73 621.68 400.73"/><polygon class="cls-1" points="623.68 400.73 636.35 413.37 636.35 415.4 621.68 400.73 623.68 400.73"/><polygon class="cls-1" points="625.71 400.73 636.35 411.37 636.35 413.37 623.68 400.73 625.71 400.73"/><polygon class="cls-1" points="627.71 400.73 636.35 409.37 636.35 411.37 625.71 400.73 627.71 400.73"/><polygon class="cls-1" points="629.71 400.73 636.35 407.34 636.35 409.37 627.71 400.73 629.71 400.73"/><polygon class="cls-1" points="631.74 400.73 636.35 405.34 636.35 407.34 629.74 400.73 631.74 400.73"/><polygon class="cls-1" points="633.74 400.73 636.35 403.3 636.35 405.34 631.74 400.73 633.74 400.73"/><polygon class="cls-1" points="635.77 400.73 636.35 401.3 636.35 403.3 633.74 400.73 635.77 400.73"/><polygon class="cls-1" points="636.35 401.3 635.77 400.73 636.35 400.73 636.35 401.3"/><polygon class="cls-1" points="646.96 370.5 655.23 378.8 646.96 378.8 646.96 370.5"/><polygon class="cls-1" points="655.23 378.8 646.96 370.5 646.96 366.77 658.99 366.77 658.99 378.8 655.23 378.8"/></g><path class="cls-1" d="M415.61,423.7a11,11,0,1,0,11-10.94h0a11,11,0,0,0-11,10.94"/><path class="cls-1" d="M415.61,423.7a11,11,0,1,0,11-10.94h0a11,11,0,0,0-11,10.94"/><g class="cls-3"><polygon class="cls-1" points="415.62 432.82 417.48 434.68 415.62 434.68 415.62 432.82"/><polygon class="cls-1" points="415.62 430.75 419.55 434.68 417.48 434.68 415.62 432.82 415.62 430.75"/><polygon class="cls-1" points="415.62 428.68 421.61 434.68 419.55 434.68 415.62 430.75 415.62 428.68"/><polygon class="cls-1" points="415.62 426.62 423.68 434.68 421.61 434.68 415.62 428.68 415.62 426.62"/><polygon class="cls-1" points="415.62 424.55 425.75 434.68 423.68 434.68 415.62 426.62 415.62 424.55"/><polygon class="cls-1" points="415.62 422.48 427.81 434.68 425.75 434.68 415.62 424.55 415.62 422.48"/><polygon class="cls-1" points="415.62 420.42 429.88 434.68 427.81 434.68 415.62 422.48 415.62 420.42"/><polygon class="cls-1" points="415.62 418.35 431.95 434.68 429.88 434.68 415.62 420.42 415.62 418.35"/><polygon class="cls-1" points="415.62 416.28 434.01 434.68 431.95 434.68 415.62 418.35 415.62 416.28"/><polygon class="cls-1" points="415.62 414.21 436.08 434.68 434.01 434.68 415.62 416.28 415.62 414.21"/><polygon class="cls-1" points="416.23 412.76 437.54 434.07 437.54 434.68 436.08 434.68 415.62 414.21 415.62 412.76 416.23 412.76"/><polygon class="cls-1" points="418.29 412.76 437.54 432.04 437.54 434.07 416.23 412.76 418.29 412.76"/><polygon class="cls-1" points="420.36 412.76 437.54 429.97 437.54 432.04 418.29 412.76 420.36 412.76"/><polygon class="cls-1" points="422.43 412.76 437.54 427.9 437.54 429.97 420.36 412.76 422.43 412.76"/><polygon class="cls-1" points="424.49 412.76 437.54 425.84 437.54 427.9 422.43 412.76 424.49 412.76"/><polygon class="cls-1" points="426.56 412.76 437.54 423.77 437.54 425.84 424.49 412.76 426.56 412.76"/><polygon class="cls-1" points="428.63 412.76 437.54 421.7 437.54 423.77 426.56 412.76 428.63 412.76"/><polygon class="cls-1" points="430.69 412.76 437.54 419.64 437.54 421.7 428.63 412.76 430.69 412.76"/><polygon class="cls-1" points="432.76 412.76 437.54 417.57 437.54 419.64 430.69 412.76 432.76 412.76"/><polygon class="cls-1" points="434.79 412.76 437.54 415.5 437.54 417.57 432.76 412.76 434.79 412.76"/><polygon class="cls-1" points="436.86 412.76 437.57 413.44 437.57 415.5 434.79 412.76 436.86 412.76"/><polygon class="cls-1" points="437.54 413.44 436.86 412.76 437.54 412.76 437.54 413.44"/></g><path class="cls-1" d="M602.4,423.7a11,11,0,1,0,11-10.94h-.07A11,11,0,0,0,602.4,423.7"/><path class="cls-1" d="M602.4,423.7a11,11,0,1,0,11-10.94h-.07A11,11,0,0,0,602.4,423.7"/><g class="cls-4"><polygon class="cls-1" points="602.4 434.04 603.04 434.68 602.4 434.68 602.4 434.04"/><polygon class="cls-1" points="602.4 431.97 605.11 434.68 603.04 434.68 602.4 434.04 602.4 431.97"/><polygon class="cls-1" points="602.4 429.9 607.17 434.68 605.11 434.68 602.4 431.97 602.4 429.9"/><polygon class="cls-1" points="602.4 427.84 609.24 434.68 607.17 434.68 602.4 429.9 602.4 427.84"/><polygon class="cls-1" points="602.4 425.77 611.31 434.68 609.24 434.68 602.4 427.84 602.4 425.77"/><polygon class="cls-1" points="602.4 423.7 613.38 434.68 611.31 434.68 602.4 425.77 602.4 423.7"/><polygon class="cls-1" points="602.4 421.64 615.44 434.68 613.38 434.68 602.4 423.7 602.4 421.64"/><polygon class="cls-1" points="602.4 419.57 617.51 434.68 615.44 434.68 602.4 421.64 602.4 419.57"/><polygon class="cls-1" points="602.4 417.5 619.58 434.68 617.51 434.68 602.4 419.57 602.4 417.5"/><polygon class="cls-1" points="602.4 415.44 621.64 434.68 619.58 434.68 602.4 417.5 602.4 415.44"/><polygon class="cls-1" points="602.4 413.37 623.71 434.68 621.64 434.68 602.4 415.44 602.4 413.37"/><polygon class="cls-1" points="603.82 412.76 624.32 433.23 624.32 434.68 623.71 434.68 602.4 413.37 602.4 412.76 603.82 412.76"/><polygon class="cls-1" points="605.89 412.76 624.32 431.16 624.32 433.23 603.82 412.76 605.89 412.76"/><polygon class="cls-1" points="607.95 412.76 624.32 429.09 624.32 431.16 605.89 412.76 607.95 412.76"/><polygon class="cls-1" points="610.02 412.76 624.32 427.02 624.32 429.09 607.95 412.76 610.02 412.76"/><polygon class="cls-1" points="612.09 412.76 624.32 424.96 624.32 427.02 610.02 412.76 612.09 412.76"/><polygon class="cls-1" points="614.15 412.76 624.32 422.89 624.32 424.96 612.09 412.76 614.15 412.76"/><polygon class="cls-1" points="616.22 412.76 624.32 420.82 624.32 422.89 614.15 412.76 616.22 412.76"/><polygon class="cls-1" points="618.29 412.76 624.32 418.76 624.32 420.82 616.22 412.76 618.29 412.76"/><polygon class="cls-1" points="620.36 412.76 624.32 416.72 624.32 418.76 618.29 412.76 620.36 412.76"/><polygon class="cls-1" points="622.42 412.76 624.32 414.62 624.32 416.72 620.36 412.76 622.42 412.76"/><polygon class="cls-1" points="624.32 414.62 622.42 412.76 624.32 412.76 624.32 414.62"/></g><path class="cls-1" d="M471.87,390.12a5.32,5.32,0,0,0-.85,10.61,6,6,0,0,0,.85,0H551a5.32,5.32,0,1,0,.85-10.61,6,6,0,0,0-.85,0Z"/><path class="cls-1" d="M471.87,390.12a5.32,5.32,0,0,0-.85,10.61,6,6,0,0,0,.85,0H551a5.32,5.32,0,1,0,.85-10.61,6,6,0,0,0-.85,0Z"/><g class="cls-5"><polygon class="cls-1" points="466.55 399.95 467.36 400.73 466.55 400.73 466.55 399.95"/><polygon class="cls-1" points="466.55 397.98 469.29 400.73 467.36 400.73 466.55 399.95 466.55 397.98"/><polygon class="cls-1" points="466.55 396.02 471.26 400.73 469.29 400.73 466.55 397.98 466.55 396.02"/><polygon class="cls-1" points="466.55 394.09 473.22 400.73 471.26 400.73 466.55 396.02 466.55 394.09"/><polygon class="cls-1" points="466.55 392.12 475.15 400.73 473.22 400.73 466.55 394.09 466.55 392.12"/><polygon class="cls-1" points="466.55 390.15 477.12 400.73 475.15 400.73 466.55 392.12 466.55 390.15"/><polygon class="cls-1" points="468.44 390.12 479.05 400.73 477.12 400.73 466.55 390.15 466.55 390.12 468.44 390.12"/><polygon class="cls-1" points="470.41 390.12 481.02 400.73 479.05 400.73 468.44 390.12 470.41 390.12"/><polygon class="cls-1" points="472.38 390.12 482.98 400.73 481.02 400.73 470.41 390.12 472.38 390.12"/><polygon class="cls-1" points="474.31 390.12 484.95 400.73 482.98 400.73 472.38 390.12 474.31 390.12"/><polygon class="cls-1" points="476.27 390.12 486.88 400.73 484.91 400.73 474.31 390.12 476.27 390.12"/><polygon class="cls-1" points="478.24 390.12 488.84 400.73 486.88 400.73 476.27 390.12 478.24 390.12"/><polygon class="cls-1" points="480.17 390.12 490.77 400.73 488.84 400.73 478.24 390.12 480.17 390.12"/><polygon class="cls-1" points="482.13 390.12 492.74 400.73 490.77 400.73 480.17 390.12 482.13 390.12"/><polygon class="cls-1" points="484.1 390.12 494.71 400.73 492.74 400.73 482.13 390.12 484.1 390.12"/><polygon class="cls-1" points="486.03 390.12 496.64 400.73 494.71 400.73 484.1 390.12 486.03 390.12"/><polygon class="cls-1" points="488 390.12 498.6 400.73 496.64 400.73 486.03 390.12 488 390.12"/><polygon class="cls-1" points="489.93 390.12 500.57 400.73 498.6 400.73 488 390.12 489.93 390.12"/><polygon class="cls-1" points="491.89 390.12 502.5 400.73 500.57 400.73 489.93 390.12 491.89 390.12"/><polygon class="cls-1" points="493.86 390.12 504.46 400.73 502.5 400.73 491.89 390.12 493.86 390.12"/><polygon class="cls-1" points="495.79 390.12 506.43 400.73 504.46 400.73 493.86 390.12 495.79 390.12"/><polygon class="cls-1" points="497.75 390.12 508.36 400.73 506.4 400.73 495.82 390.12 497.75 390.12"/><polygon class="cls-1" points="499.72 390.12 510.33 400.73 508.36 400.73 497.75 390.12 499.72 390.12"/><polygon class="cls-1" points="501.65 390.12 512.29 400.73 510.33 400.73 499.72 390.12 501.65 390.12"/><polygon class="cls-1" points="503.62 390.12 514.22 400.73 512.26 400.73 501.65 390.12 503.62 390.12"/><polygon class="cls-1" points="505.58 390.12 516.19 400.73 514.22 400.73 503.62 390.12 505.58 390.12"/><polygon class="cls-1" points="507.51 390.12 518.12 400.73 516.19 400.73 505.58 390.12 507.51 390.12"/><polygon class="cls-1" points="509.48 390.12 520.09 400.73 518.12 400.73 507.51 390.12 509.48 390.12"/><polygon class="cls-1" points="511.45 390.12 522.05 400.73 520.09 400.73 509.48 390.12 511.45 390.12"/><polygon class="cls-1" points="513.38 390.12 523.98 400.73 522.05 400.73 511.45 390.12 513.38 390.12"/><polygon class="cls-1" points="515.34 390.12 525.95 400.73 523.98 400.73 513.38 390.12 515.34 390.12"/><polygon class="cls-1" points="517.31 390.12 527.91 400.73 525.95 400.73 515.34 390.12 517.31 390.12"/><polygon class="cls-1" points="519.24 390.12 529.85 400.73 527.91 400.73 517.31 390.12 519.24 390.12"/><polygon class="cls-1" points="521.21 390.12 531.81 400.73 529.85 400.73 519.24 390.12 521.21 390.12"/><polygon class="cls-1" points="523.14 390.12 533.78 400.73 531.81 400.73 521.21 390.12 523.14 390.12"/><polygon class="cls-1" points="525.1 390.12 535.71 400.73 533.74 400.73 523.14 390.12 525.1 390.12"/><polygon class="cls-1" points="527.07 390.12 537.67 400.73 535.71 400.73 525.1 390.12 527.07 390.12"/><polygon class="cls-1" points="529 390.12 539.64 400.73 537.67 400.73 527.07 390.12 529 390.12"/><polygon class="cls-1" points="530.96 390.12 541.57 400.73 539.64 400.73 529.03 390.12 530.96 390.12"/><polygon class="cls-1" points="532.93 390.12 543.54 400.73 541.57 400.73 530.96 390.12 532.93 390.12"/><polygon class="cls-1" points="534.86 390.12 545.5 400.73 543.54 400.73 532.93 390.12 534.86 390.12"/><polygon class="cls-1" points="536.83 390.12 547.43 400.73 545.47 400.73 534.86 390.12 536.83 390.12"/><polygon class="cls-1" points="538.79 390.12 549.4 400.73 547.43 400.73 536.83 390.12 538.79 390.12"/><polygon class="cls-1" points="540.72 390.12 551.36 400.73 549.4 400.73 538.79 390.12 540.72 390.12"/><polygon class="cls-1" points="542.69 390.12 553.29 400.73 551.33 400.73 540.72 390.12 542.69 390.12"/><polygon class="cls-1" points="544.65 390.12 555.26 400.73 553.29 400.73 542.69 390.12 544.65 390.12"/><polygon class="cls-1" points="546.59 390.12 556.41 399.92 556.41 400.73 555.26 400.73 544.65 390.12 546.59 390.12"/><polygon class="cls-1" points="548.55 390.12 556.41 397.98 556.41 399.92 546.59 390.12 548.55 390.12"/><polygon class="cls-1" points="550.52 390.12 556.41 396.02 556.41 397.98 548.55 390.12 550.52 390.12"/><polygon class="cls-1" points="552.45 390.12 556.41 394.05 556.41 396.02 550.52 390.12 552.45 390.12"/><polygon class="cls-1" points="554.41 390.12 556.41 392.12 556.41 394.05 552.45 390.12 554.41 390.12"/><polygon class="cls-1" points="556.35 390.12 556.41 390.15 556.41 392.12 554.41 390.12 556.35 390.12"/><polygon class="cls-1" points="556.41 390.15 556.35 390.12 556.41 390.12 556.41 390.15"/></g><path class="cls-1" d="M347.37,367.49a5.32,5.32,0,1,0-.85,10.6,6,6,0,0,0,.85,0h68.08a5.32,5.32,0,0,0,.84-10.6,3.93,3.93,0,0,0-.84,0Z"/><path class="cls-1" d="M347.37,367.49a5.32,5.32,0,1,0-.85,10.6,6,6,0,0,0,.85,0h68.08a5.32,5.32,0,0,0,.84-10.6,3.93,3.93,0,0,0-.84,0Z"/><g class="cls-6"><polygon class="cls-1" points="342.05 376.84 343.3 378.09 342.05 378.09 342.05 376.84"/><polygon class="cls-1" points="342.05 374.87 345.27 378.09 343.3 378.09 342.05 376.84 342.05 374.87"/><polygon class="cls-1" points="342.05 372.94 347.2 378.09 345.27 378.09 342.05 374.87 342.05 372.94"/><polygon class="cls-1" points="342.05 370.98 349.16 378.09 347.2 378.09 342.05 372.94 342.05 370.98"/><polygon class="cls-1" points="342.05 369.01 351.13 378.09 349.16 378.09 342.05 370.98 342.05 369.01"/><polygon class="cls-1" points="342.45 367.49 353.06 378.09 351.13 378.09 342.05 369.01 342.05 367.49 342.45 367.49"/><polygon class="cls-1" points="344.42 367.49 355.03 378.09 353.06 378.09 342.45 367.49 344.42 367.49"/><polygon class="cls-1" points="346.38 367.49 356.99 378.09 355.03 378.09 344.42 367.49 346.38 367.49"/><polygon class="cls-1" points="348.35 367.49 358.96 378.09 356.99 378.09 346.38 367.49 348.35 367.49"/><polygon class="cls-1" points="350.28 367.49 360.89 378.09 358.96 378.09 348.32 367.49 350.28 367.49"/><polygon class="cls-1" points="352.25 367.49 362.85 378.09 360.89 378.09 350.28 367.49 352.25 367.49"/><polygon class="cls-1" points="354.21 367.49 364.82 378.09 362.85 378.09 352.25 367.49 354.21 367.49"/><polygon class="cls-1" points="356.14 367.49 366.78 378.09 364.82 378.09 354.21 367.49 356.14 367.49"/><polygon class="cls-1" points="358.11 367.49 368.72 378.09 366.75 378.09 356.14 367.49 358.11 367.49"/><polygon class="cls-1" points="360.07 367.49 370.68 378.09 368.72 378.09 358.11 367.49 360.07 367.49"/><polygon class="cls-1" points="362.04 367.49 372.65 378.09 370.68 378.09 360.07 367.49 362.04 367.49"/><polygon class="cls-1" points="363.97 367.49 374.61 378.09 372.65 378.09 362.01 367.49 363.97 367.49"/><polygon class="cls-1" points="365.94 367.49 376.54 378.09 374.61 378.09 363.97 367.49 365.94 367.49"/><polygon class="cls-1" points="367.9 367.49 378.51 378.09 376.54 378.09 365.94 367.49 367.9 367.49"/><polygon class="cls-1" points="369.83 367.49 380.47 378.09 378.51 378.09 367.9 367.49 369.83 367.49"/><polygon class="cls-1" points="371.8 367.49 382.41 378.09 380.47 378.09 369.83 367.49 371.8 367.49"/><polygon class="cls-1" points="373.76 367.49 384.37 378.09 382.41 378.09 371.8 367.49 373.76 367.49"/><polygon class="cls-1" points="375.73 367.49 386.34 378.09 384.37 378.09 373.76 367.49 375.73 367.49"/><polygon class="cls-1" points="377.66 367.49 388.3 378.09 386.34 378.09 375.73 367.49 377.66 367.49"/><polygon class="cls-1" points="379.63 367.49 390.23 378.09 388.3 378.09 377.66 367.49 379.63 367.49"/><polygon class="cls-1" points="381.59 367.49 392.2 378.09 390.23 378.09 379.63 367.49 381.59 367.49"/><polygon class="cls-1" points="383.56 367.49 394.17 378.09 392.2 378.09 381.59 367.49 383.56 367.49"/><polygon class="cls-1" points="385.49 367.49 396.13 378.09 394.17 378.09 383.56 367.49 385.49 367.49"/><polygon class="cls-1" points="387.45 367.49 398.06 378.09 396.13 378.09 385.49 367.49 387.45 367.49"/><polygon class="cls-1" points="389.42 367.49 400.03 378.09 398.06 378.09 387.45 367.49 389.42 367.49"/><polygon class="cls-1" points="391.35 367.49 401.99 378.09 400.03 378.09 389.42 367.49 391.35 367.49"/><polygon class="cls-1" points="393.32 367.49 403.92 378.09 401.99 378.09 391.35 367.49 393.32 367.49"/><polygon class="cls-1" points="395.28 367.49 405.89 378.09 403.92 378.09 393.32 367.49 395.28 367.49"/><polygon class="cls-1" points="397.25 367.49 407.86 378.09 405.89 378.09 395.28 367.49 397.25 367.49"/><polygon class="cls-1" points="399.18 367.49 409.82 378.09 407.86 378.09 397.25 367.49 399.18 367.49"/><polygon class="cls-1" points="401.14 367.49 411.75 378.09 409.82 378.09 399.18 367.49 401.14 367.49"/><polygon class="cls-1" points="403.11 367.49 413.72 378.09 411.75 378.09 401.14 367.49 403.11 367.49"/><polygon class="cls-1" points="405.08 367.49 415.68 378.09 413.72 378.09 403.11 367.49 405.08 367.49"/><polygon class="cls-1" points="407.01 367.49 417.65 378.09 415.68 378.09 405.08 367.49 407.01 367.49"/><polygon class="cls-1" points="408.97 367.49 419.58 378.09 417.61 378.09 407.01 367.49 408.97 367.49"/><polygon class="cls-1" points="410.94 367.49 420.56 377.11 420.56 378.09 419.58 378.09 408.97 367.49 410.94 367.49"/><polygon class="cls-1" points="412.9 367.49 420.56 375.18 420.56 377.11 410.94 367.49 412.9 367.49"/><polygon class="cls-1" points="414.83 367.49 420.56 373.21 420.56 375.18 412.9 367.49 414.83 367.49"/><polygon class="cls-1" points="416.8 367.49 420.6 371.25 420.6 373.21 414.83 367.49 416.8 367.49"/><polygon class="cls-1" points="418.77 367.49 420.56 369.28 420.56 371.25 416.8 367.49 418.77 367.49"/><polygon class="cls-1" points="420.56 369.28 418.77 367.49 420.56 367.49 420.56 369.28"/></g><path class="cls-1" d="M507.72,295.48l-47.17,47.17L436,318.11a5.32,5.32,0,0,0-8,7,5.11,5.11,0,0,0,.52.52l28.3,28.3a5.33,5.33,0,0,0,7.52,0l50.83-50.83a5.32,5.32,0,0,0-7.52-7.49"/><path class="cls-1" d="M507.72,295.48l-47.17,47.17L436,318.11a5.32,5.32,0,0,0-8,7,5.11,5.11,0,0,0,.52.52l28.3,28.3a5.33,5.33,0,0,0,7.52,0l50.83-50.83a5.32,5.32,0,0,0-7.52-7.49"/><g class="cls-7"><polygon class="cls-1" points="426.43 354.98 426.9 355.46 426.43 355.46 426.43 354.98"/><polygon class="cls-1" points="426.43 352.98 428.9 355.46 426.9 355.46 426.43 354.98 426.43 352.98"/><polygon class="cls-1" points="426.43 350.98 430.9 355.46 428.9 355.46 426.43 352.95 426.43 350.98"/><polygon class="cls-1" points="426.43 348.95 432.93 355.46 430.9 355.46 426.43 350.98 426.43 348.95"/><polygon class="cls-1" points="426.43 346.95 434.9 355.46 432.93 355.46 426.43 348.95 426.43 346.95"/><polygon class="cls-1" points="426.43 344.95 436.93 355.46 434.9 355.46 426.43 346.95 426.43 344.95"/><polygon class="cls-1" points="426.43 342.95 438.93 355.46 436.93 355.46 426.43 344.95 426.43 342.95"/><polygon class="cls-1" points="426.43 340.95 440.93 355.46 438.93 355.46 426.43 342.95 426.43 340.95"/><polygon class="cls-1" points="426.43 338.95 442.93 355.46 440.93 355.46 426.43 340.95 426.43 338.95"/><polygon class="cls-1" points="426.43 336.95 444.93 355.46 442.93 355.46 426.43 338.95 426.43 336.95"/><polygon class="cls-1" points="426.43 334.95 446.93 355.46 444.93 355.46 426.43 336.95 426.43 334.95"/><polygon class="cls-1" points="426.43 332.95 448.93 355.46 446.93 355.46 426.43 334.95 426.43 332.95"/><polygon class="cls-1" points="426.43 330.96 450.92 355.46 448.93 355.46 426.43 332.95 426.43 330.96"/><polygon class="cls-1" points="426.43 328.96 452.92 355.46 450.92 355.46 426.43 330.96 426.43 328.96"/><polygon class="cls-1" points="426.43 326.96 454.92 355.46 452.92 355.46 426.43 328.96 426.43 326.96"/><polygon class="cls-1" points="426.43 324.96 456.92 355.46 454.92 355.46 426.43 326.96 426.43 324.96"/><polygon class="cls-1" points="426.43 322.96 458.92 355.46 456.92 355.46 426.43 324.96 426.43 322.96"/><polygon class="cls-1" points="426.43 320.96 460.92 355.46 458.92 355.46 426.43 322.93 426.43 320.96"/><polygon class="cls-1" points="426.43 318.93 462.92 355.46 460.92 355.46 426.43 320.96 426.43 318.93"/><polygon class="cls-1" points="426.43 316.96 464.92 355.46 462.92 355.46 426.43 318.93 426.43 316.96"/><polygon class="cls-1" points="426.43 314.93 466.95 355.46 464.92 355.46 426.43 316.93 426.43 314.93"/><polygon class="cls-1" points="426.43 312.93 468.92 355.46 466.95 355.46 426.43 314.93 426.43 312.93"/><polygon class="cls-1" points="426.43 310.93 470.95 355.46 468.92 355.46 426.43 312.93 426.43 310.93"/><polygon class="cls-1" points="426.43 309.2 426.56 309.06 472.95 355.46 470.95 355.46 426.43 310.93 426.43 309.2"/><polygon class="cls-1" points="426.56 309.06 427.54 308.05 474.34 354.85 473.73 355.46 472.95 355.46 426.56 309.06"/><rect class="cls-1" x="450.74" y="297.89" width="1.42" height="66.15" transform="translate(-101.8 416.16) rotate(-45)"/><rect class="cls-1" x="451.72" y="296.86" width="1.42" height="66.15" transform="translate(-100.78 416.55) rotate(-45)"/><rect class="cls-1" x="452.74" y="295.87" width="1.42" height="66.15" transform="translate(-99.79 416.98) rotate(-45)"/><rect class="cls-1" x="453.72" y="294.88" width="1.42" height="66.15" transform="translate(-98.79 417.39) rotate(-45)"/><rect class="cls-1" x="454.76" y="293.87" width="1.42" height="66.15" transform="translate(-97.78 417.83) rotate(-45)"/><rect class="cls-1" x="455.72" y="292.86" width="1.42" height="66.15" transform="translate(-96.78 418.21) rotate(-45)"/><rect class="cls-1" x="456.76" y="291.85" width="1.42" height="66.15" transform="translate(-95.77 418.65) rotate(-45)"/><rect class="cls-1" x="457.72" y="290.88" width="1.42" height="66.15" transform="translate(-94.8 419.04) rotate(-45)"/><rect class="cls-1" x="458.76" y="289.87" width="1.42" height="66.15" transform="translate(-93.78 419.49) rotate(-45)"/><rect class="cls-1" x="459.72" y="288.87" width="1.42" height="66.15" transform="translate(-92.79 419.87) rotate(-45)"/><rect class="cls-1" x="460.76" y="287.86" width="1.42" height="66.15" transform="translate(-91.77 420.31) rotate(-45)"/><rect class="cls-1" x="461.72" y="286.89" width="1.42" height="66.15" transform="translate(-90.8 420.7) rotate(-45)"/><rect class="cls-1" x="462.76" y="285.88" width="1.42" height="66.15" transform="translate(-89.79 421.14) rotate(-45)"/><rect class="cls-1" x="463.75" y="284.87" width="1.42" height="66.15" transform="translate(-88.78 421.55) rotate(-45)"/><polygon class="cls-1" points="441.57 294.05 442.25 293.38 442.89 293.38 489.35 339.83 488.33 340.82 441.57 294.05"/><polygon class="cls-1" points="444.89 293.38 490.33 338.82 489.35 339.83 442.89 293.38 444.89 293.38"/><polygon class="cls-1" points="446.89 293.38 491.35 337.8 490.33 338.82 444.89 293.38 446.89 293.38"/><polygon class="cls-1" points="448.89 293.38 492.33 336.82 491.35 337.8 446.89 293.38 448.89 293.38"/><polygon class="cls-1" points="450.92 293.38 493.35 335.83 492.33 336.82 448.89 293.38 450.92 293.38"/><polygon class="cls-1" points="452.89 293.38 494.33 334.82 493.35 335.83 450.92 293.38 452.89 293.38"/><polygon class="cls-1" points="454.92 293.38 495.35 333.8 494.33 334.82 452.89 293.38 454.92 293.38"/><polygon class="cls-1" points="456.92 293.38 496.33 332.82 495.35 333.8 454.92 293.38 456.92 293.38"/><polygon class="cls-1" points="458.92 293.38 497.35 331.8 496.33 332.82 456.92 293.38 458.92 293.38"/><polygon class="cls-1" points="460.92 293.38 498.33 330.82 497.35 331.8 458.92 293.38 460.92 293.38"/><polygon class="cls-1" points="462.92 293.38 499.35 329.8 498.33 330.82 460.92 293.38 462.92 293.38"/><polygon class="cls-1" points="464.92 293.38 500.33 328.82 499.35 329.8 462.92 293.38 464.92 293.38"/><polygon class="cls-1" points="466.92 293.38 501.35 327.8 500.33 328.82 464.92 293.38 466.92 293.38"/><polygon class="cls-1" points="468.92 293.38 502.36 326.82 501.35 327.8 466.92 293.38 468.92 293.38"/><polygon class="cls-1" points="470.92 293.38 503.35 325.81 502.36 326.82 468.92 293.38 470.92 293.38"/><polygon class="cls-1" points="472.92 293.38 504.33 324.82 503.35 325.81 470.92 293.38 472.92 293.38"/><polygon class="cls-1" points="474.92 293.38 505.35 323.81 504.36 324.82 472.92 293.38 474.92 293.38"/><polygon class="cls-1" points="476.92 293.38 506.36 322.82 505.35 323.81 474.92 293.38 476.92 293.38"/><polygon class="cls-1" points="478.92 293.38 507.35 321.81 506.36 322.82 476.92 293.38 478.92 293.38"/><polygon class="cls-1" points="480.95 293.38 508.36 320.82 507.35 321.81 478.92 293.38 480.95 293.38"/><polygon class="cls-1" points="482.91 293.38 509.35 319.81 508.36 320.82 480.91 293.38 482.91 293.38"/><polygon class="cls-1" points="484.95 293.38 510.36 318.79 509.35 319.81 482.91 293.38 484.95 293.38"/><polygon class="cls-1" points="486.95 293.38 511.34 317.81 510.36 318.79 484.95 293.38 486.95 293.38"/><polygon class="cls-1" points="488.94 293.38 512.36 316.79 511.34 317.81 486.95 293.38 488.94 293.38"/><polygon class="cls-1" points="490.94 293.38 513.34 315.81 512.36 316.79 488.94 293.38 490.94 293.38"/><polygon class="cls-1" points="492.94 293.38 514.36 314.83 513.34 315.81 490.94 293.38 492.94 293.38"/><polygon class="cls-1" points="494.94 293.38 515.34 313.81 514.36 314.83 492.94 293.38 494.94 293.38"/><polygon class="cls-1" points="496.94 293.38 516.36 312.79 515.34 313.81 494.94 293.38 496.94 293.38"/><polygon class="cls-1" points="498.94 293.38 517.31 311.74 517.31 311.88 516.36 312.79 496.94 293.38 498.94 293.38"/><polygon class="cls-1" points="500.94 293.38 517.31 309.74 517.31 311.74 498.94 293.38 500.94 293.38"/><polygon class="cls-1" points="502.94 293.38 517.31 307.74 517.31 309.74 500.94 293.38 502.94 293.38"/><polygon class="cls-1" points="504.94 293.38 517.31 305.74 517.31 307.74 502.94 293.38 504.94 293.38"/><polygon class="cls-1" points="506.94 293.38 517.31 303.75 517.31 305.74 504.94 293.38 506.94 293.38"/><polygon class="cls-1" points="508.94 293.38 517.31 301.75 517.31 303.75 506.94 293.38 508.94 293.38"/><polygon class="cls-1" points="510.94 293.38 517.31 299.75 517.31 301.75 508.94 293.38 510.94 293.38"/><polygon class="cls-1" points="512.94 293.38 517.31 297.75 517.31 299.75 510.94 293.38 512.94 293.38"/><polygon class="cls-1" points="514.97 293.38 517.31 295.71 517.31 297.75 512.94 293.38 514.97 293.38"/><polygon class="cls-1" points="516.97 293.38 517.31 293.75 517.31 295.71 514.97 293.38 516.97 293.38"/><polygon class="cls-1" points="517.31 293.75 516.97 293.38 517.31 293.38 517.31 293.75"/></g></g></svg>