<?xml version="1.0" encoding="utf-8"?><svg xmlns="http://www.w3.org/2000/svg" xmlns:xlink="http://www.w3.org/1999/xlink" viewBox="0 0 1000 700"><defs><style>.cls-1{fill:#fff;}.cls-2{clip-path:url(#clip-path);}.cls-3{clip-path:url(#clip-path-2);}.cls-4{clip-path:url(#clip-path-3);}.cls-5{clip-path:url(#clip-path-4);}.cls-6{clip-path:url(#clip-path-5);}</style><clipPath id="clip-path"><path class="cls-1" d="M483.05,460.35a7.45,7.45,0,0,1,0-10.53l0,0,5.93-5.93.57-.49h0a7.42,7.42,0,0,1,3.3-1.59h1.41a7.45,7.45,0,0,1,5.31,2.33l.47.57a7.72,7.72,0,0,1-.84,10.05l-5.71,5.71a7.46,7.46,0,0,1-10.54,0M463.1,445.16a7.44,7.44,0,0,1,0-10.51l11.49-11.52a7.47,7.47,0,0,1,12.75,6.26,7.67,7.67,0,0,1-2.18,4.36l-11.29,11.31a7.43,7.43,0,0,1-10.52,0l0,0M446,427.55A7.45,7.45,0,0,1,446,417l11.49-11.48A7.44,7.44,0,0,1,470,411.77a8,8,0,0,1-2.24,4.49l-11.28,11.29a7.47,7.47,0,0,1-10.55,0m-15.25-19.7a7.43,7.43,0,0,1,0-10.52l0,0,5.92-5.91a5.8,5.8,0,0,1,.58-.52,7.47,7.47,0,0,1,4-1.63h.12a2.36,2.36,0,0,1,.65,0,7.43,7.43,0,0,1,5.31,2.33A7.61,7.61,0,0,1,447,402.1l-5.75,5.75a7.44,7.44,0,0,1-10.54,0m-19.08-49.24,44.93-54.73,14.31,3.95-18.68,33a17.18,17.18,0,0,0,6.47,23.4l.75.39h0a12.85,12.85,0,0,0,2.06.87A17.14,17.14,0,0,0,482,357.72l12.16-21.44,21.68,1.54,57.8,57.78a7.45,7.45,0,1,1-10.54,10.52l-.35-.3-31.15-31.56a5,5,0,0,0-6.9,6.85L556.26,413h0a7.45,7.45,0,0,1,0,10.53l0,0a7.44,7.44,0,0,1-10.53,0h0L524.6,402.22a5,5,0,1,0-8.33,5.4,5,5,0,0,0,1.41,1.42l20.82,21a3.17,3.17,0,0,0,.34.39A7.45,7.45,0,1,1,528.28,441h0l-11.52-11.58a5,5,0,0,0-6.79,6.77l11.21,11.34.35.37A7.46,7.46,0,0,1,511,458.41a9.4,9.4,0,0,0-1.09-.89.56.56,0,0,1-.29-.72.2.2,0,0,0,0-.08c.18-.37.4-.74.58-1.14a11.67,11.67,0,0,0,.44-1.34,17.5,17.5,0,0,0,.65-7.44A17.11,17.11,0,0,0,504,435a16.59,16.59,0,0,0-7.22-2.8,17.39,17.39,0,0,0-4.22-15.68,16.93,16.93,0,0,0-12.4-5.36h-.52A17.2,17.2,0,0,0,475.24,399,17,17,0,0,0,463,393.64a16.55,16.55,0,0,0-4.15.44,17,17,0,0,0-16.67-14.58,17.36,17.36,0,0,0-11.73,4.41Zm51.82-2.88a7.4,7.4,0,0,1-2.8-10.15l18.23-32.25,7.45-2.1a.17.17,0,0,1,.14,0l27.57-8h33.29l41.6,52.89-13.25,27.73-54.18-54.2-.32-.3a5,5,0,0,0-2.78-1.12l-26.57-1.88a5,5,0,0,0-4.56,2.48L473.6,353a7.43,7.43,0,0,1-4.49,3.5,6.69,6.69,0,0,1-2,.27,7.5,7.5,0,0,1-3.67-1m93.38-56.19,19.62-12.41,35.95,46.62-17.09,14.73ZM387.76,336.78,428,287l19.63,12.41-42.7,52.09ZM575,276.49l-26.77,17.05H513.29a4.76,4.76,0,0,0-1.34.22l-27.06,7.79-28.09-7.69-27.29-17.37a5,5,0,0,0-6.37,1.07l-45.9,56.81a5,5,0,0,0,.62,6.72l24,20.69,21.56,29.08a17.15,17.15,0,0,0,10.79,28.8,19.28,19.28,0,0,0-.2,2.63,17.21,17.21,0,0,0,17.17,17.17h.2a2,2,0,0,0,0,.35A17.18,17.18,0,0,0,468.59,457a14.73,14.73,0,0,0,2.65-.3,17.15,17.15,0,0,0,16.4,15.56h1.17a17.2,17.2,0,0,0,11.56-5l2.63-2.63,1.09.89a17.17,17.17,0,0,0,29.2-12.65,17.17,17.17,0,0,0,17.36-17v-.4a17,17,0,0,0,12.41-5,17.15,17.15,0,0,0,5-12.4,17.17,17.17,0,0,0,14.66-26.52l15.75-33,23.67-20.39a4.79,4.79,0,0,0,1.69-3.58v-.22a4.63,4.63,0,0,0-1-2.83l-41.35-54a4.83,4.83,0,0,0-3.85-1.88,5,5,0,0,0-2.6.74"/></clipPath><clipPath id="clip-path-2"><path class="cls-1" d="M556,242.93l-33.17,33.19a5,5,0,0,0,7,6.9l33.07-33.22a5,5,0,0,0-6.87-6.87"/></clipPath><clipPath id="clip-path-3"><path class="cls-1" d="M437.21,242.93a5,5,0,0,0,0,6.87L470.4,283a5,5,0,0,0,6.85-6.87l-33.17-33.22a5,5,0,0,0-6.87,0"/></clipPath><clipPath id="clip-path-4"><path class="cls-1" d="M495.08,252.08v27.47a5,5,0,0,0,9.73,0V252.08a5,5,0,0,0-9.73,0"/></clipPath><clipPath id="clip-path-5"><path class="cls-1" d="M497.34,228.59a4.67,4.67,0,1,0,5.66.17,4.89,4.89,0,0,0-5.66-.17"/></clipPath></defs><title>4Artboard 2</title><g id="Layer_1" data-name="Layer 1"><rect width="1000" height="700"/></g><g id="Layer_2" data-name="Layer 2"><path class="cls-1" d="M483.05,460.35a7.45,7.45,0,0,1,0-10.53l0,0,5.93-5.93.57-.49h0a7.42,7.42,0,0,1,3.3-1.59h1.41a7.45,7.45,0,0,1,5.31,2.33l.47.57a7.72,7.72,0,0,1-.84,10.05l-5.71,5.71a7.46,7.46,0,0,1-10.54,0M463.1,445.16a7.44,7.44,0,0,1,0-10.51l11.49-11.52a7.47,7.47,0,0,1,12.75,6.26,7.67,7.67,0,0,1-2.18,4.36l-11.29,11.31a7.43,7.43,0,0,1-10.52,0l0,0M446,427.55A7.45,7.45,0,0,1,446,417l11.49-11.48A7.44,7.44,0,0,1,470,411.77a8,8,0,0,1-2.24,4.49l-11.28,11.29a7.47,7.47,0,0,1-10.55,0m-15.25-19.7a7.43,7.43,0,0,1,0-10.52l0,0,5.92-5.91a5.8,5.8,0,0,1,.58-.52,7.47,7.47,0,0,1,4-1.63h.12a2.36,2.36,0,0,1,.65,0,7.43,7.43,0,0,1,5.31,2.33A7.61,7.61,0,0,1,447,402.1l-5.75,5.75a7.44,7.44,0,0,1-10.54,0m-19.08-49.24,44.93-54.73,14.31,3.95-18.68,33a17.18,17.18,0,0,0,6.47,23.4l.75.39h0a12.85,12.85,0,0,0,2.06.87A17.14,17.14,0,0,0,482,357.72l12.16-21.44,21.68,1.54,57.8,57.78a7.45,7.45,0,1,1-10.54,10.52l-.35-.3-31.15-31.56a5,5,0,0,0-6.9,6.85L556.26,413h0a7.45,7.45,0,0,1,0,10.53l0,0a7.44,7.44,0,0,1-10.53,0h0L524.6,402.22a5,5,0,1,0-8.33,5.4,5,5,0,0,0,1.41,1.42l20.82,21a3.17,3.17,0,0,0,.34.39A7.45,7.45,0,1,1,528.28,441h0l-11.52-11.58a5,5,0,0,0-6.79,6.77l11.21,11.34.35.37A7.46,7.46,0,0,1,511,458.41a9.4,9.4,0,0,0-1.09-.89.56.56,0,0,1-.29-.72.2.2,0,0,0,0-.08c.18-.37.4-.74.58-1.14a11.67,11.67,0,0,0,.44-1.34,17.5,17.5,0,0,0,.65-7.44A17.11,17.11,0,0,0,504,435a16.59,16.59,0,0,0-7.22-2.8,17.39,17.39,0,0,0-4.22-15.68,16.93,16.93,0,0,0-12.4-5.36h-.52A17.2,17.2,0,0,0,475.24,399,17,17,0,0,0,463,393.64a16.55,16.55,0,0,0-4.15.44,17,17,0,0,0-16.67-14.58,17.36,17.36,0,0,0-11.73,4.41Zm51.82-2.88a7.4,7.4,0,0,1-2.8-10.15l18.23-32.25,7.45-2.1a.17.17,0,0,1,.14,0l27.57-8h33.29l41.6,52.89-13.25,27.73-54.18-54.2-.32-.3a5,5,0,0,0-2.78-1.12l-26.57-1.88a5,5,0,0,0-4.56,2.48L473.6,353a7.43,7.43,0,0,1-4.49,3.5,6.69,6.69,0,0,1-2,.27,7.5,7.5,0,0,1-3.67-1m93.38-56.19,19.62-12.41,35.95,46.62-17.09,14.73ZM387.76,336.78,428,287l19.63,12.41-42.7,52.09ZM575,276.49l-26.77,17.05H513.29a4.76,4.76,0,0,0-1.34.22l-27.06,7.79-28.09-7.69-27.29-17.37a5,5,0,0,0-6.37,1.07l-45.9,56.81a5,5,0,0,0,.62,6.72l24,20.69,21.56,29.08a17.15,17.15,0,0,0,10.79,28.8,19.28,19.28,0,0,0-.2,2.63,17.21,17.21,0,0,0,17.17,17.17h.2a2,2,0,0,0,0,.35A17.18,17.18,0,0,0,468.59,457a14.73,14.73,0,0,0,2.65-.3,17.15,17.15,0,0,0,16.4,15.56h1.17a17.2,17.2,0,0,0,11.56-5l2.63-2.63,1.09.89a17.17,17.17,0,0,0,29.2-12.65,17.17,17.17,0,0,0,17.36-17v-.4a17,17,0,0,0,12.41-5,17.15,17.15,0,0,0,5-12.4,17.17,17.17,0,0,0,14.66-26.52l15.75-33,23.67-20.39a4.79,4.79,0,0,0,1.69-3.58v-.22a4.63,4.63,0,0,0-1-2.83l-41.35-54a4.83,4.83,0,0,0-3.85-1.88,5,5,0,0,0-2.6.74"/><path class="cls-1" d="M483.05,460.35a7.45,7.45,0,0,1,0-10.53l0,0,5.93-5.93.57-.49h0a7.42,7.42,0,0,1,3.3-1.59h1.41a7.45,7.45,0,0,1,5.31,2.33l.47.57a7.72,7.72,0,0,1-.84,10.05l-5.71,5.71a7.46,7.46,0,0,1-10.54,0M463.1,445.16a7.44,7.44,0,0,1,0-10.51l11.49-11.52a7.47,7.47,0,0,1,12.75,6.26,7.67,7.67,0,0,1-2.18,4.36l-11.29,11.31a7.43,7.43,0,0,1-10.52,0l0,0M446,427.55A7.45,7.45,0,0,1,446,417l11.49-11.48A7.44,7.44,0,0,1,470,411.77a8,8,0,0,1-2.24,4.49l-11.28,11.29a7.47,7.47,0,0,1-10.55,0m-15.25-19.7a7.43,7.43,0,0,1,0-10.52l0,0,5.92-5.91a5.8,5.8,0,0,1,.58-.52,7.47,7.47,0,0,1,4-1.63h.12a2.36,2.36,0,0,1,.65,0,7.43,7.43,0,0,1,5.31,2.33A7.61,7.61,0,0,1,447,402.1l-5.75,5.75a7.44,7.44,0,0,1-10.54,0m-19.08-49.24,44.93-54.73,14.31,3.95-18.68,33a17.18,17.18,0,0,0,6.47,23.4l.75.39h0a12.85,12.85,0,0,0,2.06.87A17.14,17.14,0,0,0,482,357.72l12.16-21.44,21.68,1.54,57.8,57.78a7.45,7.45,0,1,1-10.54,10.52l-.35-.3-31.15-31.56a5,5,0,0,0-6.9,6.85L556.26,413h0a7.45,7.45,0,0,1,0,10.53l0,0a7.44,7.44,0,0,1-10.53,0h0L524.6,402.22a5,5,0,1,0-8.33,5.4,5,5,0,0,0,1.41,1.42l20.82,21a3.17,3.17,0,0,0,.34.39A7.45,7.45,0,1,1,528.28,441h0l-11.52-11.58a5,5,0,0,0-6.79,6.77l11.21,11.34.35.37A7.46,7.46,0,0,1,511,458.41a9.4,9.4,0,0,0-1.09-.89.56.56,0,0,1-.29-.72.2.2,0,0,0,0-.08c.18-.37.4-.74.58-1.14a11.67,11.67,0,0,0,.44-1.34,17.5,17.5,0,0,0,.65-7.44A17.11,17.11,0,0,0,504,435a16.59,16.59,0,0,0-7.22-2.8,17.39,17.39,0,0,0-4.22-15.68,16.93,16.93,0,0,0-12.4-5.36h-.52A17.2,17.2,0,0,0,475.24,399,17,17,0,0,0,463,393.64a16.55,16.55,0,0,0-4.15.44,17,17,0,0,0-16.67-14.58,17.36,17.36,0,0,0-11.73,4.41Zm51.82-2.88a7.4,7.4,0,0,1-2.8-10.15l18.23-32.25,7.45-2.1a.17.17,0,0,1,.14,0l27.57-8h33.29l41.6,52.89-13.25,27.73-54.18-54.2-.32-.3a5,5,0,0,0-2.78-1.12l-26.57-1.88a5,5,0,0,0-4.56,2.48L473.6,353a7.43,7.43,0,0,1-4.49,3.5,6.69,6.69,0,0,1-2,.27,7.5,7.5,0,0,1-3.67-1m93.38-56.19,19.62-12.41,35.95,46.62-17.09,14.73ZM387.76,336.78,428,287l19.63,12.41-42.7,52.09ZM575,276.49l-26.77,17.05H513.29a4.76,4.76,0,0,0-1.34.22l-27.06,7.79-28.09-7.69-27.29-17.37a5,5,0,0,0-6.37,1.07l-45.9,56.81a5,5,0,0,0,.62,6.72l24,20.69,21.56,29.08a17.15,17.15,0,0,0,10.79,28.8,19.28,19.28,0,0,0-.2,2.63,17.21,17.21,0,0,0,17.17,17.17h.2a2,2,0,0,0,0,.35A17.18,17.18,0,0,0,468.59,457a14.73,14.73,0,0,0,2.65-.3,17.15,17.15,0,0,0,16.4,15.56h1.17a17.2,17.2,0,0,0,11.56-5l2.63-2.63,1.09.89a17.17,17.17,0,0,0,29.2-12.65,17.17,17.17,0,0,0,17.36-17v-.4a17,17,0,0,0,12.41-5,17.15,17.15,0,0,0,5-12.4,17.17,17.17,0,0,0,14.66-26.52l15.75-33,23.67-20.39a4.79,4.79,0,0,0,1.69-3.58v-.22a4.63,4.63,0,0,0-1-2.83l-41.35-54a4.83,4.83,0,0,0-3.85-1.88,5,5,0,0,0-2.6.74"/><g class="cls-2"><polygon class="cls-1" points="556.83 347.39 557.95 348.51 556.83 348.51 556.83 347.39"/><polygon class="cls-1" points="556.83 345.76 559.58 348.51 557.95 348.51 556.83 347.39 556.83 345.76"/><polygon class="cls-1" points="556.83 344.12 561.22 348.51 559.58 348.51 556.83 345.76 556.83 344.12"/><polygon class="cls-1" points="556.83 342.46 562.88 348.51 561.22 348.51 556.83 344.12 556.83 342.46"/><polygon class="cls-1" points="556.83 340.82 564.52 348.51 562.88 348.51 556.83 342.46 556.83 340.82"/><polygon class="cls-1" points="556.83 339.18 566.16 348.51 564.52 348.51 556.83 340.82 556.83 339.18"/><polygon class="cls-1" points="556.83 337.52 567.79 348.51 566.16 348.51 556.83 339.18 556.83 337.52"/><polygon class="cls-1" points="556.83 335.88 569.46 348.51 567.79 348.51 556.83 337.52 556.83 335.88"/><polygon class="cls-1" points="556.83 334.25 571.09 348.51 569.46 348.51 556.83 335.88 556.83 334.25"/><polygon class="cls-1" points="556.83 332.58 572.73 348.51 571.09 348.51 556.83 334.25 556.83 332.58"/><polygon class="cls-1" points="556.83 330.95 574.39 348.51 572.73 348.51 556.83 332.58 556.83 330.95"/><polygon class="cls-1" points="556.83 329.31 576.03 348.51 574.39 348.51 556.83 330.95 556.83 329.31"/><polygon class="cls-1" points="556.83 327.67 577.67 348.51 576.03 348.51 556.83 329.31 556.83 327.67"/><polygon class="cls-1" points="556.83 326.01 579.31 348.51 577.67 348.51 556.83 327.65 556.83 326.01"/><polygon class="cls-1" points="556.83 324.37 580.97 348.51 579.31 348.51 556.83 326.01 556.83 324.37"/><polygon class="cls-1" points="556.83 322.74 582.61 348.51 580.97 348.51 556.83 324.37 556.83 322.74"/><polygon class="cls-1" points="556.83 302.05 601.19 346.4 599.05 348.51 582.61 348.51 556.83 322.74 556.83 302.05"/><polygon class="cls-1" points="556.83 298.2 565.24 289.77 611.51 336.06 601.19 346.4 556.83 302.05 556.83 298.2"/><polygon class="cls-1" points="565.24 289.79 567.94 287.09 583.23 287.09 612.42 316.26 612.42 335.17 611.51 336.06 565.24 289.79"/><polygon class="cls-1" points="603.91 287.09 612.42 295.57 612.42 316.26 583.23 287.09 603.91 287.09"/><polygon class="cls-1" points="612.4 295.57 603.91 287.09 612.4 287.09 612.4 295.57"/><polygon class="cls-1" points="459.41 383.22 460.05 383.86 459.41 383.86 459.41 383.22"/><polygon class="cls-1" points="459.41 381.56 461.69 383.86 460.05 383.86 459.41 383.19 459.41 381.56"/><polygon class="cls-1" points="459.41 379.92 463.35 383.86 461.69 383.86 459.41 381.56 459.41 379.92"/><polygon class="cls-1" points="459.41 378.28 464.99 383.86 463.35 383.86 459.41 379.92 459.41 378.28"/><polygon class="cls-1" points="459.41 376.62 466.63 383.86 464.99 383.86 459.41 378.28 459.41 376.62"/><polygon class="cls-1" points="459.41 374.98 468.29 383.86 466.63 383.86 459.41 376.62 459.41 374.98"/><polygon class="cls-1" points="459.41 373.34 469.93 383.86 468.29 383.86 459.41 374.98 459.41 373.34"/><polygon class="cls-1" points="459.41 371.68 471.56 383.86 469.93 383.86 459.41 373.34 459.41 371.68"/><polygon class="cls-1" points="459.41 370.05 473.2 383.86 471.56 383.86 459.41 371.68 459.41 370.05"/><polygon class="cls-1" points="459.41 368.41 474.86 383.86 473.2 383.86 459.41 370.05 459.41 368.41"/><polygon class="cls-1" points="459.41 366.77 476.5 383.86 474.86 383.86 459.41 368.41 459.41 366.77"/><polygon class="cls-1" points="459.41 365.11 478.14 383.86 476.5 383.86 459.41 366.77 459.41 365.11"/><polygon class="cls-1" points="459.41 363.47 479.8 383.86 478.14 383.86 459.41 365.11 459.41 363.47"/><polygon class="cls-1" points="459.41 361.83 481.44 383.86 479.8 383.86 459.41 363.47 459.41 361.83"/><polygon class="cls-1" points="459.41 360.17 483.07 383.86 481.44 383.86 459.41 361.83 459.41 360.17"/><polygon class="cls-1" points="459.41 358.53 484.74 383.86 483.07 383.86 459.41 360.17 459.41 358.53"/><polygon class="cls-1" points="459.41 356.9 486.38 383.86 484.74 383.86 459.41 358.53 459.41 356.9"/><polygon class="cls-1" points="459.41 355.26 488.01 383.86 486.38 383.86 459.41 356.9 459.41 355.26"/><polygon class="cls-1" points="459.41 353.6 489.65 383.86 488.01 383.86 459.41 355.26 459.41 353.6"/><polygon class="cls-1" points="459.41 351.96 491.31 383.86 489.65 383.86 459.41 353.6 459.41 351.96"/><polygon class="cls-1" points="459.41 350.32 492.95 383.86 491.31 383.86 459.41 351.96 459.41 350.32"/><polygon class="cls-1" points="459.41 348.66 494.59 383.86 492.95 383.86 459.41 350.32 459.41 348.66"/><polygon class="cls-1" points="459.41 347.02 496.25 383.86 494.59 383.86 459.41 348.66 459.41 347.02"/><polygon class="cls-1" points="459.41 345.39 497.89 383.86 496.25 383.86 459.41 347.02 459.41 345.39"/><polygon class="cls-1" points="459.41 343.75 499.52 383.86 497.89 383.86 459.41 345.39 459.41 343.75"/><polygon class="cls-1" points="459.41 342.09 501.19 383.86 499.52 383.86 459.41 343.72 459.41 342.09"/><polygon class="cls-1" points="459.41 340.45 502.82 383.86 501.19 383.86 459.41 342.09 459.41 340.45"/><polygon class="cls-1" points="459.41 338.81 504.46 383.86 502.82 383.86 459.41 340.45 459.41 338.81"/><polygon class="cls-1" points="459.41 337.15 506.12 383.86 504.46 383.86 459.41 338.79 459.41 337.15"/><polygon class="cls-1" points="459.41 335.51 507.76 383.86 506.12 383.86 459.41 337.15 459.41 335.51"/><polygon class="cls-1" points="459.41 333.88 509.4 383.86 507.76 383.86 459.41 335.51 459.41 333.88"/><polygon class="cls-1" points="459.41 332.21 511.03 383.86 509.4 383.86 459.41 333.88 459.41 332.21"/><polygon class="cls-1" points="459.41 331.49 459.86 331.02 512.7 383.86 511.03 383.86 459.41 332.24 459.41 331.49"/><polygon class="cls-1" points="459.86 331.02 460.67 330.2 514.33 383.86 512.67 383.86 459.86 331.02"/><polygon class="cls-1" points="460.67 330.2 461.52 329.38 515.97 383.86 514.33 383.86 460.67 330.2"/><polygon class="cls-1" points="461.52 329.38 462.34 328.57 517.63 383.86 515.97 383.86 461.52 329.38"/><polygon class="cls-1" points="462.34 328.57 463.15 327.75 519.27 383.86 517.61 383.86 462.34 328.57"/><polygon class="cls-1" points="463.15 327.75 463.97 326.93 520.91 383.86 519.27 383.86 463.15 327.75"/><polygon class="cls-1" points="463.97 326.93 464.79 326.08 522.54 383.86 520.91 383.86 463.97 326.93"/><polygon class="cls-1" points="464.79 326.11 465.61 325.27 524.21 383.86 522.54 383.86 464.79 326.11"/><polygon class="cls-1" points="465.61 325.27 466.43 324.45 525.84 383.86 524.21 383.86 465.61 325.27"/><polygon class="cls-1" points="466.43 324.45 467.27 323.63 527.48 383.86 525.84 383.86 466.43 324.45"/><polygon class="cls-1" points="467.27 323.63 468.09 322.81 529.14 383.86 527.48 383.86 467.27 323.63"/><polygon class="cls-1" points="468.09 322.81 468.91 321.99 530.78 383.86 529.14 383.86 468.09 322.81"/><polygon class="cls-1" points="468.91 321.99 469.73 321.17 532.42 383.86 530.78 383.86 468.91 321.99"/><polygon class="cls-1" points="469.73 321.17 470.55 320.33 534.08 383.86 532.42 383.86 469.73 321.17"/><polygon class="cls-1" points="470.55 320.35 471.37 319.51 535.72 383.86 534.08 383.86 470.55 320.35"/><polygon class="cls-1" points="471.37 319.51 472.19 318.69 537.36 383.86 535.72 383.86 471.37 319.51"/><polygon class="cls-1" points="472.19 318.69 473.03 317.87 538.99 383.86 537.36 383.86 472.19 318.69"/><polygon class="cls-1" points="473.03 317.87 473.85 317.06 540.65 383.86 538.99 383.86 473.03 317.87"/><polygon class="cls-1" points="473.85 317.06 474.67 316.24 542.29 383.86 540.65 383.86 473.85 317.06"/><polygon class="cls-1" points="474.67 316.24 475.48 315.39 543.93 383.86 542.29 383.86 474.67 316.24"/><polygon class="cls-1" points="475.48 315.42 476.3 314.57 545.59 383.86 543.93 383.86 475.48 315.42"/><polygon class="cls-1" points="476.3 314.57 477.12 313.75 547.23 383.86 545.57 383.86 476.3 314.57"/><polygon class="cls-1" points="477.12 313.75 477.96 312.94 548.87 383.86 547.23 383.86 477.12 313.75"/><polygon class="cls-1" points="477.94 312.94 478.78 312.12 550.5 383.86 548.87 383.86 477.94 312.94"/><polygon class="cls-1" points="478.78 312.12 479.6 311.3 552.17 383.86 550.5 383.86 478.78 312.12"/><polygon class="cls-1" points="479.6 311.3 480.42 310.48 553.8 383.86 552.17 383.86 479.6 311.3"/><polygon class="cls-1" points="480.42 310.48 481.24 309.64 555.44 383.86 553.8 383.86 480.42 310.48"/><polygon class="cls-1" points="481.24 309.64 482.06 308.82 557.1 383.86 555.44 383.86 481.24 309.64"/><polygon class="cls-1" points="482.06 308.82 482.9 308 558.74 383.86 557.1 383.86 482.06 308.82"/><polygon class="cls-1" points="482.88 308 483.72 307.18 560.38 383.86 558.74 383.86 482.88 308"/><polygon class="cls-1" points="483.7 307.18 484.54 306.36 562.04 383.86 560.38 383.86 483.7 307.18"/><polygon class="cls-1" points="484.54 306.36 485.36 305.54 563.68 383.86 562.01 383.86 484.54 306.36"/><polygon class="cls-1" points="485.36 305.54 486.18 304.73 565.31 383.86 563.68 383.86 485.36 305.54"/><polygon class="cls-1" points="486.18 304.73 487 303.88 566.95 383.86 565.31 383.86 486.18 304.73"/><polygon class="cls-1" points="487 303.88 487.64 303.26 487.99 303.26 568.61 383.86 566.95 383.86 487 303.88"/><polygon class="cls-1" points="489.65 303.24 570.25 383.86 568.61 383.86 487.99 303.24 489.65 303.24"/><polygon class="cls-1" points="491.29 303.24 571.89 383.86 570.25 383.86 489.65 303.24 491.29 303.24"/><polygon class="cls-1" points="492.92 303.24 573.55 383.86 571.89 383.86 491.29 303.24 492.92 303.24"/><polygon class="cls-1" points="494.59 303.24 575.19 383.86 573.55 383.86 492.92 303.24 494.59 303.24"/><polygon class="cls-1" points="496.22 303.24 576.83 383.86 575.19 383.86 494.59 303.24 496.22 303.24"/><polygon class="cls-1" points="497.86 303.24 577.77 383.17 577.07 383.86 576.83 383.86 496.22 303.24 497.86 303.24"/><polygon class="cls-1" points="499.5 303.24 578.59 382.32 577.77 383.17 497.86 303.24 499.5 303.24"/><polygon class="cls-1" points="501.16 303.24 579.4 381.51 578.59 382.32 499.5 303.24 501.16 303.24"/><polygon class="cls-1" points="502.8 303.24 580.25 380.69 579.4 381.51 501.16 303.24 502.8 303.24"/><polygon class="cls-1" points="504.44 303.24 581.07 379.87 580.25 380.69 502.8 303.24 504.44 303.24"/><polygon class="cls-1" points="506.1 303.24 581.89 379.05 581.07 379.87 504.44 303.24 506.1 303.24"/><polygon class="cls-1" points="507.74 303.24 582.7 378.23 581.89 379.05 506.1 303.24 507.74 303.24"/><polygon class="cls-1" points="509.37 303.24 583.52 377.39 582.7 378.23 507.74 303.24 509.37 303.24"/><polygon class="cls-1" points="511.01 303.24 584.34 376.57 583.52 377.39 509.37 303.24 511.01 303.24"/><polygon class="cls-1" points="512.67 303.24 585.18 375.75 584.34 376.57 511.03 303.24 512.67 303.24"/><polygon class="cls-1" points="514.31 303.24 586 374.93 585.16 375.75 512.67 303.24 514.31 303.24"/><polygon class="cls-1" points="515.95 303.24 586.82 374.11 586 374.93 514.31 303.24 515.95 303.24"/><polygon class="cls-1" points="517.61 303.24 587.64 373.3 586.82 374.11 515.95 303.24 517.61 303.24"/><polygon class="cls-1" points="519.25 303.24 588.46 372.45 587.64 373.3 517.61 303.24 519.25 303.24"/><polygon class="cls-1" points="520.88 303.24 588.93 371.29 588.93 372 588.46 372.45 519.25 303.24 520.88 303.24"/><polygon class="cls-1" points="522.54 303.24 588.93 369.65 588.93 371.29 520.88 303.24 522.54 303.24"/><polygon class="cls-1" points="524.18 303.24 588.93 368.01 588.93 369.65 522.54 303.24 524.18 303.24"/><polygon class="cls-1" points="525.82 303.24 588.93 366.35 588.93 368.01 524.18 303.24 525.82 303.24"/><polygon class="cls-1" points="527.46 303.24 588.93 364.71 588.93 366.35 525.82 303.24 527.46 303.24"/><polygon class="cls-1" points="529.12 303.24 588.93 363.07 588.93 364.71 527.48 303.24 529.12 303.24"/><polygon class="cls-1" points="530.76 303.24 588.93 361.41 588.93 363.07 529.12 303.24 530.76 303.24"/><polygon class="cls-1" points="532.39 303.24 588.93 359.77 588.93 361.41 530.76 303.24 532.39 303.24"/><polygon class="cls-1" points="534.06 303.24 588.93 358.14 588.93 359.77 532.39 303.24 534.06 303.24"/><polygon class="cls-1" points="535.69 303.24 588.93 356.5 588.93 358.14 534.06 303.24 535.69 303.24"/><polygon class="cls-1" points="537.33 303.24 588.93 354.84 588.93 356.5 535.69 303.24 537.33 303.24"/><polygon class="cls-1" points="558.02 303.24 588.93 334.15 588.93 354.84 537.33 303.24 558.02 303.24"/><polygon class="cls-1" points="578.71 303.24 588.93 313.46 588.93 334.15 558.02 303.24 578.71 303.24"/><polygon class="cls-1" points="588.93 313.46 578.71 303.26 588.93 303.26 588.93 313.46"/><polygon class="cls-1" points="411.63 460.44 412.52 461.31 411.63 461.31 411.63 460.44"/><polygon class="cls-1" points="411.63 458.78 414.16 461.31 412.52 461.31 411.63 460.44 411.63 458.78"/><polygon class="cls-1" points="411.63 457.15 415.8 461.31 414.16 461.31 411.63 458.78 411.63 457.15"/><polygon class="cls-1" points="411.63 455.51 417.46 461.31 415.8 461.31 411.63 457.15 411.63 455.51"/><polygon class="cls-1" points="411.63 453.85 419.1 461.31 417.46 461.31 411.63 455.51 411.63 453.85"/><polygon class="cls-1" points="411.63 452.21 420.73 461.31 419.1 461.31 411.63 453.85 411.63 452.21"/><polygon class="cls-1" points="411.63 450.57 422.39 461.31 420.73 461.31 411.63 452.21 411.63 450.57"/><polygon class="cls-1" points="411.63 448.94 424.03 461.31 422.39 461.31 411.63 450.57 411.63 448.94"/><polygon class="cls-1" points="411.63 447.27 425.67 461.31 424.03 461.31 411.63 448.94 411.63 447.27"/><polygon class="cls-1" points="411.63 445.63 427.31 461.31 425.67 461.31 411.63 447.27 411.63 445.63"/><polygon class="cls-1" points="411.63 444 428.97 461.31 427.31 461.31 411.63 445.63 411.63 444"/><polygon class="cls-1" points="411.63 442.34 430.61 461.31 428.97 461.31 411.63 444 411.63 442.34"/><polygon class="cls-1" points="411.63 440.7 432.24 461.31 430.61 461.31 411.63 442.34 411.63 440.7"/><polygon class="cls-1" points="411.63 439.06 433.91 461.31 432.24 461.31 411.63 440.7 411.63 439.06"/><polygon class="cls-1" points="411.63 437.4 435.54 461.31 433.91 461.31 411.63 439.06 411.63 437.4"/><polygon class="cls-1" points="411.63 435.76 437.18 461.31 435.54 461.31 411.63 437.4 411.63 435.76"/><polygon class="cls-1" points="411.63 434.12 438.82 461.31 437.18 461.31 411.63 435.76 411.63 434.12"/><polygon class="cls-1" points="411.63 432.49 440.48 461.31 438.82 461.31 411.63 434.12 411.63 432.49"/><polygon class="cls-1" points="411.63 430.82 442.12 461.31 440.48 461.31 411.63 432.49 411.63 430.82"/><polygon class="cls-1" points="411.63 429.19 443.75 461.31 442.12 461.31 411.63 430.82 411.63 429.19"/><polygon class="cls-1" points="411.63 427.55 445.42 461.31 443.75 461.31 411.63 429.19 411.63 427.55"/><polygon class="cls-1" points="411.63 425.89 447.05 461.31 445.42 461.31 411.63 427.55 411.63 425.89"/><polygon class="cls-1" points="411.63 424.25 448.69 461.31 447.05 461.31 411.63 425.89 411.63 424.25"/><polygon class="cls-1" points="411.63 422.61 450.35 461.31 448.69 461.31 411.63 424.25 411.63 422.61"/><polygon class="cls-1" points="411.63 420.98 451.99 461.31 450.35 461.31 411.63 422.61 411.63 420.98"/><polygon class="cls-1" points="411.63 419.31 453.63 461.31 451.99 461.31 411.63 420.95 411.63 419.31"/><polygon class="cls-1" points="411.63 417.68 455.29 461.31 453.63 461.31 411.63 419.31 411.63 417.68"/><polygon class="cls-1" points="411.63 416.04 456.93 461.31 455.29 461.31 411.63 417.68 411.63 416.04"/><polygon class="cls-1" points="411.63 414.38 458.56 461.31 456.93 461.31 411.63 416.01 411.63 414.38"/><polygon class="cls-1" points="411.63 412.74 460.2 461.31 458.56 461.31 411.63 414.38 411.63 412.74"/><polygon class="cls-1" points="411.63 411.1 461.86 461.31 460.2 461.31 411.63 412.74 411.63 411.1"/><polygon class="cls-1" points="411.63 409.44 463.5 461.31 461.86 461.31 411.63 411.1 411.63 409.44"/><polygon class="cls-1" points="411.63 407.8 465.14 461.31 463.5 461.31 411.63 409.44 411.63 407.8"/><polygon class="cls-1" points="411.63 406.17 466.8 461.31 465.14 461.31 411.63 407.8 411.63 406.17"/><polygon class="cls-1" points="411.63 404.5 468.44 461.31 466.8 461.31 411.63 406.17 411.63 404.5"/><polygon class="cls-1" points="411.63 402.87 470.08 461.31 468.44 461.31 411.63 404.5 411.63 402.87"/><polygon class="cls-1" points="411.63 401.23 471.74 461.31 470.08 461.31 411.63 402.87 411.63 401.23"/><polygon class="cls-1" points="411.63 399.59 473.38 461.31 471.74 461.31 411.63 401.23 411.63 399.59"/><polygon class="cls-1" points="411.63 397.93 475.01 461.31 473.38 461.31 411.63 399.59 411.63 397.93"/><polygon class="cls-1" points="411.63 396.29 476.65 461.31 475.01 461.31 411.63 397.93 411.63 396.29"/><polygon class="cls-1" points="411.63 394.65 478.31 461.31 476.65 461.31 411.63 396.29 411.63 394.65"/><polygon class="cls-1" points="411.63 392.99 479.95 461.31 478.31 461.31 411.63 394.65 411.63 392.99"/><polygon class="cls-1" points="411.63 391.36 481.59 461.31 479.95 461.31 411.63 392.99 411.63 391.36"/><polygon class="cls-1" points="411.63 389.72 483.25 461.31 481.59 461.31 411.63 391.36 411.63 389.72"/><polygon class="cls-1" points="411.63 388.06 484.89 461.31 483.25 461.31 411.63 389.72 411.63 388.06"/><polygon class="cls-1" points="411.63 386.42 486.52 461.31 484.89 461.31 411.63 388.06 411.63 386.42"/><polygon class="cls-1" points="411.63 384.78 488.19 461.31 486.52 461.31 411.63 386.42 411.63 384.78"/><polygon class="cls-1" points="411.63 383.14 489.82 461.31 488.19 461.31 411.63 384.78 411.63 383.14"/><polygon class="cls-1" points="411.63 381.48 491.46 461.31 489.82 461.31 411.63 383.14 411.63 381.48"/><polygon class="cls-1" points="411.63 379.84 493.1 461.31 491.46 461.31 411.63 381.48 411.63 379.84"/><polygon class="cls-1" points="411.63 378.21 494.76 461.31 493.1 461.31 411.63 379.84 411.63 378.21"/><polygon class="cls-1" points="411.63 376.55 496.4 461.31 494.76 461.31 411.63 378.21 411.63 376.55"/><polygon class="cls-1" points="411.63 374.91 498.04 461.31 496.4 461.31 411.63 376.55 411.63 374.91"/><polygon class="cls-1" points="411.63 373.27 499.67 461.31 498.04 461.31 411.63 374.91 411.63 373.27"/><polygon class="cls-1" points="411.63 371.63 501.33 461.31 499.67 461.31 411.63 373.27 411.63 371.63"/><polygon class="cls-1" points="411.63 369.97 502.97 461.31 501.33 461.31 411.63 371.63 411.63 369.97"/><polygon class="cls-1" points="411.63 368.33 504.61 461.31 502.97 461.31 411.63 369.97 411.63 368.33"/><polygon class="cls-1" points="411.63 366.7 506.27 461.31 504.61 461.31 411.63 368.33 411.63 366.7"/><polygon class="cls-1" points="411.63 365.03 507.91 461.31 506.27 461.31 411.63 366.7 411.63 365.03"/><polygon class="cls-1" points="411.63 363.4 509.55 461.31 507.91 461.31 411.63 365.03 411.63 363.4"/><polygon class="cls-1" points="411.63 361.76 511.18 461.31 509.55 461.31 411.63 363.4 411.63 361.76"/><polygon class="cls-1" points="411.63 360.12 512.85 461.31 511.18 461.31 411.63 361.76 411.63 360.12"/><polygon class="cls-1" points="411.63 358.46 514.48 461.31 512.85 461.31 411.63 360.1 411.63 358.46"/><polygon class="cls-1" points="411.63 356.82 516.12 461.31 514.48 461.31 411.63 358.46 411.63 356.82"/><polygon class="cls-1" points="411.63 355.19 517.78 461.31 516.12 461.31 411.63 356.82 411.63 355.19"/><polygon class="cls-1" points="411.63 353.52 519.42 461.31 517.78 461.31 411.63 355.19 411.63 353.52"/><polygon class="cls-1" points="411.63 351.88 520.46 460.72 519.87 461.31 519.42 461.31 411.63 353.52 411.63 351.88"/><polygon class="cls-1" points="411.63 350.25 521.28 459.9 520.46 460.72 411.63 351.88 411.63 350.25"/><polygon class="cls-1" points="411.63 348.59 522.12 459.08 521.28 459.9 411.63 350.25 411.63 348.59"/><polygon class="cls-1" points="411.63 347.42 411.88 347.2 522.94 458.26 522.12 459.08 411.63 348.59 411.63 347.42"/><rect class="cls-1" x="467.21" y="323.79" width="1.17" height="157.06" transform="translate(-147.47 448.62) rotate(-45)"/><rect class="cls-1" x="468.07" y="322.96" width="1.17" height="157.06" transform="translate(-146.63 448.98) rotate(-45)"/><rect class="cls-1" x="468.89" y="322.12" width="1.17" height="157.06" transform="translate(-145.8 449.32) rotate(-45)"/><rect class="cls-1" x="469.71" y="321.31" width="1.17" height="157.06" transform="translate(-144.98 449.66) rotate(-45)"/><rect class="cls-1" x="470.51" y="320.48" width="1.17" height="157.06" transform="translate(-144.16 449.98) rotate(-45)"/><rect class="cls-1" x="471.33" y="319.67" width="1.17" height="157.06" transform="translate(-143.35 450.33) rotate(-45)"/><rect class="cls-1" x="472.15" y="318.84" width="1.17" height="157.06" transform="translate(-142.52 450.66) rotate(-45)"/><rect class="cls-1" x="472.99" y="318.03" width="1.17" height="157.06" transform="translate(-141.7 451.02) rotate(-45)"/><rect class="cls-1" x="473.83" y="317.2" width="1.17" height="157.06" transform="translate(-140.87 451.37) rotate(-45)"/><rect class="cls-1" x="474.65" y="316.39" width="1.17" height="157.06" transform="translate(-140.06 451.71) rotate(-45)"/><rect class="cls-1" x="475.47" y="315.55" width="1.17" height="157.06" transform="translate(-139.23 452.04) rotate(-45)"/><rect class="cls-1" x="476.27" y="314.73" width="1.17" height="157.06" transform="translate(-138.41 452.37) rotate(-45)"/><rect class="cls-1" x="477.09" y="313.92" width="1.17" height="157.06" transform="translate(-137.59 452.71) rotate(-45)"/><rect class="cls-1" x="477.91" y="313.08" width="1.17" height="157.06" transform="translate(-136.76 453.04) rotate(-45)"/><rect class="cls-1" x="478.77" y="312.25" width="1.17" height="157.06" transform="translate(-135.93 453.41) rotate(-45)"/><rect class="cls-1" x="479.59" y="311.44" width="1.17" height="157.06" transform="translate(-135.11 453.75) rotate(-45)"/><rect class="cls-1" x="480.4" y="310.63" width="1.17" height="157.06" transform="translate(-134.3 454.09) rotate(-45)"/><rect class="cls-1" x="481.21" y="309.78" width="1.17" height="157.06" transform="translate(-133.46 454.41) rotate(-45)"/><rect class="cls-1" x="482.02" y="308.97" width="1.17" height="157.06" transform="translate(-132.65 454.75) rotate(-45)"/><rect class="cls-1" x="482.84" y="308.16" width="1.17" height="157.06" transform="translate(-131.84 455.09) rotate(-45)"/><rect class="cls-1" x="483.66" y="307.35" width="1.17" height="157.06" transform="translate(-131.02 455.43) rotate(-45)"/><rect class="cls-1" x="484.52" y="306.49" width="1.17" height="157.06" transform="translate(-130.17 455.79) rotate(-45)"/><rect class="cls-1" x="485.34" y="305.68" width="1.17" height="157.06" transform="translate(-129.36 456.13) rotate(-45)"/><rect class="cls-1" x="486.16" y="304.87" width="1.17" height="157.06" transform="translate(-128.54 456.48) rotate(-45)"/><rect class="cls-1" x="486.96" y="304.02" width="1.17" height="157.06" transform="translate(-127.71 456.79) rotate(-45)"/><rect class="cls-1" x="487.78" y="303.21" width="1.17" height="157.06" transform="translate(-126.89 457.13) rotate(-45)"/><rect class="cls-1" x="488.6" y="302.4" width="1.17" height="157.06" transform="translate(-126.08 457.48) rotate(-45)"/><rect class="cls-1" x="489.44" y="301.59" width="1.17" height="157.06" transform="translate(-125.26 457.83) rotate(-45)"/><rect class="cls-1" x="490.28" y="300.74" width="1.17" height="157.06" transform="translate(-124.41 458.18) rotate(-45)"/><rect class="cls-1" x="491.1" y="299.93" width="1.17" height="157.06" transform="translate(-123.6 458.52) rotate(-45)"/><rect class="cls-1" x="491.92" y="299.12" width="1.17" height="157.06" transform="translate(-122.79 458.86) rotate(-45)"/><rect class="cls-1" x="492.72" y="298.29" width="1.17" height="157.06" transform="translate(-121.97 459.18) rotate(-45)"/><rect class="cls-1" x="493.53" y="297.45" width="1.17" height="157.06" transform="translate(-121.14 459.52) rotate(-45)"/><rect class="cls-1" x="494.35" y="296.64" width="1.17" height="157.06" transform="translate(-120.32 459.86) rotate(-45)"/><rect class="cls-1" x="495.21" y="295.81" width="1.17" height="157.06" transform="translate(-119.49 460.22) rotate(-45)"/><rect class="cls-1" x="496.03" y="295" width="1.17" height="157.06" transform="translate(-118.67 460.57) rotate(-45)"/><rect class="cls-1" x="496.85" y="294.17" width="1.17" height="157.06" transform="translate(-117.84 460.9) rotate(-45)"/><rect class="cls-1" x="497.65" y="293.34" width="1.17" height="157.06" transform="translate(-117.02 461.22) rotate(-45)"/><rect class="cls-1" x="498.47" y="292.53" width="1.17" height="157.06" transform="translate(-116.21 461.57) rotate(-45)"/><rect class="cls-1" x="499.29" y="291.69" width="1.17" height="157.06" transform="translate(-115.38 461.9) rotate(-45)"/><rect class="cls-1" x="500.11" y="290.88" width="1.17" height="157.06" transform="translate(-114.57 462.24) rotate(-45)"/><rect class="cls-1" x="500.97" y="290.06" width="1.17" height="157.06" transform="translate(-113.73 462.61) rotate(-45)"/><rect class="cls-1" x="501.79" y="289.25" width="1.17" height="157.06" transform="translate(-112.92 462.95) rotate(-45)"/><rect class="cls-1" x="502.61" y="288.41" width="1.17" height="157.06" transform="translate(-112.09 463.28) rotate(-45)"/><rect class="cls-1" x="503.41" y="287.58" width="1.17" height="157.06" transform="translate(-111.26 463.61) rotate(-45)"/><rect class="cls-1" x="504.23" y="286.77" width="1.17" height="157.06" transform="translate(-110.45 463.95) rotate(-45)"/><rect class="cls-1" x="505.05" y="285.96" width="1.17" height="157.06" transform="translate(-109.64 464.29) rotate(-45)"/><rect class="cls-1" x="505.86" y="285.13" width="1.17" height="157.06" transform="translate(-108.81 464.62) rotate(-45)"/><rect class="cls-1" x="506.73" y="284.3" width="1.17" height="157.06" transform="translate(-107.97 464.99) rotate(-45)"/><rect class="cls-1" x="507.54" y="283.49" width="1.17" height="157.06" transform="translate(-107.16 465.33) rotate(-45)"/><rect class="cls-1" x="508.36" y="282.65" width="1.17" height="157.06" transform="translate(-106.33 465.67) rotate(-45)"/><rect class="cls-1" x="509.16" y="281.82" width="1.17" height="157.06" transform="translate(-105.51 465.99) rotate(-45)"/><polygon class="cls-1" points="454.64 304.43 455.19 303.88 455.74 303.88 566.53 414.68 565.71 415.49 454.64 304.43"/><polygon class="cls-1" points="457.37 303.88 567.35 413.83 566.53 414.65 455.74 303.88 457.37 303.88"/><polygon class="cls-1" points="459.01 303.88 568.17 413.01 567.35 413.83 457.37 303.88 459.01 303.88"/><polygon class="cls-1" points="460.67 303.88 568.99 412.19 568.17 413.01 459.01 303.88 460.67 303.88"/><polygon class="cls-1" points="462.31 303.88 569.8 411.38 568.99 412.19 460.67 303.88 462.31 303.88"/><polygon class="cls-1" points="463.95 303.88 570.62 410.56 569.8 411.38 462.31 303.88 463.95 303.88"/><polygon class="cls-1" points="465.59 303.88 571.44 409.74 570.62 410.56 463.95 303.88 465.59 303.88"/><polygon class="cls-1" points="467.25 303.88 572.28 408.92 571.44 409.74 465.61 303.88 467.25 303.88"/><polygon class="cls-1" points="468.88 303.88 573.1 408.08 572.26 408.92 467.25 303.88 468.88 303.88"/><polygon class="cls-1" points="470.52 303.88 573.92 407.26 573.1 408.08 468.88 303.88 470.52 303.88"/><polygon class="cls-1" points="472.19 303.88 574.74 406.44 573.92 407.26 470.52 303.88 472.19 303.88"/><polygon class="cls-1" points="473.82 303.88 575.56 405.62 574.74 406.44 472.19 303.88 473.82 303.88"/><polygon class="cls-1" points="475.46 303.88 576.38 404.8 575.56 405.62 473.82 303.88 475.46 303.88"/><polygon class="cls-1" points="477.12 303.88 576.58 403.36 576.58 404.6 576.38 404.8 475.46 303.88 477.12 303.88"/><polygon class="cls-1" points="478.76 303.88 576.6 401.7 576.6 403.36 477.12 303.88 478.76 303.88"/><polygon class="cls-1" points="480.4 303.88 576.6 400.06 576.6 401.7 478.76 303.88 480.4 303.88"/><polygon class="cls-1" points="482.03 303.88 576.58 398.43 576.58 400.06 480.4 303.88 482.03 303.88"/><polygon class="cls-1" points="483.7 303.88 576.6 396.76 576.6 398.43 482.03 303.88 483.7 303.88"/><polygon class="cls-1" points="485.33 303.88 576.6 395.13 576.6 396.76 483.7 303.88 485.33 303.88"/><polygon class="cls-1" points="486.97 303.88 576.58 393.49 576.58 395.13 485.33 303.88 486.97 303.88"/><polygon class="cls-1" points="488.63 303.88 576.6 391.83 576.6 393.49 486.97 303.88 488.63 303.88"/><polygon class="cls-1" points="490.27 303.88 576.6 390.19 576.6 391.83 488.63 303.88 490.27 303.88"/><polygon class="cls-1" points="491.91 303.88 576.58 388.55 576.58 390.19 490.27 303.88 491.91 303.88"/><polygon class="cls-1" points="493.54 303.88 576.6 386.91 576.6 388.55 491.91 303.88 493.54 303.88"/><polygon class="cls-1" points="495.21 303.88 576.6 385.25 576.6 386.91 493.54 303.88 495.21 303.88"/><polygon class="cls-1" points="496.84 303.88 576.58 383.62 576.58 385.25 495.21 303.88 496.84 303.88"/><polygon class="cls-1" points="498.48 303.88 576.58 381.98 576.58 383.62 496.84 303.88 498.48 303.88"/><polygon class="cls-1" points="500.14 303.88 576.6 380.34 576.6 381.98 498.48 303.88 500.14 303.88"/><polygon class="cls-1" points="501.78 303.88 576.6 378.68 576.6 380.34 500.14 303.88 501.78 303.88"/><polygon class="cls-1" points="503.42 303.88 576.58 377.04 576.58 378.68 501.78 303.88 503.42 303.88"/><polygon class="cls-1" points="505.06 303.88 576.6 375.4 576.6 377.04 503.42 303.88 505.06 303.88"/><polygon class="cls-1" points="506.72 303.88 576.6 373.74 576.6 375.4 505.08 303.88 506.72 303.88"/><polygon class="cls-1" points="508.36 303.88 576.58 372.1 576.58 373.74 506.72 303.88 508.36 303.88"/><polygon class="cls-1" points="509.99 303.88 576.6 370.47 576.6 372.1 508.36 303.88 509.99 303.88"/><polygon class="cls-1" points="511.65 303.88 576.6 368.83 576.6 370.47 510.02 303.88 511.65 303.88"/><polygon class="cls-1" points="513.29 303.88 576.58 367.17 576.58 368.83 511.65 303.88 513.29 303.88"/><polygon class="cls-1" points="514.93 303.88 576.6 365.53 576.6 367.17 513.29 303.88 514.93 303.88"/><polygon class="cls-1" points="516.59 303.88 576.6 363.89 576.6 365.53 514.93 303.88 516.59 303.88"/><polygon class="cls-1" points="518.23 303.88 576.58 362.23 576.58 363.89 516.59 303.88 518.23 303.88"/><polygon class="cls-1" points="519.87 303.88 576.6 360.59 576.6 362.23 518.23 303.88 519.87 303.88"/><polygon class="cls-1" points="521.53 303.88 576.6 358.96 576.6 360.59 519.87 303.88 521.53 303.88"/><polygon class="cls-1" points="523.16 303.88 576.58 357.29 576.58 358.96 521.53 303.88 523.16 303.88"/><polygon class="cls-1" points="524.8 303.88 576.6 355.66 576.6 357.29 523.16 303.88 524.8 303.88"/><polygon class="cls-1" points="526.44 303.88 576.6 354.02 576.6 355.66 524.8 303.88 526.44 303.88"/><polygon class="cls-1" points="528.1 303.88 576.58 352.36 576.58 354.02 526.47 303.88 528.1 303.88"/><polygon class="cls-1" points="529.74 303.88 576.6 350.72 576.6 352.36 528.1 303.88 529.74 303.88"/><polygon class="cls-1" points="531.38 303.88 576.6 349.08 576.6 350.72 529.74 303.88 531.38 303.88"/><polygon class="cls-1" points="533.04 303.88 576.58 347.42 576.58 349.08 531.38 303.88 533.04 303.88"/><polygon class="cls-1" points="534.68 303.88 576.6 345.78 576.6 347.42 533.04 303.88 534.68 303.88"/><polygon class="cls-1" points="536.31 303.88 576.6 344.14 576.6 345.78 534.68 303.88 536.31 303.88"/><polygon class="cls-1" points="537.95 303.88 576.58 342.51 576.58 344.14 536.31 303.88 537.95 303.88"/><polygon class="cls-1" points="558.64 303.88 576.58 321.82 576.58 342.51 537.95 303.88 558.64 303.88"/><polygon class="cls-1" points="576.6 321.82 558.64 303.88 576.6 303.88 576.6 321.82"/><polygon class="cls-1" points="480.15 463.17 480.25 463.25 480.15 463.25 480.15 463.17"/><polygon class="cls-1" points="480.15 461.51 481.88 463.25 480.25 463.25 480.15 463.15 480.15 461.51"/><polygon class="cls-1" points="480.15 459.88 483.52 463.25 481.88 463.25 480.15 461.51 480.15 459.88"/><polygon class="cls-1" points="480.15 458.24 485.18 463.25 483.52 463.25 480.15 459.88 480.15 458.24"/><polygon class="cls-1" points="480.15 456.57 486.82 463.25 485.18 463.25 480.15 458.24 480.15 456.57"/><polygon class="cls-1" points="480.15 454.94 488.46 463.25 486.82 463.25 480.15 456.57 480.15 454.94"/><polygon class="cls-1" points="480.15 453.3 490.1 463.25 488.46 463.25 480.15 454.94 480.15 453.3"/><polygon class="cls-1" points="480.15 451.64 491.76 463.25 490.1 463.25 480.15 453.3 480.15 451.64"/><polygon class="cls-1" points="480.15 451.34 480.82 450.67 492.73 462.58 492.06 463.25 491.76 463.25 480.15 451.64 480.15 451.34"/><rect class="cls-1" x="486.61" y="447.81" width="1.17" height="16.84" transform="translate(-179.91 478.12) rotate(-45)"/><rect class="cls-1" x="487.43" y="446.97" width="1.17" height="16.84" transform="translate(-179.08 478.46) rotate(-45)"/><rect class="cls-1" x="488.26" y="446.15" width="1.17" height="16.84" transform="translate(-178.25 478.81) rotate(-45)"/><rect class="cls-1" x="489.08" y="445.33" width="1.17" height="16.84" transform="translate(-177.44 479.15) rotate(-45)"/><rect class="cls-1" x="489.88" y="444.48" width="1.17" height="16.84" transform="translate(-176.6 479.46) rotate(-45)"/><rect class="cls-1" x="490.7" y="443.67" width="1.17" height="16.84" transform="translate(-175.78 479.81) rotate(-45)"/><rect class="cls-1" x="491.52" y="442.86" width="1.17" height="16.84" transform="translate(-174.97 480.15) rotate(-45)"/><rect class="cls-1" x="492.36" y="442.05" width="1.17" height="16.84" transform="translate(-174.15 480.51) rotate(-45)"/><rect class="cls-1" x="493.18" y="441.22" width="1.17" height="16.84" transform="translate(-173.32 480.84) rotate(-45)"/><rect class="cls-1" x="494.02" y="440.39" width="1.17" height="16.84" transform="translate(-172.49 481.19) rotate(-45)"/><polygon class="cls-1" points="489.03 442.46 489.8 441.69 489.95 441.69 501.78 453.55 500.96 454.37 489.03 442.46"/><polygon class="cls-1" points="491.58 441.69 502.38 452.51 502.38 452.93 501.78 453.55 489.95 441.69 491.58 441.69"/><polygon class="cls-1" points="493.22 441.69 502.38 450.85 502.38 452.51 491.58 441.69 493.22 441.69"/><polygon class="cls-1" points="494.86 441.69 502.38 449.21 502.38 450.85 493.22 441.69 494.86 441.69"/><polygon class="cls-1" points="496.52 441.69 502.38 447.57 502.38 449.21 494.86 441.69 496.52 441.69"/><polygon class="cls-1" points="498.16 441.69 502.38 445.93 502.38 447.57 496.52 441.69 498.16 441.69"/><polygon class="cls-1" points="499.8 441.69 502.38 444.27 502.38 445.93 498.16 441.69 499.8 441.69"/><polygon class="cls-1" points="501.46 441.69 502.38 442.63 502.38 444.27 499.8 441.69 501.46 441.69"/><polygon class="cls-1" points="502.38 442.63 501.46 441.69 502.38 441.69 502.38 442.63"/><polygon class="cls-1" points="461.12 445.78 462.61 447.25 461.12 447.25 461.12 445.78"/><polygon class="cls-1" points="461.12 444.12 464.25 447.25 462.61 447.25 461.12 445.78 461.12 444.12"/><polygon class="cls-1" points="461.12 442.48 465.88 447.25 464.25 447.25 461.12 444.12 461.12 442.48"/><polygon class="cls-1" points="461.12 440.85 467.52 447.25 465.88 447.25 461.12 442.48 461.12 440.85"/><polygon class="cls-1" points="461.12 439.19 469.18 447.25 467.52 447.25 461.12 440.85 461.12 439.19"/><polygon class="cls-1" points="461.12 437.55 470.82 447.25 469.18 447.25 461.12 439.19 461.12 437.55"/><polygon class="cls-1" points="461.12 435.91 472.46 447.25 470.82 447.25 461.12 437.55 461.12 435.91"/><polygon class="cls-1" points="461.12 435.34 461.67 434.79 473.57 446.7 473.03 447.25 472.46 447.25 461.12 435.91 461.12 435.34"/><rect class="cls-1" x="467.45" y="431.91" width="1.17" height="16.84" transform="translate(-174.28 459.92) rotate(-45)"/><rect class="cls-1" x="468.26" y="431.1" width="1.17" height="16.84" transform="translate(-173.47 460.26) rotate(-45)"/><rect class="cls-1" x="469.08" y="430.29" width="1.17" height="16.84" transform="translate(-172.66 460.6) rotate(-45)"/><rect class="cls-1" x="469.9" y="429.46" width="1.17" height="16.84" transform="translate(-171.83 460.94) rotate(-45)"/><rect class="cls-1" x="470.72" y="428.65" width="1.17" height="16.84" transform="translate(-171.01 461.28) rotate(-45)"/><rect class="cls-1" x="471.56" y="427.82" width="1.17" height="16.84" transform="translate(-170.18 461.63) rotate(-45)"/><rect class="cls-1" x="472.38" y="426.97" width="1.17" height="16.84" transform="translate(-169.34 461.96) rotate(-45)"/><rect class="cls-1" x="473.2" y="426.16" width="1.17" height="16.84" transform="translate(-168.53 462.3) rotate(-45)"/><rect class="cls-1" x="474.02" y="425.35" width="1.17" height="16.84" transform="translate(-167.71 462.64) rotate(-45)"/><rect class="cls-1" x="474.84" y="424.54" width="1.17" height="16.84" transform="translate(-166.9 462.98) rotate(-45)"/><rect class="cls-1" x="475.66" y="423.7" width="1.17" height="16.84" transform="translate(-166.07 463.32) rotate(-45)"/><rect class="cls-1" x="476.49" y="422.87" width="1.17" height="16.84" transform="translate(-165.24 463.67) rotate(-45)"/><rect class="cls-1" x="477.34" y="422.06" width="1.17" height="16.84" transform="translate(-164.42 464.03) rotate(-45)"/><rect class="cls-1" x="478.14" y="421.23" width="1.17" height="16.84" transform="translate(-163.6 464.35) rotate(-45)"/><rect class="cls-1" x="478.96" y="420.4" width="1.17" height="16.84" transform="translate(-162.77 464.68) rotate(-45)"/><rect class="cls-1" x="479.78" y="419.59" width="1.17" height="16.84" transform="translate(-161.96 465.03) rotate(-45)"/><rect class="cls-1" x="480.59" y="418.78" width="1.17" height="16.84" transform="translate(-161.14 465.37) rotate(-45)"/><polygon class="cls-1" points="475.63 420.83 476.28 420.18 476.65 420.18 487.79 431.35 487.79 432.49 487.54 432.74 475.63 420.83"/><polygon class="cls-1" points="478.29 420.18 487.81 429.71 487.81 431.35 476.65 420.18 478.29 420.18"/><polygon class="cls-1" points="479.95 420.18 487.79 428.05 487.79 429.71 478.29 420.18 479.95 420.18"/><polygon class="cls-1" points="481.59 420.18 487.81 426.41 487.81 428.05 479.95 420.18 481.59 420.18"/><polygon class="cls-1" points="483.22 420.18 487.81 424.77 487.81 426.41 481.59 420.18 483.22 420.18"/><polygon class="cls-1" points="484.86 420.18 487.79 423.11 487.79 424.77 483.22 420.18 484.86 420.18"/><polygon class="cls-1" points="486.52 420.18 487.81 421.47 487.81 423.11 484.86 420.18 486.52 420.18"/><polygon class="cls-1" points="487.81 421.47 486.52 420.18 487.81 420.18 487.81 421.47"/><polygon class="cls-1" points="443.78 428.42 445.09 429.73 443.78 429.73 443.78 428.42"/><polygon class="cls-1" points="443.78 426.78 446.73 429.73 445.09 429.73 443.78 428.42 443.78 426.78"/><polygon class="cls-1" points="443.78 425.14 448.37 429.73 446.73 429.73 443.78 426.78 443.78 425.14"/><polygon class="cls-1" points="443.78 423.51 450.03 429.73 448.37 429.73 443.78 425.14 443.78 423.51"/><polygon class="cls-1" points="443.78 421.84 451.67 429.73 450.03 429.73 443.78 423.48 443.78 421.84"/><polygon class="cls-1" points="443.78 420.21 453.31 429.73 451.67 429.73 443.78 421.84 443.78 420.21"/><polygon class="cls-1" points="443.78 418.57 454.94 429.73 453.31 429.73 443.78 420.21 443.78 418.57"/><polygon class="cls-1" points="443.78 417.82 444.23 417.38 456.13 429.29 455.69 429.73 454.94 429.73 443.78 418.57 443.78 417.82"/><rect class="cls-1" x="450.02" y="414.52" width="1.17" height="16.84" transform="translate(-167.09 442.5) rotate(-45)"/><rect class="cls-1" x="450.85" y="413.66" width="1.17" height="16.84" transform="translate(-166.24 442.84) rotate(-45)"/><rect class="cls-1" x="451.66" y="412.84" width="1.17" height="16.84" transform="translate(-165.42 443.16) rotate(-45)"/><rect class="cls-1" x="452.47" y="412.03" width="1.17" height="16.84" transform="translate(-164.6 443.51) rotate(-45)"/><rect class="cls-1" x="453.29" y="411.19" width="1.17" height="16.84" transform="translate(-163.77 443.84) rotate(-45)"/><rect class="cls-1" x="454.11" y="410.38" width="1.17" height="16.84" transform="translate(-162.96 444.18) rotate(-45)"/><rect class="cls-1" x="454.96" y="409.57" width="1.17" height="16.84" transform="translate(-162.14 444.54) rotate(-45)"/><rect class="cls-1" x="455.77" y="408.76" width="1.17" height="16.84" transform="translate(-161.33 444.88) rotate(-45)"/><rect class="cls-1" x="456.61" y="407.91" width="1.17" height="16.84" transform="translate(-160.48 445.22) rotate(-45)"/><rect class="cls-1" x="457.41" y="407.08" width="1.17" height="16.84" transform="translate(-159.66 445.55) rotate(-45)"/><rect class="cls-1" x="458.23" y="406.27" width="1.17" height="16.84" transform="translate(-158.85 445.89) rotate(-45)"/><rect class="cls-1" x="459.05" y="405.46" width="1.17" height="16.84" transform="translate(-158.03 446.23) rotate(-45)"/><rect class="cls-1" x="459.89" y="404.62" width="1.17" height="16.84" transform="translate(-157.2 446.58) rotate(-45)"/><rect class="cls-1" x="460.71" y="403.81" width="1.17" height="16.84" transform="translate(-156.38 446.92) rotate(-45)"/><rect class="cls-1" x="461.53" y="403" width="1.17" height="16.84" transform="translate(-155.57 447.27) rotate(-45)"/><rect class="cls-1" x="462.37" y="402.15" width="1.17" height="16.84" transform="translate(-154.72 447.61) rotate(-45)"/><rect class="cls-1" x="463.17" y="401.32" width="1.17" height="16.84" transform="translate(-153.9 447.93) rotate(-45)"/><polygon class="cls-1" points="458.22 403.39 458.86 402.74 459.19 402.74 470.45 413.98 470.45 414.97 470.13 415.32 458.22 403.39"/><polygon class="cls-1" points="460.85 402.72 470.45 412.34 470.45 413.98 459.19 402.72 460.85 402.72"/><polygon class="cls-1" points="462.49 402.72 470.45 410.7 470.45 412.34 460.85 402.72 462.49 402.72"/><polygon class="cls-1" points="464.12 402.72 470.45 409.04 470.45 410.7 462.49 402.72 464.12 402.72"/><polygon class="cls-1" points="465.76 402.72 470.45 407.41 470.45 409.04 464.12 402.72 465.76 402.72"/><polygon class="cls-1" points="467.42 402.72 470.45 405.77 470.45 407.41 465.78 402.72 467.42 402.72"/><polygon class="cls-1" points="469.06 402.72 470.45 404.11 470.45 405.77 467.42 402.72 469.06 402.72"/><polygon class="cls-1" points="470.45 404.11 469.06 402.72 470.45 402.72 470.45 404.11"/><polygon class="cls-1" points="427.8 409.17 429.39 410.78 427.8 410.78 427.8 409.17"/><polygon class="cls-1" points="427.8 407.53 431.05 410.78 429.39 410.78 427.8 409.17 427.8 407.53"/><polygon class="cls-1" points="427.8 405.89 432.69 410.78 431.05 410.78 427.8 407.53 427.8 405.89"/><polygon class="cls-1" points="427.8 404.23 434.33 410.75 432.69 410.75 427.8 405.89 427.8 404.23"/><polygon class="cls-1" points="427.8 402.59 435.99 410.78 434.33 410.78 427.8 404.23 427.8 402.59"/><polygon class="cls-1" points="427.8 400.96 437.63 410.78 435.99 410.78 427.8 402.59 427.8 400.96"/><polygon class="cls-1" points="427.8 399.32 439.26 410.75 437.63 410.75 427.8 400.96 427.8 399.32"/><polygon class="cls-1" points="427.8 398.85 428.4 398.25 440.33 410.16 439.71 410.78 439.26 410.78 427.8 399.32 427.8 398.85"/><rect class="cls-1" x="434.2" y="395.37" width="1.17" height="16.84" transform="translate(-158.18 425.71) rotate(-45)"/><rect class="cls-1" x="435.02" y="394.56" width="1.17" height="16.84" transform="translate(-157.37 426.05) rotate(-45)"/><rect class="cls-1" x="435.84" y="393.73" width="1.17" height="16.84" transform="translate(-156.54 426.38) rotate(-45)"/><rect class="cls-1" x="436.66" y="392.92" width="1.17" height="16.84" transform="translate(-155.72 426.72) rotate(-45)"/><rect class="cls-1" x="437.48" y="392.1" width="1.17" height="16.84" transform="translate(-154.91 427.07) rotate(-45)"/><rect class="cls-1" x="438.29" y="391.27" width="1.17" height="16.84" transform="translate(-154.08 427.4) rotate(-45)"/><rect class="cls-1" x="439.12" y="390.44" width="1.17" height="16.84" transform="translate(-153.25 427.74) rotate(-45)"/><rect class="cls-1" x="439.96" y="389.61" width="1.17" height="16.84" transform="translate(-152.42 428.09) rotate(-45)"/><rect class="cls-1" x="440.77" y="388.8" width="1.17" height="16.84" transform="translate(-151.61 428.43) rotate(-45)"/><rect class="cls-1" x="441.59" y="387.97" width="1.17" height="16.84" transform="translate(-150.78 428.77) rotate(-45)"/><rect class="cls-1" x="442.41" y="387.16" width="1.17" height="16.84" transform="translate(-149.97 429.11) rotate(-45)"/><polygon class="cls-1" points="437.45 389.22 437.45 389.22 439.09 389.22 450.08 400.19 450.08 400.41 449.36 401.13 437.45 389.22"/><polygon class="cls-1" points="440.73 389.22 450.08 398.55 450.08 400.19 439.09 389.22 440.73 389.22"/><polygon class="cls-1" points="442.39 389.22 450.08 396.89 450.08 398.55 440.75 389.22 442.39 389.22"/><polygon class="cls-1" points="444.03 389.22 450.08 395.25 450.08 396.89 442.39 389.22 444.03 389.22"/><polygon class="cls-1" points="445.67 389.22 450.08 393.61 450.08 395.25 444.03 389.22 445.67 389.22"/><polygon class="cls-1" points="447.33 389.22 450.08 391.98 450.08 393.61 445.69 389.22 447.33 389.22"/><polygon class="cls-1" points="448.96 389.22 450.08 390.31 450.08 391.98 447.33 389.22 448.96 389.22"/><polygon class="cls-1" points="450.08 390.31 448.96 389.22 450.08 389.22 450.08 390.31"/><polygon class="cls-1" points="387.76 351.04 388.26 351.54 387.76 351.54 387.76 351.04"/><polygon class="cls-1" points="387.76 349.4 389.9 351.54 388.26 351.54 387.76 351.04 387.76 349.4"/><polygon class="cls-1" points="387.76 347.74 391.53 351.54 389.9 351.54 387.76 349.4 387.76 347.74"/><polygon class="cls-1" points="387.76 346.11 393.2 351.54 391.53 351.54 387.76 347.74 387.76 346.11"/><polygon class="cls-1" points="387.76 344.47 394.83 351.54 393.2 351.54 387.76 346.11 387.76 344.47"/><polygon class="cls-1" points="387.76 342.81 396.47 351.54 394.83 351.54 387.76 344.47 387.76 342.81"/><polygon class="cls-1" points="387.76 341.17 398.13 351.54 396.47 351.54 387.76 342.81 387.76 341.17"/><polygon class="cls-1" points="387.76 339.53 399.77 351.54 398.13 351.54 387.76 341.17 387.76 339.53"/><polygon class="cls-1" points="387.76 337.89 401.41 351.54 399.77 351.54 387.76 339.53 387.76 337.89"/><polygon class="cls-1" points="387.76 336.23 403.07 351.54 401.41 351.54 387.76 337.89 387.76 336.23"/><polygon class="cls-1" points="387.76 334.59 404.71 351.54 403.07 351.54 387.76 336.23 387.76 334.59"/><polygon class="cls-1" points="387.76 332.96 406.29 351.49 406.25 351.54 404.71 351.54 387.76 334.59 387.76 332.96"/><polygon class="cls-1" points="387.76 331.3 407.11 350.64 406.29 351.49 387.76 332.96 387.76 331.3"/><polygon class="cls-1" points="387.76 329.66 407.93 349.83 407.11 350.67 387.76 331.3 387.76 329.66"/><polygon class="cls-1" points="387.76 328.02 408.77 349.01 407.93 349.83 387.76 329.66 387.76 328.02"/><polygon class="cls-1" points="387.76 326.36 409.59 348.19 408.77 349.01 387.76 328.02 387.76 326.36"/><polygon class="cls-1" points="387.76 325.84 388.33 325.29 410.41 347.37 409.59 348.19 387.76 326.38 387.76 325.84"/><rect class="cls-1" x="399.21" y="320.3" width="1.17" height="31.23" transform="translate(-120.43 381.09) rotate(-45)"/><rect class="cls-1" x="400.03" y="319.47" width="1.17" height="31.23" transform="translate(-119.6 381.42) rotate(-45)"/><rect class="cls-1" x="400.83" y="318.64" width="1.17" height="31.23" transform="translate(-118.78 381.75) rotate(-45)"/><rect class="cls-1" x="401.65" y="317.83" width="1.17" height="31.23" transform="translate(-117.97 382.09) rotate(-45)"/><rect class="cls-1" x="402.47" y="317.02" width="1.17" height="31.23" transform="translate(-117.16 382.43) rotate(-45)"/><rect class="cls-1" x="403.31" y="316.17" width="1.17" height="31.23" transform="translate(-116.31 382.77) rotate(-45)"/><rect class="cls-1" x="404.15" y="315.36" width="1.17" height="31.23" transform="translate(-115.49 383.13) rotate(-45)"/><rect class="cls-1" x="404.97" y="314.55" width="1.17" height="31.23" transform="translate(-114.68 383.47) rotate(-45)"/><rect class="cls-1" x="405.77" y="313.72" width="1.17" height="31.23" transform="translate(-113.86 383.79) rotate(-45)"/><rect class="cls-1" x="406.59" y="312.88" width="1.17" height="31.23" transform="translate(-113.03 384.13) rotate(-45)"/><rect class="cls-1" x="407.41" y="312.07" width="1.17" height="31.23" transform="translate(-112.21 384.47) rotate(-45)"/><rect class="cls-1" x="408.22" y="311.26" width="1.17" height="31.23" transform="translate(-111.4 384.81) rotate(-45)"/><rect class="cls-1" x="409.06" y="310.43" width="1.17" height="31.23" transform="translate(-110.57 385.16) rotate(-45)"/><rect class="cls-1" x="409.9" y="309.6" width="1.17" height="31.23" transform="translate(-109.73 385.51) rotate(-45)"/><rect class="cls-1" x="410.72" y="308.79" width="1.17" height="31.23" transform="translate(-108.92 385.85) rotate(-45)"/><rect class="cls-1" x="411.52" y="307.96" width="1.17" height="31.23" transform="translate(-108.1 386.18) rotate(-45)"/><rect class="cls-1" x="412.34" y="307.13" width="1.17" height="31.23" transform="translate(-107.27 386.51) rotate(-45)"/><rect class="cls-1" x="413.16" y="306.31" width="1.17" height="31.23" transform="translate(-106.46 386.85) rotate(-45)"/><rect class="cls-1" x="414" y="305.49" width="1.17" height="31.23" transform="translate(-105.63 387.2) rotate(-45)"/><rect class="cls-1" x="414.82" y="304.68" width="1.17" height="31.23" transform="translate(-104.81 387.54) rotate(-45)"/><rect class="cls-1" x="415.66" y="303.84" width="1.17" height="31.23" transform="translate(-103.98 387.9) rotate(-45)"/><rect class="cls-1" x="416.48" y="303.03" width="1.17" height="31.23" transform="translate(-103.16 388.24) rotate(-45)"/><rect class="cls-1" x="417.28" y="302.2" width="1.17" height="31.23" transform="translate(-102.34 388.56) rotate(-45)"/><rect class="cls-1" x="418.1" y="301.39" width="1.17" height="31.23" transform="translate(-101.53 388.9) rotate(-45)"/><rect class="cls-1" x="418.92" y="300.56" width="1.17" height="31.23" transform="translate(-100.7 389.24) rotate(-45)"/><rect class="cls-1" x="419.75" y="299.73" width="1.17" height="31.23" transform="translate(-99.87 389.59) rotate(-45)"/><rect class="cls-1" x="420.6" y="298.92" width="1.17" height="31.23" transform="translate(-99.05 389.94) rotate(-45)"/><rect class="cls-1" x="421.42" y="298.08" width="1.17" height="31.23" transform="translate(-98.22 390.28) rotate(-45)"/><rect class="cls-1" x="422.23" y="297.27" width="1.17" height="31.23" transform="translate(-97.41 390.62) rotate(-45)"/><rect class="cls-1" x="423.04" y="296.44" width="1.17" height="31.23" transform="translate(-96.59 390.94) rotate(-45)"/><rect class="cls-1" x="423.85" y="295.63" width="1.17" height="31.23" transform="translate(-95.77 391.29) rotate(-45)"/><rect class="cls-1" x="424.67" y="294.8" width="1.17" height="31.23" transform="translate(-94.94 391.62) rotate(-45)"/><rect class="cls-1" x="425.51" y="293.97" width="1.17" height="31.23" transform="translate(-94.11 391.97) rotate(-45)"/><rect class="cls-1" x="426.35" y="293.16" width="1.17" height="31.23" transform="translate(-93.29 392.33) rotate(-45)"/><rect class="cls-1" x="427.17" y="292.35" width="1.17" height="31.23" transform="translate(-92.48 392.67) rotate(-45)"/><rect class="cls-1" x="427.97" y="291.5" width="1.17" height="31.23" transform="translate(-91.64 392.99) rotate(-45)"/><rect class="cls-1" x="428.79" y="290.69" width="1.17" height="31.23" transform="translate(-90.83 393.33) rotate(-45)"/><rect class="cls-1" x="429.61" y="289.88" width="1.17" height="31.23" transform="translate(-90.02 393.67) rotate(-45)"/><rect class="cls-1" x="430.43" y="289.07" width="1.17" height="31.23" transform="translate(-89.2 394.01) rotate(-45)"/><rect class="cls-1" x="431.26" y="288.21" width="1.17" height="31.23" transform="translate(-88.36 394.35) rotate(-45)"/><rect class="cls-1" x="432.11" y="287.4" width="1.17" height="31.23" transform="translate(-87.54 394.71) rotate(-45)"/><rect class="cls-1" x="432.93" y="286.59" width="1.17" height="31.23" transform="translate(-86.72 395.05) rotate(-45)"/><rect class="cls-1" x="433.73" y="285.74" width="1.17" height="31.23" transform="translate(-85.88 395.37) rotate(-45)"/><rect class="cls-1" x="434.55" y="284.93" width="1.17" height="31.23" transform="translate(-85.07 395.71) rotate(-45)"/><rect class="cls-1" x="435.36" y="284.12" width="1.17" height="31.23" transform="translate(-84.26 396.05) rotate(-45)"/><polygon class="cls-1" points="425.32 288.28 426.14 287.46 447.57 308.87 447.57 310.21 447.43 310.36 425.32 288.28"/><polygon class="cls-1" points="426.14 287.46 426.56 287.04 427.38 287.04 447.57 307.23 447.57 308.87 426.14 287.46"/><polygon class="cls-1" points="429.02 287.04 447.57 305.59 447.57 307.23 427.38 287.04 429.02 287.04"/><polygon class="cls-1" points="430.66 287.04 447.57 303.93 447.57 305.59 429.02 287.04 430.66 287.04"/><polygon class="cls-1" points="432.32 287.04 447.57 302.29 447.57 303.93 430.66 287.04 432.32 287.04"/><polygon class="cls-1" points="433.95 287.04 447.57 300.66 447.57 302.29 432.32 287.04 433.95 287.04"/><polygon class="cls-1" points="435.59 287.04 447.57 299.02 447.57 300.66 433.95 287.04 435.59 287.04"/><polygon class="cls-1" points="437.23 287.04 447.57 297.36 447.57 299.02 435.59 287.04 437.23 287.04"/><polygon class="cls-1" points="438.89 287.04 447.57 295.72 447.57 297.36 437.23 287.04 438.89 287.04"/><polygon class="cls-1" points="440.53 287.04 447.57 294.08 447.57 295.72 438.89 287.04 440.53 287.04"/><polygon class="cls-1" points="442.17 287.04 447.57 292.42 447.57 294.08 440.53 287.04 442.17 287.04"/><polygon class="cls-1" points="443.83 287.04 447.57 290.78 447.57 292.42 442.17 287.04 443.83 287.04"/><polygon class="cls-1" points="445.47 287.04 447.57 289.15 447.57 290.78 443.83 287.04 445.47 287.04"/><polygon class="cls-1" points="447.1 287.04 447.57 287.48 447.57 289.15 445.47 287.04 447.1 287.04"/><polygon class="cls-1" points="447.57 287.48 447.1 287.04 447.57 287.04 447.57 287.48"/><polygon class="cls-1" points="375.61 470.44 377.39 472.23 375.73 472.23 375.61 472.11 375.61 470.44"/><polygon class="cls-1" points="375.61 468.81 379.03 472.23 377.39 472.23 375.61 470.44 375.61 468.81"/><polygon class="cls-1" points="375.61 467.17 380.67 472.23 379.03 472.23 375.61 468.81 375.61 467.17"/><polygon class="cls-1" points="375.61 465.51 382.31 472.23 380.67 472.23 375.61 467.17 375.61 465.51"/><polygon class="cls-1" points="375.61 463.87 383.97 472.23 382.31 472.23 375.61 465.51 375.61 463.87"/><polygon class="cls-1" points="375.61 462.23 385.6 472.23 383.97 472.23 375.61 463.87 375.61 462.23"/><polygon class="cls-1" points="375.61 460.57 387.24 472.23 385.6 472.23 375.61 462.23 375.61 460.57"/><polygon class="cls-1" points="375.61 458.93 388.9 472.23 387.24 472.23 375.61 460.57 375.61 458.93"/><polygon class="cls-1" points="375.61 457.3 390.54 472.23 388.9 472.23 375.61 458.93 375.61 457.3"/><polygon class="cls-1" points="375.61 455.66 392.18 472.23 390.54 472.23 375.61 457.3 375.61 455.66"/><polygon class="cls-1" points="375.61 454 393.84 472.23 392.18 472.23 375.61 455.63 375.61 454"/><polygon class="cls-1" points="375.61 452.36 395.48 472.23 393.84 472.23 375.61 454 375.61 452.36"/><polygon class="cls-1" points="375.61 450.72 397.12 472.23 395.48 472.23 375.61 452.36 375.61 450.72"/><polygon class="cls-1" points="375.61 449.06 398.78 472.23 397.12 472.23 375.61 450.72 375.61 449.06"/><polygon class="cls-1" points="375.61 447.42 400.42 472.23 398.78 472.23 375.61 449.06 375.61 447.42"/><polygon class="cls-1" points="375.61 445.78 402.05 472.23 400.42 472.23 375.61 447.42 375.61 445.78"/><polygon class="cls-1" points="375.61 444.12 403.69 472.23 402.05 472.23 375.61 445.78 375.61 444.12"/><polygon class="cls-1" points="375.61 442.48 405.35 472.23 403.69 472.23 375.61 444.12 375.61 442.48"/><polygon class="cls-1" points="375.61 440.85 406.99 472.23 405.35 472.23 375.61 442.48 375.61 440.85"/><polygon class="cls-1" points="375.61 439.21 408.63 472.23 406.99 472.23 375.61 440.85 375.61 439.21"/><polygon class="cls-1" points="375.61 437.55 410.29 472.23 408.63 472.23 375.61 439.19 375.61 437.55"/><polygon class="cls-1" points="375.61 435.91 411.93 472.23 410.29 472.23 375.61 437.55 375.61 435.91"/><polygon class="cls-1" points="375.61 434.27 413.56 472.23 411.93 472.23 375.61 435.91 375.61 434.27"/><polygon class="cls-1" points="375.61 432.61 415.2 472.23 413.56 472.23 375.61 434.27 375.61 432.61"/><polygon class="cls-1" points="375.61 430.97 416.86 472.23 415.2 472.23 375.61 432.61 375.61 430.97"/><polygon class="cls-1" points="375.61 429.34 418.5 472.23 416.86 472.23 375.61 430.97 375.61 429.34"/><polygon class="cls-1" points="375.61 427.67 420.14 472.23 418.5 472.23 375.61 429.34 375.61 427.67"/><polygon class="cls-1" points="375.61 426.04 421.8 472.23 420.14 472.23 375.61 427.67 375.61 426.04"/><polygon class="cls-1" points="375.61 424.4 423.44 472.23 421.8 472.23 375.61 426.04 375.61 424.4"/><polygon class="cls-1" points="375.61 422.76 425.07 472.23 423.44 472.23 375.61 424.4 375.61 422.76"/><polygon class="cls-1" points="375.61 421.1 426.74 472.23 425.07 472.23 375.61 422.76 375.61 421.1"/><polygon class="cls-1" points="375.61 419.46 428.37 472.23 426.74 472.23 375.61 421.1 375.61 419.46"/><polygon class="cls-1" points="375.61 417.82 430.01 472.23 428.37 472.23 375.61 419.46 375.61 417.82"/><polygon class="cls-1" points="375.61 416.16 431.65 472.23 430.01 472.23 375.61 417.82 375.61 416.16"/><polygon class="cls-1" points="375.61 414.53 433.31 472.23 431.65 472.23 375.61 416.16 375.61 414.53"/><polygon class="cls-1" points="375.61 412.89 434.95 472.23 433.31 472.23 375.61 414.53 375.61 412.89"/><polygon class="cls-1" points="375.61 411.25 436.58 472.23 434.95 472.23 375.61 412.89 375.61 411.25"/><polygon class="cls-1" points="375.61 409.59 438.25 472.23 436.58 472.23 375.61 411.25 375.61 409.59"/><polygon class="cls-1" points="375.61 407.95 439.88 472.23 438.25 472.23 375.61 409.59 375.61 407.95"/><polygon class="cls-1" points="375.61 406.31 441.52 472.23 439.88 472.23 375.61 407.95 375.61 406.31"/><polygon class="cls-1" points="375.61 404.65 443.16 472.23 441.52 472.23 375.61 406.31 375.61 404.65"/><polygon class="cls-1" points="375.61 403.01 444.82 472.23 443.16 472.23 375.61 404.65 375.61 403.01"/><polygon class="cls-1" points="375.61 401.38 446.46 472.23 444.82 472.23 375.61 403.01 375.61 401.38"/><polygon class="cls-1" points="375.61 399.74 448.1 472.23 446.46 472.23 375.61 401.38 375.61 399.74"/><polygon class="cls-1" points="375.61 398.08 449.76 472.23 448.1 472.23 375.61 399.71 375.61 398.08"/><polygon class="cls-1" points="375.61 396.44 451.39 472.23 449.76 472.23 375.61 398.08 375.61 396.44"/><polygon class="cls-1" points="375.61 394.8 453.03 472.23 451.39 472.23 375.61 396.44 375.61 394.8"/><polygon class="cls-1" points="375.61 393.14 454.69 472.23 453.03 472.23 375.61 394.8 375.61 393.14"/><polygon class="cls-1" points="375.61 391.5 456.33 472.23 454.69 472.23 375.61 393.14 375.61 391.5"/><polygon class="cls-1" points="375.61 389.87 457.97 472.23 456.33 472.23 375.61 391.5 375.61 389.87"/><polygon class="cls-1" points="375.61 388.2 459.61 472.23 457.97 472.23 375.61 389.87 375.61 388.2"/><polygon class="cls-1" points="375.61 386.57 461.27 472.23 459.61 472.23 375.61 388.2 375.61 386.57"/><polygon class="cls-1" points="375.61 384.93 462.91 472.23 461.27 472.23 375.61 386.57 375.61 384.93"/><polygon class="cls-1" points="375.61 383.27 464.54 472.23 462.91 472.23 375.61 384.93 375.61 383.27"/><polygon class="cls-1" points="375.61 381.63 466.21 472.23 464.54 472.23 375.61 383.27 375.61 381.63"/><polygon class="cls-1" points="375.61 379.99 467.84 472.23 466.21 472.23 375.61 381.63 375.61 379.99"/><polygon class="cls-1" points="375.61 378.36 469.48 472.23 467.84 472.23 375.61 379.99 375.61 378.36"/><polygon class="cls-1" points="375.61 376.69 471.14 472.23 469.48 472.23 375.61 378.33 375.61 376.69"/><polygon class="cls-1" points="375.61 375.06 472.78 472.23 471.14 472.23 375.61 376.69 375.61 375.06"/><polygon class="cls-1" points="375.61 373.42 474.42 472.23 472.78 472.23 375.61 375.06 375.61 373.42"/><polygon class="cls-1" points="375.61 371.76 476.08 472.23 474.42 472.23 375.61 373.42 375.61 371.76"/><polygon class="cls-1" points="375.61 370.12 477.72 472.23 476.08 472.23 375.61 371.76 375.61 370.12"/><polygon class="cls-1" points="375.61 368.48 479.35 472.23 477.72 472.23 375.61 370.12 375.61 368.48"/><polygon class="cls-1" points="375.61 366.82 480.99 472.23 479.35 472.23 375.61 368.48 375.61 366.82"/><polygon class="cls-1" points="375.61 365.18 482.65 472.23 480.99 472.23 375.61 366.82 375.61 365.18"/><polygon class="cls-1" points="375.61 363.55 484.29 472.23 482.65 472.23 375.61 365.18 375.61 363.55"/><polygon class="cls-1" points="375.61 361.91 485.93 472.23 484.29 472.23 375.61 363.55 375.61 361.91"/><polygon class="cls-1" points="375.61 360.25 487.59 472.23 485.93 472.23 375.61 361.91 375.61 360.25"/><polygon class="cls-1" points="375.61 358.61 489.23 472.23 487.59 472.23 375.61 360.25 375.61 358.61"/><polygon class="cls-1" points="375.61 356.97 490.87 472.23 489.23 472.23 375.61 358.61 375.61 356.97"/><polygon class="cls-1" points="375.61 355.31 492.53 472.23 490.87 472.23 375.61 356.97 375.61 355.31"/><polygon class="cls-1" points="375.61 353.67 494.17 472.23 492.53 472.23 375.61 355.31 375.61 353.67"/><polygon class="cls-1" points="375.61 352.03 495.8 472.23 494.17 472.23 375.61 353.67 375.61 352.03"/><polygon class="cls-1" points="375.61 350.4 497.44 472.23 495.8 472.23 375.61 352.03 375.61 350.4"/><polygon class="cls-1" points="375.61 348.74 499.1 472.23 497.44 472.23 375.61 350.4 375.61 348.74"/><polygon class="cls-1" points="375.61 347.1 500.74 472.23 499.1 472.23 375.61 348.74 375.61 347.1"/><polygon class="cls-1" points="375.61 345.46 502.38 472.23 500.74 472.23 375.61 347.1 375.61 345.46"/><polygon class="cls-1" points="375.61 343.8 504.01 472.23 502.38 472.23 375.61 345.46 375.61 343.8"/><polygon class="cls-1" points="375.61 342.16 505.68 472.23 504.01 472.23 375.61 343.8 375.61 342.16"/><polygon class="cls-1" points="375.61 340.52 507.31 472.23 505.68 472.23 375.61 342.16 375.61 340.52"/><polygon class="cls-1" points="375.61 338.86 508.95 472.23 507.31 472.23 375.61 340.52 375.61 338.86"/><polygon class="cls-1" points="375.61 337.22 510.61 472.23 508.95 472.23 375.61 338.86 375.61 337.22"/><polygon class="cls-1" points="375.61 335.59 512.25 472.23 510.61 472.23 375.61 337.22 375.61 335.59"/><polygon class="cls-1" points="375.61 333.92 513.89 472.23 512.25 472.23 375.61 335.59 375.61 333.92"/><polygon class="cls-1" points="375.61 332.29 515.52 472.23 513.89 472.23 375.61 333.92 375.61 332.29"/><polygon class="cls-1" points="375.61 330.65 517.19 472.23 515.52 472.23 375.61 332.29 375.61 330.65"/><polygon class="cls-1" points="375.61 329.01 518.82 472.23 517.19 472.23 375.61 330.65 375.61 329.01"/><polygon class="cls-1" points="375.61 327.35 520.46 472.23 518.82 472.23 375.61 329.01 375.61 327.35"/><polygon class="cls-1" points="375.61 325.71 522.12 472.23 520.46 472.23 375.61 327.35 375.61 325.71"/><polygon class="cls-1" points="375.61 324.08 523.22 471.71 522.69 472.23 522.12 472.23 375.61 325.71 375.61 324.08"/><polygon class="cls-1" points="375.61 323.33 376.05 322.86 524.06 470.87 523.22 471.71 375.61 324.08 375.61 323.33"/><rect class="cls-1" x="449.87" y="291.79" width="1.17" height="209.31" transform="translate(-148.4 434.63) rotate(-45)"/><rect class="cls-1" x="450.69" y="290.98" width="1.17" height="209.31" transform="translate(-147.58 434.98) rotate(-45)"/><rect class="cls-1" x="451.51" y="290.17" width="1.17" height="209.31" transform="translate(-146.77 435.32) rotate(-45)"/><rect class="cls-1" x="452.35" y="289.34" width="1.17" height="209.31" transform="translate(-145.93 435.67) rotate(-45)"/><rect class="cls-1" x="453.17" y="288.53" width="1.17" height="209.31" transform="translate(-145.12 436.01) rotate(-45)"/><rect class="cls-1" x="454" y="287.7" width="1.17" height="209.31" transform="translate(-144.29 436.36) rotate(-45)"/><rect class="cls-1" x="454.81" y="286.87" width="1.17" height="209.31" transform="translate(-143.47 436.68) rotate(-45)"/><rect class="cls-1" x="455.62" y="286.04" width="1.17" height="209.31" transform="translate(-142.64 437.02) rotate(-45)"/><rect class="cls-1" x="456.44" y="285.22" width="1.17" height="209.31" transform="translate(-141.83 437.36) rotate(-45)"/><rect class="cls-1" x="457.29" y="284.41" width="1.17" height="209.31" transform="translate(-141.01 437.72) rotate(-45)"/><rect class="cls-1" x="458.11" y="283.6" width="1.17" height="209.31" transform="translate(-140.19 438.06) rotate(-45)"/><rect class="cls-1" x="458.92" y="282.77" width="1.17" height="209.31" transform="translate(-139.36 438.39) rotate(-45)"/><rect class="cls-1" x="459.76" y="281.94" width="1.17" height="209.31" transform="translate(-138.53 438.74) rotate(-45)"/><rect class="cls-1" x="460.56" y="281.11" width="1.17" height="209.31" transform="translate(-137.71 439.07) rotate(-45)"/><rect class="cls-1" x="461.38" y="280.28" width="1.17" height="209.31" transform="translate(-136.88 439.4) rotate(-45)"/><rect class="cls-1" x="462.2" y="279.47" width="1.17" height="209.31" transform="translate(-136.07 439.74) rotate(-45)"/><rect class="cls-1" x="463.04" y="278.66" width="1.17" height="209.31" transform="translate(-135.25 440.1) rotate(-45)"/><rect class="cls-1" x="463.86" y="277.85" width="1.17" height="209.31" transform="translate(-134.44 440.44) rotate(-45)"/><rect class="cls-1" x="464.68" y="277.01" width="1.17" height="209.31" transform="translate(-133.6 440.78) rotate(-45)"/><rect class="cls-1" x="465.52" y="276.18" width="1.17" height="209.31" transform="translate(-132.77 441.13) rotate(-45)"/><rect class="cls-1" x="466.32" y="275.35" width="1.17" height="209.31" transform="translate(-131.95 441.45) rotate(-45)"/><rect class="cls-1" x="467.14" y="274.54" width="1.17" height="209.31" transform="translate(-131.14 441.79) rotate(-45)"/><rect class="cls-1" x="467.95" y="273.71" width="1.17" height="209.31" transform="translate(-130.31 442.13) rotate(-45)"/><rect class="cls-1" x="468.8" y="272.9" width="1.17" height="209.31" transform="translate(-129.49 442.48) rotate(-45)"/><rect class="cls-1" x="469.62" y="272.09" width="1.17" height="209.31" transform="translate(-128.68 442.83) rotate(-45)"/><rect class="cls-1" x="470.43" y="271.25" width="1.17" height="209.31" transform="translate(-127.85 443.16) rotate(-45)"/><rect class="cls-1" x="471.25" y="270.41" width="1.17" height="209.31" transform="translate(-127.01 443.49) rotate(-45)"/><rect class="cls-1" x="472.07" y="269.6" width="1.17" height="209.31" transform="translate(-126.2 443.83) rotate(-45)"/><rect class="cls-1" x="472.89" y="268.79" width="1.17" height="209.31" transform="translate(-125.38 444.17) rotate(-45)"/><rect class="cls-1" x="473.71" y="267.95" width="1.17" height="209.31" transform="translate(-124.55 444.51) rotate(-45)"/><rect class="cls-1" x="474.55" y="267.14" width="1.17" height="209.31" transform="translate(-123.73 444.87) rotate(-45)"/><rect class="cls-1" x="475.37" y="266.33" width="1.17" height="209.31" transform="translate(-122.92 445.21) rotate(-45)"/><rect class="cls-1" x="476.21" y="265.5" width="1.17" height="209.31" transform="translate(-122.09 445.56) rotate(-45)"/><rect class="cls-1" x="477.01" y="264.65" width="1.17" height="209.31" transform="translate(-121.25 445.87) rotate(-45)"/><rect class="cls-1" x="477.83" y="263.84" width="1.17" height="209.31" transform="translate(-120.44 446.22) rotate(-45)"/><rect class="cls-1" x="478.65" y="263.03" width="1.17" height="209.31" transform="translate(-119.63 446.56) rotate(-45)"/><rect class="cls-1" x="479.49" y="262.19" width="1.17" height="209.31" transform="translate(-118.79 446.91) rotate(-45)"/><rect class="cls-1" x="480.31" y="261.38" width="1.17" height="209.31" transform="translate(-117.98 447.25) rotate(-45)"/><rect class="cls-1" x="481.13" y="260.57" width="1.17" height="209.31" transform="translate(-117.16 447.59) rotate(-45)"/><rect class="cls-1" x="481.96" y="259.74" width="1.17" height="209.31" transform="translate(-116.33 447.94) rotate(-45)"/><rect class="cls-1" x="482.76" y="258.89" width="1.17" height="209.31" transform="translate(-115.5 448.26) rotate(-45)"/><rect class="cls-1" x="483.58" y="258.08" width="1.17" height="209.31" transform="translate(-114.68 448.6) rotate(-45)"/><rect class="cls-1" x="484.4" y="257.27" width="1.17" height="209.31" transform="translate(-113.87 448.94) rotate(-45)"/><rect class="cls-1" x="485.25" y="256.46" width="1.17" height="209.31" transform="translate(-113.05 449.3) rotate(-45)"/><rect class="cls-1" x="486.06" y="255.62" width="1.17" height="209.31" transform="translate(-112.22 449.63) rotate(-45)"/><rect class="cls-1" x="486.88" y="254.81" width="1.17" height="209.31" transform="translate(-111.41 449.98) rotate(-45)"/><rect class="cls-1" x="487.72" y="253.99" width="1.17" height="209.31" transform="translate(-110.58 450.32) rotate(-45)"/><rect class="cls-1" x="488.52" y="253.16" width="1.17" height="209.31" transform="translate(-109.76 450.65) rotate(-45)"/><rect class="cls-1" x="489.34" y="252.32" width="1.17" height="209.31" transform="translate(-108.93 450.98) rotate(-45)"/><rect class="cls-1" x="490.16" y="251.51" width="1.17" height="209.31" transform="translate(-108.11 451.32) rotate(-45)"/><rect class="cls-1" x="491" y="250.7" width="1.17" height="209.31" transform="translate(-107.29 451.68) rotate(-45)"/><rect class="cls-1" x="491.82" y="249.87" width="1.17" height="209.31" transform="translate(-106.46 452.02) rotate(-45)"/><rect class="cls-1" x="492.66" y="249.04" width="1.17" height="209.31" transform="translate(-105.63 452.37) rotate(-45)"/><rect class="cls-1" x="493.46" y="248.21" width="1.17" height="209.31" transform="translate(-104.81 452.69) rotate(-45)"/><rect class="cls-1" x="494.28" y="247.4" width="1.17" height="209.31" transform="translate(-104 453.03) rotate(-45)"/><rect class="cls-1" x="495.09" y="246.57" width="1.17" height="209.31" transform="translate(-103.17 453.37) rotate(-45)"/><rect class="cls-1" x="495.91" y="245.75" width="1.17" height="209.31" transform="translate(-102.36 453.71) rotate(-45)"/><rect class="cls-1" x="496.76" y="244.94" width="1.17" height="209.31" transform="translate(-101.54 454.07) rotate(-45)"/><polygon class="cls-1" points="423.73 275.18 423.76 275.15 425.37 275.15 572.56 422.37 571.74 423.18 423.73 275.18"/><polygon class="cls-1" points="427.01 275.15 573.4 421.55 572.56 422.37 425.37 275.15 427.01 275.15"/><polygon class="cls-1" points="428.65 275.15 574.22 420.7 573.4 421.55 427.01 275.15 428.65 275.15"/><polygon class="cls-1" points="430.31 275.15 575.04 419.88 574.22 420.7 428.65 275.15 430.31 275.15"/><polygon class="cls-1" points="431.95 275.15 575.86 419.07 575.04 419.88 430.31 275.15 431.95 275.15"/><polygon class="cls-1" points="433.58 275.15 576.68 418.25 575.86 419.07 431.95 275.15 433.58 275.15"/><polygon class="cls-1" points="435.25 275.15 577.5 417.43 576.68 418.25 433.58 275.15 435.25 275.15"/><polygon class="cls-1" points="436.88 275.15 578.31 416.61 577.5 417.43 435.25 275.15 436.88 275.15"/><polygon class="cls-1" points="438.52 275.15 579.16 415.79 578.34 416.61 436.88 275.15 438.52 275.15"/><polygon class="cls-1" points="440.16 275.15 579.98 414.95 579.16 415.79 438.52 275.15 440.16 275.15"/><polygon class="cls-1" points="441.82 275.15 580.79 414.13 579.98 414.95 440.16 275.15 441.82 275.15"/><polygon class="cls-1" points="443.46 275.15 581.61 413.31 580.79 414.13 441.82 275.15 443.46 275.15"/><polygon class="cls-1" points="445.09 275.15 582.43 412.49 581.61 413.31 443.46 275.15 445.09 275.15"/><polygon class="cls-1" points="446.76 275.15 583.25 411.67 582.43 412.49 445.09 275.15 446.76 275.15"/><polygon class="cls-1" points="448.39 275.15 584.07 410.85 583.25 411.67 446.76 275.15 448.39 275.15"/><polygon class="cls-1" points="450.03 275.15 584.91 410.01 584.09 410.85 448.39 275.15 450.03 275.15"/><polygon class="cls-1" points="451.67 275.15 585.73 409.19 584.91 410.01 450.03 275.15 451.67 275.15"/><polygon class="cls-1" points="453.33 275.15 586.55 408.37 585.73 409.19 451.67 275.15 453.33 275.15"/><polygon class="cls-1" points="454.97 275.15 587.37 407.56 586.55 408.37 453.33 275.15 454.97 275.15"/><polygon class="cls-1" points="456.61 275.15 588.19 406.74 587.37 407.56 454.97 275.15 456.61 275.15"/><polygon class="cls-1" points="458.27 275.15 589.01 405.92 588.19 406.74 456.61 275.15 458.27 275.15"/><polygon class="cls-1" points="459.9 275.15 589.85 405.1 589.01 405.92 458.27 275.15 459.9 275.15"/><polygon class="cls-1" points="461.54 275.15 590.67 404.25 589.82 405.1 459.9 275.15 461.54 275.15"/><polygon class="cls-1" points="463.2 275.15 591.49 403.44 590.67 404.25 461.54 275.15 463.2 275.15"/><polygon class="cls-1" points="464.84 275.15 592.3 402.62 591.49 403.44 463.2 275.15 464.84 275.15"/><polygon class="cls-1" points="466.48 275.15 593.12 401.8 592.3 402.62 464.84 275.15 466.48 275.15"/><polygon class="cls-1" points="468.12 275.15 593.94 400.98 593.12 401.8 466.48 275.15 468.12 275.15"/><polygon class="cls-1" points="469.78 275.15 594.79 400.16 593.94 400.98 468.12 275.15 469.78 275.15"/><polygon class="cls-1" points="471.42 275.15 595.61 399.34 594.76 400.16 469.78 275.15 471.42 275.15"/><polygon class="cls-1" points="473.05 275.15 596.42 398.5 595.61 399.34 471.42 275.15 473.05 275.15"/><polygon class="cls-1" points="474.71 275.15 597.24 397.68 596.42 398.5 473.05 275.15 474.71 275.15"/><polygon class="cls-1" points="476.35 275.15 598.06 396.86 597.24 397.68 474.71 275.15 476.35 275.15"/><polygon class="cls-1" points="477.99 275.15 598.88 396.04 598.06 396.86 476.35 275.15 477.99 275.15"/><polygon class="cls-1" points="479.63 275.15 599.7 395.23 598.88 396.04 477.99 275.15 479.63 275.15"/><polygon class="cls-1" points="481.29 275.15 600.52 394.41 599.7 395.23 479.65 275.15 481.29 275.15"/><polygon class="cls-1" points="482.93 275.15 601.34 393.56 600.52 394.41 481.29 275.15 482.93 275.15"/><polygon class="cls-1" points="484.56 275.15 602.18 392.74 601.36 393.56 482.93 275.15 484.56 275.15"/><polygon class="cls-1" points="486.23 275.15 603 391.93 602.18 392.74 484.59 275.15 486.23 275.15"/><polygon class="cls-1" points="487.86 275.15 603.82 391.11 603 391.93 486.23 275.15 487.86 275.15"/><polygon class="cls-1" points="489.5 275.15 604.63 390.29 603.82 391.11 487.86 275.15 489.5 275.15"/><polygon class="cls-1" points="491.16 275.15 605.45 389.47 604.63 390.29 489.5 275.15 491.16 275.15"/><polygon class="cls-1" points="492.8 275.15 606.27 388.65 605.45 389.47 491.16 275.15 492.8 275.15"/><polygon class="cls-1" points="494.44 275.15 607.12 387.83 606.3 388.65 492.8 275.15 494.44 275.15"/><polygon class="cls-1" points="496.1 275.15 607.93 386.99 607.12 387.83 494.44 275.15 496.1 275.15"/><polygon class="cls-1" points="497.74 275.15 608.75 386.17 607.93 386.99 496.1 275.15 497.74 275.15"/><polygon class="cls-1" points="499.37 275.15 609.57 385.35 608.75 386.17 497.74 275.15 499.37 275.15"/><polygon class="cls-1" points="501.01 275.15 610.39 384.53 609.57 385.35 499.37 275.15 501.01 275.15"/><polygon class="cls-1" points="502.67 275.15 611.21 383.71 610.39 384.53 501.04 275.15 502.67 275.15"/><polygon class="cls-1" points="504.31 275.15 612.05 382.89 611.21 383.71 502.67 275.15 504.31 275.15"/><polygon class="cls-1" points="505.95 275.15 612.87 382.05 612.05 382.89 504.31 275.15 505.95 275.15"/><polygon class="cls-1" points="507.61 275.15 613.69 381.23 612.87 382.05 505.95 275.15 507.61 275.15"/><polygon class="cls-1" points="509.25 275.15 614.51 380.42 613.69 381.23 507.61 275.15 509.25 275.15"/><polygon class="cls-1" points="529.94 275.15 624.48 369.72 624.48 370.44 614.51 380.42 509.25 275.15 529.94 275.15"/><polygon class="cls-1" points="550.63 275.15 624.48 349.03 624.48 369.72 529.94 275.15 550.63 275.15"/><polygon class="cls-1" points="571.29 275.15 624.48 328.34 624.48 349.03 550.63 275.15 571.29 275.15"/><polygon class="cls-1" points="591.98 275.15 624.48 307.65 624.48 328.34 571.29 275.15 591.98 275.15"/><polygon class="cls-1" points="612.67 275.15 624.48 286.96 624.48 307.65 591.98 275.15 612.67 275.15"/><polygon class="cls-1" points="624.48 286.96 612.67 275.15 624.48 275.15 624.48 286.96"/></g><path class="cls-1" d="M556,242.93l-33.17,33.19a5,5,0,0,0,7,6.9l33.07-33.22a5,5,0,0,0-6.87-6.87"/><path class="cls-1" d="M556,242.93l-33.17,33.19a5,5,0,0,0,7,6.9l33.07-33.22a5,5,0,0,0-6.87-6.87"/><g class="cls-3"><polygon class="cls-1" points="520.93 283.91 521.43 284.41 520.93 284.41 520.93 283.91"/><polygon class="cls-1" points="520.93 276.64 527.61 269.97 535.84 278.2 529.66 284.41 521.43 284.41 520.93 283.91 520.93 276.64"/><rect class="cls-1" x="529.57" y="263.1" width="14.59" height="11.66" transform="translate(-32.92 458.39) rotate(-45)"/><rect class="cls-1" x="539.91" y="252.79" width="14.59" height="11.66" transform="translate(-22.6 462.68) rotate(-45)"/><polygon class="cls-1" points="548.22 249.35 556.53 241.04 560.53 241.04 564.79 245.28 564.79 249.28 556.46 257.59 548.22 249.35"/><polygon class="cls-1" points="564.79 245.28 560.53 241.04 564.79 241.04 564.79 245.28"/></g><path class="cls-1" d="M437.21,242.93a5,5,0,0,0,0,6.87L470.4,283a5,5,0,0,0,6.85-6.87l-33.17-33.22a5,5,0,0,0-6.87,0"/><path class="cls-1" d="M437.21,242.93a5,5,0,0,0,0,6.87L470.4,283a5,5,0,0,0,6.85-6.87l-33.17-33.22a5,5,0,0,0-6.87,0"/><g class="cls-4"><polygon class="cls-1" points="435.32 283.34 436.39 284.41 435.32 284.41 435.32 283.34"/><polygon class="cls-1" points="435.32 282.03 437.7 284.41 436.39 284.41 435.32 283.34 435.32 282.03"/><polygon class="cls-1" points="435.32 280.71 439.02 284.41 437.7 284.41 435.32 282.03 435.32 280.71"/><polygon class="cls-1" points="435.32 279.4 440.33 284.41 439.02 284.41 435.32 280.71 435.32 279.4"/><polygon class="cls-1" points="435.32 278.08 441.62 284.41 440.33 284.41 435.32 279.4 435.32 278.08"/><polygon class="cls-1" points="435.32 276.77 442.94 284.41 441.62 284.41 435.32 278.08 435.32 276.77"/><polygon class="cls-1" points="435.32 275.45 444.25 284.41 442.94 284.41 435.32 276.77 435.32 275.45"/><polygon class="cls-1" points="435.32 274.16 445.57 284.41 444.25 284.41 435.32 275.45 435.32 274.16"/><polygon class="cls-1" points="435.32 272.85 446.88 284.41 445.57 284.41 435.32 274.16 435.32 272.85"/><polygon class="cls-1" points="435.32 271.53 448.19 284.41 446.88 284.41 435.32 272.85 435.32 271.53"/><polygon class="cls-1" points="435.32 270.22 449.51 284.41 448.19 284.41 435.32 271.53 435.32 270.22"/><polygon class="cls-1" points="435.32 268.9 450.82 284.41 449.51 284.41 435.32 270.22 435.32 268.9"/><polygon class="cls-1" points="435.32 267.59 452.12 284.41 450.82 284.41 435.32 268.9 435.32 267.59"/><polygon class="cls-1" points="435.32 266.27 453.43 284.41 452.12 284.41 435.32 267.59 435.32 266.27"/><polygon class="cls-1" points="435.32 264.96 454.75 284.41 453.43 284.41 435.32 266.27 435.32 264.96"/><polygon class="cls-1" points="435.32 263.67 456.06 284.41 454.75 284.41 435.32 264.96 435.32 263.67"/><polygon class="cls-1" points="435.32 262.35 457.37 284.41 456.06 284.41 435.32 263.67 435.32 262.35"/><polygon class="cls-1" points="435.32 261.04 458.69 284.41 457.37 284.41 435.32 262.35 435.32 261.04"/><polygon class="cls-1" points="435.32 259.72 460 284.41 458.69 284.41 435.32 261.04 435.32 259.72"/><polygon class="cls-1" points="435.32 258.41 461.32 284.41 460 284.41 435.32 259.72 435.32 258.41"/><polygon class="cls-1" points="435.32 257.09 462.61 284.41 461.32 284.41 435.32 258.41 435.32 257.09"/><polygon class="cls-1" points="435.32 255.78 463.92 284.41 462.61 284.41 435.32 257.09 435.32 255.78"/><polygon class="cls-1" points="435.32 254.46 465.24 284.41 463.92 284.41 435.32 255.78 435.32 254.46"/><polygon class="cls-1" points="435.32 253.15 466.55 284.41 465.24 284.41 435.32 254.46 435.32 253.15"/><polygon class="cls-1" points="435.32 251.86 467.87 284.41 466.55 284.41 435.32 253.17 435.32 251.86"/><polygon class="cls-1" points="435.32 250.54 469.18 284.41 467.87 284.41 435.32 251.86 435.32 250.54"/><polygon class="cls-1" points="435.32 249.23 470.5 284.41 469.18 284.41 435.32 250.54 435.32 249.23"/><polygon class="cls-1" points="435.32 247.91 471.81 284.41 470.5 284.41 435.32 249.23 435.32 247.91"/><polygon class="cls-1" points="435.32 246.6 473.1 284.41 471.81 284.41 435.32 247.91 435.32 246.6"/><polygon class="cls-1" points="435.32 245.28 474.42 284.41 473.1 284.41 435.32 246.6 435.32 245.28"/><polygon class="cls-1" points="435.32 243.97 475.73 284.41 474.42 284.41 435.32 245.28 435.32 243.97"/><polygon class="cls-1" points="435.32 243.45 435.72 243.05 477.05 284.41 475.73 284.41 435.32 243.97 435.32 243.45"/><polygon class="cls-1" points="435.69 243.05 436.36 242.41 477.79 283.84 477.22 284.41 477.05 284.41 435.69 243.05"/><rect class="cls-1" x="456.93" y="233.51" width="0.92" height="58.6" transform="translate(-51.87 400.4) rotate(-45)"/><rect class="cls-1" x="457.6" y="232.84" width="0.92" height="58.6" transform="translate(-51.19 400.68) rotate(-45)"/><polygon class="cls-1" points="437.68 241.09 437.73 241.04 438.92 241.04 479.16 281.28 479.16 282.45 479.11 282.52 437.68 241.09"/><polygon class="cls-1" points="440.23 241.04 479.16 279.97 479.16 281.28 438.92 241.04 440.23 241.04"/><polygon class="cls-1" points="441.55 241.04 479.16 278.65 479.16 279.97 440.23 241.04 441.55 241.04"/><polygon class="cls-1" points="442.86 241.04 479.16 277.34 479.16 278.65 441.55 241.04 442.86 241.04"/><polygon class="cls-1" points="444.18 241.04 479.16 276.02 479.16 277.34 442.86 241.04 444.18 241.04"/><polygon class="cls-1" points="445.47 241.04 479.16 274.71 479.16 276.02 444.18 241.04 445.47 241.04"/><polygon class="cls-1" points="446.78 241.04 479.16 273.39 479.16 274.71 445.47 241.04 446.78 241.04"/><polygon class="cls-1" points="448.1 241.04 479.16 272.08 479.16 273.39 446.78 241.04 448.1 241.04"/><polygon class="cls-1" points="449.41 241.04 479.16 270.79 479.16 272.08 448.1 241.04 449.41 241.04"/><polygon class="cls-1" points="450.73 241.04 479.16 269.47 479.16 270.79 449.41 241.04 450.73 241.04"/><polygon class="cls-1" points="452.04 241.04 479.16 268.16 479.16 269.47 450.73 241.04 452.04 241.04"/><polygon class="cls-1" points="453.36 241.04 479.16 266.84 479.16 268.16 452.04 241.04 453.36 241.04"/><polygon class="cls-1" points="454.64 241.04 479.16 265.53 479.16 266.84 453.36 241.04 454.64 241.04"/><polygon class="cls-1" points="455.96 241.04 479.16 264.21 479.16 265.53 454.64 241.04 455.96 241.04"/><polygon class="cls-1" points="457.27 241.04 479.16 262.9 479.16 264.21 455.96 241.04 457.27 241.04"/><polygon class="cls-1" points="458.59 241.04 479.16 261.61 479.16 262.9 457.27 241.04 458.59 241.04"/><polygon class="cls-1" points="459.9 241.04 479.16 260.29 479.16 261.61 458.59 241.04 459.9 241.04"/><polygon class="cls-1" points="461.22 241.04 479.16 258.98 479.16 260.29 459.9 241.04 461.22 241.04"/><polygon class="cls-1" points="462.53 241.04 479.16 257.66 479.16 258.98 461.22 241.04 462.53 241.04"/><polygon class="cls-1" points="463.85 241.04 479.16 256.35 479.16 257.66 462.53 241.04 463.85 241.04"/><polygon class="cls-1" points="465.16 241.04 479.16 255.03 479.16 256.35 463.85 241.04 465.16 241.04"/><polygon class="cls-1" points="466.45 241.04 479.16 253.72 479.16 255.03 465.16 241.04 466.45 241.04"/><polygon class="cls-1" points="467.77 241.04 479.16 252.43 479.16 253.72 466.45 241.04 467.77 241.04"/><polygon class="cls-1" points="469.08 241.04 479.16 251.12 479.16 252.43 467.77 241.04 469.08 241.04"/><polygon class="cls-1" points="470.4 241.04 479.16 249.8 479.16 251.12 469.08 241.04 470.4 241.04"/><polygon class="cls-1" points="471.71 241.04 479.16 248.49 479.16 249.8 470.4 241.04 471.71 241.04"/><polygon class="cls-1" points="473.03 241.04 479.16 247.17 479.16 248.49 471.71 241.04 473.03 241.04"/><polygon class="cls-1" points="479.16 247.17 473.03 241.04 479.16 241.04 479.16 247.17"/></g><path class="cls-1" d="M495.08,252.08v27.47a5,5,0,0,0,9.73,0V252.08a5,5,0,0,0-9.73,0"/><path class="cls-1" d="M495.08,252.08v27.47a5,5,0,0,0,9.73,0V252.08a5,5,0,0,0-9.73,0"/><g class="cls-5"><polygon class="cls-1" points="495.18 283.12 496.5 284.41 495.18 284.41 495.18 283.12"/><polygon class="cls-1" points="495.18 281.41 498.18 284.41 496.5 284.41 495.18 283.12 495.18 281.41"/><polygon class="cls-1" points="495.18 279.72 499.89 284.41 498.18 284.41 495.18 281.41 495.18 279.72"/><polygon class="cls-1" points="495.18 278.01 501.58 284.41 499.89 284.41 495.18 279.72 495.18 278.01"/><polygon class="cls-1" points="495.18 276.32 503.27 284.41 501.58 284.41 495.18 278.01 495.18 276.32"/><polygon class="cls-1" points="495.18 274.61 504.53 283.96 504.09 284.41 503.27 284.41 495.18 276.32 495.18 274.61"/><polygon class="cls-1" points="495.18 272.92 504.91 282.65 504.91 283.61 504.53 283.96 495.18 274.61 495.18 272.92"/><polygon class="cls-1" points="495.18 271.23 504.91 280.93 504.91 282.65 495.18 272.92 495.18 271.23"/><polygon class="cls-1" points="495.18 269.52 504.91 279.25 504.91 280.93 495.18 271.23 495.18 269.52"/><polygon class="cls-1" points="495.18 267.84 504.91 277.56 504.91 279.25 495.18 269.52 495.18 267.84"/><polygon class="cls-1" points="495.18 266.12 504.91 275.85 504.91 277.56 495.18 267.84 495.18 266.12"/><polygon class="cls-1" points="495.18 264.44 504.91 274.16 504.91 275.85 495.18 266.12 495.18 264.44"/><polygon class="cls-1" points="495.18 262.75 504.91 272.45 504.91 274.16 495.18 264.44 495.18 262.75"/><polygon class="cls-1" points="495.18 261.04 504.91 270.76 504.91 272.45 495.18 262.75 495.18 261.04"/><polygon class="cls-1" points="495.18 259.35 504.91 269.05 504.91 270.76 495.18 261.04 495.18 259.35"/><polygon class="cls-1" points="495.18 257.64 504.91 267.36 504.91 269.05 495.18 259.35 495.18 257.64"/><polygon class="cls-1" points="495.18 255.95 504.91 265.68 504.91 267.36 495.18 257.64 495.18 255.95"/><polygon class="cls-1" points="495.18 248.04 496 247.22 504.91 247.22 504.91 265.68 495.18 255.95 495.18 248.04"/></g><path class="cls-1" d="M497.34,228.59a4.67,4.67,0,1,0,5.66.17,4.89,4.89,0,0,0-5.66-.17"/><path class="cls-1" d="M497.34,228.59a4.67,4.67,0,1,0,5.66.17,4.89,4.89,0,0,0-5.66-.17"/><g class="cls-6"><polygon class="cls-1" points="494.69 233.28 498.98 237.57 494.69 237.57 494.69 233.28"/><polygon class="cls-1" points="494.69 229.21 496.47 227.45 505.3 227.45 505.3 236.16 503.86 237.57 498.98 237.57 494.69 233.28 494.69 229.21"/></g></g></svg>