<?xml version="1.0" encoding="utf-8"?><svg xmlns="http://www.w3.org/2000/svg" xmlns:xlink="http://www.w3.org/1999/xlink" viewBox="0 0 1000 700"><defs><style>.cls-1{fill:#fff;}.cls-2{clip-path:url(#clip-path);}.cls-3{clip-path:url(#clip-path-2);}.cls-4{clip-path:url(#clip-path-3);}</style><clipPath id="clip-path"><path class="cls-1" d="M593.71,393.59a5.4,5.4,0,1,0,5.39-5.4,5.39,5.39,0,0,0-5.39,5.4"/></clipPath><clipPath id="clip-path-2"><path class="cls-1" d="M392.8,393.59a5.4,5.4,0,1,0,5.39-5.4h-.13a5.27,5.27,0,0,0-5.27,5.26c0,.05,0,.09,0,.14"/></clipPath><clipPath id="clip-path-3"><path class="cls-1" d="M448.68,376.45V325.29a46.87,46.87,0,0,1,7.67-25.73,50.83,50.83,0,0,1,84.44,0,46.94,46.94,0,0,1,7.64,25.67v51.22a18.3,18.3,0,0,1-16.2,17.87V327.07a5.4,5.4,0,1,0-10.55-2.28,5.48,5.48,0,0,0,0,2.28V474.82h-18.9V401.31a5.4,5.4,0,0,0-10.56,0v73.51H476V327.07a5.4,5.4,0,0,0-10.56-2.28,5.48,5.48,0,0,0,0,2.28v67.49a18.36,18.36,0,0,1-16.79-18.11m27.7-130.37a20.41,20.41,0,1,1,20.41,20.44,20.4,20.4,0,0,1-20.41-20.44m-10.58,0a30.88,30.88,0,0,0,11.55,24.11,60.16,60.16,0,0,0-28.13,21h-4a17.39,17.39,0,1,1,8.29-32.67,5.4,5.4,0,1,0,7.09-8.14,5.22,5.22,0,0,0-2-1.11,27.91,27.91,0,0,0-31.67,45.54,52.55,52.55,0,0,0-34.09,48.78v29.94a5.4,5.4,0,0,0,10.55,0V343.59A42.56,42.56,0,0,1,443,301.85a57.22,57.22,0,0,0-5,23.44v51.16A29,29,0,0,0,465.58,405v69.81H451.22V417.1a5.4,5.4,0,0,0-10.56,0v57.72h-13V345.24A5.4,5.4,0,0,0,417.12,343a5.47,5.47,0,0,0,0,2.28V474.82h-41.9A5.33,5.33,0,0,0,373.09,485H629a5.55,5.55,0,0,0,1-.62V475.9a5.37,5.37,0,0,0-3.18-1.08H581.48l-.3-129.74a5.4,5.4,0,0,0-5.4-5.4h0a5.4,5.4,0,0,0-5.4,5.4l.27,129.72H555.56V417.08a5.4,5.4,0,0,0-5.4-5.27h0a5.4,5.4,0,0,0-5.4,5.4l.16,57.69H532.21V405a29,29,0,0,0,26.67-28.5V325.29A57.57,57.57,0,0,0,554,301.8,43.76,43.76,0,0,1,581.56,314a40.9,40.9,0,0,1,12.71,29.7v30a5.41,5.41,0,0,0,5.4,5.26h0a5.4,5.4,0,0,0,5.4-5.4v-30a51.29,51.29,0,0,0-15.93-37.09A54.28,54.28,0,0,0,568.76,294a27.89,27.89,0,0,0-19.22-48.14h0A28,28,0,0,0,536.69,249a5.4,5.4,0,0,0,4.88,9.37,17.19,17.19,0,0,1,8.1-2A17.38,17.38,0,1,1,551,291.16c-.45,0-.91,0-1.37,0h-1.51a60.07,60.07,0,0,0-30.53-21.84A31,31,0,1,0,466.34,246"/></clipPath></defs><title>4Artboard 9</title><g id="Layer_1" data-name="Layer 1"><rect width="1000" height="700"/></g><g id="Layer_2" data-name="Layer 2"><path class="cls-1" d="M593.71,393.59a5.4,5.4,0,1,0,5.39-5.4,5.39,5.39,0,0,0-5.39,5.4"/><path class="cls-1" d="M593.71,393.59a5.4,5.4,0,1,0,5.39-5.4,5.39,5.39,0,0,0-5.39,5.4"/><g class="cls-2"><polygon class="cls-1" points="593.71 397.86 594.62 398.85 593.71 398.85 593.71 397.86"/><polygon class="cls-1" points="593.71 395.8 596.46 398.85 594.62 398.85 593.71 397.86 593.71 395.8"/><polygon class="cls-1" points="593.71 393.75 598.32 398.85 596.46 398.85 593.71 395.8 593.71 393.75"/><polygon class="cls-1" points="593.71 391.7 600.16 398.85 598.32 398.85 593.71 393.75 593.71 391.7"/><polygon class="cls-1" points="593.71 389.62 602.02 398.85 600.16 398.85 593.71 391.7 593.71 389.62"/><polygon class="cls-1" points="594.38 388.3 603.88 398.85 602.02 398.85 593.71 389.62 593.71 388.3 594.38 388.3"/><polygon class="cls-1" points="596.24 388.3 604.29 397.26 604.29 398.85 603.88 398.85 594.38 388.3 596.24 388.3"/><polygon class="cls-1" points="598.08 388.3 604.29 395.18 604.29 397.26 596.24 388.3 598.08 388.3"/><polygon class="cls-1" points="599.94 388.3 604.29 393.13 604.29 395.18 598.08 388.3 599.94 388.3"/><polygon class="cls-1" points="601.8 388.3 604.29 391.08 604.29 393.13 599.94 388.3 601.8 388.3"/><polygon class="cls-1" points="603.64 388.3 604.29 389 604.29 391.08 601.8 388.3 603.64 388.3"/><polygon class="cls-1" points="604.29 389 603.64 388.3 604.29 388.3 604.29 389"/></g><path class="cls-1" d="M392.8,393.59a5.4,5.4,0,1,0,5.39-5.4h-.13a5.27,5.27,0,0,0-5.27,5.26c0,.05,0,.09,0,.14"/><path class="cls-1" d="M392.8,393.59a5.4,5.4,0,1,0,5.39-5.4h-.13a5.27,5.27,0,0,0-5.27,5.26c0,.05,0,.09,0,.14"/><g class="cls-3"><polygon class="cls-1" points="392.8 396.88 394.58 398.85 392.8 398.85 392.8 396.88"/><polygon class="cls-1" points="392.8 394.8 396.41 398.85 394.58 398.85 392.8 396.88 392.8 394.8"/><polygon class="cls-1" points="392.8 392.75 398.28 398.85 396.41 398.85 392.8 394.8 392.8 392.75"/><polygon class="cls-1" points="392.8 390.7 400.14 398.85 398.28 398.85 392.8 392.75 392.8 390.7"/><polygon class="cls-1" points="392.8 388.62 401.98 398.85 400.14 398.85 392.8 390.7 392.8 388.62"/><polygon class="cls-1" points="394.33 388.3 403.35 398.31 403.35 398.85 401.98 398.85 392.8 388.62 392.8 388.3 394.33 388.3"/><polygon class="cls-1" points="396.2 388.3 403.35 396.26 403.35 398.31 394.33 388.3 396.2 388.3"/><polygon class="cls-1" points="398.03 388.3 403.35 394.18 403.35 396.26 396.2 388.3 398.03 388.3"/><polygon class="cls-1" points="399.9 388.3 403.35 392.13 403.35 394.18 398.03 388.3 399.9 388.3"/><polygon class="cls-1" points="401.76 388.3 403.35 390.08 403.35 392.13 399.9 388.3 401.76 388.3"/><polygon class="cls-1" points="403.35 390.08 401.76 388.3 403.35 388.3 403.35 390.08"/></g><path class="cls-1" d="M448.68,376.45V325.29a46.87,46.87,0,0,1,7.67-25.73,50.83,50.83,0,0,1,84.44,0,46.94,46.94,0,0,1,7.64,25.67v51.22a18.3,18.3,0,0,1-16.2,17.87V327.07a5.4,5.4,0,1,0-10.55-2.28,5.48,5.48,0,0,0,0,2.28V474.82h-18.9V401.31a5.4,5.4,0,0,0-10.56,0v73.51H476V327.07a5.4,5.4,0,0,0-10.56-2.28,5.48,5.48,0,0,0,0,2.28v67.49a18.36,18.36,0,0,1-16.79-18.11m27.7-130.37a20.41,20.41,0,1,1,20.41,20.44,20.4,20.4,0,0,1-20.41-20.44m-10.58,0a30.88,30.88,0,0,0,11.55,24.11,60.16,60.16,0,0,0-28.13,21h-4a17.39,17.39,0,1,1,8.29-32.67,5.4,5.4,0,1,0,7.09-8.14,5.22,5.22,0,0,0-2-1.11,27.91,27.91,0,0,0-31.67,45.54,52.55,52.55,0,0,0-34.09,48.78v29.94a5.4,5.4,0,0,0,10.55,0V343.59A42.56,42.56,0,0,1,443,301.85a57.22,57.22,0,0,0-5,23.44v51.16A29,29,0,0,0,465.58,405v69.81H451.22V417.1a5.4,5.4,0,0,0-10.56,0v57.72h-13V345.24A5.4,5.4,0,0,0,417.12,343a5.47,5.47,0,0,0,0,2.28V474.82h-41.9A5.33,5.33,0,0,0,373.09,485H629a5.55,5.55,0,0,0,1-.62V475.9a5.37,5.37,0,0,0-3.18-1.08H581.48l-.3-129.74a5.4,5.4,0,0,0-5.4-5.4h0a5.4,5.4,0,0,0-5.4,5.4l.27,129.72H555.56V417.08a5.4,5.4,0,0,0-5.4-5.27h0a5.4,5.4,0,0,0-5.4,5.4l.16,57.69H532.21V405a29,29,0,0,0,26.67-28.5V325.29A57.57,57.57,0,0,0,554,301.8,43.76,43.76,0,0,1,581.56,314a40.9,40.9,0,0,1,12.71,29.7v30a5.41,5.41,0,0,0,5.4,5.26h0a5.4,5.4,0,0,0,5.4-5.4v-30a51.29,51.29,0,0,0-15.93-37.09A54.28,54.28,0,0,0,568.76,294a27.89,27.89,0,0,0-19.22-48.14h0A28,28,0,0,0,536.69,249a5.4,5.4,0,0,0,4.88,9.37,17.19,17.19,0,0,1,8.1-2A17.38,17.38,0,1,1,551,291.16c-.45,0-.91,0-1.37,0h-1.51a60.07,60.07,0,0,0-30.53-21.84A31,31,0,1,0,466.34,246"/><path class="cls-1" d="M448.68,376.45V325.29a46.87,46.87,0,0,1,7.67-25.73,50.83,50.83,0,0,1,84.44,0,46.94,46.94,0,0,1,7.64,25.67v51.22a18.3,18.3,0,0,1-16.2,17.87V327.07a5.4,5.4,0,1,0-10.55-2.28,5.48,5.48,0,0,0,0,2.28V474.82h-18.9V401.31a5.4,5.4,0,0,0-10.56,0v73.51H476V327.07a5.4,5.4,0,0,0-10.56-2.28,5.48,5.48,0,0,0,0,2.28v67.49a18.36,18.36,0,0,1-16.79-18.11m27.7-130.37a20.41,20.41,0,1,1,20.41,20.44,20.4,20.4,0,0,1-20.41-20.44m-10.58,0a30.88,30.88,0,0,0,11.55,24.11,60.16,60.16,0,0,0-28.13,21h-4a17.39,17.39,0,1,1,8.29-32.67,5.4,5.4,0,1,0,7.09-8.14,5.22,5.22,0,0,0-2-1.11,27.91,27.91,0,0,0-31.67,45.54,52.55,52.55,0,0,0-34.09,48.78v29.94a5.4,5.4,0,0,0,10.55,0V343.59A42.56,42.56,0,0,1,443,301.85a57.22,57.22,0,0,0-5,23.44v51.16A29,29,0,0,0,465.58,405v69.81H451.22V417.1a5.4,5.4,0,0,0-10.56,0v57.72h-13V345.24A5.4,5.4,0,0,0,417.12,343a5.47,5.47,0,0,0,0,2.28V474.82h-41.9A5.33,5.33,0,0,0,373.09,485H629a5.55,5.55,0,0,0,1-.62V475.9a5.37,5.37,0,0,0-3.18-1.08H581.48l-.3-129.74a5.4,5.4,0,0,0-5.4-5.4h0a5.4,5.4,0,0,0-5.4,5.4l.27,129.72H555.56V417.08a5.4,5.4,0,0,0-5.4-5.27h0a5.4,5.4,0,0,0-5.4,5.4l.16,57.69H532.21V405a29,29,0,0,0,26.67-28.5V325.29A57.57,57.57,0,0,0,554,301.8,43.76,43.76,0,0,1,581.56,314a40.9,40.9,0,0,1,12.71,29.7v30a5.41,5.41,0,0,0,5.4,5.26h0a5.4,5.4,0,0,0,5.4-5.4v-30a51.29,51.29,0,0,0-15.93-37.09A54.28,54.28,0,0,0,568.76,294a27.89,27.89,0,0,0-19.22-48.14h0A28,28,0,0,0,536.69,249a5.4,5.4,0,0,0,4.88,9.37,17.19,17.19,0,0,1,8.1-2A17.38,17.38,0,1,1,551,291.16c-.45,0-.91,0-1.37,0h-1.51a60.07,60.07,0,0,0-30.53-21.84A31,31,0,1,0,466.34,246"/><g class="cls-4"><polygon class="cls-1" points="369.96 484.78 370.5 485.38 369.96 485.38 369.96 484.78"/><polygon class="cls-1" points="369.96 482.73 372.33 485.38 370.5 485.38 369.96 484.78 369.96 482.73"/><polygon class="cls-1" points="369.96 480.65 374.2 485.38 372.33 485.38 369.96 482.73 369.96 480.65"/><polygon class="cls-1" points="369.96 478.6 376.03 485.38 374.2 485.38 369.96 480.65 369.96 478.6"/><polygon class="cls-1" points="369.96 476.55 377.89 485.38 376.03 485.38 369.96 478.6 369.96 476.55"/><polygon class="cls-1" points="369.96 474.47 379.76 485.38 377.89 485.38 369.96 476.55 369.96 474.47"/><polygon class="cls-1" points="369.96 472.42 381.59 485.38 379.76 485.38 369.96 474.47 369.96 472.42"/><polygon class="cls-1" points="369.96 470.37 383.45 485.38 381.59 485.38 369.96 472.42 369.96 470.37"/><polygon class="cls-1" points="369.96 468.29 385.29 485.38 383.45 485.38 369.96 470.37 369.96 468.29"/><polygon class="cls-1" points="369.96 466.24 387.15 485.38 385.29 485.38 369.96 468.29 369.96 466.24"/><polygon class="cls-1" points="369.96 464.19 389.02 485.38 387.15 485.38 369.96 466.24 369.96 464.19"/><polygon class="cls-1" points="369.96 462.11 390.85 485.38 389.02 485.38 369.96 464.19 369.96 462.11"/><polygon class="cls-1" points="369.96 460.06 392.71 485.38 390.85 485.38 369.96 462.13 369.96 460.06"/><polygon class="cls-1" points="369.96 458 394.55 485.38 392.71 485.38 369.96 460.06 369.96 458"/><polygon class="cls-1" points="369.96 455.95 396.41 485.38 394.55 485.38 369.96 458 369.96 455.95"/><polygon class="cls-1" points="369.96 453.87 398.28 485.38 396.41 485.38 369.96 455.95 369.96 453.87"/><polygon class="cls-1" points="369.96 451.82 400.11 485.38 398.28 485.38 369.96 453.87 369.96 451.82"/><polygon class="cls-1" points="369.96 449.77 401.98 485.38 400.11 485.38 369.96 451.82 369.96 449.77"/><polygon class="cls-1" points="369.96 447.69 403.81 485.38 401.98 485.38 369.96 449.77 369.96 447.69"/><polygon class="cls-1" points="369.96 445.64 405.67 485.38 403.81 485.38 369.96 447.69 369.96 445.64"/><polygon class="cls-1" points="369.96 443.59 407.54 485.38 405.67 485.38 369.96 445.64 369.96 443.59"/><polygon class="cls-1" points="369.96 441.51 409.37 485.38 407.54 485.38 369.96 443.59 369.96 441.51"/><polygon class="cls-1" points="369.96 439.46 411.24 485.38 409.37 485.38 369.96 441.51 369.96 439.46"/><polygon class="cls-1" points="369.96 437.4 413.1 485.38 411.24 485.38 369.96 439.46 369.96 437.4"/><polygon class="cls-1" points="369.96 435.35 414.93 485.38 413.1 485.38 369.96 437.4 369.96 435.35"/><polygon class="cls-1" points="369.96 433.27 416.8 485.38 414.93 485.38 369.96 435.35 369.96 433.27"/><polygon class="cls-1" points="369.96 431.22 418.63 485.38 416.8 485.38 369.96 433.27 369.96 431.22"/><polygon class="cls-1" points="369.96 429.14 420.5 485.38 418.63 485.38 369.96 431.22 369.96 429.14"/><polygon class="cls-1" points="369.96 427.09 422.36 485.38 420.5 485.38 369.96 429.14 369.96 427.09"/><polygon class="cls-1" points="369.96 425.04 424.19 485.38 422.36 485.38 369.96 427.09 369.96 425.04"/><polygon class="cls-1" points="369.96 422.99 426.06 485.38 424.19 485.38 369.96 425.04 369.96 422.99"/><polygon class="cls-1" points="369.96 420.91 427.89 485.38 426.06 485.38 369.96 422.99 369.96 420.91"/><polygon class="cls-1" points="369.96 418.86 429.75 485.38 427.89 485.38 369.96 420.91 369.96 418.86"/><polygon class="cls-1" points="369.96 416.81 431.62 485.38 429.75 485.38 369.96 418.86 369.96 416.81"/><polygon class="cls-1" points="369.96 414.73 433.45 485.38 431.62 485.38 369.96 416.81 369.96 414.73"/><polygon class="cls-1" points="369.96 412.68 435.32 485.38 433.45 485.38 369.96 414.73 369.96 412.68"/><polygon class="cls-1" points="369.96 410.62 437.15 485.38 435.32 485.38 369.96 412.68 369.96 410.62"/><polygon class="cls-1" points="369.96 408.55 439.01 485.38 437.15 485.38 369.96 410.62 369.96 408.55"/><polygon class="cls-1" points="369.96 406.49 440.88 485.38 439.01 485.38 369.96 408.57 369.96 406.49"/><polygon class="cls-1" points="369.96 404.44 442.71 485.38 440.88 485.38 369.96 406.49 369.96 404.44"/><polygon class="cls-1" points="369.96 402.36 444.58 485.38 442.71 485.38 369.96 404.44 369.96 402.36"/><polygon class="cls-1" points="369.96 400.31 446.44 485.38 444.58 485.38 369.96 402.39 369.96 400.31"/><polygon class="cls-1" points="369.96 398.26 448.27 485.38 446.44 485.38 369.96 400.31 369.96 398.26"/><polygon class="cls-1" points="369.96 396.21 450.14 485.38 448.27 485.38 369.96 398.26 369.96 396.21"/><polygon class="cls-1" points="369.96 394.13 451.97 485.38 450.14 485.38 369.96 396.21 369.96 394.13"/><polygon class="cls-1" points="369.96 392.08 453.84 485.38 451.97 485.38 369.96 394.13 369.96 392.08"/><polygon class="cls-1" points="369.96 390.03 455.7 485.38 453.84 485.38 369.96 392.08 369.96 390.03"/><polygon class="cls-1" points="369.96 387.95 457.53 485.38 455.7 485.38 369.96 390.03 369.96 387.95"/><polygon class="cls-1" points="369.96 385.89 459.4 485.38 457.53 485.38 369.96 387.95 369.96 385.89"/><polygon class="cls-1" points="369.96 383.84 461.26 485.38 459.4 485.38 369.96 385.89 369.96 383.84"/><polygon class="cls-1" points="369.96 381.76 463.1 485.38 461.26 485.38 369.96 383.84 369.96 381.76"/><polygon class="cls-1" points="369.96 379.71 464.96 485.38 463.1 485.38 369.96 381.76 369.96 379.71"/><polygon class="cls-1" points="369.96 377.66 466.79 485.38 464.96 485.38 369.96 379.71 369.96 377.66"/><polygon class="cls-1" points="369.96 375.58 468.66 485.38 466.79 485.38 369.96 377.66 369.96 375.58"/><polygon class="cls-1" points="369.96 373.53 470.52 485.38 468.66 485.38 369.96 375.58 369.96 373.53"/><polygon class="cls-1" points="369.96 371.48 472.36 485.38 470.52 485.38 369.96 373.53 369.96 371.48"/><polygon class="cls-1" points="369.96 369.4 474.22 485.38 472.36 485.38 369.96 371.48 369.96 369.4"/><polygon class="cls-1" points="369.96 367.35 476.05 485.38 474.22 485.38 369.96 369.4 369.96 367.35"/><polygon class="cls-1" points="369.96 365.3 477.92 485.38 476.05 485.38 369.96 367.35 369.96 365.3"/><polygon class="cls-1" points="369.96 363.25 479.78 485.38 477.92 485.38 369.96 365.3 369.96 363.25"/><polygon class="cls-1" points="369.96 361.17 481.62 485.38 479.78 485.38 369.96 363.25 369.96 361.17"/><polygon class="cls-1" points="369.96 359.12 483.48 485.38 481.62 485.38 369.96 361.17 369.96 359.12"/><polygon class="cls-1" points="369.96 357.04 485.31 485.38 483.48 485.38 369.96 359.12 369.96 357.04"/><polygon class="cls-1" points="369.96 354.98 487.18 485.38 485.31 485.38 369.96 357.04 369.96 354.98"/><polygon class="cls-1" points="369.96 352.93 489.04 485.38 487.18 485.38 369.96 354.98 369.96 352.93"/><polygon class="cls-1" points="369.96 350.88 490.88 485.38 489.04 485.38 369.96 352.93 369.96 350.88"/><polygon class="cls-1" points="369.96 348.8 492.74 485.38 490.88 485.38 369.96 350.88 369.96 348.8"/><polygon class="cls-1" points="369.96 346.75 494.6 485.38 492.74 485.38 369.96 348.8 369.96 346.75"/><polygon class="cls-1" points="369.96 344.7 496.44 485.38 494.6 485.38 369.96 346.75 369.96 344.7"/><polygon class="cls-1" points="369.96 342.62 498.3 485.38 496.44 485.38 369.96 344.7 369.96 342.62"/><polygon class="cls-1" points="369.96 340.57 500.13 485.38 498.3 485.38 369.96 342.65 369.96 340.57"/><polygon class="cls-1" points="369.96 338.52 502 485.38 500.13 485.38 369.96 340.57 369.96 338.52"/><polygon class="cls-1" points="369.96 336.44 503.83 485.38 502 485.38 369.96 338.52 369.96 336.44"/><polygon class="cls-1" points="369.96 334.39 505.7 485.38 503.83 485.38 369.96 336.44 369.96 334.39"/><polygon class="cls-1" points="369.96 332.33 507.56 485.38 505.7 485.38 369.96 334.39 369.96 332.33"/><polygon class="cls-1" points="369.96 330.28 509.39 485.38 507.56 485.38 369.96 332.33 369.96 330.28"/><polygon class="cls-1" points="369.96 328.2 511.26 485.38 509.39 485.38 369.96 330.28 369.96 328.2"/><polygon class="cls-1" points="369.96 326.15 513.09 485.38 511.26 485.38 369.96 328.2 369.96 326.15"/><polygon class="cls-1" points="369.96 324.1 514.96 485.38 513.09 485.38 369.96 326.15 369.96 324.1"/><polygon class="cls-1" points="369.96 322.02 516.82 485.38 514.96 485.38 369.96 324.1 369.96 322.02"/><polygon class="cls-1" points="369.96 319.97 518.65 485.38 516.82 485.38 369.96 322.02 369.96 319.97"/><polygon class="cls-1" points="369.96 317.92 520.52 485.38 518.65 485.38 369.96 319.97 369.96 317.92"/><polygon class="cls-1" points="369.96 315.84 522.38 485.38 520.52 485.38 369.96 317.92 369.96 315.84"/><polygon class="cls-1" points="369.96 313.79 524.22 485.38 522.38 485.38 369.96 315.84 369.96 313.79"/><polygon class="cls-1" points="369.96 311.74 526.08 485.38 524.22 485.38 369.96 313.79 369.96 311.74"/><polygon class="cls-1" points="369.96 309.66 527.91 485.38 526.08 485.38 369.96 311.74 369.96 309.66"/><polygon class="cls-1" points="369.96 307.61 529.78 485.38 527.91 485.38 369.96 309.68 369.96 307.61"/><polygon class="cls-1" points="369.96 305.55 531.64 485.38 529.78 485.38 369.96 307.61 369.96 305.55"/><polygon class="cls-1" points="369.96 303.5 533.48 485.38 531.64 485.38 369.96 305.55 369.96 303.5"/><polygon class="cls-1" points="369.96 301.42 535.34 485.38 533.48 485.38 369.96 303.5 369.96 301.42"/><polygon class="cls-1" points="369.96 299.37 537.17 485.38 535.34 485.38 369.96 301.42 369.96 299.37"/><polygon class="cls-1" points="369.96 297.32 539.04 485.38 537.17 485.38 369.96 299.37 369.96 297.32"/><polygon class="cls-1" points="369.96 295.24 540.9 485.38 539.04 485.38 369.96 297.32 369.96 295.24"/><polygon class="cls-1" points="369.96 293.19 542.74 485.38 540.9 485.38 369.96 295.24 369.96 293.19"/><polygon class="cls-1" points="369.96 291.14 544.6 485.38 542.74 485.38 369.96 293.19 369.96 291.14"/><polygon class="cls-1" points="369.96 289.06 546.43 485.38 544.6 485.38 369.96 291.14 369.96 289.06"/><polygon class="cls-1" points="369.96 288.6 370.74 287.9 548.3 485.38 546.43 485.38 369.96 289.06 369.96 288.6"/><polygon class="cls-1" points="370.74 287.9 371.77 286.98 550.16 485.38 548.3 485.38 370.74 287.9"/><polygon class="cls-1" points="371.77 286.98 372.79 286.06 552 485.38 550.16 485.38 371.77 286.98"/><polygon class="cls-1" points="372.79 286.06 373.82 285.12 553.86 485.38 552 485.38 372.79 286.06"/><polygon class="cls-1" points="373.82 285.12 374.84 284.23 555.72 485.38 553.86 485.38 373.82 285.12"/><polygon class="cls-1" points="374.84 284.2 375.87 283.28 557.56 485.38 555.69 485.38 374.84 284.2"/><polygon class="cls-1" points="375.87 283.28 376.89 282.36 559.42 485.38 557.56 485.38 375.87 283.28"/><polygon class="cls-1" points="376.89 282.36 377.92 281.44 561.25 485.38 559.42 485.38 376.89 282.36"/><polygon class="cls-1" points="377.92 281.44 378.95 280.53 563.12 485.38 561.25 485.38 377.92 281.44"/><polygon class="cls-1" points="378.95 280.53 379.97 279.61 564.98 485.38 563.12 485.38 378.95 280.53"/><polygon class="cls-1" points="379.97 279.61 381 278.69 566.82 485.38 564.95 485.38 379.97 279.61"/><polygon class="cls-1" points="380.97 278.69 382 277.77 568.68 485.38 566.82 485.38 380.97 278.69"/><polygon class="cls-1" points="382 277.77 383.02 276.83 570.51 485.38 568.68 485.38 382 277.77"/><polygon class="cls-1" points="383.02 276.83 384.05 275.91 572.38 485.38 570.51 485.38 383.02 276.83"/><polygon class="cls-1" points="384.05 275.91 385.07 274.99 574.24 485.38 572.38 485.38 384.05 275.91"/><polygon class="cls-1" points="385.07 274.99 386.1 274.07 576.08 485.38 574.24 485.38 385.07 274.99"/><polygon class="cls-1" points="386.1 274.07 387.13 273.16 577.94 485.38 576.08 485.38 386.1 274.07"/><polygon class="cls-1" points="387.13 273.16 388.15 272.24 579.77 485.38 577.94 485.38 387.13 273.16"/><polygon class="cls-1" points="388.15 272.24 389.18 271.32 581.64 485.38 579.77 485.38 388.15 272.24"/><polygon class="cls-1" points="389.18 271.32 390.2 270.4 583.5 485.38 581.64 485.38 389.18 271.32"/><polygon class="cls-1" points="390.2 270.4 391.23 269.49 585.34 485.38 583.5 485.38 390.2 270.4"/><polygon class="cls-1" points="391.23 269.49 392.26 268.57 587.2 485.38 585.34 485.38 391.23 269.49"/><polygon class="cls-1" points="392.26 268.57 393.28 267.62 589.06 485.38 587.2 485.38 392.26 268.57"/><polygon class="cls-1" points="393.28 267.62 394.31 266.7 590.9 485.38 589.06 485.38 393.28 267.62"/><polygon class="cls-1" points="394.31 266.7 395.33 265.79 592.76 485.38 590.9 485.38 394.31 266.7"/><polygon class="cls-1" points="395.33 265.79 396.36 264.87 594.6 485.38 592.76 485.38 395.33 265.79"/><polygon class="cls-1" points="396.36 264.87 397.39 263.95 596.46 485.38 594.6 485.38 396.36 264.87"/><polygon class="cls-1" points="397.39 263.95 398.41 263.03 598.29 485.38 596.46 485.38 397.39 263.95"/><polygon class="cls-1" points="398.41 263.03 399.44 262.12 600.16 485.38 598.32 485.38 398.41 263.03"/><polygon class="cls-1" points="399.44 262.12 400.44 261.2 602.02 485.38 600.16 485.38 399.44 262.12"/><polygon class="cls-1" points="400.44 261.2 401.46 260.28 603.86 485.38 602.02 485.38 400.44 261.2"/><polygon class="cls-1" points="401.46 260.28 402.49 259.33 605.72 485.38 603.86 485.38 401.46 260.28"/><polygon class="cls-1" points="402.49 259.33 403.51 258.42 607.58 485.38 605.72 485.38 402.49 259.33"/><polygon class="cls-1" points="403.51 258.42 404.54 257.5 609.42 485.38 607.58 485.38 403.51 258.42"/><polygon class="cls-1" points="404.54 257.5 405.57 256.58 611.28 485.38 609.42 485.38 404.54 257.5"/><polygon class="cls-1" points="405.57 256.58 406.59 255.66 613.12 485.38 611.28 485.38 405.57 256.58"/><polygon class="cls-1" points="406.59 255.66 407.62 254.75 614.98 485.38 613.14 485.38 406.59 255.66"/><polygon class="cls-1" points="407.62 254.75 408.64 253.83 616.84 485.38 614.98 485.38 407.62 254.75"/><polygon class="cls-1" points="408.64 253.83 409.67 252.91 618.68 485.38 616.84 485.38 408.64 253.83"/><polygon class="cls-1" points="409.67 252.91 410.69 251.97 620.54 485.38 618.68 485.38 409.67 252.91"/><polygon class="cls-1" points="410.69 251.99 411.72 251.05 622.38 485.38 620.54 485.38 410.69 251.99"/><polygon class="cls-1" points="411.72 251.05 412.75 250.13 624.24 485.38 622.38 485.38 411.72 251.05"/><polygon class="cls-1" points="412.75 250.13 413.77 249.21 626.1 485.38 624.24 485.38 412.75 250.13"/><polygon class="cls-1" points="413.77 249.21 414.8 248.29 627.94 485.38 626.1 485.38 413.77 249.21"/><polygon class="cls-1" points="414.8 248.29 415.8 247.38 629.8 485.38 627.94 485.38 414.8 248.29"/><polygon class="cls-1" points="415.8 247.38 416.82 246.46 631.66 485.38 629.8 485.38 415.8 247.38"/><polygon class="cls-1" points="416.82 246.46 417.85 245.54 632.07 483.79 632.07 485.38 631.66 485.38 416.82 246.46"/><polygon class="cls-1" points="417.85 245.54 418.88 244.62 632.07 481.73 632.07 483.79 417.85 245.54"/><polygon class="cls-1" points="418.88 244.62 419.9 243.7 632.07 479.68 632.07 481.73 418.88 244.62"/><polygon class="cls-1" points="419.9 243.7 420.93 242.79 632.07 477.6 632.07 479.68 419.9 243.7"/><polygon class="cls-1" points="420.93 242.79 421.95 241.84 632.07 475.55 632.07 477.6 420.93 242.79"/><polygon class="cls-1" points="421.95 241.84 422.98 240.92 632.07 473.5 632.07 475.55 421.95 241.84"/><polygon class="cls-1" points="422.98 240.92 424 240 632.07 471.42 632.07 473.5 422.98 240.92"/><polygon class="cls-1" points="424 240 425.03 239.09 632.07 469.37 632.07 471.42 424 240"/><polygon class="cls-1" points="425.03 239.09 426.06 238.17 632.07 467.32 632.07 469.37 425.03 239.09"/><polygon class="cls-1" points="426.06 238.17 427.08 237.25 632.07 465.26 632.07 467.32 426.06 238.17"/><polygon class="cls-1" points="427.08 237.25 428.11 236.33 632.07 463.19 632.07 465.24 427.08 237.25"/><polygon class="cls-1" points="428.11 236.31 429.13 235.42 632.07 461.13 632.07 463.19 428.11 236.31"/><polygon class="cls-1" points="429.13 235.39 430.16 234.5 632.07 459.08 632.07 461.13 429.13 235.39"/><polygon class="cls-1" points="430.16 234.5 431.19 233.55 632.07 457 632.07 459.06 430.16 234.5"/><polygon class="cls-1" points="431.19 233.55 432.21 232.63 632.07 454.95 632.07 457 431.19 233.55"/><polygon class="cls-1" points="432.18 232.63 433.21 231.72 632.07 452.9 632.07 454.95 432.18 232.63"/><polygon class="cls-1" points="433.21 231.72 434.26 230.8 632.07 450.82 632.07 452.9 433.21 231.72"/><polygon class="cls-1" points="434.24 230.8 435.26 229.88 632.07 448.77 632.07 450.82 434.24 230.8"/><polygon class="cls-1" points="435.26 229.88 436.29 228.96 632.07 446.72 632.07 448.77 435.26 229.88"/><polygon class="cls-1" points="436.29 228.96 437.31 228.05 632.07 444.64 632.07 446.72 436.29 228.96"/><polygon class="cls-1" points="437.31 228.05 438.34 227.1 632.07 442.59 632.07 444.64 437.31 228.05"/><polygon class="cls-1" points="438.34 227.1 439.37 226.18 632.07 440.54 632.07 442.59 438.34 227.1"/><polygon class="cls-1" points="439.37 226.18 440.39 225.26 632.07 438.49 632.07 440.54 439.37 226.18"/><polygon class="cls-1" points="440.39 225.26 441.42 224.35 632.07 436.41 632.07 438.46 440.39 225.26"/><polygon class="cls-1" points="441.42 224.35 442.44 223.43 632.07 434.35 632.07 436.41 441.42 224.35"/><polygon class="cls-1" points="442.44 223.43 443.47 222.51 632.07 432.28 632.07 434.35 442.44 223.43"/><polygon class="cls-1" points="443.47 222.51 444.5 221.59 632.07 430.22 632.07 432.28 443.47 222.51"/><polygon class="cls-1" points="444.5 221.59 445.52 220.68 632.07 428.17 632.07 430.22 444.5 221.59"/><polygon class="cls-1" points="445.52 220.68 446.55 219.76 632.07 426.12 632.07 428.17 445.52 220.68"/><polygon class="cls-1" points="446.55 219.76 447.57 218.84 632.07 424.04 632.07 426.12 446.55 219.76"/><polygon class="cls-1" points="447.57 218.84 448.6 217.9 632.07 421.99 632.07 424.04 447.57 218.84"/><polygon class="cls-1" points="448.6 217.9 449.62 216.98 632.07 419.94 632.07 421.99 448.6 217.9"/><polygon class="cls-1" points="449.6 216.98 450.65 216.06 632.07 417.86 632.07 419.91 449.6 216.98"/><polygon class="cls-1" points="450.65 216.06 451.65 215.14 632.07 415.81 632.07 417.86 450.65 216.06"/><polygon class="cls-1" points="451.65 215.14 451.68 215.14 453.49 215.14 632.07 413.76 632.07 415.81 451.65 215.14"/><polygon class="cls-1" points="455.35 215.11 632.07 411.68 632.07 413.76 453.49 215.11 455.35 215.11"/><polygon class="cls-1" points="457.21 215.11 632.07 409.63 632.07 411.68 455.35 215.11 457.21 215.11"/><polygon class="cls-1" points="459.05 215.11 632.07 407.57 632.07 409.63 457.21 215.11 459.05 215.11"/><polygon class="cls-1" points="460.91 215.11 632.07 405.52 632.07 407.57 459.05 215.11 460.91 215.11"/><polygon class="cls-1" points="462.75 215.11 632.07 403.44 632.07 405.52 460.91 215.11 462.75 215.11"/><polygon class="cls-1" points="464.61 215.11 632.07 401.39 632.07 403.44 462.75 215.11 464.61 215.11"/><polygon class="cls-1" points="487.9 215.11 632.07 375.47 632.07 401.39 464.61 215.11 487.9 215.11"/><polygon class="cls-1" points="511.2 215.11 632.07 349.56 632.07 375.47 487.9 215.11 511.2 215.11"/><polygon class="cls-1" points="534.5 215.11 632.07 323.64 632.07 349.56 511.2 215.11 534.5 215.11"/><polygon class="cls-1" points="557.8 215.11 632.07 297.75 632.07 323.64 534.5 215.11 557.8 215.11"/><polygon class="cls-1" points="581.1 215.11 632.07 271.83 632.07 297.75 557.8 215.11 581.1 215.11"/><polygon class="cls-1" points="604.4 215.11 632.07 245.92 632.07 271.83 581.1 215.11 604.4 215.11"/><polygon class="cls-1" points="627.69 215.11 632.07 220 632.07 245.92 604.4 215.11 627.69 215.11"/><polygon class="cls-1" points="632.07 220 627.69 215.11 632.07 215.11 632.07 220"/><polygon class="cls-1" points="476.38 265.27 477.46 266.52 476.38 266.52 476.38 265.27"/><polygon class="cls-1" points="476.38 263.22 479.32 266.52 477.46 266.52 476.38 265.27 476.38 263.22"/><polygon class="cls-1" points="476.38 261.17 481.18 266.52 479.32 266.52 476.38 263.22 476.38 261.17"/><polygon class="cls-1" points="476.38 259.09 483.02 266.52 481.18 266.52 476.38 261.17 476.38 259.09"/><polygon class="cls-1" points="476.38 257.04 484.88 266.52 483.02 266.52 476.38 259.09 476.38 257.04"/><polygon class="cls-1" points="476.38 254.99 486.72 266.52 484.88 266.52 476.38 257.04 476.38 254.99"/><polygon class="cls-1" points="476.38 252.94 488.58 266.52 486.72 266.52 476.38 254.99 476.38 252.94"/><polygon class="cls-1" points="476.38 250.86 490.44 266.52 488.58 266.52 476.38 252.94 476.38 250.86"/><polygon class="cls-1" points="476.38 248.81 492.28 266.52 490.44 266.52 476.38 250.86 476.38 248.81"/><polygon class="cls-1" points="476.38 246.73 494.14 266.52 492.28 266.52 476.38 248.81 476.38 246.73"/><polygon class="cls-1" points="476.38 244.68 495.98 266.52 494.14 266.52 476.38 246.73 476.38 244.68"/><polygon class="cls-1" points="476.38 242.62 497.84 266.52 495.98 266.52 476.38 244.68 476.38 242.62"/><polygon class="cls-1" points="476.38 240.57 499.7 266.52 497.84 266.52 476.38 242.62 476.38 240.57"/><polygon class="cls-1" points="476.38 238.49 501.54 266.52 499.7 266.52 476.38 240.57 476.38 238.49"/><polygon class="cls-1" points="476.38 236.44 503.4 266.52 501.54 266.52 476.38 238.49 476.38 236.44"/><polygon class="cls-1" points="476.38 234.39 505.24 266.52 503.4 266.52 476.38 236.44 476.38 234.39"/><polygon class="cls-1" points="476.38 232.31 507.1 266.52 505.24 266.52 476.38 234.39 476.38 232.31"/><polygon class="cls-1" points="476.38 230.26 508.96 266.52 507.1 266.52 476.38 232.31 476.38 230.26"/><polygon class="cls-1" points="476.38 228.21 510.8 266.52 508.96 266.52 476.38 230.26 476.38 228.21"/><polygon class="cls-1" points="497.41 225.67 517.2 247.7 517.2 266.52 510.8 266.52 476.35 228.21 476.35 225.67 497.41 225.67"/><polygon class="cls-1" points="517.2 247.7 497.41 225.67 517.2 225.67 517.2 247.7"/><polygon class="cls-1" points="448.57 473.34 449.89 474.82 448.57 474.82 448.57 473.34"/><polygon class="cls-1" points="448.57 471.29 451.76 474.82 449.89 474.82 448.57 473.34 448.57 471.29"/><polygon class="cls-1" points="448.57 469.21 453.59 474.82 451.76 474.82 448.57 471.29 448.57 469.21"/><polygon class="cls-1" points="448.57 467.15 455.45 474.82 453.59 474.82 448.57 469.21 448.57 467.15"/><polygon class="cls-1" points="448.57 465.1 457.32 474.82 455.45 474.82 448.57 467.15 448.57 465.1"/><polygon class="cls-1" points="448.57 463.02 459.15 474.82 457.32 474.82 448.57 465.08 448.57 463.02"/><polygon class="cls-1" points="448.57 460.97 461.02 474.82 459.15 474.82 448.57 463.02 448.57 460.97"/><polygon class="cls-1" points="448.57 458.92 462.85 474.82 461.02 474.82 448.57 460.97 448.57 458.92"/><polygon class="cls-1" points="448.57 456.84 464.71 474.82 462.85 474.82 448.57 458.92 448.57 456.84"/><polygon class="cls-1" points="448.57 454.79 466.58 474.82 464.71 474.82 448.57 456.84 448.57 454.79"/><polygon class="cls-1" points="448.57 452.74 468.41 474.82 466.58 474.82 448.57 454.79 448.57 452.74"/><polygon class="cls-1" points="448.57 450.66 470.28 474.82 468.41 474.82 448.57 452.74 448.57 450.66"/><polygon class="cls-1" points="448.57 448.61 472.11 474.82 470.28 474.82 448.57 450.66 448.57 448.61"/><polygon class="cls-1" points="448.57 446.56 473.98 474.82 472.11 474.82 448.57 448.61 448.57 446.56"/><polygon class="cls-1" points="448.57 444.48 475.84 474.82 473.98 474.82 448.57 446.56 448.57 444.48"/><polygon class="cls-1" points="448.57 442.43 477.67 474.82 475.84 474.82 448.57 444.48 448.57 442.43"/><polygon class="cls-1" points="448.57 440.38 479.54 474.82 477.67 474.82 448.57 442.43 448.57 440.38"/><polygon class="cls-1" points="448.57 438.3 481.4 474.82 479.54 474.82 448.57 440.38 448.57 438.3"/><polygon class="cls-1" points="448.57 436.24 483.24 474.82 481.4 474.82 448.57 438.3 448.57 436.24"/><polygon class="cls-1" points="448.57 434.19 485.1 474.82 483.24 474.82 448.57 436.24 448.57 434.19"/><polygon class="cls-1" points="448.57 432.11 486.93 474.82 485.1 474.82 448.57 434.19 448.57 432.11"/><polygon class="cls-1" points="448.57 430.06 488.8 474.82 486.93 474.82 448.57 432.14 448.57 430.06"/><polygon class="cls-1" points="448.57 428.01 490.66 474.82 488.8 474.82 448.57 430.06 448.57 428.01"/><polygon class="cls-1" points="448.57 425.96 492.5 474.82 490.66 474.82 448.57 428.01 448.57 425.96"/><polygon class="cls-1" points="448.57 423.88 494.36 474.82 492.5 474.82 448.57 425.96 448.57 423.88"/><polygon class="cls-1" points="448.57 421.83 496.19 474.82 494.36 474.82 448.57 423.88 448.57 421.83"/><polygon class="cls-1" points="448.57 419.78 498.06 474.82 496.19 474.82 448.57 421.83 448.57 419.78"/><polygon class="cls-1" points="448.57 417.7 499.92 474.82 498.06 474.82 448.57 419.78 448.57 417.7"/><polygon class="cls-1" points="448.57 415.65 501.75 474.82 499.92 474.82 448.57 417.7 448.57 415.65"/><polygon class="cls-1" points="448.57 413.59 503.62 474.82 501.75 474.82 448.57 415.65 448.57 413.59"/><polygon class="cls-1" points="448.57 411.51 505.45 474.82 503.62 474.82 448.57 413.59 448.57 411.51"/><polygon class="cls-1" points="448.57 409.46 507.32 474.82 505.45 474.82 448.57 411.51 448.57 409.46"/><polygon class="cls-1" points="448.57 407.41 509.18 474.82 507.32 474.82 448.57 409.46 448.57 407.41"/><polygon class="cls-1" points="448.57 405.36 511.01 474.82 509.18 474.82 448.57 407.41 448.57 405.36"/><polygon class="cls-1" points="448.57 403.28 512.88 474.82 511.01 474.82 448.57 405.36 448.57 403.28"/><polygon class="cls-1" points="448.57 401.23 514.74 474.82 512.88 474.82 448.57 403.28 448.57 401.23"/><polygon class="cls-1" points="448.57 399.15 516.58 474.82 514.74 474.82 448.57 401.23 448.57 399.15"/><polygon class="cls-1" points="448.57 397.1 518.44 474.82 516.58 474.82 448.57 399.15 448.57 397.1"/><polygon class="cls-1" points="448.57 395.05 520.27 474.82 518.44 474.82 448.57 397.1 448.57 395.05"/><polygon class="cls-1" points="448.57 393 522.14 474.82 520.27 474.82 448.57 395.05 448.57 393"/><polygon class="cls-1" points="448.57 390.92 524 474.82 522.14 474.82 448.57 393 448.57 390.92"/><polygon class="cls-1" points="448.57 388.87 525.84 474.82 524 474.82 448.57 390.92 448.57 388.87"/><polygon class="cls-1" points="448.57 386.81 527.7 474.82 525.84 474.82 448.57 388.87 448.57 386.81"/><polygon class="cls-1" points="448.57 384.73 529.53 474.82 527.7 474.82 448.57 386.81 448.57 384.73"/><polygon class="cls-1" points="448.57 382.68 531.4 474.82 529.53 474.82 448.57 384.73 448.57 382.68"/><polygon class="cls-1" points="448.57 380.63 533.26 474.82 531.4 474.82 448.57 382.68 448.57 380.63"/><polygon class="cls-1" points="448.57 378.55 534.58 474.25 533.93 474.82 533.26 474.82 448.57 380.63 448.57 378.55"/><polygon class="cls-1" points="448.57 376.5 535.61 473.31 534.58 474.25 448.57 378.58 448.57 376.5"/><polygon class="cls-1" points="448.57 374.45 536.63 472.39 535.61 473.31 448.57 376.5 448.57 374.45"/><polygon class="cls-1" points="448.57 372.37 537.66 471.48 536.63 472.39 448.57 374.45 448.57 372.37"/><polygon class="cls-1" points="448.57 370.32 538.69 470.56 537.66 471.48 448.57 372.4 448.57 370.32"/><polygon class="cls-1" points="448.57 368.27 539.71 469.64 538.69 470.56 448.57 370.32 448.57 368.27"/><polygon class="cls-1" points="448.57 366.21 540.71 468.72 539.71 469.64 448.57 368.27 448.57 366.21"/><polygon class="cls-1" points="448.57 364.14 541.74 467.8 540.71 468.72 448.57 366.21 448.57 364.14"/><polygon class="cls-1" points="448.57 362.08 542.79 466.88 541.74 467.8 448.57 364.14 448.57 362.08"/><polygon class="cls-1" points="448.57 360.03 543.79 465.94 542.79 466.88 448.57 362.08 448.57 360.03"/><polygon class="cls-1" points="448.57 357.95 544.81 465.02 543.79 465.94 448.57 360.03 448.57 357.95"/><polygon class="cls-1" points="448.57 355.9 545.84 464.11 544.81 465.02 448.57 357.95 448.57 355.9"/><polygon class="cls-1" points="448.57 353.85 546.87 463.19 545.84 464.11 448.57 355.9 448.57 353.85"/><polygon class="cls-1" points="448.57 351.77 547.89 462.27 546.87 463.19 448.57 353.85 448.57 351.77"/><polygon class="cls-1" points="448.57 349.72 548.32 460.7 548.32 461.86 547.89 462.27 448.57 351.77 448.57 349.72"/><polygon class="cls-1" points="448.57 347.67 548.32 458.62 548.32 460.7 448.57 349.72 448.57 347.67"/><polygon class="cls-1" points="448.57 345.62 548.32 456.57 548.32 458.62 448.57 347.67 448.57 345.62"/><polygon class="cls-1" points="448.57 343.54 548.32 454.52 548.32 456.57 448.57 345.62 448.57 343.54"/><polygon class="cls-1" points="448.57 341.49 548.32 452.44 548.32 454.52 448.57 343.54 448.57 341.49"/><polygon class="cls-1" points="448.57 339.43 548.32 450.39 548.32 452.44 448.57 341.49 448.57 339.43"/><polygon class="cls-1" points="448.57 337.36 548.32 448.34 548.32 450.39 448.57 339.43 448.57 337.36"/><polygon class="cls-1" points="448.57 335.3 548.32 446.29 548.32 448.34 448.57 337.36 448.57 335.3"/><polygon class="cls-1" points="448.57 333.25 548.32 444.21 548.32 446.26 448.57 335.3 448.57 333.25"/><polygon class="cls-1" points="448.57 331.17 548.32 442.16 548.32 444.21 448.57 333.25 448.57 331.17"/><polygon class="cls-1" points="448.57 329.12 548.32 440.11 548.32 442.16 448.57 331.17 448.57 329.12"/><polygon class="cls-1" points="448.57 327.07 548.32 438.03 548.32 440.08 448.57 329.12 448.57 327.07"/><polygon class="cls-1" points="448.57 324.99 548.32 435.97 548.32 438.03 448.57 327.07 448.57 324.99"/><polygon class="cls-1" points="448.57 322.94 548.32 433.92 548.32 435.97 448.57 324.99 448.57 322.94"/><polygon class="cls-1" points="448.57 320.89 548.32 431.84 548.32 433.92 448.57 322.94 448.57 320.89"/><polygon class="cls-1" points="448.57 318.81 548.32 429.79 548.32 431.84 448.57 320.89 448.57 318.81"/><polygon class="cls-1" points="448.57 316.76 548.32 427.74 548.32 429.79 448.57 318.81 448.57 316.76"/><polygon class="cls-1" points="448.57 314.7 548.32 425.66 548.32 427.74 448.57 316.76 448.57 314.7"/><polygon class="cls-1" points="448.57 312.65 548.32 423.61 548.32 425.66 448.57 314.7 448.57 312.65"/><polygon class="cls-1" points="448.57 310.57 548.32 421.56 548.32 423.61 448.57 312.65 448.57 310.57"/><polygon class="cls-1" points="448.57 308.52 548.32 419.48 548.32 421.56 448.57 310.57 448.57 308.52"/><polygon class="cls-1" points="448.57 306.47 548.32 417.43 548.32 419.48 448.57 308.52 448.57 306.47"/><polygon class="cls-1" points="448.57 304.39 548.32 415.38 548.32 417.43 448.57 306.47 448.57 304.39"/><polygon class="cls-1" points="448.57 302.34 548.32 413.32 548.32 415.38 448.57 304.39 448.57 302.34"/><polygon class="cls-1" points="448.57 300.29 548.32 411.25 548.32 413.3 448.57 302.34 448.57 300.29"/><polygon class="cls-1" points="448.57 298.21 548.32 409.19 548.32 411.25 448.57 300.29 448.57 298.21"/><polygon class="cls-1" points="448.57 296.16 548.32 407.14 548.32 409.19 448.57 298.21 448.57 296.16"/><polygon class="cls-1" points="448.57 294.11 548.32 405.06 548.32 407.14 448.57 296.16 448.57 294.11"/><polygon class="cls-1" points="448.57 292.03 548.32 403.01 548.32 405.06 448.57 294.11 448.57 292.03"/><polygon class="cls-1" points="448.57 289.98 548.32 400.96 548.32 403.01 448.57 292.03 448.57 289.98"/><polygon class="cls-1" points="448.57 289.6 449.41 288.84 548.32 398.88 548.32 400.96 448.57 289.98 448.57 289.6"/><polygon class="cls-1" points="449.41 288.84 450.43 287.92 548.32 396.83 548.32 398.88 449.41 288.84"/><polygon class="cls-1" points="450.43 287.92 451.46 287.01 548.32 394.78 548.32 396.83 450.43 287.92"/><polygon class="cls-1" points="451.43 287.01 452.49 286.09 548.32 392.7 548.32 394.78 451.43 287.01"/><polygon class="cls-1" points="452.49 286.09 453.49 285.17 548.32 390.65 548.32 392.7 452.49 286.09"/><polygon class="cls-1" points="453.49 285.17 454.51 284.25 548.32 388.6 548.32 390.65 453.49 285.17"/><polygon class="cls-1" points="454.51 284.25 455.54 283.33 548.32 386.52 548.32 388.6 454.51 284.25"/><polygon class="cls-1" points="455.54 283.33 456.56 282.42 548.32 384.46 548.32 386.52 455.54 283.33"/><polygon class="cls-1" points="456.56 282.42 457.59 281.47 548.32 382.41 548.32 384.46 456.56 282.42"/><polygon class="cls-1" points="457.59 281.47 458.61 280.55 548.32 380.36 548.32 382.41 457.59 281.47"/><polygon class="cls-1" points="458.61 280.55 459.64 279.64 548.32 378.28 548.32 380.36 458.61 280.55"/><polygon class="cls-1" points="459.64 279.64 460.67 278.72 548.32 376.23 548.32 378.28 459.64 279.64"/><polygon class="cls-1" points="460.67 278.72 461.69 277.8 548.32 374.18 548.32 376.23 460.67 278.72"/><polygon class="cls-1" points="461.69 277.8 462.5 277.07 462.88 277.07 548.32 372.1 548.32 374.18 461.69 277.8"/><polygon class="cls-1" points="464.74 277.07 548.32 370.05 548.32 372.1 462.88 277.07 464.74 277.07"/><polygon class="cls-1" points="466.58 277.07 548.32 368 548.32 370.05 464.74 277.07 466.58 277.07"/><polygon class="cls-1" points="468.44 277.07 548.32 365.92 548.32 368 466.58 277.07 468.44 277.07"/><polygon class="cls-1" points="470.3 277.07 548.32 363.87 548.32 365.92 468.44 277.07 470.3 277.07"/><polygon class="cls-1" points="472.14 277.07 548.32 361.81 548.32 363.87 470.3 277.07 472.14 277.07"/><polygon class="cls-1" points="474 277.07 548.32 359.74 548.32 361.81 472.14 277.07 474 277.07"/><polygon class="cls-1" points="475.84 277.07 548.32 357.68 548.32 359.74 474 277.07 475.84 277.07"/><polygon class="cls-1" points="477.7 277.07 548.32 355.63 548.32 357.68 475.84 277.07 477.7 277.07"/><polygon class="cls-1" points="479.56 277.07 548.32 353.58 548.32 355.63 477.7 277.07 479.56 277.07"/><polygon class="cls-1" points="481.4 277.07 548.32 351.5 548.32 353.58 479.56 277.07 481.4 277.07"/><polygon class="cls-1" points="483.26 277.07 548.32 349.45 548.32 351.5 481.4 277.07 483.26 277.07"/><polygon class="cls-1" points="485.1 277.07 548.32 347.37 548.32 349.45 483.26 277.07 485.1 277.07"/><polygon class="cls-1" points="486.96 277.07 548.32 345.32 548.32 347.37 485.1 277.07 486.96 277.07"/><polygon class="cls-1" points="488.82 277.07 548.32 343.27 548.32 345.32 486.96 277.07 488.82 277.07"/><polygon class="cls-1" points="490.66 277.07 548.32 341.22 548.32 343.27 488.82 277.07 490.66 277.07"/><polygon class="cls-1" points="492.52 277.07 548.32 339.14 548.32 341.22 490.66 277.07 492.52 277.07"/><polygon class="cls-1" points="494.36 277.07 548.32 337.08 548.32 339.14 492.52 277.07 494.36 277.07"/><polygon class="cls-1" points="496.22 277.07 548.32 335.03 548.32 337.08 494.36 277.07 496.22 277.07"/><polygon class="cls-1" points="498.08 277.07 548.32 332.95 548.32 335.03 496.22 277.07 498.08 277.07"/><polygon class="cls-1" points="499.92 277.07 548.32 330.9 548.32 332.95 498.08 277.07 499.92 277.07"/><polygon class="cls-1" points="501.78 277.07 548.32 328.85 548.32 330.9 499.92 277.07 501.78 277.07"/><polygon class="cls-1" points="503.62 277.07 548.32 326.8 548.32 328.85 501.78 277.07 503.62 277.07"/><polygon class="cls-1" points="505.48 277.07 548.32 324.72 548.32 326.8 503.62 277.07 505.48 277.07"/><polygon class="cls-1" points="507.34 277.07 548.32 322.67 548.32 324.72 505.48 277.07 507.34 277.07"/><polygon class="cls-1" points="509.18 277.07 548.32 320.59 548.32 322.67 507.34 277.07 509.18 277.07"/><polygon class="cls-1" points="511.04 277.07 548.32 318.54 548.32 320.59 509.18 277.07 511.04 277.07"/><polygon class="cls-1" points="512.88 277.07 548.32 316.49 548.32 318.54 511.04 277.07 512.88 277.07"/><polygon class="cls-1" points="514.74 277.07 548.32 314.44 548.32 316.49 512.88 277.07 514.74 277.07"/><polygon class="cls-1" points="516.6 277.07 548.32 312.36 548.32 314.44 514.74 277.07 516.6 277.07"/><polygon class="cls-1" points="518.44 277.07 548.32 310.31 548.32 312.36 516.6 277.07 518.44 277.07"/><polygon class="cls-1" points="520.3 277.07 548.32 308.25 548.32 310.31 518.44 277.07 520.3 277.07"/><polygon class="cls-1" points="543.6 277.07 548.32 282.34 548.32 308.25 520.3 277.07 543.6 277.07"/><polygon class="cls-1" points="548.32 282.34 543.6 277.07 548.32 277.07 548.32 282.34"/></g></g></svg>