<?xml version="1.0" encoding="utf-8"?><svg xmlns="http://www.w3.org/2000/svg" viewBox="0 0 1000 700"><defs><style>.cls-1{fill:#fff;}</style></defs><title>4Artboard 3</title><g id="Layer_1" data-name="Layer 1"><rect width="1000" height="700"/></g><g id="Layer_2" data-name="Layer 2"><g id="Page-1"><path id="Shape" class="cls-1" d="M394.17,257.9a12.29,12.29,0,0,0,9.53-.67l3.67-1.82,53.72,165a12.47,12.47,0,0,0,5.83,7,29.06,29.06,0,1,0,35.21-8L606,382.48A12.48,12.48,0,1,0,597.69,359l-11.05,3.92L560.31,288a4.06,4.06,0,0,0-2.12-2.37,4,4,0,0,0-3.14-.15l-12.73,4.44-17.21-49.13a4.08,4.08,0,0,0-5.29-2.67l-21.06,7.49-15.82,5.58-21,7.49a4.08,4.08,0,0,0-2.5,2.12,4,4,0,0,0-.17,3.17l17.27,49.13-7.94,2.79a4.16,4.16,0,0,0-2.49,5.29l26.59,75.15L481,400.52,426.6,233.9a12.46,12.46,0,0,0-15.7-8,11.21,11.21,0,0,0-1.76.72l-16.59,8.33a12.48,12.48,0,0,0,1.62,23Zm128.29,47.83,7.06,20.14-6.91-1.8a4.16,4.16,0,0,0-4.36,1.52l-4.34,5.76-7.06-20.11,7.85-2.76ZM501,264.66l-2.2-.57a4.22,4.22,0,0,0-4.37,1.52l-1.37,1.82-3.42-9.7,4-1.4,4-1.45Zm-19.22-4.24,6,17.09a4.14,4.14,0,0,0,3.29,2.67h.63a4.18,4.18,0,0,0,3.44-1.55l4.36-5.81,7.07,1.8a4.18,4.18,0,0,0,5-5.42l-6-17.09,13.1-4.64,15.72,44.76-50,17.47L468.6,264.94ZM498.91,314l9.66,27.44a4.1,4.1,0,0,0,3.29,2.72,4.16,4.16,0,0,0,3.94-1.59l7.36-9.78,11.93,3.07a4.17,4.17,0,0,0,5-5.42L530.42,303,554,294.73l24.77,70.58-78.59,27.55-24.8-70.61Zm-9.33,110.9a21,21,0,1,1-9.41,2.35l5.54-1.95A18.62,18.62,0,0,1,489.58,424.89ZM396.26,242.36l16.57-8.31a4.14,4.14,0,0,1,5.56,1.85,5,5,0,0,1,.26.64l55.61,170.61a4.15,4.15,0,0,0,5.29,2.52l.05,0,120.86-42.77a4.17,4.17,0,0,1,5.14,5.62,4.09,4.09,0,0,1-2.5,2.12L483.57,417a29.38,29.38,0,0,0-7.29,2.5l-2.07.72a4.13,4.13,0,0,1-5.32-2.44l0-.05L413.66,248.1a4.06,4.06,0,0,0-5.69-2.42l-8,4.14a4.19,4.19,0,0,1-3.74-7.49Z"/><path class="cls-1" d="M477.1,445.65a12.48,12.48,0,1,0,12.48-12.47A12.48,12.48,0,0,0,477.1,445.65Zm12.48-4.16a4.17,4.17,0,1,1-4.14,4.19v0A4.16,4.16,0,0,1,489.58,441.49Z"/></g></g></svg>