<?xml version="1.0" encoding="utf-8"?><svg xmlns="http://www.w3.org/2000/svg" viewBox="0 0 1000 700"><defs><style>.cls-1{fill:#fff;}</style></defs><title>4Artboard 12</title><g id="Layer_1" data-name="Layer 1"><rect width="1000" height="700"/></g><g id="Layer_2" data-name="Layer 2"><rect class="cls-1" x="419.13" y="325.39" width="73.84" height="7.03"/><path class="cls-1" d="M591.42,283.19H545.71V241H405.06v42.55A17.61,17.61,0,0,0,391,300.77V420.32a17.6,17.6,0,0,0,17.58,17.58h31.65V452H426.16v7H573.84v-7H559.77V437.9h31.65A17.6,17.6,0,0,0,609,420.32V300.77A17.6,17.6,0,0,0,591.42,283.19Zm-42.19,24.62a17.59,17.59,0,1,1-17.58-17.58A17.6,17.6,0,0,1,549.23,307.81Zm-39.07,45.71a24.82,24.82,0,0,0-4.29-3.34L518,328.29a24.44,24.44,0,0,0,20.65,3.09v22.14Zm.39,17.58A17.58,17.58,0,1,1,493,353.52,17.6,17.6,0,0,1,510.55,371.1Zm-3.24-59.78H426.16V262.1h98.45v22.13A24.66,24.66,0,0,0,507,307.81,25.44,25.44,0,0,0,507.31,311.32ZM412.1,248H538.68v36.2a24.4,24.4,0,0,0-7-1V255.06H419.13v63.29h90.31a24.87,24.87,0,0,0,3.23,5.12l-13.27,23.9a24.3,24.3,0,0,0-23.62,6.15H412.1ZM552.74,452H447.26V437.9H552.74ZM602,420.32a10.56,10.56,0,0,1-10.55,10.55H408.58A10.56,10.56,0,0,1,398,420.32v-3.51H602Zm0-10.55H398v-109a10.55,10.55,0,0,1,7-9.9v69.68h65.7a24.62,24.62,0,1,0,44.41,0h30.54v-22.9l9,14.42a24.42,24.42,0,1,0,6-3.65l-13.5-21.59a24.55,24.55,0,0,0,1.6-36.6h42.58A10.56,10.56,0,0,1,602,300.77Zm-31.65-56.25a17.58,17.58,0,1,1-17.58,17.58A17.59,17.59,0,0,1,570.32,353.52Z"/><rect class="cls-1" x="485.94" y="339.45" width="7.03" height="7.03"/><rect class="cls-1" x="419.13" y="339.45" width="59.77" height="7.03"/></g></svg>