<?xml version="1.0" encoding="utf-8"?><svg xmlns="http://www.w3.org/2000/svg" viewBox="0 0 1000 700"><defs><style>.cls-1{fill:none;}.cls-2{fill:#fff;}</style></defs><title>4Artboard 4</title><g id="Layer_1" data-name="Layer 1"><rect width="1000" height="700"/></g><g id="Layer_2" data-name="Layer 2"><polygon class="cls-1" points="505.8 403.05 551.8 375.48 551.8 331.44 505.8 359.01 505.8 403.05"/><polygon class="cls-1" points="528.88 310.7 482.78 338.51 500.01 349.05 546.46 321.24 528.88 310.7"/><polygon class="cls-1" points="448.32 375.48 494.32 403.05 494.32 358.98 448.32 331.41 448.32 375.48"/><polygon class="cls-1" points="517.58 304.01 500.01 293.47 454.04 321.28 471.41 331.79 517.58 304.01"/><path class="cls-2" d="M563.17,378.72V321.24a7.32,7.32,0,0,0,0-1.48,3.48,3.48,0,0,0-.24-.52,7,7,0,0,0-.34-.86l-.38-.51-.52-.66-.55-.41a3.57,3.57,0,0,0-.55-.48l-57.48-34.46a5.72,5.72,0,0,0-3-.8,5.64,5.64,0,0,0-3,.8l0,0-57.48,34.46-.62.48-.52.42a5.49,5.49,0,0,0-.52.65l-.38.52a4.66,4.66,0,0,0-.34.83,3.39,3.39,0,0,0-.24.55,5.29,5.29,0,0,0-.21,1.48v57.51a6,6,0,0,0,2.79,5l57.52,34.46,1,.38h.38a5.46,5.46,0,0,0,3,0h.38l1-.38,57.48-34.46A5.75,5.75,0,0,0,563.17,378.72ZM500,293.47,517.58,304l-46.17,27.78L454,321.28Zm-5.69,109.58-46-27.57V331.41l46,27.57Zm5.69-54-17.23-10.54,46.1-27.81,17.58,10.54Zm51.79,26.43-46,27.57V359l46-27.57Z"/><path class="cls-2" d="M482.78,206.29a5.79,5.79,0,0,0,8.13-.95l.07-.09,3.44-4.61v40.14a5.66,5.66,0,1,0,11.31.1V200.53l3.44,4.62a5.81,5.81,0,0,0,8.07,1.14,5.72,5.72,0,0,0,1.34-7.93L504.8,180a6,6,0,0,0-4.62-2.27H500a6.13,6.13,0,0,0-3.45,1.34,4.66,4.66,0,0,0-.83.83l-14,18.5A5.69,5.69,0,0,0,482.78,206.29Z"/><path class="cls-2" d="M517.78,493.73l0,0a5.72,5.72,0,0,0-8,1.08l-.05.06-3.45,4.62V459.22a5.75,5.75,0,0,0-11.47-.89,6.61,6.61,0,0,0,0,.89h-.35v40.25L491,494.85a5.75,5.75,0,0,0-9.2,6.89L495.56,520a6.33,6.33,0,0,0,3.45,2.27h2.65a5.92,5.92,0,0,0,3.45-2.17l13.78-18.4A5.71,5.71,0,0,0,517.78,493.73Z"/><path class="cls-2" d="M500.15,269.52a5.72,5.72,0,0,0,5.75-5.69v-.27a5.74,5.74,0,1,0-5.89,6Z"/><path class="cls-2" d="M500,430.48a5.74,5.74,0,1,0,5.89,5.93v-.28a5.72,5.72,0,0,0-5.79-5.65Z"/><path class="cls-2" d="M355.28,359.18l-4.62-3.44h40.28a5.76,5.76,0,0,0-.07-11.51H350.7l4.61-3.45a5.72,5.72,0,0,0,1.16-8l0,0a5.76,5.76,0,0,0-8.05-1.18h0l-18.3,13.79a5.84,5.84,0,0,0-2.38,4.2,5.75,5.75,0,0,0,2.31,5l18.4,13.78a5.69,5.69,0,0,0,8-1.08l.06-.09A5.76,5.76,0,0,0,355.28,359.18Z"/><path class="cls-2" d="M670.31,345.4,651.9,331.62a5.75,5.75,0,0,0-3.44-1.14,5.69,5.69,0,0,0-4.58,2.31v0a5.68,5.68,0,0,0,1,8l.08.06,4.62,3.45H609.38a5.74,5.74,0,0,0,0,11.47h40.28L645,359.15a5.73,5.73,0,0,0-1.18,8l0,.06a5.68,5.68,0,0,0,8,1.2l.07-.06,18.3-13.78a6.35,6.35,0,0,0,2.1-2.86v-3.55A5.58,5.58,0,0,0,670.31,345.4Z"/><path class="cls-2" d="M414,355.74a5.72,5.72,0,0,0,5.68-5.76v-.14a5.72,5.72,0,0,0-5.82-5.61h0a5.76,5.76,0,0,0,0,11.51Z"/><path class="cls-2" d="M580.64,350h0a5.76,5.76,0,1,0,11.51,0h0a5.76,5.76,0,0,0-11.51,0Z"/><path class="cls-2" d="M404.28,241.06a5.69,5.69,0,0,0,1.66-11.26h-.08l-22.77-3.28h-.83a5.78,5.78,0,0,0-5.69,4.9v-.17a6.75,6.75,0,0,0,0,1.68l3.24,22.78a5.74,5.74,0,0,0,11.38-1.58v0l-.82-5.68,32.56,32.66,8.17-8.3-32.5-32.5Z"/><path class="cls-2" d="M623.79,467l-3.45-22.78A5.69,5.69,0,0,0,609.1,446v0l.79,5.72-28.43-28.47a5.79,5.79,0,0,0-4.07-1.69,5.63,5.63,0,0,0-4.06,1.69v-.14a5.69,5.69,0,0,0-.1,8l.1.1,28.43,28.43-5.66-.8a5.76,5.76,0,0,0-2.29,11.28,4.69,4.69,0,0,0,.64.09l22.78,3.24h.83a5.73,5.73,0,0,0,5.72-5.72v0C623.8,467.54,623.8,467.27,623.79,467Z"/><path class="cls-2" d="M435.12,293.06a5.74,5.74,0,0,0,8.14-8.09h0a5.79,5.79,0,0,0-4.06-1.69,5.9,5.9,0,0,0-4.07,1.69,5.72,5.72,0,0,0,0,8.09Z"/><path class="cls-2" d="M565.2,406.91a5.68,5.68,0,0,0-4.06-1.79,5.57,5.57,0,0,0-4.07,1.69v.1a5.73,5.73,0,0,0,0,8.09h0a5.74,5.74,0,0,0,8.14-8.09Z"/><path class="cls-2" d="M426.75,423.35a5.57,5.57,0,0,0-4.07-1.69,5.67,5.67,0,0,0-4.07,1.69l.25-.18L390.43,451.6l.79-5.68a5.77,5.77,0,0,0-11.44-1.46h0l-3.45,22.78a5.71,5.71,0,0,0,4.85,6.47h1.67l22.74-3.24A5.76,5.76,0,0,0,404,459.08l-5.69.83,28.47-28.47a5.73,5.73,0,0,0,0-8.09Z"/><path class="cls-2" d="M581.43,276.89l28.43-28.42-.79,5.68a5.68,5.68,0,0,0,4.78,6.47h.08a5.76,5.76,0,0,0,6.65-4.69,2,2,0,0,1,0-.24l3.1-22.88A5.7,5.7,0,0,0,622.1,228a5.62,5.62,0,0,0-4-1.69,3.84,3.84,0,0,0-.83,0l-.07.18-22.78,3.24a5.68,5.68,0,0,0-4.81,6.44s0,.09,0,.14a5.69,5.69,0,0,0,6.4,4.87h.08l5.69-.8L573.3,268.76a5.75,5.75,0,0,0,8.13,8.13Z"/><path class="cls-2" d="M439.19,405.12a5.75,5.75,0,0,0-4.07,1.69v.1a5.75,5.75,0,1,0,8.13,0A5.6,5.6,0,0,0,439.19,405.12Z"/><path class="cls-2" d="M565.2,284.92a5.83,5.83,0,0,0-8.13,0,5.73,5.73,0,0,0,0,8.09h0a5.81,5.81,0,0,0,8.13,0,5.72,5.72,0,0,0,0-8.09Z"/></g></svg>