<?xml version="1.0" encoding="utf-8"?><svg xmlns="http://www.w3.org/2000/svg" viewBox="0 0 1000 700"><defs><style>.cls-1{fill:#fff;}</style></defs><title>4Artboard 11</title><g id="Layer_1" data-name="Layer 1"><rect width="1000" height="700"/></g><g id="Layer_2" data-name="Layer 2"><path class="cls-1" d="M334.82,350.4a50.69,50.69,0,0,1-.41,6.16,35,35,0,0,1-1.21,5.75,30.63,30.63,0,0,1-2,5.34,37.6,37.6,0,0,1-2.83,4.94,44.21,44.21,0,0,1-6.32,7.05,37.22,37.22,0,0,1-7.77,5.34,38.78,38.78,0,0,1-8.83,3.32,40.9,40.9,0,0,1-9.47,1.13,44.78,44.78,0,0,1-8.1-.72,34.83,34.83,0,0,1-7.45-2.27,33.54,33.54,0,0,1-6.64-3.81,40.32,40.32,0,0,1-6-5.26,33.17,33.17,0,0,1-4.7-5.91,48.07,48.07,0,0,1-3.4-6.72,37.9,37.9,0,0,1-2-7.37,51.66,51.66,0,0,1-.65-8.18,39.42,39.42,0,0,1,.73-7.61,36.15,36.15,0,0,1,2.19-7.21,35.17,35.17,0,0,1,3.64-6.64,35.65,35.65,0,0,1,5-5.91,37.24,37.24,0,0,1,5.91-4.78,40.7,40.7,0,0,1,6.64-3.56,39.31,39.31,0,0,1,7.21-2.19,42.56,42.56,0,0,1,7.77-.72,37.21,37.21,0,0,1,11.66,1.86,39.74,39.74,0,0,1,10.36,5.18,41,41,0,0,1,8.51,8.26,39.1,39.1,0,0,1,6,11H311.58a28,28,0,0,0-3.65-3.32,30.25,30.25,0,0,0-3.8-2.35,17.33,17.33,0,0,0-3.89-1.37,24,24,0,0,0-4.21-.41,19.32,19.32,0,0,0-7.77,1.54,19.6,19.6,0,0,0-6.32,4.21,19.11,19.11,0,0,0-4.21,6.4,20.73,20.73,0,0,0-1.54,7.69,22.31,22.31,0,0,0,1.62,8.42,21.28,21.28,0,0,0,4.37,6.8A19.78,19.78,0,0,0,288.5,369a18.28,18.28,0,0,0,7.53,1.62,21.06,21.06,0,0,0,5-.65,17.17,17.17,0,0,0,4.7-1.94,16,16,0,0,0,4-3.24,20,20,0,0,0,3.16-4.46H291.41V345.22h43.24a7.1,7.1,0,0,0,.08,1.3,6.23,6.23,0,0,1,.09,1.29Zm4.85,37.66V312.27h25.19c1.94,0,3.8,0,5.58.08a32,32,0,0,1,5,.56,26.19,26.19,0,0,1,4.46,1.3,15.66,15.66,0,0,1,4.05,2.27,28.55,28.55,0,0,1,4.29,3.88,22.38,22.38,0,0,1,3.24,4.86,30.73,30.73,0,0,1,2,5.75,27.87,27.87,0,0,1,.73,6.56,28.88,28.88,0,0,1-1.22,8.58,24.37,24.37,0,0,1-3.48,7.13,22.54,22.54,0,0,1-5.34,5.42,25,25,0,0,1-7.29,3.4l18.62,26H372.63l-14.58-24.38v24.38Zm22.11-40.89a33.17,33.17,0,0,0,6.07-.49,11.06,11.06,0,0,0,4.21-1.54,6.48,6.48,0,0,0,2.51-2.83,9.87,9.87,0,0,0,.81-4.29,9.72,9.72,0,0,0-.73-4,6.18,6.18,0,0,0-2.26-2.76,10.46,10.46,0,0,0-3.73-1.53,25.45,25.45,0,0,0-5.42-.49h-5.1v18Zm46.8-25.35a42.43,42.43,0,0,1,6-4.78,40.72,40.72,0,0,1,6.64-3.48,43.86,43.86,0,0,1,7.29-2.1,41.71,41.71,0,0,1,7.77-.73,37.86,37.86,0,0,1,7.53.73,36.05,36.05,0,0,1,7.13,2.18,34.21,34.21,0,0,1,6.56,3.57,36.47,36.47,0,0,1,5.83,4.77,46.65,46.65,0,0,1,5.1,6.08,41.89,41.89,0,0,1,3.73,6.72,38.42,38.42,0,0,1,2.18,7.2,38,38,0,0,1,.73,7.53,51.16,51.16,0,0,1-.65,8,33.18,33.18,0,0,1-2.1,7.37,41.09,41.09,0,0,1-3.48,6.72,33.55,33.55,0,0,1-4.7,5.91,33.14,33.14,0,0,1-6,5.1,43.55,43.55,0,0,1-6.8,3.73,45.21,45.21,0,0,1-7.37,2.26,36.29,36.29,0,0,1-7.86.81,37.89,37.89,0,0,1-8.09-.81,40.67,40.67,0,0,1-7.45-2.26,32.21,32.21,0,0,1-6.73-3.73,33.53,33.53,0,0,1-5.91-5.26,32.67,32.67,0,0,1-4.69-5.91,47,47,0,0,1-3.4-6.72,38.65,38.65,0,0,1-2-7.37,52.87,52.87,0,0,1-.65-8.18,40.22,40.22,0,0,1,.73-7.61,37.52,37.52,0,0,1,2.19-7.21,35.74,35.74,0,0,1,3.64-6.64,37.4,37.4,0,0,1,4.86-5.91Zm27.53,48.91a19.42,19.42,0,0,0,7.78-1.62,18.92,18.92,0,0,0,6.23-4.37,20.74,20.74,0,0,0,4.21-6.64,22.46,22.46,0,0,0,1.62-8.5,19.81,19.81,0,0,0-1.62-7.86,21.62,21.62,0,0,0-4.21-6.32,20.51,20.51,0,0,0-6.15-4.21,18.28,18.28,0,0,0-7.53-1.62,20,20,0,0,0-8,1.62,22.09,22.09,0,0,0-6.4,4.21,18.87,18.87,0,0,0-4.21,6.32,19.75,19.75,0,0,0-1.54,7.86,22,22,0,0,0,1.62,8.34,19.86,19.86,0,0,0,4.38,6.64,21.57,21.57,0,0,0,6.39,4.45,17.33,17.33,0,0,0,7.45,1.7Zm62.51-58.46v46.64a29.94,29.94,0,0,0,.49,5.67,10.79,10.79,0,0,0,1.62,4,7.37,7.37,0,0,0,2.83,2.43,9,9,0,0,0,4.05.81,9.71,9.71,0,0,0,4.21-.81,7.37,7.37,0,0,0,3.08-2.43,11.09,11.09,0,0,0,1.78-4,24,24,0,0,0,.57-5.75V312.27h18.62v47.45a35.06,35.06,0,0,1-2.1,12.39,26.36,26.36,0,0,1-5.75,9.31,25.13,25.13,0,0,1-8.91,5.83,31.48,31.48,0,0,1-11.58,2.1,30.27,30.27,0,0,1-11.5-2,23.94,23.94,0,0,1-8.66-5.75,26.12,26.12,0,0,1-5.43-9.23A37.83,37.83,0,0,1,480,359.72V312.27Zm42.43,75.79V312.27h25.19c2,0,3.88,0,5.66.08a34.42,34.42,0,0,1,5,.56,24.21,24.21,0,0,1,4.46,1.3,16.61,16.61,0,0,1,4,2.27,26.7,26.7,0,0,1,4.45,3.88,22.38,22.38,0,0,1,3.24,4.86,27.16,27.16,0,0,1,1.94,5.83,34.45,34.45,0,0,1,.65,6.64,27.74,27.74,0,0,1-.81,7,25,25,0,0,1-2.35,6.15,22.63,22.63,0,0,1-3.8,5.26,20,20,0,0,1-5.11,4,16.64,16.64,0,0,1-3.88,1.78,40.93,40.93,0,0,1-4.38,1.05,42.14,42.14,0,0,1-4.85.57c-1.7.08-3.57.16-5.59.16H559.6V388H541.05Zm22.27-40.89a32,32,0,0,0,5.91-.49,11.06,11.06,0,0,0,4.21-1.54,6.24,6.24,0,0,0,2.59-2.83,11.23,11.23,0,0,0,.17-8.34,6.27,6.27,0,0,0-2.27-2.76,10.09,10.09,0,0,0-3.89-1.53,25.7,25.7,0,0,0-5.34-.49h-4.94v18Zm46.32-25.35a41.86,41.86,0,0,1,6-4.78,39.92,39.92,0,0,1,6.64-3.48,43.86,43.86,0,0,1,7.29-2.1,41.71,41.71,0,0,1,7.77-.73,37.2,37.2,0,0,1,7.45.73,35,35,0,0,1,7,2.18,39.6,39.6,0,0,1,6.64,3.57,37.15,37.15,0,0,1,5.92,4.77,40.55,40.55,0,0,1,5,6.08,41.84,41.84,0,0,1,3.72,6.72,37.65,37.65,0,0,1,2.27,7.2,38.77,38.77,0,0,1,.73,7.53,43.9,43.9,0,0,1-.73,8,38.85,38.85,0,0,1-2.11,7.37,35.1,35.1,0,0,1-3.48,6.72,40.58,40.58,0,0,1-4.62,5.91,45.9,45.9,0,0,1-6.07,5.1,41.89,41.89,0,0,1-6.72,3.73,45.21,45.21,0,0,1-7.37,2.26,36.2,36.2,0,0,1-7.85.81,38,38,0,0,1-8.1-.81,41.14,41.14,0,0,1-7.45-2.26,32.14,32.14,0,0,1-6.72-3.73,45.09,45.09,0,0,1-10.61-11.17,48.07,48.07,0,0,1-3.4-6.72,44.76,44.76,0,0,1-2.1-7.37,43.52,43.52,0,0,1-.73-8.18,34,34,0,0,1,.81-7.61,38.11,38.11,0,0,1,2.27-7.21,35.17,35.17,0,0,1,3.64-6.64,42.38,42.38,0,0,1,4.86-5.91Zm27.53,48.91a19.41,19.41,0,0,0,7.77-1.62,18.86,18.86,0,0,0,6.24-4.37,19.43,19.43,0,0,0,4.13-6.64,22.43,22.43,0,0,0,1.53-8.5,19.74,19.74,0,0,0-1.53-7.86,21.61,21.61,0,0,0-4.13-6.32,19.84,19.84,0,0,0-6.24-4.21,18.94,18.94,0,0,0-7.61-1.62,19.8,19.8,0,0,0-7.85,1.62,22.09,22.09,0,0,0-6.4,4.21,18.87,18.87,0,0,0-4.21,6.32,19.75,19.75,0,0,0-1.54,7.86,22,22,0,0,0,1.62,8.34,19.84,19.84,0,0,0,4.37,6.64,21.61,21.61,0,0,0,6.4,4.45,17.59,17.59,0,0,0,7.45,1.7Zm42.67,17.33V312.27h16.68l27.86,42.1v-42.1H743v75.79H726.64l-28.18-42.27v42.27Z"/></g></svg>