<?xml version="1.0" encoding="utf-8"?><svg xmlns="http://www.w3.org/2000/svg" xmlns:xlink="http://www.w3.org/1999/xlink" viewBox="0 0 1000 700"><defs><style>.cls-1{fill:#fff;}.cls-2{clip-path:url(#clip-path);}</style><clipPath id="clip-path"><path class="cls-1" d="M552.71,316.34l21.62-10.48v41.37l-21.62,10.46Zm-78.61,8.43a4,4,0,0,0-1.72-5.34l-.12-.06-85.69-41.21,39.29-18.92,118.91,57.34h0v47.49a3.87,3.87,0,0,0,1.83,3.35,4.08,4.08,0,0,0,2.11.62,3.71,3.71,0,0,0,1.7-.41l29.73-14.27a4,4,0,0,0,2.16-3.43V302.05l36.51-17.6v135L504.1,474.78V339.83l27.34-13.22a4,4,0,0,0-3.43-7.13h0l-27.94,13.45-11-5.4a4,4,0,1,0-3.92,6.91,2.77,2.77,0,0,0,.46.22l10.46,5.06V474.78L381.49,419.41v-135l87.34,42.16a4,4,0,0,0,5.37-1.77l0-.07m-39-69.88,23.16-11.24,113.37,54.72-23.19,11.22Zm144.85,38.72L467.34,239.13l32.73-15.81,113.5,54.84L580.76,294a3.54,3.54,0,0,0-.67-.41m-81.67-78.23L375.76,274.59a3.92,3.92,0,0,0-2.25,3.57V421.9a4,4,0,0,0,2.25,3.7l122.61,59.18.56.22h2.33l.54-.22L624.38,425.6a4,4,0,0,0,2.11-2.51V277.16a3.91,3.91,0,0,0-2.11-2.52L501.85,215.38a4,4,0,0,0-3.43,0"/></clipPath></defs><title>4Artboard 1</title><g id="Layer_1" data-name="Layer 1"><rect width="1000" height="700"/></g><g id="Layer_2" data-name="Layer 2"><path class="cls-1" d="M552.71,316.34l21.62-10.48v41.37l-21.62,10.46Zm-78.61,8.43a4,4,0,0,0-1.72-5.34l-.12-.06-85.69-41.21,39.29-18.92,118.91,57.34h0v47.49a3.87,3.87,0,0,0,1.83,3.35,4.08,4.08,0,0,0,2.11.62,3.71,3.71,0,0,0,1.7-.41l29.73-14.27a4,4,0,0,0,2.16-3.43V302.05l36.51-17.6v135L504.1,474.78V339.83l27.34-13.22a4,4,0,0,0-3.43-7.13h0l-27.94,13.45-11-5.4a4,4,0,1,0-3.92,6.91,2.77,2.77,0,0,0,.46.22l10.46,5.06V474.78L381.49,419.41v-135l87.34,42.16a4,4,0,0,0,5.37-1.77l0-.07m-39-69.88,23.16-11.24,113.37,54.72-23.19,11.22Zm144.85,38.72L467.34,239.13l32.73-15.81,113.5,54.84L580.76,294a3.54,3.54,0,0,0-.67-.41m-81.67-78.23L375.76,274.59a3.92,3.92,0,0,0-2.25,3.57V421.9a4,4,0,0,0,2.25,3.7l122.61,59.18.56.22h2.33l.54-.22L624.38,425.6a4,4,0,0,0,2.11-2.51V277.16a3.91,3.91,0,0,0-2.11-2.52L501.85,215.38a4,4,0,0,0-3.43,0"/><path class="cls-1" d="M552.71,316.34l21.62-10.48v41.37l-21.62,10.46Zm-78.61,8.43a4,4,0,0,0-1.72-5.34l-.12-.06-85.69-41.21,39.29-18.92,118.91,57.34h0v47.49a3.87,3.87,0,0,0,1.83,3.35,4.08,4.08,0,0,0,2.11.62,3.71,3.71,0,0,0,1.7-.41l29.73-14.27a4,4,0,0,0,2.16-3.43V302.05l36.51-17.6v135L504.1,474.78V339.83l27.34-13.22a4,4,0,0,0-3.43-7.13h0l-27.94,13.45-11-5.4a4,4,0,1,0-3.92,6.91,2.77,2.77,0,0,0,.46.22l10.46,5.06V474.78L381.49,419.41v-135l87.34,42.16a4,4,0,0,0,5.37-1.77l0-.07m-39-69.88,23.16-11.24,113.37,54.72-23.19,11.22Zm144.85,38.72L467.34,239.13l32.73-15.81,113.5,54.84L580.76,294a3.54,3.54,0,0,0-.67-.41m-81.67-78.23L375.76,274.59a3.92,3.92,0,0,0-2.25,3.57V421.9a4,4,0,0,0,2.25,3.7l122.61,59.18.56.22h2.33l.54-.22L624.38,425.6a4,4,0,0,0,2.11-2.51V277.16a3.91,3.91,0,0,0-2.11-2.52L501.85,215.38a4,4,0,0,0-3.43,0"/><g class="cls-2"><polygon class="cls-1" points="373.57 423.55 435.07 485.05 373.57 485.05 373.57 423.55"/><polygon class="cls-1" points="373.57 422.17 436.45 485.05 435.07 485.05 373.57 423.55 373.57 422.17"/><polygon class="cls-1" points="373.57 420.79 437.83 485.05 436.45 485.05 373.57 422.17 373.57 420.79"/><polygon class="cls-1" points="373.57 419.41 439.21 485.05 437.83 485.05 373.57 420.79 373.57 419.41"/><polygon class="cls-1" points="373.57 418.03 440.59 485.05 439.21 485.05 373.57 419.41 373.57 418.03"/><polygon class="cls-1" points="373.57 416.65 441.97 485.05 440.59 485.05 373.57 418.03 373.57 416.65"/><polygon class="cls-1" points="373.57 415.28 443.32 485.05 441.97 485.05 373.57 416.65 373.57 415.28"/><polygon class="cls-1" points="373.57 413.9 444.7 485.05 443.32 485.05 373.57 415.28 373.57 413.9"/><polygon class="cls-1" points="373.57 412.55 446.07 485.05 444.7 485.05 373.57 413.9 373.57 412.55"/><polygon class="cls-1" points="373.57 411.17 447.45 485.05 446.07 485.05 373.57 412.52 373.57 411.17"/><polygon class="cls-1" points="373.57 409.79 448.83 485.05 447.45 485.05 373.57 411.17 373.57 409.79"/><polygon class="cls-1" points="373.57 408.41 450.21 485.05 448.83 485.05 373.57 409.79 373.57 408.41"/><polygon class="cls-1" points="373.57 407.04 451.59 485.05 450.21 485.05 373.57 408.41 373.57 407.04"/><polygon class="cls-1" points="373.57 405.66 452.96 485.05 451.59 485.05 373.57 407.04 373.57 405.66"/><polygon class="cls-1" points="373.57 404.28 454.34 485.05 452.96 485.05 373.57 405.66 373.57 404.28"/><polygon class="cls-1" points="373.57 402.9 455.69 485.05 454.34 485.05 373.57 404.28 373.57 402.9"/><polygon class="cls-1" points="373.57 401.52 457.07 485.05 455.69 485.05 373.57 402.9 373.57 401.52"/><polygon class="cls-1" points="373.57 400.17 458.45 485.05 457.07 485.05 373.57 401.52 373.57 400.17"/><polygon class="cls-1" points="373.57 398.79 459.83 485.05 458.45 485.05 373.57 400.17 373.57 398.79"/><polygon class="cls-1" points="373.57 397.41 461.21 485.05 459.83 485.05 373.57 398.79 373.57 397.41"/><polygon class="cls-1" points="373.57 396.04 462.59 485.05 461.21 485.05 373.57 397.41 373.57 396.04"/><polygon class="cls-1" points="373.57 394.66 463.94 485.05 462.59 485.05 373.57 396.04 373.57 394.66"/><polygon class="cls-1" points="373.57 393.28 465.34 485.05 463.94 485.05 373.57 394.66 373.57 393.28"/><polygon class="cls-1" points="373.57 391.9 466.69 485.05 465.34 485.05 373.57 393.28 373.57 391.9"/><polygon class="cls-1" points="373.57 390.52 468.07 485.05 466.69 485.05 373.57 391.9 373.57 390.52"/><polygon class="cls-1" points="373.57 389.17 469.45 485.05 468.07 485.05 373.57 390.52 373.57 389.17"/><polygon class="cls-1" points="373.57 387.79 470.83 485.05 469.45 485.05 373.57 389.17 373.57 387.79"/><polygon class="cls-1" points="373.57 386.42 472.21 485.05 470.83 485.05 373.57 387.79 373.57 386.42"/><polygon class="cls-1" points="373.57 385.04 473.58 485.05 472.21 485.05 373.57 386.42 373.57 385.04"/><polygon class="cls-1" points="373.57 383.66 474.96 485.05 473.58 485.05 373.57 385.04 373.57 383.66"/><polygon class="cls-1" points="373.57 382.28 476.34 485.05 474.96 485.05 373.57 383.66 373.57 382.28"/><polygon class="cls-1" points="373.57 380.9 477.69 485.05 476.34 485.05 373.57 382.28 373.57 380.9"/><polygon class="cls-1" points="373.57 379.52 479.07 485.05 477.69 485.05 373.57 380.9 373.57 379.52"/><polygon class="cls-1" points="373.57 378.17 480.45 485.05 479.07 485.05 373.57 379.52 373.57 378.17"/><polygon class="cls-1" points="373.57 376.8 481.83 485.05 480.45 485.05 373.57 378.15 373.57 376.8"/><polygon class="cls-1" points="373.57 375.42 483.2 485.05 481.83 485.05 373.57 376.8 373.57 375.42"/><polygon class="cls-1" points="373.57 374.04 484.58 485.05 483.2 485.05 373.57 375.42 373.57 374.04"/><polygon class="cls-1" points="373.57 372.66 485.96 485.05 484.58 485.05 373.57 374.04 373.57 372.66"/><polygon class="cls-1" points="373.57 371.28 487.31 485.05 485.96 485.05 373.57 372.66 373.57 371.28"/><polygon class="cls-1" points="373.57 369.9 488.69 485.05 487.31 485.05 373.57 371.28 373.57 369.9"/><polygon class="cls-1" points="373.57 368.52 490.07 485.05 488.69 485.05 373.57 369.9 373.57 368.52"/><polygon class="cls-1" points="373.57 367.15 491.45 485.05 490.07 485.05 373.57 368.52 373.57 367.15"/><polygon class="cls-1" points="373.57 365.8 492.83 485.05 491.45 485.05 373.57 367.15 373.57 365.8"/><polygon class="cls-1" points="373.57 364.42 494.2 485.05 492.83 485.05 373.57 365.8 373.57 364.42"/><polygon class="cls-1" points="373.57 363.04 495.58 485.05 494.2 485.05 373.57 364.42 373.57 363.04"/><polygon class="cls-1" points="373.57 361.66 496.96 485.05 495.58 485.05 373.57 363.04 373.57 361.66"/><polygon class="cls-1" points="373.57 360.28 498.34 485.05 496.96 485.05 373.57 361.66 373.57 360.28"/><polygon class="cls-1" points="373.57 358.9 499.69 485.05 498.34 485.05 373.57 360.28 373.57 358.9"/><polygon class="cls-1" points="373.57 357.53 501.07 485.05 499.69 485.05 373.57 358.9 373.57 357.53"/><polygon class="cls-1" points="373.57 356.15 502.45 485.05 501.07 485.05 373.57 357.53 373.57 356.15"/><polygon class="cls-1" points="373.57 354.8 503.82 485.05 502.45 485.05 373.57 356.15 373.57 354.8"/><polygon class="cls-1" points="373.57 353.42 505.2 485.05 503.82 485.05 373.57 354.8 373.57 353.42"/><polygon class="cls-1" points="373.57 352.04 506.58 485.05 505.2 485.05 373.57 353.42 373.57 352.04"/><polygon class="cls-1" points="373.57 350.66 507.96 485.05 506.58 485.05 373.57 352.04 373.57 350.66"/><polygon class="cls-1" points="373.57 349.28 509.34 485.05 507.96 485.05 373.57 350.66 373.57 349.28"/><polygon class="cls-1" points="373.57 347.91 510.72 485.05 509.34 485.05 373.57 349.28 373.57 347.91"/><polygon class="cls-1" points="373.57 346.53 512.07 485.05 510.72 485.05 373.57 347.91 373.57 346.53"/><polygon class="cls-1" points="373.57 345.15 513.45 485.05 512.07 485.05 373.57 346.53 373.57 345.15"/><polygon class="cls-1" points="373.57 343.8 514.82 485.05 513.45 485.05 373.57 345.15 373.57 343.8"/><polygon class="cls-1" points="373.57 342.42 516.2 485.05 514.82 485.05 373.57 343.77 373.57 342.42"/><polygon class="cls-1" points="373.57 341.04 517.58 485.05 516.2 485.05 373.57 342.42 373.57 341.04"/><polygon class="cls-1" points="373.57 339.66 518.96 485.05 517.58 485.05 373.57 341.04 373.57 339.66"/><polygon class="cls-1" points="373.57 338.29 520.31 485.05 518.96 485.05 373.57 339.66 373.57 338.29"/><polygon class="cls-1" points="373.57 336.91 521.72 485.05 520.31 485.05 373.57 338.29 373.57 336.91"/><polygon class="cls-1" points="373.57 335.53 523.07 485.05 521.72 485.05 373.57 336.91 373.57 335.53"/><polygon class="cls-1" points="373.57 334.15 524.44 485.05 523.07 485.05 373.57 335.53 373.57 334.15"/><polygon class="cls-1" points="373.57 332.8 525.82 485.05 524.44 485.05 373.57 334.15 373.57 332.8"/><polygon class="cls-1" points="373.57 331.42 527.2 485.05 525.82 485.05 373.57 332.8 373.57 331.42"/><polygon class="cls-1" points="373.57 330.04 528.58 485.05 527.2 485.05 373.57 331.42 373.57 330.04"/><polygon class="cls-1" points="373.57 328.66 529.96 485.05 528.58 485.05 373.57 330.04 373.57 328.66"/><polygon class="cls-1" points="373.57 327.29 531.34 485.05 529.96 485.05 373.57 328.66 373.57 327.29"/><polygon class="cls-1" points="373.57 325.91 532.71 485.05 531.34 485.05 373.57 327.29 373.57 325.91"/><polygon class="cls-1" points="373.57 324.53 534.09 485.05 532.71 485.05 373.57 325.91 373.57 324.53"/><polygon class="cls-1" points="373.57 323.15 535.44 485.05 534.09 485.05 373.57 324.53 373.57 323.15"/><polygon class="cls-1" points="373.57 321.8 536.82 485.05 535.44 485.05 373.57 323.15 373.57 321.8"/><polygon class="cls-1" points="373.57 320.42 538.2 485.05 536.82 485.05 373.57 321.77 373.57 320.42"/><polygon class="cls-1" points="373.57 319.04 539.58 485.05 538.2 485.05 373.57 320.42 373.57 319.04"/><polygon class="cls-1" points="373.57 317.67 540.96 485.05 539.58 485.05 373.57 319.04 373.57 317.67"/><polygon class="cls-1" points="373.57 316.29 542.34 485.05 540.96 485.05 373.57 317.67 373.57 316.29"/><polygon class="cls-1" points="373.57 314.91 543.71 485.05 542.34 485.05 373.57 316.29 373.57 314.91"/><polygon class="cls-1" points="373.57 313.53 545.06 485.05 543.71 485.05 373.57 314.91 373.57 313.53"/><polygon class="cls-1" points="373.57 312.15 546.44 485.05 545.06 485.05 373.57 313.53 373.57 312.15"/><polygon class="cls-1" points="373.57 310.8 547.82 485.05 546.44 485.05 373.57 312.15 373.57 310.8"/><polygon class="cls-1" points="373.57 309.42 549.2 485.05 547.82 485.05 373.57 310.8 373.57 309.42"/><polygon class="cls-1" points="373.57 308.05 550.58 485.05 549.2 485.05 373.57 309.4 373.57 308.05"/><polygon class="cls-1" points="373.57 306.67 551.96 485.05 550.58 485.05 373.57 308.05 373.57 306.67"/><polygon class="cls-1" points="373.57 305.29 553.33 485.05 551.96 485.05 373.57 306.67 373.57 305.29"/><polygon class="cls-1" points="373.57 303.91 554.71 485.05 553.33 485.05 373.57 305.29 373.57 303.91"/><polygon class="cls-1" points="373.57 302.53 556.06 485.05 554.71 485.05 373.57 303.91 373.57 302.53"/><polygon class="cls-1" points="373.57 301.15 557.44 485.05 556.06 485.05 373.57 302.53 373.57 301.15"/><polygon class="cls-1" points="373.57 299.77 558.82 485.05 557.44 485.05 373.57 301.15 373.57 299.77"/><polygon class="cls-1" points="373.57 298.42 560.2 485.05 558.82 485.05 373.57 299.77 373.57 298.42"/><polygon class="cls-1" points="373.57 297.05 561.58 485.05 560.2 485.05 373.57 298.42 373.57 297.05"/><polygon class="cls-1" points="373.57 295.67 562.95 485.05 561.58 485.05 373.57 297.05 373.57 295.67"/><polygon class="cls-1" points="373.57 294.29 564.33 485.05 562.95 485.05 373.57 295.67 373.57 294.29"/><polygon class="cls-1" points="373.57 292.91 565.71 485.05 564.33 485.05 373.57 294.29 373.57 292.91"/><polygon class="cls-1" points="373.57 291.53 567.09 485.05 565.71 485.05 373.57 292.91 373.57 291.53"/><polygon class="cls-1" points="373.57 290.15 568.44 485.05 567.09 485.05 373.57 291.53 373.57 290.15"/><polygon class="cls-1" points="373.57 288.78 569.82 485.05 568.44 485.05 373.57 290.15 373.57 288.78"/><polygon class="cls-1" points="373.57 287.4 571.2 485.05 569.82 485.05 373.57 288.78 373.57 287.4"/><polygon class="cls-1" points="373.57 286.05 572.58 485.05 571.2 485.05 373.57 287.4 373.57 286.05"/><polygon class="cls-1" points="373.57 284.67 573.95 485.05 572.58 485.05 373.57 286.05 373.57 284.67"/><polygon class="cls-1" points="373.57 283.29 575.33 485.05 573.95 485.05 373.57 284.67 373.57 283.29"/><polygon class="cls-1" points="373.57 281.91 576.71 485.05 575.33 485.05 373.57 283.29 373.57 281.91"/><polygon class="cls-1" points="373.57 280.53 577.65 484.62 577.22 485.05 576.71 485.05 373.57 281.91 373.57 280.53"/><polygon class="cls-1" points="373.57 279.16 578.33 483.92 577.65 484.62 373.57 280.53 373.57 279.16"/><polygon class="cls-1" points="373.57 277.78 579.03 483.24 578.33 483.92 373.57 279.16 373.57 277.78"/><polygon class="cls-1" points="373.57 276.4 579.71 482.57 579.03 483.24 373.57 277.78 373.57 276.4"/><polygon class="cls-1" points="373.57 275.05 580.38 481.87 579.71 482.57 373.57 276.4 373.57 275.05"/><polygon class="cls-1" points="373.57 273.67 581.09 481.19 580.38 481.87 373.57 275.05 373.57 273.67"/><polygon class="cls-1" points="373.57 272.29 581.76 480.49 581.09 481.19 373.57 273.67 373.57 272.29"/><polygon class="cls-1" points="373.57 270.91 582.47 479.81 581.76 480.49 373.57 272.29 373.57 270.91"/><polygon class="cls-1" points="373.57 269.54 583.14 479.11 582.47 479.81 373.57 270.91 373.57 269.54"/><polygon class="cls-1" points="373.57 268.16 583.84 478.43 583.14 479.11 373.57 269.54 373.57 268.16"/><polygon class="cls-1" points="373.57 266.78 584.52 477.76 583.84 478.43 373.57 268.16 373.57 266.78"/><polygon class="cls-1" points="373.57 265.4 585.2 477.06 584.52 477.76 373.57 266.78 373.57 265.4"/><polygon class="cls-1" points="373.57 264.48 373.78 264.26 585.9 476.38 585.2 477.06 373.57 265.43 373.57 264.48"/><rect class="cls-1" x="479.71" y="220" width="0.97" height="299.97" transform="translate(-121.31 445.29) rotate(-44.75)"/><rect class="cls-1" x="480.4" y="219.28" width="0.97" height="299.97" transform="translate(-120.26 448.2) rotate(-45)"/><rect class="cls-1" x="481.08" y="218.62" width="0.97" height="299.97" transform="translate(-119.6 448.48) rotate(-45)"/><rect class="cls-1" x="481.75" y="217.92" width="0.97" height="299.97" transform="translate(-118.91 448.75) rotate(-45)"/><rect class="cls-1" x="482.46" y="217.24" width="0.97" height="299.97" transform="translate(-118.56 446.43) rotate(-44.75)"/><rect class="cls-1" x="483.11" y="216.56" width="0.97" height="299.97" transform="translate(-117.54 449.32) rotate(-45)"/><rect class="cls-1" x="483.84" y="215.86" width="0.97" height="299.97" transform="translate(-116.84 449.62) rotate(-45)"/><rect class="cls-1" x="484.52" y="215.2" width="0.97" height="299.97" transform="translate(-116.53 447.29) rotate(-44.75)"/><rect class="cls-1" x="485.21" y="214.48" width="0.97" height="299.97" transform="translate(-115.45 450.19) rotate(-45)"/><rect class="cls-1" x="485.89" y="213.82" width="0.97" height="299.97" transform="translate(-114.79 450.47) rotate(-45)"/><rect class="cls-1" x="486.59" y="213.09" width="0.97" height="299.97" transform="translate(-114.07 450.76) rotate(-45)"/><polygon class="cls-1" points="381.35 256.7 382.05 256.02 594.14 468.11 593.47 468.81 381.35 256.7"/><rect class="cls-1" x="487.94" y="211.71" width="0.97" height="299.97" transform="translate(-112.7 451.31) rotate(-45)"/><rect class="cls-1" x="488.65" y="211.05" width="0.97" height="299.97" transform="translate(-112.03 451.61) rotate(-45)"/><polygon class="cls-1" points="383.4 254.65 384.11 253.94 596.22 466.06 595.52 466.76 383.4 254.65"/><rect class="cls-1" x="490.02" y="209.67" width="0.97" height="299.97" transform="translate(-110.65 452.18) rotate(-45)"/><rect class="cls-1" x="490.7" y="208.99" width="0.97" height="299.97" transform="translate(-109.97 452.46) rotate(-45)"/><rect class="cls-1" x="491.4" y="208.29" width="0.97" height="299.97" transform="translate(-109.27 452.75) rotate(-45)"/><rect class="cls-1" x="492.08" y="207.63" width="0.97" height="299.97" transform="translate(-108.61 453.04) rotate(-45)"/><rect class="cls-1" x="492.76" y="206.91" width="0.97" height="299.97" transform="translate(-108.31 450.69) rotate(-44.75)"/><rect class="cls-1" x="493.46" y="206.25" width="0.97" height="299.97" transform="translate(-107.22 453.61) rotate(-45)"/><rect class="cls-1" x="494.13" y="205.53" width="0.97" height="299.97" transform="translate(-106.52 453.88) rotate(-45)"/><rect class="cls-1" x="494.83" y="204.87" width="0.97" height="299.97" transform="translate(-106.27 451.55) rotate(-44.75)"/><rect class="cls-1" x="495.51" y="204.18" width="0.97" height="299.97" transform="translate(-105.16 454.46) rotate(-45)"/><rect class="cls-1" x="496.21" y="203.49" width="0.97" height="299.97" transform="translate(-104.46 454.75) rotate(-45)"/><rect class="cls-1" x="496.9" y="202.8" width="0.97" height="299.97" transform="translate(-104.22 452.41) rotate(-44.75)"/><rect class="cls-1" x="497.59" y="202.11" width="0.97" height="299.97" transform="translate(-103.08 455.32) rotate(-45)"/><rect class="cls-1" x="498.27" y="201.42" width="0.97" height="299.97" transform="translate(-102.4 455.6) rotate(-45)"/><rect class="cls-1" x="498.94" y="200.72" width="0.97" height="299.97" transform="translate(-101.71 455.87) rotate(-45)"/><polygon class="cls-1" points="393.73 244.32 394.4 243.65 606.52 455.73 605.84 456.44 393.73 244.32"/><rect class="cls-1" x="500.3" y="199.36" width="0.97" height="299.97" transform="translate(-100.35 456.43) rotate(-45)"/><rect class="cls-1" x="501.02" y="198.69" width="0.97" height="299.97" transform="translate(-99.66 456.74) rotate(-45)"/><polygon class="cls-1" points="395.78 242.27 396.48 241.56 608.57 453.68 607.9 454.38 395.78 242.27"/><rect class="cls-1" x="502.4" y="197.3" width="0.97" height="299.97" transform="translate(-98.28 457.31) rotate(-45)"/><rect class="cls-1" x="503.08" y="196.62" width="0.97" height="299.97" transform="translate(-97.6 457.59) rotate(-45)"/><rect class="cls-1" x="503.78" y="195.92" width="0.97" height="299.97" transform="translate(-96.9 457.88) rotate(-45)"/><rect class="cls-1" x="504.45" y="195.24" width="0.97" height="299.97" transform="translate(-96.21 458.16) rotate(-45)"/><rect class="cls-1" x="505.14" y="194.54" width="0.97" height="299.97" transform="translate(-96.01 455.81) rotate(-44.75)"/><rect class="cls-1" x="505.83" y="193.86" width="0.97" height="299.97" transform="translate(-94.83 458.73) rotate(-45)"/><rect class="cls-1" x="506.49" y="193.18" width="0.97" height="299.97" transform="translate(-94.16 459) rotate(-45)"/><rect class="cls-1" x="507.2" y="192.5" width="0.97" height="299.97" transform="translate(-93.98 456.68) rotate(-44.75)"/><rect class="cls-1" x="507.89" y="191.82" width="0.97" height="299.97" transform="translate(-92.79 459.59) rotate(-45)"/><rect class="cls-1" x="508.59" y="191.09" width="0.97" height="299.97" transform="translate(-92.07 459.87) rotate(-45)"/><rect class="cls-1" x="509.27" y="190.43" width="0.97" height="299.97" transform="translate(-91.41 460.16) rotate(-45)"/><rect class="cls-1" x="509.95" y="189.73" width="0.97" height="299.97" transform="translate(-91.24 457.81) rotate(-44.75)"/><rect class="cls-1" x="510.64" y="189.05" width="0.97" height="299.97" transform="translate(-90.03 460.73) rotate(-45)"/><rect class="cls-1" x="511.3" y="188.37" width="0.97" height="299.97" transform="translate(-89.36 460.99) rotate(-45)"/><rect class="cls-1" x="512.01" y="187.67" width="0.97" height="299.97" transform="translate(-89.18 458.67) rotate(-44.75)"/><rect class="cls-1" x="512.7" y="187.01" width="0.97" height="299.97" transform="translate(-87.98 461.58) rotate(-45)"/><rect class="cls-1" x="513.4" y="186.29" width="0.97" height="299.97" transform="translate(-87.27 461.86) rotate(-45)"/><rect class="cls-1" x="514.08" y="185.63" width="0.97" height="299.97" transform="translate(-86.6 462.15) rotate(-45)"/><polygon class="cls-1" points="408.86 229.19 409.54 228.51 621.65 440.63 620.95 441.3 408.86 229.19"/><rect class="cls-1" x="515.45" y="184.25" width="0.97" height="299.97" transform="translate(-85.22 462.72) rotate(-45)"/><rect class="cls-1" x="516.13" y="183.53" width="0.97" height="299.97" transform="translate(-84.51 462.99) rotate(-45)"/><polygon class="cls-1" points="410.92 227.13 411.62 226.46 623.71 438.55 623.03 439.25 410.92 227.13"/><rect class="cls-1" x="517.51" y="182.18" width="0.97" height="299.97" transform="translate(-83.16 463.57) rotate(-45)"/><rect class="cls-1" x="518.21" y="181.49" width="0.97" height="299.97" transform="translate(-82.46 463.86) rotate(-45)"/><polygon class="cls-1" points="412.97 225.08 413.67 224.38 625.76 436.49 625.08 437.19 412.97 225.08"/><rect class="cls-1" x="519.59" y="180.1" width="0.97" height="299.97" transform="translate(-81.08 464.43) rotate(-45)"/><polygon class="cls-1" points="414.35 223.7 415.05 223 626.71 434.68 626.71 435.55 626.46 435.82 414.35 223.7"/><polygon class="cls-1" points="415.05 223.03 415.73 222.32 626.71 433.3 626.71 434.68 415.05 223.03"/><polygon class="cls-1" points="415.73 222.32 416.43 221.65 626.71 431.92 626.71 433.3 415.73 222.32"/><polygon class="cls-1" points="416.43 221.62 417.1 220.94 626.71 430.55 626.71 431.92 416.43 221.62"/><polygon class="cls-1" points="417.1 220.94 417.78 220.27 626.71 429.19 626.71 430.55 417.1 220.94"/><polygon class="cls-1" points="417.78 220.27 418.48 219.57 626.71 427.82 626.71 429.19 417.78 220.27"/><polygon class="cls-1" points="418.48 219.57 419.16 218.89 626.71 426.44 626.71 427.82 418.48 219.57"/><polygon class="cls-1" points="419.16 218.89 419.86 218.19 626.71 425.06 626.71 426.44 419.16 218.89"/><polygon class="cls-1" points="419.86 218.19 420.54 217.51 626.71 423.68 626.71 425.06 419.86 218.19"/><polygon class="cls-1" points="420.54 217.51 421.24 216.81 626.71 422.3 626.71 423.68 420.54 217.51"/><polygon class="cls-1" points="421.21 216.81 421.91 216.13 626.71 420.93 626.71 422.3 421.21 216.81"/><polygon class="cls-1" points="421.91 216.13 422.62 215.46 626.71 419.55 626.71 420.93 421.91 216.13"/><polygon class="cls-1" points="422.59 215.46 423.18 214.87 423.4 214.87 626.71 418.17 626.71 419.55 422.59 215.46"/><polygon class="cls-1" points="424.75 214.87 626.71 416.82 626.71 418.17 423.4 214.87 424.75 214.87"/><polygon class="cls-1" points="426.13 214.87 626.71 415.44 626.71 416.82 424.75 214.87 426.13 214.87"/><polygon class="cls-1" points="427.51 214.87 626.71 414.06 626.71 415.44 426.13 214.87 427.51 214.87"/><polygon class="cls-1" points="428.89 214.87 626.71 412.68 626.71 414.06 427.51 214.87 428.89 214.87"/><polygon class="cls-1" points="430.26 214.87 626.71 411.31 626.71 412.68 428.89 214.87 430.26 214.87"/><polygon class="cls-1" points="431.64 214.87 626.71 409.93 626.71 411.31 430.26 214.87 431.64 214.87"/><polygon class="cls-1" points="433.02 214.87 626.71 408.55 626.71 409.93 431.64 214.87 433.02 214.87"/><polygon class="cls-1" points="434.4 214.87 626.71 407.17 626.71 408.55 433.02 214.87 434.4 214.87"/><polygon class="cls-1" points="435.75 214.87 626.71 405.82 626.71 407.17 434.4 214.87 435.75 214.87"/><polygon class="cls-1" points="437.13 214.87 626.71 404.44 626.71 405.82 435.75 214.87 437.13 214.87"/><polygon class="cls-1" points="438.51 214.87 626.71 403.06 626.71 404.44 437.13 214.87 438.51 214.87"/><polygon class="cls-1" points="439.88 214.87 626.71 401.68 626.71 403.06 438.51 214.87 439.88 214.87"/><polygon class="cls-1" points="441.26 214.87 626.71 400.31 626.71 401.68 439.88 214.87 441.26 214.87"/><polygon class="cls-1" points="442.64 214.87 626.71 398.93 626.71 400.31 441.26 214.87 442.64 214.87"/><polygon class="cls-1" points="444.02 214.87 626.71 397.55 626.71 398.93 442.64 214.87 444.02 214.87"/><polygon class="cls-1" points="461.32 214.87 626.71 380.28 626.71 397.55 444.02 214.87 461.32 214.87"/><polygon class="cls-1" points="478.61 214.87 626.71 362.99 626.71 380.28 461.32 214.87 478.61 214.87"/><polygon class="cls-1" points="495.88 214.87 626.71 345.69 626.71 362.99 478.61 214.87 495.88 214.87"/><polygon class="cls-1" points="513.17 214.87 626.71 328.39 626.71 345.69 495.88 214.87 513.17 214.87"/><polygon class="cls-1" points="530.47 214.87 626.71 311.1 626.71 328.39 513.17 214.87 530.47 214.87"/><polygon class="cls-1" points="547.77 214.87 626.71 293.8 626.71 311.1 530.47 214.87 547.77 214.87"/><polygon class="cls-1" points="565.06 214.87 626.71 276.51 626.71 293.8 547.77 214.87 565.06 214.87"/><polygon class="cls-1" points="626.71 276.51 565.06 214.87 626.71 214.87 626.71 276.51"/><polygon class="cls-1" points="467.34 293.18 468.18 294.02 467.34 294.02 467.34 293.18"/><polygon class="cls-1" points="467.34 291.8 469.56 294.02 468.18 294.02 467.34 293.18 467.34 291.8"/><polygon class="cls-1" points="467.34 290.43 470.94 294.02 469.56 294.02 467.34 291.8 467.34 290.43"/><polygon class="cls-1" points="467.34 289.07 472.31 294.02 470.94 294.02 467.34 290.43 467.34 289.07"/><polygon class="cls-1" points="467.34 287.67 473.67 294.02 472.31 294.02 467.34 289.07 467.34 287.67"/><polygon class="cls-1" points="467.34 286.32 475.04 294.02 473.67 294.02 467.34 287.67 467.34 286.32"/><polygon class="cls-1" points="467.34 284.94 476.42 294.02 475.04 294.02 467.34 286.32 467.34 284.94"/><polygon class="cls-1" points="467.34 283.56 477.8 294.02 476.42 294.02 467.34 284.94 467.34 283.56"/><polygon class="cls-1" points="467.34 282.18 479.18 294.02 477.8 294.02 467.34 283.56 467.34 282.18"/><polygon class="cls-1" points="467.34 280.8 480.56 294.02 479.18 294.02 467.34 282.18 467.34 280.8"/><polygon class="cls-1" points="467.34 279.43 481.94 294.02 480.56 294.02 467.34 280.8 467.34 279.43"/><polygon class="cls-1" points="467.34 278.05 483.31 294.02 481.94 294.02 467.34 279.43 467.34 278.05"/><polygon class="cls-1" points="467.34 276.67 484.69 294.02 483.31 294.02 467.34 278.05 467.34 276.67"/><polygon class="cls-1" points="467.34 275.32 486.04 294.02 484.69 294.02 467.34 276.67 467.34 275.32"/><polygon class="cls-1" points="467.34 273.94 487.42 294.02 486.04 294.02 467.34 275.32 467.34 273.94"/><polygon class="cls-1" points="467.34 272.56 488.8 294.02 487.42 294.02 467.34 273.94 467.34 272.56"/><polygon class="cls-1" points="467.34 271.18 490.18 294.02 488.8 294.02 467.34 272.56 467.34 271.18"/><polygon class="cls-1" points="467.34 269.81 491.56 294.02 490.18 294.02 467.34 271.18 467.34 269.81"/><polygon class="cls-1" points="467.34 268.43 492.93 294.02 491.56 294.02 467.34 269.81 467.34 268.43"/><polygon class="cls-1" points="467.34 267.05 494.31 294.02 492.93 294.02 467.34 268.43 467.34 267.05"/><polygon class="cls-1" points="467.34 265.67 495.69 294.02 494.31 294.02 467.34 267.05 467.34 265.67"/><polygon class="cls-1" points="467.34 264.32 497.04 294.02 495.69 294.02 467.34 265.67 467.34 264.32"/><polygon class="cls-1" points="467.34 262.94 498.42 294.02 497.04 294.02 467.34 264.32 467.34 262.94"/><polygon class="cls-1" points="467.34 261.56 499.8 294.02 498.42 294.02 467.34 262.94 467.34 261.56"/><polygon class="cls-1" points="467.34 260.19 501.18 294.02 499.8 294.02 467.34 261.56 467.34 260.19"/><polygon class="cls-1" points="467.34 258.81 502.56 294.02 501.18 294.02 467.34 260.19 467.34 258.81"/><polygon class="cls-1" points="467.34 257.43 503.93 294.02 502.56 294.02 467.34 258.81 467.34 257.43"/><polygon class="cls-1" points="467.34 256.05 505.31 294.02 503.93 294.02 467.34 257.43 467.34 256.05"/><polygon class="cls-1" points="467.34 254.7 506.69 294.02 505.31 294.02 467.34 256.05 467.34 254.7"/><polygon class="cls-1" points="467.34 253.32 508.07 294.02 506.69 294.02 467.34 254.7 467.34 253.32"/><polygon class="cls-1" points="467.34 251.94 509.42 294.02 508.07 294.02 467.34 253.29 467.34 251.94"/><polygon class="cls-1" points="467.34 250.56 510.8 294.02 509.42 294.02 467.34 251.94 467.34 250.56"/><polygon class="cls-1" points="467.34 249.19 512.17 294.02 510.8 294.02 467.34 250.56 467.34 249.19"/><polygon class="cls-1" points="467.34 247.81 513.55 294.02 512.17 294.02 467.34 249.19 467.34 247.81"/><polygon class="cls-1" points="467.34 246.43 514.93 294.02 513.55 294.02 467.34 247.81 467.34 246.43"/><polygon class="cls-1" points="467.34 245.05 516.31 294.02 514.93 294.02 467.34 246.43 467.34 245.05"/><polygon class="cls-1" points="467.34 243.67 517.69 294.02 516.31 294.02 467.34 245.05 467.34 243.67"/><polygon class="cls-1" points="467.34 242.32 519.04 294.02 517.69 294.02 467.34 243.67 467.34 242.32"/><polygon class="cls-1" points="467.34 240.94 520.42 294.02 519.04 294.02 467.34 242.32 467.34 240.94"/><polygon class="cls-1" points="467.34 239.56 521.8 294.02 520.42 294.02 467.34 240.94 467.34 239.56"/><polygon class="cls-1" points="467.34 238.19 523.17 294.02 521.8 294.02 467.34 239.56 467.34 238.19"/><polygon class="cls-1" points="467.34 227.57 470.67 224.22 540.47 294.02 523.17 294.02 467.34 238.19 467.34 227.57"/><polygon class="cls-1" points="470.67 224.22 471.56 223.32 487.07 223.32 557.76 294.02 540.47 294.02 470.67 224.22"/><polygon class="cls-1" points="504.37 223.32 575.06 294.02 557.76 294.02 487.07 223.32 504.37 223.32"/><polygon class="cls-1" points="521.66 223.32 592.36 294.02 575.06 294.02 504.37 223.32 521.66 223.32"/><polygon class="cls-1" points="538.96 223.32 609.52 293.88 609.38 294.02 592.36 294.02 521.66 223.32 538.96 223.32"/><polygon class="cls-1" points="556.25 223.32 613.65 280.75 613.65 289.75 609.52 293.88 538.96 223.32 556.25 223.32"/><polygon class="cls-1" points="573.55 223.32 613.65 263.45 613.65 280.75 556.25 223.32 573.55 223.32"/><polygon class="cls-1" points="613.65 263.45 573.55 223.35 613.65 223.35 613.65 263.45"/><polygon class="cls-1" points="435.24 309.21 435.62 309.58 435.24 309.58 435.24 309.21"/><polygon class="cls-1" points="435.24 307.83 436.99 309.58 435.62 309.58 435.24 309.21 435.24 307.83"/><polygon class="cls-1" points="435.24 306.45 438.35 309.58 436.99 309.58 435.24 307.83 435.24 306.45"/><polygon class="cls-1" points="435.24 305.07 439.72 309.58 438.35 309.58 435.24 306.45 435.24 305.07"/><polygon class="cls-1" points="435.24 303.69 441.1 309.58 439.72 309.58 435.24 305.07 435.24 303.69"/><polygon class="cls-1" points="435.24 302.32 442.48 309.58 441.1 309.58 435.24 303.69 435.24 302.32"/><polygon class="cls-1" points="435.24 300.96 443.86 309.58 442.48 309.58 435.24 302.32 435.24 300.96"/><polygon class="cls-1" points="435.24 299.59 445.24 309.58 443.86 309.58 435.24 300.94 435.24 299.59"/><polygon class="cls-1" points="435.24 298.21 446.61 309.58 445.24 309.58 435.24 299.59 435.24 298.21"/><polygon class="cls-1" points="435.24 296.83 447.99 309.58 446.61 309.58 435.24 298.21 435.24 296.83"/><polygon class="cls-1" points="435.24 295.45 449.34 309.58 447.99 309.58 435.24 296.83 435.24 295.45"/><polygon class="cls-1" points="435.24 294.07 450.72 309.58 449.34 309.58 435.24 295.45 435.24 294.07"/><polygon class="cls-1" points="435.24 292.69 452.1 309.58 450.72 309.58 435.24 294.07 435.24 292.69"/><polygon class="cls-1" points="435.24 291.32 453.48 309.58 452.1 309.58 435.24 292.69 435.24 291.32"/><polygon class="cls-1" points="435.24 289.96 454.86 309.58 453.48 309.58 435.24 291.32 435.24 289.96"/><polygon class="cls-1" points="435.24 288.59 456.24 309.58 454.86 309.58 435.24 289.96 435.24 288.59"/><polygon class="cls-1" points="435.24 287.21 457.61 309.58 456.24 309.58 435.24 288.59 435.24 287.21"/><polygon class="cls-1" points="435.24 285.83 458.99 309.58 457.61 309.58 435.24 287.21 435.24 285.83"/><polygon class="cls-1" points="435.24 284.45 460.37 309.58 458.99 309.58 435.24 285.83 435.24 284.45"/><polygon class="cls-1" points="435.24 283.07 461.72 309.58 460.37 309.58 435.24 284.45 435.24 283.07"/><polygon class="cls-1" points="435.24 281.7 463.1 309.58 461.72 309.58 435.24 283.07 435.24 281.7"/><polygon class="cls-1" points="435.24 280.32 464.48 309.58 463.1 309.58 435.24 281.7 435.24 280.32"/><polygon class="cls-1" points="435.24 278.94 465.86 309.58 464.48 309.58 435.24 280.32 435.24 278.94"/><polygon class="cls-1" points="435.24 277.59 467.23 309.58 465.86 309.58 435.24 278.94 435.24 277.59"/><polygon class="cls-1" points="435.24 276.21 468.61 309.58 467.23 309.58 435.24 277.59 435.24 276.21"/><polygon class="cls-1" points="435.24 274.83 469.99 309.58 468.61 309.58 435.24 276.21 435.24 274.83"/><polygon class="cls-1" points="435.24 273.45 471.37 309.58 469.99 309.58 435.24 274.83 435.24 273.45"/><polygon class="cls-1" points="435.24 272.07 472.75 309.58 471.37 309.58 435.24 273.45 435.24 272.07"/><polygon class="cls-1" points="435.24 270.7 474.1 309.58 472.75 309.58 435.24 272.07 435.24 270.7"/><polygon class="cls-1" points="435.24 269.32 475.48 309.58 474.1 309.58 435.24 270.7 435.24 269.32"/><polygon class="cls-1" points="435.24 267.94 476.86 309.58 475.48 309.58 435.24 269.32 435.24 267.94"/><polygon class="cls-1" points="435.24 266.59 478.23 309.58 476.86 309.58 435.24 267.94 435.24 266.59"/><polygon class="cls-1" points="435.24 265.21 479.61 309.58 478.23 309.58 435.24 266.59 435.24 265.21"/><polygon class="cls-1" points="435.24 263.83 480.99 309.58 479.61 309.58 435.24 265.21 435.24 263.83"/><polygon class="cls-1" points="435.24 262.45 482.37 309.58 480.99 309.58 435.24 263.83 435.24 262.45"/><polygon class="cls-1" points="435.24 261.08 483.72 309.58 482.37 309.58 435.24 262.45 435.24 261.08"/><polygon class="cls-1" points="435.24 259.7 485.12 309.58 483.72 309.58 435.24 261.08 435.24 259.7"/><polygon class="cls-1" points="435.24 258.32 486.48 309.58 485.12 309.58 435.24 259.7 435.24 258.32"/><polygon class="cls-1" points="435.24 256.94 487.85 309.58 486.48 309.58 435.24 258.32 435.24 256.94"/><polygon class="cls-1" points="435.24 255.59 489.23 309.58 487.85 309.58 435.24 256.94 435.24 255.59"/><polygon class="cls-1" points="435.24 254.21 490.61 309.58 489.23 309.58 435.24 255.59 435.24 254.21"/><polygon class="cls-1" points="435.24 252.83 491.99 309.58 490.61 309.58 435.24 254.21 435.24 252.83"/><polygon class="cls-1" points="435.24 251.46 493.37 309.58 491.99 309.58 435.24 252.83 435.24 251.46"/><polygon class="cls-1" points="435.24 250.08 494.72 309.58 493.37 309.58 435.24 251.46 435.24 250.08"/><polygon class="cls-1" points="435.24 248.7 496.1 309.58 494.72 309.58 435.24 250.08 435.24 248.7"/><polygon class="cls-1" points="435.24 247.32 497.47 309.58 496.1 309.58 435.24 248.7 435.24 247.32"/><polygon class="cls-1" points="435.24 245.94 498.85 309.58 497.47 309.58 435.24 247.32 435.24 245.94"/><polygon class="cls-1" points="435.24 244.59 500.23 309.58 498.85 309.58 435.24 245.94 435.24 244.59"/><polygon class="cls-1" points="435.67 243.65 501.61 309.58 500.23 309.58 435.24 244.59 435.24 243.65 435.67 243.65"/><polygon class="cls-1" points="437.05 243.65 502.99 309.58 501.61 309.58 435.67 243.65 437.05 243.65"/><polygon class="cls-1" points="438.43 243.65 504.37 309.58 502.99 309.58 437.05 243.65 438.43 243.65"/><polygon class="cls-1" points="439.8 243.65 505.72 309.58 504.37 309.58 438.43 243.65 439.8 243.65"/><polygon class="cls-1" points="441.18 243.65 507.12 309.58 505.74 309.58 439.8 243.65 441.18 243.65"/><polygon class="cls-1" points="442.56 243.65 508.5 309.58 507.1 309.58 441.18 243.65 442.56 243.65"/><polygon class="cls-1" points="443.94 243.65 509.85 309.58 508.47 309.58 442.56 243.65 443.94 243.65"/><polygon class="cls-1" points="445.29 243.65 511.23 309.58 509.85 309.58 443.94 243.65 445.29 243.65"/><polygon class="cls-1" points="446.67 243.65 512.61 309.58 511.23 309.58 445.29 243.65 446.67 243.65"/><polygon class="cls-1" points="448.05 243.65 513.99 309.58 512.61 309.58 446.67 243.65 448.05 243.65"/><polygon class="cls-1" points="449.43 243.65 515.36 309.58 513.99 309.58 448.05 243.65 449.43 243.65"/><polygon class="cls-1" points="450.8 243.65 516.72 309.58 515.36 309.58 449.43 243.65 450.8 243.65"/><polygon class="cls-1" points="452.18 243.65 518.09 309.58 516.74 309.58 450.8 243.65 452.18 243.65"/><polygon class="cls-1" points="453.56 243.65 519.47 309.58 518.09 309.58 452.18 243.65 453.56 243.65"/><polygon class="cls-1" points="454.94 243.65 520.85 309.58 519.47 309.58 453.56 243.65 454.94 243.65"/><polygon class="cls-1" points="456.29 243.65 522.23 309.58 520.85 309.58 454.94 243.65 456.29 243.65"/><polygon class="cls-1" points="457.67 243.65 523.61 309.58 522.23 309.58 456.29 243.65 457.67 243.65"/><polygon class="cls-1" points="459.05 243.65 524.99 309.58 523.61 309.58 457.67 243.65 459.05 243.65"/><polygon class="cls-1" points="460.42 243.65 526.36 309.58 524.99 309.58 459.05 243.65 460.42 243.65"/><polygon class="cls-1" points="461.8 243.65 527.71 309.58 526.36 309.58 460.42 243.65 461.8 243.65"/><polygon class="cls-1" points="463.18 243.65 529.12 309.58 527.74 309.58 461.8 243.65 463.18 243.65"/><polygon class="cls-1" points="464.56 243.65 530.47 309.58 529.09 309.58 463.18 243.65 464.56 243.65"/><polygon class="cls-1" points="465.94 243.65 531.85 309.58 530.47 309.58 464.56 243.65 465.94 243.65"/><polygon class="cls-1" points="467.31 243.65 533.23 309.58 531.85 309.58 465.94 243.65 467.31 243.65"/><polygon class="cls-1" points="468.67 243.65 534.61 309.58 533.23 309.58 467.29 243.65 468.67 243.65"/><polygon class="cls-1" points="470.05 243.65 535.98 309.58 534.61 309.58 468.67 243.65 470.05 243.65"/><polygon class="cls-1" points="471.42 243.65 537.36 309.58 535.98 309.58 470.05 243.65 471.42 243.65"/><polygon class="cls-1" points="472.8 243.65 538.74 309.58 537.36 309.58 471.42 243.65 472.8 243.65"/><polygon class="cls-1" points="490.1 243.65 556.04 309.58 538.74 309.58 472.8 243.65 490.1 243.65"/><polygon class="cls-1" points="507.39 243.65 571.76 308.02 571.76 309.58 556.04 309.58 490.1 243.65 507.39 243.65"/><polygon class="cls-1" points="524.69 243.65 571.76 290.72 571.76 308.02 507.39 243.65 524.69 243.65"/><polygon class="cls-1" points="541.98 243.65 571.76 273.43 571.76 290.72 524.69 243.65 541.98 243.65"/><polygon class="cls-1" points="559.28 243.65 571.76 256.13 571.76 273.43 541.98 243.65 559.28 243.65"/><polygon class="cls-1" points="571.76 256.13 559.28 243.65 571.76 243.65 571.76 256.13"/><polygon class="cls-1" points="552.71 356.55 553.93 357.77 552.71 357.77 552.71 356.55"/><polygon class="cls-1" points="552.71 355.2 555.31 357.77 553.93 357.77 552.71 356.55 552.71 355.2"/><polygon class="cls-1" points="552.71 353.82 556.66 357.77 555.31 357.77 552.71 355.2 552.71 353.82"/><polygon class="cls-1" points="552.71 352.45 558.04 357.77 556.66 357.77 552.71 353.82 552.71 352.45"/><polygon class="cls-1" points="552.71 351.07 559.41 357.77 558.04 357.77 552.71 352.45 552.71 351.07"/><polygon class="cls-1" points="552.71 349.69 560.79 357.77 559.41 357.77 552.71 351.07 552.71 349.69"/><polygon class="cls-1" points="552.71 348.31 562.17 357.77 560.79 357.77 552.71 349.69 552.71 348.31"/><polygon class="cls-1" points="552.71 346.93 563.55 357.77 562.17 357.77 552.71 348.31 552.71 346.93"/><polygon class="cls-1" points="552.71 345.56 564.93 357.77 563.55 357.77 552.71 346.93 552.71 345.56"/><polygon class="cls-1" points="552.71 344.2 566.3 357.77 564.93 357.77 552.71 345.56 552.71 344.2"/><polygon class="cls-1" points="552.71 342.82 567.68 357.77 566.3 357.77 552.71 344.2 552.71 342.82"/><polygon class="cls-1" points="552.71 341.45 569.03 357.77 567.68 357.77 552.71 342.82 552.71 341.45"/><polygon class="cls-1" points="552.71 340.07 570.41 357.77 569.03 357.77 552.71 341.45 552.71 340.07"/><polygon class="cls-1" points="552.71 338.69 571.79 357.77 570.41 357.77 552.71 340.07 552.71 338.69"/><polygon class="cls-1" points="552.71 337.31 573.17 357.77 571.79 357.77 552.71 338.69 552.71 337.31"/><polygon class="cls-1" points="552.71 335.93 574.41 357.63 574.41 357.77 573.17 357.77 552.71 337.31 552.71 335.93"/><polygon class="cls-1" points="552.71 334.56 574.41 356.26 574.41 357.63 552.71 335.93 552.71 334.56"/><polygon class="cls-1" points="552.71 333.2 574.41 354.88 574.41 356.26 552.71 334.56 552.71 333.2"/><polygon class="cls-1" points="552.71 331.83 574.41 353.5 574.41 354.88 552.71 333.2 552.71 331.83"/><polygon class="cls-1" points="552.71 330.45 574.41 352.12 574.41 353.5 552.71 331.83 552.71 330.45"/><polygon class="cls-1" points="552.71 329.07 574.41 350.74 574.41 352.12 552.71 330.45 552.71 329.07"/><polygon class="cls-1" points="552.71 327.69 574.41 349.39 574.41 350.77 552.71 329.07 552.71 327.69"/><polygon class="cls-1" points="552.71 326.31 574.41 347.99 574.41 349.39 552.71 327.69 552.71 326.31"/><polygon class="cls-1" points="552.71 324.94 574.41 346.63 574.41 348.01 552.71 326.31 552.71 324.94"/><polygon class="cls-1" points="552.71 323.56 574.41 345.26 574.41 346.63 552.71 324.94 552.71 323.56"/><polygon class="cls-1" points="552.71 306.26 574.41 327.96 574.41 345.26 552.71 323.56 552.71 306.26"/><polygon class="cls-1" points="569.6 305.88 574.41 310.67 574.41 327.96 552.71 306.26 552.71 305.88 569.6 305.88"/><polygon class="cls-1" points="574.41 310.67 569.6 305.88 574.41 305.88 574.41 310.67"/><polygon class="cls-1" points="381.49 431.44 424.83 474.79 381.49 474.79 381.49 431.44"/><polygon class="cls-1" points="381.49 430.09 426.18 474.79 424.83 474.79 381.49 431.44 381.49 430.09"/><polygon class="cls-1" points="381.49 428.71 427.56 474.79 426.18 474.79 381.49 430.06 381.49 428.71"/><polygon class="cls-1" points="381.49 427.33 428.94 474.79 427.56 474.79 381.49 428.68 381.49 427.33"/><polygon class="cls-1" points="381.49 425.95 430.32 474.79 428.94 474.79 381.49 427.33 381.49 425.95"/><polygon class="cls-1" points="381.49 424.57 431.7 474.79 430.32 474.79 381.49 425.95 381.49 424.57"/><polygon class="cls-1" points="381.49 423.19 433.07 474.79 431.7 474.79 381.49 424.57 381.49 423.19"/><polygon class="cls-1" points="381.49 421.82 434.45 474.79 433.07 474.79 381.49 423.19 381.49 421.82"/><polygon class="cls-1" points="381.49 420.44 435.81 474.79 434.45 474.79 381.49 421.82 381.49 420.44"/><polygon class="cls-1" points="381.49 419.06 437.18 474.79 435.81 474.79 381.49 420.44 381.49 419.06"/><polygon class="cls-1" points="381.49 417.71 438.56 474.79 437.18 474.79 381.49 419.06 381.49 417.71"/><polygon class="cls-1" points="381.49 416.33 439.94 474.79 438.56 474.79 381.49 417.71 381.49 416.33"/><polygon class="cls-1" points="381.49 414.95 441.32 474.79 439.94 474.79 381.49 416.33 381.49 414.95"/><polygon class="cls-1" points="381.49 413.57 442.7 474.79 441.32 474.79 381.49 414.95 381.49 413.57"/><polygon class="cls-1" points="381.49 412.2 444.07 474.79 442.7 474.79 381.49 413.57 381.49 412.2"/><polygon class="cls-1" points="381.49 410.82 445.45 474.79 444.07 474.79 381.49 412.2 381.49 410.82"/><polygon class="cls-1" points="381.49 409.44 446.83 474.79 445.45 474.79 381.49 410.82 381.49 409.44"/><polygon class="cls-1" points="381.49 408.06 448.18 474.79 446.83 474.79 381.49 409.44 381.49 408.06"/><polygon class="cls-1" points="381.49 406.68 449.56 474.79 448.18 474.79 381.49 408.06 381.49 406.68"/><polygon class="cls-1" points="381.49 405.33 450.94 474.79 449.56 474.79 381.49 406.68 381.49 405.33"/><polygon class="cls-1" points="381.49 403.95 452.32 474.79 450.94 474.79 381.49 405.33 381.49 403.95"/><polygon class="cls-1" points="381.49 402.58 453.69 474.79 452.32 474.79 381.49 403.95 381.49 402.58"/><polygon class="cls-1" points="381.49 401.2 455.07 474.79 453.69 474.79 381.49 402.58 381.49 401.2"/><polygon class="cls-1" points="381.49 399.82 456.45 474.79 455.07 474.79 381.49 401.2 381.49 399.82"/><polygon class="cls-1" points="381.49 398.44 457.83 474.79 456.45 474.79 381.49 399.82 381.49 398.44"/><polygon class="cls-1" points="381.49 397.06 459.18 474.79 457.83 474.79 381.49 398.44 381.49 397.06"/><polygon class="cls-1" points="381.49 395.71 460.56 474.79 459.18 474.79 381.49 397.06 381.49 395.71"/><polygon class="cls-1" points="381.49 394.33 461.94 474.79 460.56 474.79 381.49 395.69 381.49 394.33"/><polygon class="cls-1" points="381.49 392.95 463.31 474.79 461.94 474.79 381.49 394.33 381.49 392.95"/><polygon class="cls-1" points="381.49 391.58 464.69 474.79 463.31 474.79 381.49 392.95 381.49 391.58"/><polygon class="cls-1" points="381.49 390.2 466.07 474.79 464.69 474.79 381.49 391.58 381.49 390.2"/><polygon class="cls-1" points="381.49 388.82 467.45 474.79 466.07 474.79 381.49 390.2 381.49 388.82"/><polygon class="cls-1" points="381.49 387.44 468.83 474.79 467.45 474.79 381.49 388.82 381.49 387.44"/><polygon class="cls-1" points="381.49 386.06 470.21 474.79 468.83 474.79 381.49 387.44 381.49 386.06"/><polygon class="cls-1" points="381.49 384.71 471.56 474.79 470.21 474.79 381.49 386.06 381.49 384.71"/><polygon class="cls-1" points="381.49 383.31 472.94 474.79 471.56 474.79 381.49 384.71 381.49 383.31"/><polygon class="cls-1" points="381.49 381.96 474.31 474.79 472.94 474.79 381.49 383.31 381.49 381.96"/><polygon class="cls-1" points="381.49 380.58 475.69 474.79 474.31 474.79 381.49 381.96 381.49 380.58"/><polygon class="cls-1" points="381.49 379.2 477.07 474.79 475.69 474.79 381.49 380.58 381.49 379.2"/><polygon class="cls-1" points="381.49 377.82 478.45 474.79 477.07 474.79 381.49 379.2 381.49 377.82"/><polygon class="cls-1" points="381.49 376.44 479.83 474.79 478.45 474.79 381.49 377.82 381.49 376.44"/><polygon class="cls-1" points="381.49 375.06 481.21 474.79 479.83 474.79 381.49 376.44 381.49 375.06"/><polygon class="cls-1" points="381.49 373.69 482.56 474.79 481.21 474.79 381.49 375.06 381.49 373.69"/><polygon class="cls-1" points="381.49 372.34 483.94 474.79 482.56 474.79 381.49 373.69 381.49 372.34"/><polygon class="cls-1" points="381.49 370.96 485.31 474.79 483.94 474.79 381.49 372.34 381.49 370.96"/><polygon class="cls-1" points="381.49 369.58 486.69 474.79 485.31 474.79 381.49 370.96 381.49 369.58"/><polygon class="cls-1" points="381.49 368.2 488.07 474.79 486.69 474.79 381.49 369.58 381.49 368.2"/><polygon class="cls-1" points="381.49 366.82 489.45 474.79 488.07 474.79 381.49 368.2 381.49 366.82"/><polygon class="cls-1" points="381.49 365.44 490.83 474.79 489.45 474.79 381.49 366.82 381.49 365.44"/><polygon class="cls-1" points="381.49 364.07 492.18 474.79 490.83 474.79 381.49 365.44 381.49 364.07"/><polygon class="cls-1" points="381.49 362.71 493.56 474.79 492.18 474.79 381.49 364.07 381.49 362.71"/><polygon class="cls-1" points="381.49 361.34 494.93 474.79 493.56 474.79 381.49 362.71 381.49 361.34"/><polygon class="cls-1" points="381.49 359.96 496.31 474.79 494.93 474.79 381.49 361.31 381.49 359.96"/><polygon class="cls-1" points="381.49 358.58 497.69 474.79 496.31 474.79 381.49 359.93 381.49 358.58"/><polygon class="cls-1" points="381.49 357.2 499.07 474.79 497.69 474.79 381.49 358.58 381.49 357.2"/><polygon class="cls-1" points="381.49 355.82 500.45 474.79 499.07 474.79 381.49 357.2 381.49 355.82"/><polygon class="cls-1" points="381.49 354.45 501.82 474.79 500.45 474.79 381.49 355.82 381.49 354.45"/><polygon class="cls-1" points="381.49 353.07 503.2 474.79 501.82 474.79 381.49 354.45 381.49 353.07"/><polygon class="cls-1" points="381.49 351.69 504.56 474.79 503.2 474.79 381.49 353.07 381.49 351.69"/><polygon class="cls-1" points="381.49 350.34 505.93 474.79 504.56 474.79 381.49 351.69 381.49 350.34"/><polygon class="cls-1" points="381.49 348.96 507.31 474.79 505.93 474.79 381.49 350.34 381.49 348.96"/><polygon class="cls-1" points="381.49 347.58 508.69 474.79 507.31 474.79 381.49 348.93 381.49 347.58"/><polygon class="cls-1" points="381.49 346.2 510.07 474.79 508.69 474.79 381.49 347.58 381.49 346.2"/><polygon class="cls-1" points="381.49 344.82 511.45 474.79 510.07 474.79 381.49 346.2 381.49 344.82"/><polygon class="cls-1" points="381.49 343.45 512.82 474.79 511.45 474.79 381.49 344.82 381.49 343.45"/><polygon class="cls-1" points="381.49 342.07 514.2 474.79 512.82 474.79 381.49 343.45 381.49 342.07"/><polygon class="cls-1" points="381.49 340.69 515.58 474.79 514.2 474.79 381.49 342.07 381.49 340.69"/><polygon class="cls-1" points="381.49 339.34 516.93 474.79 515.58 474.79 381.49 340.69 381.49 339.34"/><polygon class="cls-1" points="381.49 337.96 518.31 474.79 516.93 474.79 381.49 339.31 381.49 337.96"/><polygon class="cls-1" points="381.49 336.58 519.69 474.79 518.31 474.79 381.49 337.96 381.49 336.58"/><polygon class="cls-1" points="381.49 335.2 521.07 474.79 519.69 474.79 381.49 336.58 381.49 335.2"/><polygon class="cls-1" points="381.49 333.83 522.45 474.79 521.07 474.79 381.49 335.2 381.49 333.83"/><polygon class="cls-1" points="381.49 332.45 523.82 474.79 522.45 474.79 381.49 333.83 381.49 332.45"/><polygon class="cls-1" points="381.49 331.07 525.2 474.79 523.82 474.79 381.49 332.45 381.49 331.07"/><polygon class="cls-1" points="381.49 329.69 526.55 474.79 525.2 474.79 381.49 331.07 381.49 329.69"/><polygon class="cls-1" points="381.49 328.31 527.93 474.79 526.55 474.79 381.49 329.69 381.49 328.31"/><polygon class="cls-1" points="381.49 326.96 529.31 474.79 527.93 474.79 381.49 328.31 381.49 326.96"/><polygon class="cls-1" points="381.49 325.58 530.69 474.79 529.31 474.79 381.49 326.94 381.49 325.58"/><polygon class="cls-1" points="381.49 324.2 532.07 474.79 530.69 474.79 381.49 325.58 381.49 324.2"/><polygon class="cls-1" points="381.49 322.83 533.44 474.79 532.07 474.79 381.49 324.2 381.49 322.83"/><polygon class="cls-1" points="381.49 321.45 534.82 474.79 533.44 474.79 381.49 322.83 381.49 321.45"/><polygon class="cls-1" points="381.49 320.07 536.2 474.79 534.82 474.79 381.49 321.45 381.49 320.07"/><polygon class="cls-1" points="381.49 318.69 537.58 474.79 536.2 474.79 381.49 320.07 381.49 318.69"/><polygon class="cls-1" points="381.49 317.31 538.96 474.79 537.58 474.79 381.49 318.69 381.49 317.31"/><polygon class="cls-1" points="381.49 315.96 540.31 474.79 538.96 474.79 381.49 317.31 381.49 315.96"/><polygon class="cls-1" points="381.49 314.58 541.69 474.79 540.31 474.79 381.49 315.96 381.49 314.58"/><polygon class="cls-1" points="381.49 313.21 543.06 474.79 541.69 474.79 381.49 314.58 381.49 313.21"/><polygon class="cls-1" points="381.49 311.83 544.44 474.79 543.06 474.79 381.49 313.21 381.49 311.83"/><polygon class="cls-1" points="381.49 310.45 545.82 474.79 544.44 474.79 381.49 311.83 381.49 310.45"/><polygon class="cls-1" points="381.49 309.07 547.2 474.79 545.82 474.79 381.49 310.45 381.49 309.07"/><polygon class="cls-1" points="381.49 307.69 548.55 474.79 547.2 474.79 381.49 309.07 381.49 307.69"/><polygon class="cls-1" points="381.49 306.31 549.93 474.79 548.55 474.79 381.49 307.69 381.49 306.31"/><polygon class="cls-1" points="381.49 304.94 551.31 474.79 549.93 474.79 381.49 306.31 381.49 304.94"/><polygon class="cls-1" points="381.49 303.59 552.68 474.79 551.31 474.79 381.49 304.94 381.49 303.59"/><polygon class="cls-1" points="381.49 302.21 554.06 474.79 552.68 474.79 381.49 303.59 381.49 302.21"/><polygon class="cls-1" points="381.49 300.83 555.44 474.79 554.06 474.79 381.49 302.21 381.49 300.83"/><polygon class="cls-1" points="381.49 299.45 556.82 474.79 555.44 474.79 381.49 300.83 381.49 299.45"/><polygon class="cls-1" points="381.49 298.07 558.2 474.79 556.82 474.79 381.49 299.45 381.49 298.07"/><polygon class="cls-1" points="381.49 296.69 559.58 474.79 558.2 474.79 381.49 298.07 381.49 296.69"/><polygon class="cls-1" points="381.49 295.32 560.93 474.79 559.58 474.79 381.49 296.69 381.49 295.32"/><polygon class="cls-1" points="381.49 293.94 562.31 474.79 560.93 474.79 381.49 295.32 381.49 293.94"/><polygon class="cls-1" points="381.49 292.59 563.68 474.79 562.31 474.79 381.49 293.94 381.49 292.59"/><polygon class="cls-1" points="381.49 291.21 565.06 474.79 563.68 474.79 381.49 292.59 381.49 291.21"/><polygon class="cls-1" points="381.49 289.83 566.44 474.79 565.06 474.79 381.49 291.21 381.49 289.83"/><polygon class="cls-1" points="381.49 288.45 567.82 474.79 566.44 474.79 381.49 289.83 381.49 288.45"/><polygon class="cls-1" points="381.49 287.07 569.2 474.79 567.82 474.79 381.49 288.45 381.49 287.07"/><polygon class="cls-1" points="381.49 285.7 570.58 474.79 569.2 474.79 381.49 287.07 381.49 285.7"/><polygon class="cls-1" points="381.49 284.32 571.95 474.79 570.58 474.79 381.49 285.7 381.49 284.32"/><polygon class="cls-1" points="381.49 282.94 573.3 474.79 571.95 474.79 381.49 284.32 381.49 282.94"/><polygon class="cls-1" points="381.49 281.56 574.68 474.79 573.3 474.79 381.49 282.94 381.49 281.56"/><polygon class="cls-1" points="381.49 280.21 575.58 474.27 575.06 474.79 574.68 474.79 381.49 281.56 381.49 280.21"/><polygon class="cls-1" points="381.49 278.83 576.25 473.6 575.58 474.27 381.49 280.21 381.49 278.83"/><polygon class="cls-1" points="381.49 277.45 576.93 472.89 576.25 473.6 381.49 278.83 381.49 277.45"/><polygon class="cls-1" points="381.49 276.07 577.63 472.22 576.93 472.89 381.49 277.45 381.49 276.07"/><polygon class="cls-1" points="381.49 274.7 578.3 471.54 577.63 472.22 381.49 276.07 381.49 274.7"/><polygon class="cls-1" points="381.49 273.32 579.01 470.84 578.3 471.54 381.49 274.7 381.49 273.32"/><polygon class="cls-1" points="381.49 271.94 579.68 470.16 579.01 470.84 381.49 273.32 381.49 271.94"/><polygon class="cls-1" points="381.49 271.67 382.03 271.13 580.36 469.46 579.68 470.16 381.49 271.94 381.49 271.67"/><rect class="cls-1" x="481.04" y="229.7" width="0.97" height="280.51" transform="translate(-120.56 448.85) rotate(-45)"/><polygon class="cls-1" points="382.7 270.43 383.4 269.75 581.74 468.08 581.06 468.79 382.7 270.43"/><rect class="cls-1" x="482.42" y="228.32" width="0.97" height="280.51" transform="translate(-119.18 449.42) rotate(-45)"/><rect class="cls-1" x="483.14" y="227.64" width="0.97" height="280.51" transform="translate(-118.49 449.73) rotate(-45)"/><rect class="cls-1" x="483.8" y="226.94" width="0.97" height="280.51" transform="translate(-117.8 449.99) rotate(-45)"/><rect class="cls-1" x="484.5" y="226.26" width="0.97" height="280.51" transform="translate(-117.48 447.66) rotate(-44.75)"/><rect class="cls-1" x="485.18" y="225.56" width="0.97" height="280.51" transform="translate(-116.42 450.56) rotate(-45)"/><rect class="cls-1" x="485.87" y="224.88" width="0.97" height="280.51" transform="translate(-115.74 450.85) rotate(-45)"/><polygon class="cls-1" points="387.51 265.62 388.21 264.94 586.55 463.27 585.87 463.98 387.51 265.62"/><rect class="cls-1" x="487.23" y="223.52" width="0.97" height="280.51" transform="translate(-114.38 451.42) rotate(-45)"/><rect class="cls-1" x="487.93" y="222.79" width="0.97" height="280.51" transform="translate(-113.66 451.7) rotate(-45)"/><polygon class="cls-1" points="389.59 263.56 390.27 262.89 588.63 461.22 587.92 461.89 389.59 263.56"/><rect class="cls-1" x="489.33" y="221.46" width="0.97" height="280.51" transform="translate(-112.31 452.3) rotate(-45)"/><rect class="cls-1" x="489.99" y="220.75" width="0.97" height="280.51" transform="translate(-111.62 452.55) rotate(-45)"/><rect class="cls-1" x="490.71" y="220.08" width="0.97" height="280.51" transform="translate(-110.93 452.87) rotate(-45)"/><rect class="cls-1" x="491.37" y="219.37" width="0.97" height="280.51" transform="translate(-110.24 453.12) rotate(-45)"/><polygon class="cls-1" points="393.02 260.13 393.7 259.43 592.06 457.79 591.36 458.46 393.02 260.13"/><polygon class="cls-1" points="393.7 259.43 393.97 259.19 394.84 259.19 592.74 457.08 592.06 457.79 393.7 259.43"/><polygon class="cls-1" points="396.19 259.19 593.44 456.41 592.74 457.08 394.81 259.19 396.19 259.19"/><polygon class="cls-1" points="397.56 259.19 594.11 455.73 593.44 456.41 396.19 259.19 397.56 259.19"/><polygon class="cls-1" points="398.94 259.19 594.82 455.03 594.11 455.73 397.56 259.19 398.94 259.19"/><polygon class="cls-1" points="400.32 259.19 595.49 454.35 594.82 455.03 398.94 259.19 400.32 259.19"/><polygon class="cls-1" points="401.7 259.19 596.19 453.65 595.49 454.35 400.32 259.19 401.7 259.19"/><polygon class="cls-1" points="403.08 259.19 596.87 452.98 596.19 453.65 401.7 259.19 403.08 259.19"/><polygon class="cls-1" points="404.46 259.19 597.57 452.27 596.87 452.98 403.08 259.19 404.46 259.19"/><polygon class="cls-1" points="405.83 259.19 598.25 451.6 597.54 452.27 404.46 259.19 405.83 259.19"/><polygon class="cls-1" points="407.19 259.19 598.92 450.89 598.25 451.6 405.83 259.19 407.19 259.19"/><polygon class="cls-1" points="408.56 259.19 599.63 450.22 598.92 450.89 407.19 259.19 408.56 259.19"/><polygon class="cls-1" points="409.94 259.19 600.3 449.52 599.63 450.22 408.56 259.19 409.94 259.19"/><polygon class="cls-1" points="411.32 259.19 601 448.84 600.3 449.52 409.94 259.19 411.32 259.19"/><polygon class="cls-1" points="412.7 259.19 601.68 448.17 601 448.84 411.32 259.19 412.7 259.19"/><polygon class="cls-1" points="414.08 259.19 602.38 447.46 601.68 448.17 412.7 259.19 414.08 259.19"/><polygon class="cls-1" points="415.45 259.19 603.06 446.79 602.38 447.46 414.08 259.19 415.45 259.19"/><polygon class="cls-1" points="416.83 259.19 603.73 446.08 603.06 446.79 415.45 259.19 416.83 259.19"/><polygon class="cls-1" points="418.19 259.19 604.44 445.41 603.73 446.08 416.83 259.19 418.19 259.19"/><polygon class="cls-1" points="419.56 259.19 605.11 444.71 604.44 445.41 418.21 259.19 419.56 259.19"/><polygon class="cls-1" points="420.94 259.19 605.82 444.03 605.11 444.71 419.56 259.19 420.94 259.19"/><polygon class="cls-1" points="422.32 259.19 606.49 443.36 605.82 444.03 420.94 259.19 422.32 259.19"/><polygon class="cls-1" points="423.7 259.19 607.19 442.65 606.49 443.36 422.32 259.19 423.7 259.19"/><polygon class="cls-1" points="425.08 259.19 607.87 441.98 607.19 442.65 423.7 259.19 425.08 259.19"/><polygon class="cls-1" points="426.45 259.19 608.57 441.27 607.87 441.98 425.08 259.19 426.45 259.19"/><polygon class="cls-1" points="427.83 259.19 609.25 440.6 608.54 441.27 426.45 259.19 427.83 259.19"/><polygon class="cls-1" points="429.18 259.19 609.92 439.9 609.25 440.6 427.83 259.19 429.18 259.19"/><polygon class="cls-1" points="430.56 259.19 610.63 439.22 609.95 439.9 429.18 259.19 430.56 259.19"/><polygon class="cls-1" points="431.94 259.19 611.3 438.52 610.63 439.22 430.56 259.19 431.94 259.19"/><polygon class="cls-1" points="433.32 259.19 612 437.84 611.3 438.52 431.94 259.19 433.32 259.19"/><polygon class="cls-1" points="434.7 259.19 612.68 437.14 612 437.84 433.32 259.19 434.7 259.19"/><polygon class="cls-1" points="436.07 259.19 613.35 436.46 612.68 437.14 434.7 259.19 436.07 259.19"/><polygon class="cls-1" points="437.45 259.19 614.06 435.79 613.38 436.46 436.07 259.19 437.45 259.19"/><polygon class="cls-1" points="438.83 259.19 614.76 435.09 614.06 435.79 437.45 259.19 438.83 259.19"/><polygon class="cls-1" points="440.21 259.19 615.43 434.41 614.73 435.09 438.83 259.19 440.21 259.19"/><polygon class="cls-1" points="441.56 259.19 616.11 433.71 615.43 434.41 440.18 259.19 441.56 259.19"/><polygon class="cls-1" points="442.94 259.19 616.81 433.03 616.11 433.71 441.56 259.19 442.94 259.19"/><polygon class="cls-1" points="444.32 259.19 617.49 432.33 616.81 433.03 442.94 259.19 444.32 259.19"/><polygon class="cls-1" points="445.7 259.19 618.19 431.65 617.49 432.33 444.32 259.19 445.7 259.19"/><polygon class="cls-1" points="447.07 259.19 618.79 430.9 618.79 431.03 618.19 431.65 445.7 259.19 447.07 259.19"/><polygon class="cls-1" points="448.45 259.19 618.81 429.52 618.81 430.9 447.07 259.19 448.45 259.19"/><polygon class="cls-1" points="449.83 259.19 618.79 428.14 618.79 429.52 448.45 259.19 449.83 259.19"/><polygon class="cls-1" points="451.21 259.19 618.81 426.76 618.81 428.14 449.83 259.19 451.21 259.19"/><polygon class="cls-1" points="452.56 259.19 618.79 425.38 618.79 426.76 451.18 259.19 452.56 259.19"/><polygon class="cls-1" points="453.94 259.19 618.81 424.03 618.81 425.38 452.56 259.19 453.94 259.19"/><polygon class="cls-1" points="455.32 259.19 618.81 422.65 618.81 424.03 453.94 259.19 455.32 259.19"/><polygon class="cls-1" points="456.69 259.19 618.81 421.28 618.81 422.65 455.32 259.19 456.69 259.19"/><polygon class="cls-1" points="458.07 259.19 618.81 419.9 618.81 421.28 456.69 259.19 458.07 259.19"/><polygon class="cls-1" points="459.45 259.19 618.81 418.52 618.81 419.9 458.07 259.19 459.45 259.19"/><polygon class="cls-1" points="460.83 259.19 618.81 417.14 618.81 418.52 459.45 259.19 460.83 259.19"/><polygon class="cls-1" points="462.21 259.19 618.81 415.76 618.81 417.14 460.83 259.19 462.21 259.19"/><polygon class="cls-1" points="463.56 259.19 618.81 414.41 618.81 415.76 462.18 259.19 463.56 259.19"/><polygon class="cls-1" points="464.94 259.19 618.79 413.03 618.79 414.41 463.56 259.19 464.94 259.19"/><polygon class="cls-1" points="466.31 259.19 618.81 411.66 618.81 413.03 464.94 259.19 466.31 259.19"/><polygon class="cls-1" points="467.69 259.19 618.79 410.28 618.79 411.66 466.31 259.19 467.69 259.19"/><polygon class="cls-1" points="469.07 259.19 618.81 408.9 618.81 410.28 467.69 259.19 469.07 259.19"/><polygon class="cls-1" points="470.45 259.19 618.79 407.52 618.79 408.9 469.07 259.19 470.45 259.19"/><polygon class="cls-1" points="471.83 259.19 618.81 406.14 618.81 407.52 470.45 259.19 471.83 259.19"/><polygon class="cls-1" points="473.21 259.19 618.81 404.76 618.81 406.14 471.83 259.19 473.21 259.19"/><polygon class="cls-1" points="474.56 259.19 618.81 403.39 618.81 404.76 473.18 259.19 474.56 259.19"/><polygon class="cls-1" points="475.94 259.19 618.81 402.04 618.81 403.39 474.56 259.19 475.94 259.19"/><polygon class="cls-1" points="477.31 259.19 618.81 400.66 618.81 402.04 475.94 259.19 477.31 259.19"/><polygon class="cls-1" points="478.69 259.19 618.81 399.28 618.81 400.66 477.31 259.19 478.69 259.19"/><polygon class="cls-1" points="480.07 259.19 618.79 397.9 618.79 399.28 478.69 259.19 480.07 259.19"/><polygon class="cls-1" points="481.45 259.19 618.81 396.52 618.81 397.9 480.07 259.19 481.45 259.19"/><polygon class="cls-1" points="482.83 259.19 618.79 395.14 618.79 396.52 481.45 259.19 482.83 259.19"/><polygon class="cls-1" points="484.2 259.19 618.81 393.77 618.81 395.14 482.83 259.19 484.2 259.19"/><polygon class="cls-1" points="485.56 259.19 618.79 392.39 618.79 393.77 484.2 259.19 485.56 259.19"/><polygon class="cls-1" points="486.94 259.19 618.81 391.01 618.81 392.39 485.56 259.19 486.94 259.19"/><polygon class="cls-1" points="488.31 259.19 618.79 389.63 618.79 391.01 486.94 259.19 488.31 259.19"/><polygon class="cls-1" points="505.61 259.19 618.79 372.36 618.79 389.63 488.31 259.19 505.61 259.19"/><polygon class="cls-1" points="522.9 259.19 618.81 355.07 618.81 372.36 505.61 259.19 522.9 259.19"/><polygon class="cls-1" points="540.2 259.19 618.81 337.77 618.81 355.07 522.9 259.19 540.2 259.19"/><polygon class="cls-1" points="557.5 259.19 618.81 320.48 618.81 337.77 540.2 259.19 557.5 259.19"/><polygon class="cls-1" points="574.79 259.19 618.81 303.18 618.81 320.48 557.5 259.19 574.79 259.19"/><polygon class="cls-1" points="592.09 259.19 618.81 285.88 618.81 303.18 574.79 259.19 592.09 259.19"/><polygon class="cls-1" points="609.38 259.19 618.81 268.59 618.81 285.88 592.09 259.19 609.38 259.19"/><polygon class="cls-1" points="618.81 268.59 609.38 259.16 618.81 259.16 618.81 268.59"/></g></g></svg>