<?xml version="1.0" encoding="utf-8"?><svg xmlns="http://www.w3.org/2000/svg" viewBox="0 0 1000 700"><defs><style>.cls-1{fill:#fff;}</style></defs><title>4Artboard 6</title><g id="Layer_1" data-name="Layer 1"><rect width="1000" height="700"/></g><g id="Layer_2" data-name="Layer 2"><path class="cls-1" d="M473,400.38a27,27,0,0,1,54.07,0v72.06H473Zm-72.06,56.83V322.88l99.11-92,99.11,92.08V457.21a15.23,15.23,0,0,1-15.24,15.23H536v-70.8a37.22,37.22,0,0,0-28.15-36.43h-.18l-1.24-.24-.76-.13H494.45l-.76.13-1.24.24h-.21A37.23,37.23,0,0,0,464,401.64v70.8H416.13a15.23,15.23,0,0,1-15.24-15.23h0m-9-138.28V461.44a21,21,0,0,0,20.58,20.1h175a21,21,0,0,0,20.6-20.12V318.93L500,218.46Z"/></g></svg>