<?xml version="1.0" encoding="utf-8"?><svg xmlns="http://www.w3.org/2000/svg" viewBox="0 0 1000 700"><defs><style>.cls-1{fill:#fff;}</style></defs><title>4Artboard 8</title><g id="Layer_1" data-name="Layer 1"><rect width="1000" height="700"/></g><g id="Layer_2" data-name="Layer 2"><path class="cls-1" d="M500.14,350.16a5.52,5.52,0,1,0,0-11H500a5.38,5.38,0,0,0-5.38,5.38v.14A5.52,5.52,0,0,0,500.14,350.16Z"/><path class="cls-1" d="M637.64,324.46v-.1c-.06-.28-.14-.55-.2-.83s-.09-.38-.14-.56-.17-.6-.27-.9-.1-.31-.16-.47c-.16-.47-.33-.94-.53-1.39,0-.1-.08-.2-.13-.3-.22-.52-.47-1-.73-1.51l-.11-.19c-.29-.53-.6-1-.94-1.55l0-.08A21.63,21.63,0,0,0,616.47,307H584.58l-49.05-67.6a16.13,16.13,0,0,0-13.8-8l-.44-.11a16.37,16.37,0,0,0-13.89,24c0,.05.05.11.08.16a3,3,0,0,0,.42.63l38.42,50.74H453.68l38.48-50.74.42-.63a16.19,16.19,0,0,0-6.19-22l-.11-.06a15.87,15.87,0,0,0-7.7-2.12h-.25a16.12,16.12,0,0,0-13.8,8l-49.11,67.6H383.51a21.59,21.59,0,0,0-6.9,42,5.35,5.35,0,0,0,3.31,1.13h.72a5.35,5.35,0,0,1,4.58,4.36l18.33,100.92a16.17,16.17,0,0,0,14.52,13.39H581.93a16.12,16.12,0,0,0,14.5-13.22l18.35-100.93a5.36,5.36,0,0,1,4.59-4.55h.71a4.82,4.82,0,0,0,1.2-.16,5.46,5.46,0,0,0,2.12-1,21.77,21.77,0,0,0,6.21-3.35l0,0c.34-.27.68-.54,1-.83l.12-.11c.31-.28.62-.56.91-.85l.16-.17c.28-.28.55-.57.82-.87l.13-.16c.38-.44.73-.88,1.07-1.35.18-.25.37-.5.54-.76l.26-.42c.19-.29.37-.58.54-.88.08-.13.14-.26.21-.39.18-.32.35-.65.5-1,.06-.13.12-.25.17-.37.16-.35.31-.7.45-1.06a3.42,3.42,0,0,0,.13-.34c.14-.38.28-.77.4-1.16a2.76,2.76,0,0,0,.08-.27c.13-.44.25-.88.35-1.33l0-.14c0-.14.07-.27.1-.41v-.12a20.64,20.64,0,0,0,.36-2.62v-2.76A21.59,21.59,0,0,0,637.64,324.46ZM516.7,249.79a5.5,5.5,0,0,1,9.58-4.85,6.49,6.49,0,0,0,.36.55l44.61,61.39h-11.4Zm-43.34-4.3a3.7,3.7,0,0,0,.36-.55,5.52,5.52,0,0,1,9.69,5l-43.26,57h-11.4Zm144.2,93.74a9.91,9.91,0,0,1-1.09,0H521.56a5.53,5.53,0,0,0-5.52,5.53,5.33,5.33,0,0,0,5.33,5.33h83.5a17.54,17.54,0,0,0-.66,2.49L585.83,453.46a5.53,5.53,0,0,1-5.3,4.42h-161a5.52,5.52,0,0,1-5.3-4.42L395.82,352.51a12.91,12.91,0,0,0-.74-2.51h83.34a5.52,5.52,0,1,0,2.32-10.79,5.34,5.34,0,0,0-2.32,0H383.51a10.77,10.77,0,1,1,0-21.54h233a10.79,10.79,0,0,1,1.09,21.56Z"/><path class="cls-1" d="M549.91,393.09c5.52-.63,17.67-2.1,19.82.66s-2.4,14.28-4.47,19.33c-.63,1.54.72,2.18,2.13,1,9.13-7.62,11.48-23.6,9.6-25.92-.88-1.11-5.08-2.13-10.27-2.13a30.55,30.55,0,0,0-17.22,4.7v.05C548,391.85,548.26,393.28,549.91,393.09Z"/><path class="cls-1" d="M424.83,389.48a2.26,2.26,0,0,0-1.1-.34c-1.27,0-1.9,1.47-.64,2.6A113.7,113.7,0,0,0,500,421.06c21.23,0,45.86-6.69,62.86-19.33,2.76-2.07.42-5.19-2.46-4a152.76,152.76,0,0,1-58.74,12.09A154.51,154.51,0,0,1,424.83,389.48Z"/></g></svg>