<?xml version="1.0" encoding="utf-8"?><svg xmlns="http://www.w3.org/2000/svg" viewBox="0 0 1000 700"><defs><style>.cls-1{fill:#fff;}</style></defs><title>4Artboard 10</title><g id="Layer_1" data-name="Layer 1"><rect width="1000" height="700"/></g><g id="Layer_2" data-name="Layer 2"><path class="cls-1" d="M463.08,343.89a64.36,64.36,0,1,0-64.36-64.36A64.36,64.36,0,0,0,463.08,343.89Zm0-116.63a52.24,52.24,0,1,1,.05,104.48h0a52.24,52.24,0,0,1,0-104.48Z"/><path class="cls-1" d="M639.08,401.22c-4-19.59-18.22-32.18-36.38-32.18a49.76,49.76,0,0,0-26.78,8.87,48.82,48.82,0,0,0-26.94-9,34.52,34.52,0,0,0-24.54,9.82,102.29,102.29,0,0,0-60.91-20.37h-.59A101.08,101.08,0,0,0,390,389.1a108.3,108.3,0,0,0-30,73.26v4.16a6.1,6.1,0,0,0,6,5.38l182.21-.28a127.1,127.1,0,0,0,24,12.42l.45.2a9.57,9.57,0,0,0,2.8.58h1.17a9.51,9.51,0,0,0,2.8-.58h.37c41.49-16.79,59.37-45.84,60.21-70.93v-3.89A52.37,52.37,0,0,0,639.08,401.22ZM372.4,459.61a95.07,95.07,0,0,1,26.38-62.11,88.89,88.89,0,0,1,64.36-26.92h.16a89.87,89.87,0,0,1,54,17.8,43.91,43.91,0,0,0-4.4,12.89c-3.47,18.05,2.44,39.88,20.6,58.15Zm203.47,12.76c-41.19-16.79-55.35-46.5-51.07-68.8v0c2.63-14,12-22.61,24.18-22.61a40.21,40.21,0,0,1,23.22,9.09,6.2,6.2,0,0,0,7.25,0,40.77,40.77,0,0,1,23.17-8.84c12.25,0,21.57,8.59,24.37,22.38C632.84,434.1,605.67,460,575.87,472.37Z"/></g></svg>