<?xml version="1.0" encoding="utf-8"?><svg id="Layer_1" data-name="Layer 1" xmlns="http://www.w3.org/2000/svg" xmlns:xlink="http://www.w3.org/1999/xlink" viewBox="0 0 100 100"><defs><style>.cls-1{clip-path:url(#clip-path);}</style><clipPath id="clip-path"><path d="M39.72,69.15a10.28,10.28,0,0,1,20.55,0V96.54H39.72ZM12.33,90.75V39.69L50,4.71l37.67,35V90.75a5.79,5.79,0,0,1-5.79,5.79H63.7V69.63A14.15,14.15,0,0,0,53,55.78l-.07,0-.47-.09-.29-.05-.33,0-.39,0-.3,0-.39,0-.37,0h-.73l-.37,0-.38,0-.3,0-.39,0-.33,0-.29.05-.47.09-.08,0A14.15,14.15,0,0,0,36.3,69.63V96.54H18.12a5.79,5.79,0,0,1-5.79-5.79M8.92,38.19V92.36A8,8,0,0,0,16.74,100H83.25a8,8,0,0,0,7.83-7.65V38.19L50,0Z"/></clipPath></defs><title>Stock Storage</title><path d="M39.72,69.15a10.28,10.28,0,0,1,20.55,0V96.54H39.72ZM12.33,90.75V39.69L50,4.71l37.67,35V90.75a5.79,5.79,0,0,1-5.79,5.79H63.7V69.63A14.15,14.15,0,0,0,53,55.78l-.07,0-.47-.09-.29-.05-.33,0-.39,0-.3,0-.39,0-.37,0h-.73l-.37,0-.38,0-.3,0-.39,0-.33,0-.29.05-.47.09-.08,0A14.15,14.15,0,0,0,36.3,69.63V96.54H18.12a5.79,5.79,0,0,1-5.79-5.79M8.92,38.19V92.36A8,8,0,0,0,16.74,100H83.25a8,8,0,0,0,7.83-7.65V38.19L50,0Z"/><g class="cls-1"><polygon points="12.33 96.31 12.57 96.55 12.33 96.55 12.33 96.31"/><polygon points="12.33 95.83 13.04 96.54 12.57 96.54 12.33 96.31 12.33 95.83"/><polygon points="12.33 95.35 13.52 96.54 13.04 96.54 12.33 95.83 12.33 95.35"/><polygon points="12.33 94.87 14 96.55 13.52 96.55 12.33 95.35 12.33 94.87"/><polygon points="12.33 94.39 14.48 96.54 14 96.54 12.33 94.87 12.33 94.39"/><polygon points="12.33 93.91 14.96 96.54 14.48 96.54 12.33 94.39 12.33 93.91"/><polygon points="12.33 93.44 15.44 96.55 14.96 96.55 12.33 93.91 12.33 93.44"/><polygon points="12.33 92.96 15.92 96.54 15.44 96.54 12.33 93.44 12.33 92.96"/><polygon points="12.33 92.48 16.39 96.54 15.92 96.54 12.33 92.96 12.33 92.48"/><polygon points="12.33 92 16.88 96.55 16.39 96.55 12.33 92.48 12.33 92"/><polygon points="12.33 91.52 17.35 96.54 16.88 96.54 12.33 92 12.33 91.52"/><polygon points="12.33 91.04 17.83 96.55 17.35 96.55 12.33 91.52 12.33 91.04"/><polygon points="12.33 90.56 18.31 96.55 17.83 96.55 12.33 91.04 12.33 90.56"/><polygon points="12.33 90.08 18.79 96.54 18.31 96.54 12.33 90.56 12.33 90.08"/><polygon points="12.33 89.61 19.27 96.55 18.79 96.55 12.33 90.09 12.33 89.61"/><polygon points="12.33 89.13 19.74 96.55 19.27 96.55 12.33 89.61 12.33 89.13"/><polygon points="12.33 88.65 20.22 96.54 19.74 96.54 12.33 89.13 12.33 88.65"/><polygon points="12.33 88.17 20.7 96.55 20.22 96.55 12.33 88.65 12.33 88.17"/><polygon points="12.33 87.69 21.18 96.54 20.7 96.54 12.33 88.17 12.33 87.69"/><polygon points="12.33 87.21 21.66 96.54 21.18 96.54 12.33 87.69 12.33 87.21"/><polygon points="12.33 86.74 22.14 96.55 21.66 96.55 12.33 87.22 12.33 86.74"/><polygon points="12.33 86.26 22.61 96.54 22.14 96.54 12.33 86.74 12.33 86.26"/><polygon points="12.33 85.78 23.09 96.54 22.61 96.54 12.33 86.26 12.33 85.78"/><polygon points="12.33 85.3 23.57 96.55 23.09 96.55 12.33 85.78 12.33 85.3"/><polygon points="12.33 84.82 24.05 96.54 23.57 96.54 12.33 85.3 12.33 84.82"/><polygon points="12.33 84.34 24.53 96.55 24.05 96.55 12.33 84.82 12.33 84.34"/><polygon points="12.33 83.86 25.01 96.55 24.53 96.55 12.33 84.34 12.33 83.86"/><polygon points="12.33 83.39 25.49 96.54 25.01 96.54 12.33 83.87 12.33 83.39"/><polygon points="12.33 82.91 25.97 96.55 25.49 96.55 12.33 83.39 12.33 82.91"/><polygon points="12.33 82.43 26.44 96.54 25.97 96.54 12.33 82.91 12.33 82.43"/><polygon points="12.33 81.95 26.92 96.54 26.44 96.54 12.33 82.43 12.33 81.95"/><polygon points="12.33 81.47 27.4 96.55 26.92 96.55 12.33 81.95 12.33 81.47"/><polygon points="12.33 80.99 27.88 96.55 27.4 96.55 12.33 81.47 12.33 80.99"/><polygon points="12.33 80.52 28.36 96.54 27.88 96.54 12.33 80.99 12.33 80.52"/><polygon points="12.33 80.04 28.84 96.55 28.36 96.55 12.33 80.52 12.33 80.04"/><polygon points="12.33 79.56 29.31 96.54 28.84 96.54 12.33 80.04 12.33 79.56"/><polygon points="12.33 79.08 29.79 96.54 29.31 96.54 12.33 79.56 12.33 79.08"/><polygon points="12.33 78.6 30.27 96.55 29.79 96.55 12.33 79.08 12.33 78.6"/><polygon points="12.33 78.12 30.75 96.54 30.27 96.54 12.33 78.6 12.33 78.12"/><polygon points="12.33 77.64 31.23 96.54 30.75 96.54 12.33 78.12 12.33 77.64"/><polygon points="12.33 77.17 31.71 96.55 31.23 96.55 12.33 77.64 12.33 77.17"/><polygon points="12.33 76.69 32.19 96.54 31.71 96.54 12.33 77.17 12.33 76.69"/><polygon points="12.33 76.21 32.66 96.55 32.19 96.55 12.33 76.69 12.33 76.21"/><polygon points="12.33 75.73 33.14 96.55 32.66 96.55 12.33 76.21 12.33 75.73"/><polygon points="12.33 75.25 33.62 96.54 33.14 96.54 12.33 75.73 12.33 75.25"/><polygon points="12.33 74.77 34.1 96.55 33.62 96.55 12.33 75.25 12.33 74.77"/><polygon points="12.33 74.29 34.58 96.54 34.1 96.54 12.33 74.77 12.33 74.29"/><polygon points="12.33 73.82 35.06 96.54 34.58 96.54 12.33 74.3 12.33 73.82"/><polygon points="12.33 73.34 35.54 96.55 35.06 96.55 12.33 73.82 12.33 73.34"/><polygon points="12.33 72.86 36.01 96.54 35.54 96.54 12.33 73.34 12.33 72.86"/><polygon points="12.33 72.38 36.49 96.54 36.01 96.54 12.33 72.86 12.33 72.38"/><polygon points="12.33 71.9 36.97 96.55 36.49 96.55 12.33 72.38 12.33 71.9"/><polygon points="12.33 71.42 37.45 96.54 36.97 96.54 12.33 71.9 12.33 71.42"/><polygon points="12.33 70.94 37.93 96.55 37.45 96.55 12.33 71.42 12.33 70.94"/><polygon points="12.33 70.47 38.41 96.55 37.93 96.55 12.33 70.95 12.33 70.47"/><polygon points="12.33 69.99 38.88 96.54 38.41 96.54 12.33 70.47 12.33 69.99"/><polygon points="12.33 69.51 39.36 96.55 38.88 96.55 12.33 69.99 12.33 69.51"/><polygon points="12.33 69.03 39.84 96.55 39.36 96.55 12.33 69.51 12.33 69.03"/><polygon points="12.33 68.55 40.32 96.54 39.84 96.54 12.33 69.03 12.33 68.55"/><polygon points="12.33 68.07 40.8 96.55 40.32 96.55 12.33 68.55 12.33 68.07"/><polygon points="12.33 67.59 41.28 96.54 40.8 96.54 12.33 68.07 12.33 67.59"/><polygon points="12.33 67.12 41.76 96.54 41.28 96.54 12.33 67.6 12.33 67.12"/><polygon points="12.33 66.64 42.24 96.55 41.76 96.55 12.33 67.12 12.33 66.64"/><polygon points="12.33 66.16 42.71 96.54 42.24 96.54 12.33 66.64 12.33 66.16"/><polygon points="12.33 65.68 43.19 96.54 42.71 96.54 12.33 66.16 12.33 65.68"/><polygon points="12.33 65.2 43.67 96.55 43.19 96.55 12.33 65.68 12.33 65.2"/><polygon points="12.33 64.72 44.15 96.54 43.67 96.54 12.33 65.2 12.33 64.72"/><polygon points="12.33 64.25 44.63 96.55 44.15 96.55 12.33 64.72 12.33 64.25"/><polygon points="12.33 63.77 45.11 96.55 44.63 96.55 12.33 64.25 12.33 63.77"/><polygon points="12.33 63.29 45.58 96.54 45.11 96.54 12.33 63.77 12.33 63.29"/><polygon points="12.33 62.81 46.06 96.54 45.58 96.54 12.33 63.29 12.33 62.81"/><polygon points="12.33 62.33 46.54 96.55 46.06 96.55 12.33 62.81 12.33 62.33"/><polygon points="12.33 61.85 47.02 96.54 46.54 96.54 12.33 62.33 12.33 61.85"/><polygon points="12.33 61.37 47.5 96.55 47.02 96.55 12.33 61.85 12.33 61.37"/><polygon points="12.33 60.9 47.98 96.55 47.5 96.55 12.33 61.38 12.33 60.9"/><polygon points="12.33 60.42 48.46 96.54 47.98 96.54 12.33 60.9 12.33 60.42"/><polygon points="12.33 59.94 48.94 96.55 48.46 96.55 12.33 60.42 12.33 59.94"/><polygon points="12.33 59.46 49.41 96.54 48.94 96.54 12.33 59.94 12.33 59.46"/><polygon points="12.33 58.98 49.89 96.54 49.41 96.54 12.33 59.46 12.33 58.98"/><polygon points="12.33 58.5 50.37 96.55 49.89 96.55 12.33 58.98 12.33 58.5"/><polygon points="12.33 58.02 50.85 96.54 50.37 96.54 12.33 58.5 12.33 58.02"/><polygon points="12.33 57.55 51.33 96.54 50.85 96.54 12.33 58.03 12.33 57.55"/><polygon points="12.33 57.07 51.81 96.55 51.33 96.55 12.33 57.55 12.33 57.07"/><polygon points="12.33 56.59 52.28 96.54 51.81 96.54 12.33 57.07 12.33 56.59"/><polygon points="12.33 56.11 52.76 96.55 52.28 96.55 12.33 56.59 12.33 56.11"/><polygon points="12.33 55.63 53.24 96.55 52.76 96.55 12.33 56.11 12.33 55.63"/><polygon points="12.33 55.15 53.72 96.54 53.24 96.54 12.33 55.63 12.33 55.15"/><polygon points="12.33 54.67 54.2 96.55 53.72 96.55 12.33 55.16 12.33 54.67"/><polygon points="12.33 54.2 54.67 96.55 54.2 96.55 12.33 54.68 12.33 54.2"/><polygon points="12.33 53.72 55.16 96.54 54.67 96.54 12.33 54.2 12.33 53.72"/><polygon points="12.33 53.24 55.63 96.55 55.16 96.55 12.33 53.72 12.33 53.24"/><polygon points="12.33 52.76 56.11 96.54 55.63 96.54 12.33 53.24 12.33 52.76"/><polygon points="12.33 52.28 56.59 96.54 56.11 96.54 12.33 52.76 12.33 52.28"/><polygon points="12.33 51.8 57.07 96.55 56.59 96.55 12.33 52.28 12.33 51.8"/><polygon points="12.33 51.33 57.55 96.54 57.07 96.54 12.33 51.8 12.33 51.33"/><polygon points="12.33 50.85 58.03 96.54 57.55 96.54 12.33 51.33 12.33 50.85"/><polygon points="12.33 50.37 58.51 96.55 58.03 96.55 12.33 50.85 12.33 50.37"/><polygon points="12.33 49.89 58.98 96.54 58.51 96.54 12.33 50.37 12.33 49.89"/><polygon points="12.33 49.41 59.46 96.54 58.98 96.54 12.33 49.89 12.33 49.41"/><polygon points="12.33 48.93 59.94 96.55 59.46 96.55 12.33 49.41 12.33 48.93"/><polygon points="12.33 48.45 60.42 96.54 59.94 96.54 12.33 48.93 12.33 48.45"/><polygon points="12.33 47.98 60.9 96.55 60.42 96.55 12.33 48.45 12.33 47.98"/><polygon points="12.33 47.5 61.38 96.54 60.9 96.54 12.33 47.98 12.33 47.5"/><polygon points="12.33 47.02 61.85 96.54 61.38 96.54 12.33 47.5 12.33 47.02"/><polygon points="12.33 46.54 62.33 96.55 61.85 96.55 12.33 47.02 12.33 46.54"/><polygon points="12.33 46.06 62.81 96.54 62.33 96.54 12.33 46.54 12.33 46.06"/><polygon points="12.33 45.58 63.29 96.54 62.81 96.54 12.33 46.06 12.33 45.58"/><polygon points="12.33 45.1 63.77 96.55 63.29 96.55 12.33 45.58 12.33 45.1"/><polygon points="12.33 44.63 64.25 96.54 63.77 96.54 12.33 45.11 12.33 44.63"/><polygon points="12.33 44.15 64.72 96.54 64.25 96.54 12.33 44.63 12.33 44.15"/><polygon points="12.33 43.67 65.2 96.55 64.72 96.55 12.33 44.15 12.33 43.67"/><polygon points="12.33 43.19 65.68 96.54 65.2 96.54 12.33 43.67 12.33 43.19"/><polygon points="12.33 42.71 66.16 96.54 65.68 96.54 12.33 43.19 12.33 42.71"/><polygon points="12.33 42.23 66.64 96.55 66.16 96.55 12.33 42.71 12.33 42.23"/><polygon points="12.33 41.76 67.12 96.54 66.64 96.54 12.33 42.23 12.33 41.76"/><polygon points="12.33 41.28 67.6 96.55 67.12 96.55 12.33 41.76 12.33 41.28"/><polygon points="12.33 40.8 68.07 96.55 67.6 96.55 12.33 41.28 12.33 40.8"/><polygon points="12.33 40.32 68.55 96.54 68.07 96.54 12.33 40.8 12.33 40.32"/><polygon points="12.33 39.84 69.03 96.55 68.55 96.55 12.33 40.32 12.33 39.84"/><polygon points="12.33 39.36 69.51 96.54 69.03 96.54 12.33 39.84 12.33 39.36"/><polygon points="12.33 39.06 12.42 38.97 69.99 96.55 69.51 96.55 12.33 39.36 12.33 39.06"/><polygon points="12.42 38.97 12.65 38.73 70.47 96.54 69.99 96.54 12.42 38.97"/><polygon points="12.65 38.73 12.89 38.49 70.94 96.55 70.47 96.55 12.65 38.73"/><polygon points="12.89 38.49 13.13 38.25 71.43 96.54 70.95 96.54 12.89 38.49"/><polygon points="13.13 38.25 13.37 38.02 71.9 96.54 71.42 96.54 13.13 38.25"/><polygon points="13.37 38.01 13.61 37.77 72.38 96.55 71.9 96.55 13.37 38.01"/><polygon points="13.61 37.77 13.85 37.54 72.86 96.55 72.38 96.55 13.61 37.77"/><polygon points="13.85 37.54 14.09 37.3 73.34 96.54 72.86 96.54 13.85 37.54"/><polygon points="14.09 37.3 14.33 37.06 73.82 96.54 73.34 96.54 14.09 37.3"/><polygon points="14.33 37.06 14.57 36.82 74.3 96.55 73.82 96.55 14.33 37.06"/><polygon points="14.57 36.82 14.81 36.58 74.78 96.54 74.3 96.54 14.57 36.82"/><polygon points="14.81 36.58 15.05 36.34 75.25 96.54 74.77 96.54 14.81 36.58"/><polygon points="15.05 36.34 15.29 36.1 75.73 96.55 75.25 96.55 15.05 36.34"/><polygon points="15.29 36.1 15.53 35.86 76.21 96.54 75.73 96.54 15.29 36.1"/><polygon points="15.53 35.86 15.77 35.62 76.69 96.54 76.21 96.54 15.53 35.86"/><polygon points="15.77 35.62 16 35.38 77.17 96.55 76.69 96.55 15.77 35.62"/><polygon points="16 35.38 16.24 35.14 77.65 96.54 77.17 96.54 16 35.38"/><polygon points="16.24 35.14 16.48 34.9 78.12 96.54 77.64 96.54 16.24 35.14"/><polygon points="16.48 34.9 16.72 34.66 78.6 96.55 78.12 96.55 16.48 34.9"/><polygon points="16.72 34.66 16.96 34.43 79.08 96.54 78.6 96.54 16.72 34.66"/><polygon points="16.96 34.42 17.2 34.19 79.56 96.54 79.08 96.54 16.96 34.42"/><polygon points="17.2 34.19 17.44 33.95 80.04 96.55 79.56 96.55 17.2 34.19"/><polygon points="17.44 33.95 17.68 33.71 80.52 96.54 80.04 96.54 17.44 33.95"/><polygon points="17.68 33.71 17.92 33.47 81 96.54 80.52 96.54 17.68 33.71"/><polygon points="17.92 33.47 18.16 33.23 81.47 96.55 81 96.55 17.92 33.47"/><polygon points="18.16 33.23 18.4 32.99 81.95 96.54 81.47 96.54 18.16 33.23"/><polygon points="18.4 32.99 18.64 32.75 82.43 96.54 81.95 96.54 18.4 32.99"/><polygon points="18.64 32.75 18.88 32.51 82.91 96.55 82.43 96.55 18.64 32.75"/><polygon points="18.88 32.51 19.11 32.27 83.39 96.54 82.91 96.54 18.88 32.51"/><polygon points="19.11 32.27 19.35 32.03 83.87 96.54 83.39 96.54 19.11 32.27"/><polygon points="19.35 32.03 19.59 31.79 84.34 96.55 83.87 96.55 19.35 32.03"/><polygon points="19.59 31.79 19.83 31.55 84.82 96.55 84.34 96.55 19.59 31.79"/><polygon points="19.83 31.55 20.07 31.32 85.3 96.54 84.82 96.54 19.83 31.55"/><polygon points="20.07 31.32 20.31 31.08 85.74 96.51 85.7 96.55 85.3 96.55 20.07 31.32"/><rect x="52.98" y="17.4" width="0.34" height="92.53" transform="translate(-29.46 56.23) rotate(-45)"/><rect x="53.22" y="17.17" width="0.34" height="92.53" transform="translate(-29.22 56.33) rotate(-45)"/><rect x="53.46" y="16.93" width="0.34" height="92.53" transform="translate(-28.98 56.43) rotate(-45)"/><rect x="53.69" y="16.69" width="0.34" height="92.53" transform="translate(-28.74 56.53) rotate(-45)"/><rect x="53.93" y="16.45" width="0.34" height="92.53" transform="translate(-28.5 56.62) rotate(-45)"/><rect x="54.17" y="16.21" width="0.34" height="92.53" transform="translate(-28.26 56.72) rotate(-45)"/><rect x="54.41" y="15.97" width="0.34" height="92.53" transform="translate(-28.02 56.82) rotate(-45)"/><rect x="54.65" y="15.73" width="0.34" height="92.53" transform="translate(-27.78 56.92) rotate(-45)"/><polygon points="22.23 29.16 22.46 28.92 87.67 94.12 87.67 94.58 87.66 94.59 22.23 29.16"/><polygon points="22.46 28.92 22.7 28.68 87.67 93.65 87.67 94.13 22.46 28.92"/><polygon points="22.7 28.68 22.94 28.44 87.67 93.17 87.67 93.64 22.7 28.68"/><polygon points="22.94 28.44 23.18 28.2 87.67 92.69 87.67 93.17 22.94 28.44"/><polygon points="23.18 28.2 23.42 27.97 87.67 92.21 87.67 92.69 23.18 28.2"/><polygon points="23.42 27.96 23.66 27.73 87.67 91.73 87.67 92.21 23.42 27.96"/><polygon points="23.66 27.73 23.9 27.49 87.67 91.25 87.67 91.73 23.66 27.73"/><polygon points="23.9 27.49 24.14 27.25 87.67 90.77 87.67 91.25 23.9 27.49"/><polygon points="24.14 27.25 24.38 27.01 87.67 90.3 87.67 90.78 24.14 27.25"/><polygon points="24.38 27.01 24.62 26.77 87.67 89.82 87.67 90.3 24.38 27.01"/><polygon points="24.62 26.77 24.86 26.53 87.67 89.34 87.67 89.82 24.62 26.77"/><polygon points="24.86 26.53 25.1 26.29 87.67 88.86 87.67 89.34 24.86 26.53"/><polygon points="25.1 26.29 25.34 26.05 87.67 88.38 87.67 88.86 25.1 26.29"/><polygon points="25.34 26.05 25.57 25.81 87.67 87.9 87.67 88.38 25.34 26.05"/><polygon points="25.57 25.81 25.81 25.57 87.67 87.43 87.67 87.91 25.57 25.81"/><polygon points="25.81 25.57 26.05 25.33 87.67 86.95 87.67 87.42 25.81 25.57"/><polygon points="26.05 25.33 26.29 25.09 87.67 86.47 87.67 86.95 26.05 25.33"/><polygon points="26.29 25.09 26.53 24.86 87.67 85.99 87.67 86.47 26.29 25.09"/><polygon points="26.53 24.86 26.77 24.62 87.67 85.51 87.67 85.99 26.53 24.86"/><polygon points="26.77 24.62 27.01 24.38 87.67 85.03 87.67 85.51 26.77 24.62"/><polygon points="27.01 24.38 27.25 24.14 87.67 84.55 87.67 85.03 27.01 24.38"/><polygon points="27.25 24.14 27.49 23.9 87.67 84.08 87.67 84.55 27.25 24.14"/><polygon points="27.49 23.9 27.73 23.66 87.67 83.6 87.67 84.08 27.49 23.9"/><polygon points="27.73 23.66 27.97 23.42 87.67 83.12 87.67 83.6 27.73 23.66"/><polygon points="27.97 23.42 28.21 23.18 87.67 82.64 87.67 83.12 27.97 23.42"/><polygon points="28.21 23.18 28.45 22.94 87.67 82.16 87.67 82.64 28.21 23.18"/><polygon points="28.45 22.94 28.68 22.7 87.67 81.68 87.67 82.16 28.45 22.94"/><polygon points="28.68 22.7 28.92 22.46 87.67 81.2 87.67 81.68 28.68 22.7"/><polygon points="28.93 22.46 29.16 22.22 87.67 80.72 87.67 81.2 28.93 22.46"/><polygon points="29.16 22.22 29.4 21.98 87.67 80.25 87.67 80.73 29.16 22.22"/><polygon points="29.4 21.98 29.64 21.75 87.67 79.77 87.67 80.25 29.4 21.98"/><polygon points="29.64 21.74 29.88 21.51 87.67 79.29 87.67 79.77 29.64 21.74"/><polygon points="29.88 21.5 30.12 21.27 87.67 78.81 87.67 79.29 29.88 21.5"/><polygon points="30.12 21.27 30.36 21.03 87.67 78.33 87.67 78.81 30.12 21.27"/><polygon points="30.36 21.03 30.6 20.79 87.67 77.86 87.67 78.33 30.36 21.03"/><polygon points="30.6 20.79 30.84 20.55 87.67 77.38 87.67 77.86 30.6 20.79"/><polygon points="30.84 20.55 31.08 20.31 87.67 76.9 87.67 77.38 30.84 20.55"/><polygon points="31.08 20.31 34.09 17.3 87.67 70.88 87.67 76.9 31.08 20.31"/><polygon points="34.09 17.3 37.1 14.29 87.67 64.86 87.67 70.88 34.09 17.3"/><polygon points="37.1 14.29 40.1 11.28 87.67 58.84 87.67 64.86 37.1 14.29"/><polygon points="40.11 11.28 43.12 8.27 87.67 52.83 87.67 58.84 40.11 11.28"/><polygon points="43.12 8.27 46.12 5.26 87.67 46.81 87.67 52.82 43.12 8.27"/><polygon points="46.12 5.26 46.68 4.71 51.59 4.71 87.67 40.79 87.67 46.81 46.12 5.26"/><polygon points="57.61 4.71 87.67 34.77 87.67 40.79 51.59 4.71 57.61 4.71"/><polygon points="87.67 34.77 57.61 4.71 87.67 4.71 87.67 34.77"/><polygon points="39.73 96.43 39.84 96.54 39.73 96.54 39.73 96.43"/><polygon points="39.73 95.95 40.32 96.54 39.84 96.54 39.73 96.43 39.73 95.95"/><polygon points="39.73 95.47 40.8 96.55 40.32 96.55 39.73 95.95 39.73 95.47"/><polygon points="39.73 94.99 41.28 96.54 40.8 96.54 39.73 95.47 39.73 94.99"/><polygon points="39.73 94.51 41.76 96.54 41.28 96.54 39.73 94.99 39.73 94.51"/><polygon points="39.73 94.03 42.24 96.55 41.76 96.55 39.73 94.51 39.73 94.03"/><polygon points="39.73 93.56 42.71 96.54 42.24 96.54 39.73 94.03 39.73 93.56"/><polygon points="39.73 93.08 43.19 96.54 42.71 96.54 39.73 93.56 39.73 93.08"/><polygon points="39.73 92.6 43.67 96.55 43.19 96.55 39.73 93.08 39.73 92.6"/><polygon points="39.73 92.12 44.15 96.54 43.67 96.54 39.73 92.6 39.73 92.12"/><polygon points="39.73 91.64 44.63 96.55 44.15 96.55 39.73 92.12 39.73 91.64"/><polygon points="39.73 91.16 45.1 96.54 44.63 96.54 39.73 91.64 39.73 91.16"/><polygon points="39.73 90.68 45.58 96.54 45.1 96.54 39.73 91.16 39.73 90.68"/><polygon points="39.73 90.2 46.06 96.55 45.58 96.55 39.73 90.69 39.73 90.2"/><polygon points="39.73 89.73 46.54 96.55 46.06 96.55 39.73 90.21 39.73 89.73"/><polygon points="39.73 89.25 47.02 96.54 46.54 96.54 39.73 89.73 39.73 89.25"/><polygon points="39.73 88.77 47.5 96.55 47.02 96.55 39.73 89.25 39.73 88.77"/><polygon points="39.73 88.29 47.98 96.54 47.5 96.54 39.73 88.77 39.73 88.29"/><polygon points="39.73 87.81 48.46 96.54 47.98 96.54 39.73 88.29 39.73 87.81"/><polygon points="39.73 87.33 48.94 96.55 48.46 96.55 39.73 87.81 39.73 87.33"/><polygon points="39.73 86.86 49.41 96.54 48.94 96.54 39.73 87.33 39.73 86.86"/><polygon points="39.73 86.38 49.89 96.54 49.41 96.54 39.73 86.86 39.73 86.38"/><polygon points="39.73 85.9 50.37 96.55 49.89 96.55 39.73 86.38 39.73 85.9"/><polygon points="39.73 85.42 50.85 96.54 50.37 96.54 39.73 85.9 39.73 85.42"/><polygon points="39.73 84.94 51.33 96.55 50.85 96.55 39.73 85.42 39.73 84.94"/><polygon points="39.73 84.46 51.8 96.55 51.33 96.55 39.73 84.94 39.73 84.46"/><polygon points="39.73 83.98 52.28 96.54 51.8 96.54 39.73 84.46 39.73 83.98"/><polygon points="39.73 83.51 52.76 96.55 52.28 96.55 39.73 83.99 39.73 83.51"/><polygon points="39.73 83.03 53.24 96.54 52.76 96.54 39.73 83.51 39.73 83.03"/><polygon points="39.73 82.55 53.72 96.54 53.24 96.54 39.73 83.03 39.73 82.55"/><polygon points="39.73 82.07 54.2 96.55 53.72 96.55 39.73 82.55 39.73 82.07"/><polygon points="39.73 81.59 54.68 96.54 54.2 96.54 39.73 82.07 39.73 81.59"/><polygon points="39.73 81.11 55.16 96.54 54.68 96.54 39.73 81.59 39.73 81.11"/><polygon points="39.73 80.64 55.63 96.55 55.16 96.55 39.73 81.11 39.73 80.64"/><polygon points="39.73 80.16 56.11 96.54 55.63 96.54 39.73 80.64 39.73 80.16"/><polygon points="39.73 79.68 56.59 96.55 56.11 96.55 39.73 80.16 39.73 79.68"/><polygon points="39.73 79.2 57.07 96.55 56.59 96.55 39.73 79.68 39.73 79.2"/><polygon points="39.73 78.72 57.55 96.54 57.07 96.54 39.73 79.2 39.73 78.72"/><polygon points="39.73 78.24 58.03 96.55 57.55 96.55 39.73 78.72 39.73 78.24"/><polygon points="39.73 77.76 58.5 96.55 58.03 96.55 39.73 78.24 39.73 77.76"/><polygon points="39.73 77.29 58.98 96.54 58.5 96.54 39.73 77.77 39.73 77.29"/><polygon points="39.73 76.81 59.46 96.55 58.98 96.55 39.73 77.29 39.73 76.81"/><polygon points="39.73 76.33 59.94 96.55 59.46 96.55 39.73 76.81 39.73 76.33"/><polygon points="39.73 75.85 60.27 96.4 60.27 96.54 59.94 96.54 39.73 76.33 39.73 75.85"/><polygon points="39.73 75.37 60.27 95.92 60.27 96.4 39.73 75.85 39.73 75.37"/><polygon points="39.73 74.89 60.27 95.44 60.27 95.92 39.73 75.37 39.73 74.89"/><polygon points="39.73 74.42 60.27 94.96 60.27 95.44 39.73 74.89 39.73 74.42"/><polygon points="39.73 73.94 60.27 94.48 60.27 94.96 39.73 74.42 39.73 73.94"/><polygon points="39.73 73.46 60.27 94 60.27 94.48 39.73 73.94 39.73 73.46"/><polygon points="39.73 72.98 60.27 93.53 60.27 94 39.73 73.46 39.73 72.98"/><polygon points="39.73 72.5 60.27 93.05 60.27 93.53 39.73 72.98 39.73 72.5"/><polygon points="39.73 72.02 60.27 92.57 60.27 93.05 39.73 72.5 39.73 72.02"/><polygon points="39.73 71.54 60.27 92.09 60.27 92.57 39.73 72.02 39.73 71.54"/><polygon points="39.73 71.06 60.27 91.61 60.27 92.09 39.73 71.54 39.73 71.06"/><polygon points="39.73 70.59 60.27 91.13 60.27 91.61 39.73 71.07 39.73 70.59"/><polygon points="39.73 70.11 60.27 90.66 60.27 91.13 39.73 70.59 39.73 70.11"/><polygon points="39.73 69.63 60.27 90.18 60.27 90.66 39.73 70.11 39.73 69.63"/><polygon points="39.73 69.15 60.27 89.7 60.27 90.17 39.73 69.63 39.73 69.15"/><polygon points="39.73 68.67 60.27 89.22 60.27 89.7 39.73 69.15 39.73 68.67"/><polygon points="39.73 68.19 60.27 88.74 60.27 89.22 39.73 68.67 39.73 68.19"/><polygon points="39.73 67.72 60.27 88.26 60.27 88.74 39.73 68.19 39.73 67.72"/><polygon points="39.73 67.24 60.27 87.78 60.27 88.26 39.73 67.72 39.73 67.24"/><polygon points="39.73 66.76 60.27 87.31 60.27 87.78 39.73 67.24 39.73 66.76"/><polygon points="39.73 66.28 60.27 86.83 60.27 87.3 39.73 66.76 39.73 66.28"/><polygon points="39.73 65.8 60.27 86.35 60.27 86.83 39.73 66.28 39.73 65.8"/><polygon points="39.73 65.32 60.27 85.87 60.27 86.35 39.73 65.8 39.73 65.32"/><polygon points="39.73 64.84 60.27 85.39 60.27 85.87 39.73 65.32 39.73 64.84"/><polygon points="39.73 64.37 60.27 84.91 60.27 85.39 39.73 64.84 39.73 64.37"/><polygon points="39.73 63.89 60.27 84.43 60.27 84.91 39.73 64.37 39.73 63.89"/><polygon points="39.73 63.41 60.27 83.96 60.27 84.43 39.73 63.89 39.73 63.41"/><polygon points="39.73 62.93 60.27 83.48 60.27 83.95 39.73 63.41 39.73 62.93"/><polygon points="39.73 62.85 39.93 62.65 60.27 83 60.27 83.48 39.73 62.93 39.73 62.85"/><polygon points="39.93 62.65 40.16 62.41 60.27 82.52 60.27 83 39.93 62.65"/><polygon points="40.16 62.41 40.4 62.17 60.27 82.04 60.27 82.52 40.16 62.41"/><polygon points="40.4 62.17 40.64 61.94 60.27 81.56 60.27 82.04 40.4 62.17"/><polygon points="40.64 61.94 40.88 61.7 60.27 81.08 60.27 81.56 40.64 61.94"/><polygon points="40.88 61.7 41.12 61.46 60.27 80.61 60.27 81.08 40.88 61.7"/><polygon points="41.12 61.46 41.36 61.22 60.27 80.13 60.27 80.61 41.12 61.46"/><polygon points="41.36 61.22 41.6 60.98 60.27 79.65 60.27 80.13 41.36 61.22"/><polygon points="41.6 60.98 41.84 60.74 60.27 79.17 60.27 79.65 41.6 60.98"/><polygon points="41.84 60.74 42.08 60.5 60.27 78.69 60.27 79.17 41.84 60.74"/><polygon points="42.08 60.5 42.32 60.26 60.27 78.21 60.27 78.69 42.08 60.5"/><polygon points="42.32 60.26 42.56 60.02 60.27 77.73 60.27 78.21 42.32 60.26"/><polygon points="42.56 60.02 42.8 59.78 60.27 77.26 60.27 77.74 42.56 60.02"/><polygon points="42.8 59.78 43.03 59.54 60.27 76.78 60.27 77.26 42.8 59.78"/><polygon points="43.04 59.54 43.27 59.3 60.27 76.3 60.27 76.78 43.04 59.54"/><polygon points="43.27 59.3 43.51 59.06 60.27 75.82 60.27 76.3 43.27 59.3"/><polygon points="43.52 59.06 43.7 58.88 43.8 58.88 60.27 75.34 60.27 75.82 43.52 59.06"/><polygon points="44.28 58.88 60.27 74.86 60.27 75.34 43.8 58.88 44.28 58.88"/><polygon points="44.76 58.88 60.27 74.39 60.27 74.86 44.28 58.88 44.76 58.88"/><polygon points="45.24 58.88 60.27 73.91 60.27 74.39 44.76 58.88 45.24 58.88"/><polygon points="45.72 58.88 60.27 73.43 60.27 73.91 45.24 58.88 45.72 58.88"/><polygon points="46.2 58.88 60.27 72.95 60.27 73.43 45.72 58.88 46.2 58.88"/><polygon points="46.68 58.88 60.27 72.47 60.27 72.95 46.2 58.88 46.68 58.88"/><polygon points="47.15 58.88 60.27 71.99 60.27 72.47 46.67 58.88 47.15 58.88"/><polygon points="47.63 58.88 60.27 71.52 60.27 71.99 47.15 58.88 47.63 58.88"/><polygon points="48.11 58.88 60.27 71.04 60.27 71.52 47.63 58.88 48.11 58.88"/><polygon points="48.59 58.88 60.27 70.56 60.27 71.04 48.11 58.88 48.59 58.88"/><polygon points="49.07 58.88 60.27 70.08 60.27 70.56 48.59 58.88 49.07 58.88"/><polygon points="49.55 58.88 60.27 69.6 60.27 70.08 49.07 58.88 49.55 58.88"/><polygon points="50.02 58.88 60.27 69.12 60.27 69.6 49.55 58.88 50.02 58.88"/><polygon points="50.5 58.88 60.27 68.64 60.27 69.12 50.02 58.88 50.5 58.88"/><polygon points="50.98 58.88 60.27 68.16 60.27 68.64 50.5 58.88 50.98 58.88"/><polygon points="51.46 58.88 60.27 67.69 60.27 68.16 50.98 58.88 51.46 58.88"/><polygon points="51.94 58.88 60.27 67.21 60.27 67.69 51.46 58.88 51.94 58.88"/><polygon points="52.42 58.88 60.27 66.73 60.27 67.21 51.94 58.88 52.42 58.88"/><polygon points="52.9 58.88 60.27 66.25 60.27 66.73 52.42 58.88 52.9 58.88"/><polygon points="53.38 58.88 60.27 65.77 60.27 66.25 52.9 58.88 53.38 58.88"/><polygon points="53.85 58.88 60.27 65.29 60.27 65.77 53.37 58.88 53.85 58.88"/><polygon points="54.33 58.88 60.27 64.82 60.27 65.29 53.85 58.88 54.33 58.88"/><polygon points="54.81 58.88 60.27 64.34 60.27 64.82 54.33 58.88 54.81 58.88"/><polygon points="55.29 58.88 60.27 63.86 60.27 64.34 54.81 58.88 55.29 58.88"/><polygon points="55.77 58.88 60.27 63.38 60.27 63.86 55.29 58.88 55.77 58.88"/><polygon points="56.25 58.88 60.27 62.9 60.27 63.38 55.77 58.88 56.25 58.88"/><polygon points="56.72 58.88 60.27 62.42 60.27 62.9 56.24 58.88 56.72 58.88"/><polygon points="57.2 58.88 60.27 61.94 60.27 62.42 56.72 58.88 57.2 58.88"/><polygon points="57.68 58.88 60.27 61.47 60.27 61.94 57.2 58.88 57.68 58.88"/><polygon points="58.16 58.88 60.27 60.99 60.27 61.47 57.68 58.88 58.16 58.88"/><polygon points="58.64 58.88 60.27 60.51 60.27 60.99 58.16 58.88 58.64 58.88"/><polygon points="59.12 58.88 60.27 60.03 60.27 60.51 58.64 58.88 59.12 58.88"/><polygon points="59.6 58.88 60.27 59.55 60.27 60.03 59.12 58.88 59.6 58.88"/><polygon points="60.07 58.88 60.27 59.07 60.27 59.55 59.59 58.88 60.07 58.88"/><polygon points="60.27 59.07 60.07 58.88 60.27 58.88 60.27 59.07"/><polygon points="8.9 95.27 13.6 99.97 8.9 99.97 8.9 95.27"/><polygon points="8.9 94.8 14.08 99.97 13.6 99.97 8.9 95.28 8.9 94.8"/><polygon points="8.9 94.32 14.56 99.97 14.08 99.97 8.9 94.8 8.9 94.32"/><polygon points="8.9 93.84 15.04 99.97 14.56 99.97 8.9 94.32 8.9 93.84"/><polygon points="8.9 93.36 15.51 99.97 15.04 99.97 8.9 93.84 8.9 93.36"/><polygon points="8.9 92.88 15.99 99.97 15.51 99.97 8.9 93.36 8.9 92.88"/><polygon points="8.9 92.4 16.47 99.97 15.99 99.97 8.9 92.88 8.9 92.4"/><polygon points="8.9 91.92 16.95 99.97 16.47 99.97 8.9 92.4 8.9 91.92"/><polygon points="8.9 91.45 17.43 99.97 16.95 99.97 8.9 91.92 8.9 91.45"/><polygon points="8.9 90.97 17.91 99.97 17.43 99.97 8.9 91.45 8.9 90.97"/><polygon points="8.9 90.49 18.38 99.97 17.91 99.97 8.9 90.97 8.9 90.49"/><polygon points="8.9 90.01 18.86 99.97 18.38 99.97 8.9 90.49 8.9 90.01"/><polygon points="8.9 89.53 19.34 99.97 18.86 99.97 8.9 90.01 8.9 89.53"/><polygon points="8.9 89.05 19.82 99.97 19.34 99.97 8.9 89.53 8.9 89.05"/><polygon points="8.9 88.58 20.3 99.97 19.82 99.97 8.9 89.05 8.9 88.58"/><polygon points="8.9 88.1 20.78 99.97 20.3 99.97 8.9 88.58 8.9 88.1"/><polygon points="8.9 87.62 21.25 99.97 20.78 99.97 8.9 88.1 8.9 87.62"/><polygon points="8.9 87.14 21.73 99.97 21.25 99.97 8.9 87.62 8.9 87.14"/><polygon points="8.9 86.66 22.21 99.97 21.73 99.97 8.9 87.14 8.9 86.66"/><polygon points="8.9 86.18 22.69 99.97 22.21 99.97 8.9 86.66 8.9 86.18"/><polygon points="8.9 85.7 23.17 99.97 22.69 99.97 8.9 86.18 8.9 85.7"/><polygon points="8.9 85.22 23.65 99.97 23.17 99.97 8.9 85.7 8.9 85.22"/><polygon points="8.9 84.75 24.13 99.97 23.65 99.97 8.9 85.23 8.9 84.75"/><polygon points="8.9 84.27 24.61 99.97 24.13 99.97 8.9 84.75 8.9 84.27"/><polygon points="8.9 83.79 25.08 99.97 24.61 99.97 8.9 84.27 8.9 83.79"/><polygon points="8.9 83.31 25.56 99.97 25.08 99.97 8.9 83.79 8.9 83.31"/><polygon points="8.9 82.83 26.04 99.97 25.56 99.97 8.9 83.31 8.9 82.83"/><polygon points="8.9 82.35 26.52 99.97 26.04 99.97 8.9 82.83 8.9 82.35"/><polygon points="8.9 81.88 27 99.97 26.52 99.97 8.9 82.36 8.9 81.88"/><polygon points="8.9 81.4 27.48 99.97 27 99.97 8.9 81.88 8.9 81.4"/><polygon points="8.9 80.92 27.95 99.97 27.48 99.97 8.9 81.4 8.9 80.92"/><polygon points="8.9 80.44 28.43 99.97 27.95 99.97 8.9 80.92 8.9 80.44"/><polygon points="8.9 79.96 28.91 99.97 28.43 99.97 8.9 80.44 8.9 79.96"/><polygon points="8.9 79.48 29.39 99.97 28.91 99.97 8.9 79.96 8.9 79.48"/><polygon points="8.9 79 29.87 99.97 29.39 99.97 8.9 79.48 8.9 79"/><polygon points="8.9 78.53 30.35 99.97 29.87 99.97 8.9 79.01 8.9 78.53"/><polygon points="8.9 78.05 30.83 99.97 30.35 99.97 8.9 78.53 8.9 78.05"/><polygon points="8.9 77.57 31.3 99.97 30.83 99.97 8.9 78.05 8.9 77.57"/><polygon points="8.9 77.09 31.78 99.97 31.3 99.97 8.9 77.57 8.9 77.09"/><polygon points="8.9 76.61 32.26 99.97 31.78 99.97 8.9 77.09 8.9 76.61"/><polygon points="8.9 76.13 32.74 99.97 32.26 99.97 8.9 76.61 8.9 76.13"/><polygon points="8.9 75.66 33.22 99.97 32.74 99.97 8.9 76.13 8.9 75.66"/><polygon points="8.9 75.18 33.7 99.97 33.22 99.97 8.9 75.66 8.9 75.18"/><polygon points="8.9 74.7 34.18 99.97 33.7 99.97 8.9 75.18 8.9 74.7"/><polygon points="8.9 74.22 34.65 99.97 34.18 99.97 8.9 74.7 8.9 74.22"/><polygon points="8.9 73.74 35.13 99.97 34.65 99.97 8.9 74.22 8.9 73.74"/><polygon points="8.9 73.26 35.61 99.97 35.13 99.97 8.9 73.74 8.9 73.26"/><polygon points="8.9 72.78 36.09 99.97 35.61 99.97 8.9 73.26 8.9 72.78"/><polygon points="8.9 72.31 36.57 99.97 36.09 99.97 8.9 72.78 8.9 72.31"/><polygon points="8.9 71.83 37.05 99.97 36.57 99.97 8.9 72.31 8.9 71.83"/><polygon points="8.9 71.35 37.52 99.97 37.05 99.97 8.9 71.83 8.9 71.35"/><polygon points="8.9 70.87 38 99.97 37.52 99.97 8.9 71.35 8.9 70.87"/><polygon points="8.9 70.39 38.48 99.97 38 99.97 8.9 70.87 8.9 70.39"/><polygon points="8.9 69.91 38.96 99.97 38.48 99.97 8.9 70.39 8.9 69.91"/><polygon points="8.9 69.44 39.44 99.97 38.96 99.97 8.9 69.91 8.9 69.44"/><polygon points="8.9 68.96 39.92 99.97 39.44 99.97 8.9 69.44 8.9 68.96"/><polygon points="8.9 68.48 40.4 99.97 39.92 99.97 8.9 68.96 8.9 68.48"/><polygon points="8.9 68 40.88 99.97 40.4 99.97 8.9 68.48 8.9 68"/><polygon points="8.9 67.52 41.35 99.97 40.88 99.97 8.9 68 8.9 67.52"/><polygon points="8.9 67.04 41.83 99.97 41.35 99.97 8.9 67.52 8.9 67.04"/><polygon points="8.9 66.56 42.31 99.97 41.83 99.97 8.9 67.04 8.9 66.56"/><polygon points="8.9 66.08 42.79 99.97 42.31 99.97 8.9 66.56 8.9 66.08"/><polygon points="8.9 65.61 43.27 99.97 42.79 99.97 8.9 66.09 8.9 65.61"/><polygon points="8.9 65.13 43.74 99.97 43.27 99.97 8.9 65.61 8.9 65.13"/><polygon points="8.9 64.65 44.22 99.97 43.74 99.97 8.9 65.13 8.9 64.65"/><polygon points="8.9 64.17 44.7 99.97 44.22 99.97 8.9 64.65 8.9 64.17"/><polygon points="8.9 63.69 45.18 99.97 44.7 99.97 8.9 64.17 8.9 63.69"/><polygon points="8.9 63.21 45.66 99.97 45.18 99.97 8.9 63.69 8.9 63.21"/><polygon points="8.9 62.73 46.14 99.97 45.66 99.97 8.9 63.22 8.9 62.73"/><polygon points="8.9 62.26 46.62 99.97 46.14 99.97 8.9 62.74 8.9 62.26"/><polygon points="8.9 61.78 47.09 99.97 46.62 99.97 8.9 62.26 8.9 61.78"/><polygon points="8.9 61.3 47.58 99.97 47.09 99.97 8.9 61.78 8.9 61.3"/><polygon points="8.9 60.82 48.05 99.97 47.58 99.97 8.9 61.3 8.9 60.82"/><polygon points="8.9 60.34 48.53 99.97 48.05 99.97 8.9 60.82 8.9 60.34"/><polygon points="8.9 59.86 49.01 99.97 48.53 99.97 8.9 60.34 8.9 59.86"/><polygon points="8.9 59.39 49.49 99.97 49.01 99.97 8.9 59.87 8.9 59.39"/><polygon points="8.9 58.91 49.97 99.97 49.49 99.97 8.9 59.39 8.9 58.91"/><polygon points="8.9 58.43 50.44 99.97 49.97 99.97 8.9 58.91 8.9 58.43"/><polygon points="8.9 57.95 50.92 99.97 50.44 99.97 8.9 58.43 8.9 57.95"/><polygon points="8.9 57.47 51.4 99.97 50.92 99.97 8.9 57.95 8.9 57.47"/><polygon points="8.9 56.99 51.88 99.97 51.4 99.97 8.9 57.47 8.9 56.99"/><polygon points="8.9 56.52 52.36 99.97 51.88 99.97 8.9 56.99 8.9 56.52"/><polygon points="8.9 56.04 52.84 99.97 52.36 99.97 8.9 56.52 8.9 56.04"/><polygon points="8.9 55.56 53.31 99.97 52.84 99.97 8.9 56.04 8.9 55.56"/><polygon points="8.9 55.08 53.8 99.97 53.31 99.97 8.9 55.56 8.9 55.08"/><polygon points="8.9 54.6 54.27 99.97 53.8 99.97 8.9 55.08 8.9 54.6"/><polygon points="8.9 54.12 54.75 99.97 54.27 99.97 8.9 54.6 8.9 54.12"/><polygon points="8.9 53.64 55.23 99.97 54.75 99.97 8.9 54.12 8.9 53.64"/><polygon points="8.9 53.16 55.71 99.97 55.23 99.97 8.9 53.64 8.9 53.16"/><polygon points="8.9 52.69 56.19 99.97 55.71 99.97 8.9 53.17 8.9 52.69"/><polygon points="8.9 52.21 56.67 99.97 56.19 99.97 8.9 52.69 8.9 52.21"/><polygon points="8.9 51.73 57.15 99.97 56.67 99.97 8.9 52.21 8.9 51.73"/><polygon points="8.9 51.25 57.62 99.97 57.15 99.97 8.9 51.73 8.9 51.25"/><polygon points="8.9 50.77 58.1 99.97 57.62 99.97 8.9 51.25 8.9 50.77"/><polygon points="8.9 50.29 58.58 99.97 58.1 99.97 8.9 50.77 8.9 50.29"/><polygon points="8.9 49.81 59.06 99.97 58.58 99.97 8.9 50.3 8.9 49.81"/><polygon points="8.9 49.34 59.54 99.97 59.06 99.97 8.9 49.82 8.9 49.34"/><polygon points="8.9 48.86 60.01 99.97 59.54 99.97 8.9 49.34 8.9 48.86"/><polygon points="8.9 48.38 60.49 99.97 60.01 99.97 8.9 48.86 8.9 48.38"/><polygon points="8.9 47.9 60.97 99.97 60.49 99.97 8.9 48.38 8.9 47.9"/><polygon points="8.9 47.42 61.45 99.97 60.97 99.97 8.9 47.9 8.9 47.42"/><polygon points="8.9 46.94 61.93 99.97 61.45 99.97 8.9 47.42 8.9 46.94"/><polygon points="8.9 46.47 62.41 99.97 61.93 99.97 8.9 46.95 8.9 46.47"/><polygon points="8.9 45.99 62.89 99.97 62.41 99.97 8.9 46.47 8.9 45.99"/><polygon points="8.9 45.51 63.37 99.97 62.89 99.97 8.9 45.99 8.9 45.51"/><polygon points="8.9 45.03 63.84 99.97 63.37 99.97 8.9 45.51 8.9 45.03"/><polygon points="8.9 44.55 64.32 99.97 63.84 99.97 8.9 45.03 8.9 44.55"/><polygon points="8.9 44.07 64.8 99.97 64.32 99.97 8.9 44.55 8.9 44.07"/><polygon points="8.9 43.59 65.28 99.97 64.8 99.97 8.9 44.07 8.9 43.59"/><polygon points="8.9 43.12 65.76 99.97 65.28 99.97 8.9 43.6 8.9 43.12"/><polygon points="8.9 42.64 66.24 99.97 65.76 99.97 8.9 43.12 8.9 42.64"/><polygon points="8.9 42.16 66.71 99.97 66.24 99.97 8.9 42.64 8.9 42.16"/><polygon points="8.9 41.68 67.19 99.97 66.71 99.97 8.9 42.16 8.9 41.68"/><polygon points="8.9 41.2 67.67 99.97 67.19 99.97 8.9 41.68 8.9 41.2"/><polygon points="8.9 40.72 68.15 99.97 67.67 99.97 8.9 41.2 8.9 40.72"/><polygon points="8.9 40.24 68.63 99.97 68.15 99.97 8.9 40.72 8.9 40.24"/><polygon points="8.9 39.77 69.11 99.97 68.63 99.97 8.9 40.25 8.9 39.77"/><polygon points="8.9 39.29 69.58 99.97 69.11 99.97 8.9 39.77 8.9 39.29"/><polygon points="8.9 38.81 70.06 99.97 69.58 99.97 8.9 39.29 8.9 38.81"/><polygon points="8.9 38.33 70.54 99.97 70.06 99.97 8.9 38.81 8.9 38.33"/><polygon points="8.9 37.85 71.02 99.97 70.54 99.97 8.9 38.33 8.9 37.85"/><polygon points="8.9 37.56 9 37.47 71.5 99.97 71.02 99.97 8.9 37.85 8.9 37.56"/><polygon points="9 37.47 9.24 37.23 71.98 99.97 71.5 99.97 9 37.47"/><polygon points="9.24 37.23 9.48 36.99 72.46 99.97 71.98 99.97 9.24 37.23"/><polygon points="9.48 36.99 9.72 36.75 72.93 99.97 72.46 99.97 9.48 36.99"/><polygon points="9.72 36.75 9.96 36.51 73.41 99.97 72.94 99.97 9.72 36.75"/><polygon points="9.96 36.51 10.2 36.27 73.89 99.97 73.41 99.97 9.96 36.51"/><polygon points="10.2 36.27 10.44 36.03 74.37 99.97 73.89 99.97 10.2 36.27"/><polygon points="10.44 36.03 10.67 35.8 74.85 99.97 74.37 99.97 10.44 36.03"/><polygon points="10.68 35.8 10.91 35.56 75.33 99.97 74.85 99.97 10.68 35.8"/><polygon points="10.91 35.55 11.15 35.32 75.81 99.97 75.33 99.97 10.91 35.55"/><polygon points="11.15 35.32 11.39 35.08 76.28 99.97 75.81 99.97 11.15 35.32"/><polygon points="11.39 35.08 11.63 34.84 76.76 99.97 76.28 99.97 11.39 35.08"/><polygon points="11.63 34.84 11.87 34.6 77.24 99.97 76.76 99.97 11.63 34.84"/><polygon points="11.87 34.6 12.11 34.36 77.72 99.97 77.24 99.97 11.87 34.6"/><polygon points="12.11 34.36 12.35 34.12 78.2 99.97 77.72 99.97 12.11 34.36"/><polygon points="12.35 34.12 12.59 33.88 78.68 99.97 78.2 99.97 12.35 34.12"/><polygon points="12.59 33.88 12.83 33.64 79.16 99.97 78.68 99.97 12.59 33.88"/><polygon points="12.83 33.64 13.07 33.4 79.63 99.97 79.16 99.97 12.83 33.64"/><polygon points="13.07 33.4 13.31 33.16 80.11 99.97 79.64 99.97 13.07 33.4"/><polygon points="13.31 33.16 13.54 32.92 80.59 99.97 80.11 99.97 13.31 33.16"/><polygon points="13.55 32.92 13.79 32.69 81.07 99.97 80.59 99.97 13.55 32.92"/><polygon points="13.79 32.68 14.02 32.45 81.55 99.97 81.07 99.97 13.79 32.68"/><polygon points="14.03 32.45 14.26 32.21 82.03 99.97 81.55 99.97 14.03 32.45"/><polygon points="14.26 32.21 14.5 31.97 82.51 99.97 82.03 99.97 14.26 32.21"/><polygon points="14.5 31.97 14.74 31.73 82.98 99.97 82.51 99.97 14.5 31.97"/><polygon points="14.74 31.73 14.98 31.49 83.46 99.97 82.98 99.97 14.74 31.73"/><polygon points="14.98 31.49 15.22 31.25 83.94 99.97 83.46 99.97 14.98 31.49"/><polygon points="15.22 31.25 15.46 31.01 84.42 99.97 83.94 99.97 15.22 31.25"/><polygon points="15.46 31.01 15.7 30.77 84.9 99.97 84.42 99.97 15.46 31.01"/><polygon points="15.7 30.77 15.94 30.53 85.38 99.97 84.9 99.97 15.7 30.77"/><polygon points="15.94 30.53 16.18 30.29 85.85 99.97 85.38 99.97 15.94 30.53"/><polygon points="16.18 30.29 16.42 30.05 86.33 99.97 85.86 99.97 16.18 30.29"/><polygon points="16.42 30.05 16.66 29.81 86.81 99.97 86.33 99.97 16.42 30.05"/><polygon points="16.66 29.81 16.89 29.57 87.29 99.97 86.81 99.97 16.66 29.81"/><polygon points="16.9 29.57 17.13 29.34 87.77 99.97 87.29 99.97 16.9 29.57"/><polygon points="17.14 29.34 17.37 29.1 88.19 99.91 88.13 99.97 87.77 99.97 17.14 29.34"/><rect x="52.73" y="14.31" width="0.34" height="100.15" transform="translate(-30.03 56.26) rotate(-45)"/><rect x="52.97" y="14.07" width="0.34" height="100.15" transform="translate(-29.79 56.36) rotate(-45)"/><rect x="53.21" y="13.83" width="0.34" height="100.15" transform="translate(-29.55 56.46) rotate(-45)"/><rect x="53.45" y="13.59" width="0.34" height="100.15" transform="translate(-29.31 56.56) rotate(-45)"/><rect x="53.69" y="13.35" width="0.34" height="100.15" transform="translate(-29.07 56.66) rotate(-45)"/><rect x="53.93" y="13.11" width="0.34" height="100.15" transform="translate(-28.84 56.76) rotate(-45)"/><rect x="54.17" y="12.87" width="0.34" height="100.15" transform="translate(-28.6 56.86) rotate(-45)"/><rect x="54.41" y="12.63" width="0.34" height="100.15" transform="translate(-28.36 56.96) rotate(-45)"/><rect x="54.65" y="12.4" width="0.34" height="100.15" transform="translate(-28.12 57.06) rotate(-45)"/><rect x="54.89" y="12.16" width="0.34" height="100.15" transform="translate(-27.88 57.16) rotate(-45)"/><rect x="55.13" y="11.92" width="0.34" height="100.15" transform="translate(-27.64 57.26) rotate(-45)"/><rect x="55.36" y="11.68" width="0.34" height="100.15" transform="translate(-27.4 57.35) rotate(-45)"/><polygon points="20.25 26.22 20.48 25.99 91.09 96.59 91.09 97.01 91.06 97.04 20.25 26.22"/><polygon points="20.48 25.98 20.72 25.75 91.09 96.11 91.09 96.59 20.48 25.98"/><polygon points="20.72 25.75 20.96 25.51 91.09 95.63 91.09 96.11 20.72 25.75"/><polygon points="20.96 25.51 21.2 25.27 91.09 95.16 91.09 95.64 20.96 25.51"/><polygon points="21.2 25.27 21.44 25.03 91.09 94.68 91.09 95.16 21.2 25.27"/><polygon points="21.44 25.03 21.68 24.79 91.09 94.2 91.09 94.68 21.44 25.03"/><polygon points="21.68 24.79 21.92 24.55 91.09 93.72 91.09 94.2 21.68 24.79"/><polygon points="21.92 24.55 22.16 24.31 91.09 93.24 91.09 93.72 21.92 24.55"/><polygon points="22.16 24.31 22.4 24.07 91.09 92.76 91.09 93.24 22.16 24.31"/><polygon points="22.4 24.07 22.64 23.83 91.09 92.28 91.09 92.76 22.4 24.07"/><polygon points="22.64 23.83 22.88 23.59 91.09 91.81 91.09 92.28 22.64 23.83"/><polygon points="22.88 23.59 23.12 23.35 91.09 91.33 91.09 91.81 22.88 23.59"/><polygon points="23.12 23.35 23.36 23.11 91.09 90.85 91.09 91.33 23.12 23.35"/><polygon points="23.36 23.11 23.59 22.88 91.09 90.37 91.09 90.85 23.36 23.11"/><polygon points="23.59 22.88 23.83 22.64 91.09 89.89 91.09 90.37 23.59 22.88"/><polygon points="23.83 22.64 24.07 22.4 91.09 89.41 91.09 89.89 23.83 22.64"/><polygon points="24.07 22.4 24.31 22.16 91.09 88.94 91.09 89.41 24.07 22.4"/><polygon points="24.31 22.16 24.55 21.92 91.09 88.46 91.09 88.94 24.31 22.16"/><polygon points="24.55 21.92 24.79 21.68 91.09 87.98 91.09 88.46 24.55 21.92"/><polygon points="24.79 21.68 25.03 21.44 91.09 87.5 91.09 87.98 24.79 21.68"/><polygon points="25.03 21.44 25.27 21.2 91.09 87.02 91.09 87.5 25.03 21.44"/><polygon points="25.27 21.2 25.51 20.96 91.09 86.54 91.09 87.02 25.27 21.2"/><polygon points="25.51 20.96 25.75 20.72 91.09 86.06 91.09 86.54 25.51 20.96"/><polygon points="25.75 20.72 25.99 20.48 91.09 85.58 91.09 86.06 25.75 20.72"/><polygon points="25.99 20.48 26.23 20.24 91.09 85.11 91.09 85.59 25.99 20.48"/><polygon points="26.23 20.24 26.46 20 91.09 84.63 91.09 85.11 26.23 20.24"/><polygon points="26.47 20 26.7 19.77 91.09 84.15 91.09 84.63 26.47 20"/><polygon points="26.7 19.76 26.94 19.53 91.09 83.67 91.09 84.15 26.7 19.76"/><polygon points="26.95 19.52 27.18 19.29 91.09 83.19 91.09 83.67 26.95 19.52"/><polygon points="27.18 19.29 27.42 19.05 91.09 82.72 91.09 83.19 27.18 19.29"/><polygon points="27.42 19.05 27.66 18.81 91.09 82.24 91.09 82.72 27.42 19.05"/><polygon points="27.66 18.81 27.9 18.57 91.09 81.76 91.09 82.24 27.66 18.81"/><polygon points="27.9 18.57 28.14 18.33 91.09 81.28 91.09 81.76 27.9 18.57"/><polygon points="28.14 18.33 28.38 18.09 91.09 80.8 91.09 81.28 28.14 18.33"/><polygon points="28.38 18.09 28.62 17.85 91.09 80.32 91.09 80.8 28.38 18.09"/><polygon points="28.62 17.85 31.63 14.84 91.09 74.3 91.09 80.32 28.62 17.85"/><polygon points="31.63 14.84 34.64 11.83 91.09 68.28 91.09 74.3 31.63 14.84"/><polygon points="34.64 11.83 37.65 8.82 91.09 62.27 91.09 68.28 34.64 11.83"/><polygon points="37.65 8.82 40.66 5.81 91.09 56.25 91.09 62.27 37.65 8.82"/><polygon points="40.66 5.81 43.66 2.8 91.09 50.23 91.09 56.25 40.66 5.81"/><polygon points="43.67 2.8 46.43 0.04 46.92 0.04 91.09 44.21 91.09 50.23 43.67 2.8"/><polygon points="52.93 0.04 91.09 38.19 91.09 44.21 46.92 0.04 52.93 0.04"/><polygon points="91.09 38.19 52.93 0.03 91.09 0.03 91.09 38.19"/></g></svg>