<?xml version="1.0" encoding="utf-8"?><svg id="Layer_1" data-name="Layer 1" xmlns="http://www.w3.org/2000/svg" xmlns:xlink="http://www.w3.org/1999/xlink" viewBox="0 0 400 400"><defs><style>.cls-1{fill:#0093d2;}.cls-2{fill:none;}.cls-3{clip-path:url(#clip-path);}.cls-4{opacity:0.1;}.cls-5{clip-path:url(#clip-path-2);}.cls-6{fill:#d6d6d6;}.cls-7{fill:#fff;}.cls-8{fill:#a5a5a5;}.cls-9{fill:#ffc629;}.cls-10{fill:#c2d500;}.cls-11{fill:#f2f2f2;}</style><clipPath id="clip-path"><circle class="cls-1" cx="200" cy="200" r="200"/></clipPath><clipPath id="clip-path-2"><circle class="cls-2" cx="200" cy="200" r="200"/></clipPath></defs><title>4Artboard 1 copy 5</title><circle class="cls-1" cx="200" cy="200" r="200"/><g class="cls-3"><g class="cls-4"><circle class="cls-1" cx="200" cy="200" r="200"/></g></g><g class="cls-5"><path class="cls-6" d="M307.33,294.07v95.82A10.12,10.12,0,0,1,297.21,400H102.79a10.12,10.12,0,0,1-10.12-10.11V91.51A10.12,10.12,0,0,1,102.79,81.4H297.21a10.12,10.12,0,0,1,10.12,10.11V301"/><rect class="cls-7" x="110.16" y="124.39" width="179.67" height="230.1"/><rect class="cls-8" x="172.97" y="102.35" width="54.06" height="3.3"/><rect class="cls-8" x="193.4" y="368.9" width="13.21" height="9.45"/><polygon class="cls-1" points="137.71 325.47 132.16 324.76 132.06 317.64 167.75 278.38 204.96 302.06 251.98 273.85 256.84 281.94 204.81 313.16 169.39 290.62 137.71 325.47"/><rect class="cls-1" x="147.66" y="156.77" width="22.01" height="9.45"/><rect class="cls-6" x="179.86" y="156.77" width="46.77" height="9.45"/><rect class="cls-9" x="147.66" y="174.93" width="22.01" height="9.45"/><rect class="cls-6" x="179.86" y="174.93" width="46.77" height="9.45"/><rect class="cls-10" x="147.66" y="193.09" width="22.01" height="9.45"/><rect class="cls-6" x="179.86" y="193.09" width="46.77" height="9.45"/><polygon class="cls-9" points="133.35 284.2 132.16 272.72 170.22 239.62 224.96 255.79 263.49 186.46 271.75 191.05 229.54 266.99 172.51 250.14 133.35 284.2"/><polygon class="cls-11" points="266.52 325.62 131.85 325.62 131.85 156.84 134.85 156.84 134.85 322.62 266.52 322.62 266.52 325.62"/></g></svg>