<?xml version="1.0" encoding="utf-8"?><svg xmlns="http://www.w3.org/2000/svg" xmlns:xlink="http://www.w3.org/1999/xlink" viewBox="0 0 400 400"><defs><style>.cls-1{fill:none;}.cls-2{isolation:isolate;}.cls-3{clip-path:url(#clip-path);}.cls-4{fill:#d50057;}.cls-5{fill:#fcbb75;}.cls-6{fill:#e28c52;}.cls-7{fill:#f49c5b;}.cls-8{fill:#c2d500;}.cls-9{fill:#fff;}.cls-10{fill:#ffc629;}.cls-11{opacity:0.55;}.cls-11,.cls-12{mix-blend-mode:multiply;}.cls-12{opacity:0.36;}</style><clipPath id="clip-path"><circle class="cls-1" cx="200" cy="200" r="200"/></clipPath></defs><title>4Artboard 1 copy 4</title><g class="cls-2"><g id="Layer_1" data-name="Layer 1"><g class="cls-3"><circle class="cls-4" cx="200" cy="200" r="200"/></g><g class="cls-3"><rect class="cls-5" x="64.16" y="219.05" width="271.43" height="180.95"/><rect class="cls-6" x="235.76" y="219.05" width="99.84" height="180.95"/><polygon class="cls-6" points="365.75 161.61 265.92 161.61 235.76 219.05 335.59 219.05 365.75 161.61"/><polygon class="cls-7" points="34.25 161.61 134.08 161.61 164.24 219.06 64.16 219.06 34.25 161.61"/><polygon class="cls-6" points="171.69 332.91 192.88 353.87 214.06 332.91 171.69 332.91"/><rect class="cls-6" x="184.71" y="301.59" width="15.66" height="31.32"/><polygon class="cls-6" points="123.22 332.91 144.41 353.87 165.59 332.91 123.22 332.91"/><rect class="cls-6" x="136.25" y="301.59" width="15.66" height="31.32"/><rect class="cls-6" x="121.99" y="360.51" width="90.56" height="15.65"/></g><path class="cls-8" d="M241.93,104A41.93,41.93,0,1,1,200,62,41.93,41.93,0,0,1,241.93,104Z"/><polygon class="cls-9" points="190.96 116.8 180.69 106.51 183.29 103.91 190.96 111.58 216.59 85.96 219.19 88.57 190.96 116.8"/><g class="cls-3"><rect class="cls-10" x="64.15" y="219.02" width="271.46" height="180.98"/><rect class="cls-10" x="235.76" y="219.02" width="99.85" height="180.98"/><polygon class="cls-10" points="365.77 161.58 265.92 161.58 235.76 219.02 335.61 219.02 365.77 161.58"/><polygon class="cls-10" points="34.23 161.58 134.08 161.58 164.24 219.03 64.15 219.03 34.23 161.58"/><g class="cls-11"><polygon class="cls-10" points="171.68 332.9 192.87 353.86 214.06 332.9 171.68 332.9"/><rect class="cls-10" x="184.71" y="301.58" width="15.66" height="31.32"/><polygon class="cls-10" points="123.21 332.9 144.4 353.86 165.59 332.9 123.21 332.9"/><rect class="cls-10" x="136.24" y="301.58" width="15.66" height="31.32"/><rect class="cls-10" x="121.98" y="360.5" width="90.57" height="15.65"/></g><g class="cls-12"><polygon class="cls-10" points="34.23 161.58 134.08 161.58 164.24 219.03 64.15 219.03 34.23 161.58"/></g><g class="cls-11"><rect class="cls-10" x="235.55" y="219.02" width="99.85" height="180.98"/></g><g class="cls-11"><polygon class="cls-10" points="365.56 161.58 265.72 161.58 235.55 219.02 335.4 219.02 365.56 161.58"/></g></g></g></g></svg>