<?xml version="1.0" encoding="utf-8"?><svg xmlns="http://www.w3.org/2000/svg" xmlns:xlink="http://www.w3.org/1999/xlink" viewBox="0 0 400 400"><defs><style>.cls-1{fill:none;}.cls-2{fill:#0093d2;}.cls-3{fill:#ffc629;}.cls-4{isolation:isolate;}.cls-5{clip-path:url(#clip-path);}.cls-6{fill:#d50057;}.cls-7{clip-path:url(#clip-path-2);}.cls-8{opacity:0.1;}.cls-9{clip-path:url(#clip-path-3);}.cls-10{clip-path:url(#clip-path-4);}.cls-11{fill:#c2d500;}.cls-12{opacity:0.5;}.cls-12,.cls-13{mix-blend-mode:multiply;}.cls-13{opacity:0.36;}.cls-14{fill:#d8e217;}.cls-15{fill:#fff;}.cls-16{fill:#d6d6d6;}</style><clipPath id="clip-path"><circle class="cls-1" cx="200" cy="-222.11" r="200"/></clipPath><clipPath id="clip-path-2"><circle class="cls-2" cx="200" cy="200" r="200"/></clipPath><clipPath id="clip-path-3"><circle class="cls-3" cx="200" cy="622.11" r="200"/></clipPath><clipPath id="clip-path-4"><circle class="cls-1" cx="200" cy="200" r="199.99"/></clipPath></defs><title>4Artboard 1 copy 24</title><g class="cls-4"><g id="Layer_1" data-name="Layer 1"><g class="cls-5"><circle class="cls-6" cx="234.97" cy="-233.88" r="276.69"/></g><circle class="cls-2" cx="200" cy="200" r="200"/><g class="cls-7"><g class="cls-8"><circle class="cls-2" cx="234.97" cy="188.23" r="276.69"/></g></g><circle class="cls-3" cx="200" cy="622.11" r="200"/><g class="cls-9"><circle class="cls-3" cx="234.97" cy="610.33" r="276.69"/></g><g class="cls-10"><path class="cls-11" d="M56.72,199.66,200,271.29l143.27-71.63V352.48L200,424.11,56.72,352.48Z"/><g class="cls-12"><path class="cls-11" d="M56.72,214v44.65l142.79,70,143.75-70.2V214L200,284.19Z"/></g><g class="cls-13"><path class="cls-11" d="M200,424.11V271.29L66.27,204.43H56.72V352.48Z"/></g><path class="cls-14" d="M47.17,194.64,200,118.47l152.82,76.17v10L200,280.84,47.17,204.91Z"/><path class="cls-15" d="M287.63,142.59c-5-9.08-15.76-14.57-28.42-14.57C230.32,128,210,155,200,172.19c-10-17.19-30.56-43.93-59.22-43.93-18.39,0-31.52,11.22-31.52,26.5,0,27.22,29.85,44.9,89.78,44.9S290.73,177,290.73,155A25.29,25.29,0,0,0,287.63,142.59ZM147,172c-6.69-4.54-9.07-9.55-9.07-12.9,0-4.06,3.82-7.16,9.31-7.16,12.89,0,23.16,16.95,28.89,28.65C161.07,179.36,152.23,175.3,147,172Zm106,0c-5.25,3.34-14.09,7.4-29.13,8.59,5.49-11.7,15.76-28.65,28.89-28.65,5.49,0,9.31,3.1,9.31,7.16C262.08,162.41,259.69,167.42,253,172Z"/><path class="cls-11" d="M47.17,194.88,200,269.62l152.82-74.74v49.43l-153.3,74.74L47.17,244.31Z"/><path class="cls-15" d="M257.3,248.13v-5.49l-57.31-31-57.31,31v5.49l-38.2-16.72v-7.64l93.6-49.43,1.91,1,1.91-1,93.61,49.19v7.65Z"/><path class="cls-16" d="M257.3,242.64V395.22l38.21-19.1V223.53Z"/><path class="cls-16" d="M104.48,376.36l38.2,19.1V242.88l-38.2-19.35Z"/></g></g></g></svg>