<?xml version="1.0" encoding="utf-8"?><svg id="Layer_1" data-name="Layer 1" xmlns="http://www.w3.org/2000/svg" xmlns:xlink="http://www.w3.org/1999/xlink" viewBox="0 0 100 100"><defs><style>.cls-1{clip-path:url(#clip-path);}.cls-2{clip-path:url(#clip-path-2);}.cls-3{clip-path:url(#clip-path-3);}.cls-4{clip-path:url(#clip-path-4);}.cls-5{clip-path:url(#clip-path-5);}.cls-6{clip-path:url(#clip-path-6);}.cls-7{clip-path:url(#clip-path-7);}.cls-8{clip-path:url(#clip-path-8);}.cls-9{clip-path:url(#clip-path-9);}.cls-10{clip-path:url(#clip-path-10);}.cls-11{clip-path:url(#clip-path-11);}.cls-12{clip-path:url(#clip-path-12);}.cls-13{clip-path:url(#clip-path-13);}.cls-14{clip-path:url(#clip-path-14);}.cls-15{clip-path:url(#clip-path-15);}.cls-16{clip-path:url(#clip-path-16);}.cls-17{clip-path:url(#clip-path-17);}</style><clipPath id="clip-path"><path d="M35,57.4V44.61l13.35,8V65.4Zm16.68-4.78,13.35-8V57.4l-13.35,8ZM45,46.67,58.38,38.6l5.1,3.06L50,49.73Zm-8.34-5L50,33.6l5.1,3.06L41.7,44.72ZM49.19,30.22l-16.68,10-.18.14-.15.12a1.39,1.39,0,0,0-.15.19l-.11.15a1.22,1.22,0,0,0-.1.24,1.11,1.11,0,0,0-.07.16,1.59,1.59,0,0,0-.06.43V58.34a1.72,1.72,0,0,0,.81,1.44l16.69,10h0l0,0,.28.11.11,0a1.61,1.61,0,0,0,.87,0l.11,0,.28-.11,0,0h0l16.68-10a1.67,1.67,0,0,0,.81-1.44V41.66a2.1,2.1,0,0,0,0-.43,1,1,0,0,0-.07-.15,1.63,1.63,0,0,0-.1-.25l-.11-.15-.15-.19-.16-.12a1.07,1.07,0,0,0-.16-.14l-16.68-10a1.66,1.66,0,0,0-.86-.23,1.63,1.63,0,0,0-.86.23"/></clipPath><clipPath id="clip-path-2"><path d="M50,0A1.78,1.78,0,0,0,49,.39a1.36,1.36,0,0,0-.24.24L44.71,6A1.65,1.65,0,0,0,45,8.3h0A1.68,1.68,0,0,0,47.38,8l1-1.34V18.31A1.66,1.66,0,0,0,50,20h0a1.66,1.66,0,0,0,1.66-1.67V6.63l1,1.34a1.68,1.68,0,0,0,2.34.33h0A1.66,1.66,0,0,0,55.39,6l-4-5.34A1.74,1.74,0,0,0,50.05,0Z"/></clipPath><clipPath id="clip-path-3"><path d="M48.38,81.7V93.38l-1-1.34a1.67,1.67,0,0,0-2.67,2l4,5.31a1.83,1.83,0,0,0,1,.66h.77a1.73,1.73,0,0,0,1-.63l4-5.34a1.66,1.66,0,0,0-.33-2.33h0a1.66,1.66,0,0,0-2.34.33l-1,1.34V81.7a1.67,1.67,0,1,0-3.33,0"/></clipPath><clipPath id="clip-path-4"><path d="M50,23.31h0A1.66,1.66,0,0,1,51.71,25v0A1.66,1.66,0,0,1,50,26.65h0A1.67,1.67,0,0,1,48.38,25v0A1.67,1.67,0,0,1,50,23.31Z"/></clipPath><clipPath id="clip-path-5"><path d="M50,73.36A1.66,1.66,0,0,0,48.38,75h0A1.66,1.66,0,0,0,50,76.69h0A1.66,1.66,0,0,0,51.71,75h0A1.66,1.66,0,0,0,50,73.36Z"/></clipPath><clipPath id="clip-path-6"><path d="M6,44.66l-5.31,4A1.7,1.7,0,0,0,0,49.88a1.67,1.67,0,0,0,.67,1.46l5.34,4A1.65,1.65,0,0,0,8.34,55h0A1.67,1.67,0,0,0,8,52.67l-1.34-1H18.35A1.67,1.67,0,0,0,20,50h0a1.67,1.67,0,0,0-1.67-1.67H6.67l1.34-1A1.66,1.66,0,0,0,8.34,45h0A1.67,1.67,0,0,0,6,44.66"/></clipPath><clipPath id="clip-path-7"><path d="M91.75,45h0a1.65,1.65,0,0,0,.33,2.33l1.34,1H81.74A1.67,1.67,0,0,0,80.07,50h0a1.66,1.66,0,0,0,1.67,1.66H93.42l-1.34,1A1.66,1.66,0,0,0,91.75,55h0a1.65,1.65,0,0,0,2.33.33l5.31-4a1.84,1.84,0,0,0,.61-.83V49.47a1.62,1.62,0,0,0-.58-.8l-5.34-4a1.69,1.69,0,0,0-1-.33,1.66,1.66,0,0,0-1.33.67"/></clipPath><clipPath id="clip-path-8"><path d="M25,48.33h0A1.66,1.66,0,0,1,26.69,50v0A1.66,1.66,0,0,1,25,51.67h0A1.67,1.67,0,0,1,23.35,50v0A1.66,1.66,0,0,1,25,48.33Z"/></clipPath><clipPath id="clip-path-9"><rect x="73.4" y="48.33" width="3.34" height="3.34" rx="1.67"/></clipPath><clipPath id="clip-path-10"><path d="M14.18,15.54a2,2,0,0,0,0,.49l.94,6.61A1.67,1.67,0,0,0,17,24.05h0a1.66,1.66,0,0,0,1.42-1.88l-.24-1.65L27.63,30,30,27.59l-9.43-9.43,1.65.23A1.66,1.66,0,0,0,24.09,17h0a1.65,1.65,0,0,0-1.41-1.88l-6.61-.95-.24,0a1.67,1.67,0,0,0-1.65,1.42"/></clipPath><clipPath id="clip-path-11"><path d="M71.28,71.24a1.65,1.65,0,0,0,0,2.36l8.25,8.25-1.64-.23a1.67,1.67,0,1,0-.48,3.3l6.61.94.24,0a1.66,1.66,0,0,0,1.66-1.67,1.69,1.69,0,0,0,0-.23l-1-6.61A1.67,1.67,0,0,0,83.07,76h0a1.66,1.66,0,0,0-1.41,1.88l.23,1.66-8.25-8.26a1.67,1.67,0,0,0-1.18-.49,1.63,1.63,0,0,0-1.18.49"/></clipPath><clipPath id="clip-path-12"><path d="M31.17,31.13h0a1.66,1.66,0,0,0,0,2.35h0a1.67,1.67,0,0,0,2.36,0h0a1.66,1.66,0,0,0,0-2.35h0a1.69,1.69,0,0,0-1.18-.49,1.71,1.71,0,0,0-1.18.49"/></clipPath><clipPath id="clip-path-13"><path d="M66.56,66.52h0a1.66,1.66,0,0,0,0,2.35h0a1.67,1.67,0,0,0,2.36,0h0a1.66,1.66,0,0,0,0-2.35h0A1.65,1.65,0,0,0,67.74,66a1.63,1.63,0,0,0-1.18.49"/></clipPath><clipPath id="clip-path-14"><path d="M26.45,71.24,18.2,79.49l.23-1.65A1.67,1.67,0,0,0,17,76h0a1.67,1.67,0,0,0-1.89,1.42l-1,6.61a1.66,1.66,0,0,0,1.41,1.88l.24,0,.24,0,6.6-.94a1.67,1.67,0,1,0-.47-3.31l-1.65.24,8.26-8.26a1.66,1.66,0,0,0,0-2.35,1.63,1.63,0,0,0-1.18-.49,1.65,1.65,0,0,0-1.18.49"/></clipPath><clipPath id="clip-path-15"><path d="M84,14.15l-6.61.94A1.65,1.65,0,0,0,76,17h0a1.65,1.65,0,0,0,1.88,1.41l1.65-.23-8.26,8.25a1.67,1.67,0,0,0,0,2.36h0a1.67,1.67,0,0,0,2.36,0l8.25-8.25-.23,1.65a1.65,1.65,0,0,0,1.41,1.88h0A1.67,1.67,0,0,0,85,22.64L85.9,16a1.64,1.64,0,0,0-.47-1.41,1.62,1.62,0,0,0-1.17-.49,1,1,0,0,0-.24,0"/></clipPath><clipPath id="clip-path-16"><path d="M31.17,66.52h0a1.67,1.67,0,0,0,0,2.36h0a1.67,1.67,0,0,0,2.36,0h0a1.67,1.67,0,0,0,0-2.36h0A1.63,1.63,0,0,0,32.35,66a1.67,1.67,0,0,0-1.18.49"/></clipPath><clipPath id="clip-path-17"><path d="M66.56,31.12h0a1.66,1.66,0,0,0,0,2.35h0a1.69,1.69,0,0,0,2.36,0h0a1.66,1.66,0,0,0,0-2.35h0a1.69,1.69,0,0,0-2.36,0"/></clipPath></defs><title>Subscription Box Fulfilment</title><path d="M35,57.4V44.61l13.35,8V65.4Zm16.68-4.78,13.35-8V57.4l-13.35,8ZM45,46.67,58.38,38.6l5.1,3.06L50,49.73Zm-8.34-5L50,33.6l5.1,3.06L41.7,44.72ZM49.19,30.22l-16.68,10-.18.14-.15.12a1.39,1.39,0,0,0-.15.19l-.11.15a1.22,1.22,0,0,0-.1.24,1.11,1.11,0,0,0-.07.16,1.59,1.59,0,0,0-.06.43V58.34a1.72,1.72,0,0,0,.81,1.44l16.69,10h0l0,0,.28.11.11,0a1.61,1.61,0,0,0,.87,0l.11,0,.28-.11,0,0h0l16.68-10a1.67,1.67,0,0,0,.81-1.44V41.66a2.1,2.1,0,0,0,0-.43,1,1,0,0,0-.07-.15,1.63,1.63,0,0,0-.1-.25l-.11-.15-.15-.19-.16-.12a1.07,1.07,0,0,0-.16-.14l-16.68-10a1.66,1.66,0,0,0-.86-.23,1.63,1.63,0,0,0-.86.23"/><g class="cls-1"><polygon points="31.69 69.91 31.82 70.04 31.69 70.04 31.69 69.91"/><polygon points="31.69 69.21 32.52 70.04 31.82 70.04 31.69 69.91 31.69 69.21"/><polygon points="31.69 68.51 33.23 70.04 32.52 70.04 31.69 69.21 31.69 68.51"/><polygon points="31.69 67.81 33.93 70.04 33.23 70.04 31.69 68.51 31.69 67.81"/><polygon points="31.69 67.1 34.63 70.04 33.93 70.04 31.69 67.81 31.69 67.1"/><polygon points="31.69 66.4 35.34 70.04 34.63 70.04 31.69 67.1 31.69 66.4"/><polygon points="31.69 65.69 36.04 70.04 35.34 70.04 31.69 66.4 31.69 65.69"/><polygon points="31.69 64.99 36.74 70.04 36.04 70.04 31.69 65.69 31.69 64.99"/><polygon points="31.69 64.29 37.45 70.04 36.74 70.04 31.69 64.99 31.69 64.29"/><polygon points="31.69 63.59 38.15 70.04 37.45 70.04 31.69 64.29 31.69 63.59"/><polygon points="31.69 62.88 38.85 70.04 38.15 70.04 31.69 63.59 31.69 62.88"/><polygon points="31.69 62.18 39.55 70.04 38.85 70.04 31.69 62.88 31.69 62.18"/><polygon points="31.69 61.48 40.26 70.04 39.55 70.04 31.69 62.18 31.69 61.48"/><polygon points="31.69 60.77 40.96 70.04 40.26 70.04 31.69 61.48 31.69 60.77"/><polygon points="31.69 60.07 41.66 70.04 40.96 70.04 31.69 60.77 31.69 60.07"/><polygon points="31.69 59.37 42.37 70.04 41.66 70.04 31.69 60.07 31.69 59.37"/><polygon points="31.69 58.66 43.07 70.04 42.37 70.04 31.69 59.37 31.69 58.66"/><polygon points="31.69 57.96 43.77 70.04 43.07 70.04 31.69 58.67 31.69 57.96"/><polygon points="31.69 57.26 44.48 70.04 43.77 70.04 31.69 57.96 31.69 57.26"/><polygon points="31.69 56.55 45.18 70.04 44.48 70.04 31.69 57.26 31.69 56.55"/><polygon points="31.69 55.85 45.88 70.04 45.18 70.04 31.69 56.55 31.69 55.85"/><polygon points="31.69 55.15 46.59 70.04 45.88 70.04 31.69 55.85 31.69 55.15"/><polygon points="31.69 54.45 47.29 70.04 46.59 70.04 31.69 55.15 31.69 54.45"/><polygon points="31.69 53.74 47.99 70.04 47.29 70.04 31.69 54.45 31.69 53.74"/><polygon points="31.69 53.04 48.7 70.04 47.99 70.04 31.69 53.74 31.69 53.04"/><polygon points="31.69 52.34 49.4 70.04 48.7 70.04 31.69 53.04 31.69 52.34"/><polygon points="31.69 51.63 50.1 70.04 49.4 70.04 31.69 52.34 31.69 51.63"/><polygon points="31.69 50.93 50.8 70.04 50.1 70.04 31.69 51.63 31.69 50.93"/><polygon points="31.69 50.23 51.51 70.04 50.8 70.04 31.69 50.93 31.69 50.23"/><polygon points="31.69 49.52 52.21 70.04 51.51 70.04 31.69 50.23 31.69 49.52"/><polygon points="31.69 48.82 52.91 70.04 52.21 70.04 31.69 49.53 31.69 48.82"/><polygon points="31.69 48.12 53.62 70.04 52.91 70.04 31.69 48.82 31.69 48.12"/><polygon points="31.69 47.42 54.32 70.04 53.62 70.04 31.69 48.12 31.69 47.42"/><polygon points="31.69 46.71 55.02 70.04 54.32 70.04 31.69 47.42 31.69 46.71"/><polygon points="31.69 46.01 55.73 70.04 55.02 70.04 31.69 46.71 31.69 46.01"/><polygon points="31.69 45.31 56.43 70.04 55.73 70.04 31.69 46.01 31.69 45.31"/><polygon points="31.69 44.6 57.13 70.04 56.43 70.04 31.69 45.31 31.69 44.6"/><polygon points="31.69 43.9 57.83 70.04 57.13 70.04 31.69 44.6 31.69 43.9"/><polygon points="31.69 43.2 58.54 70.04 57.83 70.04 31.69 43.9 31.69 43.2"/><polygon points="31.69 42.49 59.24 70.04 58.54 70.04 31.69 43.2 31.69 42.49"/><polygon points="31.69 41.79 59.94 70.04 59.24 70.04 31.69 42.49 31.69 41.79"/><polygon points="31.69 41.09 60.65 70.04 59.94 70.04 31.69 41.79 31.69 41.09"/><polygon points="31.69 40.38 61.35 70.04 60.65 70.04 31.69 41.09 31.69 40.38"/><polygon points="31.69 39.68 61.76 69.75 61.47 70.04 61.35 70.04 31.69 40.39 31.69 39.68"/><polygon points="31.69 38.98 62.11 69.4 61.76 69.75 31.69 39.68 31.69 38.98"/><polygon points="31.69 38.28 62.46 69.05 62.11 69.4 31.69 38.98 31.69 38.28"/><polygon points="31.69 37.57 62.81 68.69 62.46 69.05 31.69 38.28 31.69 37.57"/><polygon points="31.69 37.03 31.77 36.95 63.16 68.34 62.81 68.69 31.69 37.57 31.69 37.03"/><rect x="47.4" y="30.27" width="0.5" height="44.4" transform="translate(-23.14 48.83) rotate(-44.81)"/><rect x="47.75" y="29.92" width="0.5" height="44.4" transform="translate(-22.8 49.2) rotate(-45)"/><rect x="48.1" y="29.57" width="0.5" height="44.4" transform="translate(-22.44 49.35) rotate(-45)"/><rect x="48.45" y="29.22" width="0.5" height="44.4" transform="translate(-22.09 49.49) rotate(-45)"/><rect x="48.8" y="28.86" width="0.5" height="44.4" transform="translate(-21.74 49.64) rotate(-45)"/><rect x="49.15" y="28.51" width="0.5" height="44.4" transform="translate(-21.39 49.79) rotate(-45)"/><rect x="49.51" y="28.16" width="0.5" height="44.4" transform="translate(-21.04 49.93) rotate(-45)"/><rect x="49.86" y="27.81" width="0.5" height="44.4" transform="translate(-20.69 50.08) rotate(-45)"/><rect x="50.21" y="27.46" width="0.5" height="44.4" transform="translate(-20.34 50.22) rotate(-45)"/><rect x="50.56" y="27.11" width="0.5" height="44.4" transform="translate(-19.98 50.37) rotate(-45)"/><rect x="50.91" y="26.75" width="0.5" height="44.4" transform="translate(-19.63 50.51) rotate(-45)"/><polygon points="35.64 33.08 35.99 32.73 67.39 64.13 67.03 64.48 35.64 33.08"/><rect x="51.61" y="26.05" width="0.5" height="44.4" transform="translate(-18.93 50.81) rotate(-45)"/><rect x="51.97" y="25.7" width="0.5" height="44.4" transform="translate(-18.58 50.95) rotate(-45)"/><polygon points="36.69 32.03 37.05 31.68 68.39 63.02 68.39 63.12 68.09 63.42 36.69 32.03"/><polygon points="37.05 31.68 37.4 31.32 68.39 62.32 68.39 63.02 37.05 31.68"/><polygon points="37.4 31.32 37.75 30.97 68.39 61.62 68.39 62.32 37.4 31.32"/><polygon points="37.75 30.97 38.1 30.62 68.39 60.92 68.39 61.62 37.75 30.97"/><polygon points="38.1 30.62 38.45 30.27 68.39 60.21 68.39 60.92 38.1 30.62"/><polygon points="38.45 30.27 38.8 29.92 68.39 59.51 68.39 60.21 38.45 30.27"/><polygon points="38.8 29.92 38.81 29.91 39.5 29.91 68.39 58.81 68.39 59.51 38.8 29.92"/><polygon points="40.2 29.91 68.39 58.1 68.39 58.81 39.49 29.91 40.2 29.91"/><polygon points="40.9 29.91 68.39 57.4 68.39 58.1 40.2 29.91 40.9 29.91"/><polygon points="41.6 29.91 68.4 56.7 68.4 57.4 40.9 29.91 41.6 29.91"/><polygon points="42.31 29.91 68.39 56 68.39 56.7 41.6 29.91 42.31 29.91"/><polygon points="43.01 29.91 68.39 55.29 68.39 56 42.31 29.91 43.01 29.91"/><polygon points="43.71 29.91 68.39 54.59 68.39 55.29 43.01 29.91 43.71 29.91"/><polygon points="44.42 29.91 68.39 53.88 68.39 54.59 43.71 29.91 44.42 29.91"/><polygon points="45.12 29.91 68.39 53.18 68.39 53.88 44.42 29.91 45.12 29.91"/><polygon points="45.82 29.91 68.39 52.48 68.39 53.18 45.12 29.91 45.82 29.91"/><polygon points="46.52 29.91 68.39 51.77 68.39 52.48 45.82 29.91 46.52 29.91"/><polygon points="47.23 29.91 68.39 51.08 68.39 51.77 46.52 29.91 47.23 29.91"/><polygon points="47.93 29.91 68.39 50.37 68.39 51.08 47.23 29.91 47.93 29.91"/><polygon points="48.63 29.91 68.39 49.66 68.39 50.37 47.93 29.91 48.63 29.91"/><polygon points="49.34 29.91 68.39 48.97 68.39 49.66 48.63 29.91 49.34 29.91"/><polygon points="50.04 29.91 68.39 48.26 68.39 48.97 49.34 29.91 50.04 29.91"/><polygon points="50.74 29.91 68.39 47.56 68.39 48.26 50.04 29.91 50.74 29.91"/><polygon points="51.45 29.91 68.39 46.85 68.39 47.56 50.74 29.91 51.45 29.91"/><polygon points="52.15 29.91 68.39 46.15 68.39 46.85 51.45 29.91 52.15 29.91"/><polygon points="52.85 29.91 68.39 45.45 68.39 46.15 52.15 29.91 52.85 29.91"/><polygon points="53.55 29.91 68.4 44.74 68.4 45.45 52.85 29.91 53.55 29.91"/><polygon points="54.26 29.91 68.39 44.04 68.39 44.74 53.56 29.91 54.26 29.91"/><polygon points="54.96 29.91 68.39 43.34 68.39 44.04 54.26 29.91 54.96 29.91"/><polygon points="55.66 29.91 68.39 42.64 68.39 43.34 54.96 29.91 55.66 29.91"/><polygon points="56.37 29.91 68.39 41.93 68.39 42.64 55.66 29.91 56.37 29.91"/><polygon points="57.07 29.91 68.39 41.23 68.39 41.93 56.37 29.91 57.07 29.91"/><polygon points="57.77 29.91 68.39 40.53 68.39 41.23 57.07 29.91 57.77 29.91"/><polygon points="58.48 29.91 68.39 39.82 68.39 40.53 57.77 29.91 58.48 29.91"/><polygon points="59.18 29.91 68.39 39.12 68.39 39.82 58.48 29.91 59.18 29.91"/><polygon points="59.88 29.91 68.39 38.42 68.39 39.12 59.18 29.91 59.88 29.91"/><polygon points="60.59 29.91 68.39 37.72 68.39 38.42 59.88 29.91 60.59 29.91"/><polygon points="61.29 29.91 68.39 37.01 68.39 37.72 60.59 29.91 61.29 29.91"/><polygon points="61.99 29.91 68.39 36.31 68.39 37.01 61.29 29.91 61.99 29.91"/><polygon points="62.7 29.91 68.39 35.6 68.39 36.31 61.99 29.91 62.7 29.91"/><polygon points="63.4 29.91 68.39 34.9 68.39 35.6 62.7 29.91 63.4 29.91"/><polygon points="68.39 34.9 63.4 29.91 68.39 29.91 68.39 34.9"/><polygon points="36.61 44.59 36.73 44.72 36.61 44.72 36.61 44.59"/><polygon points="36.61 43.89 37.44 44.72 36.73 44.72 36.61 44.59 36.61 43.89"/><polygon points="36.61 43.19 38.14 44.72 37.44 44.72 36.61 43.89 36.61 43.19"/><polygon points="36.61 42.48 38.84 44.72 38.14 44.72 36.61 43.19 36.61 42.48"/><polygon points="36.61 41.78 39.55 44.72 38.84 44.72 36.61 42.49 36.61 41.78"/><polygon points="36.61 41.08 40.25 44.72 39.55 44.72 36.61 41.78 36.61 41.08"/><polygon points="36.61 40.38 40.95 44.72 40.25 44.72 36.61 41.08 36.61 40.38"/><polygon points="36.61 39.67 41.66 44.72 40.95 44.72 36.61 40.38 36.61 39.67"/><polygon points="36.61 38.97 42.36 44.72 41.66 44.72 36.61 39.67 36.61 38.97"/><polygon points="36.61 38.27 43.06 44.72 42.36 44.72 36.61 38.97 36.61 38.27"/><polygon points="36.61 37.71 36.68 37.64 43.77 44.72 43.06 44.72 36.61 38.27 36.61 37.71"/><polygon points="36.68 37.64 37.03 37.29 44.47 44.72 43.77 44.72 36.68 37.64"/><polygon points="37.03 37.29 37.38 36.94 45.17 44.72 44.47 44.72 37.03 37.29"/><polygon points="37.38 36.94 37.73 36.59 45.87 44.72 45.17 44.72 37.38 36.94"/><polygon points="37.74 36.59 38.09 36.23 46.58 44.72 45.87 44.72 37.74 36.59"/><polygon points="38.09 36.23 38.44 35.88 47.28 44.72 46.58 44.72 38.09 36.23"/><polygon points="38.44 35.88 38.79 35.53 47.98 44.72 47.28 44.72 38.44 35.88"/><polygon points="38.79 35.53 39.14 35.18 48.69 44.72 47.98 44.72 38.79 35.53"/><polygon points="39.14 35.18 39.49 34.83 49.39 44.72 48.69 44.72 39.14 35.18"/><polygon points="39.49 34.83 39.84 34.48 50.09 44.72 49.39 44.72 39.49 34.83"/><polygon points="39.84 34.48 40.2 34.12 50.8 44.72 50.09 44.72 39.84 34.48"/><polygon points="40.2 34.12 40.55 33.77 51.26 44.49 51.03 44.72 50.8 44.72 40.2 34.12"/><polygon points="40.55 33.77 40.72 33.6 41.08 33.6 51.61 44.14 51.26 44.49 40.55 33.77"/><polygon points="41.78 33.6 51.97 43.78 51.62 44.14 41.08 33.6 41.78 33.6"/><polygon points="42.48 33.6 52.32 43.43 51.97 43.78 41.78 33.6 42.48 33.6"/><polygon points="43.19 33.6 52.67 43.08 52.32 43.43 42.48 33.6 43.19 33.6"/><polygon points="43.89 33.6 53.02 42.73 52.67 43.08 43.19 33.6 43.89 33.6"/><polygon points="44.59 33.6 53.37 42.38 53.02 42.73 43.89 33.6 44.59 33.6"/><polygon points="45.3 33.6 53.72 42.02 53.37 42.38 44.59 33.6 45.3 33.6"/><polygon points="46 33.6 54.07 41.68 53.72 42.02 45.3 33.6 46 33.6"/><polygon points="46.7 33.6 54.43 41.32 54.07 41.68 46 33.6 46.7 33.6"/><polygon points="47.41 33.6 54.78 40.97 54.43 41.32 46.7 33.6 47.41 33.6"/><polygon points="48.11 33.6 55.13 40.62 54.78 40.97 47.41 33.6 48.11 33.6"/><polygon points="48.81 33.6 55.14 39.93 55.14 40.61 55.13 40.62 48.11 33.6 48.81 33.6"/><polygon points="49.51 33.6 55.14 39.23 55.14 39.93 48.81 33.6 49.51 33.6"/><polygon points="50.22 33.6 55.14 38.53 55.14 39.23 49.51 33.6 50.22 33.6"/><polygon points="50.92 33.6 55.14 37.82 55.14 38.53 50.22 33.6 50.92 33.6"/><polygon points="51.62 33.6 55.14 37.12 55.14 37.82 50.92 33.6 51.62 33.6"/><polygon points="52.33 33.6 55.14 36.42 55.14 37.12 51.62 33.6 52.33 33.6"/><polygon points="53.03 33.6 55.14 35.71 55.14 36.42 52.33 33.6 53.03 33.6"/><polygon points="53.73 33.6 55.14 35.01 55.14 35.71 53.03 33.6 53.73 33.6"/><polygon points="54.44 33.6 55.14 34.31 55.14 35.01 53.73 33.6 54.44 33.6"/><polygon points="55.14 33.6 55.14 33.6 55.14 34.31 54.44 33.6 55.14 33.6"/><polygon points="55.14 33.6 55.14 33.6 55.14 33.6 55.14 33.6"/><polygon points="35.03 64.81 35.62 65.41 35.03 65.41 35.03 64.81"/><polygon points="35.03 64.11 36.33 65.41 35.62 65.41 35.03 64.81 35.03 64.11"/><polygon points="35.03 63.41 37.03 65.41 36.33 65.41 35.03 64.11 35.03 63.41"/><polygon points="35.03 62.7 37.73 65.41 37.03 65.41 35.03 63.41 35.03 62.7"/><polygon points="35.03 62 38.43 65.4 37.73 65.4 35.03 62.7 35.03 62"/><polygon points="35.03 61.3 39.14 65.41 38.43 65.41 35.03 62 35.03 61.3"/><polygon points="35.03 60.59 39.84 65.41 39.14 65.41 35.03 61.3 35.03 60.59"/><polygon points="35.03 59.89 40.54 65.4 39.84 65.4 35.03 60.6 35.03 59.89"/><polygon points="35.03 59.19 41.25 65.41 40.54 65.41 35.03 59.89 35.03 59.19"/><polygon points="35.03 58.48 41.95 65.41 41.25 65.41 35.03 59.19 35.03 58.48"/><polygon points="35.03 57.78 42.65 65.41 41.95 65.41 35.03 58.49 35.03 57.78"/><polygon points="35.03 57.08 43.36 65.4 42.65 65.4 35.03 57.78 35.03 57.08"/><polygon points="35.03 56.38 44.06 65.41 43.36 65.41 35.03 57.08 35.03 56.38"/><polygon points="35.03 55.67 44.76 65.41 44.06 65.41 35.03 56.38 35.03 55.67"/><polygon points="35.03 54.97 45.47 65.4 44.76 65.4 35.03 55.67 35.03 54.97"/><polygon points="35.03 54.27 46.17 65.41 45.47 65.41 35.03 54.97 35.03 54.27"/><polygon points="35.03 53.56 46.87 65.41 46.17 65.41 35.03 54.27 35.03 53.56"/><polygon points="35.03 52.86 47.58 65.4 46.87 65.4 35.03 53.56 35.03 52.86"/><polygon points="35.03 52.16 48.28 65.41 47.58 65.41 35.03 52.86 35.03 52.16"/><polygon points="35.03 51.46 48.38 64.8 48.38 65.41 48.28 65.41 35.03 52.16 35.03 51.46"/><polygon points="35.03 50.75 48.38 64.1 48.38 64.8 35.03 51.46 35.03 50.75"/><polygon points="35.03 50.05 48.38 63.4 48.38 64.1 35.03 50.76 35.03 50.05"/><polygon points="35.03 49.35 48.38 62.69 48.38 63.4 35.03 50.05 35.03 49.35"/><polygon points="35.03 48.64 48.38 61.99 48.38 62.69 35.03 49.35 35.03 48.64"/><polygon points="35.03 47.94 48.38 61.29 48.38 61.99 35.03 48.64 35.03 47.94"/><polygon points="35.03 47.24 48.38 60.58 48.38 61.29 35.03 47.94 35.03 47.24"/><polygon points="35.03 46.53 48.38 59.88 48.38 60.58 35.03 47.24 35.03 46.53"/><polygon points="35.03 45.83 48.38 59.18 48.38 59.88 35.03 46.54 35.03 45.83"/><polygon points="35.03 45.13 48.38 58.47 48.38 59.18 35.03 45.83 35.03 45.13"/><polygon points="35.22 44.61 48.38 57.77 48.38 58.47 35.03 45.13 35.03 44.61 35.22 44.61"/><polygon points="35.92 44.61 48.38 57.07 48.38 57.77 35.22 44.61 35.92 44.61"/><polygon points="36.62 44.61 48.38 56.36 48.38 57.07 35.92 44.61 36.62 44.61"/><polygon points="37.32 44.61 48.38 55.66 48.38 56.36 36.62 44.61 37.32 44.61"/><polygon points="38.03 44.61 48.38 54.96 48.38 55.66 37.32 44.61 38.03 44.61"/><polygon points="38.73 44.61 48.38 54.26 48.38 54.96 38.03 44.61 38.73 44.61"/><polygon points="39.43 44.61 48.38 53.55 48.38 54.26 38.73 44.61 39.43 44.61"/><polygon points="40.14 44.61 48.38 52.85 48.38 53.55 39.43 44.61 40.14 44.61"/><polygon points="40.84 44.61 48.38 52.15 48.38 52.85 40.14 44.61 40.84 44.61"/><polygon points="41.54 44.61 48.38 51.44 48.38 52.15 40.84 44.61 41.54 44.61"/><polygon points="42.24 44.61 48.38 50.74 48.38 51.44 41.54 44.61 42.24 44.61"/><polygon points="42.95 44.61 48.38 50.04 48.38 50.74 42.25 44.61 42.95 44.61"/><polygon points="43.65 44.61 48.38 49.34 48.38 50.04 42.95 44.61 43.65 44.61"/><polygon points="44.35 44.61 48.38 48.63 48.38 49.34 43.65 44.61 44.35 44.61"/><polygon points="45.06 44.61 48.38 47.93 48.38 48.63 44.35 44.61 45.06 44.61"/><polygon points="45.76 44.61 48.38 47.23 48.38 47.93 45.06 44.61 45.76 44.61"/><polygon points="46.46 44.61 48.38 46.52 48.38 47.23 45.76 44.61 46.46 44.61"/><polygon points="47.17 44.61 48.38 45.82 48.38 46.52 46.46 44.61 47.17 44.61"/><polygon points="47.87 44.61 48.38 45.12 48.38 45.82 47.17 44.61 47.87 44.61"/><polygon points="48.38 45.12 47.87 44.61 48.38 44.61 48.38 45.12"/><polygon points="44.95 49.42 45.25 49.73 44.95 49.73 44.95 49.42"/><polygon points="44.95 48.72 45.96 49.73 45.25 49.73 44.95 49.42 44.95 48.72"/><polygon points="44.95 48.01 46.66 49.73 45.96 49.73 44.95 48.72 44.95 48.01"/><polygon points="44.95 47.31 47.36 49.73 46.66 49.73 44.95 48.01 44.95 47.31"/><polygon points="44.95 46.61 48.06 49.73 47.36 49.73 44.95 47.31 44.95 46.61"/><polygon points="44.95 45.91 48.77 49.73 48.06 49.73 44.95 46.61 44.95 45.91"/><polygon points="44.95 45.2 49.47 49.73 48.77 49.73 44.95 45.91 44.95 45.2"/><polygon points="44.95 44.5 50.17 49.73 49.47 49.73 44.95 45.2 44.95 44.5"/><polygon points="44.95 43.8 50.88 49.73 50.17 49.73 44.95 44.5 44.95 43.8"/><polygon points="44.95 43.09 51.58 49.73 50.88 49.73 44.95 43.8 44.95 43.09"/><polygon points="44.95 42.72 45.11 42.55 52.28 49.73 51.58 49.73 44.95 43.09 44.95 42.72"/><polygon points="45.11 42.55 45.46 42.2 52.99 49.73 52.28 49.73 45.11 42.55"/><polygon points="45.46 42.2 45.81 41.85 53.69 49.73 52.99 49.73 45.46 42.2"/><polygon points="45.81 41.85 46.17 41.5 54.39 49.73 53.69 49.73 45.81 41.85"/><polygon points="46.17 41.5 46.52 41.15 55.1 49.73 54.39 49.73 46.17 41.5"/><polygon points="46.52 41.15 46.87 40.8 55.8 49.73 55.1 49.73 46.52 41.15"/><polygon points="46.87 40.8 47.22 40.45 56.5 49.73 55.8 49.73 46.87 40.8"/><polygon points="47.22 40.45 47.57 40.09 57.2 49.73 56.5 49.73 47.22 40.45"/><polygon points="47.57 40.09 47.92 39.74 57.91 49.73 57.2 49.73 47.57 40.09"/><polygon points="47.92 39.74 48.27 39.39 58.61 49.73 57.91 49.73 47.92 39.74"/><polygon points="48.27 39.39 48.63 39.04 59.31 49.73 58.61 49.73 48.27 39.39"/><polygon points="48.63 39.04 48.98 38.69 59.69 49.4 59.37 49.73 59.31 49.73 48.63 39.04"/><polygon points="48.98 38.69 49.06 38.6 49.6 38.6 60.04 49.05 59.69 49.4 48.98 38.69"/><polygon points="50.3 38.6 60.4 48.7 60.05 49.05 49.6 38.6 50.3 38.6"/><polygon points="51 38.6 60.75 48.35 60.4 48.7 50.3 38.6 51 38.6"/><polygon points="51.71 38.6 61.1 48 60.75 48.35 51 38.6 51.71 38.6"/><polygon points="52.41 38.6 61.45 47.65 61.1 48 51.71 38.6 52.41 38.6"/><polygon points="53.11 38.6 61.8 47.29 61.45 47.65 52.41 38.6 53.11 38.6"/><polygon points="53.81 38.6 62.15 46.94 61.8 47.29 53.11 38.6 53.81 38.6"/><polygon points="54.52 38.6 62.51 46.59 62.15 46.94 53.81 38.6 54.52 38.6"/><polygon points="55.22 38.6 62.86 46.24 62.5 46.59 54.52 38.6 55.22 38.6"/><polygon points="55.92 38.6 63.21 45.89 62.86 46.24 55.22 38.6 55.92 38.6"/><polygon points="56.63 38.6 63.48 45.46 63.48 45.61 63.21 45.89 55.92 38.6 56.63 38.6"/><polygon points="57.33 38.6 63.48 44.76 63.48 45.46 56.63 38.6 57.33 38.6"/><polygon points="58.03 38.6 63.48 44.05 63.48 44.76 57.33 38.6 58.03 38.6"/><polygon points="58.74 38.6 63.48 43.35 63.48 44.05 58.03 38.6 58.74 38.6"/><polygon points="59.44 38.6 63.48 42.65 63.48 43.35 58.74 38.6 59.44 38.6"/><polygon points="60.14 38.6 63.48 41.94 63.48 42.65 59.44 38.6 60.14 38.6"/><polygon points="60.84 38.6 63.48 41.24 63.48 41.94 60.14 38.6 60.84 38.6"/><polygon points="61.55 38.6 63.48 40.54 63.48 41.24 60.85 38.6 61.55 38.6"/><polygon points="62.25 38.6 63.48 39.83 63.48 40.54 61.55 38.6 62.25 38.6"/><polygon points="62.95 38.6 63.48 39.13 63.48 39.83 62.25 38.6 62.95 38.6"/><polygon points="63.48 39.13 62.95 38.6 63.48 38.6 63.48 39.13"/><polygon points="51.71 65.33 51.8 65.41 51.71 65.41 51.71 65.33"/><polygon points="51.71 64.62 52.5 65.41 51.8 65.41 51.71 65.33 51.71 64.62"/><polygon points="51.71 63.92 53.2 65.41 52.5 65.41 51.71 64.62 51.71 63.92"/><polygon points="51.71 63.22 53.91 65.41 53.2 65.41 51.71 63.92 51.71 63.22"/><polygon points="51.71 62.51 54.61 65.41 53.91 65.41 51.71 63.22 51.71 62.51"/><polygon points="51.71 61.81 55.31 65.41 54.61 65.41 51.71 62.51 51.71 61.81"/><polygon points="51.71 61.11 56.01 65.41 55.31 65.41 51.71 61.81 51.71 61.11"/><polygon points="51.71 60.4 56.72 65.41 56.01 65.41 51.71 61.11 51.71 60.4"/><polygon points="51.71 59.7 57.42 65.41 56.72 65.41 51.71 60.4 51.71 59.7"/><polygon points="51.71 59 58.12 65.41 57.42 65.41 51.71 59.7 51.71 59"/><polygon points="51.71 58.3 58.83 65.41 58.12 65.41 51.71 59 51.71 58.3"/><polygon points="51.71 57.59 59.53 65.41 58.83 65.41 51.71 58.29 51.71 57.59"/><polygon points="51.71 56.89 60.23 65.41 59.53 65.41 51.71 57.59 51.71 56.89"/><polygon points="51.71 56.19 60.94 65.41 60.23 65.41 51.71 56.89 51.71 56.19"/><polygon points="51.71 55.48 61.32 65.09 61 65.41 60.94 65.41 51.71 56.19 51.71 55.48"/><polygon points="51.71 54.78 61.67 64.74 61.32 65.09 51.71 55.48 51.71 54.78"/><polygon points="51.71 54.08 62.02 64.39 61.67 64.74 51.71 54.78 51.71 54.08"/><polygon points="51.71 53.37 62.37 64.03 62.02 64.39 51.71 54.08 51.71 53.37"/><polygon points="51.71 52.67 62.73 63.68 62.37 64.03 51.71 53.37 51.71 52.67"/><polygon points="51.71 51.97 63.08 63.33 62.73 63.68 51.71 52.67 51.71 51.97"/><polygon points="51.71 51.26 63.43 62.98 63.08 63.33 51.71 51.97 51.71 51.26"/><polygon points="51.71 50.56 63.78 62.63 63.43 62.98 51.71 51.26 51.71 50.56"/><polygon points="51.71 49.86 64.13 62.28 63.78 62.63 51.71 50.56 51.71 49.86"/><polygon points="51.71 49.16 64.48 61.93 64.13 62.27 51.71 49.86 51.71 49.16"/><polygon points="51.71 48.67 51.82 48.56 64.83 61.57 64.48 61.92 51.71 49.16 51.71 48.67"/><polygon points="51.82 48.56 52.17 48.21 65.06 61.09 65.06 61.35 64.83 61.57 51.82 48.56"/><polygon points="52.17 48.21 52.52 47.86 65.06 60.39 65.06 61.09 52.17 48.21"/><polygon points="52.52 47.85 52.87 47.5 65.06 59.69 65.06 60.39 52.52 47.85"/><polygon points="52.87 47.51 53.23 47.15 65.06 58.98 65.06 59.69 52.87 47.51"/><polygon points="53.23 47.15 53.58 46.8 65.06 58.28 65.06 58.98 53.23 47.15"/><polygon points="53.58 46.8 53.93 46.45 65.06 57.58 65.06 58.28 53.58 46.8"/><polygon points="53.93 46.45 54.28 46.1 65.06 56.88 65.06 57.58 53.93 46.45"/><polygon points="54.28 46.1 54.63 45.75 65.06 56.17 65.06 56.88 54.28 46.1"/><polygon points="54.63 45.75 54.98 45.4 65.06 55.47 65.06 56.17 54.63 45.75"/><polygon points="54.98 45.4 55.33 45.05 65.06 54.77 65.06 55.47 54.98 45.4"/><polygon points="55.34 45.05 55.69 44.69 65.06 54.06 65.06 54.77 55.34 45.05"/><polygon points="55.69 44.69 55.77 44.61 56.31 44.61 65.06 53.36 65.06 54.07 55.69 44.69"/><polygon points="57.01 44.61 65.06 52.66 65.06 53.36 56.31 44.61 57.01 44.61"/><polygon points="57.71 44.61 65.06 51.95 65.06 52.66 57.01 44.61 57.71 44.61"/><polygon points="58.41 44.61 65.06 51.25 65.06 51.95 57.71 44.61 58.41 44.61"/><polygon points="59.12 44.61 65.06 50.55 65.06 51.25 58.42 44.61 59.12 44.61"/><polygon points="59.82 44.61 65.06 49.84 65.06 50.55 59.12 44.61 59.82 44.61"/><polygon points="60.52 44.61 65.06 49.14 65.06 49.84 59.82 44.61 60.52 44.61"/><polygon points="61.23 44.61 65.06 48.44 65.06 49.14 60.52 44.61 61.23 44.61"/><polygon points="61.93 44.61 65.06 47.73 65.06 48.44 61.23 44.61 61.93 44.61"/><polygon points="62.63 44.61 65.06 47.03 65.06 47.73 61.93 44.61 62.63 44.61"/><polygon points="63.34 44.61 65.06 46.33 65.06 47.03 62.63 44.61 63.34 44.61"/><polygon points="64.04 44.61 65.06 45.63 65.06 46.33 63.34 44.61 64.04 44.61"/><polygon points="64.74 44.61 65.06 44.92 65.06 45.63 64.04 44.61 64.74 44.61"/><polygon points="65.06 44.92 64.74 44.61 65.06 44.61 65.06 44.92"/></g><path d="M50,0A1.78,1.78,0,0,0,49,.39a1.36,1.36,0,0,0-.24.24L44.71,6A1.65,1.65,0,0,0,45,8.3h0A1.68,1.68,0,0,0,47.38,8l1-1.34V18.31A1.66,1.66,0,0,0,50,20h0a1.66,1.66,0,0,0,1.66-1.67V6.63l1,1.34a1.68,1.68,0,0,0,2.34.33h0A1.66,1.66,0,0,0,55.39,6l-4-5.34A1.74,1.74,0,0,0,50.05,0Z"/><g class="cls-2"><polygon points="44.15 19.55 44.58 19.98 44.15 19.98 44.15 19.55"/><polygon points="44.15 18.83 45.3 19.98 44.58 19.98 44.15 19.55 44.15 18.83"/><polygon points="44.15 18.11 46.02 19.98 45.3 19.98 44.15 18.83 44.15 18.11"/><polygon points="44.15 17.38 46.75 19.98 46.02 19.98 44.15 18.11 44.15 17.38"/><polygon points="44.15 16.66 47.47 19.98 46.75 19.98 44.15 17.38 44.15 16.66"/><polygon points="44.15 15.93 48.2 19.98 47.47 19.98 44.15 16.66 44.15 15.93"/><polygon points="44.15 15.21 48.92 19.98 48.2 19.98 44.15 15.93 44.15 15.21"/><polygon points="44.15 14.48 49.65 19.98 48.92 19.98 44.15 15.21 44.15 14.48"/><polygon points="44.15 13.76 50.37 19.98 49.65 19.98 44.15 14.48 44.15 13.76"/><polygon points="44.15 13.04 51.09 19.98 50.37 19.98 44.15 13.76 44.15 13.04"/><polygon points="44.15 12.31 51.82 19.98 51.09 19.98 44.15 13.04 44.15 12.31"/><polygon points="44.15 11.59 52.54 19.98 51.82 19.98 44.15 12.31 44.15 11.59"/><polygon points="44.15 10.87 53.27 19.98 52.54 19.98 44.15 11.59 44.15 10.87"/><polygon points="44.15 10.14 53.99 19.98 53.27 19.98 44.15 10.86 44.15 10.14"/><polygon points="44.15 9.42 54.71 19.98 53.99 19.98 44.15 10.14 44.15 9.42"/><polygon points="44.15 1.22 44.61 0.77 55.94 12.1 55.94 18.96 54.92 19.98 54.71 19.98 44.15 9.42 44.15 1.22"/><polygon points="44.61 0.77 45.59 -0.22 52.73 -0.22 55.94 2.99 55.94 12.1 44.61 0.77"/><polygon points="55.94 2.99 52.73 -0.22 55.94 -0.22 55.94 2.99"/></g><path d="M48.38,81.7V93.38l-1-1.34a1.67,1.67,0,0,0-2.67,2l4,5.31a1.83,1.83,0,0,0,1,.66h.77a1.73,1.73,0,0,0,1-.63l4-5.34a1.66,1.66,0,0,0-.33-2.33h0a1.66,1.66,0,0,0-2.34.33l-1,1.34V81.7a1.67,1.67,0,1,0-3.33,0"/><g class="cls-3"><polygon points="44.15 99.69 44.55 100.08 44.15 100.08 44.15 99.69"/><polygon points="44.15 98.97 45.27 100.08 44.55 100.08 44.15 99.69 44.15 98.97"/><polygon points="44.15 98.24 45.99 100.08 45.27 100.08 44.15 98.97 44.15 98.24"/><polygon points="44.15 97.52 46.72 100.08 45.99 100.08 44.15 98.24 44.15 97.52"/><polygon points="44.15 96.79 47.44 100.08 46.72 100.08 44.15 97.52 44.15 96.79"/><polygon points="44.15 96.07 48.17 100.08 47.44 100.08 44.15 96.79 44.15 96.07"/><polygon points="44.15 95.35 48.89 100.08 48.17 100.08 44.15 96.07 44.15 95.35"/><polygon points="44.15 94.62 49.61 100.08 48.89 100.08 44.15 95.34 44.15 94.62"/><polygon points="44.15 93.9 50.34 100.08 49.61 100.08 44.15 94.62 44.15 93.9"/><polygon points="44.15 93.17 51.06 100.08 50.34 100.08 44.15 93.9 44.15 93.17"/><polygon points="44.15 92.45 51.79 100.08 51.06 100.08 44.15 93.17 44.15 92.45"/><polygon points="44.15 91.73 52.51 100.08 51.79 100.08 44.15 92.45 44.15 91.73"/><polygon points="44.15 91 53.23 100.08 52.51 100.08 44.15 91.72 44.15 91"/><polygon points="44.15 90.28 53.96 100.08 53.23 100.08 44.15 91 44.15 90.28"/><polygon points="44.15 89.56 54.68 100.08 53.96 100.08 44.15 90.28 44.15 89.56"/><polygon points="44.15 88.83 55.07 99.75 54.73 100.08 54.68 100.08 44.15 89.56 44.15 88.83"/><polygon points="44.15 88.11 55.43 99.39 55.07 99.75 44.15 88.83 44.15 88.11"/><polygon points="44.15 87.38 55.8 99.02 55.43 99.39 44.15 88.11 44.15 87.38"/><polygon points="44.15 86.66 55.94 98.44 55.94 98.88 55.8 99.02 44.15 87.38 44.15 86.66"/><polygon points="44.15 85.93 55.94 97.72 55.94 98.44 44.15 86.66 44.15 85.93"/><polygon points="44.15 85.21 55.94 96.99 55.94 97.72 44.15 85.93 44.15 85.21"/><polygon points="44.15 84.49 55.94 96.27 55.94 96.99 44.15 85.21 44.15 84.49"/><polygon points="44.15 83.76 55.94 95.54 55.94 96.27 44.15 84.49 44.15 83.76"/><polygon points="44.15 83.04 55.94 94.82 55.94 95.54 44.15 83.76 44.15 83.04"/><polygon points="44.15 82.31 55.94 94.09 55.94 94.82 44.15 83.04 44.15 82.31"/><polygon points="44.15 81.59 55.94 93.37 55.94 94.1 44.15 82.31 44.15 81.59"/><polygon points="44.15 81.05 44.24 80.96 55.94 92.65 55.94 93.37 44.15 81.59 44.15 81.05"/><polygon points="44.25 80.96 44.61 80.6 55.94 91.92 55.94 92.65 44.25 80.96"/><polygon points="44.61 80.6 44.97 80.23 55.94 91.2 55.94 91.92 44.61 80.6"/><polygon points="44.97 80.23 45.17 80.03 45.49 80.03 55.94 90.47 55.94 91.2 44.97 80.23"/><polygon points="46.21 80.03 55.94 89.75 55.94 90.47 45.49 80.03 46.21 80.03"/><polygon points="46.94 80.03 55.93 89.03 55.93 89.75 46.21 80.03 46.94 80.03"/><polygon points="47.66 80.03 55.94 88.3 55.94 89.03 46.94 80.03 47.66 80.03"/><polygon points="48.39 80.03 55.94 87.58 55.94 88.3 47.66 80.03 48.39 80.03"/><polygon points="49.11 80.03 55.93 86.86 55.93 87.58 48.39 80.03 49.11 80.03"/><polygon points="49.83 80.03 55.94 86.13 55.94 86.86 49.11 80.03 49.83 80.03"/><polygon points="50.56 80.03 55.94 85.41 55.94 86.13 49.83 80.03 50.56 80.03"/><polygon points="51.28 80.03 55.93 84.68 55.93 85.41 50.56 80.03 51.28 80.03"/><polygon points="52.01 80.03 55.94 83.96 55.94 84.68 51.28 80.03 52.01 80.03"/><polygon points="52.73 80.03 55.94 83.23 55.94 83.96 52.01 80.03 52.73 80.03"/><polygon points="53.45 80.03 55.94 82.51 55.94 83.23 52.73 80.03 53.45 80.03"/><polygon points="54.18 80.03 55.94 81.79 55.94 82.51 53.45 80.03 54.18 80.03"/><polygon points="54.9 80.03 55.94 81.06 55.94 81.79 54.18 80.03 54.9 80.03"/><polygon points="55.63 80.03 55.94 80.34 55.94 81.06 54.9 80.03 55.63 80.03"/><polygon points="55.94 80.34 55.63 80.03 55.94 80.03 55.94 80.34"/></g><path d="M50,23.31h0A1.66,1.66,0,0,1,51.71,25v0A1.66,1.66,0,0,1,50,26.65h0A1.67,1.67,0,0,1,48.38,25v0A1.67,1.67,0,0,1,50,23.31Z"/><g class="cls-4"><polygon points="48.38 25.98 49.04 26.65 48.38 26.65 48.38 25.98"/><polygon points="48.38 25.27 49.75 26.65 49.04 26.65 48.38 25.98 48.38 25.27"/><polygon points="48.38 24.57 50.46 26.65 49.75 26.65 48.38 25.27 48.38 24.57"/><polygon points="48.38 23.86 51.17 26.65 50.46 26.65 48.38 24.57 48.38 23.86"/><polygon points="48.54 23.31 51.71 26.49 51.71 26.65 51.17 26.65 48.38 23.86 48.38 23.31 48.54 23.31"/><polygon points="49.25 23.31 51.71 25.78 51.71 26.49 48.54 23.31 49.25 23.31"/><polygon points="49.96 23.31 51.71 25.07 51.71 25.78 49.25 23.31 49.96 23.31"/><polygon points="50.67 23.31 51.71 24.36 51.71 25.07 49.96 23.31 50.67 23.31"/><polygon points="51.38 23.31 51.71 23.65 51.71 24.36 50.67 23.31 51.38 23.31"/><polygon points="51.71 23.65 51.38 23.31 51.71 23.31 51.71 23.65"/></g><path d="M50,73.36A1.66,1.66,0,0,0,48.38,75h0A1.66,1.66,0,0,0,50,76.69h0A1.66,1.66,0,0,0,51.71,75h0A1.66,1.66,0,0,0,50,73.36Z"/><g class="cls-5"><polygon points="48.38 76.25 48.83 76.69 48.38 76.69 48.38 76.25"/><polygon points="48.38 75.54 49.53 76.69 48.83 76.69 48.38 76.25 48.38 75.54"/><polygon points="48.38 74.83 50.24 76.69 49.53 76.69 48.38 75.54 48.38 74.83"/><polygon points="48.38 74.12 50.95 76.69 50.24 76.69 48.38 74.83 48.38 74.12"/><polygon points="48.38 73.41 51.66 76.69 50.95 76.69 48.38 74.12 48.38 73.41"/><polygon points="49.03 73.36 51.71 76.04 51.71 76.69 51.66 76.69 48.38 73.41 48.38 73.36 49.03 73.36"/><polygon points="49.74 73.36 51.71 75.33 51.71 76.04 49.03 73.36 49.74 73.36"/><polygon points="50.45 73.36 51.71 74.62 51.71 75.33 49.74 73.36 50.45 73.36"/><polygon points="51.16 73.36 51.71 73.91 51.71 74.62 50.45 73.36 51.16 73.36"/><polygon points="51.71 73.91 51.16 73.36 51.71 73.36 51.71 73.91"/></g><path d="M6,44.66l-5.31,4A1.7,1.7,0,0,0,0,49.88a1.67,1.67,0,0,0,.67,1.46l5.34,4A1.65,1.65,0,0,0,8.34,55h0A1.67,1.67,0,0,0,8,52.67l-1.34-1H18.35A1.67,1.67,0,0,0,20,50h0a1.67,1.67,0,0,0-1.67-1.67H6.67l1.34-1A1.66,1.66,0,0,0,8.34,45h0A1.67,1.67,0,0,0,6,44.66"/><g class="cls-6"><polygon points="-0.04 55.52 0.34 55.9 -0.04 55.9 -0.04 55.52"/><polygon points="-0.04 54.83 1.03 55.9 0.34 55.9 -0.04 55.52 -0.04 54.83"/><polygon points="-0.04 54.13 1.73 55.9 1.03 55.9 -0.04 54.82 -0.04 54.13"/><polygon points="-0.04 53.44 2.42 55.9 1.73 55.9 -0.04 54.13 -0.04 53.44"/><polygon points="-0.04 52.74 3.12 55.9 2.42 55.9 -0.04 53.44 -0.04 52.74"/><polygon points="-0.04 52.05 3.81 55.9 3.12 55.9 -0.04 52.74 -0.04 52.05"/><polygon points="-0.04 51.35 4.51 55.9 3.81 55.9 -0.04 52.05 -0.04 51.35"/><polygon points="-0.04 50.66 5.2 55.9 4.51 55.9 -0.04 51.35 -0.04 50.66"/><polygon points="-0.04 49.97 5.89 55.9 5.2 55.9 -0.04 50.66 -0.04 49.97"/><polygon points="-0.04 49.27 6.59 55.9 5.89 55.9 -0.04 49.97 -0.04 49.27"/><polygon points="-0.04 48.58 7.28 55.9 6.59 55.9 -0.04 49.27 -0.04 48.58"/><polygon points="-0.04 47.88 7.98 55.9 7.28 55.9 -0.04 48.58 -0.04 47.88"/><polygon points="-0.04 47.19 8.67 55.9 7.98 55.9 -0.04 47.88 -0.04 47.19"/><polygon points="-0.04 46.49 9.37 55.9 8.67 55.9 -0.04 47.19 -0.04 46.49"/><polygon points="-0.04 45.8 10.06 55.9 9.37 55.9 -0.04 46.49 -0.04 45.8"/><polygon points="-0.04 45.33 0.08 45.22 10.75 55.9 10.06 55.9 -0.04 45.8 -0.04 45.33"/><polygon points="0.08 45.22 0.42 44.87 11.45 55.9 10.75 55.9 0.08 45.22"/><polygon points="0.42 44.87 0.77 44.52 12.14 55.9 11.45 55.9 0.42 44.87"/><polygon points="0.77 44.52 1.12 44.18 12.84 55.9 12.14 55.9 0.77 44.52"/><polygon points="1.12 44.18 1.18 44.11 1.75 44.11 13.53 55.9 12.84 55.9 1.12 44.18"/><polygon points="2.44 44.11 14.22 55.9 13.53 55.9 1.75 44.11 2.44 44.11"/><polygon points="3.13 44.11 14.92 55.9 14.22 55.9 2.44 44.11 3.13 44.11"/><polygon points="3.83 44.11 15.61 55.9 14.92 55.9 3.14 44.11 3.83 44.11"/><polygon points="4.52 44.11 16.31 55.9 15.61 55.9 3.83 44.11 4.52 44.11"/><polygon points="5.22 44.11 17 55.9 16.31 55.9 4.52 44.11 5.22 44.11"/><polygon points="5.91 44.11 17.7 55.9 17 55.9 5.22 44.11 5.91 44.11"/><polygon points="6.61 44.11 18.39 55.9 17.69 55.9 5.91 44.11 6.61 44.11"/><polygon points="7.3 44.11 19.04 55.85 19 55.9 18.39 55.9 6.61 44.11 7.3 44.11"/><polygon points="7.99 44.11 19.39 55.51 19.04 55.85 7.3 44.11 7.99 44.11"/><polygon points="8.69 44.11 19.74 55.16 19.39 55.51 8 44.11 8.69 44.11"/><polygon points="9.38 44.11 20.02 54.75 20.02 54.87 19.73 55.16 8.69 44.11 9.38 44.11"/><polygon points="10.08 44.11 20.02 54.05 20.02 54.75 9.38 44.11 10.08 44.11"/><polygon points="10.77 44.11 20.02 53.36 20.02 54.05 10.08 44.11 10.77 44.11"/><polygon points="11.46 44.11 20.02 52.66 20.02 53.36 10.77 44.11 11.46 44.11"/><polygon points="12.16 44.11 20.02 51.97 20.02 52.66 11.47 44.11 12.16 44.11"/><polygon points="12.85 44.11 20.02 51.28 20.02 51.97 12.16 44.11 12.85 44.11"/><polygon points="13.55 44.11 20.02 50.58 20.02 51.28 12.85 44.11 13.55 44.11"/><polygon points="14.24 44.11 20.02 49.89 20.02 50.58 13.55 44.11 14.24 44.11"/><polygon points="14.94 44.11 20.02 49.19 20.02 49.89 14.24 44.11 14.94 44.11"/><polygon points="15.63 44.11 20.02 48.5 20.02 49.19 14.94 44.11 15.63 44.11"/><polygon points="16.32 44.11 20.02 47.8 20.02 48.5 15.63 44.11 16.32 44.11"/><polygon points="17.02 44.11 20.02 47.11 20.02 47.8 16.32 44.11 17.02 44.11"/><polygon points="17.71 44.11 20.02 46.42 20.02 47.11 17.02 44.11 17.71 44.11"/><polygon points="18.41 44.11 20.02 45.72 20.02 46.42 17.71 44.11 18.41 44.11"/><polygon points="19.1 44.11 20.02 45.03 20.02 45.72 18.41 44.11 19.1 44.11"/><polygon points="19.8 44.11 20.02 44.34 20.02 45.03 19.1 44.11 19.8 44.11"/><polygon points="20.02 44.33 19.8 44.11 20.02 44.11 20.02 44.33"/></g><path d="M91.75,45h0a1.65,1.65,0,0,0,.33,2.33l1.34,1H81.74A1.67,1.67,0,0,0,80.07,50h0a1.66,1.66,0,0,0,1.67,1.66H93.42l-1.34,1A1.66,1.66,0,0,0,91.75,55h0a1.65,1.65,0,0,0,2.33.33l5.31-4a1.84,1.84,0,0,0,.61-.83V49.47a1.62,1.62,0,0,0-.58-.8l-5.34-4a1.69,1.69,0,0,0-1-.33,1.66,1.66,0,0,0-1.33.67"/><g class="cls-7"><polygon points="80.07 55.56 80.4 55.9 80.07 55.9 80.07 55.56"/><polygon points="80.07 54.87 81.1 55.9 80.4 55.9 80.07 55.56 80.07 54.87"/><polygon points="80.07 54.17 81.79 55.9 81.1 55.9 80.07 54.87 80.07 54.17"/><polygon points="80.07 53.48 82.49 55.9 81.79 55.9 80.07 54.17 80.07 53.48"/><polygon points="80.07 52.79 83.18 55.9 82.49 55.9 80.07 53.48 80.07 52.79"/><polygon points="80.07 52.09 83.88 55.9 83.18 55.9 80.07 52.79 80.07 52.09"/><polygon points="80.07 51.4 84.57 55.9 83.88 55.9 80.07 52.09 80.07 51.4"/><polygon points="80.07 50.7 85.26 55.9 84.57 55.9 80.07 51.4 80.07 50.7"/><polygon points="80.07 50.01 85.96 55.9 85.26 55.9 80.07 50.7 80.07 50.01"/><polygon points="80.07 49.31 86.65 55.9 85.96 55.9 80.07 50.01 80.07 49.31"/><polygon points="80.07 48.62 87.34 55.9 86.65 55.9 80.07 49.31 80.07 48.62"/><polygon points="80.07 47.93 88.04 55.9 87.34 55.9 80.07 48.62 80.07 47.93"/><polygon points="80.07 47.23 88.73 55.9 88.04 55.9 80.07 47.93 80.07 47.23"/><polygon points="80.07 45.13 81.09 44.11 85.68 44.11 97.46 55.9 88.73 55.9 80.07 47.23 80.07 45.13"/><polygon points="94.41 44.11 100.12 49.83 100.12 54.67 98.91 55.9 97.47 55.9 85.68 44.11 94.41 44.11"/><polygon points="100.13 49.83 94.41 44.11 100.13 44.11 100.13 49.83"/></g><path d="M25,48.33h0A1.66,1.66,0,0,1,26.69,50v0A1.66,1.66,0,0,1,25,51.67h0A1.67,1.67,0,0,1,23.35,50v0A1.66,1.66,0,0,1,25,48.33Z"/><g class="cls-8"><polygon points="23.35 51.29 23.74 51.67 23.35 51.67 23.35 51.29"/><polygon points="23.35 50.58 24.45 51.67 23.74 51.67 23.35 51.29 23.35 50.58"/><polygon points="23.35 49.87 25.15 51.67 24.45 51.67 23.35 50.58 23.35 49.87"/><polygon points="23.35 49.16 25.86 51.67 25.15 51.67 23.35 49.87 23.35 49.16"/><polygon points="23.35 48.45 26.57 51.67 25.86 51.67 23.35 49.16 23.35 48.45"/><polygon points="23.94 48.34 26.69 51.08 26.69 51.67 26.57 51.67 23.35 48.45 23.35 48.34 23.94 48.34"/><polygon points="24.65 48.34 26.69 50.37 26.69 51.08 23.94 48.34 24.65 48.34"/><polygon points="25.36 48.34 26.69 49.66 26.69 50.37 24.65 48.34 25.36 48.34"/><polygon points="26.07 48.34 26.69 48.96 26.69 49.66 25.36 48.34 26.07 48.34"/><polygon points="26.69 48.96 26.07 48.33 26.69 48.33 26.69 48.96"/></g><rect x="73.4" y="48.33" width="3.34" height="3.34" rx="1.67"/><g class="cls-9"><polygon points="73.4 51.65 73.42 51.67 73.4 51.67 73.4 51.65"/><polygon points="73.4 50.94 74.13 51.67 73.42 51.67 73.4 51.65 73.4 50.94"/><polygon points="73.4 50.23 74.84 51.67 74.13 51.67 73.4 50.94 73.4 50.23"/><polygon points="73.4 49.52 75.55 51.67 74.84 51.67 73.4 50.23 73.4 49.52"/><polygon points="73.4 48.81 76.25 51.67 75.55 51.67 73.4 49.52 73.4 48.81"/><polygon points="73.63 48.34 76.74 51.44 76.74 51.67 76.26 51.67 73.4 48.81 73.4 48.34 73.63 48.34"/><polygon points="74.34 48.34 76.73 50.73 76.73 51.44 73.63 48.34 74.34 48.34"/><polygon points="75.05 48.34 76.74 50.02 76.74 50.73 74.34 48.34 75.05 48.34"/><polygon points="75.75 48.34 76.73 49.32 76.73 50.02 75.05 48.34 75.75 48.34"/><polygon points="76.46 48.34 76.74 48.61 76.74 49.32 75.75 48.34 76.46 48.34"/><polygon points="76.74 48.61 76.46 48.34 76.74 48.34 76.74 48.61"/></g><path d="M14.18,15.54a2,2,0,0,0,0,.49l.94,6.61A1.67,1.67,0,0,0,17,24.05h0a1.66,1.66,0,0,0,1.42-1.88l-.24-1.65L27.63,30,30,27.59l-9.43-9.43,1.65.23A1.66,1.66,0,0,0,24.09,17h0a1.65,1.65,0,0,0-1.41-1.88l-6.61-.95-.24,0a1.67,1.67,0,0,0-1.65,1.42"/><g class="cls-10"><polygon points="14.15 29.78 14.33 29.95 14.15 29.95 14.15 29.78"/><polygon points="14.15 29.07 15.04 29.95 14.33 29.95 14.15 29.78 14.15 29.07"/><polygon points="14.15 28.36 15.74 29.95 15.04 29.95 14.15 29.07 14.15 28.36"/><polygon points="14.15 27.65 16.45 29.95 15.74 29.95 14.15 28.36 14.15 27.65"/><polygon points="14.15 26.94 17.16 29.95 16.45 29.95 14.15 27.65 14.15 26.94"/><polygon points="14.15 26.23 17.87 29.95 17.16 29.95 14.15 26.94 14.15 26.23"/><polygon points="14.15 25.53 18.58 29.95 17.87 29.95 14.15 26.23 14.15 25.53"/><polygon points="14.15 24.82 19.29 29.95 18.58 29.95 14.15 25.53 14.15 24.82"/><polygon points="14.15 24.11 20 29.95 19.29 29.95 14.15 24.82 14.15 24.11"/><polygon points="14.15 23.4 20.71 29.95 20 29.95 14.15 24.11 14.15 23.4"/><polygon points="14.15 22.69 21.42 29.95 20.71 29.95 14.15 23.4 14.15 22.69"/><polygon points="14.15 21.98 22.12 29.95 21.42 29.95 14.15 22.69 14.15 21.98"/><polygon points="14.15 21.27 22.83 29.95 22.12 29.95 14.15 21.98 14.15 21.27"/><polygon points="14.15 20.57 23.54 29.95 22.83 29.95 14.15 21.27 14.15 20.57"/><polygon points="14.15 19.86 24.25 29.95 23.54 29.95 14.15 20.57 14.15 19.86"/><polygon points="14.15 19.15 24.96 29.95 24.25 29.95 14.15 19.86 14.15 19.15"/><polygon points="14.15 18.44 25.67 29.95 24.96 29.95 14.15 19.15 14.15 18.44"/><polygon points="14.15 17.73 26.38 29.95 25.67 29.95 14.15 18.44 14.15 17.73"/><polygon points="14.15 17.02 27.09 29.95 26.38 29.95 14.15 17.73 14.15 17.02"/><polygon points="14.15 16.31 27.8 29.95 27.09 29.95 14.15 17.02 14.15 16.31"/><polygon points="14.15 15.6 28.5 29.95 27.8 29.95 14.15 16.31 14.15 15.6"/><polygon points="14.15 14.89 29.21 29.95 28.5 29.95 14.15 15.6 14.15 14.89"/><polygon points="14.15 14.19 29.92 29.95 29.21 29.95 14.15 14.89 14.15 14.19"/><polygon points="14.68 14 29.99 29.31 29.99 29.95 29.92 29.95 14.15 14.19 14.15 14 14.68 14"/><polygon points="15.39 14 29.99 28.6 29.99 29.31 14.68 14 15.39 14"/><polygon points="16.1 14 29.99 27.89 29.99 28.6 15.39 14 16.1 14"/><polygon points="16.81 14 29.99 27.19 29.99 27.89 16.1 14 16.81 14"/><polygon points="17.52 14 29.99 26.48 29.99 27.19 16.81 14 17.52 14"/><polygon points="18.23 14 29.99 25.77 29.99 26.48 17.52 14 18.23 14"/><polygon points="18.93 14 29.99 25.06 29.99 25.77 18.22 14 18.93 14"/><polygon points="19.64 14 29.99 24.35 29.99 25.06 18.93 14 19.64 14"/><polygon points="20.35 14 29.99 23.64 29.99 24.35 19.64 14 20.35 14"/><polygon points="21.06 14 29.99 22.93 29.99 23.64 20.35 14 21.06 14"/><polygon points="21.77 14 29.99 22.23 29.99 22.93 21.06 14 21.77 14"/><polygon points="22.48 14 29.99 21.52 29.99 22.23 21.77 14 22.48 14"/><polygon points="23.19 14 29.99 20.81 29.99 21.52 22.48 14 23.19 14"/><polygon points="23.89 14 29.99 20.1 29.99 20.81 23.18 14 23.89 14"/><polygon points="24.6 14 29.99 19.39 29.99 20.1 23.89 14 24.6 14"/><polygon points="25.31 14 29.99 18.68 29.99 19.39 24.6 14 25.31 14"/><polygon points="26.02 14 29.99 17.97 29.99 18.68 25.31 14 26.02 14"/><polygon points="26.73 14 29.99 17.26 29.99 17.97 26.02 14 26.73 14"/><polygon points="27.44 14 29.99 16.56 29.99 17.26 26.73 14 27.44 14"/><polygon points="28.15 14 29.99 15.85 29.99 16.56 27.44 14 28.15 14"/><polygon points="28.86 14 29.99 15.14 29.99 15.85 28.15 14 28.86 14"/><polygon points="29.57 14 29.99 14.43 29.99 15.14 28.86 14 29.57 14"/><polygon points="29.99 14.43 29.57 14 29.99 14 29.99 14.43"/></g><path d="M71.28,71.24a1.65,1.65,0,0,0,0,2.36l8.25,8.25-1.64-.23a1.67,1.67,0,1,0-.48,3.3l6.61.94.24,0a1.66,1.66,0,0,0,1.66-1.67,1.69,1.69,0,0,0,0-.23l-1-6.61A1.67,1.67,0,0,0,83.07,76h0a1.66,1.66,0,0,0-1.41,1.88l.23,1.66-8.25-8.26a1.67,1.67,0,0,0-1.18-.49,1.63,1.63,0,0,0-1.18.49"/><g class="cls-11"><polygon points="70.63 85.29 71.22 85.88 70.63 85.88 70.63 85.29"/><polygon points="70.63 84.58 71.93 85.88 71.22 85.88 70.63 85.29 70.63 84.58"/><polygon points="70.63 83.87 72.64 85.88 71.93 85.88 70.63 84.58 70.63 83.87"/><polygon points="70.63 83.16 73.34 85.88 72.64 85.88 70.63 83.87 70.63 83.16"/><polygon points="70.63 82.45 74.05 85.88 73.34 85.88 70.63 83.16 70.63 82.45"/><polygon points="70.63 81.74 74.76 85.88 74.05 85.88 70.63 82.45 70.63 81.74"/><polygon points="70.63 81.03 75.47 85.88 74.76 85.88 70.63 81.74 70.63 81.03"/><polygon points="70.63 80.33 76.18 85.88 75.47 85.88 70.63 81.03 70.63 80.33"/><polygon points="70.63 79.62 76.89 85.88 76.18 85.88 70.63 80.33 70.63 79.62"/><polygon points="70.63 78.91 77.6 85.88 76.89 85.88 70.63 79.62 70.63 78.91"/><polygon points="70.63 78.2 78.31 85.88 77.6 85.88 70.63 78.91 70.63 78.2"/><polygon points="70.63 77.49 79.02 85.88 78.31 85.88 70.63 78.2 70.63 77.49"/><polygon points="70.63 76.78 79.73 85.88 79.02 85.88 70.63 77.49 70.63 76.78"/><polygon points="70.63 76.07 80.43 85.88 79.73 85.88 70.63 76.78 70.63 76.07"/><polygon points="70.63 75.36 81.14 85.88 80.43 85.88 70.63 76.07 70.63 75.36"/><polygon points="70.63 74.66 81.85 85.88 81.14 85.88 70.63 75.36 70.63 74.66"/><polygon points="70.63 73.94 82.56 85.88 81.85 85.88 70.63 74.66 70.63 73.94"/><polygon points="70.63 73.24 83.27 85.88 82.56 85.88 70.63 73.94 70.63 73.24"/><polygon points="70.63 72.53 83.98 85.88 83.27 85.88 70.63 73.24 70.63 72.53"/><polygon points="70.63 71.82 84.69 85.88 83.98 85.88 70.63 72.53 70.63 71.82"/><polygon points="70.63 71.11 85.39 85.88 84.69 85.88 70.63 71.82 70.63 71.11"/><polygon points="70.81 70.59 85.92 85.7 85.92 85.88 85.39 85.88 70.63 71.11 70.63 70.59 70.81 70.59"/><polygon points="71.52 70.59 85.92 84.99 85.92 85.7 70.81 70.59 71.52 70.59"/><polygon points="72.23 70.59 85.92 84.28 85.92 84.99 71.52 70.59 72.23 70.59"/><polygon points="72.94 70.59 85.92 83.57 85.92 84.28 72.23 70.59 72.94 70.59"/><polygon points="73.65 70.59 85.92 82.86 85.92 83.57 72.94 70.59 73.65 70.59"/><polygon points="74.36 70.59 85.92 82.16 85.92 82.86 73.65 70.59 74.36 70.59"/><polygon points="75.06 70.59 85.92 81.45 85.92 82.16 74.36 70.59 75.06 70.59"/><polygon points="75.77 70.59 85.92 80.74 85.92 81.45 75.06 70.59 75.77 70.59"/><polygon points="76.48 70.59 85.92 80.03 85.92 80.74 75.77 70.59 76.48 70.59"/><polygon points="77.19 70.59 85.92 79.32 85.92 80.03 76.48 70.59 77.19 70.59"/><polygon points="77.9 70.59 85.92 78.61 85.92 79.32 77.19 70.59 77.9 70.59"/><polygon points="78.61 70.59 85.92 77.9 85.92 78.61 77.9 70.59 78.61 70.59"/><polygon points="79.32 70.59 85.92 77.19 85.92 77.9 78.61 70.59 79.32 70.59"/><polygon points="80.03 70.59 85.92 76.48 85.92 77.19 79.32 70.59 80.03 70.59"/><polygon points="80.73 70.59 85.92 75.78 85.92 76.48 80.03 70.59 80.73 70.59"/><polygon points="81.44 70.59 85.92 75.07 85.92 75.78 80.73 70.59 81.44 70.59"/><polygon points="82.15 70.59 85.92 74.36 85.92 75.07 81.44 70.59 82.15 70.59"/><polygon points="82.86 70.59 85.92 73.65 85.92 74.36 82.15 70.59 82.86 70.59"/><polygon points="83.57 70.59 85.92 72.94 85.92 73.65 82.86 70.59 83.57 70.59"/><polygon points="84.28 70.59 85.92 72.23 85.92 72.94 83.57 70.59 84.28 70.59"/><polygon points="84.99 70.59 85.92 71.52 85.92 72.23 84.28 70.59 84.99 70.59"/><polygon points="85.7 70.59 85.92 70.82 85.92 71.52 84.99 70.59 85.7 70.59"/><polygon points="85.92 70.81 85.7 70.59 85.92 70.59 85.92 70.81"/></g><path d="M31.17,31.13h0a1.66,1.66,0,0,0,0,2.35h0a1.67,1.67,0,0,0,2.36,0h0a1.66,1.66,0,0,0,0-2.35h0a1.69,1.69,0,0,0-1.18-.49,1.71,1.71,0,0,0-1.18.49"/><g class="cls-12"><polygon points="30.52 34.07 30.59 34.14 30.52 34.14 30.52 34.07"/><polygon points="30.52 33.36 31.3 34.14 30.59 34.14 30.52 34.07 30.52 33.36"/><polygon points="30.52 32.66 32.01 34.14 31.3 34.14 30.52 33.36 30.52 32.66"/><polygon points="30.52 31.95 32.71 34.14 32.01 34.14 30.52 32.66 30.52 31.95"/><polygon points="30.52 31.24 33.42 34.14 32.71 34.14 30.52 31.95 30.52 31.24"/><polygon points="30.52 30.53 34.13 34.14 33.42 34.14 30.52 31.24 30.52 30.53"/><polygon points="31.18 30.48 34.18 33.48 34.18 34.14 34.13 34.14 30.52 30.53 30.52 30.48 31.18 30.48"/><polygon points="31.89 30.48 34.18 32.78 34.18 33.48 31.18 30.48 31.89 30.48"/><polygon points="32.6 30.48 34.18 32.06 34.18 32.78 31.89 30.48 32.6 30.48"/><polygon points="33.3 30.48 34.18 31.36 34.18 32.06 32.6 30.48 33.3 30.48"/><polygon points="34.01 30.48 34.18 30.65 34.18 31.36 33.3 30.48 34.01 30.48"/><polygon points="34.18 30.65 34.01 30.48 34.18 30.48 34.18 30.65"/></g><path d="M66.56,66.52h0a1.66,1.66,0,0,0,0,2.35h0a1.67,1.67,0,0,0,2.36,0h0a1.66,1.66,0,0,0,0-2.35h0A1.65,1.65,0,0,0,67.74,66a1.63,1.63,0,0,0-1.18.49"/><g class="cls-13"><polygon points="65.91 69.25 66.19 69.53 65.91 69.53 65.91 69.25"/><polygon points="65.91 68.54 66.9 69.53 66.19 69.53 65.91 69.25 65.91 68.54"/><polygon points="65.91 67.83 67.61 69.53 66.9 69.53 65.91 68.54 65.91 67.83"/><polygon points="65.91 67.12 68.31 69.53 67.61 69.53 65.91 67.83 65.91 67.12"/><polygon points="65.91 66.41 69.02 69.53 68.31 69.53 65.91 67.12 65.91 66.41"/><polygon points="66.07 65.86 69.57 69.37 69.57 69.53 69.02 69.53 65.91 66.41 65.91 65.86 66.07 65.86"/><polygon points="66.78 65.86 69.57 68.66 69.57 69.37 66.07 65.86 66.78 65.86"/><polygon points="67.49 65.86 69.57 67.95 69.57 68.66 66.78 65.86 67.49 65.86"/><polygon points="68.19 65.86 69.57 67.24 69.57 67.95 67.49 65.86 68.19 65.86"/><polygon points="68.9 65.86 69.57 66.53 69.57 67.24 68.19 65.86 68.9 65.86"/><polygon points="69.57 66.53 68.91 65.86 69.57 65.86 69.57 66.53"/></g><path d="M26.45,71.24,18.2,79.49l.23-1.65A1.67,1.67,0,0,0,17,76h0a1.67,1.67,0,0,0-1.89,1.42l-1,6.61a1.66,1.66,0,0,0,1.41,1.88l.24,0,.24,0,6.6-.94a1.67,1.67,0,1,0-.47-3.31l-1.65.24,8.26-8.26a1.66,1.66,0,0,0,0-2.35,1.63,1.63,0,0,0-1.18-.49,1.65,1.65,0,0,0-1.18.49"/><g class="cls-14"><polygon points="14.05 85.19 14.74 85.88 14.05 85.88 14.05 85.19"/><polygon points="14.05 84.48 15.45 85.88 14.74 85.88 14.05 85.19 14.05 84.48"/><polygon points="14.05 83.77 16.15 85.88 15.45 85.88 14.05 84.48 14.05 83.77"/><polygon points="14.05 83.06 16.86 85.88 16.15 85.88 14.05 83.77 14.05 83.06"/><polygon points="14.05 82.35 17.57 85.88 16.86 85.88 14.05 83.06 14.05 82.35"/><polygon points="14.05 81.65 18.28 85.88 17.57 85.88 14.05 82.36 14.05 81.65"/><polygon points="14.05 80.94 18.99 85.88 18.28 85.88 14.05 81.64 14.05 80.94"/><polygon points="14.05 80.23 19.7 85.88 18.99 85.88 14.05 80.94 14.05 80.23"/><polygon points="14.05 79.52 20.41 85.88 19.7 85.88 14.05 80.23 14.05 79.52"/><polygon points="14.05 78.81 21.12 85.88 20.41 85.88 14.05 79.52 14.05 78.81"/><polygon points="14.05 78.1 21.83 85.88 21.12 85.88 14.05 78.81 14.05 78.1"/><polygon points="14.05 77.39 22.54 85.88 21.83 85.88 14.05 78.1 14.05 77.39"/><polygon points="14.05 76.68 23.24 85.88 22.54 85.88 14.05 77.39 14.05 76.68"/><polygon points="14.05 75.98 23.95 85.88 23.24 85.88 14.05 76.69 14.05 75.98"/><polygon points="14.05 75.27 24.66 85.88 23.95 85.88 14.05 75.98 14.05 75.27"/><polygon points="14.05 74.56 25.37 85.88 24.66 85.88 14.05 75.27 14.05 74.56"/><polygon points="14.05 73.85 26.08 85.88 25.37 85.88 14.05 74.56 14.05 73.85"/><polygon points="14.05 73.72 14.34 73.43 26.62 85.71 26.44 85.88 26.08 85.88 14.05 73.85 14.05 73.72"/><rect x="20.4" y="70.71" width="0.5" height="17.36" transform="translate(-50.09 37.86) rotate(-45)"/><rect x="20.76" y="70.35" width="0.5" height="17.36" transform="translate(-49.73 38) rotate(-45)"/><rect x="21.11" y="70" width="0.5" height="17.36" transform="translate(-49.38 38.15) rotate(-45)"/><rect x="21.47" y="69.65" width="0.5" height="17.36" transform="translate(-49.03 38.3) rotate(-45)"/><polygon points="15.76 72.01 16.11 71.66 28.39 83.93 28.03 84.29 15.76 72.01"/><rect x="22.18" y="68.94" width="0.5" height="17.36" transform="translate(-48.32 38.59) rotate(-45)"/><rect x="22.53" y="68.58" width="0.5" height="17.36" transform="translate(-47.96 38.74) rotate(-45)"/><rect x="22.88" y="68.23" width="0.5" height="17.36" transform="translate(-47.61 38.88) rotate(-45)"/><polygon points="17.17 70.59 17.18 70.59 17.87 70.59 29.46 82.17 29.46 82.86 29.45 82.87 17.17 70.59"/><polygon points="18.58 70.59 29.46 81.46 29.46 82.17 17.87 70.59 18.58 70.59"/><polygon points="19.29 70.59 29.46 80.75 29.46 81.46 18.58 70.59 19.29 70.59"/><polygon points="20 70.59 29.46 80.04 29.46 80.75 19.29 70.59 20 70.59"/><polygon points="20.71 70.59 29.46 79.34 29.46 80.04 20 70.59 20.71 70.59"/><polygon points="21.42 70.59 29.46 78.63 29.46 79.34 20.71 70.59 21.42 70.59"/><polygon points="22.13 70.59 29.46 77.92 29.46 78.63 21.42 70.59 22.13 70.59"/><polygon points="22.84 70.59 29.46 77.21 29.46 77.92 22.13 70.59 22.84 70.59"/><polygon points="23.54 70.59 29.46 76.5 29.46 77.21 22.83 70.59 23.54 70.59"/><polygon points="24.25 70.59 29.46 75.79 29.46 76.5 23.54 70.59 24.25 70.59"/><polygon points="24.96 70.59 29.46 75.08 29.46 75.79 24.25 70.59 24.96 70.59"/><polygon points="25.67 70.59 29.46 74.38 29.46 75.08 24.96 70.59 25.67 70.59"/><polygon points="26.38 70.59 29.46 73.67 29.46 74.38 25.67 70.59 26.38 70.59"/><polygon points="27.09 70.59 29.46 72.96 29.46 73.67 26.38 70.59 27.09 70.59"/><polygon points="27.8 70.59 29.46 72.25 29.46 72.96 27.09 70.59 27.8 70.59"/><polygon points="28.5 70.59 29.46 71.54 29.46 72.25 27.8 70.59 28.5 70.59"/><polygon points="29.21 70.59 29.46 70.83 29.46 71.54 28.5 70.59 29.21 70.59"/><polygon points="29.46 70.83 29.21 70.59 29.46 70.59 29.46 70.83"/></g><path d="M84,14.15l-6.61.94A1.65,1.65,0,0,0,76,17h0a1.65,1.65,0,0,0,1.88,1.41l1.65-.23-8.26,8.25a1.67,1.67,0,0,0,0,2.36h0a1.67,1.67,0,0,0,2.36,0l8.25-8.25-.23,1.65a1.65,1.65,0,0,0,1.41,1.88h0A1.67,1.67,0,0,0,85,22.64L85.9,16a1.64,1.64,0,0,0-.47-1.41,1.62,1.62,0,0,0-1.17-.49,1,1,0,0,0-.24,0"/><g class="cls-15"><polygon points="70.63 27.94 72.11 29.42 70.63 29.42 70.63 27.94"/><polygon points="70.63 19.03 81.02 29.42 72.11 29.42 70.63 27.94 70.63 19.03"/><polygon points="70.63 17.14 73.7 14.07 74.58 14.07 85.98 25.47 85.98 26.35 82.91 29.42 81.02 29.42 70.63 19.03 70.63 17.14"/><polygon points="83.5 14.07 85.98 16.55 85.98 25.47 74.58 14.07 83.5 14.07"/><polygon points="85.98 16.55 83.5 14.07 85.98 14.07 85.98 16.55"/></g><path d="M31.17,66.52h0a1.67,1.67,0,0,0,0,2.36h0a1.67,1.67,0,0,0,2.36,0h0a1.67,1.67,0,0,0,0-2.36h0A1.63,1.63,0,0,0,32.35,66a1.67,1.67,0,0,0-1.18.49"/><g class="cls-16"><polygon points="30.52 69.06 31 69.53 30.52 69.53 30.52 69.06"/><polygon points="30.52 68.35 31.7 69.53 31 69.53 30.52 69.06 30.52 68.35"/><polygon points="30.52 67.64 32.41 69.53 31.7 69.53 30.52 68.35 30.52 67.64"/><polygon points="30.52 66.93 33.12 69.53 32.41 69.53 30.52 67.64 30.52 66.93"/><polygon points="30.52 66.22 33.83 69.53 33.12 69.53 30.52 66.93 30.52 66.22"/><polygon points="30.88 65.87 34.19 69.17 34.19 69.53 33.83 69.53 30.52 66.22 30.52 65.87 30.88 65.87"/><polygon points="31.58 65.87 34.18 68.47 34.18 69.17 30.88 65.87 31.58 65.87"/><polygon points="32.29 65.87 34.19 67.76 34.19 68.47 31.58 65.87 32.29 65.87"/><polygon points="33 65.87 34.19 67.05 34.19 67.76 32.29 65.87 33 65.87"/><polygon points="33.71 65.87 34.18 66.34 34.18 67.05 33 65.87 33.71 65.87"/><polygon points="34.18 66.34 33.71 65.87 34.18 65.87 34.18 66.34"/></g><path d="M66.56,31.12h0a1.66,1.66,0,0,0,0,2.35h0a1.69,1.69,0,0,0,2.36,0h0a1.66,1.66,0,0,0,0-2.35h0a1.69,1.69,0,0,0-2.36,0"/><g class="cls-17"><polygon points="65.91 33.56 66.49 34.14 65.91 34.14 65.91 33.56"/><polygon points="65.91 32.85 67.19 34.14 66.49 34.14 65.91 33.56 65.91 32.85"/><polygon points="65.91 32.14 67.91 34.14 67.19 34.14 65.91 32.85 65.91 32.14"/><polygon points="67.9 34.14 65.91 32.14 65.91 30.47 69.57 30.47 69.57 34.14 67.9 34.14"/></g></svg>