<?xml version="1.0" encoding="utf-8"?><svg id="Layer_1" data-name="Layer 1" xmlns="http://www.w3.org/2000/svg" xmlns:xlink="http://www.w3.org/1999/xlink" viewBox="0 0 400 400"><defs><style>.cls-1{fill:#0093d2;}.cls-2{fill:#c2d500;}.cls-3{fill:#ffc629;}.cls-4{fill:none;}.cls-5{clip-path:url(#clip-path);}.cls-6{opacity:0.1;}.cls-7{clip-path:url(#clip-path-2);}.cls-8{clip-path:url(#clip-path-3);}.cls-9{clip-path:url(#clip-path-4);}.cls-10{fill:#d6d6d6;}.cls-11{fill:#fff;}.cls-12{fill:#d50057;}.cls-13{fill:#a5a5a5;}</style><clipPath id="clip-path"><circle class="cls-1" cx="200" cy="-222.11" r="200"/></clipPath><clipPath id="clip-path-2"><circle class="cls-2" cx="200" cy="622.11" r="200"/></clipPath><clipPath id="clip-path-3"><circle class="cls-3" cx="200" cy="200" r="200"/></clipPath><clipPath id="clip-path-4"><circle class="cls-4" cx="200" cy="200" r="200"/></clipPath></defs><title>4Artboard 1 copy 37</title><circle class="cls-1" cx="200" cy="-222.11" r="200"/><g class="cls-5"><g class="cls-6"><circle class="cls-1" cx="234.97" cy="-233.88" r="276.69"/></g></g><circle class="cls-2" cx="200" cy="622.11" r="200"/><g class="cls-7"><circle class="cls-2" cx="234.97" cy="610.33" r="276.69"/></g><circle class="cls-3" cx="200" cy="200" r="200"/><g class="cls-8"><g class="cls-6"><circle class="cls-3" cx="234.97" cy="188.23" r="276.69"/></g></g><g class="cls-9"><path class="cls-10" d="M98.05,50.7H302a5.8,5.8,0,0,1,5.83,5.83V448.37a5.8,5.8,0,0,1-5.83,5.82H98.05a5.8,5.8,0,0,1-5.83-5.82V56.53A5.8,5.8,0,0,1,98.05,50.7Z"/><path class="cls-11" d="M106.89,105.08H293.11a4.43,4.43,0,0,1,4.53,4.53V395.07a4.43,4.43,0,0,1-4.53,4.53H106.89a4.43,4.43,0,0,1-4.53-4.53V109.61A4.43,4.43,0,0,1,106.89,105.08Z"/><path class="cls-2" d="M124.37,124.5h30.21a6.49,6.49,0,0,1,6.47,6.47v30.21a6.49,6.49,0,0,1-6.47,6.47H124.37a6.49,6.49,0,0,1-6.47-6.47V131A6.49,6.49,0,0,1,124.37,124.5Z"/><path class="cls-10" d="M184.79,124.5H215a6.49,6.49,0,0,1,6.47,6.47v30.21a6.49,6.49,0,0,1-6.47,6.47H184.79a6.49,6.49,0,0,1-6.47-6.47V131A6.49,6.49,0,0,1,184.79,124.5Z"/><path class="cls-1" d="M245.42,124.5h30.21A6.49,6.49,0,0,1,282.1,131v30.21a6.49,6.49,0,0,1-6.47,6.47H245.42a6.49,6.49,0,0,1-6.47-6.47V131A6.49,6.49,0,0,1,245.42,124.5Z"/><path class="cls-3" d="M124.37,178h30.21a6.49,6.49,0,0,1,6.47,6.47v30.21a6.49,6.49,0,0,1-6.47,6.47H124.37a6.49,6.49,0,0,1-6.47-6.47V184.48A6.49,6.49,0,0,1,124.37,178Z"/><path class="cls-12" d="M184.79,178H215a6.49,6.49,0,0,1,6.47,6.47v30.21a6.49,6.49,0,0,1-6.47,6.47H184.79a6.49,6.49,0,0,1-6.47-6.47V184.48A6.49,6.49,0,0,1,184.79,178Z"/><path class="cls-10" d="M124.37,231.73h30.21a6.5,6.5,0,0,1,6.47,6.48v30.21a6.49,6.49,0,0,1-6.47,6.47H124.37a6.49,6.49,0,0,1-6.47-6.47V238.21A6.49,6.49,0,0,1,124.37,231.73Z"/><path class="cls-1" d="M268.33,243.14a58.12,58.12,0,1,1-28,77.3,59,59,0,0,1-5.4-29l-57.52-56.73,65.91,30.56a58.24,58.24,0,0,1,24.77-22.17Z"/><path class="cls-11" d="M320.26,312.25H279.12L261.74,272.7H251v-5h14l17.38,39.55h37.95Zm8-29.76,2-5H275.72l2,5Zm-44.54,14.78,2,5h34.55l2-5Zm42.54-10H279.71l2,5h42.54Zm-6,37.15a7.39,7.39,0,1,1-7.39-7.39A7.37,7.37,0,0,1,320.26,324.43Zm-24.77,0A7.39,7.39,0,1,1,288.1,317,7.37,7.37,0,0,1,295.49,324.43Z"/><rect class="cls-13" x="170.73" y="75.01" width="58.33" height="3.56"/></g></svg>