<?xml version="1.0" encoding="utf-8"?><svg xmlns="http://www.w3.org/2000/svg" xmlns:xlink="http://www.w3.org/1999/xlink" viewBox="0 0 400 400"><defs><style>.cls-1{fill:none;}.cls-2{fill:#0093d2;}.cls-3{isolation:isolate;}.cls-4{clip-path:url(#clip-path);}.cls-5{fill:#d50057;}.cls-6{clip-path:url(#clip-path-2);}.cls-7{opacity:0.1;}.cls-8{fill:#fff;}.cls-9{fill:#ffc629;}.cls-10{opacity:0.5;mix-blend-mode:multiply;}</style><clipPath id="clip-path"><circle class="cls-1" cx="200" cy="200" r="200"/></clipPath><clipPath id="clip-path-2"><circle class="cls-2" cx="200" cy="622.11" r="200"/></clipPath></defs><title>4Artboard 1 copy 35</title><g class="cls-3"><g id="Layer_1" data-name="Layer 1"><g class="cls-4"><circle class="cls-5" cx="234.97" cy="188.23" r="276.69"/></g><circle class="cls-2" cx="200" cy="622.11" r="200"/><g class="cls-6"><g class="cls-7"><circle class="cls-2" cx="234.97" cy="610.33" r="276.69"/></g></g><path class="cls-8" d="M152.52,313l-4.94,6a8.66,8.66,0,0,0-1.91,4.22,7,7,0,0,0,.69,4.34,14.76,14.76,0,0,1,1.26,11.28,16.8,16.8,0,0,1-4.42,7.11,18.08,18.08,0,0,1-7.08,4.31,11.76,11.76,0,0,1-9.48-.7c-.31-.19-1.4-.69-2.31-1.11h0l-1.13-.53h0a17.46,17.46,0,0,0-13.94-.6,22.46,22.46,0,0,0-9,6A21.9,21.9,0,0,0,94.6,370c2.19,1.36,4.41,2.69,6.65,4a17.81,17.81,0,0,1-.83-9.82,15.58,15.58,0,0,1,3.75-7.24,16.18,16.18,0,0,1,6.44-4.33,12.17,12.17,0,0,1,9.69.41h0c.19.1.71.34,1.3.61h0l1.92.9a17,17,0,0,0,13.74,1.1,24.53,24.53,0,0,0,9.57-5.81,23.24,23.24,0,0,0,6.06-9.84,20.19,20.19,0,0,0-1.59-15.48,1.58,1.58,0,0,1-.16-1,2.28,2.28,0,0,1,.53-1.11l4.94-6Z"/><path class="cls-9" d="M241.54,290.46c15.16-14.06,29.52-32.67,41.76-52.12l.08,0c.32-.54.62-1.11.93-1.66s.69-1.07,1-1.61l-.09-.05c11.28-20,20.8-41.52,25.95-61.54,12-46.65,6.14-73.33-24.44-91.54l-14.94-8.89a13.17,13.17,0,0,0-18,4.57l-31.08,52.2a13.15,13.15,0,0,0,5.51,18.54C251,159.56,270.59,163.53,251.05,195l-8.69,14.57-2,3.28-8.68,14.57c-18.32,32.16-31.15,16.82-51.82,2.1a13.15,13.15,0,0,0-18.93,4l-31.09,52.21a13.17,13.17,0,0,0,4.57,18l14.94,8.9c30.58,18.21,56.83,10.65,92.13-22.12Z"/><path class="cls-5" d="M129.91,285.66,161,233.46a13.13,13.13,0,0,1,18.93-4c1.22.87,2.42,1.75,3.6,2.62l-44.32,74.41-4.74-2.82a13.19,13.19,0,0,1-4.57-18Zm123.88-208L222.7,129.86a13.16,13.16,0,0,0,5.52,18.54c1.35.66,2.69,1.29,4,1.91L276.55,75.9l-4.74-2.82A13.18,13.18,0,0,0,253.79,77.65Z"/><path class="cls-8" d="M216.27,108.55a2.27,2.27,0,0,1-4.24,1.63,18.18,18.18,0,0,1-1.08-8.65,18.07,18.07,0,0,1,9.57-13.87,18.16,18.16,0,0,1,8.47-2,2.27,2.27,0,0,1,0,4.54,13.52,13.52,0,0,0-12.7,18.39Zm-47.44,18.29a2.27,2.27,0,0,1-4.24,1.64,68.84,68.84,0,0,1,7.58-63.95A68.44,68.44,0,0,1,197,42.59a69.21,69.21,0,0,1,32.31-7.82,2.27,2.27,0,1,1,0,4.54,64.35,64.35,0,0,0-60.43,87.54Zm15.76-6.08a2.27,2.27,0,0,1-4.24,1.64,52,52,0,0,1,48.83-70.74,2.27,2.27,0,0,1,0,4.54,47.33,47.33,0,0,0-39.35,20.51A47.18,47.18,0,0,0,181.73,98a47.76,47.76,0,0,0,2.85,22.72Zm13.71-5.28a2.27,2.27,0,1,1-4.24,1.63,37.44,37.44,0,0,1-2.24-17.86A37.36,37.36,0,0,1,211.6,70.59a37.52,37.52,0,0,1,17.5-4.24,2.27,2.27,0,0,1,0,4.54,32.78,32.78,0,0,0-30.78,44.59Z"/><path class="cls-9" d="M129.91,285.66,161,233.46a13.13,13.13,0,0,1,18.93-4c1.22.87,2.42,1.75,3.6,2.62l-44.32,74.41-4.74-2.82a13.19,13.19,0,0,1-4.57-18Zm123.88-208L222.7,129.86a13.16,13.16,0,0,0,5.52,18.54c1.35.66,2.69,1.29,4,1.91L276.55,75.9l-4.74-2.82A13.18,13.18,0,0,0,253.79,77.65Z"/><g class="cls-10"><path class="cls-9" d="M129.91,285.66,161,233.46a13.13,13.13,0,0,1,18.93-4c1.22.87,2.42,1.75,3.6,2.62l-44.32,74.41-4.74-2.82a13.19,13.19,0,0,1-4.57-18Zm123.88-208L222.7,129.86a13.16,13.16,0,0,0,5.52,18.54c1.35.66,2.69,1.29,4,1.91L276.55,75.9l-4.74-2.82A13.18,13.18,0,0,0,253.79,77.65Z"/></g></g></g></svg>