<?xml version="1.0" encoding="utf-8"?><svg id="Layer_1" data-name="Layer 1" xmlns="http://www.w3.org/2000/svg" xmlns:xlink="http://www.w3.org/1999/xlink" viewBox="0 0 400 400"><defs><style>.cls-1{fill:#c2d500;}.cls-2{fill:#ffc629;}.cls-3{fill:none;}.cls-4{clip-path:url(#clip-path);}.cls-5{clip-path:url(#clip-path-2);}.cls-6{opacity:0.1;}.cls-7{clip-path:url(#clip-path-3);}.cls-8{fill:#d6d6d6;}.cls-9{fill:#a5a5a5;}.cls-10{clip-path:url(#clip-path-4);}.cls-11{fill:#fff;}.cls-12{fill:#fed298;}.cls-13{fill:#0093d2;}</style><clipPath id="clip-path"><circle class="cls-1" cx="200" cy="200" r="200"/></clipPath><clipPath id="clip-path-2"><circle class="cls-2" cx="200" cy="-222.11" r="200"/></clipPath><clipPath id="clip-path-3"><circle class="cls-3" cx="200" cy="-222.11" r="200"/></clipPath><clipPath id="clip-path-4"><circle class="cls-3" cx="200" cy="200" r="200"/></clipPath></defs><title>4Artboard 1 copy 38</title><circle class="cls-1" cx="200" cy="200" r="200"/><g class="cls-4"><circle class="cls-1" cx="234.97" cy="188.23" r="276.69"/></g><circle class="cls-2" cx="200" cy="-222.11" r="200"/><g class="cls-5"><g class="cls-6"><circle class="cls-2" cx="234.97" cy="-233.88" r="276.69"/></g></g><g class="cls-7"><path class="cls-8" d="M98.05-371.4H302a5.8,5.8,0,0,1,5.83,5.82V26.26A5.8,5.8,0,0,1,302,32.09H98.05a5.8,5.8,0,0,1-5.83-5.83V-365.58A5.8,5.8,0,0,1,98.05-371.4Z"/><rect class="cls-9" x="192.77" y="-1.56" width="14.25" height="10.19"/></g><g class="cls-10"><path class="cls-2" d="M64.77,81.46H335.23c10.83,0,19.62,8.23,19.62,18.26v104c0,10-8.79,18.26-19.62,18.26H64.77c-10.83,0-19.62-8.23-19.62-18.26V99.72C45.15,89.69,53.94,81.46,64.77,81.46Z"/><path class="cls-11" d="M106.93,108.23H325.87a6,6,0,0,1,6,6v91.32a6,6,0,0,1-5.86,6H70.86V197H313.7c1.58,0,3.38.11,3.38-2.14V124.69a2.28,2.28,0,0,0-1.8-2.14H106.71v18L68.15,116.24l38.56-24.35V108Z"/><path class="cls-11" d="M127.11,159.87a9.22,9.22,0,0,0,5.87-8.68c0-9.7-9.25-10.15-13.87-10.15a69.65,69.65,0,0,0-9.47.68v34.72h8V162.8h1.58c2.71,0,4,1.13,4.74,5.41a44.91,44.91,0,0,0,2.14,8.23h8.23c-.68-1.35-1.69-6.09-2.59-9.81-.79-3.38-2-5.63-4.51-6.65v-.22Zm-9.58-3.05v-9.47a12.16,12.16,0,0,1,2.59-.22c1.92,0,4.85.79,4.85,4.73,0,2.82-1.92,5-5.3,5Zm41.49,13h-12v-8.23h10.71V155H147.07v-7.1h11.27v-6.65H139.06v35.17h20v-6.65Zm27.39-28.52h-24v7h8v28.18h8V148.26h8v-7Zm30.22,0h-8v21.3c0,5.64-1.81,7.78-4.85,7.78S199,168,199,162.57v-21.3h-8v20.29c0,10.15,4.06,15.33,12.62,15.33s13-5.18,13-15.22v-20.4Zm24.69,18.6a9.21,9.21,0,0,0,5.86-8.68c0-9.7-9.24-10.15-13.86-10.15a69.53,69.53,0,0,0-9.47.68v34.72h8V162.8h1.58c2.7,0,3.94,1.13,4.73,5.41a43.76,43.76,0,0,0,2.15,8.23h8.23c-.68-1.35-1.7-6.09-2.6-9.81-.79-3.38-2-5.63-4.51-6.65v-.22Zm-9.58-3.05v-9.47a12.16,12.16,0,0,1,2.59-.22c1.92,0,4.85.79,4.85,4.73,0,2.82-1.92,5-5.3,5Zm47.46-15.55H272v8.34a149.42,149.42,0,0,0,.68,15.44h-.11c-1.35-3.49-3.27-8-4.85-11.16l-6-12.62h-8.56v35.17h7.21v-8.68c0-6.31-.22-11.61-.45-15.78h.23a106.3,106.3,0,0,0,5,11.61l6.09,12.74h8V141.27Zm26.38,1.12a18.15,18.15,0,0,0-7.66-1.57c-8.12,0-12.74,4.73-12.74,10.59,0,4.17,2.81,7.67,8.45,10.15,3.61,1.69,5.19,2.82,5.19,5s-1.69,3.49-5,3.49a19.25,19.25,0,0,1-7.67-1.8L284.84,175a20.7,20.7,0,0,0,8.68,1.81c8.46,0,13.42-4.51,13.42-10.94,0-4.39-2.37-7.78-7.9-10.37-4.28-1.92-5.75-2.93-5.75-4.85,0-1.69,1.47-3.27,4.63-3.27a13,13,0,0,1,6.2,1.47l1.46-6.65v.22Z"/><path class="cls-12" d="M241.55,341.83l-23.34-23.9-29.88-22.66c-6.88-5.19-17.36-7.89-15.22-16.23s9.58-12,18.49-8.35l27.17,11.05,2.48-2V181.18A10.77,10.77,0,0,1,232,170.47h0a10.77,10.77,0,0,1,10.71,10.71V232h2.48v-8.57a10.78,10.78,0,0,1,10.71-10.71h0a10.77,10.77,0,0,1,10.71,10.71V232h2.48V229.2a10.78,10.78,0,0,1,10.72-10.71h0a10.78,10.78,0,0,1,10.71,10.71V232h2.81c2.6-10.82,17.25-7.89,18.94,6.54L313,307l-7,21.08,1.81,58.06-51.3,29.54-12,.45-2.71-74.41Z"/><polygon class="cls-11" points="236.58 368.21 236.58 350.51 312.12 350.51 312.12 368.21 236.58 368.21"/><path class="cls-13" d="M230.38,428.64V362.8h88.51L320.24,409a195.39,195.39,0,0,1-85.8,19.61h-4.06Z"/></g></svg>