<?xml version="1.0" encoding="utf-8"?><svg id="Layer_1" data-name="Layer 1" xmlns="http://www.w3.org/2000/svg" xmlns:xlink="http://www.w3.org/1999/xlink" viewBox="0 0 100 100"><defs><style>.cls-1{clip-path:url(#clip-path);}.cls-2{clip-path:url(#clip-path-2);}</style><clipPath id="clip-path"><path d="M18.19,24.84A18.67,18.67,0,1,1,36.86,43.5,18.68,18.68,0,0,1,18.19,24.84m-4.35,0a23,23,0,1,0,23-23,23,23,0,0,0-23,23"/></clipPath><clipPath id="clip-path-2"><path d="M58.9,69.18c.94-5,4.27-8.08,8.64-8.08a14.37,14.37,0,0,1,8.3,3.25,2.22,2.22,0,0,0,2.59,0,14.55,14.55,0,0,1,8.28-3.16c4.38,0,7.71,3.07,8.71,8,2.09,10.89-7.62,20.15-18.27,24.57-14.72-6-19.78-16.62-18.25-24.59M13.86,67a31.78,31.78,0,0,1,23-9.62h.06a32.12,32.12,0,0,1,19.3,6.36,15.82,15.82,0,0,0-1.57,4.61c-1.24,6.45.87,14.25,7.36,20.78l-57.58.07A34,34,0,0,1,13.86,67m23-14h-.07A36.13,36.13,0,0,0,10.72,64,38.71,38.71,0,0,0,0,90.18v1.49a2.18,2.18,0,0,0,2.16,1.92l65.12-.1a45.43,45.43,0,0,0,8.56,4.44L76,98a3.37,3.37,0,0,0,1,.21h.42a3.37,3.37,0,0,0,1-.21l.13,0c14.83-6,21.22-16.38,21.52-25.35V71.26a18.77,18.77,0,0,0-.33-2.93c-1.42-7-6.51-11.5-13-11.5A17.79,17.79,0,0,0,77.17,60a17.44,17.44,0,0,0-9.63-3.23,12.33,12.33,0,0,0-8.77,3.51A36.54,36.54,0,0,0,37,53h-.1"/></clipPath></defs><title>Support</title><path d="M18.19,24.84A18.67,18.67,0,1,1,36.86,43.5,18.68,18.68,0,0,1,18.19,24.84m-4.35,0a23,23,0,1,0,23-23,23,23,0,0,0-23,23"/><g class="cls-1"><polygon points="18.19 43.47 18.22 43.5 18.19 43.5 18.19 43.47"/><polygon points="18.19 42.81 18.89 43.5 18.22 43.5 18.19 43.47 18.19 42.81"/><polygon points="18.19 42.14 19.55 43.5 18.89 43.5 18.19 42.81 18.19 42.14"/><polygon points="18.19 41.48 20.22 43.5 19.55 43.5 18.19 42.14 18.19 41.48"/><polygon points="18.19 40.81 20.89 43.5 20.22 43.5 18.19 41.48 18.19 40.81"/><polygon points="18.19 40.14 21.55 43.5 20.89 43.5 18.19 40.81 18.19 40.14"/><polygon points="18.19 39.48 22.22 43.5 21.55 43.5 18.19 40.14 18.19 39.48"/><polygon points="18.19 38.81 22.89 43.5 22.22 43.5 18.19 39.48 18.19 38.81"/><polygon points="18.19 38.14 23.55 43.5 22.89 43.5 18.19 38.81 18.19 38.14"/><polygon points="18.19 37.48 24.22 43.5 23.55 43.5 18.19 38.14 18.19 37.48"/><polygon points="18.19 36.81 24.88 43.5 24.22 43.5 18.19 37.48 18.19 36.81"/><polygon points="18.19 36.15 25.55 43.5 24.88 43.5 18.19 36.81 18.19 36.15"/><polygon points="18.19 35.48 26.22 43.5 25.55 43.5 18.19 36.15 18.19 35.48"/><polygon points="18.19 34.81 26.88 43.5 26.22 43.5 18.19 35.48 18.19 34.81"/><polygon points="18.19 34.15 27.55 43.5 26.88 43.5 18.19 34.81 18.19 34.15"/><polygon points="18.19 33.48 28.21 43.5 27.55 43.5 18.19 34.15 18.19 33.48"/><polygon points="18.19 32.81 28.88 43.5 28.21 43.5 18.19 33.48 18.19 32.81"/><polygon points="18.19 32.15 29.55 43.5 28.88 43.5 18.19 32.81 18.19 32.15"/><polygon points="18.19 31.48 30.21 43.5 29.55 43.5 18.19 32.15 18.19 31.48"/><polygon points="18.19 30.82 30.88 43.5 30.21 43.5 18.19 31.48 18.19 30.82"/><polygon points="18.19 30.15 31.55 43.5 30.88 43.5 18.19 30.82 18.19 30.15"/><polygon points="18.19 29.48 32.21 43.5 31.55 43.5 18.19 30.15 18.19 29.48"/><polygon points="18.19 28.82 32.88 43.5 32.21 43.5 18.19 29.48 18.19 28.82"/><polygon points="18.19 28.15 33.55 43.5 32.88 43.5 18.19 28.82 18.19 28.15"/><polygon points="18.19 27.48 34.21 43.5 33.55 43.5 18.19 28.15 18.19 27.48"/><polygon points="18.19 26.82 34.88 43.5 34.21 43.5 18.19 27.48 18.19 26.82"/><polygon points="18.19 26.15 35.54 43.5 34.88 43.5 18.19 26.82 18.19 26.15"/><polygon points="18.19 25.48 36.21 43.5 35.54 43.5 18.19 26.15 18.19 25.48"/><polygon points="18.19 24.82 36.88 43.5 36.21 43.5 18.19 25.49 18.19 24.82"/><polygon points="18.19 24.15 37.54 43.5 36.88 43.5 18.19 24.82 18.19 24.15"/><polygon points="18.19 23.49 38.21 43.5 37.54 43.5 18.19 24.15 18.19 23.49"/><polygon points="18.19 22.82 38.87 43.5 38.21 43.5 18.19 23.49 18.19 22.82"/><polygon points="18.19 22.15 39.54 43.5 38.87 43.5 18.19 22.82 18.19 22.15"/><polygon points="18.19 21.49 40.21 43.5 39.54 43.5 18.19 22.16 18.19 21.49"/><polygon points="18.19 20.82 40.87 43.5 40.21 43.5 18.19 21.49 18.19 20.82"/><polygon points="18.19 20.16 41.54 43.5 40.87 43.5 18.19 20.82 18.19 20.16"/><polygon points="18.19 19.49 42.21 43.5 41.54 43.5 18.19 20.16 18.19 19.49"/><polygon points="18.19 18.82 42.87 43.5 42.21 43.5 18.19 19.49 18.19 18.82"/><polygon points="18.19 18.16 43.54 43.5 42.87 43.5 18.19 18.82 18.19 18.16"/><polygon points="18.19 17.49 44.2 43.5 43.54 43.5 18.19 18.16 18.19 17.49"/><polygon points="18.19 16.82 44.87 43.5 44.2 43.5 18.19 17.49 18.19 16.82"/><polygon points="18.19 16.16 45.54 43.5 44.87 43.5 18.19 16.82 18.19 16.16"/><polygon points="18.19 15.49 46.2 43.5 45.54 43.5 18.19 16.16 18.19 15.49"/><polygon points="18.19 14.82 46.87 43.5 46.2 43.5 18.19 15.49 18.19 14.82"/><polygon points="18.19 14.16 47.54 43.5 46.87 43.5 18.19 14.83 18.19 14.16"/><polygon points="18.19 14.05 18.47 13.77 47.93 43.23 47.66 43.5 47.54 43.5 18.19 14.16 18.19 14.05"/><rect x="33.13" y="7.51" width="0.47" height="41.66" transform="translate(-10.26 31.89) rotate(-45)"/><rect x="33.47" y="7.17" width="0.47" height="41.66" transform="translate(-9.93 32.03) rotate(-45)"/><rect x="33.8" y="6.84" width="0.47" height="41.66" transform="translate(-9.6 32.17) rotate(-45)"/><rect x="34.13" y="6.51" width="0.47" height="41.66" transform="translate(-9.26 32.31) rotate(-45)"/><rect x="34.46" y="6.17" width="0.47" height="41.66" transform="translate(-8.93 32.45) rotate(-45)"/><rect x="34.8" y="5.84" width="0.47" height="41.66" transform="translate(-8.6 32.58) rotate(-45)"/><rect x="35.13" y="5.51" width="0.47" height="41.66" transform="translate(-8.26 32.72) rotate(-45)"/><rect x="35.46" y="5.17" width="0.47" height="41.66" transform="translate(-7.93 32.86) rotate(-45)"/><rect x="35.8" y="4.84" width="0.47" height="41.66" transform="translate(-7.6 33) rotate(-45)"/><rect x="36.13" y="4.51" width="0.47" height="41.66" transform="translate(-7.26 33.14) rotate(-45)"/><rect x="36.46" y="4.17" width="0.47" height="41.66" transform="translate(-6.93 33.27) rotate(-45)"/><rect x="36.8" y="3.84" width="0.47" height="41.66" transform="translate(-6.6 33.41) rotate(-45)"/><rect x="37.13" y="3.51" width="0.47" height="41.66" transform="translate(-6.27 33.55) rotate(-45)"/><rect x="37.46" y="3.17" width="0.47" height="41.66" transform="translate(-5.93 33.69) rotate(-45)"/><rect x="37.8" y="2.84" width="0.47" height="41.66" transform="translate(-5.6 33.83) rotate(-45)"/><rect x="38.13" y="2.51" width="0.47" height="41.66" transform="translate(-5.27 33.96) rotate(-45)"/><rect x="38.46" y="2.18" width="0.47" height="41.66" transform="translate(-4.93 34.1) rotate(-45)"/><rect x="38.8" y="1.84" width="0.47" height="41.66" transform="translate(-4.6 34.24) rotate(-45)"/><rect x="39.13" y="1.51" width="0.47" height="41.66" transform="translate(-4.27 34.38) rotate(-45)"/><rect x="39.46" y="1.18" width="0.47" height="41.66" transform="translate(-3.93 34.51) rotate(-45)"/><rect x="39.79" y="0.84" width="0.47" height="41.66" transform="translate(-3.6 34.65) rotate(-45)"/><rect x="40.13" y="0.51" width="0.47" height="41.66" transform="translate(-3.27 34.79) rotate(-45)"/><polygon points="25.8 6.45 26.07 6.17 26.2 6.17 55.52 35.5 55.52 35.64 55.26 35.9 25.8 6.45"/><polygon points="26.86 6.17 55.52 34.83 55.52 35.5 26.2 6.17 26.86 6.17"/><polygon points="27.53 6.17 55.52 34.17 55.52 34.83 26.86 6.17 27.53 6.17"/><polygon points="28.19 6.17 55.52 33.5 55.52 34.17 27.53 6.17 28.19 6.17"/><polygon points="28.86 6.17 55.52 32.83 55.52 33.5 28.19 6.17 28.86 6.17"/><polygon points="29.53 6.17 55.52 32.17 55.52 32.83 28.86 6.17 29.53 6.17"/><polygon points="30.19 6.17 55.52 31.5 55.52 32.17 29.53 6.17 30.19 6.17"/><polygon points="30.86 6.17 55.52 30.84 55.52 31.5 30.19 6.17 30.86 6.17"/><polygon points="31.52 6.17 55.52 30.17 55.52 30.84 30.86 6.17 31.52 6.17"/><polygon points="32.19 6.17 55.52 29.5 55.52 30.17 31.52 6.17 32.19 6.17"/><polygon points="32.86 6.17 55.52 28.84 55.52 29.5 32.19 6.17 32.86 6.17"/><polygon points="33.52 6.17 55.52 28.17 55.52 28.84 32.86 6.17 33.52 6.17"/><polygon points="34.19 6.17 55.52 27.5 55.52 28.17 33.52 6.17 34.19 6.17"/><polygon points="34.86 6.17 55.52 26.84 55.52 27.5 34.19 6.17 34.86 6.17"/><polygon points="35.52 6.17 55.52 26.17 55.52 26.84 34.86 6.17 35.52 6.17"/><polygon points="36.19 6.17 55.52 25.5 55.52 26.17 35.52 6.17 36.19 6.17"/><polygon points="36.85 6.17 55.52 24.84 55.52 25.5 36.19 6.17 36.85 6.17"/><polygon points="37.52 6.17 55.52 24.17 55.52 24.84 36.85 6.17 37.52 6.17"/><polygon points="38.19 6.17 55.52 23.51 55.52 24.17 37.52 6.17 38.19 6.17"/><polygon points="38.85 6.17 55.52 22.84 55.52 23.51 38.19 6.17 38.85 6.17"/><polygon points="39.52 6.17 55.52 22.18 55.52 22.84 38.85 6.17 39.52 6.17"/><polygon points="40.19 6.17 55.52 21.51 55.52 22.18 39.52 6.17 40.19 6.17"/><polygon points="48.57 6.17 55.52 13.13 55.52 21.51 40.19 6.17 48.57 6.17"/><polygon points="55.52 13.13 48.56 6.17 55.52 6.17 55.52 13.13"/><polygon points="13.84 47.78 13.92 47.86 13.84 47.86 13.84 47.78"/><polygon points="13.84 47.11 14.58 47.86 13.92 47.86 13.84 47.78 13.84 47.11"/><polygon points="13.84 46.45 15.25 47.86 14.58 47.86 13.84 47.11 13.84 46.45"/><polygon points="13.84 45.78 15.91 47.86 15.25 47.86 13.84 46.45 13.84 45.78"/><polygon points="13.84 45.11 16.58 47.86 15.91 47.86 13.84 45.78 13.84 45.11"/><polygon points="13.84 44.45 17.25 47.86 16.58 47.86 13.84 45.11 13.84 44.45"/><polygon points="13.84 43.78 17.91 47.86 17.25 47.86 13.84 44.45 13.84 43.78"/><polygon points="13.84 43.12 18.58 47.86 17.91 47.86 13.84 43.78 13.84 43.12"/><polygon points="13.84 42.45 19.25 47.86 18.58 47.86 13.84 43.12 13.84 42.45"/><polygon points="13.84 41.78 19.91 47.86 19.25 47.86 13.84 42.45 13.84 41.78"/><polygon points="13.84 41.12 20.58 47.86 19.91 47.86 13.84 41.78 13.84 41.12"/><polygon points="13.84 40.45 21.24 47.86 20.58 47.86 13.84 41.12 13.84 40.45"/><polygon points="13.84 39.78 21.91 47.86 21.24 47.86 13.84 40.45 13.84 39.78"/><polygon points="13.84 39.12 22.58 47.86 21.91 47.86 13.84 39.78 13.84 39.12"/><polygon points="13.84 38.45 23.24 47.86 22.58 47.86 13.84 39.12 13.84 38.45"/><polygon points="13.84 37.78 23.91 47.86 23.24 47.86 13.84 38.45 13.84 37.78"/><polygon points="13.84 37.12 24.58 47.86 23.91 47.86 13.84 37.79 13.84 37.12"/><polygon points="13.84 36.45 25.24 47.86 24.58 47.86 13.84 37.12 13.84 36.45"/><polygon points="13.84 35.79 25.91 47.86 25.24 47.86 13.84 36.45 13.84 35.79"/><polygon points="13.84 35.12 26.57 47.86 25.91 47.86 13.84 35.79 13.84 35.12"/><polygon points="13.84 34.45 27.24 47.86 26.57 47.86 13.84 35.12 13.84 34.45"/><polygon points="13.84 33.79 27.91 47.86 27.24 47.86 13.84 34.45 13.84 33.79"/><polygon points="13.84 33.12 28.57 47.86 27.91 47.86 13.84 33.79 13.84 33.12"/><polygon points="13.84 32.45 29.24 47.86 28.57 47.86 13.84 33.12 13.84 32.45"/><polygon points="13.84 31.79 29.91 47.86 29.24 47.86 13.84 32.46 13.84 31.79"/><polygon points="13.84 31.12 30.57 47.86 29.91 47.86 13.84 31.79 13.84 31.12"/><polygon points="13.84 30.46 31.24 47.86 30.57 47.86 13.84 31.12 13.84 30.46"/><polygon points="13.84 29.79 31.9 47.86 31.24 47.86 13.84 30.46 13.84 29.79"/><polygon points="13.84 29.12 32.57 47.86 31.9 47.86 13.84 29.79 13.84 29.12"/><polygon points="13.84 28.46 33.24 47.86 32.57 47.86 13.84 29.13 13.84 28.46"/><polygon points="13.84 27.79 33.9 47.86 33.24 47.86 13.84 28.46 13.84 27.79"/><polygon points="13.84 27.13 34.57 47.86 33.9 47.86 13.84 27.79 13.84 27.13"/><polygon points="13.84 26.46 35.23 47.86 34.57 47.86 13.84 27.13 13.84 26.46"/><polygon points="13.84 25.79 35.9 47.86 35.23 47.86 13.84 26.46 13.84 25.79"/><polygon points="13.84 25.13 36.57 47.86 35.9 47.86 13.84 25.79 13.84 25.13"/><polygon points="13.84 24.46 37.23 47.86 36.57 47.86 13.84 25.13 13.84 24.46"/><polygon points="13.84 23.79 37.9 47.86 37.23 47.86 13.84 24.46 13.84 23.79"/><polygon points="13.84 23.13 38.57 47.86 37.9 47.86 13.84 23.8 13.84 23.13"/><polygon points="13.84 22.46 39.23 47.86 38.57 47.86 13.84 23.13 13.84 22.46"/><polygon points="13.84 21.8 39.9 47.86 39.23 47.86 13.84 22.46 13.84 21.8"/><polygon points="13.84 21.13 40.57 47.86 39.9 47.86 13.84 21.8 13.84 21.13"/><polygon points="13.84 20.46 41.23 47.86 40.57 47.86 13.84 21.13 13.84 20.46"/><polygon points="13.84 19.8 41.9 47.86 41.23 47.86 13.84 20.46 13.84 19.8"/><polygon points="13.84 19.13 42.56 47.86 41.9 47.86 13.84 19.8 13.84 19.13"/><polygon points="13.84 18.46 43.23 47.86 42.56 47.86 13.84 19.13 13.84 18.46"/><polygon points="13.84 17.8 43.9 47.86 43.23 47.86 13.84 18.46 13.84 17.8"/><polygon points="13.84 17.13 44.56 47.86 43.9 47.86 13.84 17.8 13.84 17.13"/><polygon points="13.84 16.47 45.23 47.86 44.56 47.86 13.84 17.13 13.84 16.47"/><polygon points="13.84 15.8 45.9 47.86 45.23 47.86 13.84 16.47 13.84 15.8"/><polygon points="13.84 15.13 46.56 47.86 45.9 47.86 13.84 15.8 13.84 15.13"/><polygon points="13.84 14.47 47.23 47.86 46.56 47.86 13.84 15.13 13.84 14.47"/><polygon points="13.84 13.8 47.89 47.86 47.23 47.86 13.84 14.47 13.84 13.8"/><polygon points="13.84 13.13 48.56 47.86 47.89 47.86 13.84 13.8 13.84 13.13"/><polygon points="13.84 12.47 49.23 47.86 48.56 47.86 13.84 13.13 13.84 12.47"/><polygon points="13.84 11.8 49.89 47.86 49.23 47.86 13.84 12.47 13.84 11.8"/><polygon points="13.84 11.63 14.08 11.38 50.31 47.61 50.06 47.86 49.89 47.86 13.84 11.8 13.84 11.63"/><rect x="32.13" y="3.71" width="0.47" height="51.23" transform="translate(-11.26 31.48) rotate(-45)"/><rect x="32.46" y="3.38" width="0.47" height="51.23" transform="translate(-10.93 31.61) rotate(-45)"/><rect x="32.79" y="3.05" width="0.47" height="51.23" transform="translate(-10.59 31.75) rotate(-45)"/><rect x="33.13" y="2.71" width="0.47" height="51.23" transform="translate(-10.26 31.89) rotate(-45)"/><rect x="33.46" y="2.38" width="0.47" height="51.23" transform="translate(-9.93 32.03) rotate(-45)"/><rect x="33.79" y="2.05" width="0.47" height="51.23" transform="translate(-9.59 32.17) rotate(-45)"/><rect x="34.13" y="1.71" width="0.47" height="51.23" transform="translate(-9.26 32.3) rotate(-45)"/><rect x="34.46" y="1.38" width="0.47" height="51.23" transform="translate(-8.93 32.44) rotate(-45)"/><rect x="34.79" y="1.05" width="0.47" height="51.23" transform="translate(-8.6 32.58) rotate(-45)"/><rect x="35.13" y="0.72" width="0.47" height="51.23" transform="translate(-8.26 32.72) rotate(-45)"/><rect x="35.46" y="0.38" width="0.47" height="51.23" transform="translate(-7.93 32.86) rotate(-45)"/><rect x="35.79" y="0.05" width="0.47" height="51.23" transform="translate(-7.6 32.99) rotate(-45)"/><rect x="36.13" y="-0.28" width="0.47" height="51.23" transform="translate(-7.26 33.13) rotate(-45)"/><rect x="36.46" y="-0.62" width="0.47" height="51.23" transform="translate(-6.93 33.27) rotate(-45)"/><rect x="36.79" y="-0.95" width="0.47" height="51.23" transform="translate(-6.6 33.41) rotate(-45)"/><rect x="37.13" y="-1.28" width="0.47" height="51.23" transform="translate(-6.26 33.54) rotate(-45)"/><rect x="37.46" y="-1.62" width="0.47" height="51.23" transform="translate(-5.93 33.68) rotate(-45)"/><rect x="37.79" y="-1.95" width="0.47" height="51.23" transform="translate(-5.6 33.82) rotate(-45)"/><rect x="38.13" y="-2.28" width="0.47" height="51.23" transform="translate(-5.26 33.96) rotate(-45)"/><rect x="38.46" y="-2.62" width="0.47" height="51.23" transform="translate(-4.93 34.1) rotate(-45)"/><rect x="38.79" y="-2.95" width="0.47" height="51.23" transform="translate(-4.6 34.23) rotate(-45)"/><rect x="39.12" y="-3.28" width="0.47" height="51.23" transform="translate(-4.26 34.37) rotate(-45)"/><rect x="39.46" y="-3.62" width="0.47" height="51.23" transform="translate(-3.93 34.51) rotate(-45)"/><rect x="39.79" y="-3.95" width="0.47" height="51.23" transform="translate(-3.6 34.65) rotate(-45)"/><rect x="40.12" y="-4.28" width="0.47" height="51.23" transform="translate(-3.27 34.79) rotate(-45)"/><rect x="40.46" y="-4.61" width="0.47" height="51.23" transform="translate(-2.93 34.92) rotate(-45)"/><rect x="40.79" y="-4.95" width="0.47" height="51.23" transform="translate(-2.6 35.06) rotate(-45)"/><rect x="41.12" y="-5.28" width="0.47" height="51.23" transform="translate(-2.27 35.2) rotate(-45)"/><polygon points="23.41 2.06 23.65 1.82 23.84 1.82 59.88 37.86 59.88 38.04 59.64 38.28 23.41 2.06"/><polygon points="24.5 1.82 59.88 37.19 59.88 37.86 23.84 1.82 24.5 1.82"/><polygon points="25.17 1.82 59.88 36.52 59.88 37.19 24.5 1.82 25.17 1.82"/><polygon points="25.84 1.82 59.88 35.86 59.88 36.52 25.17 1.82 25.84 1.82"/><polygon points="26.5 1.82 59.88 35.19 59.88 35.86 25.84 1.82 26.5 1.82"/><polygon points="27.17 1.82 59.88 34.52 59.88 35.19 26.5 1.82 27.17 1.82"/><polygon points="27.84 1.82 59.88 33.86 59.88 34.52 27.17 1.82 27.84 1.82"/><polygon points="28.5 1.82 59.88 33.19 59.88 33.86 27.84 1.82 28.5 1.82"/><polygon points="29.17 1.82 59.88 32.53 59.88 33.19 28.5 1.82 29.17 1.82"/><polygon points="29.84 1.82 59.88 31.86 59.88 32.53 29.17 1.82 29.84 1.82"/><polygon points="30.5 1.82 59.88 31.19 59.88 31.86 29.83 1.82 30.5 1.82"/><polygon points="31.17 1.82 59.88 30.53 59.88 31.19 30.5 1.82 31.17 1.82"/><polygon points="31.83 1.82 59.88 29.86 59.88 30.53 31.17 1.82 31.83 1.82"/><polygon points="32.5 1.82 59.88 29.2 59.88 29.86 31.83 1.82 32.5 1.82"/><polygon points="33.17 1.82 59.88 28.53 59.88 29.2 32.5 1.82 33.17 1.82"/><polygon points="33.83 1.82 59.88 27.86 59.88 28.53 33.16 1.82 33.83 1.82"/><polygon points="34.5 1.82 59.88 27.2 59.88 27.86 33.83 1.82 34.5 1.82"/><polygon points="35.16 1.82 59.88 26.53 59.88 27.2 34.5 1.82 35.16 1.82"/><polygon points="35.83 1.82 59.88 25.86 59.88 26.53 35.16 1.82 35.83 1.82"/><polygon points="44.21 1.82 59.88 17.48 59.88 25.86 35.83 1.82 44.21 1.82"/><polygon points="52.59 1.82 59.88 9.11 59.88 17.48 44.21 1.82 52.59 1.82"/><polygon points="59.88 9.11 52.59 1.82 59.88 1.82 59.88 9.11"/></g><path d="M58.9,69.18c.94-5,4.27-8.08,8.64-8.08a14.37,14.37,0,0,1,8.3,3.25,2.22,2.22,0,0,0,2.59,0,14.55,14.55,0,0,1,8.28-3.16c4.38,0,7.71,3.07,8.71,8,2.09,10.89-7.62,20.15-18.27,24.57-14.72-6-19.78-16.62-18.25-24.59M13.86,67a31.78,31.78,0,0,1,23-9.62h.06a32.12,32.12,0,0,1,19.3,6.36,15.82,15.82,0,0,0-1.57,4.61c-1.24,6.45.87,14.25,7.36,20.78l-57.58.07A34,34,0,0,1,13.86,67m23-14h-.07A36.13,36.13,0,0,0,10.72,64,38.71,38.71,0,0,0,0,90.18v1.49a2.18,2.18,0,0,0,2.16,1.92l65.12-.1a45.43,45.43,0,0,0,8.56,4.44L76,98a3.37,3.37,0,0,0,1,.21h.42a3.37,3.37,0,0,0,1-.21l.13,0c14.83-6,21.22-16.38,21.52-25.35V71.26a18.77,18.77,0,0,0-.33-2.93c-1.42-7-6.51-11.5-13-11.5A17.79,17.79,0,0,0,77.17,60a17.44,17.44,0,0,0-9.63-3.23,12.33,12.33,0,0,0-8.77,3.51A36.54,36.54,0,0,0,37,53h-.1"/><g class="cls-2"><polygon points="57.37 93.52 57.63 93.77 57.37 93.77 57.37 93.52"/><polygon points="57.37 92.85 58.3 93.77 57.63 93.77 57.37 93.52 57.37 92.85"/><polygon points="57.37 92.17 58.97 93.77 58.3 93.77 57.37 92.85 57.37 92.17"/><polygon points="57.37 91.5 59.64 93.77 58.97 93.77 57.37 92.17 57.37 91.5"/><polygon points="57.37 90.83 60.31 93.77 59.64 93.77 57.37 91.5 57.37 90.83"/><polygon points="57.37 90.16 60.99 93.77 60.31 93.77 57.37 90.83 57.37 90.16"/><polygon points="57.37 89.48 61.66 93.77 60.99 93.77 57.37 90.16 57.37 89.48"/><polygon points="57.37 88.81 62.33 93.77 61.66 93.77 57.37 89.48 57.37 88.81"/><polygon points="57.37 88.14 63.01 93.77 62.33 93.77 57.37 88.81 57.37 88.14"/><polygon points="57.37 87.47 63.68 93.77 63.01 93.77 57.37 88.14 57.37 87.47"/><polygon points="57.37 86.79 64.35 93.77 63.68 93.77 57.37 87.47 57.37 86.79"/><polygon points="57.37 86.12 65.02 93.77 64.35 93.77 57.37 86.79 57.37 86.12"/><polygon points="57.37 85.45 65.7 93.77 65.02 93.77 57.37 86.12 57.37 85.45"/><polygon points="57.37 84.77 66.37 93.77 65.7 93.77 57.37 85.45 57.37 84.77"/><polygon points="57.37 84.1 67.04 93.77 66.37 93.77 57.37 84.77 57.37 84.1"/><polygon points="57.37 83.43 67.71 93.77 67.04 93.77 57.37 84.1 57.37 83.43"/><polygon points="57.37 82.76 68.39 93.77 67.71 93.77 57.37 83.43 57.37 82.76"/><polygon points="57.37 82.08 69.06 93.77 68.39 93.77 57.37 82.76 57.37 82.08"/><polygon points="57.37 81.41 69.73 93.77 69.06 93.77 57.37 82.08 57.37 81.41"/><polygon points="57.37 80.74 70.4 93.77 69.73 93.77 57.37 81.41 57.37 80.74"/><polygon points="57.37 80.07 71.08 93.77 70.4 93.77 57.37 80.74 57.37 80.07"/><polygon points="57.37 79.39 71.75 93.77 71.08 93.77 57.37 80.07 57.37 79.39"/><polygon points="57.37 78.72 72.42 93.77 71.75 93.77 57.37 79.39 57.37 78.72"/><polygon points="57.37 78.05 73.09 93.77 72.42 93.77 57.37 78.72 57.37 78.05"/><polygon points="57.37 77.38 73.77 93.77 73.09 93.77 57.37 78.05 57.37 77.38"/><polygon points="57.37 76.7 74.44 93.77 73.77 93.77 57.37 77.38 57.37 76.7"/><polygon points="57.37 76.03 75.11 93.77 74.44 93.77 57.37 76.7 57.37 76.03"/><polygon points="57.37 75.36 75.79 93.77 75.11 93.77 57.37 76.03 57.37 75.36"/><polygon points="57.37 74.68 76.46 93.77 75.79 93.77 57.37 75.36 57.37 74.68"/><polygon points="57.37 74.01 77.13 93.77 76.46 93.77 57.37 74.68 57.37 74.01"/><polygon points="57.37 73.34 77.8 93.77 77.13 93.77 57.37 74.01 57.37 73.34"/><polygon points="57.37 72.67 78.48 93.77 77.8 93.77 57.37 73.34 57.37 72.67"/><polygon points="57.37 71.99 79.15 93.77 78.48 93.77 57.37 72.67 57.37 71.99"/><polygon points="57.37 71.32 79.82 93.77 79.15 93.77 57.37 71.99 57.37 71.32"/><polygon points="57.37 70.65 80.49 93.77 79.82 93.77 57.37 71.32 57.37 70.65"/><polygon points="57.37 69.98 81.17 93.77 80.49 93.77 57.37 70.65 57.37 69.98"/><polygon points="57.37 69.3 81.84 93.77 81.17 93.77 57.37 69.98 57.37 69.3"/><polygon points="57.37 68.63 82.51 93.77 81.84 93.77 57.37 69.3 57.37 68.63"/><polygon points="57.37 67.96 83.19 93.77 82.51 93.77 57.37 68.63 57.37 67.96"/><polygon points="57.37 67.28 83.86 93.77 83.19 93.77 57.37 67.96 57.37 67.28"/><polygon points="57.37 66.61 84.43 93.67 84.33 93.77 83.86 93.77 57.37 67.28 57.37 66.61"/><polygon points="57.37 66.16 57.48 66.05 84.77 93.33 84.43 93.67 57.37 66.61 57.37 66.16"/><rect x="71.05" y="60.23" width="0.48" height="38.58" transform="translate(-35.35 73.7) rotate(-45)"/><rect x="71.39" y="59.9" width="0.48" height="38.58" transform="translate(-35.01 73.84) rotate(-45)"/><rect x="71.73" y="59.56" width="0.48" height="38.58" transform="translate(-34.68 73.98) rotate(-45)"/><rect x="72.06" y="59.22" width="0.48" height="38.58" transform="translate(-34.34 74.12) rotate(-45)"/><rect x="72.4" y="58.89" width="0.48" height="38.58" transform="translate(-34.01 74.26) rotate(-45)"/><rect x="72.74" y="58.55" width="0.48" height="38.58" transform="translate(-33.67 74.4) rotate(-45)"/><rect x="73.07" y="58.21" width="0.48" height="38.58" transform="translate(-33.33 74.54) rotate(-45)"/><rect x="73.41" y="57.88" width="0.48" height="38.58" transform="translate(-33 74.68) rotate(-45)"/><rect x="73.75" y="57.54" width="0.48" height="38.58" transform="translate(-32.66 74.82) rotate(-45)"/><rect x="74.08" y="57.2" width="0.48" height="38.58" transform="translate(-32.32 74.96) rotate(-45)"/><rect x="74.42" y="56.87" width="0.48" height="38.58" transform="translate(-31.99 75.1) rotate(-45)"/><rect x="74.75" y="56.53" width="0.48" height="38.58" transform="translate(-31.65 75.24) rotate(-45)"/><rect x="75.09" y="56.2" width="0.48" height="38.58" transform="translate(-31.31 75.38) rotate(-45)"/><rect x="75.43" y="55.86" width="0.48" height="38.58" transform="translate(-30.98 75.51) rotate(-45)"/><polygon points="62.19 61.34 62.43 61.1 62.62 61.1 89.81 88.29 89.47 88.62 62.19 61.34"/><polygon points="63.3 61.1 90.15 87.95 89.81 88.29 62.62 61.1 63.3 61.1"/><polygon points="63.97 61.1 90.48 87.61 90.15 87.95 63.3 61.1 63.97 61.1"/><polygon points="64.64 61.1 90.82 87.28 90.48 87.61 63.97 61.1 64.64 61.1"/><polygon points="65.31 61.1 91.16 86.94 90.82 87.28 64.64 61.1 65.31 61.1"/><polygon points="65.99 61.1 91.49 86.61 91.16 86.94 65.31 61.1 65.99 61.1"/><polygon points="66.66 61.1 91.83 86.27 91.49 86.61 65.99 61.1 66.66 61.1"/><polygon points="67.33 61.1 92.17 85.93 91.83 86.27 66.66 61.1 67.33 61.1"/><polygon points="68 61.1 92.5 85.6 92.16 85.93 67.33 61.1 68 61.1"/><polygon points="68.68 61.1 92.84 85.26 92.5 85.6 68 61.1 68.68 61.1"/><polygon points="69.35 61.1 93.17 84.92 92.84 85.26 68.68 61.1 69.35 61.1"/><polygon points="70.02 61.1 93.51 84.59 93.17 84.92 69.35 61.1 70.02 61.1"/><polygon points="70.69 61.1 93.85 84.25 93.51 84.59 70.02 61.1 70.69 61.1"/><polygon points="71.37 61.1 94.18 83.92 93.85 84.25 70.69 61.1 71.37 61.1"/><polygon points="72.04 61.1 94.52 83.58 94.18 83.92 71.37 61.1 72.04 61.1"/><polygon points="72.71 61.1 94.86 83.24 94.52 83.58 72.04 61.1 72.71 61.1"/><polygon points="73.39 61.1 95.19 82.91 94.86 83.24 72.71 61.1 73.39 61.1"/><polygon points="74.06 61.1 95.53 82.57 95.19 82.91 73.39 61.1 74.06 61.1"/><polygon points="74.73 61.1 95.86 82.23 95.53 82.57 74.06 61.1 74.73 61.1"/><polygon points="75.4 61.1 96.2 81.9 95.86 82.23 74.73 61.1 75.4 61.1"/><polygon points="76.08 61.1 96.54 81.56 96.2 81.9 75.4 61.1 76.08 61.1"/><polygon points="76.75 61.1 96.87 81.22 96.54 81.56 76.08 61.1 76.75 61.1"/><polygon points="77.42 61.1 97.21 80.89 96.87 81.22 76.75 61.1 77.42 61.1"/><polygon points="78.09 61.1 97.51 80.52 97.51 80.58 97.21 80.89 77.42 61.1 78.09 61.1"/><polygon points="78.77 61.1 97.51 79.85 97.51 80.52 78.09 61.1 78.77 61.1"/><polygon points="79.44 61.1 97.51 79.17 97.51 79.85 78.77 61.1 79.44 61.1"/><polygon points="80.11 61.1 97.51 78.5 97.51 79.17 79.44 61.1 80.11 61.1"/><polygon points="80.78 61.1 97.51 77.83 97.51 78.5 80.11 61.1 80.78 61.1"/><polygon points="81.46 61.1 97.51 77.16 97.51 77.83 80.78 61.1 81.46 61.1"/><polygon points="82.13 61.1 97.51 76.48 97.51 77.16 81.46 61.1 82.13 61.1"/><polygon points="82.8 61.1 97.51 75.81 97.51 76.48 82.13 61.1 82.8 61.1"/><polygon points="83.47 61.1 97.51 75.14 97.51 75.81 82.8 61.1 83.47 61.1"/><polygon points="84.15 61.1 97.51 74.47 97.51 75.14 83.47 61.1 84.15 61.1"/><polygon points="84.82 61.1 97.51 73.79 97.51 74.47 84.15 61.1 84.82 61.1"/><polygon points="85.49 61.1 97.51 73.12 97.51 73.79 84.82 61.1 85.49 61.1"/><polygon points="86.17 61.1 97.51 72.45 97.51 73.12 85.49 61.1 86.17 61.1"/><polygon points="86.84 61.1 97.51 71.77 97.51 72.45 86.17 61.1 86.84 61.1"/><polygon points="87.51 61.1 97.51 71.1 97.51 71.77 86.84 61.1 87.51 61.1"/><polygon points="88.18 61.1 97.51 70.43 97.51 71.1 87.51 61.1 88.18 61.1"/><polygon points="88.86 61.1 97.51 69.76 97.51 70.43 88.18 61.1 88.86 61.1"/><polygon points="89.53 61.1 97.51 69.08 97.51 69.76 88.86 61.1 89.53 61.1"/><polygon points="90.2 61.1 97.51 68.41 97.51 69.08 89.53 61.1 90.2 61.1"/><polygon points="90.87 61.1 97.51 67.74 97.51 68.41 90.2 61.1 90.87 61.1"/><polygon points="91.55 61.1 97.51 67.07 97.51 67.74 90.87 61.1 91.55 61.1"/><polygon points="92.22 61.1 97.51 66.39 97.51 67.07 91.55 61.1 92.22 61.1"/><polygon points="92.89 61.1 97.51 65.72 97.51 66.39 92.22 61.1 92.89 61.1"/><polygon points="93.56 61.1 97.51 65.05 97.51 65.72 92.89 61.1 93.56 61.1"/><polygon points="94.24 61.1 97.51 64.38 97.51 65.05 93.56 61.1 94.24 61.1"/><polygon points="94.91 61.1 97.51 63.7 97.51 64.38 94.24 61.1 94.91 61.1"/><polygon points="95.58 61.1 97.51 63.03 97.51 63.7 94.91 61.1 95.58 61.1"/><polygon points="96.25 61.1 97.51 62.36 97.51 63.03 95.58 61.1 96.25 61.1"/><polygon points="96.93 61.1 97.51 61.68 97.51 62.36 96.26 61.1 96.93 61.1"/><polygon points="97.51 61.68 96.93 61.1 97.51 61.1 97.51 61.68"/><polygon points="4.41 88.98 4.64 89.22 4.41 89.22 4.41 88.98"/><polygon points="4.41 88.31 5.31 89.22 4.64 89.22 4.41 88.98 4.41 88.31"/><polygon points="4.41 87.64 5.99 89.22 5.31 89.22 4.41 88.31 4.41 87.64"/><polygon points="4.41 86.96 6.66 89.22 5.99 89.22 4.41 87.64 4.41 86.96"/><polygon points="4.41 86.29 7.33 89.22 6.66 89.22 4.41 86.96 4.41 86.29"/><polygon points="4.41 85.62 8 89.22 7.33 89.22 4.41 86.29 4.41 85.62"/><polygon points="4.41 84.95 8.68 89.22 8 89.22 4.41 85.62 4.41 84.95"/><polygon points="4.41 84.27 9.35 89.22 8.68 89.22 4.41 84.95 4.41 84.27"/><polygon points="4.41 83.6 10.02 89.22 9.35 89.22 4.41 84.27 4.41 83.6"/><polygon points="4.41 82.93 10.69 89.22 10.02 89.22 4.41 83.6 4.41 82.93"/><polygon points="4.41 82.26 11.37 89.22 10.69 89.22 4.41 82.93 4.41 82.26"/><polygon points="4.41 81.58 12.04 89.22 11.37 89.22 4.41 82.25 4.41 81.58"/><polygon points="4.41 80.91 12.71 89.22 12.04 89.22 4.41 81.58 4.41 80.91"/><polygon points="4.41 80.24 13.38 89.22 12.71 89.22 4.41 80.91 4.41 80.24"/><polygon points="4.41 79.56 14.06 89.22 13.38 89.22 4.41 80.24 4.41 79.56"/><polygon points="4.41 78.89 14.73 89.22 14.06 89.22 4.41 79.56 4.41 78.89"/><polygon points="4.41 78.22 15.4 89.22 14.73 89.22 4.41 78.89 4.41 78.22"/><polygon points="4.41 77.55 16.08 89.22 15.4 89.22 4.41 78.22 4.41 77.55"/><polygon points="4.41 76.88 16.75 89.22 16.08 89.22 4.41 77.55 4.41 76.88"/><polygon points="4.41 76.2 17.42 89.22 16.75 89.22 4.41 76.87 4.41 76.2"/><polygon points="4.41 75.81 4.55 75.67 18.09 89.22 17.42 89.22 4.41 76.2 4.41 75.81"/><polygon points="4.55 75.67 4.88 75.33 18.77 89.22 18.09 89.22 4.55 75.67"/><polygon points="4.88 75.33 5.22 75 19.44 89.22 18.77 89.22 4.88 75.33"/><polygon points="5.22 75 5.55 74.66 20.11 89.22 19.44 89.22 5.22 75"/><polygon points="5.55 74.66 5.89 74.32 20.78 89.22 20.11 89.22 5.55 74.66"/><polygon points="5.89 74.32 6.23 73.99 21.46 89.22 20.78 89.22 5.89 74.32"/><polygon points="6.23 73.99 6.56 73.65 22.13 89.22 21.46 89.22 6.23 73.99"/><polygon points="6.56 73.65 6.9 73.31 22.8 89.22 22.13 89.22 6.56 73.65"/><polygon points="6.9 73.31 7.24 72.98 23.47 89.22 22.8 89.22 6.9 73.31"/><polygon points="7.24 72.98 7.57 72.64 24.15 89.22 23.47 89.22 7.24 72.98"/><polygon points="7.57 72.64 7.91 72.31 24.82 89.22 24.15 89.22 7.57 72.64"/><polygon points="7.91 72.31 8.25 71.97 25.49 89.22 24.82 89.22 7.91 72.31"/><polygon points="8.25 71.97 8.58 71.63 26.17 89.22 25.49 89.22 8.25 71.97"/><polygon points="8.58 71.63 8.92 71.3 26.84 89.22 26.17 89.22 8.58 71.63"/><polygon points="8.92 71.3 9.25 70.96 27.51 89.22 26.84 89.22 8.92 71.3"/><polygon points="9.26 70.96 9.59 70.62 28.18 89.22 27.51 89.22 9.26 70.96"/><polygon points="9.59 70.62 9.93 70.29 28.86 89.22 28.18 89.22 9.59 70.62"/><polygon points="9.93 70.29 10.26 69.95 29.53 89.22 28.86 89.22 9.93 70.29"/><polygon points="10.26 69.95 10.6 69.61 30.2 89.22 29.53 89.22 10.26 69.95"/><polygon points="10.6 69.61 10.94 69.28 30.88 89.22 30.2 89.22 10.6 69.61"/><polygon points="10.94 69.28 11.27 68.94 31.55 89.22 30.87 89.22 10.94 69.28"/><polygon points="11.27 68.94 11.61 68.61 32.22 89.22 31.55 89.22 11.27 68.94"/><polygon points="11.61 68.61 11.95 68.27 32.89 89.22 32.22 89.22 11.61 68.61"/><polygon points="11.95 68.27 12.28 67.93 33.56 89.22 32.89 89.22 11.95 68.27"/><polygon points="12.28 67.93 12.62 67.6 34.24 89.22 33.56 89.22 12.28 67.93"/><polygon points="12.62 67.6 12.95 67.26 34.91 89.22 34.24 89.22 12.62 67.6"/><polygon points="12.95 67.26 13.29 66.92 35.58 89.22 34.91 89.22 12.95 67.26"/><polygon points="13.29 66.92 13.63 66.59 36.26 89.22 35.58 89.22 13.29 66.92"/><polygon points="13.63 66.59 13.96 66.25 36.93 89.22 36.26 89.22 13.63 66.59"/><polygon points="13.96 66.25 14.3 65.92 37.6 89.22 36.93 89.22 13.96 66.25"/><polygon points="14.3 65.92 14.64 65.58 38.27 89.22 37.6 89.22 14.3 65.92"/><polygon points="14.64 65.58 14.97 65.24 38.95 89.22 38.27 89.22 14.64 65.58"/><polygon points="14.97 65.24 15.31 64.91 39.62 89.22 38.95 89.22 14.97 65.24"/><polygon points="15.31 64.91 15.64 64.57 40.29 89.22 39.62 89.22 15.31 64.91"/><polygon points="15.64 64.57 15.98 64.23 40.96 89.22 40.29 89.22 15.64 64.57"/><polygon points="15.98 64.23 16.32 63.9 41.64 89.22 40.96 89.22 15.98 64.23"/><polygon points="16.32 63.9 16.65 63.56 42.31 89.22 41.64 89.22 16.32 63.9"/><polygon points="16.65 63.56 16.99 63.23 42.98 89.22 42.31 89.22 16.65 63.56"/><polygon points="16.99 63.23 17.33 62.89 43.65 89.22 42.98 89.22 16.99 63.23"/><polygon points="17.33 62.89 17.66 62.55 44.33 89.22 43.65 89.22 17.33 62.89"/><polygon points="17.66 62.55 18 62.22 45 89.22 44.33 89.22 17.66 62.55"/><polygon points="18 62.22 18.34 61.88 45.67 89.22 45 89.22 18 62.22"/><polygon points="18.34 61.88 18.67 61.54 46.34 89.22 45.67 89.22 18.34 61.88"/><polygon points="18.67 61.54 19.01 61.21 47.02 89.22 46.34 89.22 18.67 61.54"/><polygon points="19.01 61.21 19.34 60.87 47.69 89.22 47.02 89.22 19.01 61.21"/><polygon points="19.34 60.87 19.68 60.53 48.36 89.22 47.69 89.22 19.34 60.87"/><polygon points="19.68 60.53 20.02 60.2 49.03 89.22 48.36 89.22 19.68 60.53"/><polygon points="20.02 60.2 20.35 59.86 49.71 89.22 49.03 89.22 20.02 60.2"/><polygon points="20.35 59.86 20.69 59.53 50.38 89.22 49.71 89.22 20.35 59.86"/><polygon points="20.69 59.53 21.03 59.19 51.05 89.22 50.38 89.22 20.69 59.53"/><polygon points="21.03 59.19 21.36 58.85 51.73 89.22 51.05 89.22 21.03 59.19"/><polygon points="21.36 58.85 21.7 58.52 52.4 89.22 51.73 89.22 21.36 58.85"/><polygon points="21.7 58.52 22.04 58.18 53.07 89.22 52.4 89.22 21.7 58.52"/><polygon points="22.04 58.18 22.37 57.84 53.74 89.22 53.07 89.22 22.04 58.18"/><polygon points="22.37 57.84 22.71 57.51 54.42 89.22 53.74 89.22 22.37 57.84"/><polygon points="22.71 57.51 22.84 57.37 23.25 57.37 55.09 89.22 54.42 89.22 22.71 57.51"/><polygon points="23.92 57.38 55.76 89.22 55.09 89.22 23.25 57.38 23.92 57.38"/><polygon points="24.59 57.38 56.43 89.22 55.76 89.22 23.92 57.38 24.59 57.38"/><polygon points="25.27 57.38 57.11 89.22 56.43 89.22 24.59 57.38 25.27 57.38"/><polygon points="25.94 57.38 57.78 89.22 57.11 89.22 25.27 57.38 25.94 57.38"/><polygon points="26.61 57.38 58.45 89.22 57.78 89.22 25.94 57.38 26.61 57.38"/><polygon points="27.28 57.38 59.13 89.22 58.45 89.22 26.61 57.38 27.28 57.38"/><polygon points="27.96 57.38 59.8 89.22 59.13 89.22 27.28 57.38 27.96 57.38"/><polygon points="28.63 57.38 60.47 89.22 59.8 89.22 27.96 57.38 28.63 57.38"/><polygon points="29.3 57.38 61.14 89.22 60.47 89.22 28.63 57.38 29.3 57.38"/><polygon points="29.97 57.38 61.81 89.22 61.14 89.22 29.3 57.38 29.97 57.38"/><polygon points="30.65 57.38 61.99 88.72 61.99 89.22 61.81 89.22 29.97 57.38 30.65 57.38"/><polygon points="31.32 57.38 61.99 88.05 61.99 88.72 30.65 57.38 31.32 57.38"/><polygon points="31.99 57.38 61.99 87.37 61.99 88.05 31.32 57.38 31.99 57.38"/><polygon points="32.66 57.38 61.99 86.7 61.99 87.37 31.99 57.38 32.66 57.38"/><polygon points="33.34 57.38 61.99 86.03 61.99 86.7 32.66 57.38 33.34 57.38"/><polygon points="34.01 57.38 61.99 85.36 61.99 86.03 33.34 57.38 34.01 57.38"/><polygon points="34.68 57.38 61.99 84.68 61.99 85.36 34.01 57.38 34.68 57.38"/><polygon points="35.35 57.38 61.99 84.01 61.99 84.68 34.68 57.38 35.35 57.38"/><polygon points="36.03 57.38 61.99 83.34 61.99 84.01 35.36 57.38 36.03 57.38"/><polygon points="36.7 57.38 61.99 82.66 61.99 83.34 36.03 57.38 36.7 57.38"/><polygon points="37.37 57.38 61.99 81.99 61.99 82.66 36.7 57.38 37.37 57.38"/><polygon points="38.05 57.38 61.99 81.32 61.99 81.99 37.37 57.38 38.05 57.38"/><polygon points="38.72 57.38 61.99 80.65 61.99 81.32 38.05 57.38 38.72 57.38"/><polygon points="39.39 57.38 61.99 79.97 61.99 80.65 38.72 57.38 39.39 57.38"/><polygon points="40.06 57.38 61.99 79.3 61.99 79.97 39.39 57.38 40.06 57.38"/><polygon points="40.74 57.38 61.99 78.63 61.99 79.3 40.06 57.38 40.74 57.38"/><polygon points="41.41 57.38 61.99 77.96 61.99 78.63 40.74 57.38 41.41 57.38"/><polygon points="42.08 57.38 61.99 77.28 61.99 77.96 41.41 57.38 42.08 57.38"/><polygon points="42.75 57.38 61.99 76.61 61.99 77.28 42.08 57.38 42.75 57.38"/><polygon points="43.43 57.38 61.99 75.94 61.99 76.61 42.76 57.38 43.43 57.38"/><polygon points="44.1 57.38 61.99 75.27 61.99 75.94 43.43 57.38 44.1 57.38"/><polygon points="44.77 57.38 61.99 74.59 61.99 75.27 44.1 57.38 44.77 57.38"/><polygon points="45.45 57.38 61.99 73.92 61.99 74.59 44.77 57.38 45.45 57.38"/><polygon points="46.12 57.38 61.99 73.25 61.99 73.92 45.45 57.38 46.12 57.38"/><polygon points="46.79 57.38 61.99 72.57 61.99 73.25 46.12 57.38 46.79 57.38"/><polygon points="47.46 57.38 61.99 71.9 61.99 72.57 46.79 57.38 47.46 57.38"/><polygon points="48.14 57.38 61.99 71.23 61.99 71.9 47.46 57.38 48.14 57.38"/><polygon points="48.81 57.38 61.99 70.56 61.99 71.23 48.14 57.38 48.81 57.38"/><polygon points="49.48 57.38 61.99 69.88 61.99 70.56 48.81 57.38 49.48 57.38"/><polygon points="50.15 57.38 61.99 69.21 61.99 69.88 49.48 57.38 50.15 57.38"/><polygon points="50.83 57.38 61.99 68.54 61.99 69.21 50.15 57.38 50.83 57.38"/><polygon points="51.5 57.38 61.99 67.87 61.99 68.54 50.83 57.38 51.5 57.38"/><polygon points="52.17 57.38 61.99 67.19 61.99 67.87 51.5 57.38 52.17 57.38"/><polygon points="52.84 57.38 61.99 66.52 61.99 67.19 52.17 57.38 52.84 57.38"/><polygon points="53.52 57.38 61.99 65.85 61.99 66.52 52.84 57.38 53.52 57.38"/><polygon points="54.19 57.38 61.99 65.17 61.99 65.85 53.52 57.38 54.19 57.38"/><polygon points="54.86 57.38 61.99 64.5 61.99 65.17 54.19 57.38 54.86 57.38"/><polygon points="55.53 57.38 61.99 63.83 61.99 64.5 54.86 57.38 55.53 57.38"/><polygon points="56.21 57.38 61.99 63.16 61.99 63.83 55.53 57.38 56.21 57.38"/><polygon points="56.88 57.38 61.99 62.48 61.99 63.16 56.21 57.38 56.88 57.38"/><polygon points="57.55 57.38 61.99 61.81 61.99 62.48 56.88 57.38 57.55 57.38"/><polygon points="58.23 57.38 61.99 61.14 61.99 61.81 57.55 57.38 58.23 57.38"/><polygon points="58.9 57.38 61.99 60.47 61.99 61.14 58.23 57.38 58.9 57.38"/><polygon points="59.57 57.38 61.99 59.8 61.99 60.47 58.9 57.38 59.57 57.38"/><polygon points="60.24 57.38 61.99 59.12 61.99 59.8 59.57 57.38 60.24 57.38"/><polygon points="60.92 57.38 61.99 58.45 61.99 59.12 60.24 57.38 60.92 57.38"/><polygon points="61.59 57.38 61.99 57.78 61.99 58.45 60.92 57.38 61.59 57.38"/><polygon points="61.99 57.78 61.59 57.38 61.99 57.38 61.99 57.78"/><polygon points="-0.04 97.99 0.16 98.19 -0.04 98.19 -0.04 97.99"/><polygon points="-0.04 97.32 0.83 98.19 0.16 98.19 -0.04 97.99 -0.04 97.32"/><polygon points="-0.04 96.65 1.51 98.19 0.83 98.19 -0.04 97.32 -0.04 96.65"/><polygon points="-0.04 95.97 2.18 98.19 1.51 98.19 -0.04 96.65 -0.04 95.97"/><polygon points="-0.04 95.3 2.85 98.19 2.18 98.19 -0.04 95.97 -0.04 95.3"/><polygon points="-0.04 94.63 3.52 98.19 2.85 98.19 -0.04 95.3 -0.04 94.63"/><polygon points="-0.04 93.96 4.2 98.19 3.52 98.19 -0.04 94.63 -0.04 93.96"/><polygon points="-0.04 93.28 4.87 98.19 4.2 98.19 -0.04 93.96 -0.04 93.28"/><polygon points="-0.04 92.61 5.54 98.19 4.87 98.19 -0.04 93.28 -0.04 92.61"/><polygon points="-0.04 91.94 6.22 98.19 5.54 98.19 -0.04 92.61 -0.04 91.94"/><polygon points="-0.04 91.27 6.89 98.19 6.22 98.19 -0.04 91.94 -0.04 91.27"/><polygon points="-0.04 90.59 7.56 98.19 6.89 98.19 -0.04 91.27 -0.04 90.59"/><polygon points="-0.04 89.92 8.23 98.19 7.56 98.19 -0.04 90.59 -0.04 89.92"/><polygon points="-0.04 89.25 8.91 98.19 8.23 98.19 -0.04 89.92 -0.04 89.25"/><polygon points="-0.04 88.58 9.58 98.19 8.91 98.19 -0.04 89.25 -0.04 88.58"/><polygon points="-0.04 87.9 10.25 98.19 9.58 98.19 -0.04 88.58 -0.04 87.9"/><polygon points="-0.04 87.23 10.92 98.19 10.25 98.19 -0.04 87.9 -0.04 87.23"/><polygon points="-0.04 86.56 11.6 98.19 10.92 98.19 -0.04 87.23 -0.04 86.56"/><polygon points="-0.04 85.89 12.27 98.19 11.6 98.19 -0.04 86.56 -0.04 85.89"/><polygon points="-0.04 85.21 12.94 98.19 12.27 98.19 -0.04 85.88 -0.04 85.21"/><polygon points="-0.04 84.54 13.62 98.19 12.94 98.19 -0.04 85.21 -0.04 84.54"/><polygon points="-0.04 83.87 14.29 98.19 13.62 98.19 -0.04 84.54 -0.04 83.87"/><polygon points="-0.04 83.19 14.96 98.19 14.29 98.19 -0.04 83.87 -0.04 83.19"/><polygon points="-0.04 82.52 15.63 98.19 14.96 98.19 -0.04 83.19 -0.04 82.52"/><polygon points="-0.04 81.85 16.31 98.19 15.63 98.19 -0.04 82.52 -0.04 81.85"/><polygon points="-0.04 81.18 16.98 98.19 16.31 98.19 -0.04 81.85 -0.04 81.18"/><polygon points="-0.04 80.5 17.65 98.19 16.98 98.19 -0.04 81.18 -0.04 80.5"/><polygon points="-0.04 79.83 18.32 98.19 17.65 98.19 -0.04 80.5 -0.04 79.83"/><polygon points="-0.04 79.16 19 98.19 18.32 98.19 -0.04 79.83 -0.04 79.16"/><polygon points="-0.04 78.48 19.67 98.19 19 98.19 -0.04 79.16 -0.04 78.48"/><polygon points="-0.04 77.81 20.34 98.19 19.67 98.19 -0.04 78.48 -0.04 77.81"/><polygon points="-0.04 77.14 21.01 98.19 20.34 98.19 -0.04 77.81 -0.04 77.14"/><polygon points="-0.04 76.47 21.69 98.19 21.01 98.19 -0.04 77.14 -0.04 76.47"/><polygon points="-0.04 75.8 22.36 98.19 21.69 98.19 -0.04 76.47 -0.04 75.8"/><polygon points="-0.04 75.12 23.03 98.19 22.36 98.19 -0.04 75.8 -0.04 75.12"/><polygon points="-0.04 74.45 23.7 98.19 23.03 98.19 -0.04 75.12 -0.04 74.45"/><polygon points="-0.04 74.05 0.1 73.91 24.38 98.19 23.7 98.19 -0.04 74.45 -0.04 74.05"/><polygon points="0.1 73.91 0.43 73.57 25.05 98.19 24.38 98.19 0.1 73.91"/><polygon points="0.43 73.57 0.77 73.24 25.72 98.19 25.05 98.19 0.43 73.57"/><polygon points="0.77 73.24 1.11 72.9 26.39 98.19 25.72 98.19 0.77 73.24"/><polygon points="1.11 72.9 1.44 72.57 27.07 98.19 26.39 98.19 1.11 72.9"/><polygon points="1.44 72.56 1.78 72.23 27.74 98.19 27.07 98.19 1.44 72.56"/><polygon points="1.78 72.23 2.12 71.89 28.41 98.19 27.74 98.19 1.78 72.23"/><polygon points="2.12 71.89 2.45 71.56 29.09 98.19 28.41 98.19 2.12 71.89"/><polygon points="2.45 71.56 2.79 71.22 29.76 98.19 29.09 98.19 2.45 71.56"/><polygon points="2.79 71.22 3.12 70.88 30.43 98.19 29.76 98.19 2.79 71.22"/><polygon points="3.12 70.88 3.46 70.55 31.1 98.19 30.43 98.19 3.12 70.88"/><polygon points="3.46 70.55 3.8 70.21 31.78 98.19 31.1 98.19 3.46 70.55"/><polygon points="3.8 70.21 4.13 69.88 32.45 98.19 31.78 98.19 3.8 70.21"/><polygon points="4.13 69.88 4.47 69.54 33.12 98.19 32.45 98.19 4.13 69.88"/><polygon points="4.47 69.54 4.8 69.2 33.79 98.19 33.12 98.19 4.47 69.54"/><polygon points="4.81 69.2 5.14 68.87 34.47 98.19 33.79 98.19 4.81 69.2"/><polygon points="5.14 68.87 5.48 68.53 35.14 98.19 34.47 98.19 5.14 68.87"/><polygon points="5.48 68.53 5.81 68.19 35.81 98.19 35.14 98.19 5.48 68.53"/><polygon points="5.82 68.19 6.15 67.86 36.48 98.19 35.81 98.19 5.82 68.19"/><polygon points="6.15 67.86 6.49 67.52 37.16 98.19 36.49 98.19 6.15 67.86"/><polygon points="6.49 67.52 6.82 67.18 37.83 98.19 37.16 98.19 6.49 67.52"/><polygon points="6.82 67.18 7.16 66.85 38.5 98.19 37.83 98.19 6.82 67.18"/><polygon points="7.16 66.85 7.5 66.51 39.17 98.19 38.5 98.19 7.16 66.85"/><polygon points="7.5 66.51 7.83 66.17 39.85 98.19 39.18 98.19 7.5 66.51"/><polygon points="7.83 66.17 8.17 65.84 40.52 98.19 39.85 98.19 7.83 66.17"/><polygon points="8.17 65.84 8.51 65.5 41.19 98.19 40.52 98.19 8.17 65.84"/><polygon points="8.51 65.5 8.84 65.17 41.87 98.19 41.19 98.19 8.51 65.5"/><polygon points="8.84 65.17 9.18 64.83 42.54 98.19 41.87 98.19 8.84 65.17"/><polygon points="9.18 64.83 9.51 64.49 43.21 98.19 42.54 98.19 9.18 64.83"/><polygon points="9.51 64.49 9.85 64.16 43.88 98.19 43.21 98.19 9.51 64.49"/><polygon points="9.85 64.16 10.19 63.82 44.56 98.19 43.88 98.19 9.85 64.16"/><polygon points="10.19 63.82 10.52 63.48 45.23 98.19 44.56 98.19 10.19 63.82"/><polygon points="10.52 63.48 10.86 63.15 45.9 98.19 45.23 98.19 10.52 63.48"/><polygon points="10.86 63.15 11.2 62.81 46.57 98.19 45.9 98.19 10.86 63.15"/><polygon points="11.2 62.81 11.53 62.48 47.25 98.19 46.58 98.19 11.2 62.81"/><polygon points="11.53 62.48 11.87 62.14 47.92 98.19 47.25 98.19 11.53 62.48"/><polygon points="11.87 62.14 12.21 61.8 48.59 98.19 47.92 98.19 11.87 62.14"/><polygon points="12.21 61.8 12.54 61.47 49.27 98.19 48.59 98.19 12.21 61.8"/><polygon points="12.54 61.47 12.88 61.13 49.94 98.19 49.27 98.19 12.54 61.47"/><polygon points="12.88 61.13 13.21 60.79 50.61 98.19 49.94 98.19 12.88 61.13"/><polygon points="13.21 60.79 13.55 60.46 51.28 98.19 50.61 98.19 13.21 60.79"/><polygon points="13.55 60.46 13.89 60.12 51.96 98.19 51.28 98.19 13.55 60.46"/><polygon points="13.89 60.12 14.22 59.78 52.63 98.19 51.96 98.19 13.89 60.12"/><polygon points="14.22 59.78 14.56 59.45 53.3 98.19 52.63 98.19 14.22 59.78"/><polygon points="14.56 59.45 14.89 59.11 53.97 98.19 53.3 98.19 14.56 59.45"/><polygon points="14.89 59.11 15.23 58.78 54.65 98.19 53.97 98.19 14.89 59.11"/><polygon points="15.23 58.78 15.57 58.44 55.32 98.19 54.65 98.19 15.23 58.78"/><polygon points="15.57 58.44 15.9 58.1 55.99 98.19 55.32 98.19 15.57 58.44"/><polygon points="15.9 58.1 16.24 57.77 56.66 98.19 55.99 98.19 15.9 58.1"/><polygon points="16.24 57.77 16.58 57.43 57.34 98.19 56.66 98.19 16.24 57.77"/><polygon points="16.58 57.43 16.91 57.09 58.01 98.19 57.34 98.19 16.58 57.43"/><polygon points="16.91 57.09 17.25 56.76 58.68 98.19 58.01 98.19 16.91 57.09"/><polygon points="17.25 56.76 17.59 56.42 59.35 98.19 58.68 98.19 17.25 56.76"/><polygon points="17.59 56.42 17.92 56.09 60.03 98.19 59.35 98.19 17.59 56.42"/><polygon points="17.92 56.09 18.26 55.75 60.7 98.19 60.03 98.19 17.92 56.09"/><polygon points="18.26 55.75 18.59 55.41 61.37 98.19 60.7 98.19 18.26 55.75"/><polygon points="18.59 55.41 18.93 55.08 62.05 98.19 61.37 98.19 18.59 55.41"/><polygon points="18.93 55.08 19.27 54.74 62.72 98.19 62.05 98.19 18.93 55.08"/><polygon points="19.27 54.74 19.6 54.4 63.39 98.19 62.72 98.19 19.27 54.74"/><polygon points="19.6 54.4 19.94 54.07 64.06 98.19 63.39 98.19 19.6 54.4"/><polygon points="19.94 54.07 20.28 53.73 64.74 98.19 64.06 98.19 19.94 54.07"/><polygon points="20.28 53.73 20.61 53.4 65.41 98.19 64.74 98.19 20.28 53.73"/><polygon points="20.61 53.4 20.95 53.06 66.08 98.19 65.41 98.19 20.61 53.4"/><polygon points="20.95 53.06 21.01 53 21.56 53 66.75 98.19 66.08 98.19 20.95 53.06"/><polygon points="22.23 53 67.43 98.19 66.75 98.19 21.56 53 22.23 53"/><polygon points="22.91 53 68.1 98.19 67.43 98.19 22.23 53 22.91 53"/><polygon points="23.58 53 68.77 98.19 68.1 98.19 22.91 53 23.58 53"/><polygon points="24.25 53 69.44 98.19 68.77 98.19 23.58 53 24.25 53"/><polygon points="24.93 53 70.12 98.19 69.44 98.19 24.25 53 24.93 53"/><polygon points="25.6 53 70.79 98.19 70.12 98.19 24.93 53 25.6 53"/><polygon points="26.27 53 71.46 98.19 70.79 98.19 25.6 53 26.27 53"/><polygon points="26.94 53 72.14 98.19 71.46 98.19 26.27 53 26.94 53"/><polygon points="27.62 53 72.81 98.19 72.14 98.19 26.94 53 27.62 53"/><polygon points="28.29 53 73.48 98.19 72.81 98.19 27.62 53 28.29 53"/><polygon points="28.96 53 74.15 98.19 73.48 98.19 28.29 53 28.96 53"/><polygon points="29.63 53 74.83 98.19 74.15 98.19 28.96 53 29.63 53"/><polygon points="30.31 53 75.5 98.19 74.83 98.19 29.63 53 30.31 53"/><polygon points="30.98 53 76.17 98.19 75.5 98.19 30.31 53 30.98 53"/><polygon points="31.65 53 76.84 98.19 76.17 98.19 30.98 53 31.65 53"/><polygon points="32.32 53 77.52 98.19 76.84 98.19 31.65 53 32.32 53"/><polygon points="33 53 78.19 98.19 77.52 98.19 32.33 53 33 53"/><polygon points="33.67 53 78.86 98.19 78.19 98.19 33 53 33.67 53"/><polygon points="34.34 53 79.53 98.19 78.86 98.19 33.67 53 34.34 53"/><polygon points="35.02 53 80.21 98.19 79.53 98.19 34.34 53 35.02 53"/><polygon points="35.69 53 80.88 98.19 80.21 98.19 35.02 53 35.69 53"/><polygon points="36.36 53 81.55 98.19 80.88 98.19 35.69 53 36.36 53"/><polygon points="37.03 53 82.22 98.19 81.55 98.19 36.36 53 37.03 53"/><polygon points="37.71 53 82.9 98.19 82.22 98.19 37.03 53 37.71 53"/><polygon points="38.38 53 83.57 98.19 82.9 98.19 37.71 53 38.38 53"/><polygon points="39.05 53 84.24 98.19 83.57 98.19 38.38 53 39.05 53"/><polygon points="39.72 53 84.92 98.19 84.24 98.19 39.05 53 39.72 53"/><polygon points="40.4 53 85.59 98.19 84.92 98.19 39.72 53 40.4 53"/><polygon points="41.07 53 86.26 98.19 85.59 98.19 40.4 53 41.07 53"/><polygon points="41.74 53 86.93 98.19 86.26 98.19 41.07 53 41.74 53"/><polygon points="42.41 53 87.61 98.19 86.93 98.19 41.74 53 42.41 53"/><polygon points="43.09 53 88.28 98.19 87.61 98.19 42.41 53 43.09 53"/><polygon points="43.76 53 88.95 98.19 88.28 98.19 43.09 53 43.76 53"/><polygon points="44.43 53 89.3 97.86 88.97 98.19 88.95 98.19 43.76 53 44.43 53"/><polygon points="45.1 53 89.63 97.53 89.3 97.86 44.43 53 45.1 53"/><polygon points="45.78 53 89.97 97.19 89.63 97.53 45.1 53 45.78 53"/><polygon points="46.45 53 90.3 96.85 89.97 97.19 45.78 53 46.45 53"/><polygon points="47.12 53 90.64 96.52 90.31 96.85 46.45 53 47.12 53"/><polygon points="47.8 53 90.98 96.18 90.64 96.52 47.12 53 47.8 53"/><polygon points="48.47 53 91.31 95.84 90.98 96.18 47.8 53 48.47 53"/><polygon points="49.14 53 91.65 95.51 91.31 95.84 48.47 53 49.14 53"/><polygon points="49.81 53 91.99 95.17 91.65 95.51 49.14 53 49.81 53"/><polygon points="50.49 53 92.32 94.84 91.99 95.17 49.81 53 50.49 53"/><polygon points="51.16 53 92.66 94.5 92.32 94.84 50.49 53 51.16 53"/><polygon points="51.83 53 93 94.16 92.66 94.5 51.16 53 51.83 53"/><polygon points="52.5 53 93.33 93.83 93 94.16 51.83 53 52.5 53"/><polygon points="53.18 53 93.67 93.49 93.33 93.83 52.5 53 53.18 53"/><polygon points="53.85 53 94 93.15 93.67 93.49 53.18 53 53.85 53"/><polygon points="54.52 53 94.34 92.82 94 93.15 53.85 53 54.52 53"/><polygon points="55.19 53 94.68 92.48 94.34 92.82 54.52 53 55.19 53"/><polygon points="55.87 53 95.01 92.14 94.68 92.48 55.2 53 55.87 53"/><polygon points="56.54 53 95.35 91.81 95.01 92.14 55.87 53 56.54 53"/><polygon points="57.21 53 95.69 91.47 95.35 91.81 56.54 53 57.21 53"/><polygon points="57.88 53 96.02 91.14 95.69 91.47 57.21 53 57.88 53"/><polygon points="58.56 53 96.36 90.8 96.02 91.14 57.88 53 58.56 53"/><polygon points="59.23 53 96.69 90.46 96.36 90.8 58.56 53 59.23 53"/><polygon points="59.9 53 97.03 90.13 96.69 90.46 59.23 53 59.9 53"/><polygon points="60.58 53 97.37 89.79 97.03 90.13 59.9 53 60.58 53"/><polygon points="61.25 53 97.7 89.45 97.37 89.79 60.58 53 61.25 53"/><polygon points="61.92 53 98.04 89.12 97.7 89.45 61.25 53 61.92 53"/><polygon points="62.59 53 98.38 88.78 98.04 89.12 61.92 53 62.59 53"/><polygon points="63.27 53 98.71 88.45 98.38 88.78 62.59 53 63.27 53"/><polygon points="63.94 53 99.05 88.11 98.71 88.45 63.27 53 63.94 53"/><polygon points="64.61 53 99.39 87.77 99.05 88.11 63.94 53 64.61 53"/><polygon points="65.28 53 99.72 87.44 99.39 87.77 64.61 53 65.28 53"/><polygon points="65.96 53 100.06 87.1 99.72 87.44 65.28 53 65.96 53"/><polygon points="66.63 53 100.39 86.76 100.06 87.1 65.96 53 66.63 53"/><polygon points="67.3 53 100.73 86.43 100.39 86.76 66.63 53 67.3 53"/><polygon points="67.97 53 101.07 86.09 100.73 86.43 67.3 53 67.97 53"/><polygon points="68.65 53 101.4 85.75 101.07 86.09 67.97 53 68.65 53"/><polygon points="69.32 53 101.56 85.24 101.56 85.59 101.4 85.75 68.65 53 69.32 53"/><polygon points="69.99 53 101.56 84.57 101.56 85.24 69.32 53 69.99 53"/><polygon points="70.67 53 101.56 83.9 101.56 84.57 69.99 53 70.67 53"/><polygon points="71.34 53 101.56 83.22 101.56 83.9 70.67 53 71.34 53"/><polygon points="72.01 53 101.56 82.55 101.56 83.22 71.34 53 72.01 53"/><polygon points="72.68 53 101.56 81.88 101.56 82.55 72.01 53 72.68 53"/><polygon points="73.36 53 101.56 81.21 101.56 81.88 72.68 53 73.36 53"/><polygon points="74.03 53 101.56 80.53 101.56 81.21 73.36 53 74.03 53"/><polygon points="74.7 53 101.56 79.86 101.56 80.53 74.03 53 74.7 53"/><polygon points="75.37 53 101.56 79.19 101.56 79.86 74.7 53 75.37 53"/><polygon points="76.05 53 101.56 78.52 101.56 79.19 75.37 53 76.05 53"/><polygon points="76.72 53 101.56 77.84 101.56 78.52 76.05 53 76.72 53"/><polygon points="77.39 53 101.56 77.17 101.56 77.84 76.72 53 77.39 53"/><polygon points="78.06 53 101.56 76.5 101.56 77.17 77.39 53 78.06 53"/><polygon points="78.74 53 101.56 75.83 101.56 76.5 78.06 53 78.74 53"/><polygon points="79.41 53 101.56 75.15 101.56 75.83 78.74 53 79.41 53"/><polygon points="80.08 53 101.56 74.48 101.56 75.15 79.41 53 80.08 53"/><polygon points="80.75 53 101.56 73.81 101.56 74.48 80.08 53 80.75 53"/><polygon points="81.43 53 101.56 73.13 101.56 73.81 80.75 53 81.43 53"/><polygon points="82.1 53 101.56 72.46 101.56 73.13 81.43 53 82.1 53"/><polygon points="82.77 53 101.56 71.79 101.56 72.46 82.1 53 82.77 53"/><polygon points="83.45 53 101.56 71.12 101.56 71.79 82.77 53 83.45 53"/><polygon points="84.12 53 101.56 70.44 101.56 71.12 83.45 53 84.12 53"/><polygon points="84.79 53 101.56 69.77 101.56 70.44 84.12 53 84.79 53"/><polygon points="85.46 53 101.56 69.1 101.56 69.77 84.79 53 85.46 53"/><polygon points="86.14 53 101.56 68.43 101.56 69.1 85.46 53 86.14 53"/><polygon points="86.81 53 101.56 67.75 101.56 68.43 86.14 53 86.81 53"/><polygon points="87.48 53 101.56 67.08 101.56 67.75 86.81 53 87.48 53"/><polygon points="88.15 53 101.56 66.41 101.56 67.08 87.48 53 88.15 53"/><polygon points="88.83 53 101.56 65.73 101.56 66.41 88.16 53 88.83 53"/><polygon points="97.29 53 101.56 57.27 101.56 65.73 88.83 53 97.29 53"/><polygon points="101.56 57.27 97.29 53 101.56 53 101.56 57.27"/></g></svg>