<?xml version="1.0" encoding="utf-8"?><svg id="Layer_1" data-name="Layer 1" xmlns="http://www.w3.org/2000/svg" viewBox="0 0 100 100"><title>The fusion portal</title><path d="M24.93,7.27a2.45,2.45,0,0,0-3.22,0l-6.7,6v-.78a1.67,1.67,0,0,0-3.34,0v3.77L8.9,18.76a1.67,1.67,0,0,0,2.22,2.49L23.34,10.31,35.56,21.25a1.66,1.66,0,0,0,1.64.35,1.64,1.64,0,0,0,1.11-1.25,1.68,1.68,0,0,0-.53-1.59Z"/><path d="M33.34,23.34A1.67,1.67,0,0,0,31.67,25V36.67H15V25a1.67,1.67,0,1,0-3.34,0V37.73A2.31,2.31,0,0,0,14,40H32.67A2.3,2.3,0,0,0,35,37.72V25A1.66,1.66,0,0,0,33.34,23.34Z"/><path d="M23.34,43.33A11.67,11.67,0,1,0,35,55,11.68,11.68,0,0,0,23.34,43.33ZM15,55a8.35,8.35,0,0,1,6.66-8.17v7.22l-6.16,3.7A8.06,8.06,0,0,1,15,55Zm2.21,5.61,5.86-3.51,4.85,4.84A8.26,8.26,0,0,1,17.22,60.61Zm13.06-1L25,54.31V46.83a8.31,8.31,0,0,1,5.27,12.75Z"/><path d="M100,77.42V9.25A8.83,8.83,0,0,0,91.66,0H8.34A8.83,8.83,0,0,0,0,9.25V77.42a8.84,8.84,0,0,0,8.33,9.24H35V90H28.34a6.67,6.67,0,0,0-6.67,6.67v1.66A1.67,1.67,0,0,0,23.34,100H76.66a1.67,1.67,0,0,0,1.67-1.67V96.66A6.67,6.67,0,0,0,71.66,90H65V86.66H91.66A8.84,8.84,0,0,0,100,77.42ZM71.66,93.32A3.34,3.34,0,0,1,75,96.66H25a3.34,3.34,0,0,1,3.33-3.34ZM38.34,90V86.66H61.66V90Zm53.32-6.66H8.34a5.53,5.53,0,0,1-5-5.91V73.33H96.66v4.09A5.53,5.53,0,0,1,91.66,83.33Zm5-74.08V70H3.34V9.25a5.53,5.53,0,0,1,5-5.91H91.66A5.53,5.53,0,0,1,96.66,9.25Z"/><path d="M50,8.34a1.67,1.67,0,0,0-1.91-1.65,1.76,1.76,0,0,0-1.42,1.78V33.29a0,0,0,0,0,0,.05H89.86a1.75,1.75,0,0,0,1.78-1.43A1.67,1.67,0,0,0,90,30S90,30,90,30V24.35a2.68,2.68,0,0,0-2.67-2.68H82.67A2.68,2.68,0,0,0,80,24.35V30a0,0,0,0,1,0,0H76.71a0,0,0,0,1,0,0V19.56a2.9,2.9,0,0,0-2.88-2.89H69.55a2.9,2.9,0,0,0-2.89,2.89V30a0,0,0,0,1,0,0H63.38a0,0,0,0,1-.05,0V11.72A3.38,3.38,0,0,0,60,8.34H56.71a3.39,3.39,0,0,0-3.38,3.38V30a0,0,0,0,1,0,0H50.05a0,0,0,0,1,0,0ZM60,30H56.71a0,0,0,0,1,0,0V11.72s0-.05,0-.05H60a.05.05,0,0,1,0,.05V30A0,0,0,0,1,60,30Zm13.33,0H70a0,0,0,0,1,0,0V20.05a0,0,0,0,1,0,0h3.24a0,0,0,0,1,0,0V30A0,0,0,0,1,73.28,30Zm13.38,0H83.38a0,0,0,0,1,0,0V25.05a0,0,0,0,1,0,0h3.23a0,0,0,0,1,0,0V30Z"/><path d="M90,63.33H50V59l5.49-5.49a1.7,1.7,0,0,1,2.35,0l2,2a5,5,0,0,0,7.06,0l7-7a1.68,1.68,0,0,1,2.35,0l2,2a5,5,0,0,0,7.06,0l6-6a1.67,1.67,0,0,0-2.36-2.35l-6,6a1.67,1.67,0,0,1-2.36,0l-2-2a5.12,5.12,0,0,0-7.07,0l-6.95,7a1.67,1.67,0,0,1-2.36,0l-1.95-2a5.12,5.12,0,0,0-7.07,0L50,54.31V41.67a1.67,1.67,0,1,0-3.33,0v25H90a1.67,1.67,0,1,0,0-3.33Z"/></svg>