<?xml version="1.0" encoding="utf-8"?><svg xmlns="http://www.w3.org/2000/svg" xmlns:xlink="http://www.w3.org/1999/xlink" viewBox="0 0 400 400"><defs><style>.cls-1{fill:#0093d2;}.cls-2{fill:#c2d500;}.cls-3{fill:#ffc629;}.cls-4{fill:none;}.cls-5{isolation:isolate;}.cls-6{clip-path:url(#clip-path);}.cls-7{opacity:0.1;}.cls-8{clip-path:url(#clip-path-2);}.cls-9{clip-path:url(#clip-path-3);}.cls-10{clip-path:url(#clip-path-4);}.cls-11{fill:#f2f2f2;}.cls-12{opacity:0.36;mix-blend-mode:multiply;}.cls-13{fill:#2394e0;}.cls-14{clip-path:url(#clip-path-5);}.cls-15{fill:#f26322;}.cls-16{fill:#9c5c8f;}.cls-17{fill:#e0262c;}.cls-18{fill:#d50057;}</style><clipPath id="clip-path"><circle class="cls-1" cx="200" cy="-222.11" r="200"/></clipPath><clipPath id="clip-path-2"><circle class="cls-2" cx="200" cy="622.11" r="200"/></clipPath><clipPath id="clip-path-3"><circle class="cls-3" cx="200" cy="200" r="200"/></clipPath><clipPath id="clip-path-4"><circle class="cls-4" cx="200" cy="199.99" r="200"/></clipPath><clipPath id="clip-path-5"><circle class="cls-4" cx="200" cy="200.01" r="200"/></clipPath></defs><title>4Artboard 1 copy 16</title><g class="cls-5"><g id="Layer_1" data-name="Layer 1"><circle class="cls-1" cx="200" cy="-222.11" r="200"/><g class="cls-6"><g class="cls-7"><circle class="cls-1" cx="234.97" cy="-233.88" r="276.69"/></g></g><circle class="cls-2" cx="200" cy="622.11" r="200"/><g class="cls-8"><circle class="cls-2" cx="234.97" cy="610.33" r="276.69"/></g><circle class="cls-3" cx="200" cy="200" r="200"/><g class="cls-9"><circle class="cls-3" cx="234.97" cy="188.23" r="276.69"/></g><g class="cls-10"><circle class="cls-1" cx="106.96" cy="199.99" r="148.7"/><path class="cls-11" d="M43.32,189.48c-.16.12.38.87,0,1.43s-1,.32-1.25.78.37.74.36,1.49-.71,1-1,2a3.52,3.52,0,0,0,.18,1.78c.64,2.55,1,3.84,1.31,4.11a3.35,3.35,0,0,0,3.64.06c1.57-1,1.68-3,1.73-3.75C48.59,192.74,43.72,189.21,43.32,189.48Z"/><path class="cls-11" d="M86.86,202.51c.58-.41,1.5,1,3.81,1.59,2.61.71,3.22-.55,5,.24,1.47.66,1.2,1.59,4.13,4.45,1.25,1.23,1.21,1,2,1.83,1.88,2.09,2.46,4,3.26,3.89.39-.06.3-.53.79-.8.68-.36,1.49.21,5.49,2.86.1.07.43.34,2,1.51.93.7,1.19.89,1.27,1.28s0,.54-.71,2c-.58,1.23-.66,1.43-.56,1.59.31.47,1.64-.4,2.46.24.37.29.47.74.64,1.59.26,1.27-.06,1.45.16,1.9.7,1.44,4.39.43,5,1.83.18.4-.1.51.08,1.27.29,1.18,1.08,1.48,1,2-.18.73-1.93.56-2.07,1.19s1.78,1.23,1.75,2.22c0,.8-1.27.88-1.75,2.15-.39,1,.14,1.74-.24,2s-1.42-.86-3.65-1.83c-1.1-.48-1.14-.31-2.07-.72a12.37,12.37,0,0,1-3.81-2.94,42.37,42.37,0,0,1-3.58-4.05,40.92,40.92,0,0,1-3.09-4.37c-1.29-2.1-1.28-2.57-2.23-3.41-1.35-1.2-2.24-1-2.78-2.15s.09-1.54-.48-3a4.83,4.83,0,0,0-1.35-2c-1.14-1-1.84-.53-2.62-1.35s-.24-1.65-1-3.1a6.47,6.47,0,0,0-2.3-2.23c-2-1.36-2.79-1-3.74-2.06S86.27,202.93,86.86,202.51Z"/><path class="cls-11" d="M120.21,225.12c.33-.34,1-.82,1.46-.6s.23.54.6,1.64a4.33,4.33,0,0,0,.71,1.55c.67.77,1.45.69,1.52,1.19a.83.83,0,0,1-.62.83c-.38.07-.71-.28-1.13-.74-.65-.7-.53-.91-.93-1.28-.84-.8-1.85-.31-2.17-.93S119.85,225.49,120.21,225.12Z"/><path class="cls-11" d="M127.33,227.71c-.42,0-.74.35-1.1.77s-1,1.12-.71,1.7a1.45,1.45,0,0,0,1.6.66,1.71,1.71,0,0,0,1.29-1.7C128.38,228.48,127.9,227.74,127.33,227.71Z"/><path class="cls-11" d="M116.67,216.56a.73.73,0,0,0-.3.72c.06.54.72,1,1.07.83s.34-.53.27-.83C117.59,216.79,117,216.4,116.67,216.56Z"/><path class="cls-11" d="M116.79,220.23a1,1,0,0,0,.18,1,1,1,0,0,0,1.37.21,1,1,0,0,0,0-1.43A1,1,0,0,0,116.79,220.23Z"/><path class="cls-11" d="M114.7,217.49c-.19.13-.19.52,0,.77s.63.44.84.27a.58.58,0,0,0,.06-.62C115.41,217.55,114.93,217.33,114.7,217.49Z"/><path class="cls-11" d="M116.19,222.11c-.17.16-.06.49-.06.5a.76.76,0,0,0,1,.45.53.53,0,0,0,.3-.51A.9.9,0,0,0,116.19,222.11Z"/><path class="cls-11" d="M127.49,207a.94.94,0,0,0,.8,1.63,1,1,0,0,0,.55-1.47A1,1,0,0,0,127.49,207Z"/><path class="cls-11" d="M122.29,209.35c-.57.37-.36,1.61,0,1.7s.45-.28.59-.47.62-.81.36-1.15A.73.73,0,0,0,122.29,209.35Z"/><path class="cls-11" d="M120.1,241.8c.47.37,1.39-.7,2.31-.32.38.16.72.56.67.87s-.7.52-.67.68,1.61-.29,3.1.4c.54.25,1.16.71,1.31.55s-.08-.25,0-.35c.19-.27,1.25.62,2.3.31.4-.11.32-.26.8-.43a3.46,3.46,0,0,1,2.1.08,6.24,6.24,0,0,1,1.67.59c.87.47.84.73,1.47,1a4.36,4.36,0,0,0,2.22.12,19.82,19.82,0,0,1,2.55-.31c.88,0,.8.23,1.7.23a10.18,10.18,0,0,1,2,0c.19,0,.08,0,.91.24,1.4.36,1.59.35,1.75.32.56-.1.53-.39,1.15-.52s1.32,0,1.47.32-.51.94-.39,1.07.93-.26,1.5-.95c.3-.36.64-.76.52-1.15a1.35,1.35,0,0,0-1.63-.6c-.32.13-.3.33-.75.56-.07,0-.81.39-1.11.12s0-.54-.2-.84-.94-.3-1.31-.27c-2.08.16-3.42.27-3.66-.16s.27-1.09.88-1.47c1.17-.75,2.78,0,2.82-.2a4.09,4.09,0,0,0-1.63-.68,7.7,7.7,0,0,0-1.51-.27c-1.57-.12-1.64.45-2.74.23-.95-.18-1.26-.66-2.07-.51-.19,0-.48.11-.63,0s.06-.69-.12-.84-.6.11-.88.36-.33.57-.63.91a2.12,2.12,0,0,1-.92.6c-.93.34-1.32-.36-2.66-.32-.7,0-.75.22-1.86.28s-1.28-.11-1.39-.24c-.33-.37.06-.84-.16-1.31s-1.29-.51-3.1-.71c-2.38-.27-3.74-.78-4-.24-.16.27.12.51-.08.91s-.85.41-1.12.92A1,1,0,0,0,120.1,241.8Z"/><path class="cls-11" d="M152.12,244.5c-.47-.2-1.3.4-1.27.83,0,.23.27.3.32.64s-.14.43-.08.59c.16.47,1.95.52,2.14,0,.08-.2-.17-.31-.59-1.15C152.31,244.78,152.33,244.59,152.12,244.5Z"/><path class="cls-11" d="M154.58,244.62c-.1,0-.75.14-.91.67a1.1,1.1,0,0,0,.52,1.16,1.59,1.59,0,0,0,1.19.08,1.23,1.23,0,0,0,.83-.36.87.87,0,0,0,.12-.84c-.13-.29-.41-.4-.83-.55A1.67,1.67,0,0,0,154.58,244.62Z"/><path class="cls-11" d="M156.37,243.59c-.05,0,.2.32.56.91s.44.85.59.83.33-.4.28-.43-.86.64-.72,1,.5.26.76.24c.5,0,.61-.35,1.11-.56.84-.35,1.49.1,1.67-.2s-.2-.72-.44-1a2.22,2.22,0,0,0-1.51-.56c-.71,0-.88.37-1.43.24S156.43,243.53,156.37,243.59Z"/><path class="cls-11" d="M159.94,247.48c.06-.38,1.18-.61,2.07-.52a3.89,3.89,0,0,1,1.39.44,4.67,4.67,0,0,1,1.35,1c.33.37.85,1,.68,1.27s-1.17.35-1.79-.12-.38-.78-.84-1.07a2.26,2.26,0,0,0-2.1.16c0,.05.47.08.52,0S159.88,247.92,159.94,247.48Z"/><path class="cls-11" d="M149.42,240.77c-.28.08-.58.18-.6.35,0,.33,1,1,1.55.64a.81.81,0,0,0,.36-.95C150.49,240.42,149.53,240.73,149.42,240.77Z"/><path class="cls-11" d="M163.12,243.86c-.37.1-.36.24-1,.48s-.82.2-.83.32.63.48,1.27.63a7.12,7.12,0,0,0,3.21-.12c1.18-.21,1-.26,2.59-.55,1.21-.23,2.26-.4,2.26-.4.82-.13,1-.15,1.35-.24a12.55,12.55,0,0,0,1.87-.67c1.71-.68,2.8-.8,2.78-.92a3.51,3.51,0,0,0-1.59.08c-1.26.27-1.19.66-2,.72s-1.43-.28-2.42-.16a2.36,2.36,0,0,0-.52.12,4.52,4.52,0,0,0-.91.59,2.4,2.4,0,0,1-.75.4c-.61.17-.82-.17-1.63-.08-.38.05-.33.12-.72.16a4.39,4.39,0,0,1-1.43-.16C163.4,243.83,163.31,243.82,163.12,243.86Z"/><path class="cls-11" d="M170.07,250.82c.47.41,2-.26,2-.84,0-.3-.4-.57-.71-.63a1.2,1.2,0,0,0-1.39,1A.55.55,0,0,0,170.07,250.82Z"/><path class="cls-11" d="M167.49,249.62a.7.7,0,0,0-.71.72c.08.37.88.54,1.11.28A.73.73,0,0,0,167.49,249.62Z"/><path class="cls-11" d="M181.43,242.27c-.23-.11-.48.32-1.23.68a5.6,5.6,0,0,1-1.78.44c-.88.11-1.16,0-1.43.28s-.09.66-.36,1c-.54.72-1.91-.08-2.78.71a3,3,0,0,0-.68,1.23c0,.17-.17.63-.28,1.08s-.13.58-.27.71c-.32.29-.83.15-.84.2a2.07,2.07,0,0,0,1.51.28,3.54,3.54,0,0,0,2.07-1.39c.52-.64.37-.78.87-1.31A8.46,8.46,0,0,1,178,245a18,18,0,0,1,1.87-1c.89-.34,1.39-.31,1.62-.75S181.65,242.38,181.43,242.27Z"/><path class="cls-11" d="M181.32,239.77c-.15-.09-.41.45-1.16.68-.53.16-.64,0-1.15.12a2.26,2.26,0,0,0-1.23,1.07c-.12.21-.37.73-.24.83s.6-.54,1.55-.87,1.18,0,1.67-.36S181.49,239.88,181.32,239.77Z"/><path class="cls-11" d="M185.25,241.44a1.1,1.1,0,0,0-1.63.16.65.65,0,0,0,.12.67,1,1,0,0,0,1.55-.19A.67.67,0,0,0,185.25,241.44Z"/><path class="cls-11" d="M164.08,234.77a1.37,1.37,0,0,1-.56,1,1.31,1.31,0,0,1-1.47-.32c-.48-.52-.13-1.19-.08-3.06,0-1.13.07-2.51-.48-2.74s-1.3.93-1.58.76c-.5-.3,2-3.48,2.46-8,.14-1.52,0-2.53.67-4a6.65,6.65,0,0,1,2.39-2.82,5.86,5.86,0,0,1,3.65-1c1.45.13,1.76.84,3.26.79a5.37,5.37,0,0,0,2.22-.59c1.75-.88,2.41-2.34,2.78-2.15.22.11.16.69,0,1.08-.21.72-.77,1.26-2.34,2.14a11.05,11.05,0,0,1-3.3,1.51,24.77,24.77,0,0,1-4.88-.56c-1.19-.18-1.68-.27-2.19,0-1,.65-1,2.32-1,2.66,0,1.16.49,2.84,1.47,3.06.54.13.71-.31,1.95-.91,1.76-.86,2-.24,4.21-1.11.66-.26,1.13-.52,1.66-.32s1,.82.88,1.19-.85.12-2.07.6a6.1,6.1,0,0,0-2.42,1.51,1.37,1.37,0,0,1-.72.51c-.52.12-.87-.28-1.11-.12s-.2.73,0,1.16c.3.63.79.56,1.67,1.43.42.41.77.76.76,1.23,0,.27-.15.35-.24.83a1.65,1.65,0,0,0,0,.95c.26.69,1.32.55,1.59,1.32a.69.69,0,0,1,0,.43c-.23.63-1.77.27-2.11,1-.17.35.14.63-.08.95a1,1,0,0,1-1.27.2c-.46-.32-.37-1.16-.32-1.67.09-.86.39-1.18.2-1.43s-1.12.17-1.59-.2c-.75-.59.49-2.79-.12-3.22-.35-.24-1.18.21-1.67.76a4.1,4.1,0,0,0-.71,3.06C163.7,232.46,164.37,233.16,164.08,234.77Z"/><path class="cls-11" d="M171,232.42a1.54,1.54,0,0,0-1,.92c-.06.12-.6,1.13-.11,1.75a.94.94,0,0,0,.63.35c.94.06,2.1-1.71,1.63-2.54A1.16,1.16,0,0,0,171,232.42Z"/><path class="cls-11" d="M181,226.7a1.31,1.31,0,0,0-.92.48,1.25,1.25,0,0,0,.16,1.27,1.71,1.71,0,0,0,2.15.52,1.54,1.54,0,0,0,.75-1.83C182.74,226.35,181.25,226.65,181,226.7Z"/><path class="cls-11" d="M135.16,214c-.37-.16-2.49-1.07-3.42-.32s.21,2.07-.24,4.93c-.35,2.23-1.26,3.07-.71,3.89.65,1,2.28.33,2.86,1.35.4.71-.26,1.25,0,2.86.13.82.23,1.47.71,1.83,1.16.86,3.39-.75,3.9-.08.26.35-.29.86,0,1.35.49.86,2.83.52,2.86.24s-.55-.18-.56-.4c0-.46,2.49-1.29,3.1-.55.36.44-.15,1.19.24,1.51s1-.3,1.59,0,.5,1,.95,1.11,1-.92,1.43-.8.36,1.37.71,1.43.87-1.87,1.67-1.9c.6,0,.94,1.06,1.35,1s.16-.76.64-1.67.9-.78,1-1.35c.23-1-1.09-1.69-.79-2.54.18-.52.72-.39,1-1s-.19-1.22.16-1.83.69-.33,1.51-.87a3.76,3.76,0,0,0,1.43-1.67c.24-.62,0-.79.08-2.47s.3-2,.39-2.06c.45-.34.92.05,1.83-.32.21-.08.94-.38,1-.79s-.74-.52-1.67-1.35c-.42-.38-1.38-1.24-1.27-2.15.07-.58.52-.79.39-1.11-.21-.53-1.6-.31-1.66-.64s1.47-.6,1.66-1.51c.13-.6-.46-.94-.24-1.43s.93-.31,1.36-.95a1.71,1.71,0,0,0,.23-1c0-.83-.56-1.17-.39-1.43s.61,0,1.59-.16a1.44,1.44,0,0,0,1-.48,1,1,0,0,0,.08-.87c-.39-.81-2,0-3.34-.95-.35-.26-.09-.21-1.59-2.15a3.44,3.44,0,0,1-.63-1c-.27-.73-.15-1.31-.32-1.35s-.22.38-.72.87-.67.44-.71.72.33.55.24.71-.65-.14-1.12.08c-.24.11-.36.33-.79,1.51s-.43,1.28-.56,1.43c-.62.73-1.56.45-1.74.95s.9,1.27.71,1.59-1.45-.49-2.7-.08a4,4,0,0,0-2.06,2.23s.64-.87.63-.88a9.62,9.62,0,0,1-2.22,2.55c-1.31,1-1.62.58-2.94,1.66-.93.76-1.27,1.37-2,1.35s-1-.65-1.43-.47c-.09,0-.4.22-.4,2s.31,2.42,0,2.63S136.4,214.57,135.16,214Z"/><path class="cls-11" d="M174.84,223.57c-.21-.27,0-1,.52-1.35s1-.33,4.17.55c2,.57,2.19.68,2.18.72a11.75,11.75,0,0,0-4.76-.24C175.89,223.48,175.09,223.88,174.84,223.57Z"/><path class="cls-11" d="M183.9,220.9a.76.76,0,0,0-.16.8,1,1,0,0,0,1.23.24c.35-.19.63-.62.52-.92A1.11,1.11,0,0,0,183.9,220.9Z"/><path class="cls-11" d="M183,218.12a.88.88,0,0,0-.55,1.2.87.87,0,0,0,1.19.35A.78.78,0,0,0,184,219,.91.91,0,0,0,183,218.12Z"/><path class="cls-11" d="M185.05,210.5c-.15-.06-.55.72-1,1.51-.61,1.17-.55,1.36-.48,1.43s.44,0,.63-.08.4-.43.6-1.39S185.16,210.54,185.05,210.5Z"/><path class="cls-11" d="M186.36,209.43c-.22-.11-.92.38-.79.83a.56.56,0,0,0,.59.4C186.53,210.54,186.61,209.55,186.36,209.43Z"/><path class="cls-11" d="M186.36,211.69c-.34.06.07,1.8-.79,2.34a5.06,5.06,0,0,0-1,.64,1.37,1.37,0,0,0-.32.32,1.78,1.78,0,0,0-.15,1.31,8.41,8.41,0,0,0,.43,1.35,3.65,3.65,0,0,0,.48,1c.22.29.61.68.75.6s-.12-.72-.43-2c-.25-1-.49-2-.2-2.18s.83.74,1.51.59c.44-.1.77-.6.67-.79s-.78.05-1-.2.65-.84.68-1.75C187,212.29,186.57,211.65,186.36,211.69Z"/><path class="cls-11" d="M190.17,221.58c-.86-.32-2,.67-1.94,1.23s1.92,1.12,2.5.48a1.14,1.14,0,0,0,.2-.8A1.19,1.19,0,0,0,190.17,221.58Z"/><path class="cls-11" d="M189.34,225.19c-.46,0-.44.24-1.19.36a9.54,9.54,0,0,1-1.35,0,3.84,3.84,0,0,0-1.35.16c-.28.11-.59.23-.68.52a.7.7,0,0,0,.24.71c.4.32.86-.19,1.71,0s.7.55,1.27.56.85-.62,1.67-.64a2.08,2.08,0,0,1,1,.24c.43.25.56.57,1,.68.11,0,.39.08.48,0s-.48-1-.6-1.16C191.06,226,190.29,225.15,189.34,225.19Z"/><path class="cls-11" d="M195.81,217.49c-.34.13-.35.3-1.15.71-.38.2-.44.19-.55.32-.34.37-.15.75-.52,1.19-.11.13-.28.34-.48.32s-.27-.68-.75-1-1.17-.27-1.27,0,.06.25.51.83c.8,1,.71,1,.8,1,.66.51,1.17.17,1.86.75a3,3,0,0,1,.52.6c.58.77.45,1,.72,1.15.51.27,1.13-.58,2.78-.92.38-.07.69-.1.87.08a.74.74,0,0,1,0,.92c-.37.36-1.09-.27-1.75.12-.39.23-.28.55-.71.75s-.45,0-1.19,0-1.13,0-1.2.16.66,1.05,1.59,1.23c.72.14,1.22-.14,1.39.12.06.08.11.24-.23.91-.57,1.11-1.11,1.46-1,1.67s1,.24,1.67-.2c1.1-.7,1.13-2.21,1.51-2.18s.24,1.24,1,1.71c.37.21.67.11,1.15.12.65,0,1.09.18,3.06,1.27a27.34,27.34,0,0,1,2.82,1.63,5.9,5.9,0,0,1,1.83,3.17c.11.57.3,1.57-.24,2.07s-.94.06-1.59.52c-.45.32-.38.62-.95,1.54-.71,1.15-1.22,1.33-1.11,1.59.19.51,2.3.66,3.61-.39.83-.67.9-1.47,1.51-1.51.17,0,.47,0,1.55,1.31s1.77,2.09,1.51,2.54-1.07.25-1.07.24,2.34.22,3.37-1.07c.25-.32.17-.4.48-.76.7-.81,1.29-.58,1.95-1.23.38-.38.19-.48.91-1.79a4,4,0,0,1,.95-1.39,2.42,2.42,0,0,1,2.9.64c.44.58.07.87.48,1.82a4.18,4.18,0,0,0,2.23,2.15c.54.22.63.09,1.43.4,1,.36,1.33.74,1.5.59s0-.84-.39-1.31-.71-.34-1.11-.67c-.76-.63-.26-1.56-.92-3.5a10.75,10.75,0,0,0-.63-1.47c-.63-1.16-1.15-1.58-1.08-2.34a1.27,1.27,0,0,1,.36-.84c.33-.28.69-.14.91-.43a.84.84,0,0,0,0-.84c-.19-.41-.69-.53-1.07-.63-.94-.28-2.36-.68-2.86-1.51s.18-1.2-.2-2.07c-.3-.7-.88-.82-2.5-1.63-2.28-1.14-2.15-1.41-4.17-2.3-1.25-.55-2.34-.91-2.34-.91a15.7,15.7,0,0,1-2.07-.68c-1.32-.67-1.48-1.38-2.18-1.31a2,2,0,0,0-1.39,1.19c-.35.73,0,1.07-.32,1.51-.54.73-1.72.07-2.35.76s.15,1.44-.47,2.58c-.33.6-1,1.22-1.55,1.11-.32-.07-.49-.35-.95-1.19-.8-1.46-1.2-2.18-1.24-2.31a12.92,12.92,0,0,1-.19-3.33c0-.54,0-1-.28-1.23s-.65,0-1.47,0C196.83,217.84,196.55,217.2,195.81,217.49Z"/><path class="cls-11" d="M203.08,216.61a.81.81,0,0,0-.28,1,.82.82,0,0,0,.88.47.8.8,0,0,0,.71-.71A1,1,0,0,0,203.08,216.61Z"/><path class="cls-11" d="M190.37,216.1c-.17.21.07.75.44,1a1.37,1.37,0,0,0,.95.24c.48,0,1.15-.24,1.15-.52s-1.35-.69-1.66-.75S190.5,215.94,190.37,216.1Z"/><path class="cls-11" d="M204.39,219.47a1,1,0,0,0-.51,1,1.26,1.26,0,0,0,1.86.43.86.86,0,0,0,.16-.91A1.12,1.12,0,0,0,204.39,219.47Z"/><path class="cls-11" d="M231.92,222.41c-.31.21-.21,1.15.32,1.63.25.23.71.45.95.28s.18-.81,0-1.19S232.2,222.23,231.92,222.41Z"/><path class="cls-11" d="M227,227.62c.19-.33,1.07.36,2-.12.59-.3.67-.77,1.47-1,.31-.1.44-.08.64-.24.46-.38.34-1,.59-1.08s.39.24.44.48-.17.63-.4.92a3.17,3.17,0,0,1-.43.43c-.89.73-.62,1.93-1.39,2.39a1.68,1.68,0,0,1-1.28,0C227.52,229.1,226.74,228,227,227.62Z"/><path class="cls-11" d="M225.21,217.21a.7.7,0,0,0-.2.72.88.88,0,0,0,1.27.39.75.75,0,0,0,.08-.91A.81.81,0,0,0,225.21,217.21Z"/><path class="cls-11" d="M230.41,218c-.11.18.15.58.4.8.45.41.86.23,1.59.52s1.26,1,1.35.91-.24-.79-.84-1.35C232,218.07,230.61,217.74,230.41,218Z"/><path class="cls-11" d="M234.26,222.45c.3.65.32.92.4.92s.38-.78,0-1.31-.74-.58-.83-.48S234,221.85,234.26,222.45Z"/><path class="cls-11" d="M236.29,225.15c-.27.06-.25,1.21-.16,1.87.05.35.14,1,.36,1.07s.55-.65.55-1.31C237.06,225.94,236.54,225.1,236.29,225.15Z"/><path class="cls-11" d="M238.16,227.5c-.2,0-.44.69-.28,1.27.11.41.43.81.59.75s.13-.78.12-.87C238.55,228.18,238.36,227.49,238.16,227.5Z"/><path class="cls-11" d="M238.16,230.76c-.21.07-.21.79,0,1.35.13.3.41.72.59.67s.23-.6.12-1S238.36,230.69,238.16,230.76Z"/><path class="cls-11" d="M240.14,233.66c-.21.13-.16.66.08,1s.68.51.88.36.09-.6-.08-.88S240.35,233.52,240.14,233.66Z"/><path class="cls-11" d="M189.18,249.31c-.3-.11-.85.33-1,.87a1.14,1.14,0,0,0,.12.91c.5.75,2.22.76,3-.08.44-.46.59-1.19.39-1.35s-.33.06-1.27.32c-.49.14-.62.14-.75.08C189.35,249.89,189.45,249.4,189.18,249.31Z"/><path class="cls-11" d="M193.83,249c-.44.06-1.21.26-1.23.59,0,.18.2.37.39.44.42.15.71-.23,1-.08s.28.92.27,1a1.66,1.66,0,0,1-.39.92,2.49,2.49,0,0,1-1.71.63c-1.36.15-1.65-.25-2.3.08a5.87,5.87,0,0,0-1.08,1.15,8.63,8.63,0,0,0-1.07,1.47c-.34.69-.18.78-.56,1.47a8.6,8.6,0,0,1-.83,1.2,5.13,5.13,0,0,1-.87,1,4.14,4.14,0,0,1-1.08.48,3.85,3.85,0,0,1-1.9.39c-.47-.09-.39-.26-1.19-.63s-1.64-.47-1.63-.64.32-.21.35-.16-.47.66-1.15.92a2.52,2.52,0,0,1-1.31.12s.43-.13.48,0-1.33,1-1.31,1a1.82,1.82,0,0,0,.51-.32,2.56,2.56,0,0,1-1.35.32c-.22,0-.33-.1-.51,0a1,1,0,0,0-.52.59c-.09.28,0,.33,0,.76a1.67,1.67,0,0,1-.28.83,1.09,1.09,0,0,1-.51.44c-.33.12-.56,0-.68.12s0,.29,0,.48c0,.74-1.28,1.41-1.27,1.43a10.57,10.57,0,0,1,.91-.56,9.29,9.29,0,0,0-1.23,1.15c-.2.24-.36.47-.51.44s-.17-.47-.52-.68a.52.52,0,0,0-.4-.08c-.28.13-.24.84-.2,1.39.09,1.13.33,1.4.12,1.69a1.22,1.22,0,0,1-1.49.18,1.61,1.61,0,0,1-.53-2c.08,0,.28.12.3.29s-.56.54-1.61,1.25-1.21,1-1.2,1.2.33.32.48.71a1.62,1.62,0,0,1-.3,1.43c-.58.8-1.34.37-2.08,1.13s-.25,1.07-1,1.73c-.44.42-.66.32-1.25.83s-.52.83-1,1.14c-.83.59-1.55-.17-3,.24a5.82,5.82,0,0,0-1.73.89c-1,.62-1,.88-1.61,1.25-1.59,1-3.76.73-3.81.48s1-.56,1.07-.48a6.63,6.63,0,0,1-1.66,1.13c-.7.38-.84.38-1.37.66-2.06,1.06-2.12,2.24-3.52,2.44-.49.07-.88,0-1.19.3a1.8,1.8,0,0,0-.36,1.25,3.82,3.82,0,0,0-.18-1.91c-.09-.23-.21-.51-.42-.53a3.11,3.11,0,0,0-1.93,1.19,5.22,5.22,0,0,1-1.16,1.73v-.48c0,.57,1.3,1.43,1,2.36-.16.55.24,1.08-.24,1.43s-.4.21-.55.48c-.31.53.57,1.51.78,1.79.78,1,1.47,1,1.66,1.75s-.09,1.47-.52,1.58-.9-.38-1.14-.75c-.36-.56-.29-1.1-.47-1.11s-.36.32-.39.67c-.07.9,1.19,1.47,1,1.79s-.86.25-1.39-.12c-.83-.58-.7-1.82-1-1.83s-.53.61-.43,1.2.44.59,1.23,1.58c.58.73.43.73.79,1.08s.93.61,1.08,1.11c.06.22,0,.24,0,.55a2.78,2.78,0,0,0,.55,1.24c.74,1.05,1.21,1.1,1.19,1.51s-.69.47-.91,1.15a2.53,2.53,0,0,0,.36,1.75c.21.47.34.53.55,1.07a4.37,4.37,0,0,1,.32,1.11,3.38,3.38,0,0,1-.83,2.74c-.44.43-.73.38-1.43,1.07-.37.37-.68.68-.6.9.14.38,1.23-.07,2.33.59.44.27.41.44.77.6a3,3,0,0,0,2.44-.48,35.49,35.49,0,0,1,4.23-1.43,33.22,33.22,0,0,1,4.35-.95c1.26-.22,2.5-.49,3.76-.72a4.91,4.91,0,0,0,2-.59c1-.64,1-1.39,1.79-2.09s1.22-.49,2.8-.83c3.48-.76,3.75-1.87,6.79-2.27a6.66,6.66,0,0,0,1.79-.35c1.47-.56,1.52-1.3,2.68-1.67.81-.26.71.12,3.16.18,1.48,0,2.15-.09,2.62.41a2.85,2.85,0,0,1,.54,1.2c0,.16.06.5.12,1.19a11.13,11.13,0,0,1,.06,1.13c0,.25-.09.55-.18,1.07s-.11.53-.06.6c.2.27,1.24-.13,1.9-.48,2.74-1.42,3.75-4.28,4.12-4.11.21.1.11,1.22-.48,2.2-.94,1.55-2.59,1.89-2.47,2.27s.88.35,1.49.06.81-1,1-.9.28.77,0,1.2c-.14.19-.29.22-.72.65s-.31.38-.29.42.7-.18,1,.09.17.66.15.77c-.09.56-.47.66-.48,1.13,0,.08,0,.47.21.63.51.37,1.6-.95,2.38-.6.51.24.4.95.78,1s.75-1.06,2-2c.5-.38,1.25-.8,1.49-.59s-.27,1,0,1.25,1-.19,1.55-.6c.71-.56.63-.88,1.13-1.31.87-.72,1.68-.26,2.69-.71a4.08,4.08,0,0,0,1.84-2.51c1.57-4.09,7.3-6.48,12.75-14.83a38.06,38.06,0,0,0,3.28-6.32c.95-2.33,1.42-3.5,1.43-4.77,0-1.77-.59-2.9.12-4.52.23-.54.7-1.35.48-1.55s-.79.31-1,.12.55-1.16.3-2.33c-.09-.44-.24-.43-.3-.89-.09-.81.36-1,.24-1.61a2.56,2.56,0,0,0-1.25-1.43c-.5-.3-.81-.28-.89-.54s.39-.57.59-1.19c.27-.82-.39-1.14-.42-2.44,0-1,.35-1,.24-1.79-.13-1.06-.78-1.27-.65-2s.72-.62,1-1.43a2.07,2.07,0,0,0-.3-2,1.45,1.45,0,0,0-1.31-.6c-.34.1-.39.38-.53.36-.43-.07-.87-2.86-.12-5.9.41-1.7,1.08-3,.53-3.45a.75.75,0,0,0-.77-.12c-.49.22-.49,1.07-.6,1.84s-.2.61-1.13,3.16a35.14,35.14,0,0,0-1.49,4.53c-.44,2.31,0,2.74-.65,4.23a18,18,0,0,1-1.61,2.38c-1,1.39-.73.79-2,2.39-.61.79-.87,1.17-1.19,1.13s-.35-.89-1-1.55a4.12,4.12,0,0,0-3-.77s.39.12.47,0-.53-1.25-1.55-1.73c-1.18-.56-2.1,0-2.56-.66a1.49,1.49,0,0,1-.12-1.19c.17-.85.7-1.05,1.73-2.44a4.52,4.52,0,0,0,.84-1.37c.19-.84-.19-1.32.17-1.91.22-.35.38-.24.9-.71.23-.21,1.18-1.09,1-1.85-.1-.32-.41-.64-.65-.6-.43.08-.23,1.14-.84,1.61-.82.64-2.65-.16-2.62-.47s1.56-.45,1.61-.3a2.29,2.29,0,0,1-2.27.59,7.13,7.13,0,0,1-.95-.71c-.3-.27-.48-.47-.65-.42s-.17.47-.36.54c-.35.12-.74-1.11-1.79-1.43A2.09,2.09,0,0,0,193.83,249Z"/><path class="cls-11" d="M206.4,260.3c-.39-.07-1,.52-.86,1.1s.67.91,1,.78.44-.84.3-1.29C206.84,260.79,206.7,260.35,206.4,260.3Z"/><path class="cls-11" d="M202.59,254.67c-.27,0-.56.37-.66.68s-.1.82.12.93.81-.28.89-.78C203,255.16,202.84,254.71,202.59,254.67Z"/><path class="cls-11" d="M193.55,312.42c-.09-.08-.52.32-1.69.88a1.58,1.58,0,0,1-1.07.24c-.34-.09-.37-.29-.62-.32s-.55.18-1.45,1.31-1,1.45-.93,1.65.37.21.44.22c.72.08,1-.8,2.08-1.47s1.32-.26,2.17-.92S193.67,312.53,193.55,312.42Z"/><path class="cls-11" d="M185.74,306.9c-.07-.08-.2,0-.87.16s-1,.15-1.05.34a.61.61,0,0,0,.14.67c.35.34,1,0,1.07,0C185.57,307.74,185.89,307.07,185.74,306.9Z"/><path class="cls-11" d="M153.91,193.66c-.09,0-.12.33-.06.35s.58-1.34,1.73-2.92c.65-.9.64-.63,1.43-1.67,1.28-1.68,1.32-2.41,2.2-2.74.68-.24,1.17,0,1.49-.41a1.35,1.35,0,0,0,.06-1.31c-.12-.26-.22-.24-.36-.48a1.55,1.55,0,0,1,.12-1.79,1.19,1.19,0,0,1,1.31-.18c.81.48.93,2.45.06,3.4s-1.76.4-2.5,1.43c-.19.26-.44.74-.66,1.13-.3.57-.32.66-.53,1a9.69,9.69,0,0,1-.84,1.14,13.67,13.67,0,0,1-1,1.07c-1.36,1.39-1.09,3.62-1.53,3.63S154.11,193.61,153.91,193.66Z"/><path class="cls-11" d="M168.33,196.63c-.28-.11-.25-.73-.24-.95s.11-2,1.16-2.35c.4-.15.67,0,1.1-.27a2.05,2.05,0,0,0,.54-.6c.62-.91.51-1.28.89-1.49a1.23,1.23,0,0,1,1.34.24c.42.44.14,1,.51,1.25a.79.79,0,0,0,.92-.29c.26-.41-.12-1,.06-1.11s.48.34.69.24-.07-1.2.27-1.4.51.32,1.16.39,1.19-.15,1.34-.54-.67-1.11-.51-1.34,1.38,0,1.82.84a2.56,2.56,0,0,1,.24,1.13c0,.45-.11.46-.06.71.11.67.85.72.92,1.28s-.43.6-.36,1.11.51.54.54,1c0,.16,0,.28-.33.8-.5.89-.76,1.33-1,1.31-.39,0-.42-1.07-.84-1.1s-.55.46-.65.72a1.2,1.2,0,0,0-.06.8c.18.55.74.53.83,1,.05.2-.1.47-.38,1s-.53,1-.72.92-.12-.75-.5-.95-.59.23-1.17.27a1.9,1.9,0,0,1-1.75-1.2,3.11,3.11,0,0,1,.11-1.51c.19-1,.34-1.07.27-1.43-.15-.79-1.06-1.46-1.52-1.29-.18.07-.18.24-.8,1-.2.25-.3.36-.42.35-.3,0-.38-.72-.59-.71s-.35,1-.54.95-.15-.75-.54-.89-.55.15-.59.18a2.33,2.33,0,0,0-.6,1.34.67.67,0,0,1-.24.5A.37.37,0,0,1,168.33,196.63Z"/><path class="cls-11" d="M168,197.71a.71.71,0,0,0,.24,1,.74.74,0,0,0,.89-.3.5.5,0,0,0,.12-.39C169.16,197.65,168.28,197.38,168,197.71Z"/><path class="cls-11" d="M170.83,184.08s0,.86-.52,1.11a.64.64,0,0,1-.75-.07c-.19-.25,0-.73.32-1.28s.5-.7.51-1c0-.7-.88-1.5-1.39-1.35s-.39.71-.67.72-.51-.89-.84-.88-.57.58-.55,1.15c0,1,1,1.25,1,2.23,0,.64-.41,1.09-.24,1.23s.62-.43,1.23-.32a1.23,1.23,0,0,1,.88.8s.19.54,0,.79-.45,0-.68.2a1.16,1.16,0,0,0-.08,1.39c.29.45.72.32,1,.83.22.35.13.59.32.68s.92-.4,1.07-.56c.64-.64.61-1.15,1.35-2.3.34-.52.34-.41.48-.68a4.19,4.19,0,0,0-.12-3.57s0,.13,0,.36c-.08,1.17-1.32,1.5-1.9,2.78a5.74,5.74,0,0,0-.32,1.78,5,5,0,0,1-.24-2C170.72,185.1,170.87,184.09,170.83,184.08Z"/><path class="cls-11" d="M174.84,186.47a1,1,0,0,0-1,.79.92.92,0,0,0,.43.87,1,1,0,0,0,1.32-.23A1,1,0,0,0,174.84,186.47Z"/><path class="cls-11" d="M174.24,181.62c-.29.09-.43,1.24.12,1.83.19.2.27.13.44.31.52.57-.07,1.4.36,2s1.19.48,1.35.24-.17-.4-.52-1.15a3,3,0,0,1-.35-2.07c0-.17.12-.47.31-.51.38-.09,1,.93.88,1.11s-.38,0-.4-.12.66-.26.75-.64-.63-.58-.91-1.39.11-1-.24-1.59a1.75,1.75,0,0,0-.63-.59c-.69-.42-1.74-.53-2-.12s.11.84.32,1.11c.63.82,1.54.66,1.71,1.23a.78.78,0,0,1-.4.88C174.71,182.17,174.48,181.55,174.24,181.62Z"/><path class="cls-11" d="M170.17,178.94c-.17.21,0,.67.27,1.61.1.3.17.5.27.5s.19-.65.48-.71.3.23.83.59c.22.16.55.38.66.3s-.18-.71-.33-1c-.42-.81-.68-1.31-1.22-1.46A1,1,0,0,0,170.17,178.94Z"/><path class="cls-11" d="M166.87,178.76c-.42.19-.29,1.76.18,1.91.2.06.42-.16.47-.21a1,1,0,0,0,.09-1.25C167.44,179,167.08,178.66,166.87,178.76Z"/><path class="cls-11" d="M162,180a.68.68,0,1,0,.89.33A.68.68,0,0,0,162,180Z"/><path class="cls-11" d="M162.55,176.73c-.09.22.43.35.86,1.14.52.94.28,1.69.89,2.11a.67.67,0,0,0,.51.15c.5-.12.75-1.18.57-2a1.93,1.93,0,0,0-.42-.89C164.21,176.35,162.69,176.38,162.55,176.73Z"/><path class="cls-11" d="M168.77,179.24a.51.51,0,0,0-.21.71.46.46,0,0,0,.51.21.56.56,0,0,0,.09-.83A.39.39,0,0,0,168.77,179.24Z"/><path class="cls-11" d="M166.84,176.18a.5.5,0,0,0-.22.51.51.51,0,1,0,.95-.31A.52.52,0,0,0,166.84,176.18Z"/><path class="cls-11" d="M167.41,174.51c.29-.38.43-.57.6-.64a1.12,1.12,0,0,1,1.31.46c.23.5-.35,1.08-.1,1.33a.59.59,0,0,0,.64,0c.42-.24.26-.81.63-1a.78.78,0,0,1,.95.3c.16.32-.27.55-.21,1.05s.48.86,1,1.33a1.31,1.31,0,0,1,.54.73c0,.07,0,.3-.08.38s-.94-.33-1.39-.81-.47-.82-.88-1-.5,0-1-.17a2,2,0,0,1-.76-.48,1.6,1.6,0,0,1-.41-.8,2.89,2.89,0,0,1,.43,1.51c0,.1,0,.38-.1.4s-.24-.88-1-1.39c-.28-.2-.5-.23-.55-.44S167.13,174.88,167.41,174.51Z"/><path class="cls-11" d="M172.66,174.43a.75.75,0,0,0-.4.85c.11.52.82.84,1.13.64s.24-.58.14-.85S173,174.32,172.66,174.43Z"/><path class="cls-11" d="M166.18,174.29a11.88,11.88,0,0,1-1.19-2.2,6,6,0,0,1-.06-1.37,3.74,3.74,0,0,0,0-1c-.16-.63-.52-.73-.48-1.07s.46-.38,1.08-.86a2.86,2.86,0,0,0,1.22-1.7,2.35,2.35,0,0,0-.33-1.46c-.26-.43-.41-.36-.6-.72-.3-.59.07-.93-.12-1.78-.14-.66-.52-1.21-.68-1.17s0,.77-.33.93-.46-.14-.86-.33c-.78-.37-1.9-.45-2.33,0-.21.23-.19.58-.14,1.28.09,1.44.54,1.74.35,2.56s-.49.66-.47,1.2c0,.7.62,1,.44,1.63,0,.06-.11.36-.29.39s-.51-.67-.87-.65-.4.28-.48.5c-.18.54.27.84.57,1.73.38,1.12.07,1.84.63,2.77a.75.75,0,0,0,.38.36,1.26,1.26,0,0,0,1.17-.51c.28-.34.27-.62.41-.62s.54.53.42,1-.44.38-.6.77a1.36,1.36,0,0,0,.09,1c.48,1,2.13,1.21,2.39.83.16-.23-.23-.66,0-.86s.75.1.89-.09S166.26,174.43,166.18,174.29Z"/><path class="cls-11" d="M160,141.28c-1.15.53-1.55,1.86-1.84,2.86a5.72,5.72,0,0,0-.18,3.46c.42,1.36,1.5,2.61,2,2.44s.1-.86.29-2.68a16.18,16.18,0,0,1,.84-3.93c.45-1.24.87-1.8.59-2.15S160.54,141,160,141.28Z"/><path class="cls-11" d="M130,157.19c1.5-.55,3.29.95,3.43.72.05-.08-.12-.32-.24-.3-.29,0,.11,1.71-.56,3.63-.24.69-.4,1.12-.84,1.4s-.8.14-2.38.24c-1.14.08-1.33.19-1.61,0-.74-.51-.45-2-.42-2.23a4.87,4.87,0,0,1,1.22-2.18C129.17,157.74,129.47,157.37,130,157.19Z"/><path class="cls-11" d="M166.84,118.79a1.14,1.14,0,0,0-1.34.06,1.37,1.37,0,0,0,.8,1.88,1.11,1.11,0,0,0,1.16-1C167.5,119.18,166.88,118.82,166.84,118.79Z"/><path class="cls-11" d="M175.68,118.34c-.86-.07-2,.29-2.05.84s.81.65,1.55,1.87a14.15,14.15,0,0,1,.74,1.91c.52,1.29.78,1.93,1.05,1.94.48,0,.94-1.45,1.07-2.54a3.79,3.79,0,0,0-.66-3.21A2.74,2.74,0,0,0,175.68,118.34Z"/><path class="cls-11" d="M177.86,114.14a7.68,7.68,0,0,0-2,1.7c-.52.55-.54.65-.53.75.06.53,1.3,1.08,2.2.74.7-.26.57-.83,1.4-1.25s.86,0,1.88-.39c.7-.26.92-.53,1.37-.45a1.2,1.2,0,0,1,.83.63c.23.49-.16.8,0,1.34a1.31,1.31,0,0,0,1.11.89c.77,0,1.48-1,1.43-1.81-.07-1-1.3-1.57-1.14-1.85s.76-.12,1.28.18c.92.52,1,1.49,1.43,1.49.29,0,.52-.35,1-1s.54-1,.71-1c.42,0,.55,2,.84,2s.38-.77.38-1.49c0-.5-.09-.9,0-1s.35.4.54.35.45-1,.06-1.69c-.23-.41-.44-.35-.66-.72-.35-.62.05-1.12,0-1.91s-.65-.91-1.25-2.08c-.72-1.42-.11-1.84-.8-3.07a25.14,25.14,0,0,0-1.88-1.94c-1-1-1.51-1.5-1.73-1.4s-.16,1.09-.06,1.76a8.69,8.69,0,0,0,1,3.07c.71,1.25,1.29,1.56,1.13,2.14,0,.2-.12.19-1,1.26a6.52,6.52,0,0,1-.69.77c-.4.33-.61.34-1.28.81s-.6.5-.62.56c-.12.27,0,.43.05,1.1s.09,1-.08,1.14-.92.07-1.08,0c-.59-.19-.7-.53-1.1-.51s-.25.19-.71.39-.79.07-1.49.32C178.13,114,178,114.08,177.86,114.14Z"/><path class="cls-11" d="M179.47,118.07c-.54.32-.83.29-1,.6-.21.55.46,1.29.72,1.58s.62.68.83.6c.43-.18-.12-2,.39-2.21.35-.17.81.57,1.28.39s.51-.83.48-1.25c-.05-.61-.45-1.35-.92-1.37S180.67,117.38,179.47,118.07Z"/><path class="cls-11" d="M182.12,100.11c-.4-.23-.26-.65-.72-1.7-.36-.82-.65-1-.53-1.25.25-.52,1.86.09,2.11-.39s-.54-1-2.11-3c-.94-1.17-1-1.37-1-1.45.19-.27,1.85.38,3.24,1.45s1.74,1.94,2.77,1.94c.63,0,.94-.32,1.34-.09.58.34.72,1.49.33,1.79s-.67-.13-.92.09c-.41.35.35,1.56,0,1.88-.2.16-.62,0-.9-.15-.87-.4-.88-.93-1.54-1.22s-1.65-.2-1.85.26a1,1,0,0,0,.27,1c.36.44.84.43.83.59S182.63,100.41,182.12,100.11Z"/><path class="cls-11" d="M170.91,115.92c-.26.22.08,1.31.51,1.35a.7.7,0,0,0,.6-.71A.87.87,0,0,0,170.91,115.92Z"/><path class="cls-11" d="M171.5,120.41a.73.73,0,0,0-.43,1,.78.78,0,0,0,1.15.16C172.42,121.22,171.91,120.36,171.5,120.41Z"/><path class="cls-11" d="M67.17,153.93l0,0Z"/><path class="cls-11" d="M67.2,154l.07.11S67.24,154,67.2,154Z"/><path class="cls-11" d="M177.62,69.88a2.67,2.67,0,0,0,1.24-.07,147.25,147.25,0,0,0-25.81-11.22l-.25.13a5.52,5.52,0,0,1-2.15.56c-2.45.07-3-2-5.64-2.15-1.25-.06-1.18.42-2.54.32-1.61-.12-2.22-.82-4.05-1.43-1.38-.46-1.16-.11-3.58-.64-2.18-.47-3.16-.93-6.2-1.59-1.53-.33-1.79-.32-1.82-.23s1.58,1.29,3.49,1.9c1.51.49,2.55.5,2.54.72s-1.6.48-2.38.55a9,9,0,0,1-2.38,0c-1.51-.22-1.46-.72-3.58-1.43a10.31,10.31,0,0,0-3.41-.63c-.35,0-.3,0-1.43.08-1.42.07-2.12.1-2.7.08a8,8,0,0,1-2.94-.48c-.27-.11-.6-.27-1.2-.48,0,0-.64-.22-1.35-.39a29.28,29.28,0,0,0-7.78-.56c-3.27.24-3.13.72-7.15,1-1.17.1-2.33.29-3.5.32-2.1.06-3.34-.16-4,.64-.43.55-.27,1.21-.79,1.43-.28.11-.51,0-1.35-.24a11.37,11.37,0,0,0-1.59-.4,4,4,0,0,0-2.54.4c-.43.26-.56.5-.88.48-.58,0-1-.88-1.11-.8s.11.35,0,.56-.94.09-1.75.08a17,17,0,0,0-3.73,1.19,5.8,5.8,0,0,0-1.19.55A5.58,5.58,0,0,0,73,59c-.53-.08-1.4-.18-2.63-.4-.8-.14-1-.2-1-.32-.06-.41,2.46-1.06,2.94-1.19,3.54-.92,4.21-.35,6.83-1.27,1.07-.37,1.27-.58,3-1.19a26,26,0,0,0,2.78-1,20.23,20.23,0,0,0-3.57.39c-1.17.19-2.58.43-5,.92s-3.54.71-4.25.91c-2.89.82-2.39,1.12-4.85,1.75-.34.08-1.08.26-1.07.47,0,.38,2.36.42,2.38.84,0,.25-.84.55-1.58.71-2.2.49-3.3-.16-5.33,0a9.82,9.82,0,0,0-3,.8c-2.71,1.05-3.44,2.33-6,2.9-.08,0-1.83.39-1.95.08C50.52,63,55,61.28,56.88,60c-2.73,1-5.43,2-8.08,3.15a1.4,1.4,0,0,1,.12.35,1.61,1.61,0,0,1,0,.71c-.35,1.29-4.35,2.07-4.53,2.11-.49.09-.77.12-1,0a.75.75,0,0,1-.26-.56A149.21,149.21,0,0,0-7.67,105.26a3.09,3.09,0,0,0,.76-.17c1.22-.48,1.72-1.77,2.15-2.6.35-.68,1.57-1.84,4-4.17,2.29-2.18,5.38-4.84,5.57-4.64S2,97.08,2.15,97.22a24.32,24.32,0,0,0,3.9-3.07c.87-.77,1.67-1.52,2.12-1.28a.81.81,0,0,1,.3.81c-.18.94-1.93.68-3.19,2A7.89,7.89,0,0,0,4,98.44c-.72,2.11-.48,2.35-1.08,3.31a4.09,4.09,0,0,1-2.32,2.11,5,5,0,0,0-2,.51c-.28.18-.47.37-.59.3-.29-.17.55-1.6.18-1.94s-2.28,1-2.53,1.16a20.66,20.66,0,0,0-2.6,2.54c-1.34,1.38-1.3,1-2.65,2.41a21,21,0,0,0-3.48,4.7s-.76,1.39-.56,1.53,1.24-1.14,1.47-1-.19.71-.06.8.71-.68,1.67-1.41c.07-.06,1.37-1,1.57-.86s-.92,1.62-2.7,4.09c-2.9,4-4.35,6.06-4.61,6.64-.51,1.14-1.13,2.86-2.34,3.14-.06,0-.81.17-1-.12s.23-.79.16-.84-1.09,1.41-1.39,1.27-.12-.57.16-1.74a24.28,24.28,0,0,1,.88-2.86,148.8,148.8,0,0,0,.27,156c-.52-1.49-.94-2.8-1.27-3.88,0,0-1-11.94-3.81-12.15a2.54,2.54,0,0,1-1.46-.18c-1-.61-1-2.27-1-3a4.76,4.76,0,0,1,.33-1.94,4.64,4.64,0,0,1,.87-1.28c.88-1.1,0-3.13-1.05-6.08-.7-2-1.33-4-2.59-8-.13-.42-.51-1.64-.89-3-1.77-6.07-2.66-9.11-2.69-11.72,0-3.83,1-5,.55-8.18a8.33,8.33,0,0,1,0-3,14.19,14.19,0,0,1,1.19-3c.89-1.94,1.33-2.91,1.51-3.26,1-1.72,1.38-2,2.15-3.65a19.39,19.39,0,0,0,.79-2c.93-2.62,2-4.24,4.29-8.58a56.13,56.13,0,0,0,3.1-6.35c.39-1.11.63-3.31,1.11-7.71,0-.18.15-1.44-.23-1.59s-.58.63-1.35.8-1.41-.55-1.91-.24-.23,1-.64,1.19-.9-.7-1.51-.55-.45.77-1,.95-.65-.25-1.19-.16c-.75.12-1,1-1.35.87-.16,0-.24-.2-.56-1.27a7.39,7.39,0,0,1-.47-2.14A2.53,2.53,0,0,1-28.5,178c.09-.2.22-.41,1-1.12s1-.85,1-1.11c.05-.44-.43-.73-.95-1.27a6.18,6.18,0,0,1-1.59-3.1c-.23-1.29.38-1.52.08-3.1-.2-1-.44-1-.56-1.9a8.75,8.75,0,0,1,.48-3.5,8.85,8.85,0,0,0,.48-2.14,5.15,5.15,0,0,0-.4-2c-.41-1.13-.35-2.6,1.83-9.53.95-3.06.88-2.6,1.19-3.74.87-3.28.66-4.2,1.43-6.83s2-5.09,2.22-5-.24,1.87-1.11,5.48a27.21,27.21,0,0,0-1.11,6c-.07,1.76.18,1.58,0,2.46-.54,2.57-2.53,3.24-2.47,5.32,0,.74.28.62.48,2a12.54,12.54,0,0,1,0,3.25c-.27,2.85-.57,3.18-.71,5.25-.12,1.72.09,1.48,0,3.33-.18,3.42-.89,4-.32,5.33a3.58,3.58,0,0,0,3.33,2.22c.66-.09.73-.47,1.83-1.27s1.29-.67,4.37-2.14a9.76,9.76,0,0,0,2.78-1.59c.91-1.26.32-2.49,1.27-3.5a3.45,3.45,0,0,1,2.23-.87c.76,0,1.13.21,1.53-.07s.21-1,.76-1.46c.33-.27.5-.1,1.39-.4a3,3,0,0,0,1.14-.56c.71-.64.32-1.41.94-1.84.47-.33.87,0,1.43-.43a2,2,0,0,0,.58-.79c.52-1.08.09-1.61.57-2.54.24-.46.7-1,1.07-1s.47.82.69.8.23-.73.44-1.48a5.6,5.6,0,0,1,1.11-2.06c.84-1,1.47-1,2.2-2.18.33-.52.45-.92.3-1.19s-.3-.15-.57-.41a1.81,1.81,0,0,1-.47-1.08c-.09-.62.15-.77,0-1s-.77-.09-1.58-.36a2.63,2.63,0,0,1-1.11-.65c-.84-.95-.26-2.76-.14-3.1a22.88,22.88,0,0,0,1.1-3c.08-.38.11-.59,0-.68-.33-.27-1.73.56-2.53,1.81-.51.79-.24.91-.81,1.85a4.93,4.93,0,0,1-2.23,2,1.69,1.69,0,0,1-1.31.14c-.35-.14-.37-.39-.66-.44-.54-.11-.86.63-1.31.53a1,1,0,0,1-.6-1c0-.8,1.1-.88,1.76-2s.58-2.29.21-2.47-.86.31-1.16.81c-.41.67-.18,1.26-.75,1.9-.11.13-.3.35-.41.3s-.17-.37.38-2.95a22.38,22.38,0,0,0,.48-2.26c.16-1.44-.15-1.43,0-2.68.19-1.54.67-1.59.74-3.1,0-.67,0-1,.21-1.34s.84-.63,1.73-.93c.55-.18.82-.27,1-.18s.32.4-.32,3c-.36,1.47-.51,1.74-.3,2.12.31.58,1,.61,1.25,1.37.1.3,0,.35.12.74a2.87,2.87,0,0,0,.71,1.17,4,4,0,0,0,1.29.8c.92.42,1.38.62,1.81.45s.43-.8,1.13-1.25c.42-.27,1-.45,1.23-.24s-.25.75-.6,2.14c-.18.72-.14.89-.06,1,.25.37.8.19,1.58.47.55.2.67.44,1.25.87.28.2,2.19,1.59,3.7,1.1.5-.17.49-.39,1.07-.78,1-.7,1.88-.55,5.33-.56,2.05,0,3.47-.07,3.61.41.08.31-.41.56-.3,1s1.1.35,1.43.95-.39,1.11-.09,1.79.8.42,1.34,1.07a3.09,3.09,0,0,1,.56,1.58c.31,1.65,0,1.93.21,2.77.17.66.94,1.44,2.48,3,1.28,1.29,1.73,1.5,2,2.32.08.22.15.5.39.6.64.26,1.61-1.24,1.94-1s-.3,1.22-.33,3a9.67,9.67,0,0,0,.06,1.19c.22,2.46.49,3.53.62,5,.29,3.14-.49,3.59.24,5.31.54,1.26,1,1,1.55,2.2,1.44,2.9-.86,4.87.42,7.33,1,1.87,2.91,1.91,3,3.51,0,.89-.56.91-.84,2.33a8.17,8.17,0,0,0,.48,4,5.69,5.69,0,0,0,.83,2c.22.29,1.28,1.73,2.74,1.66.84,0,1.41-.55,2.33-1.37a10.83,10.83,0,0,0,1.61-1.9,4.51,4.51,0,0,0,.47-.78c.39-.91.13-1.62.54-1.84a1,1,0,0,1,.6-.06A4.62,4.62,0,0,1,42,188c.5,0,1.17-1.48,1.25-3.4.08-1.73-.41-1.95-.18-3.1.32-1.57,1.28-1.54,1.73-2.86.86-2.53-2.11-4.35-1.13-6.67.45-1.08,1.62-1.94,2.08-1.73s.26.75.48.77.41-1.57,1.49-2.14c.39-.21.43,0,1.19-.24a3.48,3.48,0,0,0,2-1.25c.38-.58.12-.81.48-1.31s1.08-.55,2-.95a10.1,10.1,0,0,0,2.68-2.39c1-1.08.92-1.11,1.79-2a12.41,12.41,0,0,1,2.74-2.45c1.88-1.06,3.35-.72,3.81-1.78a4.25,4.25,0,0,0,.3-1.26c0-.63-.12-.77,0-1.13a1.47,1.47,0,0,1,1.49-1,1.68,1.68,0,0,1,.91.79.32.32,0,0,1-.07-.25c.08-.48,1.69-.92,2.38-.3.49.44.17,1.12.53,1.31.69.37,2-2,3.52-1.85,1,.12,1.18,1.26,2.09,1.25,1.3,0,1.91-2.35,2.62-2.2s.07,2.54,1.49,4.7a6.14,6.14,0,0,0,3,2.41,5.3,5.3,0,0,0,.38,1.83c.13.3.52,1.23,1.08,1.25.37,0,.51-.41.77-.36s.48,1.17.66,2.8c.31,2.82.47,3,.23,3.63-.49,1.31-1.59,1.59-1.43,2.21s1.25.75,2.51.95a6.07,6.07,0,0,0,3.51-.06c1.31-.55,1.28-1.39,2.39-1.61a3.21,3.21,0,0,1,2.74,1c.55.56.52,1,1,4.47.57,4.07.75,4.47,1,4.88s.68,1,.48,1.25-1-.15-1.07,0,.92.62.89,1.13-1.48.91-1.43,1.14,1-.17,1.55.29c.25.23.37.63.06,3-.14,1-.18,1.1-.3,2-.16,1.16-.21,2-.3,3.28,0,.8-.09,1.66-.06,2.74,0,1.37.17,1.54.24,1.55s.26-1.45.78-1.55c.3-.06.63.39,1.66,2.08,1.89,3.1,1.76,3.17,2.33,3.7a2.84,2.84,0,0,1,1,1.25c.2.61,0,.91-.06,1.73s.25.9.66,2.62.17,1.82.53,2.32c.57.78,1.22.65,1.79,1.55.38.6.24.88.48,1.43.49,1.14,1.55,1,3.45,2.15a42.25,42.25,0,0,0,4,2.56,1.32,1.32,0,0,0,1.08.12c.52-.26.58-1.05.59-1.19a2.81,2.81,0,0,0-.53-1.73c-.75-1.27-1.15-1.28-1.73-2.21a5.63,5.63,0,0,1-.89-3c0-1.13.43-1.34.35-2.56a3.91,3.91,0,0,0-.53-2c-.73-1.13-1.61-.74-2.74-1.91-.72-.74-.5-1-1.55-2.21s-1.46-1.12-1.67-1.07c-.42.11-.41.56-.78.66-.84.21-2-1.93-2.2-2.21a5.35,5.35,0,0,1-1-3.16c0-.45.16-.93-.06-1.07s-1.13.68-1.43.48.42-1.68,0-2-1.07.48-1.43.24.44-2.08,1.13-5.24c.3-1.38.22-1.53.59-3.1.45-1.88.6-1.84.78-3,.15-1,.09-1.35.42-1.73.71-.81,2.36-.75,2.62-.23s-.61.92-.48,1.84a2,2,0,0,0,.54,1,4.72,4.72,0,0,0,4.23,1.54c.11,0,.52-.08.53-.23s-1-.38-1-.72.84-.82,1.43-.59.77,1.14,1,2.2.08,1.4.36,2.5c.12.48.32,1.25.6,1.25s.49-1.24,1-1.25c.21,0,.42.24.48.48.14.58-.62,1.11-.48,1.31s.55-.14,1.19-.12a2.43,2.43,0,0,1,1.25.42,2.78,2.78,0,0,1,1.43,2.2,5.27,5.27,0,0,1-.53,1.61c-.34.8-.55,1.11-.48,1.61a1.16,1.16,0,0,0,.48.83c.53.29,1.25-.23,1.43-.35.72-.51.6-1,1.13-1.49.95-1,2-.2,3-1s.26-1.5,1-2.68c.55-.86,1.15-.9,3.52-2.08s3.46-1.74,3.87-2.56c.47-1,.14-1.81-.42-3.94-1.48-5.64-.66-5.59-1.67-7.5-.14-.28-1.76-2-5-5.31a42.09,42.09,0,0,1-3.87-5.12,3.86,3.86,0,0,1-.84-2.39,4.26,4.26,0,0,1,1.43-2.56c2.94-3.19,4.43-4.79,5.78-5.06a4.57,4.57,0,0,1,3.52.53,3.49,3.49,0,0,1,1.55,2.27c0,.58-.17.88.06,1.19a1.48,1.48,0,0,0,2,0c.34-.47-.26-1,0-2a2.55,2.55,0,0,1,.66-1.13,3.41,3.41,0,0,1,2.8-.59c1,.1,1,.35,1.61.41s1.53-.15,4.41-2.56c1.9-1.59,2.21-2.06,3.15-2.2,1.2-.19,1.44.47,2.45.24,1.49-.35,1.19-1.84,3.33-3.52.74-.57,1.49-1,2.86-2.14a2.71,2.71,0,0,0,1-1.38c.16-.72-.23-1.11-.3-1.9a4.08,4.08,0,0,1,.83-2.5c1.43-2.43,3-2.31,3.46-4.12a18.91,18.91,0,0,0,.06-2.32c.13-2.38.43-2.36.3-3.4a7.73,7.73,0,0,0-1.55-3.45,9.26,9.26,0,0,0-.9-1,9.07,9.07,0,0,0-.89-.72c-1.14-.89.07-3-.89-4.29-.86-1.12-3.19-1.32-5.19-1.49-.62,0-1,0-1.25-.36-.56-.78.41-3.08,2.09-3.87,1.47-.69,2.7.16,3.45-.71a1.47,1.47,0,0,0,.18-1.73c-.37-.42-1,.06-2.2-.18s-1.41-.83-2.15-.66a3,3,0,0,0-1.31.9c-.52.52-.68.94-.89.89s-.22-.44-.42-1a5.47,5.47,0,0,0-.84-1.43c-1-1.27-2.94-1.2-2.91-1.49s1.41,0,2-.75-.19-1.69.33-2.17,1.14.14,1.7-.3.22-1.46.65-1.64,1.49.66,1.46,1.43c0,.55-.55.73-.47,1.16.1.58,1.09.66,1.1,1.11s-.77.58-.72.8.92.38,1.7.09c1.09-.4,1-1.29,1.94-1.88a3.76,3.76,0,0,1,4,.54,2.65,2.65,0,0,1,1,1.4c.16.69-.17,1,.06,1.64a2.14,2.14,0,0,0,1,1.13c.78.33,1.21-.22,2.06.12.39.15.92.51.92.92s-.83.64-.83,1.08,1.22.59,2.2,1.72c.26.3.81.94.63,1.43-.24.65-1.48.43-1.64,1-.11.4.43.86,1.52,1.78.35.3.52.41.69.36.47-.12.4-1.27.77-1.34s.63.93,1,.89.37-1.71,1.23-2.08c.62-.27,1.26.36,1.54.09s-.05-.94-.44-1.82a27.78,27.78,0,0,0-2.06-4.17,9.32,9.32,0,0,0-2.08-2,15.56,15.56,0,0,1-1.82-1.31c-.7-.58-1-.95-1-1.4a1.2,1.2,0,0,1,.32-.68c.56-.71,1.17-.6,1.67-1.16a2.45,2.45,0,0,0,.48-1.31c.25-1.43-.34-1.92,0-2.48.51-.78,2-.35,2.23-1,.16-.44-.43-.91-.27-1.1s.82.21,2,.56,1.61.5,2,.3c.15-.07.54-.31,1.07-2.8a25.86,25.86,0,0,1,.57-2.92c.38-1.18.66-1.28.62-1.9-.05-1-.74-1.16-1.19-2.33s.09-1.55-.24-2.65c-.66-2.18-3.5-2.82-3.28-3.54.1-.32.7-.43,1.11-.42.8,0,1.5.57,3.33,3.13,2,2.75,1.67,2.84,2.65,3.78A11.17,11.17,0,0,1,178,89.65c.33.51.76,1.28.89,1.23s-.23-.86.06-1.11,1.47.52,1.52.45a9.9,9.9,0,0,0-2.2-1.73c-1.47-1-2-1.26-2.45-2-.3-.57-.51-1.35-.23-1.58s.73.11.8,0-1.48-1.52-1.82-1.79c-4.31-3.45-4.2-3.18-4.56-3.66a7.18,7.18,0,0,0-2.05-1.94,1.59,1.59,0,0,0-1-.24c-.49.06-.56.34-.9.42-.94.21-1.56-1.81-3-1.89-.41,0-.93.11-1,.4s.37.65.24.91-.62.31-.95.12c-.52-.28-.5-1.12-.68-1.11s-.14.73-.4.79-.4-.67-1.07-1.07-1,0-1.87-.36c-.1,0-1.24-.48-1.23-1s.74-.45,1.27-1.31a3.89,3.89,0,0,0,.4-1.07c.14-.49.15-.72.36-1.83a6.37,6.37,0,0,1,.2-1c.55-.77,2,.22,4.6-.12a3.94,3.94,0,0,1,1.91-.08c.77.24.86.68,1.71,1s2.1.35,2.18.08-.37-.39-1.47-1.19-2-1.44-1.86-1.63,1.31,0,2.34.6c.56.33,1,.76,1.19.63s-.13-.58,0-.67.65.41,1.27,1c.89.76,1,.71,2.31,1.75,1.11.91,1.2,1.13,1.15,1.23s-1.1-.16-1.23.08,1.75,1.76,2.66,2.42c1.93,1.4,1.88,1.15,3,2a39,39,0,0,0,3.18,2.74c.28.19.19.11,1.7,1.07a20.31,20.31,0,0,1,2.15,1.43c1.15,1,1.58,1.94,1.71,1.87a3.26,3.26,0,0,0-.8-2c-.65-.9-1.23-1.07-2.54-2.46a3.49,3.49,0,0,1-.71-1.07,5.05,5.05,0,0,1-.24-1.16c-.31-1-1.85-.87-3.58-2-1.28-.83-.75-1.13-2.22-2.15a11,11,0,0,1-2.82-2.06c-.36-.42-.72-.85-.6-1.11C173.58,68.74,177,69.76,177.62,69.88ZM20.76,93.52c-.49.51-.86.52-2.46,1.19s-2.47,1-2.7,1.59c-.36.82.38,1.28.08,2.46-.21.79-.57.72-1.2,1.83-.85,1.51-.39,2-1.19,3-.68.85-1.16.65-1.75,1.51a4.91,4.91,0,0,0-.63,2.38A11.6,11.6,0,0,1,9.32,112c-1.16,1.7-3.05,2.77-3.58,2.38s.1-1.22-.39-1.59-1.27.34-1.75,0-.19-1.69-.16-1.83c.38-1.4,1.25-1.42,2.3-3.17.72-1.2.61-1.68,1.28-2.07.9-.53,1.89-.09,2.06-.48s-1-.82-1.19-1.82c-.17-.84.5-1.26,2-3.66.8-1.3.75-1.41,1.51-2.54A17.33,17.33,0,0,1,13.05,95,12.34,12.34,0,0,1,18,91.77c1.27-.5,3-1.17,3.49-.56S21.41,92.83,20.76,93.52Z"/><g class="cls-12"><path class="cls-13" d="M188.16,75.41a148,148,0,0,1,24.12,81.21A148.7,148.7,0,0,1-17.62,281.19,148.7,148.7,0,1,0,188.16,75.41Z"/></g></g><path d="M176.11,203.18c-1.66,0-3.32-.07-4.92-.2l.08-1a59.41,59.41,0,0,0,6.94.16l0,1C177.54,203.16,176.83,203.18,176.11,203.18Zm9.16-.72-.16-1a33.3,33.3,0,0,0,6.66-1.74l.36.94A35,35,0,0,1,185.27,202.46Zm-21.07-.55a24.48,24.48,0,0,1-6.69-2.47l.51-.86a23.93,23.93,0,0,0,6.4,2.36Zm33.61-5.71-.95-.32a2.45,2.45,0,0,0,.12-.75c0-1.7-1.93-3-3.56-3.86l.45-.9c2.69,1.36,4.12,3,4.11,4.76A3.57,3.57,0,0,1,197.81,196.2Zm-42.57-1.07h-1c0-1.94,1.72-3.73,5-5.16l.41.91C156.79,192.13,155.24,193.64,155.24,195.13Zm31.67-6a50.52,50.52,0,0,0-6.87-.91l.07-1a50.82,50.82,0,0,1,7,.94Zm-20.7-.17-.18-1a52.39,52.39,0,0,1,7-.81l0,1A52.31,52.31,0,0,0,166.21,189Z"/><g class="cls-14"><path class="cls-3" d="M412.53,275.65c-1.12-2-2.29-4.11-3.5-6.18l.88-.51c1.21,2.07,2.39,4.15,3.51,6.19Zm-7.15-12.25c-1.24-2-2.52-4-3.8-6l.85-.56c1.29,2,2.58,4,3.82,6Zm-7.75-11.87c-1.34-1.94-2.71-3.89-4.09-5.79l.83-.6c1.38,1.91,2.76,3.86,4.1,5.81Zm-8.33-11.47c-1.44-1.88-2.91-3.75-4.38-5.57l.8-.64c1.47,1.82,2.95,3.7,4.4,5.59Zm-8.9-11c-1.54-1.81-3.12-3.6-4.68-5.32l.76-.69c1.57,1.73,3.15,3.53,4.69,5.34Zm-9.5-10.5c-1.64-1.71-3.32-3.4-5-5l.72-.73c1.67,1.64,3.36,3.34,5,5.05Zm-10.13-9.89c-1.74-1.6-3.52-3.17-5.3-4.69l.66-.78c1.79,1.53,3.58,3.11,5.33,4.71ZM350,199.48c-1.86-1.47-3.76-2.91-5.63-4.28l.6-.83c1.89,1.38,3.79,2.83,5.66,4.31Zm-11.42-8.34c-2-1.31-4-2.59-6-3.8l.53-.88c2,1.22,4,2.51,6,3.83Zm-153.26-.82-.51-.88c2.07-1.19,4.16-2.35,6.22-3.44l.48.9C189.47,188,187.38,189.14,185.33,190.32Zm141.18-6.52c-2.07-1.14-4.18-2.23-6.27-3.25l.45-.92c2.1,1,4.22,2.13,6.31,3.27Zm-128.69-.12-.45-.91c2.14-1.05,4.31-2.06,6.44-3l.41.94C202.11,181.64,200,182.64,197.82,183.68ZM210.74,178l-.38-1c2.21-.88,4.45-1.72,6.66-2.5l.34,1C215.16,176.25,212.93,177.08,210.74,178Zm103.08-.34c-2.17-.93-4.38-1.8-6.56-2.61l.35-1c2.2.81,4.43,1.7,6.61,2.63Zm-89.74-4.33-.3-1c2.28-.69,4.59-1.33,6.86-1.9l.25,1C228.63,172,226.34,172.61,224.08,173.29Zm76.49-.53c-2.25-.69-4.54-1.33-6.8-1.89l.25-1c2.28.57,4.58,1.21,6.85,1.9Zm-62.8-2.92-.2-1c2.34-.46,4.69-.88,7-1.22l.15,1C242.43,169,240.09,169.38,237.77,169.84Zm49.11-.47c-2.31-.44-4.66-.81-7-1.12l.14-1c2.33.31,4.69.68,7,1.12Zm-35.14-1.59-.09-1c2.36-.22,4.75-.38,7.1-.47l0,1C256.46,167.4,254.09,167.56,251.74,167.78Zm21.16-.24c-2.33-.17-4.7-.28-7-.32v-1c2.37,0,4.76.15,7.11.32Z"/><path class="cls-3" d="M176.25,195.82l-.55-.86c1-.65,2-1.28,3-1.9l.54.87Z"/><path class="cls-15" d="M176.33,195.76l-.71-.74,1.57-1.51.71.74Zm6.78-6.4-.69-.76c1.76-1.61,3.55-3.22,5.33-4.78l.67.77C186.65,186.14,184.86,187.74,183.11,189.36Zm10.74-9.42-.66-.78c1.83-1.53,3.7-3,5.56-4.53l.63.8C197.53,176.9,195.67,178.42,193.85,179.94ZM205,171.06l-.61-.82c1.91-1.44,3.85-2.86,5.77-4.24l.6.83C208.87,168.2,206.93,169.62,205,171.06Zm11.63-8.29-.57-.85c2-1.33,4-2.65,6-3.92l.54.86C220.63,160.13,218.62,161.44,216.66,162.77Zm248.85,0s-2.13-1.52-6-3.9l.53-.87c3.9,2.4,6,3.92,6.06,3.94Zm-12.15-7.52c-2-1.15-4.15-2.29-6.28-3.41l.47-.9c2.14,1.12,4.26,2.27,6.31,3.42Zm-224.64-.1-.52-.88c2.07-1.23,4.16-2.43,6.21-3.57l.5.9C232.86,152.71,230.78,153.91,228.72,155.13Zm212-6.52c-2.12-1-4.3-2-6.48-3l.42-.94c2.19,1,4.38,2,6.51,3Zm-199.48-.4-.47-.91c2.13-1.09,4.29-2.17,6.42-3.18l.44.92C245.48,146.05,243.33,147.12,241.21,148.21Zm186.45-5.46c-2.19-.91-4.42-1.8-6.64-2.65l.36-.95c2.23.85,4.47,1.74,6.67,2.66Zm-173.56-.68-.41-.93c2.17-1,4.4-1.89,6.61-2.77l.38.95C258.48,140.2,256.26,141.13,254.1,142.07Zm160.21-4.43c-2.25-.78-4.53-1.55-6.78-2.26l.31-1c2.26.71,4.55,1.48,6.81,2.27Zm-147-.86-.35-1c2.25-.81,4.53-1.6,6.79-2.33l.31,1C271.86,135.19,269.59,136,267.35,136.78Zm133.34-3.47c-2.29-.65-4.61-1.28-6.89-1.86l.25-1c2.3.58,4.63,1.21,6.93,1.87Zm-119.77-.93-.28-1c2.28-.66,4.61-1.28,6.93-1.86l.25,1C285.51,131.11,283.19,131.73,280.92,132.38Zm105.93-2.59c-2.31-.52-4.66-1-7-1.45l.19-1c2.34.45,4.71.94,7,1.46Zm-92.08-.88-.21-1c2.31-.49,4.68-1,7-1.38l.18,1C299.43,128,297.08,128.42,294.77,128.91Zm78.06-1.81c-2.36-.37-4.74-.71-7.07-1l.12-1c2.35.29,4.74.64,7.11,1Zm-64-.69-.15-1c2.35-.34,4.75-.64,7.12-.89l.11,1C313.54,125.78,311.15,126.08,308.82,126.41Zm49.84-1.11c-2.36-.22-4.76-.41-7.12-.56l.06-1c2.38.15,4.78.34,7.16.56ZM323,124.88l-.07-1c2.37-.18,4.78-.31,7.16-.4l0,1C327.77,124.58,325.37,124.71,323,124.88Zm21.4-.46c-2-.06-4.11-.09-6.15-.09h-1v-1h1c2.05,0,4.12,0,6.18.09Z"/><path class="cls-2" d="M177.91,191.09l-.95-.36s.94-2.51,3-6.62l.92.46C178.84,188.63,177.92,191.06,177.91,191.09Zm6.28-12.84-.89-.5c1.16-2.06,2.39-4.15,3.67-6.19l.86.54C186.57,174.13,185.34,176.2,184.19,178.25Zm7.55-12.13-.84-.58c1.33-1.95,2.74-3.92,4.18-5.84l.82.61C194.47,162.22,193.07,164.18,191.74,166.12Zm8.54-11.45-.79-.64c1.5-1.85,3.06-3.69,4.63-5.49l.77.68C203.32,151,201.77,152.84,200.28,154.67ZM209.71,144l-.74-.7c1.63-1.72,3.33-3.43,5.05-5.11l.71.74C213,140.54,211.33,142.25,209.71,144ZM220,134l-.68-.76c1.76-1.59,3.59-3.16,5.43-4.69l.65.79C223.52,130.86,221.71,132.43,220,134Zm11-9.11-.62-.81c1.87-1.43,3.82-2.86,5.78-4.25l.59.84C234.73,122.06,232.8,123.48,230.93,124.9Zm11.66-8.22-.55-.86c2-1.3,4.05-2.57,6.09-3.79l.52.88C246.62,114.12,244.58,115.39,242.59,116.68Zm12.26-7.3-.49-.9c2.07-1.13,4.21-2.24,6.36-3.31l.45.91C259,107.15,256.91,108.25,254.85,109.38ZM267.62,103l-.43-.93c2.16-1,4.37-1.93,6.59-2.83l.39.94C272,101.1,269.76,102.05,267.62,103Zm13.2-5.4-.36-1c2.21-.81,4.49-1.61,6.77-2.36l.32,1C285.28,96,283,96.81,280.82,97.62Zm13.54-4.47-.28-1c2.27-.66,4.59-1.3,6.91-1.89l.25,1C298.94,91.86,296.62,92.49,294.36,93.15Zm13.82-3.55-.22-1c2.31-.52,4.67-1,7-1.45l.19,1C312.83,88.61,310.48,89.09,308.18,89.6Zm14-2.66-.16-1c2.35-.38,4.73-.72,7.09-1l.13,1C326.91,86.22,324.54,86.56,322.2,86.94Zm14.15-1.84-.1-1c2.36-.24,4.76-.45,7.13-.62l.08,1C341.09,84.66,338.7,84.87,336.35,85.1Zm49.92-.56c-2.37-.17-4.77-.31-7.13-.42l.05-1c2.37.12,4.77.26,7.16.43Zm-35.68-.48,0-1c2.36-.11,4.77-.2,7.16-.25l0,1C355.34,83.87,352.94,84,350.59,84.06ZM372,83.85c-2.38-.06-4.78-.1-7.14-.11v-1c2.36,0,4.77,0,7.16.11Z"/><path class="cls-16" d="M176.49,195.39h-1c0-.11,0-2.73.18-7.22l1,0C176.49,192.68,176.49,195.28,176.49,195.39Zm.56-14.34-1-.06c.14-2.33.32-4.74.52-7.17l1,.08C177.38,176.33,177.2,178.73,177.05,181.05Zm1.19-14.28-1-.1q.34-3.42.78-7.14l1,.12C178.73,162.12,178.47,164.5,178.24,166.77Zm1.69-14.22-1-.14q.47-3.47,1-7.1l1,.15C180.59,147.88,180.25,150.25,179.93,152.55Zm2.2-14.15-1-.17c.41-2.38.85-4.75,1.29-7.06l1,.19C183,133.67,182.54,136,182.13,138.4Zm2.71-14.05-1-.21c.5-2.35,1-4.7,1.56-7l1,.24C185.86,119.66,185.34,122,184.84,124.35Zm3.26-13.93-1-.25c.6-2.35,1.22-4.68,1.85-6.94l1,.28C189.32,105.76,188.7,108.08,188.1,110.42Zm3.84-13.78-1-.3c.7-2.28,1.42-4.59,2.16-6.84l1,.32C193.36,92.07,192.63,94.36,191.94,96.64Zm4.47-13.58-1-.34c.8-2.26,1.65-4.52,2.5-6.72l1,.36C198.05,78.56,197.21,80.81,196.41,83.06Zm5.16-13.33-.94-.39c.92-2.2,1.88-4.41,2.86-6.56l.93.42C203.45,65.35,202.49,67.55,201.57,69.73Zm5.9-13-.91-.46c1.06-2.15,2.16-4.3,3.27-6.37l.9.48C209.63,52.48,208.53,54.61,207.47,56.76Zm6.73-12.58-.88-.52c1.2-2.07,2.45-4.14,3.72-6.14l.86.55C216.64,40.06,215.4,42.11,214.2,44.18Zm7.63-12.06-.84-.58c1.35-2,2.76-3.93,4.19-5.83l.82.62C224.58,28.21,223.18,30.16,221.83,32.12Zm8.58-11.39-.79-.65c1.53-1.84,3.11-3.67,4.69-5.42l.76.69C233.49,17.09,231.93,18.9,230.41,20.73ZM240,10.21l-.72-.73c1.7-1.69,3.45-3.35,5.2-4.93l.69.76C243.41,6.88,241.67,8.52,240,10.21Z"/><path class="cls-1" d="M175.37,190.27l-1-.07q.26-3.6.46-7.13l1,.06Q175.62,186.65,175.37,190.27Zm.85-14.29-1-.06q.18-3.6.31-7.14l1,0C176.44,171.18,176.34,173.56,176.22,176Zm.56-14.32-1,0q.11-3.62.16-7.14h1Q176.88,158,176.78,161.66Zm.25-14.32h-1c0-1.28,0-2.56,0-3.82s0-2.23,0-3.33h1c0,1.11,0,2.22,0,3.34S177,146.06,177,147.34Zm-1.1-14.3c-.05-2.42-.1-4.8-.18-7.15l1,0q.1,3.53.17,7.16Zm-.44-14.29q-.17-3.63-.37-7.14l1-.06c.14,2.35.26,4.73.37,7.16Zm-.83-14.27q-.27-3.63-.58-7.12l1-.09c.21,2.34.4,4.71.58,7.14ZM173.4,90.25c-.26-2.42-.52-4.79-.81-7.1l1-.13q.42,3.49.81,7.12Zm-1.73-14.19c-.34-2.38-.69-4.76-1.06-7.06l1-.16c.37,2.31.73,4.69,1.06,7.08ZM169.42,62c-.42-2.34-.87-4.7-1.34-7l1-.21c.47,2.32.92,4.69,1.35,7Zm-2.83-14c-.54-2.36-1.09-4.69-1.66-7l1-.25c.57,2.27,1.13,4.61,1.66,7Zm-3.5-13.85c-.65-2.31-1.33-4.62-2-6.85l1-.3c.7,2.24,1.38,4.55,2,6.87Zm-4.26-13.62c-.8-2.28-1.62-4.54-2.47-6.7l1-.37c.84,2.17,1.68,4.44,2.47,6.73ZM153.64,7.2c-1-2.25-2-4.42-3-6.46l.92-.46c1,2.06,2,4.25,3,6.51ZM147.27-5.54a54.51,54.51,0,0,0-3.87-5.92l.79-.65a51.9,51.9,0,0,1,4,6.06Z"/><path class="cls-17" d="M298.33,363.82s-.38-2.64-1.16-7.13l1-.17c.78,4.5,1.16,7.13,1.16,7.16Zm-2.45-14.19c-.42-2.16-.88-4.51-1.41-7l1-.21c.53,2.54,1,4.9,1.41,7.05ZM293,335.57c-.49-2.24-1-4.57-1.6-7l1-.23c.58,2.42,1.11,4.76,1.61,7Zm-3.31-13.95q-.86-3.39-1.81-6.93l1-.27c.63,2.37,1.24,4.69,1.81,6.95Zm-3.72-13.84c-.65-2.26-1.32-4.55-2-6.87l1-.29c.71,2.32,1.38,4.61,2,6.88Zm-4.17-13.7c-.74-2.31-1.51-4.6-2.26-6.8l1-.33c.75,2.21,1.52,4.5,2.27,6.81Zm-4.65-13.54c-.83-2.24-1.68-4.49-2.53-6.68l.95-.37c.86,2.2,1.71,4.45,2.53,6.7Zm-5.22-13.31c-.94-2.25-1.9-4.46-2.85-6.58l.93-.42c1,2.13,1.92,4.35,2.87,6.6ZM266,254.17c-1.05-2.17-2.13-4.32-3.22-6.38l.91-.48c1.09,2.08,2.18,4.24,3.23,6.41Zm-6.65-12.65c-1.21-2.11-2.45-4.17-3.67-6.13l.86-.54c1.24,2,2.48,4,3.69,6.16Zm-7.61-12.08c-1.37-2-2.79-3.93-4.22-5.75l.81-.63c1.43,1.84,2.86,3.79,4.25,5.79ZM243,218.19c-1.61-1.81-3.25-3.55-4.89-5.16l.71-.73c1.66,1.62,3.32,3.38,4.94,5.22Zm-10.16-9.93c-1.86-1.54-3.77-3-5.67-4.26l.58-.84a71.78,71.78,0,0,1,5.74,4.32Zm-11.73-7.89a56.59,56.59,0,0,0-6.44-2.9l.36-.95a56.7,56.7,0,0,1,6.55,2.94Zm-13.19-4.93a52.51,52.51,0,0,0-7-1.1l.09-1a52.75,52.75,0,0,1,7.1,1.13Zm-21.08-.5-.17-1a57.08,57.08,0,0,1,7.17-.77l0,1A59.07,59.07,0,0,0,186.84,194.94Z"/><path class="cls-18" d="M197.72,403.82l-1-.11s.3-2.6.71-7.12l1,.09C198,401.22,197.72,403.8,197.72,403.82Zm1.3-14.28-1-.08c.17-2.17.34-4.56.51-7.14l1,.07Q199.28,386.28,199,389.54Zm.94-14.3-1-.06c.13-2.27.25-4.66.36-7.14l1,0Q200.16,371.82,200,375.24Zm.65-14.32-1,0c.09-2.32.16-4.71.22-7.15l1,0Q200.73,357.43,200.61,360.92ZM201,346.6h-1q.06-3.51.07-7.16h1Q201,343.09,201,346.6Zm-1-14.32c0-2.35,0-4.74-.09-7.15l1,0c0,2.42.08,4.81.09,7.16Zm-.27-14.3q-.11-3.56-.26-7.15l1,0q.15,3.6.26,7.16Zm-.62-14.29q-.21-3.56-.45-7.14l1-.07c.16,2.39.31,4.78.45,7.15Zm-1-14.26q-.3-3.56-.66-7.12l1-.1q.36,3.57.66,7.13Zm-1.43-14.22q-.42-3.56-.9-7.1l1-.13c.33,2.36.62,4.73.9,7.11ZM194.72,261c-.36-2.36-.76-4.73-1.17-7.06l1-.18c.41,2.33.81,4.72,1.17,7.08ZM192.23,247c-.48-2.37-1-4.72-1.49-7l1-.23c.51,2.28,1,4.64,1.49,7ZM189.07,233c-.59-2.32-1.22-4.64-1.86-6.89l1-.28c.65,2.25,1.28,4.58,1.87,6.92Zm-3.95-13.72c-.74-2.29-1.52-4.56-2.32-6.75l1-.35c.81,2.2,1.59,4.48,2.34,6.78Zm-4.9-13.4c-.93-2.25-1.89-4.44-2.88-6.53l.93-.43c1,2.1,2,4.31,2.9,6.57Z"/></g></g></g></svg>