<?xml version="1.0" encoding="utf-8"?><svg id="Layer_1" data-name="Layer 1" xmlns="http://www.w3.org/2000/svg" xmlns:xlink="http://www.w3.org/1999/xlink" viewBox="0 0 100 100"><defs><style>.cls-1{clip-path:url(#clip-path);}.cls-2{clip-path:url(#clip-path-2);}.cls-3{clip-path:url(#clip-path-3);}</style><clipPath id="clip-path"><path d="M79.35,76.17A8.65,8.65,0,1,1,88,84.82a8.66,8.66,0,0,1-8.65-8.65m-8.24-58.5A1.72,1.72,0,0,0,71.67,20,41.36,41.36,0,0,1,90.46,64.32,11.73,11.73,0,0,0,88,64.06,12.11,12.11,0,1,0,99.61,79.6V72.73a12.19,12.19,0,0,0-5.87-7.22,45.32,45.32,0,0,0,1.18-10.1A44.7,44.7,0,0,0,73.49,17.1a1.72,1.72,0,0,0-2.38.57"/></clipPath><clipPath id="clip-path-2"><path d="M3.25,76.17a8.65,8.65,0,1,1,8.64,8.65,8.66,8.66,0,0,1-8.64-8.65M.39,72.39V80a12.1,12.1,0,0,0,17.35,6.81A45.05,45.05,0,0,0,43.66,99.93H56.31a44.1,44.1,0,0,0,10.82-3,1.73,1.73,0,1,0-1.32-3.19,41.52,41.52,0,0,1-45.3-9.12A12.1,12.1,0,1,0,.39,72.39"/></clipPath><clipPath id="clip-path-3"><path d="M41.3,12.18A8.65,8.65,0,1,1,50,20.82a8.66,8.66,0,0,1-8.65-8.64m-3.46,0A44.76,44.76,0,0,0,5.1,52.21a1.72,1.72,0,0,0,1.61,1.84h.12a1.72,1.72,0,0,0,1.72-1.6A41.32,41.32,0,0,1,38.34,15.58a12.07,12.07,0,1,0-.5-3.45"/></clipPath></defs><title>Third Party Logistics</title><path d="M79.35,76.17A8.65,8.65,0,1,1,88,84.82a8.66,8.66,0,0,1-8.65-8.65m-8.24-58.5A1.72,1.72,0,0,0,71.67,20,41.36,41.36,0,0,1,90.46,64.32,11.73,11.73,0,0,0,88,64.06,12.11,12.11,0,1,0,99.61,79.6V72.73a12.19,12.19,0,0,0-5.87-7.22,45.32,45.32,0,0,0,1.18-10.1A44.7,44.7,0,0,0,73.49,17.1a1.72,1.72,0,0,0-2.38.57"/><g class="cls-1"><polygon points="70.61 87.92 70.96 88.27 70.61 88.27 70.61 87.92"/><polygon points="70.61 87.19 71.69 88.27 70.96 88.27 70.61 87.92 70.61 87.19"/><polygon points="70.61 86.46 72.42 88.27 71.69 88.27 70.61 87.19 70.61 86.46"/><polygon points="70.61 85.72 73.16 88.27 72.42 88.27 70.61 86.46 70.61 85.72"/><polygon points="70.61 84.99 73.89 88.27 73.16 88.27 70.61 85.72 70.61 84.99"/><polygon points="70.61 84.26 74.62 88.27 73.89 88.27 70.61 84.99 70.61 84.26"/><polygon points="70.61 83.53 75.36 88.27 74.62 88.27 70.61 84.26 70.61 83.53"/><polygon points="70.61 82.79 76.09 88.27 75.36 88.27 70.61 83.53 70.61 82.79"/><polygon points="70.61 82.06 76.82 88.27 76.09 88.27 70.61 82.79 70.61 82.06"/><polygon points="70.61 81.33 77.55 88.27 76.82 88.27 70.61 82.06 70.61 81.33"/><polygon points="70.61 80.6 78.28 88.27 77.55 88.27 70.61 81.33 70.61 80.6"/><polygon points="70.61 79.86 79.02 88.27 78.28 88.27 70.61 80.6 70.61 79.86"/><polygon points="70.61 79.13 79.75 88.27 79.02 88.27 70.61 79.86 70.61 79.13"/><polygon points="70.61 78.4 80.48 88.27 79.75 88.27 70.61 79.13 70.61 78.4"/><polygon points="70.61 77.67 81.22 88.27 80.48 88.27 70.61 78.4 70.61 77.67"/><polygon points="70.61 76.93 81.95 88.27 81.22 88.27 70.61 77.67 70.61 76.93"/><polygon points="70.61 76.2 82.68 88.27 81.95 88.27 70.61 76.93 70.61 76.2"/><polygon points="70.61 75.47 83.41 88.27 82.68 88.27 70.61 76.2 70.61 75.47"/><polygon points="70.61 74.74 84.14 88.27 83.41 88.27 70.61 75.47 70.61 74.74"/><polygon points="70.61 74 84.88 88.27 84.14 88.27 70.61 74.74 70.61 74"/><polygon points="70.61 73.27 85.61 88.27 84.88 88.27 70.61 74 70.61 73.27"/><polygon points="70.61 72.54 86.34 88.27 85.61 88.27 70.61 73.27 70.61 72.54"/><polygon points="70.61 71.81 87.07 88.27 86.34 88.27 70.61 72.54 70.61 71.81"/><polygon points="70.61 71.07 87.81 88.27 87.07 88.27 70.61 71.81 70.61 71.07"/><polygon points="70.61 70.34 88.54 88.27 87.81 88.27 70.61 71.08 70.61 70.34"/><polygon points="70.61 69.61 89.27 88.27 88.54 88.27 70.61 70.34 70.61 69.61"/><polygon points="70.61 68.88 90 88.27 89.27 88.27 70.61 69.61 70.61 68.88"/><polygon points="70.61 68.14 90.74 88.27 90 88.27 70.61 68.88 70.61 68.14"/><polygon points="70.61 67.41 91.47 88.27 90.74 88.27 70.61 68.14 70.61 67.41"/><polygon points="70.61 66.68 92.2 88.27 91.47 88.27 70.61 67.41 70.61 66.68"/><polygon points="70.61 65.95 92.94 88.27 92.2 88.27 70.61 66.68 70.61 65.95"/><polygon points="70.61 65.22 93.67 88.27 92.94 88.27 70.61 65.95 70.61 65.22"/><polygon points="70.61 64.48 94.4 88.27 93.67 88.27 70.61 65.22 70.61 64.48"/><polygon points="70.61 63.75 95.13 88.27 94.4 88.27 70.61 64.48 70.61 63.75"/><polygon points="70.61 63.02 95.86 88.27 95.13 88.27 70.61 63.75 70.61 63.02"/><polygon points="70.61 62.28 96.6 88.27 95.86 88.27 70.61 63.02 70.61 62.28"/><polygon points="70.61 61.55 97.33 88.27 96.6 88.27 70.61 62.28 70.61 61.55"/><polygon points="70.61 60.82 98.06 88.27 97.33 88.27 70.61 61.55 70.61 60.82"/><polygon points="70.61 60.09 98.79 88.27 98.06 88.27 70.61 60.82 70.61 60.09"/><polygon points="70.61 59.35 99.26 88 98.99 88.27 98.79 88.27 70.61 60.09 70.61 59.35"/><polygon points="70.61 58.62 99.62 87.64 99.26 88.01 70.61 59.35 70.61 58.62"/><polygon points="70.61 57.89 99.99 87.27 99.62 87.64 70.61 58.62 70.61 57.89"/><polygon points="70.61 57.16 100.1 86.65 100.1 87.16 99.99 87.28 70.61 57.89 70.61 57.16"/><polygon points="70.61 56.42 100.1 85.92 100.1 86.65 70.61 57.16 70.61 56.42"/><polygon points="70.61 55.69 100.1 85.19 100.1 85.92 70.61 56.42 70.61 55.69"/><polygon points="70.61 54.96 100.1 84.46 100.1 85.19 70.61 55.69 70.61 54.96"/><polygon points="70.61 54.23 100.1 83.72 100.1 84.46 70.61 54.96 70.61 54.23"/><polygon points="70.61 53.49 100.1 82.99 100.1 83.72 70.61 54.23 70.61 53.49"/><polygon points="70.61 52.76 100.1 82.26 100.1 82.99 70.61 53.49 70.61 52.76"/><polygon points="70.61 52.03 100.1 81.53 100.1 82.26 70.61 52.76 70.61 52.03"/><polygon points="70.61 51.3 100.1 80.8 100.1 81.53 70.61 52.03 70.61 51.3"/><polygon points="70.61 50.56 100.1 80.06 100.1 80.79 70.61 51.3 70.61 50.56"/><polygon points="70.61 49.83 100.1 79.33 100.1 80.06 70.61 50.57 70.61 49.83"/><polygon points="70.61 49.1 100.1 78.6 100.1 79.33 70.61 49.83 70.61 49.1"/><polygon points="70.61 48.37 100.1 77.86 100.1 78.6 70.61 49.1 70.61 48.37"/><polygon points="70.61 47.63 100.1 77.13 100.1 77.86 70.61 48.37 70.61 47.63"/><polygon points="70.61 46.9 100.1 76.4 100.1 77.13 70.61 47.63 70.61 46.9"/><polygon points="70.61 46.17 100.1 75.67 100.1 76.4 70.61 46.9 70.61 46.17"/><polygon points="70.61 45.44 100.1 74.94 100.1 75.67 70.61 46.17 70.61 45.44"/><polygon points="70.61 36.23 100.1 65.72 100.1 74.93 70.61 45.44 70.61 36.23"/><polygon points="70.61 27.01 100.1 56.51 100.1 65.72 70.61 36.22 70.61 27.01"/><polygon points="70.61 17.8 100.1 47.3 100.1 56.51 70.61 27.01 70.61 17.8"/><polygon points="78.62 16.6 100.1 38.08 100.1 47.3 70.61 17.8 70.61 16.6 78.62 16.6"/><polygon points="87.83 16.6 100.1 28.87 100.1 38.08 78.62 16.6 87.83 16.6"/><polygon points="97.04 16.6 100.1 19.66 100.1 28.87 87.83 16.6 97.04 16.6"/><polygon points="100.1 19.66 97.04 16.6 100.1 16.6 100.1 19.66"/><polygon points="79.35 84.21 79.95 84.81 79.35 84.81 79.35 84.21"/><polygon points="79.35 83.48 80.69 84.82 79.95 84.82 79.35 84.21 79.35 83.48"/><polygon points="79.35 82.75 81.42 84.82 80.69 84.82 79.35 83.48 79.35 82.75"/><polygon points="79.35 82.01 82.15 84.82 81.42 84.82 79.35 82.75 79.35 82.01"/><polygon points="79.35 81.28 82.88 84.81 82.15 84.81 79.35 82.02 79.35 81.28"/><polygon points="79.35 80.55 83.61 84.81 82.88 84.81 79.35 81.28 79.35 80.55"/><polygon points="79.35 79.82 84.35 84.82 83.61 84.82 79.35 80.55 79.35 79.82"/><polygon points="79.35 79.08 85.08 84.82 84.35 84.82 79.35 79.82 79.35 79.08"/><polygon points="79.35 78.35 85.81 84.81 85.08 84.81 79.35 79.08 79.35 78.35"/><polygon points="79.35 77.62 86.55 84.82 85.81 84.82 79.35 78.35 79.35 77.62"/><polygon points="79.35 76.89 87.28 84.81 86.55 84.81 79.35 77.62 79.35 76.89"/><polygon points="79.35 76.15 88.01 84.82 87.28 84.82 79.35 76.89 79.35 76.15"/><polygon points="79.35 75.42 88.74 84.82 88.01 84.82 79.35 76.15 79.35 75.42"/><polygon points="79.35 74.69 89.48 84.81 88.74 84.81 79.35 75.42 79.35 74.69"/><polygon points="79.35 73.96 90.21 84.82 89.48 84.82 79.35 74.69 79.35 73.96"/><polygon points="79.35 73.22 90.94 84.81 90.21 84.81 79.35 73.96 79.35 73.22"/><polygon points="79.35 72.49 91.67 84.82 90.94 84.82 79.35 73.23 79.35 72.49"/><polygon points="79.35 71.76 92.41 84.82 91.67 84.82 79.35 72.49 79.35 71.76"/><polygon points="79.35 71.03 93.14 84.81 92.41 84.81 79.35 71.76 79.35 71.03"/><polygon points="79.35 70.3 93.87 84.82 93.14 84.82 79.35 71.03 79.35 70.3"/><polygon points="79.35 69.56 94.6 84.81 93.87 84.81 79.35 70.3 79.35 69.56"/><polygon points="79.35 68.83 95.34 84.82 94.6 84.82 79.35 69.56 79.35 68.83"/><polygon points="79.35 68.1 96.07 84.82 95.34 84.82 79.35 68.83 79.35 68.1"/><polygon points="79.5 67.52 96.64 84.66 96.64 84.81 96.07 84.81 79.35 68.1 79.35 67.52 79.5 67.52"/><polygon points="80.24 67.52 96.64 83.93 96.64 84.66 79.5 67.52 80.24 67.52"/><polygon points="80.97 67.52 96.65 83.2 96.65 83.93 80.24 67.52 80.97 67.52"/><polygon points="81.7 67.52 96.64 82.46 96.64 83.2 80.97 67.52 81.7 67.52"/><polygon points="82.44 67.52 96.64 81.73 96.64 82.46 81.7 67.52 82.44 67.52"/><polygon points="83.17 67.52 96.64 81 96.64 81.73 82.44 67.52 83.17 67.52"/><polygon points="83.9 67.52 96.64 80.27 96.64 81 83.17 67.52 83.9 67.52"/><polygon points="84.63 67.52 96.65 79.53 96.65 80.27 83.9 67.52 84.63 67.52"/><polygon points="85.36 67.52 96.64 78.8 96.64 79.53 84.63 67.52 85.36 67.52"/><polygon points="86.1 67.52 96.64 78.07 96.64 78.8 85.36 67.52 86.1 67.52"/><polygon points="86.83 67.52 96.64 77.33 96.64 78.07 86.1 67.52 86.83 67.52"/><polygon points="87.56 67.52 96.64 76.6 96.64 77.33 86.83 67.52 87.56 67.52"/><polygon points="88.3 67.52 96.65 75.87 96.65 76.6 87.56 67.52 88.3 67.52"/><polygon points="89.03 67.52 96.64 75.14 96.64 75.87 88.3 67.52 89.03 67.52"/><polygon points="89.76 67.52 96.64 74.41 96.64 75.14 89.03 67.52 89.76 67.52"/><polygon points="90.49 67.52 96.64 73.67 96.64 74.41 89.76 67.52 90.49 67.52"/><polygon points="91.22 67.52 96.64 72.94 96.64 73.67 90.49 67.52 91.22 67.52"/><polygon points="91.96 67.52 96.64 72.21 96.64 72.94 91.22 67.52 91.96 67.52"/><polygon points="92.69 67.52 96.64 71.47 96.64 72.21 91.96 67.52 92.69 67.52"/><polygon points="96.64 71.47 92.69 67.52 96.64 67.52 96.64 71.47"/></g><path d="M3.25,76.17a8.65,8.65,0,1,1,8.64,8.65,8.66,8.66,0,0,1-8.64-8.65M.39,72.39V80a12.1,12.1,0,0,0,17.35,6.81A45.05,45.05,0,0,0,43.66,99.93H56.31a44.1,44.1,0,0,0,10.82-3,1.73,1.73,0,1,0-1.32-3.19,41.52,41.52,0,0,1-45.3-9.12A12.1,12.1,0,1,0,.39,72.39"/><g class="cls-2"><polygon points="-0.21 99.74 0.43 100.38 -0.21 100.38 -0.21 100.38 -0.21 99.74"/><polygon points="-0.21 99.1 1.07 100.38 0.43 100.38 -0.21 99.74 -0.21 99.1"/><polygon points="-0.21 98.46 1.71 100.38 1.07 100.38 -0.21 99.1 -0.21 98.46"/><polygon points="-0.21 97.82 2.35 100.38 1.71 100.38 -0.21 98.46 -0.21 97.82"/><polygon points="-0.21 97.18 2.99 100.38 2.35 100.38 -0.21 97.82 -0.21 97.18"/><polygon points="-0.21 96.54 3.63 100.38 2.99 100.38 -0.21 97.18 -0.21 96.54"/><polygon points="-0.21 95.89 4.27 100.38 3.63 100.38 -0.21 96.54 -0.21 95.89"/><polygon points="-0.21 95.25 4.92 100.38 4.27 100.38 -0.21 95.89 -0.21 95.25"/><polygon points="-0.21 94.61 5.55 100.38 4.92 100.38 -0.21 95.25 -0.21 94.61"/><polygon points="-0.21 93.97 6.2 100.38 5.55 100.38 -0.21 94.61 -0.21 93.97"/><polygon points="-0.21 93.33 6.84 100.38 6.2 100.38 -0.21 93.97 -0.21 93.33"/><polygon points="-0.21 92.69 7.48 100.38 6.84 100.38 -0.21 93.33 -0.21 92.69"/><polygon points="-0.21 92.05 8.12 100.38 7.48 100.38 -0.21 92.69 -0.21 92.05"/><polygon points="-0.21 91.41 8.76 100.38 8.12 100.38 -0.21 92.05 -0.21 91.41"/><polygon points="-0.21 90.77 9.4 100.38 8.76 100.38 -0.21 91.41 -0.21 90.77"/><polygon points="-0.21 90.13 10.04 100.38 9.4 100.38 -0.21 90.77 -0.21 90.13"/><polygon points="-0.21 89.49 10.68 100.38 10.04 100.38 -0.21 90.13 -0.21 89.49"/><polygon points="-0.21 88.85 11.32 100.38 10.68 100.38 -0.21 89.49 -0.21 88.85"/><polygon points="-0.21 88.21 11.96 100.38 11.32 100.38 -0.21 88.85 -0.21 88.21"/><polygon points="-0.21 87.57 12.6 100.38 11.96 100.38 -0.21 88.21 -0.21 87.57"/><polygon points="-0.21 86.93 13.24 100.38 12.6 100.38 -0.21 87.57 -0.21 86.93"/><polygon points="-0.21 86.29 13.88 100.38 13.24 100.38 -0.21 86.93 -0.21 86.29"/><polygon points="-0.21 85.65 14.52 100.38 13.88 100.38 -0.21 86.29 -0.21 85.65"/><polygon points="-0.21 85 15.16 100.38 14.52 100.38 -0.21 85.65 -0.21 85"/><polygon points="-0.21 84.36 15.8 100.38 15.16 100.38 -0.21 85 -0.21 84.36"/><polygon points="-0.21 83.72 16.45 100.38 15.8 100.38 -0.21 84.36 -0.21 83.72"/><polygon points="-0.21 83.08 17.09 100.38 16.45 100.38 -0.21 83.72 -0.21 83.08"/><polygon points="-0.21 82.44 17.73 100.38 17.09 100.38 -0.21 83.08 -0.21 82.44"/><polygon points="-0.21 81.8 18.37 100.38 17.73 100.38 -0.21 82.44 -0.21 81.8"/><polygon points="-0.21 81.16 19.01 100.38 18.37 100.38 -0.21 81.8 -0.21 81.16"/><polygon points="-0.21 80.52 19.65 100.38 19.01 100.38 -0.21 81.16 -0.21 80.52"/><polygon points="-0.21 79.88 20.29 100.38 19.65 100.38 -0.21 80.52 -0.21 79.88"/><polygon points="-0.21 79.24 20.93 100.38 20.29 100.38 -0.21 79.88 -0.21 79.24"/><polygon points="-0.21 78.6 21.57 100.38 20.93 100.38 -0.21 79.24 -0.21 78.6"/><polygon points="-0.21 77.96 22.21 100.38 21.57 100.38 -0.21 78.6 -0.21 77.96"/><polygon points="-0.21 77.32 22.85 100.38 22.21 100.38 -0.21 77.96 -0.21 77.32"/><polygon points="-0.21 76.68 23.49 100.38 22.85 100.38 -0.21 77.32 -0.21 76.68"/><polygon points="-0.21 76.04 24.13 100.38 23.49 100.38 -0.21 76.68 -0.21 76.04"/><polygon points="-0.21 75.4 24.77 100.38 24.13 100.38 -0.21 76.03 -0.21 75.4"/><polygon points="-0.21 74.76 25.41 100.38 24.77 100.38 -0.21 75.4 -0.21 74.76"/><polygon points="-0.21 74.11 26.05 100.38 25.41 100.38 -0.21 74.76 -0.21 74.11"/><polygon points="-0.21 73.47 26.69 100.38 26.05 100.38 -0.21 74.11 -0.21 73.47"/><polygon points="-0.21 72.83 27.33 100.38 26.69 100.38 -0.21 73.47 -0.21 72.83"/><polygon points="-0.21 72.19 27.98 100.38 27.33 100.38 -0.21 72.83 -0.21 72.19"/><polygon points="-0.21 71.55 28.62 100.38 27.98 100.38 -0.21 72.19 -0.21 71.55"/><polygon points="-0.21 70.91 29.26 100.38 28.62 100.38 -0.21 71.55 -0.21 70.91"/><polygon points="-0.21 70.27 29.9 100.38 29.26 100.38 -0.21 70.91 -0.21 70.27"/><polygon points="-0.21 69.63 30.54 100.38 29.9 100.38 -0.21 70.27 -0.21 69.63"/><polygon points="-0.21 68.99 31.18 100.38 30.54 100.38 -0.21 69.63 -0.21 68.99"/><polygon points="-0.21 68.35 31.82 100.38 31.18 100.38 -0.21 68.99 -0.21 68.35"/><polygon points="-0.21 67.71 32.46 100.38 31.82 100.38 -0.21 68.35 -0.21 67.71"/><polygon points="-0.21 67.07 33.1 100.38 32.46 100.38 -0.21 67.71 -0.21 67.07"/><polygon points="-0.21 66.43 33.74 100.38 33.1 100.38 -0.21 67.07 -0.21 66.43"/><polygon points="-0.21 65.79 34.38 100.38 33.74 100.38 -0.21 66.43 -0.21 65.79"/><polygon points="-0.21 65.17 -0.2 65.16 35.02 100.38 34.38 100.38 -0.21 65.79 -0.21 65.17"/><polygon points="-0.2 65.16 0.12 64.84 35.66 100.38 35.02 100.38 -0.2 65.16"/><polygon points="0.12 64.84 0.44 64.52 36.3 100.38 35.66 100.38 0.12 64.84"/><polygon points="0.44 64.52 0.76 64.2 36.95 100.38 36.3 100.38 0.44 64.52"/><polygon points="0.76 64.2 0.9 64.06 1.27 64.06 37.59 100.38 36.95 100.38 0.76 64.2"/><polygon points="1.91 64.06 38.23 100.38 37.58 100.38 1.26 64.06 1.91 64.06"/><polygon points="2.55 64.06 38.87 100.38 38.23 100.38 1.91 64.06 2.55 64.06"/><polygon points="3.19 64.06 39.51 100.38 38.87 100.38 2.55 64.06 3.19 64.06"/><polygon points="3.83 64.06 40.15 100.38 39.51 100.38 3.19 64.06 3.83 64.06"/><polygon points="4.47 64.06 40.79 100.38 40.15 100.38 3.83 64.06 4.47 64.06"/><polygon points="5.11 64.06 41.43 100.38 40.79 100.38 4.47 64.06 5.11 64.06"/><polygon points="5.75 64.06 42.07 100.38 41.43 100.38 5.11 64.06 5.75 64.06"/><polygon points="6.39 64.06 42.71 100.38 42.07 100.38 5.75 64.06 6.39 64.06"/><polygon points="7.03 64.06 43.35 100.38 42.71 100.38 6.39 64.06 7.03 64.06"/><polygon points="7.67 64.06 43.99 100.38 43.35 100.38 7.03 64.06 7.67 64.06"/><polygon points="8.31 64.06 44.63 100.38 43.99 100.38 7.67 64.06 8.31 64.06"/><polygon points="8.95 64.06 45.27 100.38 44.63 100.38 8.31 64.06 8.95 64.06"/><polygon points="9.59 64.06 45.91 100.38 45.27 100.38 8.95 64.06 9.59 64.06"/><polygon points="10.23 64.06 46.55 100.38 45.91 100.38 9.59 64.06 10.23 64.06"/><polygon points="10.87 64.06 47.19 100.38 46.55 100.38 10.23 64.06 10.87 64.06"/><polygon points="11.51 64.06 47.83 100.38 47.19 100.38 10.87 64.06 11.51 64.06"/><polygon points="12.15 64.06 48.47 100.38 47.83 100.38 11.51 64.06 12.15 64.06"/><polygon points="12.79 64.06 49.12 100.38 48.47 100.38 12.15 64.06 12.79 64.06"/><polygon points="13.44 64.06 49.76 100.38 49.12 100.38 12.79 64.06 13.44 64.06"/><polygon points="14.08 64.06 50.4 100.38 49.76 100.38 13.44 64.06 14.08 64.06"/><polygon points="14.72 64.06 51.04 100.38 50.4 100.38 14.08 64.06 14.72 64.06"/><polygon points="15.36 64.06 51.68 100.38 51.04 100.38 14.72 64.06 15.36 64.06"/><polygon points="16 64.06 52.32 100.38 51.68 100.38 15.36 64.06 16 64.06"/><polygon points="16.64 64.06 52.96 100.38 52.32 100.38 16 64.06 16.64 64.06"/><polygon points="17.28 64.06 53.6 100.38 52.96 100.38 16.64 64.06 17.28 64.06"/><polygon points="17.92 64.06 54.24 100.38 53.6 100.38 17.28 64.06 17.92 64.06"/><polygon points="18.56 64.06 54.88 100.38 54.24 100.38 17.92 64.06 18.56 64.06"/><polygon points="19.2 64.06 55.52 100.38 54.88 100.38 18.56 64.06 19.2 64.06"/><polygon points="19.84 64.06 56.16 100.38 55.52 100.38 19.2 64.06 19.84 64.06"/><polygon points="20.48 64.06 56.8 100.38 56.16 100.38 19.84 64.06 20.48 64.06"/><polygon points="21.12 64.06 57.44 100.38 56.8 100.38 20.48 64.06 21.12 64.06"/><polygon points="21.76 64.06 58.08 100.38 57.44 100.38 21.12 64.06 21.76 64.06"/><polygon points="22.4 64.06 58.72 100.38 58.08 100.38 21.76 64.06 22.4 64.06"/><polygon points="23.05 64.06 59.36 100.38 58.72 100.38 22.4 64.06 23.05 64.06"/><polygon points="23.68 64.06 60.01 100.38 59.36 100.38 23.04 64.06 23.68 64.06"/><polygon points="24.33 64.06 60.65 100.38 60.01 100.38 23.68 64.06 24.33 64.06"/><polygon points="24.97 64.06 61.29 100.38 60.65 100.38 24.32 64.06 24.97 64.06"/><polygon points="25.61 64.06 61.93 100.38 61.29 100.38 24.97 64.06 25.61 64.06"/><polygon points="26.25 64.06 62.57 100.38 61.93 100.38 25.61 64.06 26.25 64.06"/><polygon points="26.89 64.06 63.21 100.38 62.57 100.38 26.25 64.06 26.89 64.06"/><polygon points="27.53 64.06 63.85 100.38 63.21 100.38 26.89 64.06 27.53 64.06"/><polygon points="28.17 64.06 64.49 100.38 63.85 100.38 27.53 64.06 28.17 64.06"/><polygon points="28.81 64.06 65.13 100.38 64.49 100.38 28.17 64.06 28.81 64.06"/><polygon points="29.45 64.06 65.77 100.38 65.13 100.38 28.81 64.06 29.45 64.06"/><polygon points="30.09 64.06 66.41 100.38 65.77 100.38 29.45 64.06 30.09 64.06"/><polygon points="30.73 64.06 67.05 100.38 66.41 100.38 30.09 64.06 30.73 64.06"/><polygon points="31.37 64.06 67.69 100.38 67.05 100.38 30.73 64.06 31.37 64.06"/><polygon points="32.01 64.06 68.33 100.38 67.69 100.38 31.37 64.06 32.01 64.06"/><polygon points="32.65 64.06 68.43 99.84 68.43 100.38 68.33 100.38 32.01 64.06 32.65 64.06"/><polygon points="33.29 64.06 68.43 99.2 68.43 99.84 32.65 64.06 33.29 64.06"/><polygon points="33.94 64.06 68.43 98.56 68.43 99.2 33.29 64.06 33.94 64.06"/><polygon points="34.58 64.06 68.43 97.92 68.43 98.56 33.93 64.06 34.58 64.06"/><polygon points="35.22 64.06 68.43 97.28 68.43 97.92 34.58 64.06 35.22 64.06"/><polygon points="35.86 64.06 68.43 96.64 68.43 97.28 35.22 64.06 35.86 64.06"/><polygon points="36.5 64.06 68.43 96 68.43 96.64 35.86 64.06 36.5 64.06"/><polygon points="37.14 64.06 68.43 95.36 68.43 96 36.5 64.06 37.14 64.06"/><polygon points="37.78 64.06 68.43 94.72 68.43 95.36 37.14 64.06 37.78 64.06"/><polygon points="38.42 64.06 68.43 94.08 68.43 94.72 37.78 64.06 38.42 64.06"/><polygon points="39.06 64.06 68.43 93.44 68.43 94.08 38.42 64.06 39.06 64.06"/><polygon points="39.7 64.06 68.43 92.8 68.43 93.44 39.06 64.06 39.7 64.06"/><polygon points="40.34 64.06 68.43 92.15 68.43 92.8 39.7 64.06 40.34 64.06"/><polygon points="40.98 64.06 68.43 91.51 68.43 92.15 40.34 64.06 40.98 64.06"/><polygon points="41.62 64.06 68.43 90.87 68.43 91.51 40.98 64.06 41.62 64.06"/><polygon points="42.26 64.06 68.43 90.23 68.43 90.87 41.62 64.06 42.26 64.06"/><polygon points="42.9 64.06 68.43 89.59 68.43 90.23 42.26 64.06 42.9 64.06"/><polygon points="43.54 64.06 68.43 88.95 68.43 89.59 42.9 64.06 43.54 64.06"/><polygon points="44.18 64.06 68.43 88.31 68.43 88.95 43.54 64.06 44.18 64.06"/><polygon points="44.82 64.06 68.43 87.67 68.43 88.31 44.18 64.06 44.82 64.06"/><polygon points="45.47 64.06 68.43 87.03 68.43 87.67 44.82 64.06 45.47 64.06"/><polygon points="46.11 64.06 68.43 86.39 68.43 87.03 45.47 64.06 46.11 64.06"/><polygon points="46.75 64.06 68.43 85.75 68.43 86.39 46.1 64.06 46.75 64.06"/><polygon points="47.39 64.06 68.43 85.11 68.43 85.75 46.75 64.06 47.39 64.06"/><polygon points="48.03 64.06 68.43 84.47 68.43 85.11 47.39 64.06 48.03 64.06"/><polygon points="48.67 64.06 68.43 83.83 68.43 84.47 48.03 64.06 48.67 64.06"/><polygon points="49.31 64.06 68.43 83.19 68.43 83.83 48.67 64.06 49.31 64.06"/><polygon points="49.95 64.06 68.43 82.55 68.43 83.19 49.31 64.06 49.95 64.06"/><polygon points="50.59 64.06 68.43 81.91 68.43 82.55 49.95 64.06 50.59 64.06"/><polygon points="51.23 64.06 68.43 81.26 68.43 81.91 50.59 64.06 51.23 64.06"/><polygon points="51.87 64.06 68.43 80.62 68.43 81.26 51.23 64.06 51.87 64.06"/><polygon points="52.51 64.06 68.43 79.98 68.43 80.62 51.87 64.06 52.51 64.06"/><polygon points="53.15 64.06 68.43 79.34 68.43 79.98 52.51 64.06 53.15 64.06"/><polygon points="53.79 64.06 68.43 78.7 68.43 79.34 53.15 64.06 53.79 64.06"/><polygon points="54.43 64.06 68.43 78.06 68.43 78.7 53.79 64.06 54.43 64.06"/><polygon points="55.07 64.06 68.43 77.42 68.43 78.06 54.43 64.06 55.07 64.06"/><polygon points="55.71 64.06 68.43 76.78 68.43 77.42 55.07 64.06 55.71 64.06"/><polygon points="56.35 64.06 68.43 76.14 68.43 76.78 55.71 64.06 56.35 64.06"/><polygon points="56.99 64.06 68.43 75.5 68.43 76.14 56.35 64.06 56.99 64.06"/><polygon points="57.64 64.06 68.43 74.86 68.43 75.5 56.99 64.06 57.64 64.06"/><polygon points="58.28 64.06 68.43 74.22 68.43 74.86 57.64 64.06 58.28 64.06"/><polygon points="58.92 64.06 68.43 73.58 68.43 74.22 58.28 64.06 58.92 64.06"/><polygon points="59.56 64.06 68.43 72.94 68.43 73.58 58.92 64.06 59.56 64.06"/><polygon points="60.2 64.06 68.43 72.3 68.43 72.94 59.56 64.06 60.2 64.06"/><polygon points="60.84 64.06 68.43 71.66 68.43 72.3 60.2 64.06 60.84 64.06"/><polygon points="61.48 64.06 68.43 71.01 68.43 71.66 60.84 64.06 61.48 64.06"/><polygon points="62.12 64.06 68.43 70.38 68.43 71.01 61.48 64.06 62.12 64.06"/><polygon points="62.76 64.06 68.43 69.73 68.43 70.38 62.12 64.06 62.76 64.06"/><polygon points="63.4 64.06 68.43 69.09 68.43 69.73 62.76 64.06 63.4 64.06"/><polygon points="64.04 64.06 68.43 68.45 68.43 69.09 63.4 64.06 64.04 64.06"/><polygon points="64.68 64.06 68.43 67.81 68.43 68.45 64.04 64.06 64.68 64.06"/><polygon points="65.32 64.06 68.43 67.17 68.43 67.81 64.68 64.06 65.32 64.06"/><polygon points="65.96 64.06 68.43 66.53 68.43 67.17 65.32 64.06 65.96 64.06"/><polygon points="66.6 64.06 68.43 65.89 68.43 66.53 65.96 64.06 66.6 64.06"/><polygon points="67.25 64.06 68.43 65.25 68.43 65.89 66.6 64.06 67.25 64.06"/><polygon points="67.89 64.06 68.43 64.61 68.43 65.25 67.25 64.06 67.89 64.06"/><polygon points="68.43 64.61 67.89 64.06 68.43 64.06 68.43 64.61"/><polygon points="3.25 84.62 3.44 84.82 3.25 84.82 3.25 84.62"/><polygon points="3.25 83.98 4.08 84.81 3.44 84.81 3.25 84.62 3.25 83.98"/><polygon points="3.25 83.34 4.72 84.81 4.08 84.81 3.25 83.98 3.25 83.34"/><polygon points="3.25 82.7 5.36 84.81 4.72 84.81 3.25 83.34 3.25 82.7"/><polygon points="3.25 82.06 6 84.81 5.36 84.81 3.25 82.7 3.25 82.06"/><polygon points="3.25 81.42 6.64 84.81 6 84.81 3.25 82.06 3.25 81.42"/><polygon points="3.25 80.78 7.29 84.81 6.64 84.81 3.25 81.42 3.25 80.78"/><polygon points="3.25 80.14 7.92 84.81 7.29 84.81 3.25 80.78 3.25 80.14"/><polygon points="3.25 79.5 8.57 84.81 7.92 84.81 3.25 80.14 3.25 79.5"/><polygon points="3.25 78.86 9.21 84.81 8.57 84.81 3.25 79.5 3.25 78.86"/><polygon points="3.25 78.22 9.85 84.81 9.21 84.81 3.25 78.86 3.25 78.22"/><polygon points="3.25 77.58 10.49 84.81 9.85 84.81 3.25 78.22 3.25 77.58"/><polygon points="3.25 76.94 11.13 84.82 10.49 84.82 3.25 77.58 3.25 76.94"/><polygon points="3.25 76.29 11.77 84.82 11.13 84.82 3.25 76.94 3.25 76.29"/><polygon points="3.25 75.65 12.41 84.82 11.77 84.82 3.25 76.29 3.25 75.65"/><polygon points="3.25 75.01 13.05 84.81 12.41 84.81 3.25 75.65 3.25 75.01"/><polygon points="3.25 74.37 13.69 84.81 13.05 84.81 3.25 75.01 3.25 74.37"/><polygon points="3.25 73.73 14.33 84.81 13.69 84.81 3.25 74.37 3.25 73.73"/><polygon points="3.25 73.09 14.97 84.82 14.33 84.82 3.25 73.73 3.25 73.09"/><polygon points="3.25 72.45 15.61 84.82 14.97 84.82 3.25 73.09 3.25 72.45"/><polygon points="3.25 71.81 16.25 84.82 15.61 84.82 3.25 72.45 3.25 71.81"/><polygon points="3.25 71.17 16.89 84.82 16.25 84.82 3.25 71.81 3.25 71.17"/><polygon points="3.25 70.53 17.54 84.82 16.89 84.82 3.25 71.17 3.25 70.53"/><polygon points="3.25 69.89 18.17 84.81 17.54 84.81 3.25 70.53 3.25 69.89"/><polygon points="3.25 69.25 18.82 84.81 18.17 84.81 3.25 69.89 3.25 69.25"/><polygon points="3.25 68.61 19.46 84.81 18.82 84.81 3.25 69.25 3.25 68.61"/><polygon points="3.25 67.97 20.1 84.81 19.46 84.81 3.25 68.61 3.25 67.97"/><polygon points="3.44 67.52 20.54 84.62 20.54 84.81 20.1 84.81 3.25 67.97 3.25 67.52 3.44 67.52"/><polygon points="4.08 67.52 20.54 83.98 20.54 84.62 3.44 67.52 4.08 67.52"/><polygon points="4.72 67.52 20.54 83.34 20.54 83.98 4.08 67.52 4.72 67.52"/><polygon points="5.36 67.52 20.54 82.7 20.54 83.34 4.72 67.52 5.36 67.52"/><polygon points="6 67.52 20.54 82.06 20.54 82.7 5.36 67.52 6 67.52"/><polygon points="6.64 67.52 20.54 81.42 20.54 82.06 6 67.52 6.64 67.52"/><polygon points="7.29 67.52 20.54 80.78 20.54 81.42 6.64 67.52 7.29 67.52"/><polygon points="7.93 67.52 20.54 80.14 20.54 80.78 7.29 67.52 7.93 67.52"/><polygon points="8.57 67.52 20.54 79.5 20.54 80.14 7.93 67.52 8.57 67.52"/><polygon points="9.21 67.52 20.54 78.86 20.54 79.5 8.57 67.52 9.21 67.52"/><polygon points="9.85 67.52 20.54 78.22 20.54 78.86 9.21 67.52 9.85 67.52"/><polygon points="10.49 67.52 20.54 77.58 20.54 78.22 9.85 67.52 10.49 67.52"/><polygon points="11.13 67.52 20.54 76.93 20.54 77.58 10.49 67.52 11.13 67.52"/><polygon points="11.77 67.52 20.54 76.29 20.54 76.93 11.13 67.52 11.77 67.52"/><polygon points="12.41 67.52 20.54 75.65 20.54 76.29 11.77 67.52 12.41 67.52"/><polygon points="13.05 67.52 20.54 75.01 20.54 75.65 12.41 67.52 13.05 67.52"/><polygon points="13.69 67.52 20.54 74.37 20.54 75.01 13.05 67.52 13.69 67.52"/><polygon points="14.33 67.52 20.55 73.73 20.55 74.37 13.69 67.52 14.33 67.52"/><polygon points="14.97 67.52 20.54 73.09 20.54 73.73 14.33 67.52 14.97 67.52"/><polygon points="15.61 67.52 20.54 72.45 20.54 73.09 14.97 67.52 15.61 67.52"/><polygon points="16.25 67.52 20.54 71.81 20.54 72.45 15.61 67.52 16.25 67.52"/><polygon points="16.89 67.52 20.54 71.17 20.54 71.81 16.25 67.52 16.89 67.52"/><polygon points="17.54 67.52 20.54 70.53 20.54 71.17 16.89 67.52 17.54 67.52"/><polygon points="18.18 67.52 20.54 69.89 20.54 70.53 17.54 67.52 18.18 67.52"/><polygon points="18.82 67.52 20.54 69.25 20.54 69.89 18.18 67.52 18.82 67.52"/><polygon points="19.46 67.52 20.54 68.61 20.54 69.25 18.82 67.52 19.46 67.52"/><polygon points="20.1 67.52 20.55 67.97 20.55 68.61 19.46 67.52 20.1 67.52"/><polygon points="20.54 67.97 20.1 67.52 20.54 67.52 20.54 67.97"/></g><path d="M41.3,12.18A8.65,8.65,0,1,1,50,20.82a8.66,8.66,0,0,1-8.65-8.64m-3.46,0A44.76,44.76,0,0,0,5.1,52.21a1.72,1.72,0,0,0,1.61,1.84h.12a1.72,1.72,0,0,0,1.72-1.6A41.32,41.32,0,0,1,38.34,15.58a12.07,12.07,0,1,0-.5-3.45"/><g class="cls-3"><polygon points="5.04 53.49 5.6 54.06 5.04 54.06 5.04 53.49"/><polygon points="5.04 52.8 6.29 54.05 5.6 54.05 5.04 53.49 5.04 52.8"/><polygon points="5.04 52.11 6.99 54.06 6.29 54.06 5.04 52.8 5.04 52.11"/><polygon points="5.04 51.41 7.68 54.06 6.99 54.06 5.04 52.11 5.04 51.41"/><polygon points="5.04 50.72 8.37 54.06 7.68 54.06 5.04 51.41 5.04 50.72"/><polygon points="5.04 50.03 9.06 54.06 8.37 54.06 5.04 50.72 5.04 50.03"/><polygon points="5.04 49.34 9.75 54.06 9.06 54.06 5.04 50.03 5.04 49.34"/><polygon points="5.04 48.65 10.44 54.05 9.75 54.05 5.04 49.34 5.04 48.65"/><polygon points="5.04 47.96 11.13 54.05 10.44 54.05 5.04 48.65 5.04 47.96"/><polygon points="5.04 47.27 11.83 54.06 11.13 54.06 5.04 47.96 5.04 47.27"/><polygon points="5.04 46.57 12.52 54.06 11.83 54.06 5.04 47.27 5.04 46.57"/><polygon points="5.04 45.88 13.21 54.05 12.52 54.05 5.04 46.57 5.04 45.88"/><polygon points="5.04 45.19 13.9 54.05 13.21 54.05 5.04 45.88 5.04 45.19"/><polygon points="5.04 44.5 14.6 54.05 13.9 54.05 5.04 45.19 5.04 44.5"/><polygon points="5.04 43.81 15.29 54.06 14.6 54.06 5.04 44.5 5.04 43.81"/><polygon points="5.04 43.12 15.98 54.06 15.29 54.06 5.04 43.81 5.04 43.12"/><polygon points="5.04 42.42 16.67 54.06 15.98 54.06 5.04 43.12 5.04 42.42"/><polygon points="5.04 41.73 17.36 54.06 16.67 54.06 5.04 42.42 5.04 41.73"/><polygon points="5.04 41.04 18.05 54.06 17.36 54.06 5.04 41.73 5.04 41.04"/><polygon points="5.04 40.35 18.74 54.05 18.05 54.05 5.04 41.04 5.04 40.35"/><polygon points="5.04 39.66 19.44 54.05 18.74 54.05 5.04 40.35 5.04 39.66"/><polygon points="5.04 38.96 20.13 54.06 19.44 54.06 5.04 39.66 5.04 38.96"/><polygon points="5.04 38.27 20.82 54.05 20.13 54.05 5.04 38.97 5.04 38.27"/><polygon points="5.04 37.58 21.51 54.05 20.82 54.05 5.04 38.27 5.04 37.58"/><polygon points="5.04 36.89 22.2 54.05 21.51 54.05 5.04 37.58 5.04 36.89"/><polygon points="5.04 36.2 22.89 54.06 22.2 54.06 5.04 36.89 5.04 36.2"/><polygon points="5.04 35.51 23.59 54.06 22.89 54.06 5.04 36.2 5.04 35.51"/><polygon points="5.04 34.81 24.28 54.05 23.59 54.05 5.04 35.51 5.04 34.81"/><polygon points="5.04 34.12 24.97 54.05 24.28 54.05 5.04 34.81 5.04 34.12"/><polygon points="5.04 33.43 25.66 54.06 24.97 54.06 5.04 34.12 5.04 33.43"/><polygon points="5.04 32.74 26.35 54.05 25.66 54.05 5.04 33.43 5.04 32.74"/><polygon points="5.04 32.05 27.04 54.05 26.35 54.05 5.04 32.74 5.04 32.05"/><polygon points="5.04 31.36 27.74 54.06 27.04 54.06 5.04 32.05 5.04 31.36"/><polygon points="5.04 30.66 28.43 54.06 27.74 54.06 5.04 31.36 5.04 30.66"/><polygon points="5.04 29.97 29.12 54.06 28.43 54.06 5.04 30.66 5.04 29.97"/><polygon points="5.04 29.28 29.81 54.05 29.12 54.05 5.04 29.97 5.04 29.28"/><polygon points="5.04 28.59 30.5 54.05 29.81 54.05 5.04 29.28 5.04 28.59"/><polygon points="5.04 27.9 31.18 54.04 31.16 54.06 30.5 54.06 5.04 28.59 5.04 27.9"/><polygon points="5.04 27.42 5.14 27.31 31.52 53.7 31.18 54.04 5.04 27.9 5.04 27.42"/><rect x="18.26" y="21.67" width="0.49" height="37.31" transform="translate(-23.1 24.9) rotate(-45)"/><rect x="18.61" y="21.33" width="0.49" height="37.31" transform="translate(-22.75 25.04) rotate(-45)"/><polygon points="5.83 26.62 6.18 26.27 32.56 52.66 32.22 53 5.83 26.62"/><rect x="19.3" y="20.64" width="0.49" height="37.31" transform="translate(-22.06 25.33) rotate(-45)"/><rect x="19.65" y="20.29" width="0.49" height="37.31" transform="translate(-21.71 25.47) rotate(-45)"/><polygon points="6.87 25.58 7.21 25.23 33.6 51.62 33.25 51.96 6.87 25.58"/><rect x="20.34" y="19.6" width="0.49" height="37.31" transform="translate(-21.02 25.76) rotate(-45)"/><rect x="20.68" y="19.25" width="0.49" height="37.31" transform="translate(-20.68 25.9) rotate(-45)"/><rect x="21.03" y="18.91" width="0.49" height="37.31" transform="translate(-20.37 26.18) rotate(-45.18)"/><rect x="21.37" y="18.56" width="0.49" height="37.31" transform="translate(-19.98 26.19) rotate(-45)"/><rect x="21.72" y="18.21" width="0.49" height="37.31" transform="translate(-19.64 26.33) rotate(-45)"/><rect x="22.07" y="17.87" width="0.49" height="37.31" transform="translate(-19.29 26.47) rotate(-45)"/><rect x="22.41" y="17.52" width="0.49" height="37.31" transform="translate(-18.98 26.75) rotate(-45.18)"/><rect x="22.76" y="17.18" width="0.49" height="37.31" transform="translate(-18.6 26.76) rotate(-45)"/><rect x="23.1" y="16.83" width="0.49" height="37.31" transform="translate(-18.26 26.9) rotate(-45)"/><rect x="23.45" y="16.49" width="0.49" height="37.31" transform="translate(-17.94 27.18) rotate(-45.18)"/><rect x="23.8" y="16.14" width="0.49" height="37.31" transform="translate(-17.56 27.19) rotate(-45)"/><rect x="24.14" y="15.79" width="0.49" height="37.31" transform="translate(-17.22 27.33) rotate(-45)"/><rect x="24.49" y="15.45" width="0.49" height="37.31" transform="translate(-16.87 27.48) rotate(-45)"/><rect x="24.83" y="15.1" width="0.49" height="37.31" transform="translate(-16.55 27.75) rotate(-45.18)"/><rect x="25.18" y="14.76" width="0.49" height="37.31" transform="translate(-16.18 27.76) rotate(-45)"/><rect x="25.52" y="14.41" width="0.49" height="37.31" transform="translate(-15.83 27.91) rotate(-45)"/><rect x="25.87" y="14.06" width="0.49" height="37.31" transform="translate(-15.5 28.18) rotate(-45.18)"/><rect x="26.22" y="13.72" width="0.49" height="37.31" transform="translate(-15.14 28.19) rotate(-45)"/><rect x="26.56" y="13.37" width="0.49" height="37.31" transform="translate(-14.8 28.34) rotate(-45)"/><rect x="26.91" y="13.03" width="0.49" height="37.31" transform="translate(-14.46 28.61) rotate(-45.18)"/><rect x="27.25" y="12.68" width="0.49" height="37.31" transform="translate(-14.1 28.62) rotate(-45)"/><rect x="27.6" y="12.34" width="0.49" height="37.31" transform="translate(-13.76 28.77) rotate(-45)"/><rect x="27.95" y="11.99" width="0.49" height="37.31" transform="translate(-13.41 28.91) rotate(-45)"/><rect x="28.29" y="11.64" width="0.49" height="37.31" transform="translate(-13.07 29.19) rotate(-45.18)"/><rect x="28.64" y="11.3" width="0.49" height="37.31" transform="translate(-12.72 29.2) rotate(-45)"/><rect x="28.98" y="10.95" width="0.49" height="37.31" transform="translate(-12.38 29.47) rotate(-45.18)"/><rect x="29.33" y="10.61" width="0.49" height="37.31" transform="translate(-12.03 29.48) rotate(-45)"/><rect x="29.68" y="10.26" width="0.49" height="37.31" transform="translate(-11.68 29.63) rotate(-45)"/><rect x="30.02" y="9.91" width="0.49" height="37.31" transform="translate(-11.33 29.9) rotate(-45.18)"/><rect x="30.37" y="9.57" width="0.49" height="37.31" transform="translate(-10.99 29.91) rotate(-45)"/><rect x="30.71" y="9.22" width="0.49" height="37.31" transform="translate(-10.65 30.06) rotate(-45)"/><rect x="31.06" y="8.88" width="0.49" height="37.31" transform="translate(-10.29 30.33) rotate(-45.18)"/><rect x="31.4" y="8.53" width="0.49" height="37.31" transform="translate(-9.95 30.34) rotate(-45)"/><rect x="31.75" y="8.18" width="0.49" height="37.31" transform="translate(-9.61 30.48) rotate(-45)"/><rect x="32.1" y="7.84" width="0.49" height="37.31" transform="translate(-9.26 30.63) rotate(-45)"/><rect x="32.44" y="7.49" width="0.49" height="37.31" transform="translate(-8.9 30.91) rotate(-45.18)"/><rect x="32.79" y="7.15" width="0.49" height="37.31" transform="translate(-8.57 30.91) rotate(-45)"/><rect x="33.13" y="6.8" width="0.49" height="37.31" transform="translate(-8.23 31.06) rotate(-45)"/><rect x="33.48" y="6.46" width="0.49" height="37.31" transform="translate(-7.86 31.33) rotate(-45.18)"/><rect x="33.83" y="6.11" width="0.49" height="37.31" transform="translate(-7.53 31.34) rotate(-45)"/><rect x="34.17" y="5.76" width="0.49" height="37.31" transform="translate(-7.19 31.49) rotate(-45)"/><rect x="34.52" y="5.42" width="0.49" height="37.31" transform="translate(-6.84 31.63) rotate(-45)"/><rect x="34.86" y="5.07" width="0.49" height="37.31" transform="translate(-6.47 31.91) rotate(-45.18)"/><rect x="35.21" y="4.73" width="0.49" height="37.31" transform="translate(-6.15 31.92) rotate(-45)"/><rect x="35.55" y="4.38" width="0.49" height="37.31" transform="translate(-5.8 32.06) rotate(-45)"/><rect x="35.9" y="4.03" width="0.49" height="37.31" transform="translate(-5.43 32.34) rotate(-45.18)"/><rect x="36.25" y="3.69" width="0.49" height="37.31" transform="translate(-5.11 32.35) rotate(-45)"/><rect x="36.59" y="3.34" width="0.49" height="37.31" transform="translate(-4.77 32.49) rotate(-45)"/><rect x="36.94" y="3" width="0.49" height="37.31" transform="translate(-4.39 32.77) rotate(-45.18)"/><rect x="37.28" y="2.65" width="0.49" height="37.31" transform="translate(-4.07 32.78) rotate(-45)"/><rect x="37.63" y="2.31" width="0.49" height="37.31" transform="translate(-3.73 32.92) rotate(-45)"/><rect x="37.98" y="1.96" width="0.49" height="37.31" transform="translate(-3.38 33.06) rotate(-45)"/><rect x="38.32" y="1.61" width="0.49" height="37.31" transform="translate(-3 33.34) rotate(-45.18)"/><rect x="38.67" y="1.27" width="0.49" height="37.31" transform="translate(-2.69 33.35) rotate(-45)"/><rect x="39.01" y="0.92" width="0.49" height="37.31" transform="translate(-2.35 33.49) rotate(-45)"/><rect x="39.36" y="0.58" width="0.49" height="37.31" transform="translate(-1.95 33.77) rotate(-45.18)"/><rect x="39.7" y="0.23" width="0.49" height="37.31" transform="translate(-1.65 33.78) rotate(-45)"/><rect x="40.05" y="-0.11" width="0.49" height="37.31" transform="translate(-1.31 33.92) rotate(-45)"/><rect x="40.4" y="-0.46" width="0.49" height="37.31" transform="translate(-0.91 34.2) rotate(-45.18)"/><rect x="40.74" y="-0.81" width="0.49" height="37.31" transform="translate(-0.62 34.21) rotate(-45)"/><rect x="41.09" y="-1.15" width="0.49" height="37.31" transform="translate(-0.27 34.35) rotate(-45)"/><rect x="41.43" y="-1.5" width="0.49" height="37.31" transform="translate(0.07 34.5) rotate(-45)"/><rect x="41.78" y="-1.84" width="0.49" height="37.31" transform="translate(0.48 34.77) rotate(-45.18)"/><rect x="42.13" y="-2.19" width="0.49" height="37.31" transform="translate(0.77 34.78) rotate(-45)"/><rect x="42.47" y="-2.54" width="0.49" height="37.31" transform="translate(1.11 34.93) rotate(-45)"/><rect x="42.82" y="-2.88" width="0.49" height="37.31" transform="translate(1.52 35.2) rotate(-45.18)"/><rect x="43.16" y="-3.23" width="0.49" height="37.31" transform="translate(1.8 35.21) rotate(-45)"/><rect x="43.51" y="-3.57" width="0.49" height="37.31" transform="translate(2.22 35.49) rotate(-45.18)"/><rect x="43.86" y="-3.92" width="0.49" height="37.31" transform="translate(2.5 35.5) rotate(-45)"/><polygon points="31.08 1.37 32.38 0.07 38.48 0.07 61.81 23.41 57.47 27.76 31.08 1.37"/><polygon points="47.18 0.07 62.05 14.94 62.05 23.17 61.81 23.41 38.48 0.07 47.18 0.07"/><polygon points="55.88 0.07 62.05 6.24 62.05 14.94 47.18 0.07 55.88 0.07"/><polygon points="62.05 6.24 55.88 0.07 62.05 0.07 62.05 6.24"/><polygon points="41.3 20.58 41.54 20.82 41.3 20.82 41.3 20.58"/><polygon points="41.3 19.89 42.23 20.82 41.54 20.82 41.3 20.58 41.3 19.89"/><polygon points="41.3 19.2 42.92 20.82 42.23 20.82 41.3 19.89 41.3 19.2"/><polygon points="41.3 18.51 43.61 20.82 42.92 20.82 41.3 19.2 41.3 18.51"/><polygon points="41.3 17.82 44.3 20.82 43.61 20.82 41.3 18.51 41.3 17.82"/><polygon points="41.3 17.12 45 20.82 44.3 20.82 41.3 17.82 41.3 17.12"/><polygon points="41.3 16.43 45.69 20.82 45 20.82 41.3 17.13 41.3 16.43"/><polygon points="41.3 15.74 46.38 20.82 45.69 20.82 41.3 16.43 41.3 15.74"/><polygon points="41.3 15.05 47.07 20.82 46.38 20.82 41.3 15.74 41.3 15.05"/><polygon points="41.3 14.36 47.76 20.82 47.07 20.82 41.3 15.05 41.3 14.36"/><polygon points="41.3 13.66 48.45 20.82 47.76 20.82 41.3 14.36 41.3 13.66"/><polygon points="41.3 12.97 49.15 20.82 48.45 20.82 41.3 13.67 41.3 12.97"/><polygon points="41.3 12.28 49.84 20.82 49.15 20.82 41.3 12.97 41.3 12.28"/><polygon points="41.3 11.59 50.53 20.82 49.84 20.82 41.3 12.28 41.3 11.59"/><polygon points="41.94 3.53 58.59 20.19 58.59 20.82 50.53 20.82 41.3 11.59 41.3 3.53 41.94 3.53"/><polygon points="50.63 3.53 58.59 11.49 58.59 20.19 41.94 3.53 50.63 3.53"/><polygon points="58.59 11.49 50.63 3.53 58.59 3.53 58.59 11.49"/></g></svg>