<?xml version="1.0" encoding="utf-8"?><svg id="Layer_1" data-name="Layer 1" xmlns="http://www.w3.org/2000/svg" xmlns:xlink="http://www.w3.org/1999/xlink" viewBox="0 0 400 400"><defs><style>.cls-1{fill:none;}.cls-2{fill:#c2d500;}.cls-3{clip-path:url(#clip-path);}.cls-4{fill:#d50057;}.cls-5{clip-path:url(#clip-path-2);}.cls-6{fill:#fff;}.cls-7{fill:#ffc629;}.cls-8{fill:#0093d2;}</style><clipPath id="clip-path"><circle class="cls-1" cx="200" cy="200" r="200"/></clipPath><clipPath id="clip-path-2"><circle class="cls-2" cx="200" cy="-229.64" r="200"/></clipPath></defs><title>4Artboard 1 copy 18</title><g class="cls-3"><circle class="cls-4" cx="234.97" cy="188.23" r="276.69"/></g><circle class="cls-2" cx="200" cy="-229.64" r="200"/><g class="cls-5"><circle class="cls-2" cx="234.97" cy="-241.42" r="276.69"/></g><path class="cls-6" d="M314.62,200A114.62,114.62,0,1,1,200,85.38,114.62,114.62,0,0,1,314.62,200"/><path d="M175.42,193.14a12.56,12.56,0,0,0,2.64-7.22,8,8,0,0,0-2.29-5.82,7.87,7.87,0,0,0-5.87-2.33q-6.56,0-12.44,9.35L145,179.75a38.68,38.68,0,0,1,10.69-11.44q5.84-3.88,14.83-3.88a23.85,23.85,0,0,1,15.82,5.73q6.82,5.72,6.82,15.56a20.89,20.89,0,0,1-2.74,10.3q-2.74,4.92-10.1,12.59l-12.54,13h27.47v13.92H146.22V224l20.4-20.89a88,88,0,0,0,8.8-10"/><polygon points="232.19 205.52 232.19 193.39 247.11 193.39 247.11 205.52 254.97 205.52 254.97 218.96 247.11 218.96 247.11 235.57 232.19 235.57 232.19 218.96 204.23 218.96 204.23 207.12 229 166.03 245.92 166.03 222.34 205.52 232.19 205.52"/><path class="cls-2" d="M195.83,132l8.58-15.17a78.2,78.2,0,0,0-95.17,14,81,81,0,0,1,7.44-18A78.26,78.26,0,0,1,223.44,83.16L232,68l15.1,50.83Z"/><path class="cls-7" d="M144.56,238.91l-17.43.15a78.2,78.2,0,0,0,59.73,75.4A81.37,81.37,0,0,1,167.54,317a78.27,78.27,0,0,1-79.09-77.61L71,239.57l36.46-38.49Z"/><path class="cls-8" d="M261.91,230.35l8.85,15A78.2,78.2,0,0,0,306.2,156a80.87,80.87,0,0,1,11.87,15.43,78.27,78.27,0,0,1-27.67,107.3l8.85,15-51.57-12.33Z"/></svg>