<?xml version="1.0" encoding="utf-8"?><svg xmlns="http://www.w3.org/2000/svg" xmlns:xlink="http://www.w3.org/1999/xlink" viewBox="0 0 400 400"><defs><style>.cls-1{fill:none;}.cls-2{fill:#c2d500;}.cls-3{fill:#ffc629;}.cls-4{isolation:isolate;}.cls-5{clip-path:url(#clip-path);}.cls-6{fill:#d50057;}.cls-7{clip-path:url(#clip-path-2);}.cls-8{clip-path:url(#clip-path-3);}.cls-9{clip-path:url(#clip-path-4);}.cls-10{opacity:0.55;}.cls-10,.cls-14{mix-blend-mode:multiply;}.cls-11{fill:#d6d6d6;}.cls-12{fill:#fff;}.cls-13{fill:#b2b2b2;}.cls-14{opacity:0.33;}</style><clipPath id="clip-path"><circle class="cls-1" cx="200" cy="629.64" r="200"/></clipPath><clipPath id="clip-path-2"><circle class="cls-2" cx="200" cy="200" r="200"/></clipPath><clipPath id="clip-path-3"><circle class="cls-3" cx="200" cy="-222.11" r="200"/></clipPath><clipPath id="clip-path-4"><circle class="cls-1" cx="200" cy="200" r="200"/></clipPath></defs><title>4Artboard 1 copy 17</title><g class="cls-4"><g id="Layer_1" data-name="Layer 1"><g class="cls-5"><circle class="cls-6" cx="234.97" cy="617.87" r="276.69"/></g><circle class="cls-2" cx="200" cy="200" r="200"/><g class="cls-7"><circle class="cls-2" cx="234.97" cy="188.23" r="276.69"/></g><circle class="cls-3" cx="200" cy="-222.11" r="200"/><g class="cls-8"><circle class="cls-3" cx="234.97" cy="-233.88" r="276.69"/></g><g class="cls-9"><rect class="cls-3" x="78.93" y="238.71" width="241.93" height="161.29"/><rect class="cls-3" x="231.87" y="238.71" width="88.99" height="161.29"/><polygon class="cls-3" points="347.74 187.51 258.75 187.51 231.87 238.71 320.86 238.71 347.74 187.51"/><polygon class="cls-3" points="52.26 187.51 141.25 187.51 168.13 238.72 78.92 238.72 52.26 187.51"/><g class="cls-10"><polygon class="cls-3" points="174.76 340.2 193.65 358.88 212.53 340.2 174.76 340.2"/><rect class="cls-3" x="186.38" y="312.28" width="13.95" height="27.92"/><polygon class="cls-3" points="131.56 340.2 150.45 358.88 169.33 340.2 131.56 340.2"/><rect class="cls-3" x="143.17" y="312.28" width="13.95" height="27.92"/><rect class="cls-3" x="130.47" y="364.8" width="80.72" height="13.95"/></g><g class="cls-10"><rect class="cls-3" x="231.87" y="238.71" width="88.99" height="161.29"/></g><g class="cls-10"><polygon class="cls-3" points="347.74 187.51 258.75 187.51 231.87 238.71 320.86 238.71 347.74 187.51"/></g></g><path class="cls-11" d="M249.7,122.13v44.38a4.68,4.68,0,0,1-4.68,4.68H155a4.68,4.68,0,0,1-4.68-4.68V28.32A4.68,4.68,0,0,1,155,23.64h90a4.68,4.68,0,0,1,4.68,4.68v97"/><rect class="cls-12" x="158.4" y="43.55" width="83.21" height="106.56"/><rect class="cls-13" x="187.48" y="33.34" width="25.04" height="1.53"/><rect class="cls-13" x="196.94" y="156.79" width="6.12" height="4.38"/><polygon class="cls-2" points="186.49 120.12 171.02 104.65 174.95 100.73 186.49 112.28 225.05 73.71 228.98 77.64 186.49 120.12"/><g class="cls-14"><polygon class="cls-3" points="52.26 187.51 141.25 187.51 168.13 238.72 78.92 238.72 52.26 187.51"/></g></g></g></svg>